<svg id="PUNJ" xmlns="http://www.w3.org/2000/svg" width="728" height="90" viewBox="0 0 728 90">
  <defs>
    <style>
      .cls-1 {
        fill: #fff;
        fill-rule: evenodd;
      }
    </style>
  </defs>
  <path class="cls-1" d="M664.284,64.539h-1.14V67.8a1.79,1.79,0,0,1-1.895,2.065,2.482,2.482,0,0,1-2.459-2.246c0-.866.555-1.541,1.894-1.541H661v0.786h-0.318c-0.744,0-1.012.272-1.012,0.725a1.714,1.714,0,0,0,1.637,1.512c0.714,0,1-.5,1-1.31V64.539h-4.433V63.773h6.407v0.765Zm-2.7-1.742a1.527,1.527,0,0,1-1.5-1.794h0.784c0,0.937.356,0.957,0.734,1.008a1.559,1.559,0,0,1,1.477,1.773h-0.773A0.864,0.864,0,0,0,661.583,62.8Zm8.341,1.742h-1.27v3.305a1.791,1.791,0,0,1-1.874,2.065,2.482,2.482,0,0,1-2.48-2.257c0-.856.555-1.531,1.894-1.531h1.627V64.539h-4.305V63.773h6.408v0.765Zm-2.1,3.3V66.906h-1.627c-0.744,0-1.011.272-1.011,0.726a1.707,1.707,0,0,0,1.646,1.511A1.054,1.054,0,0,0,667.821,67.834Zm11.43-3.3h-1.339v5.34h-0.823V67.39h-2.212a9.8,9.8,0,0,1-.348,2.489H673.7a10.526,10.526,0,0,0,.388-2.489,2.063,2.063,0,0,0-.626-1.349l1.191-.424a6.534,6.534,0,0,1,.218,1.008h2.222V64.539h-4.7V63.773h6.864v0.765Zm2.655,0h-1.419V67.45h-0.813V64.539h-1.429V63.773h3.661v0.765Zm6,0h-4.433a1.493,1.493,0,0,0,1.7,1.28,5.192,5.192,0,0,0,1.309-.141V66.4a4.462,4.462,0,0,1-1.141.182l-0.108,1.43-0.021.181a2.612,2.612,0,0,0-1.458-.544,1.078,1.078,0,0,0-.922.4,2.069,2.069,0,0,0,2,1.168,2.832,2.832,0,0,0,2.082-.886v0.816a2.892,2.892,0,0,1-2.221.846,2.711,2.711,0,0,1-2.737-1.944,1.79,1.79,0,0,1,1.794-1.139,2.019,2.019,0,0,1,.784.142l0.049-.5a2.092,2.092,0,0,1-1.923-2.016h-1.617V63.773H687.9v0.765ZM684.618,62.8A1.528,1.528,0,0,1,683.12,61H683.9c0,0.937.357,0.957,0.734,1.008a1.559,1.559,0,0,1,1.478,1.773h-0.774A0.863,0.863,0,0,0,684.618,62.8Z"/>
</svg>
