<svg id="txt1" xmlns="http://www.w3.org/2000/svg" width="728" height="90" viewBox="0 0 728 90">
  <defs>
    <style>
      .cls-1 {
        fill: #4c286c;
        fill-rule: evenodd;
      }
    </style>
  </defs>
  <path class="cls-1" d="M55,41.615H52.3V50.49c0,3.788-1.9,5.668-6.078,5.668-3.513,0-7.556-2.433-7.556-6.138,0-2.682,1.84-4.727,6.106-4.727h3.875V41.615H36.991V38.491H55v3.124Zm-6.357,8.847V48.444H44.771c-1.673,0-2.175.525-2.175,1.465,0,1.908,2.231,3.124,3.82,3.124C48.116,53.034,48.646,52.342,48.646,50.463ZM46.332,32.934a3.894,3.894,0,0,1,3.96-3.953,3.954,3.954,0,1,1,0,7.907A3.894,3.894,0,0,1,46.332,32.934Zm5.521,0a1.6,1.6,0,0,0-1.562-1.576,1.562,1.562,0,0,0,0,3.124A1.589,1.589,0,0,0,51.853,32.934Zm25.176,8.681h-3.29v14.1H70.2v-14.1H66.936v8.46c0,3.566-1.952,5.64-5.241,5.64-3.542,0-6.943-3.566-6.943-6.663,0-2.377,1.952-4.7,6.05-4.7h2.51V41.615H53.888V38.491H77.029v3.124ZM63.312,49.992V47.477H60.8c-0.251,0-2.147-.028-2.147,1.521,0,1.327,1.784,3.7,3.1,3.566C63.312,52.425,63.312,50.85,63.312,49.992Zm42.323-8.377h-2.76V55.854H99.362V54.665a12.412,12.412,0,0,1-2.983.359c-3.848,0-6.664-1.963-7.472-5.032a6.525,6.525,0,0,1,2.342-3.622,6.063,6.063,0,0,1-2.062-3.511,4.743,4.743,0,0,1-.084-1.244H86.341V38.491h19.294v3.124ZM99.362,51.6V47.974H95.988c-1.673,0-2.983.691-3.346,2.018,0.363,1.161,2.119,1.935,4.21,1.935A8.883,8.883,0,0,0,99.362,51.6Zm0-9.981H92.67a4.042,4.042,0,0,0,.111,1c0.391,1.6,1.7,2.212,3.43,2.212h3.151V41.615Zm22.165,0h-2.7V50.49c0,3.788-1.9,5.668-6.078,5.668-3.513,0-7.556-2.433-7.556-6.138,0-2.682,1.84-4.727,6.106-4.727h3.875V41.615H103.516V38.491h18.011v3.124Zm-6.357,8.847V48.444H111.3c-1.673,0-2.175.525-2.175,1.465,0,1.908,2.231,3.124,3.82,3.124C114.64,53.034,115.17,52.342,115.17,50.463Zm23.588-8.847H136V55.854h-3.514V49.688h-4.85c-0.307.94-.837,2.239-1.7,4.341L121.778,52.2c1.617-2.433,3.067-3.649,3.067-6a9.4,9.4,0,0,0-1.283-4.59h-2.815V38.491h18.011v3.124Zm-11.4,0a15.775,15.775,0,0,1,.808,4.783v0.166h4.321V41.615h-5.129Zm8.253-3.1h-3.151c0-1.852-.808-3.179-3.959-3.318l-0.809-3.428C131.481,31.275,135.608,33.542,135.608,38.519ZM144,52.647l-1.868,6.359h-3.206l1.505-6.359H144Z"/>
</svg>
