<svg id="txt1" xmlns="http://www.w3.org/2000/svg" width="728" height="90" viewBox="0 0 728 90">
  <defs>
    <style>
      .cls-1 {
        fill: #4c286c;
        fill-rule: evenodd;
      }
    </style>
  </defs>
  <path class="cls-1" d="M174.138,41.568h-2.776V56.113h-3.534V48.6H165.7a21.785,21.785,0,0,1-2.188,5.564l-3.59-1.666c2.945-4.829,3.085-6.58,1.851-7.908-1.683.169-2.412,1.808-4.459,6.326l-3.59-1.667c1.767-4.123,2.384-6.015.842-7.682H151V38.377h5.132c1.851,0.565,2.692,2.993,2.412,4.716a4.677,4.677,0,0,1,4.908-1.92,6.426,6.426,0,0,1,2.44,4.237h1.935V38.377h6.31v3.191Zm15.733,0h-3v1.073c0,2.965-.5,3.5-1.206,4.236a5.707,5.707,0,0,1,1.206,3.559c0,3.3-2.833,5.818-7.039,5.818-2.131,0-4.572-.706-5.637-1.695V51.2a9.84,9.84,0,0,0,5.272,1.836c2.3,0,3.814-1.129,3.814-2.57,0-1.779-1.991-1.864-6.2-1.864V45.409c4.263,0,6.226.225,6.171-2.514V41.568h-11.5V38.377h18.118v3.191ZM186.478,38.4h-3.169c0-1.892-.813-3.248-3.982-3.389l-0.814-3.5C182.327,31.005,186.478,33.321,186.478,38.4ZM213.85,45.55a4.975,4.975,0,0,1,1.543,4.067c0,4.265-3.422,7.173-8.021,7.173-3.506,0-5.806-1.779-5.806-4.406,0-2.174,1.515-3.84,4.543-3.84a5.647,5.647,0,0,1,5.357,3.135,3.511,3.511,0,0,0,.337-1.553c0-2.993-1.235-2.8-4.095-2.768h-3.085V43.743h3.085c3.309-.113,3.842.085,3.926-2.175H199.21V38.377h18.117v3.191h-2.1C215.14,44.11,214.8,44.985,213.85,45.55ZM207.6,53.6a6.607,6.607,0,0,0,1.542-.169,3.248,3.248,0,0,0-3-1.694c-0.785,0-1.009.282-1.009,0.678C205.128,52.922,205.688,53.6,207.6,53.6Zm17.641-12.031h-3.45V56.113h-3.533V41.568h-3.366V38.377h3.393v-2.2a1.8,1.8,0,0,0-1.711-1.92,1.776,1.776,0,0,0-1.682,1.92v0.847H211.3V36.174a5.26,5.26,0,0,1,10.517,0v2.2h3.422v3.191Zm20.3,0H240.1v0.226a10.542,10.542,0,0,1-.421,2.965,6.627,6.627,0,0,1,3.646,5.817c0,3.785-3.282,5.677-6.171,5.677V53.176a2.6,2.6,0,0,0,2.636-2.711,3.183,3.183,0,0,0-1.458-2.711,10.485,10.485,0,0,1-4.01,3.784,11.078,11.078,0,0,1-3.982-3.784,3.087,3.087,0,0,0-1.459,2.711,2.56,2.56,0,0,0,2.581,2.711v3.079c-2.889,0-6.171-1.892-6.171-5.677a6.654,6.654,0,0,1,3.674-5.817,10.491,10.491,0,0,1-.42-2.937V41.568h-4.993V38.377h21.988v3.191Zm-9.03,0h-4.4v0.508c0,1.892.73,4.321,2.216,5.507a6.859,6.859,0,0,0,2.188-5.479V41.568Zm26.419,0h-3.17V56.113h-3.534V49.5h-5.132a38.852,38.852,0,0,1-.9,6.609h-3.562a38.879,38.879,0,0,0,1.037-6.637,6.934,6.934,0,0,0-1.626-4.321l4.851-1.948c0.085,1.073.2,1.948,0.253,3.107h5.076V41.568h-12.7V38.377H262.93v3.191ZM255.3,54.87a1.855,1.855,0,0,1-1.851,1.864A1.8,1.8,0,0,1,251.6,54.87a1.832,1.832,0,0,1,1.851-1.836A1.888,1.888,0,0,1,255.3,54.87Zm22.521-6.976c0,0.48.28,0.9,1.317,0.9h7.937v3.163h-7.628c0.14,1.073.842,2.146,3.5,2.118,0.113,0,3.169-.085,4.207-0.734v2.627a10.064,10.064,0,0,1-4.739,1.017c-5.132,0-6.17-3.5-6.17-5.479V51.255a3.837,3.837,0,0,1-2.16-3.389c0-2.2,1.8-4.01,5.862-4.01h3.533V41.568h-11.61V38.377h18.117v3.191h-2.917v5.479H279.5C279.111,47.047,277.822,46.849,277.822,47.895Zm20.08-6.326h-3.45V56.113h-3.533V41.568h-3.365V38.377h3.393v-2.2a1.8,1.8,0,0,0-1.711-1.92,1.776,1.776,0,0,0-1.682,1.92v0.847h-3.59V36.174a5.26,5.26,0,0,1,10.517,0v2.2H297.9v3.191ZM305,54.7h-3.534V39.591H305V54.7Z"/>
</svg>
