<svg id="txt1" xmlns="http://www.w3.org/2000/svg" width="728" height="90" viewBox="0 0 728 90">
  <defs>
    <style>
      .cls-1 {
        fill: #4c286c;
        fill-rule: evenodd;
      }
    </style>
  </defs>
  <path class="cls-1" d="M507.08,52.225h-0.915v4.406c0,1.941-.97,2.9-3.022,2.9-1.841,0-3.851-1.246-3.851-3.159,0-1.361.928-2.409,3.078-2.409h0.45v1.615h-0.45c-0.843,0-1.1.27-1.1,0.751a1.889,1.889,0,0,0,1.953,1.6c0.815,0,1.1-.354,1.1-1.318V52.225H498v-1.6h9.081v1.6Zm-2.226,7.805v1.3a4.016,4.016,0,0,1-2.262.609,4.1,4.1,0,0,1-2.278-.609v-1.3a4.153,4.153,0,0,0,2.221.468A4.584,4.584,0,0,0,504.854,60.03Zm10.725-7.805h-5.946c0.085,0.737.745,1.218,2.305,1.218,0.253,0,1.42,0,1.617-.042v1.474a11.268,11.268,0,0,1-1.406.114l-0.238,2.323-1.519-.737a2.106,2.106,0,0,0-.661-0.112,1.323,1.323,0,0,0-.955.382,2.658,2.658,0,0,0,2.515,1.318,3.9,3.9,0,0,0,2.882-1.176V58.6a4.091,4.091,0,0,1-3.2,1.176,4.008,4.008,0,0,1-4.161-2.932,2.731,2.731,0,0,1,2.812-1.828,3.5,3.5,0,0,1,.9.114l0.014-.156a3.021,3.021,0,0,1-2.713-2.748h-1.968v-1.6h9.727v1.6Zm14.245,0h-1.392v7.3h-1.771v-3.16h-2.446c-0.154.482-.422,1.148-0.858,2.224l-2.094-.935c0.815-1.246,1.546-1.87,1.546-3.074a4.87,4.87,0,0,0-.646-2.352h-1.42v-1.6h9.081v1.6Zm-5.749,0a8.239,8.239,0,0,1,.407,2.45V54.76h2.179V52.225h-2.586Zm1.855,6.715a0.929,0.929,0,0,1-.927.934,0.9,0.9,0,0,1-.928-0.934A0.919,0.919,0,0,1,525,58.019,0.946,0.946,0,0,1,525.93,58.94Zm1.374,1.09v1.3a4.022,4.022,0,0,1-2.263.609,4.107,4.107,0,0,1-2.278-.609v-1.3a4.153,4.153,0,0,0,2.221.468A4.591,4.591,0,0,0,527.3,60.03Zm10.6-7.805h-1.364v4.547c0,1.941-.955,2.9-3.064,2.9-1.771,0-3.809-1.247-3.809-3.146,0-1.374.928-2.423,3.079-2.423H534.7V52.225h-5.875v-1.6h9.08v1.6Zm-3.2,4.533V55.724h-1.953c-0.844,0-1.1.269-1.1,0.751a1.89,1.89,0,0,0,1.925,1.6C534.43,58.076,534.7,57.721,534.7,56.758Zm0.84,3.272v1.3a4.022,4.022,0,0,1-2.263.609A4.1,4.1,0,0,1,531,61.334v-1.3a4.149,4.149,0,0,0,2.22.468A4.591,4.591,0,0,0,535.536,60.03Zm0,2.041v1.3a4.022,4.022,0,0,1-2.263.609A4.1,4.1,0,0,1,531,63.374v-1.3a4.159,4.159,0,0,0,2.22.467A4.6,4.6,0,0,0,535.536,62.071Zm16.456-9.846h-0.914v4.406c0,1.941-.971,2.9-3.023,2.9-1.841,0-3.851-1.246-3.851-3.159,0-1.361.928-2.409,3.078-2.409h0.45v1.615h-0.45c-0.842,0-1.1.27-1.1,0.751a1.889,1.889,0,0,0,1.953,1.6c0.815,0,1.1-.354,1.1-1.318V52.225h-6.325v-1.6h9.081v1.6Zm-1-1.587h-1.771c0-.524-0.534-0.552-1.785-0.608l-0.422-1.771a4.994,4.994,0,0,1,2.643.736,3.942,3.942,0,0,0-2.193-1.147l-0.435-1.842C549.514,46.119,550.989,47.833,550.989,50.638Z"/>
</svg>
