<svg id="txt1" xmlns="http://www.w3.org/2000/svg" width="728" height="90" viewBox="0 0 728 90">
  <defs>
    <style>
      .cls-1 {
        fill: #4c286c;
        fill-rule: evenodd;
      }
    </style>
  </defs>
  <path class="cls-1" d="M506.056,35.33h-1.387v7.144H502.9V39.38h-2.439c-0.154.472-.42,1.124-0.855,2.178l-2.088-.916c0.813-1.22,1.542-1.831,1.542-3.01a4.713,4.713,0,0,0-.645-2.3H497V33.762h9.055V35.33Zm-5.733,0a7.915,7.915,0,0,1,.407,2.4v0.083H502.9V35.33h-2.579Zm11.363-2.65V33.1h-1.794V32.68a0.877,0.877,0,0,0-.841-0.943,0.889,0.889,0,0,0-.855.943v1.082h1.7V35.33H508.21v7.144h-1.766V35.33h-1.725V33.762h1.71V32.68A2.631,2.631,0,0,1,511.686,32.68Zm6.333,2.65h-1.388v7.144h-1.766V41.641a4.679,4.679,0,0,1-1.331.208c-1.822,0-3.616-1.1-3.574-2.58a5.623,5.623,0,0,0,.924-2.83,2.782,2.782,0,0,0-.139-1.109h-1.781V33.762h2.8a4.553,4.553,0,0,1,.784,2.663,6.341,6.341,0,0,1-.756,2.843c-0.028.417,1.233,0.874,2.256,0.874a4.064,4.064,0,0,0,.813-0.083v-6.3h3.154V35.33Zm-1.237,10.529c-0.323-.278-0.617-0.527-0.883-0.721a7.7,7.7,0,0,1-.9.429l-1.234.444-0.617-2.122,1.332-.444a1.737,1.737,0,0,1,.378-0.042V41.378h1.781V44c0.294,0.193.63,0.429,1.037,0.735Zm-3.114-14.884a1.956,1.956,0,0,1,1.991-1.983,1.984,1.984,0,1,1,0,3.967A1.956,1.956,0,0,1,513.668,30.974Zm2.776,0a0.8,0.8,0,0,0-.785-0.791,0.784,0.784,0,0,0,0,1.568A0.8,0.8,0,0,0,516.444,30.974Zm12.307,4.356H527.1V42.4h-1.781V35.33h-1.639v4.245a2.506,2.506,0,0,1-2.636,2.83,3.746,3.746,0,0,1-3.489-3.343c0-1.192.981-2.358,3.041-2.358h1.261V35.33h-4.737V33.762h11.633V35.33Zm-6.9,4.2V38.271h-1.261a0.933,0.933,0,0,0-1.079.763c0,0.665.9,1.859,1.555,1.789A1.045,1.045,0,0,0,521.855,39.533Zm21.114-4.2h-1.388v7.144h-1.766V39.38h-2.439c-0.154.472-.42,1.124-0.855,2.178l-2.088-.916c0.813-1.22,1.542-1.831,1.542-3.01a4.713,4.713,0,0,0-.645-2.3h-1.416V33.762h9.055V35.33Zm-5.733,0a7.881,7.881,0,0,1,.406,2.4v0.083h2.173V35.33h-2.579Zm4.145-1.554H539.8c0-.929-0.407-1.595-1.991-1.664L537.4,30.391A3.356,3.356,0,0,1,541.381,33.776ZM553,35.33h-2.718v0.111a5.059,5.059,0,0,1-.211,1.456,3.248,3.248,0,0,1,1.822,2.857,2.893,2.893,0,0,1-3.084,2.789V41.031a1.291,1.291,0,0,0,1.319-1.332,1.56,1.56,0,0,0-.729-1.332,5.212,5.212,0,0,1-2,1.859,5.5,5.5,0,0,1-1.99-1.859,1.512,1.512,0,0,0-.729,1.332,1.267,1.267,0,0,0,1.29,1.332v1.512a2.894,2.894,0,0,1-3.084-2.789,3.263,3.263,0,0,1,1.836-2.857,5.07,5.07,0,0,1-.21-1.443V35.33h-2.5V33.762H553V35.33Zm-4.512,0h-2.2v0.25a3.633,3.633,0,0,0,1.107,2.7,3.341,3.341,0,0,0,1.094-2.691V35.33Z"/>
</svg>
