<svg xmlns="http://www.w3.org/2000/svg" width="728" height="90" viewBox="0 0 728 90">
  <defs>
    <style>
      .cls-1 {
        fill: #4c286c;
        fill-rule: evenodd;
      }
    </style>
  </defs>
  <path class="cls-1" d="M45.86,31.68H43.877V41.958H41.354V41.1a8.874,8.874,0,0,1-2.143.259c-2.764,0-4.787-1.416-5.368-3.632a4.714,4.714,0,0,1,1.683-2.615,4.381,4.381,0,0,1-1.482-2.534,3.444,3.444,0,0,1-.06-0.9H32V29.425H45.86V31.68Zm-4.506,7.2V36.269H38.93a2.249,2.249,0,0,0-2.4,1.457c0.26,0.838,1.522,1.4,3.024,1.4A6.352,6.352,0,0,0,41.354,38.884Zm0-7.2H36.547a2.9,2.9,0,0,0,.08.719c0.28,1.157,1.221,1.6,2.463,1.6h2.264V31.68Zm16,0H55.27v6.026a3.983,3.983,0,0,1-4.306,4.231,4.028,4.028,0,0,1-4.346-4.111V36.469a5,5,0,0,0-1.142-2.734l3.465-1.377c0.059,0.758.14,1.377,0.18,2.195h3.625V31.68H43.494V29.425H57.353V31.68Zm-4.606,5.947V36.809H48.921v0.379c0.04,1.776.741,2.474,2.063,2.474A1.636,1.636,0,0,0,52.747,37.626Zm15.7-5.947H66.3v0.758c0,2.1-.361,2.476-0.861,2.994a4.007,4.007,0,0,1,.861,2.514c0,2.335-2.023,4.111-5.028,4.111a6.739,6.739,0,0,1-4.025-1.2V38.485a7.075,7.075,0,0,0,3.765,1.3c1.643,0,2.724-.8,2.724-1.816,0-1.258-1.422-1.317-4.426-1.317V34.394c3.044,0,4.446.16,4.406-1.776V31.68H55.509V29.425H68.447V31.68Zm18.861-.459h-2.1l-0.04,1.835a8,8,0,0,1-1.122,4.331,11.209,11.209,0,0,1,.44,3.192c0,0.4,0,.878-0.02,1.277H82.823c0.02-.3.04-0.9,0.04-1.317a11.547,11.547,0,0,0-.12-1.717,5.545,5.545,0,0,1-3.425,1.118c-2.523,0-3.985-1.4-3.985-3.433A3.352,3.352,0,0,1,79,33.056a4.876,4.876,0,0,1,4.206,2.4,7.934,7.934,0,0,0,.321-2.3V31.221H73.449V29.7H87.308v1.517ZM82.3,37.088a3.4,3.4,0,0,0-3.164-2.494,1.9,1.9,0,0,0-2.143,1.9c0,1.157.861,1.9,2.4,1.9A3.656,3.656,0,0,0,82.3,37.088Zm16.34-5.867H96.078v6.546c0,2.494-1.242,4.091-3.785,4.091-2.443,0-5.007-2-5.007-4.47,0-1.7,1.121-3.034,3.825-3.034H94.4V31.221H85.7V29.7H98.641v1.517ZM94.4,37.746V35.911H91.111c-1.5,0-2.042.539-2.042,1.437,0,1.616,1.8,2.993,3.324,2.993C93.795,40.341,94.4,39.343,94.4,37.746Zm-1.464-9.978c-0.962-.179-3.024-0.32-3.024-3.552H91.49c0,1.856.721,1.9,1.482,2,1.542,0.24,2.984.938,2.984,3.513H94.394A1.717,1.717,0,0,0,92.932,27.768Zm24.111,3.453h-2.564v6.546c0,2.494-1.241,4.091-3.784,4.091-2.444,0-5.007-2-5.007-4.47,0-1.7,1.121-3.034,3.825-3.034H112.8V31.221h-8.692V29.7h12.937v1.517ZM112.8,37.746V35.911h-3.285c-1.5,0-2.043.539-2.043,1.437,0,1.616,1.8,2.993,3.324,2.993C112.2,40.341,112.8,39.343,112.8,37.746Zm-1.986-12.093a2.654,2.654,0,1,1,2.663,2.634A2.658,2.658,0,0,1,110.812,25.653Zm4.006,0a1.328,1.328,0,0,0-1.343-1.338A1.327,1.327,0,1,0,114.818,25.653ZM132.3,31.221h-2.5V41.857h-1.663V31.221h-3.264v6.565c0,2.594-1.182,4.071-3.185,4.071a5.081,5.081,0,0,1-4.606-4.65c0-1.4,1.062-2.854,3.845-2.854h2.264V31.221h-7.511V29.7H132.3v1.517Zm-9.112,6.506V35.89h-2.264c-0.981,0-2.063.279-2.063,1.277,0,1.2,1.4,3.194,2.824,3.154C123.19,40.281,123.19,38.285,123.19,37.727Zm14.236-6.506h-2.883V41.8H132.88V31.221h-2.843V29.7h2.843V27.869c0-1.537-.82-2.1-1.641-2.1s-1.663.558-1.663,2.1v0.6h-1.642v-0.6c0-2.2,1.2-3.633,3.305-3.633,2.082,0,3.3,1.437,3.3,3.633V29.7h2.883v1.517Zm5.887,0v2.335a4.153,4.153,0,0,1,3.766,4.251,3.776,3.776,0,0,1-3.645,3.792V40.062a2.35,2.35,0,0,0,2-2.4,2.983,2.983,0,0,0-5.929,0,2.35,2.35,0,0,0,2,2.4V41.6a3.761,3.761,0,0,1-3.644-3.792,4.168,4.168,0,0,1,3.784-4.251V31.221H135.9V29.7h12.938v1.517h-5.528Zm20.2,3.472a2.937,2.937,0,0,1,1.7,2.814c0,2.614-2.2,4.55-5.207,4.55-2.324,0-3.765-1.138-3.765-2.734,0-1.3.94-2.335,2.763-2.335a4.378,4.378,0,0,1,3.946,2.454,2.776,2.776,0,0,0,.6-1.8c0-1.616-1.2-2.155-3.345-2.136h-2.2V33.875h2.2c2.464-.12,3.185-0.518,3.245-2.654h-9.312V29.7h12.938v1.517H165.12C165.039,33.416,164.258,34.434,163.517,34.693Zm-3.424,5.828a4.789,4.789,0,0,0,1.762-.3,3.3,3.3,0,0,0-2.824-1.716,0.92,0.92,0,0,0-1.121.838C157.91,39.942,158.531,40.521,160.093,40.521Zm12.635-9.3h-2.883V41.8h-1.663V31.221h-2.843V29.7h2.843V27.869c0-1.537-.82-2.1-1.642-2.1s-1.662.558-1.662,2.1v0.6h-1.642v-0.6c0-2.2,1.2-3.633,3.3-3.633,2.083,0,3.305,1.437,3.305,3.633V29.7h2.883v1.517Zm14.179,0h-4.066c0.02,0.219.04,0.459,0.04,0.718a6.894,6.894,0,0,1-.36,2.2,4.184,4.184,0,0,1,2.684,3.872,3.756,3.756,0,0,1-3.966,3.712v-1.5a2.243,2.243,0,0,0,2.3-2.214,2.805,2.805,0,0,0-1.642-2.495,6.884,6.884,0,0,1-2.684,2.714,6.866,6.866,0,0,1-2.7-2.694,2.813,2.813,0,0,0-1.622,2.474,2.238,2.238,0,0,0,2.283,2.214v1.5a3.739,3.739,0,0,1-3.945-3.712,4.2,4.2,0,0,1,2.663-3.872,7.436,7.436,0,0,1-.34-2.215,6.963,6.963,0,0,1,.04-0.7h-4.386V29.7h15.7v1.517Zm-5.708,0h-3.965c-0.021.24-.041,0.5-0.041,0.779a5.1,5.1,0,0,0,2.023,4.41,5.32,5.32,0,0,0,2.023-4.431C181.239,31.72,181.219,31.461,181.2,31.221Zm17.782,0h-2.7V41.8h-1.663v-4.93h-4.466a19.117,19.117,0,0,1-.7,4.93h-1.682a20.637,20.637,0,0,0,.781-4.93,4.059,4.059,0,0,0-1.262-2.674l2.4-.838a12.618,12.618,0,0,1,.441,2h4.486V31.221h-9.493V29.7h13.859v1.517Zm-5.647,8.94a1.046,1.046,0,0,1-1.043,1.038,1.028,1.028,0,1,1,0-2.056A1.042,1.042,0,0,1,193.334,40.161Zm14.8-3.133a2.864,2.864,0,0,0,3.064,3.213,4.535,4.535,0,0,0,3.3-1.3v1.537a4.494,4.494,0,0,1-3.4,1.3,4.318,4.318,0,0,1-4.506-4.51V36.45a4.056,4.056,0,0,0-1.263-2.674l2.405-.838a12.729,12.729,0,0,1,.44,2h4.486V31.221h-9.333V29.7h13.859v1.517h-2.863V36.45H208.13v0.579Zm6.086-7.3h-1.542a2.936,2.936,0,0,0-3.364-3.093l-0.381-1.6A4.633,4.633,0,0,1,214.216,29.725Zm15.219,1.5v2.335a4.152,4.152,0,0,1,3.765,4.251,3.775,3.775,0,0,1-3.645,3.792V40.062a2.35,2.35,0,0,0,2-2.4,2.983,2.983,0,0,0-5.929,0,2.35,2.35,0,0,0,2,2.4V41.6a3.762,3.762,0,0,1-3.645-3.792,4.169,4.169,0,0,1,3.785-4.251V31.221h-5.748V29.7h12.938v1.517h-5.528Zm11.413,0h-2.864v5.767h-1.642V31.221h-2.884V29.7h7.39v1.517Zm14.18,0h-4.066c0.02,0.219.04,0.459,0.04,0.718a6.922,6.922,0,0,1-.36,2.2,4.184,4.184,0,0,1,2.684,3.872,3.756,3.756,0,0,1-3.966,3.712v-1.5a2.243,2.243,0,0,0,2.3-2.214,2.805,2.805,0,0,0-1.642-2.495,6.884,6.884,0,0,1-2.684,2.714,6.866,6.866,0,0,1-2.7-2.694,2.813,2.813,0,0,0-1.622,2.474,2.238,2.238,0,0,0,2.283,2.214v1.5a3.739,3.739,0,0,1-3.945-3.712,4.194,4.194,0,0,1,2.663-3.872,7.436,7.436,0,0,1-.34-2.215,6.963,6.963,0,0,1,.04-0.7h-4.386V29.7h15.7v1.517Zm-5.708,0h-3.966c-0.02.24-.04,0.5-0.04,0.779a5.1,5.1,0,0,0,2.023,4.41,5.32,5.32,0,0,0,2.023-4.431C249.36,31.72,249.34,31.461,249.32,31.221Zm14.835,6.167a2.844,2.844,0,0,0,.681,1.875,3.863,3.863,0,0,1,3.825-2.554c1.964,0,3,1.138,3,2.495,0,1.616-1.482,2.793-3.845,2.793-3.005,0-5.328-1.915-5.328-4.669,0-1.875,1.1-3.931,4.487-3.931h2.463V31.221H260.55V29.7h12.938v1.517h-2.383v3.732H266.5A2.248,2.248,0,0,0,264.155,37.388ZM265.838,40a4.685,4.685,0,0,0,2.063.439c1.221,0,2.1-.379,2.1-1.078,0-.579-0.5-1.138-1.6-1.138A2.745,2.745,0,0,0,265.838,40Zm2.141-12.233c-0.962-.179-3.024-0.32-3.024-3.552h1.582c0,1.856.72,1.9,1.482,2,1.542,0.24,2.984.938,2.984,3.513h-1.562A1.717,1.717,0,0,0,267.979,27.768Zm11.636,3.453v2.335a4.152,4.152,0,0,1,3.765,4.251,3.775,3.775,0,0,1-3.645,3.792V40.062a2.35,2.35,0,0,0,2-2.4,2.983,2.983,0,0,0-5.929,0,2.351,2.351,0,0,0,2,2.4V41.6a3.762,3.762,0,0,1-3.645-3.792,4.169,4.169,0,0,1,3.785-4.251V31.221h-5.748V29.7h12.938v1.517h-5.528Zm17.6,0h-2.7V41.8h-1.662v-4.93h-4.466a19.161,19.161,0,0,1-.7,4.93H286a20.593,20.593,0,0,0,.782-4.93,4.056,4.056,0,0,0-1.263-2.674l2.4-.838a12.4,12.4,0,0,1,.441,2h4.487V31.221h-9.493V29.7h13.859v1.517Zm-5.648,8.94a1.045,1.045,0,0,1-1.042,1.038,1.028,1.028,0,1,1,0-2.056A1.042,1.042,0,0,1,291.569,40.161ZM300,39.642l-1.322,4.59h-1.482l1.142-4.59H300Zm-258.625,17a2.936,2.936,0,0,1,1.7,2.815c0,2.614-2.2,4.549-5.207,4.549C35.545,64,34.1,62.867,34.1,61.27c0-1.3.941-2.335,2.763-2.335a4.379,4.379,0,0,1,3.946,2.455,2.775,2.775,0,0,0,.6-1.8c0-1.616-1.2-2.155-3.345-2.136h-2.2V55.822h2.2c2.464-.12,3.185-0.519,3.245-2.655H32V51.65H44.939v1.517H42.976C42.9,55.362,42.114,56.38,41.373,56.639Zm-3.424,5.828a4.808,4.808,0,0,0,1.762-.3,3.3,3.3,0,0,0-2.824-1.717,0.92,0.92,0,0,0-1.122.838C35.766,61.888,36.387,62.467,37.949,62.467Zm4.9-10.8H41.312a2.937,2.937,0,0,0-3.364-3.093l-0.38-1.6A4.633,4.633,0,0,1,42.853,51.671Zm3.865,8.482a4.382,4.382,0,0,0,4.105,2.294,5.788,5.788,0,0,0,4.226-1.756v1.616a5.975,5.975,0,0,1-4.486,1.677,5.619,5.619,0,0,1-5.608-3.832,5.348,5.348,0,0,1,5.468-3.832h2.543V53.167H43.194V51.65H57.053v1.517H54.629v4.709H50.424A3.785,3.785,0,0,0,46.718,60.152ZM62.7,53.167H59.834v5.767H58.192V53.167H55.309V51.65H62.7v1.517Zm21.127,0H81.4V63.744H79.739V58.236h-1.9a16.191,16.191,0,0,1-1.561,4.071l-1.7-.758c2.083-3.752,2.2-5.029,1.122-6.207-1.2.12-2.223,1.317-3.845,4.669l-1.663-.758c1.4-3.074,1.562-4.909.5-6.087h-2.9V51.65h3.666c1.322,0.679,1.622,2.594,1.422,3.812a3.793,3.793,0,0,1,3.6-1.7,4.118,4.118,0,0,1,1.482,2.953h1.782V51.65h4.086v1.517Zm7.487,4.211a3,3,0,0,1,1.121,2.435c0,2.236-1.882,3.812-4.606,3.812a6.492,6.492,0,0,1-4.006-1.218V60.851a7.306,7.306,0,0,0,3.845,1.217c1.7,0,3.1-.8,3.1-2.294,0-1.577-1.462-1.537-4.887-1.537V56.719c3.725,0,4.906-.059,4.866-2.235V53.167H82.08V51.65H95.018v1.517h-2.6v1.138C92.414,56.4,91.813,57.039,91.312,57.378Zm0.979-5.707H90.749a2.937,2.937,0,0,0-3.364-3.093L87,46.981A4.633,4.633,0,0,1,92.291,51.671Zm17.023,5.707a3,3,0,0,1,1.122,2.435c0,2.236-1.883,3.812-4.607,3.812a6.491,6.491,0,0,1-4-1.218V60.851a7.3,7.3,0,0,0,3.845,1.217c1.7,0,3.1-.8,3.1-2.294,0-1.577-1.461-1.537-4.886-1.537V56.719c3.725,0,4.906-.059,4.866-2.235V53.167h-8.672V51.65H113.02v1.517h-2.6v1.138C110.416,56.4,109.815,57.039,109.314,57.378Zm15.759-4.211h-2.1L122.931,55a7.983,7.983,0,0,1-1.123,4.331,11.166,11.166,0,0,1,.441,3.192c0,0.4,0,.879-0.019,1.277h-1.643c0.02-.3.04-0.9,0.04-1.317a11.551,11.551,0,0,0-.12-1.716,5.551,5.551,0,0,1-3.425,1.117c-2.523,0-3.985-1.4-3.985-3.432A3.351,3.351,0,0,1,116.761,55a4.876,4.876,0,0,1,4.207,2.395,7.951,7.951,0,0,0,.32-2.3V53.167H111.214V51.65h13.859v1.517Zm-5.007,5.868A3.4,3.4,0,0,0,116.9,56.54a1.9,1.9,0,0,0-2.143,1.9c0,1.157.861,1.9,2.4,1.9A3.658,3.658,0,0,0,120.066,59.035ZM130.9,53.167V55.5a4.153,4.153,0,0,1,3.766,4.251,3.776,3.776,0,0,1-3.645,3.792V62.008a2.349,2.349,0,0,0,2-2.395,2.983,2.983,0,0,0-5.929,0,2.349,2.349,0,0,0,2,2.395v1.536a3.762,3.762,0,0,1-3.645-3.792,4.169,4.169,0,0,1,3.785-4.251V53.167h-5.748V51.65h12.938v1.517H130.9Zm11.414,0h-2.864v5.767h-1.642V53.167h-2.883V51.65h7.389v1.517Zm14.179,0h-4.066c0.02,0.22.04,0.459,0.04,0.719a6.888,6.888,0,0,1-.36,2.195,4.184,4.184,0,0,1,2.684,3.872,3.756,3.756,0,0,1-3.966,3.712v-1.5a2.244,2.244,0,0,0,2.3-2.215,2.805,2.805,0,0,0-1.642-2.495,6.877,6.877,0,0,1-2.684,2.714,6.865,6.865,0,0,1-2.7-2.694,2.814,2.814,0,0,0-1.622,2.475,2.238,2.238,0,0,0,2.283,2.215v1.5a3.739,3.739,0,0,1-3.945-3.712,4.2,4.2,0,0,1,2.663-3.872,7.431,7.431,0,0,1-.34-2.215,6.963,6.963,0,0,1,.04-0.7h-4.386V51.65h15.7v1.517Zm-5.708,0h-3.965c-0.021.24-.041,0.5-0.041,0.779a5.1,5.1,0,0,0,2.023,4.41,5.318,5.318,0,0,0,2.023-4.43C150.823,53.666,150.8,53.407,150.783,53.167ZM149.3,49.716c-0.962-.18-3.024-0.32-3.024-3.553h1.582c0,1.856.721,1.9,1.482,2,1.542,0.24,2.984.938,2.984,3.512H150.76A1.716,1.716,0,0,0,149.3,49.716Zm19.267,3.452h-2.7V63.744H164.2v-4.93h-4.467a19.119,19.119,0,0,1-.7,4.93H157.35a20.639,20.639,0,0,0,.781-4.93,4.059,4.059,0,0,0-1.262-2.674l2.4-.838a12.618,12.618,0,0,1,.441,2H164.2V53.167h-9.494V51.65h13.859v1.517Zm5.365,0h-2.884V63.744h-1.662V53.167H166.54V51.65h2.844V49.815c0-1.536-.821-2.1-1.642-2.1s-1.662.559-1.662,2.1v0.6h-1.643v-0.6c0-2.195,1.2-3.632,3.3-3.632,2.082,0,3.3,1.437,3.3,3.632V51.65h2.884v1.517Zm12.014-4.59-1.322,4.59H183.14l1.142-4.59h1.662Zm11.634,8.8a3,3,0,0,1,1.121,2.435c0,2.236-1.882,3.812-4.606,3.812a6.491,6.491,0,0,1-4-1.218V60.851a7.3,7.3,0,0,0,3.845,1.217c1.7,0,3.1-.8,3.1-2.294,0-1.577-1.461-1.537-4.886-1.537V56.719c3.725,0,4.906-.059,4.866-2.235V53.167h-8.672V51.65h12.939v1.517h-2.6v1.138C198.68,56.4,198.079,57.039,197.578,57.378Zm0.979-5.707h-1.542a2.937,2.937,0,0,0-3.365-3.093l-0.38-1.6A4.634,4.634,0,0,1,198.557,51.671Zm7.351,11.215h-1.662V52.05h1.662V62.886Z"/>
</svg>
