<svg xmlns="http://www.w3.org/2000/svg" width="300" height="50" viewBox="0 0 300 50">
  <defs>
    <style>
      .cls-1 {
        fill: #fff;
        fill-rule: evenodd;
      }
    </style>
  </defs>
  <path id="_須簽約兩年_有若干條件_" data-name="*須簽約兩年。有若干條件。" class="cls-1" d="M52.72,43.346l0.49-.729,0.49,0.729,0.344-.239L53.5,42.418l0.829-.263-0.152-.379-0.788.327,0.029-.834H53L53.029,42.1l-0.788-.327-0.152.379,0.829,0.263-0.566.688ZM59.747,44.7V41.707H58.638a2.4,2.4,0,0,0,.222-0.426h1.3V40.855H56.939l0.006,0.426h1.43a1.8,1.8,0,0,1-.263.426l-0.963.012L57.155,44.7h2.591Zm-2.154-1.727,1.7-.006v0.426h-1.7v-0.42Zm1.7-.828,0.012,0.385-1.716.006v-0.4Zm0,1.68v0.443h-1.7V43.818Zm-3.945-1.4a5.781,5.781,0,0,0,1.57-1.493l-0.309-.274a7.794,7.794,0,0,1-.738.8,4.826,4.826,0,0,1-.837.642Zm-0.047,1.54a3.85,3.85,0,0,0,.89-0.6A6.526,6.526,0,0,0,57,42.5l-0.128-.12a1.368,1.368,0,0,0-.193-0.155,4.59,4.59,0,0,1-1.687,1.417Zm1.453-.123a4.778,4.778,0,0,1-.808.933,4.132,4.132,0,0,1-1.007.671l0.321,0.327a3.865,3.865,0,0,0,.992-0.688,5.634,5.634,0,0,0,.829-0.974ZM60.167,45.5a2.968,2.968,0,0,0-.639-0.449,5.049,5.049,0,0,0-.756-0.315q-0.14.192-.233,0.35a3.771,3.771,0,0,1,1.342.752Zm-2.148-.735a3.809,3.809,0,0,1-1.441.642l0.257,0.385a4.14,4.14,0,0,0,1.447-.712Zm5.416-3.319a3.884,3.884,0,0,1-1.059,1,7.221,7.221,0,0,1-1.707.776l0.385,0.35,0.607-.263L61.655,44.53h0.63a0.949,0.949,0,0,1-.42.56,1.993,1.993,0,0,1-.765.327L61.322,45.8a2.787,2.787,0,0,0,.63-0.248,1.686,1.686,0,0,0,.484-0.4,2.706,2.706,0,0,1,.481.236q0.207,0.131.277,0.184l0.251-.35a2.891,2.891,0,0,0-.805-0.426,1.237,1.237,0,0,0,.064-0.263h0.6V43.258L61.8,43.247q0.2-.093.447-0.219a3.692,3.692,0,0,0,.394-0.23l0.006,0.245,1.7-.006V42.792a6.425,6.425,0,0,0,.835.461H63.663v1.266l0.654,0.006a0.941,0.941,0,0,1-.055.181,1.034,1.034,0,0,1-.187.274,1.218,1.218,0,0,1-.353.274,2.056,2.056,0,0,1-.368.157l0.239,0.362a2.243,2.243,0,0,0,.549-0.274,2.446,2.446,0,0,0,.4-0.385,2.818,2.818,0,0,1,1.12.618l0.28-.35a3.751,3.751,0,0,0-1.278-.659,0.558,0.558,0,0,0,.047-0.2h0.572V43.3q0.426,0.192.63,0.268l0.269-.385a9.242,9.242,0,0,1-1.021-.429,4.732,4.732,0,0,1-.788-0.487,4.161,4.161,0,0,1-.584-0.542l0.257,0.134,0.245-.309,0.28-.006a2.775,2.775,0,0,1,.461.729,4.376,4.376,0,0,0,.414-0.187,2.3,2.3,0,0,0-.368-0.537h0.91V41.135H64.48a1.864,1.864,0,0,0,.134-0.525l-0.4-.093a1.848,1.848,0,0,1-.519,1.05Zm-0.514.537a2.783,2.783,0,0,0-.28-0.432H63.33V41.141H62.081a2.629,2.629,0,0,0,.105-0.5l-0.391-.07a2.181,2.181,0,0,1-.117.475,2.141,2.141,0,0,1-.295.543,4.715,4.715,0,0,1-.481.557l0.42,0.192a4.519,4.519,0,0,0,.578-0.793h0.233a2.37,2.37,0,0,1,.379.648Zm1.167,1.68h0.776l-0.006.455H64.083Zm-2.008.006h0.8l0.006,0.455-0.805.006V43.667Zm0.794-1.044a3.855,3.855,0,0,0,.613-0.554l0.155,0.152q0.149,0.146.283,0.262a1.018,1.018,0,0,0,.21.152Zm6.992,3.063a5.629,5.629,0,0,0,.665.079,2.748,2.748,0,0,0,.3-0.009,0.648,0.648,0,0,0,.234-0.082,0.64,0.64,0,0,0,.225-0.216,0.9,0.9,0,0,0,.131-0.315,9.594,9.594,0,0,0,.134-1.321q0.041-.849.041-2.377H69.949a6.566,6.566,0,0,0,.152-0.8l-0.414-.111a4.217,4.217,0,0,1-.362,1.283,2.594,2.594,0,0,1-.689.98l0.444,0.251a4.263,4.263,0,0,0,.735-1.172l1.36-.006Q71.168,43.089,71.11,44a6.006,6.006,0,0,1-.134,1.129,0.344,0.344,0,0,1-.117.134,0.32,0.32,0,0,1-.163.064,6.443,6.443,0,0,1-.969-0.146Zm-1.535-2.543q0.035,0.053.123,0.163a1.428,1.428,0,0,1,.117.163l-0.817.1a4.9,4.9,0,0,0,.668-0.77,5.877,5.877,0,0,0,.516-0.992l-0.4-.2a3.888,3.888,0,0,1-.251.531l-0.327.047q-0.292.041-.4,0.047a3.554,3.554,0,0,0,.464-0.592,4.969,4.969,0,0,0,.394-0.744l-0.391-.222a4.011,4.011,0,0,1-1.2,1.7l0.216,0.367a4.518,4.518,0,0,1,.5-0.1q0.336-.052.493-0.064a3.431,3.431,0,0,1-.429.578,6.076,6.076,0,0,1-.6.56l0.28,0.373q0.408-.1,1.424-0.233c0,0.012.016,0.042,0.035,0.09a0.722,0.722,0,0,1,.041.137,0.438,0.438,0,0,1,.006.123l0.42-.158a1.954,1.954,0,0,0-.514-1.038Zm2.329,0.823a1.466,1.466,0,0,0-.239-0.513,2.381,2.381,0,0,0-.373-0.417,2.009,2.009,0,0,0-.391-0.271l-0.356.251a2.24,2.24,0,0,1,.627.557,1.5,1.5,0,0,1,.324.685Zm-1.447,1.353a2.322,2.322,0,0,0-.461-1.161l-0.409.088a2.238,2.238,0,0,1,.444,1.213Zm-2.019.432a2.682,2.682,0,0,0,.3-0.662,4.187,4.187,0,0,0,.14-0.755l-0.4-.105a2.777,2.777,0,0,1-.128.747,2.383,2.383,0,0,1-.338.653Zm1.121-.262a2.521,2.521,0,0,0-.193-1.254l-0.409.053a2.7,2.7,0,0,1,.184.612,1.792,1.792,0,0,1-.02.648Zm7.3-.741a3.529,3.529,0,0,0,.359-0.376,2.3,2.3,0,0,0,.3-0.545,2.439,2.439,0,0,0,.233.572,2.128,2.128,0,0,0,.28.362l0.163-.134v0.543a0.13,0.13,0,0,1-.061.12,0.21,0.21,0,0,1-.131.032l-0.537-.023,0.2,0.426H76.6q0.134,0,.233-0.009a1.114,1.114,0,0,0,.187-0.032,0.546,0.546,0,0,0,.269-0.187,0.479,0.479,0,0,0,.1-0.3v-3.36H75.441V41.281H77.8V40.855H72.592v0.42H75v0.56l-1.944-.006v3.99H73.5V44.582l0.181,0.169a2.509,2.509,0,0,0,.368-0.455,2.867,2.867,0,0,0,.245-0.461,1.959,1.959,0,0,0,.537.957L75,44.617l-0.006.922h0.444V44.577Zm-0.181-2.491h1.512l-0.012,1.989a3.187,3.187,0,0,1-.5-1.628H75.616v0.408h0.473a2.274,2.274,0,0,1-.128.5,2.179,2.179,0,0,1-.245.5,1.1,1.1,0,0,1-.28.3V42.255ZM75,44.279a1.282,1.282,0,0,1-.242-0.382,3.475,3.475,0,0,1-.2-0.6,3.338,3.338,0,0,1-.1-0.659H73.62v0.4H74.1a1.965,1.965,0,0,1-.134.5,2.246,2.246,0,0,1-.233.443,1.861,1.861,0,0,1-.234.283V42.255H75v2.024Zm4.692-3.763a3.8,3.8,0,0,1-1.08,1.937l0.368,0.3a2.831,2.831,0,0,0,.447-0.528,6.194,6.194,0,0,0,.359-0.639h1.2v0.747l-1.552.006v1.377l-0.724-.006v0.438h2.276v1.674h0.461v-1.68l2.013,0.006V43.713H81.446V42.768h1.488V42.337H81.446L81.44,41.59l1.78-.012V41.152H79.952q0.076-.251.09-0.327t0.02-.128Zm1.3,2.252-0.006.945h-1.1V42.768h1.1Zm6.645,0.289a0.788,0.788,0,0,0-.137-0.324,0.694,0.694,0,0,0-.292-0.239,0.825,0.825,0,0,0-.379-0.064,0.678,0.678,0,0,0-.394.16,0.733,0.733,0,0,0-.248.353,0.765,0.765,0,0,0-.02.382,0.7,0.7,0,0,0,.155.335,0.772,0.772,0,0,0,.295.21,0.806,0.806,0,0,0,.359.058,0.694,0.694,0,0,0,.385-0.166A0.78,0.78,0,0,0,87.6,43.41,0.7,0.7,0,0,0,87.63,43.057Zm-0.376.184a0.346,0.346,0,0,1-.1.2,0.38,0.38,0,0,1-.2.1,0.367,0.367,0,0,1-.225-0.023A0.4,0.4,0,0,1,86.6,43.41a0.376,0.376,0,0,1-.079-0.157,0.361,0.361,0,0,1,.012-0.181,0.412,0.412,0,0,1,.088-0.157,0.35,0.35,0,0,1,.166-0.1,0.374,0.374,0,0,1,.2-0.006,0.393,0.393,0,0,1,.152.085A0.341,0.341,0,0,1,87.253,43.241Zm3.257,0.875q0.531-.542.709-0.747a3.885,3.885,0,0,0,.277-0.35V45.8h0.461V44.565l2.2,0.006v0.578a0.1,0.1,0,0,1-.032.067,0.107,0.107,0,0,1-.079.032,4.31,4.31,0,0,1-.735-0.029q0.053,0.134.2,0.449h0.336a2.319,2.319,0,0,0,.441-0.029,0.5,0.5,0,0,0,.207-0.146,0.393,0.393,0,0,0,.1-0.222V42.29H91.952q0.076-.158.21-0.543l3.14-.006v-0.42H92.331q0.14-.478.193-0.723l-0.449-.1q-0.117.484-.16,0.621t-0.067.2H90.457v0.426l1.226,0.006a3.883,3.883,0,0,1-.6,1.059,7.629,7.629,0,0,1-.983,1.041Zm3.636-1.4v0.478l-2.189-.006V42.716h2.189Zm-2.2.9,2.206,0.006v0.525H91.946V43.614Zm5.865-1.172V41.8h0.782V41.374H97.811V40.6H97.373v0.764l-1.208.006,0.006,0.42,1.2,0.006v0.642h0.438Zm-1.36,2.392a10.136,10.136,0,0,0,1-.688V45.8h0.444V45.393l2.072-.006L99.971,45.8h0.437l0.006-2.088h-2.5a5.126,5.126,0,0,0,.484-0.618l2.626-.006v-0.42H98.652a6.166,6.166,0,0,0,.251-0.618l-0.409-.175a4.414,4.414,0,0,1-.368.793H96.34v0.42H97.87a3.839,3.839,0,0,1-.59.613,9.131,9.131,0,0,1-1.156.8Zm3.473-2.409v-0.63h1.208l0.006-.42h-1.22V40.6H99.48v0.776H98.716V41.8h0.77v0.624h0.438Zm-2.031,2.543V44.133h2.078v0.828Zm6.385-1.791v2.637h0.461V43.177l2.095-.006V42.733l-2.095-.006V41.374h1.716l-0.006-.443h-3.881v0.443h1.71l0.006,1.359h-2.113v0.438Zm5.311-.251,0.2,0.333q0.274-.058.531-0.14a3.238,3.238,0,0,0,.473-0.19q0.216-.108.5-0.277a2.319,2.319,0,0,0,.356.236,2.657,2.657,0,0,0,.511.21q0.294,0.091.639,0.16l0.2-.426a2.67,2.67,0,0,1-1.348-.443,2.218,2.218,0,0,0,.318-0.295,2.183,2.183,0,0,0,.251-0.332,1.846,1.846,0,0,0,.143-0.283h0.4V41.047h-1.745l0.146-.379-0.385-.14a4.6,4.6,0,0,1-.33.709,3.422,3.422,0,0,1-.417.592,2.457,2.457,0,0,1-.391.362l0.4,0.268a4.309,4.309,0,0,0,.578-0.665,2.993,2.993,0,0,0,.356.56,4.37,4.37,0,0,1-1.389.513V41.549h-0.432v3.063h0.432Zm2.334-1.453a4.675,4.675,0,0,1-.321.4,3.546,3.546,0,0,1-.262.254,2.059,2.059,0,0,1-.4-0.648Zm-3.093.747a14.4,14.4,0,0,0,.409-1.523l-0.391-.152q-0.153.648-.275,1.038a6.237,6.237,0,0,1-.315.8,5.74,5.74,0,0,1-.578.936l0.356,0.268q0.046-.052.12-0.149c0.049-.064.1-0.133,0.146-0.207s0.075-.113.079-0.117l-0.006,2.7h0.449Zm4.3,2.87a2.8,2.8,0,0,1-1.232-1.237l0.8-.006-0.006-.426h-1.179l-0.006-.566h-0.449v0.566h-1.162l0,0.432h0.77a2.213,2.213,0,0,1-.336.5,3.035,3.035,0,0,1-.458.432,3.782,3.782,0,0,1-.426.286l0.292,0.373a5.082,5.082,0,0,0,.84-0.738,2.452,2.452,0,0,0,.485-0.715V45.8H111.5l0.012-1.779a2.792,2.792,0,0,0,1.266,1.383Zm0.817-1.493q0.373-.537.531-0.788v3l0.449-.006V41.975a7.136,7.136,0,0,0,.362-1.324l-0.42-.087a6.026,6.026,0,0,1-1.3,2.765Zm2.83,0.146,0,2.036h0.466l0.006-2.036,1.605-.006V43.293l-1.605.006V42.138l1.208,0.006V41.7l-1.208-.006V40.546l-0.467-.006,0,1.155-0.637.006a2.772,2.772,0,0,0,.088-0.6l-0.4-.128a4.216,4.216,0,0,1-.248,1.018,3.7,3.7,0,0,1-.5.884l0.409,0.2a5.456,5.456,0,0,0,.507-0.939l0.788,0.006,0,1.155h-1.623l-0.006.443h1.634Zm6.05-.685a0.8,0.8,0,0,0-.137-0.324,0.7,0.7,0,0,0-.292-0.239,0.826,0.826,0,0,0-.38-0.064,0.679,0.679,0,0,0-.394.16,0.738,0.738,0,0,0-.248.353,0.767,0.767,0,0,0-.02.382,0.692,0.692,0,0,0,.155.335,0.771,0.771,0,0,0,.294.21,0.809,0.809,0,0,0,.359.058,0.7,0.7,0,0,0,.386-0.166,0.777,0.777,0,0,0,.25-0.353A0.707,0.707,0,0,0,122.823,43.057Zm-0.377.184a0.338,0.338,0,0,1-.1.2,0.38,0.38,0,0,1-.2.1,0.367,0.367,0,0,1-.225-0.023,0.4,0.4,0,0,1-.131-0.111,0.378,0.378,0,0,1-.079-0.157,0.351,0.351,0,0,1,.012-0.181,0.406,0.406,0,0,1,.087-0.157,0.351,0.351,0,0,1,.166-0.1,0.376,0.376,0,0,1,.2-0.006,0.4,0.4,0,0,1,.152.085,0.429,0.429,0,0,1,.105.137A0.416,0.416,0,0,1,122.446,43.241Z"/>
</svg>
