<svg id="TC" xmlns="http://www.w3.org/2000/svg" width="300" height="50" viewBox="0 0 300 50">
  <defs>
    <style>
      .cls-1 {
        fill: #fffffe;
        fill-rule: evenodd;
      }
    </style>
  </defs>
  <path id="_直播電視" data-name="+  直播電視" class="cls-1" d="M105.557,23.182h-3.063V20.12H101.2v3.062h-3.08v1.192h3.08v3.062h1.292V24.373h3.063V23.182Zm9.159-3.56v9.369h-2.485l0.017,1.192L126.391,30.2l-0.017-1.208h-2.517V19.622H119.75a6.981,6.981,0,0,0,.414-1.109l5.647-.017V17.3l-5.365-.017,0.132-1.01-1.341-.348a6.64,6.64,0,0,1-.149,1.374h-6.409V18.5h6.144a7.08,7.08,0,0,1-.481,1.126h-3.626Zm1.258,3.311H122.6v1.225h-6.625V22.933Zm0,3.476V25.283H122.6l0.016,1.142Zm6.625-5.545v0.96l-6.641.017V20.847ZM115.958,27.6H122.6v1.39h-6.641V27.6Zm16.753-7.465V21.31h3a5.582,5.582,0,0,1-.753.91,6.9,6.9,0,0,1-1.317,1.01,9.125,9.125,0,0,1-1.689.811l0.745,1.076,1.159-.6,0.017,6.257H135.1V29.7h5.068v1.076h1.176V24.058l-6.724-.017a6.09,6.09,0,0,0,1.3-1.092,5.572,5.572,0,0,0,.969-1.291v2.168l1.259,0.017,0.016-2.533h4.223V20.135h-4.223V17.751a21.852,21.852,0,0,0,3.793-.828l-0.762-.977a18.6,18.6,0,0,1-3.834.712q-2.443.248-4.943,0.265l0.712,1.208,0.563-.008q0.5-.008.679,0.008l-0.745.43a3.977,3.977,0,0,1,.844.753,4.525,4.525,0,0,1,.53.819h-2.285Zm5.5,5.1,1.954,0.017v1.059h-1.954V25.233Zm-1.226,3.294H135.1V27.468h1.888v1.059Zm0-3.277v1.059h-1.9V25.233Zm3.164,2.218,0.016,1.059h-1.971l0.017-1.059h1.938Zm-11.709-2.119c0.154-.066.323-0.141,0.505-0.223s0.406-.193.671-0.331,0.43-.223.5-0.257v4.5a0.61,0.61,0,0,1-.067.323,0.289,0.289,0,0,1-.215.19,3.185,3.185,0,0,1-.762.017q-0.513-.033-0.745-0.033,0.165,0.513.464,1.258H129.4c0.3,0,.53-0.006.7-0.017a1.906,1.906,0,0,0,.414-0.066,1.1,1.1,0,0,0,.6-0.447,1.232,1.232,0,0,0,.249-0.728l0.016-5.479,1.64-.828-0.033-1.291-1.607.762V20.052h1.64V18.877h-1.64l-0.016-2.864h-1.242v2.864l-1.971.017-0.017,1.159h1.988l0.016,3.178q-0.911.447-2.5,1.093Zm7.138-5.247,0.612-.281a6.655,6.655,0,0,0-.6-0.96,5.394,5.394,0,0,0-.712-0.811q0.414-.016,1.126-0.075t0.878-.058v2.218Zm4.107-.1a4.339,4.339,0,0,0,.811-0.836,4.388,4.388,0,0,0,.58-1l-0.762-.463a3.281,3.281,0,0,1-.6.96,7.156,7.156,0,0,1-.837.844Zm3.229,3.84A7.888,7.888,0,0,0,139,21.459l-0.779.91a6.7,6.7,0,0,1,1.615.612,7.244,7.244,0,0,1,1.391.927,7,7,0,0,1,.886.894Zm8.647,4.238,4.935,0.017V23.346l-11.1-.017V28.1l4.919-.017-0.017.712a2.361,2.361,0,0,0,.091.629,1.025,1.025,0,0,0,.389.555,1.3,1.3,0,0,0,.795.223h5.051a1.231,1.231,0,0,0,1.027-.571,6.068,6.068,0,0,0,.7-2.326l-1.193-.4q-0.149,1.043-.248,1.473a1.15,1.15,0,0,1-.224.422,0.47,0.47,0,0,1-.372.19h-4.19a0.648,0.648,0,0,1-.431-0.116,0.361,0.361,0,0,1-.132-0.282V28.081Zm0-2.947V24.555l3.693-.033-0.017.613h-3.676Zm-4.919,1.755V26.21h3.677l-0.017.679h-3.66Zm3.66-2.351,0.017,0.6H146.64V24.555Zm4.935,2.351h-3.676V26.21l3.693,0.017ZM150.317,19.7L150.3,23.032h1.259V19.721l4.686-.017v1.457l1.259-.017L157.487,18.5h-5.928V17.9h5.15l0.017-1.192H145.15V17.9h5.15v0.6h-6l0.017,2.781,1.242-.017V19.7h4.753Zm1.738,1.589,3.909-.017V20.185h-3.925ZM149.8,20.185h-3.859v1.093H149.8V20.185Zm2.252,1.573v1.076h3.909l-0.017-1.076h-3.892Zm-6.111,0,0.017,1.076H149.8l0.017-1.076h-3.876Zm24.575,3.427,1.822-.017V16.642l-6.923.017v8.558l1.574-.017a4.524,4.524,0,0,1-.563,2.193,3.347,3.347,0,0,1-1.59,1.5,7.594,7.594,0,0,1-1.789.646l0.7,1.126a4.758,4.758,0,0,0,.886-0.281q0.422-.182.952-0.447a4.272,4.272,0,0,0,1.151-.861,4.755,4.755,0,0,0,.82-1.159,6.366,6.366,0,0,0,.488-1.349,5.821,5.821,0,0,0,.174-1.366l1.06,0.017-0.016,3.675a1.306,1.306,0,0,0,.5.761,1.539,1.539,0,0,0,.819.348h1.657a1.4,1.4,0,0,0,1.159-.613,4.976,4.976,0,0,0,.389-0.977q0.158-.546.306-1.324a12.769,12.769,0,0,0-1.192-.53,7.212,7.212,0,0,1-.3,1.8,0.632,0.632,0,0,1-.191.273,0.55,0.55,0,0,1-.323.141h-1.109a0.466,0.466,0,0,1-.306-0.141,0.42,0.42,0,0,1-.158-0.323V25.184Zm-3.809-4.933h4.323v1.208l-4.323.017V20.251Zm4.323-2.417v1.225l-4.356-.017V17.851Zm-4.306,6.158V22.684l4.339,0.017v1.291h-4.339ZM163.282,18.1a11.311,11.311,0,0,0-1.838-2.4l-0.928.811q0.463,0.546.969,1.258t0.721,1.076Zm-3.312,7.482a10.342,10.342,0,0,0,.894-0.6,5.694,5.694,0,0,0,.762-0.646v6.472l1.192-.017V24.389a4.13,4.13,0,0,1,1.458,1.622q0.33-.232,1.01-0.811a7.315,7.315,0,0,0-.952-1.092,6.942,6.942,0,0,0-1.135-.894l-0.348.331-0.016-.646a7.7,7.7,0,0,0,1.118-1.846,6.948,6.948,0,0,0,.538-2.16l-4.8.017,0.033,1.192h3.362a7.472,7.472,0,0,1-1.474,2.433,12.706,12.706,0,0,1-2.434,2.169Z"/>
</svg>
