<svg xmlns="http://www.w3.org/2000/svg" width="300" height="50" viewBox="0 0 300 50">
  <defs>
    <style>
      .cls-1 {
        fill: #fffffe;
        fill-rule: evenodd;
      }
    </style>
  </defs>
  <path id="_" data-name="$" class="cls-1" d="M87.154,17c0-2.354-1.492-3.138-3.959-3.574l-0.516-.087V9.907c1.377,0.116,1.951.785,2.008,1.8h2.066c-0.115-2.121-1.492-3.429-4.074-3.574V6.42H81.7V8.106c-2.812.145-4.16,1.54-4.16,3.429,0,2.325,1.492,3.226,3.787,3.632L81.7,15.225v3.6c-1.434-.116-2.18-0.668-2.3-2.063H77.285c0.086,2.179,1.435,3.661,4.418,3.836v1.714h0.975V20.63C85.461,20.543,87.154,19.264,87.154,17Zm-7.4-5.55c0-.872.6-1.453,1.951-1.54v3.255C80.24,12.871,79.752,12.377,79.752,11.447Zm2.926,7.41V15.4c1.836,0.349,2.267.814,2.267,1.744C84.945,18.1,84.314,18.77,82.678,18.857Z"/>
  <path id="每月僅" class="cls-1" d="M104.087,19.508a6.982,6.982,0,0,0,3.886-6.329c0-5.072-3.846-7.831-9.133-7.831-5.768,0-9.294,3.449-9.334,8.6h3.365c0.16-3.895,2.684-5.518,5.969-5.518,3.486,0,5.728,1.745,5.728,4.828s-2.083,4.909-5.929,4.909H96.716v2.84H98.84c4.005,0,6.489,2.272,6.489,5.761s-2.484,5.68-6.289,5.68c-4.166,0-6.529-2.191-6.65-6.289H89.065c-0.04,5.6,3.445,9.372,9.975,9.372,5.808,0,9.814-3.489,9.814-8.764C108.854,23.16,106.691,20.888,104.087,19.508Zm22.351-.122a6.437,6.437,0,0,0,4.126-6.127c0-5.153-4.126-7.912-9.174-7.912s-9.173,2.759-9.173,7.912a6.437,6.437,0,0,0,4.126,6.127,7.611,7.611,0,0,0-5.288,7.3c0,5.477,4.206,8.845,10.335,8.845s10.336-3.368,10.336-8.845A7.612,7.612,0,0,0,126.438,19.387ZM121.39,8.432c3.285,0,5.849,1.663,5.849,4.828s-2.564,4.828-5.849,4.828-5.848-1.663-5.848-4.828S118.106,8.432,121.39,8.432Zm0,24.019c-4.126,0-6.81-2.069-6.81-5.761s2.684-5.761,6.81-5.761S128.2,23,128.2,26.69,125.516,32.451,121.39,32.451Zm23.439,2.61,0.446-.953-3.083.075a17.409,17.409,0,0,1-2.569-.063,5.833,5.833,0,0,1-1.431-.351V31.625h1.5v-0.89l-1.536.013,0.013-1.342,1.733,0.013v-0.9h-2.179l0.025-1.4h1.758l0.012-.916h-1.783L137.722,24.4h-0.966l0.012,1.793h-1.795V27.11l1.783-.025,0.012,1.43H134.6v0.9h2.626v3.888a2.769,2.769,0,0,1-.613-0.439,3.2,3.2,0,0,1-.5-0.564q0.061-.5.112-1.819l-0.966-.125a16.136,16.136,0,0,1-.174,2.408A7.371,7.371,0,0,1,134,35.212l0.792,0.552a7.77,7.77,0,0,0,.675-1.066,5.7,5.7,0,0,0,.489-1.217,5.978,5.978,0,0,0,4.037,1.58l2.241,0.038Zm-1.5-1.819a1.076,1.076,0,0,0,.458-0.176,1.348,1.348,0,0,0,.372-0.339,7.592,7.592,0,0,0,.594-1.768l-0.9-.389a8.193,8.193,0,0,1-.235,1.078,1.457,1.457,0,0,1-.211.514,0.485,0.485,0,0,1-.272.176H141.35a0.259,0.259,0,0,1-.18-0.075,0.235,0.235,0,0,1-.08-0.176l-0.013-2.508h2.056l-0.012.5h0.953V25.342h-3.913V32.3a0.965,0.965,0,0,0,.112.445,0.826,0.826,0,0,0,.346.351,0.937,0.937,0,0,0,.458.132ZM141.1,28.678V26.232h2.019v2.445H141.1Zm5.354-1.538,0.486-.679,0.486,0.679,0.256-.207-0.491-.689,0.778-.254-0.108-.311-0.757.249V25.108h-0.328v0.819l-0.757-.249-0.108.311,0.778,0.254-0.491.689ZM33.57,18.477q-0.266,2.7-.32,3.084t-0.086.522l-2.484-.016-0.016,1.154h2.328Q32.726,24.866,32.211,27H40.7a1.681,1.681,0,0,1-.266.7,0.56,0.56,0,0,1-.406.2q-0.234.016-.8,0a13.67,13.67,0,0,1-1.9-.269l0.422,1.218a16.1,16.1,0,0,0,2.047.174,7.512,7.512,0,0,0,.859-0.063,1.339,1.339,0,0,0,.641-0.3,1.711,1.711,0,0,0,.461-0.68A5.555,5.555,0,0,0,42.04,27h1.547l-0.016-1.154-1.391.016,0.359-2.641h1.7V22.067H42.618q0-.032.1-1.423t0.117-2.166H33.57Zm0.828,3.59q0.062-.364.156-1.265t0.125-1.154l6.86-.016q0,0.775-.187,2.451Zm6.86,1.139q-0.141,1.281-.344,2.641l-7.125.016,0.453-2.641h1.641l-0.656.87a14.023,14.023,0,0,1,2.344.846A6.565,6.565,0,0,1,38.9,25.8l0.828-.822a7.194,7.194,0,0,0-1.6-1.044,10.157,10.157,0,0,0-1.93-.727h5.063ZM39.836,21.15a4.766,4.766,0,0,0-1.406-.878,9.362,9.362,0,0,0-2.11-.561l-0.812.87a8.378,8.378,0,0,1,1.93.538,6.227,6.227,0,0,1,1.555.9Zm4.078-3.922V16.09H34.867a3.429,3.429,0,0,1,.18-0.4,3.514,3.514,0,0,0,.242-0.617l-1.141-.38a11.046,11.046,0,0,1-.7,1.581,11.833,11.833,0,0,1-1.242,1.882,11.708,11.708,0,0,1-1.5,1.6L31.679,20.5a15.763,15.763,0,0,0,2.641-3.273h9.594ZM54.9,24.107L54.883,27.19a0.3,0.3,0,0,1-.125.229,0.411,0.411,0,0,1-.266.1l-2.016-.063,0.469,1.265,1.891-.016a1.6,1.6,0,0,0,.617-0.134,1.17,1.17,0,0,0,.523-0.435,1.089,1.089,0,0,0,.2-0.617L56.164,15.647H48.382L48.4,22.952a5.383,5.383,0,0,1-.789,2.807,7.867,7.867,0,0,1-2.227,2.348l0.766,1.123a17.4,17.4,0,0,0,1.4-1.3,8.374,8.374,0,0,0,1.258-1.7,7.835,7.835,0,0,0,.813-2.119H54.9Zm-5.235-4.839V16.8l5.219,0.016v2.451H49.664Zm5.219,1.186L54.9,22.937h-5.25q0.031-.411.023-1.265t0.008-1.233ZM67,19.758l-3.688-.016v3.194H67v0.712H63.313v1.107H67v0.68H63.766l0.016,1.091,3.266-.032v0.87l-4.594-.016v1.075l10.688-.016-0.016-1.075-4.907.032v-0.87l3.219,0.016-0.016-1.091-3.2-.016v-0.68l3.672,0.016V23.648h-3.7l-0.016-.712h3.719l0.016-3.178-3.735-.016V19.078l2.047-.016v-1.85h2.547V16.121H70.22L70.2,14.9H69.017L69,16.106H66.126V14.92H64.891v1.2l-1.906-.016-0.016,1.107h1.906v1.819l2.109,0.016Zm3.688,1.091-0.031.98-2.485-.016v-0.98Zm-6.172-.016h2.469v1.012l-2.453.016Zm1.609-2.878,0.016-.743H69v0.743H66.126Zm-6.36,4.839a17.207,17.207,0,0,0,1.219-1.66v8h1.234L62.2,18.414q0.062-.221.414-1.336a17.559,17.559,0,0,0,.477-1.747l-1.109-.585a25.921,25.921,0,0,1-.852,3.068,13.352,13.352,0,0,1-1.117,2.451,12.852,12.852,0,0,1-1.3,1.819Z"/>
</svg>
