<svg xmlns="http://www.w3.org/2000/svg" width="300" height="50" viewBox="0 0 300 50">
  <defs>
    <style>
      .cls-1 {
        fill: #fffffe;
        fill-rule: evenodd;
      }
    </style>
  </defs>
  <path id="選用全新升級版Optik_TV_" data-name="選用全新升級版Optik TV®" class="cls-1" d="M22.233,21.824V18.874H18.312v3.943a0.973,0.973,0,0,0,.316.749,1.186,1.186,0,0,0,.838.292h2.214a1.433,1.433,0,0,0,.759-0.473,3.494,3.494,0,0,0,.648-1.2Zm-1.123-1.1L19.434,20.7V19.963H21.11V20.72Zm-1.676,1.12,2.577-.016a1.239,1.239,0,0,1-.522.978H19.814a0.335,0.335,0,0,1-.38-0.379V21.839Zm-2.229.047q-0.032.095-.126,0.418a1.328,1.328,0,0,1-.174.418,0.29,0.29,0,0,1-.174.11H15.213a0.491,0.491,0,0,1-.261-0.063,0.194,0.194,0,0,1-.1-0.174V21.855h2.8L17.632,18.89l-3.937-.016v4.2a0.722,0.722,0,0,0,.324.591,1.287,1.287,0,0,0,.8.244l2.1-.016A0.842,0.842,0,0,0,17.4,23.7a1.683,1.683,0,0,0,.474-0.6,3.415,3.415,0,0,0,.308-0.836Zm-0.711-1.908v0.773H14.849l-0.016-.773h1.66Zm-2.324,5.931h1.613l0.016,1.1H13.584V28.1H23.1L23.086,27l-2.435.016-0.016-1.1h1.6V24.82H20.62V24.048H19.466V24.82L16.983,24.8l-0.016-.757H15.782V24.82H14.153Zm2.8,0h2.514l-0.016,1.1H16.983Zm-4.253-5.284a4.317,4.317,0,0,0-.7-1.073,8.025,8.025,0,0,0-1.478-1.23l-0.885.694a4.554,4.554,0,0,1,2.119,2.24ZM23.134,31.666l0.506-1.23q-1.5.111-1.755,0.126t-0.427.016l-5.708.079a5.239,5.239,0,0,1-1.534-.181,10.7,10.7,0,0,1-1.676-.67,12.51,12.51,0,0,0,.743-3.833l-1.755-.016a10.056,10.056,0,0,0,1-1.451,6.3,6.3,0,0,0,.648-1.546V21.981H9.552V23.07H11.94a7.942,7.942,0,0,1-2.024,2.981V27.06l2.15-.016a10.894,10.894,0,0,1-.427,1.767,4.857,4.857,0,0,1-.87,1.538,7.069,7.069,0,0,1-1.407,1.3L10.2,32.5a10.429,10.429,0,0,0,1.818-1.845,9.031,9.031,0,0,0,2.079.891,6.147,6.147,0,0,0,1.573.181Zm-4.459-2.634a7.81,7.81,0,0,1,1.747.568,4.6,4.6,0,0,1,1.4.946l0.743-.883a5.377,5.377,0,0,0-1.462-.931,9.4,9.4,0,0,0-1.794-.536Zm-4.206,1.42a5.576,5.576,0,0,0,1.668-.473,10.131,10.131,0,0,0,1.621-.962l-0.7-.8a5.531,5.531,0,0,1-1.431.773,8.774,8.774,0,0,1-1.763.489ZM26.9,18.78V25.8a10.5,10.5,0,0,1-.174,1.885,7.7,7.7,0,0,1-.506,1.711,10.036,10.036,0,0,1-1.47,2.208l1.012,0.757a10.459,10.459,0,0,0,1.6-2.39,10,10,0,0,0,.712-2.989h3.462v3.754h1.233V26.981h3.447v3.375a0.38,0.38,0,0,1-.063.229,0.262,0.262,0,0,1-.19.1,4.318,4.318,0,0,1-.593.024q-0.308-.008-1.083-0.039l0.379,1.23,1.8-.032a1.025,1.025,0,0,0,.435-0.2,1.284,1.284,0,0,0,.387-0.489,1.364,1.364,0,0,0,.158-0.591V18.78H26.9Zm4.633,1.167v2.287h-3.4V19.947h3.4Zm4.648,3.438-0.016,2.429h-3.4l0.016-2.429h3.4Zm-3.415-3.438h3.415v2.271l-3.4.016Zm-4.632,3.438h3.4v2.429h-3.4V23.385Zm23.793,1.893a4.26,4.26,0,0,1,1.47-1.987,16.535,16.535,0,0,1-1.881-.868,11.269,11.269,0,0,1-1.889-1.246,7.944,7.944,0,0,1-1.36-1.388,7.293,7.293,0,0,1-.8-1.325H41.194V20.4h2.435a10.908,10.908,0,0,1-4.474,3.044,5.482,5.482,0,0,1,.7.946,5.922,5.922,0,0,1,.451,1.009q0.332-.142.466-0.2t0.292-.15q0.158-.086.269-0.15v0.363h3.716v1.151H41.621v1.909h3.431V29.9H39.8v1.956l12.917-.016V29.9H47.329V28.322H50.7V26.414H47.329V25.262h3.636V24.884Zm-8.174-1.987a11.316,11.316,0,0,0,1.352-1.23,11.638,11.638,0,0,0,1.115-1.341,14.534,14.534,0,0,0,1.162,1.38,12.1,12.1,0,0,0,1.3,1.222Zm17.706-1.782-0.838-.221h1.3v-1.83H59.738q-0.4-.946-0.585-1.293l-2.166.284a4.587,4.587,0,0,1,.522,1.009H54.726v1.83l1.423,0.031-0.553.063a5.387,5.387,0,0,1,.474,1.4H54.6v1.877h2.767v0.6H54.742v1.83h2.135A11.492,11.492,0,0,1,55.5,28.527a8.662,8.662,0,0,1-1.107.82A2.876,2.876,0,0,1,55.485,31.1l0.19-.126q1.186-.994,1.4-1.215t0.293-.3V32.17h2.071V29.221a5.123,5.123,0,0,0,1.138.8l0.253,0.142a3.222,3.222,0,0,1,.443-1.009,2.476,2.476,0,0,1,.553-0.584,6.047,6.047,0,0,1-.727,1.357,5.176,5.176,0,0,1-1.075,1.12,3.432,3.432,0,0,1,1.85,1.23l0.648-.662a8.622,8.622,0,0,0,1.059-1.767,9.322,9.322,0,0,0,.609-2.043,18.11,18.11,0,0,0,.245-2.91h0.885l0.016,7.334h2.119L67.438,24.9h1.17l0.016-2.082H64.466V21.051a19.7,19.7,0,0,0,2.142-.418,13.919,13.919,0,0,0,1.969-.639L67,18.291a17.463,17.463,0,0,1-4.6,1.183v4.479L62.3,26.335a6.463,6.463,0,0,1-.411,2l-0.19-.079a6.589,6.589,0,0,1-1.17-.584,4.227,4.227,0,0,1-.7-0.584H61.9V25.246l-2.466.016v-0.6H62.11V22.786h-1.3Zm-2.134-.221a10.73,10.73,0,0,1-.569,1.5H58.094q-0.095-.363-0.459-1.5h1.692Zm14.339,4.2a6.237,6.237,0,0,1-.4,2.437,3.791,3.791,0,0,1-1.217,1.554,6.488,6.488,0,0,1-2.142.994,5.109,5.109,0,0,1,1.629,1.814,9.123,9.123,0,0,0,1.549-.883,6.377,6.377,0,0,0,1.549-1.5,5.124,5.124,0,0,0,.838-1.932,14.084,14.084,0,0,0,.285-2.484h2.7v6.8l2.261-.016V25.483h3.225V23.464H80.717v-5.11H78.456a0.238,0.238,0,0,0-.285.252,0.319,0.319,0,0,0,.142.229,0.366,0.366,0,0,1,.142.292v4.337H75.769V21.193q0.142-.031.64-0.134t0.925-.213a4.681,4.681,0,0,0,.743-0.252l-1.644-1.735a18.159,18.159,0,0,1-6.1,1.041,8.805,8.805,0,0,1,1.107,1.893,13.42,13.42,0,0,0,1.352-.118q0.783-.1.877-0.118v1.909H69.95v2.019h3.716ZM89.4,32.312v-6.2l0.411-.032,0.111,0.584a4.936,4.936,0,0,1,1.755-.379,15,15,0,0,0-.838-3.044l-1.6.173q1.012-1.278,1.85-2.524h1.043q-0.047,1.956-.119,3.241a21.845,21.845,0,0,1-.261,2.413,15.956,15.956,0,0,1-.427,1.916,7.129,7.129,0,0,1-.142-0.765q-0.047-.37-0.111-1.017l-1.549.126a16.391,16.391,0,0,0,.332,3.123,2.933,2.933,0,0,0,.308-0.095,2.453,2.453,0,0,1,.372-0.1,1.558,1.558,0,0,1,.253-0.024,5.489,5.489,0,0,1-.514.8,5.214,5.214,0,0,1-.64.7,3.224,3.224,0,0,1,.64.268,2.892,2.892,0,0,1,.624.442,2.354,2.354,0,0,1,.411.489,3.972,3.972,0,0,0,.443-0.489q0.205-.268.427-0.607t0.285-.434a2.926,2.926,0,0,1,.814.6,2.815,2.815,0,0,1,.577.82,11.28,11.28,0,0,0,1.249-.836,10.74,10.74,0,0,0,1.043-.9,13.07,13.07,0,0,0,2.119,1.845,4.837,4.837,0,0,1,.459-1.049A4.708,4.708,0,0,1,99.4,30.4a9.465,9.465,0,0,1-2.024-1.5,12.5,12.5,0,0,0,1.534-5.189L98.439,23.4H97.333l0.964-4.18-0.6-.331H90.835v1.782l-1.344-.615L88.415,21.65l-0.348-.268q0.949-1.546,1.407-2.35L87.8,18.259a15.741,15.741,0,0,1-1.091,2.066l-0.443-.394-1.154,1.483a16,16,0,0,1,2.135,1.83q-0.237.331-1.012,1.214l-1.17-.032,0.411,2.035,1.945-.158,0.016,6.009H89.4ZM95.388,23.4H94.012l0.047-2.492h1.882Zm1.36,1.877a5.988,5.988,0,0,1-.712,2.082,5.254,5.254,0,0,1-.964-2.082h1.676Zm-7.273-.915-1.075.063,0.822-.962ZM85.728,26.7a16.908,16.908,0,0,1-.522,3.927,4.651,4.651,0,0,1,1.692.489,15.687,15.687,0,0,0,.3-2.043,18.671,18.671,0,0,0,.063-2.153Zm7.613,2.121a15.47,15.47,0,0,0,.372-1.806,7.392,7.392,0,0,0,1.012,2.066,6.734,6.734,0,0,1-1.083.875,6.447,6.447,0,0,1-.957.465A13.791,13.791,0,0,0,93.34,28.819Zm18.8-4.866q-0.046,1.041-.086,1.372a4.155,4.155,0,0,1-.174.749,3.437,3.437,0,0,1-.419.844,4.3,4.3,0,0,1-.483-1.333,8.98,8.98,0,0,1-.134-1.633h1.3Zm-2.94,5.923a4.225,4.225,0,0,1-1.328.765,8.14,8.14,0,0,0,.79-2.113,18.619,18.619,0,0,0,.474-3.328,11.821,11.821,0,0,0,.3,1.372,9.251,9.251,0,0,0,.443,1.278,8,8,0,0,0,.426.852A5.939,5.939,0,0,1,109.205,29.876Zm-3.921.749-0.6.568a1.912,1.912,0,0,1,.846.292,7.133,7.133,0,0,1,1.13.8,3.123,3.123,0,0,0,.522-0.56q0.237-.324.569-0.86a6.622,6.622,0,0,1,.846.623,4.561,4.561,0,0,1,.751.765,5.39,5.39,0,0,0,1.059-.749q0.522-.465,1.091-1.065a13.236,13.236,0,0,0,1.012,1.025,7,7,0,0,0,1.044.8,3.411,3.411,0,0,1,.545-0.978,6.163,6.163,0,0,1,.751-0.852,5.168,5.168,0,0,1-1.13-.875,10.97,10.97,0,0,1-.973-1.1,12.2,12.2,0,0,0,.87-2.7,27.293,27.293,0,0,0,.443-3.3l-0.57-.426h-4.332V20.735a19.8,19.8,0,0,0,3.107-.347,16.65,16.65,0,0,0,2.427-.647l-1.233-1.577a10.667,10.667,0,0,1-2.751.6q-1.6.158-3.589,0.174v5.836a13.07,13.07,0,0,1-.245,2.287,7.653,7.653,0,0,1-.593,2.019V24.852h-2.894V23.417h3.51V21.556h-0.838v-3.3h-1.944a0.33,0.33,0,0,0-.237.11,0.186,0.186,0,0,0,.079.26,0.47,0.47,0,0,1,.174.181v2.744h-0.744V18.4h-2.134a0.3,0.3,0,0,0-.19.063,0.193,0.193,0,0,0-.079.158,0.261,0.261,0,0,0,.206.237,0.26,0.26,0,0,1,.205.237v5.047a22.326,22.326,0,0,1-.7,5.867,4.369,4.369,0,0,1-.285.773,3.232,3.232,0,0,1,1.929,1.057l0.095,0.11a19.32,19.32,0,0,0,.964-5.189h1v3.864h0.886Zm15.763,0.836c3.367,0,5.612-2.334,5.612-5.867s-2.245-5.867-5.612-5.867c-3.384,0-5.629,2.334-5.629,5.867S117.663,31.461,121.047,31.461Zm0-1.877c-2.056,0-3.4-1.514-3.4-3.99s1.343-3.99,3.4-3.99,3.4,1.514,3.4,3.99S123.1,29.584,121.047,29.584Zm11.364-6.7a2.941,2.941,0,0,0-2.608,1.356V23.07h-1.914V34.3h1.993V30.152a2.919,2.919,0,0,0,2.529,1.246c2.245,0,3.652-1.672,3.652-4.259S134.656,22.881,132.411,22.881Zm-0.474,6.877c-1.3,0-2.1-.9-2.1-2.618s0.806-2.618,2.1-2.618,2.1,0.836,2.1,2.555S133.233,29.757,131.937,29.757Zm9.325-5.173V23.07h-1.613V20.7h-1.976V23.07h-1.265v1.514h1.265V29.19c0,1.5.822,2.082,2.545,2.082,0.317,0,.68-0.032,1.044-0.063V29.694h-0.68c-0.664,0-.933-0.173-0.933-0.71v-4.4h1.613Zm1.894-2.492A1.1,1.1,0,1,0,142.049,21,1.092,1.092,0,0,0,143.156,22.092Zm-1,9.117h1.992V23.07H142.16v8.139Zm9.054,0h2.277l-3.273-5.063L153.3,23.07H150.93l-3.32,3.375V19.978h-1.961v11.23h1.961V28.653l1.233-1.23Zm15.51-11.23h-9.36v1.908h3.6v9.322h2.15V21.887h3.6V19.978Zm8.925,0-1.992,5.8c-0.364,1.1-.743,2.3-1.059,3.5-0.332-1.2-.712-2.4-1.075-3.5l-2.04-5.8h-2.277l4.127,11.23h2.5l4.031-11.23h-2.213Zm4.17-.18a1.423,1.423,0,1,0,1.469,1.425A1.432,1.432,0,0,0,179.819,19.8Zm0,2.535a1.115,1.115,0,1,1,1.141-1.109A1.1,1.1,0,0,1,179.819,22.333Zm0.593-.793a0.309,0.309,0,0,0-.172-0.3,0.355,0.355,0,0,0,.207-0.339,0.446,0.446,0,0,0-.53-0.425h-0.668v1.471h0.334V21.4h0.311c0.132,0,.173.046,0.184,0.19l0.012,0.155a0.4,0.4,0,0,0,.052.2h0.351a0.332,0.332,0,0,1-.063-0.2Zm-0.829-.42V20.758h0.305a0.183,0.183,0,1,1,.012.362h-0.317Z"/>
</svg>
