<svg xmlns="http://www.w3.org/2000/svg" viewBox="0 0 247.22 47.17">
  <defs>
    <style>
      .cls-1{
        fill:#4b286d
      }
      .cls-2{
        fill:#6c0
      }
    </style>
  </defs>
  <path 
    class="cls-1" 
    d="M147.13 13.06V7.98h-18.12v26.13h18.12v-5.3h-10.78v-5.79h8.96v-5.07h-8.96v-4.89h10.78M179.08 28.96h-11.32V7.98h-7.43v26.13h18.75v-5.15M238.88 17.94c-5-1.13-6.76-1.26-6.76-3.25s2.48-2.43 3.91-2.43a17.12 17.12 0 0 1 7.81 2l2-4.81a21.3 21.3 0 0 0-10-2.2c-6.92 0-11.55 2.8-11.74 8.27-.21 5 3.85 6.85 7.58 7.62s7.23 1.37 7.3 3.51c.07 2-1.7 2.8-5 2.8a23 23 0 0 1-8.9-2.22l-1.72 5.22a26.14 26.14 0 0 0 10.34 2.23c4.91 0 8.49-.76 11.13-3.24a7.48 7.48 0 0 0 2.42-5.7c0-4.14-2.57-6.47-8.34-7.77M118.48 13.14V7.98H95.69v5.16h7.7v20.97h7.38V13.14h7.71M204.41 8v16.6a13.3 13.3 0 0 1-.08 2.17c-.23 1.58-1.77 2.5-4.22 2.53-1.81 0-3.13-.56-3.75-1.51a5.51 5.51 0 0 1-.46-2.79V8h-7.7v18c0 2.5.33 3.62 1.45 5 1.87 2.33 5.49 3.56 10.48 3.56h.27c6.68 0 10.13-2.62 11.13-5.05.5-1.18.54-1.74.54-4.13V8h-7.66M99.17.83L56 9.43v3h.14C84.65 5.47 99.17 1.3 99.29 1.27a.23.23 0 0 0 .19-.27.23.23 0 0 0-.31-.17"/>
  <path 
    class="cls-2" 
    d="M62.93 3.23c.66-.43.86-.16.66.32-.32.78-1.78 5.45-12.65 14.38A62.39 62.39 0 0 1 42 24c6.69-9.4 16.45-17.86 20.93-20.77M64.06 0c-2.1.13-6 3.23-8.12 5.08-8.5 7.35-14.81 14.11-19.41 21.19A235.86 235.86 0 0 1 2.62 40.79l-.29.09L0 47.17l1.33-.52a322.15 322.15 0 0 0 32.25-14.59 13.79 13.79 0 0 0-1 4.83 8.34 8.34 0 0 0 .55 3 7.22 7.22 0 0 0 4.19 4c3 1.19 7.06 1.21 11.71-.2 11.87-3.6 25.95-14.65 29-16.84l.12-.09a.21.21 0 0 0 .07-.3.23.23 0 0 0-.32-.06l-.15.09c-3.29 2-19.28 11.47-29.68 14.26-5.29 1.42-9.32.64-10.85-1.49a4.51 4.51 0 0 1-.78-2.72c0-2.09 1-4.76 2.89-7.73 1.74-1 3.37-2 4.84-2.89C54.35 20.31 66 9.23 66.53 2.47v-.15a2.32 2.32 0 0 0-.7-1.63A2.26 2.26 0 0 0 64.06 0z"/>
  <path class="cls-1" d="M55.84 9.46l-45.43 9.76-1.76 4.72 47.33-11.5.08-.02V9.41l-.22.05"/>
</svg>