<svg id="HING" xmlns="http://www.w3.org/2000/svg" width="300" height="250" viewBox="0 0 300 250">
  <defs>
    <style>
      .cls-1 {
        fill: #4c286c;
        fill-rule: evenodd;
      }
    </style>
  </defs>
  <g id="txt1">
    <path class="cls-1" d="M40,102.893h9.083c0.2,2.65,1.874,3.293,4.44,3.293,2.648,0,3.789-.643,3.789-1.968,0-1.245-.978-1.887-4.114-2.328l-3.5-.482c-5.255-.723-9-3.533-9-8.993,0-4.5,2.4-9.355,12.343-9.355,7.576,0,12.22,2.81,12.75,9.435H57.274c-0.2-1.726-1.14-2.73-3.911-2.73-2.525,0-3.5.723-3.5,1.847s0.977,1.687,2.729,1.927l3.5,0.482c7.251,1,10.509,3.734,10.509,8.833,0,6.143-4.521,10.118-13.239,10.118C44.484,112.971,40.288,108.875,40,102.893Zm52.465-.963c0,6.544-3.422,10.84-9,10.84a6.979,6.979,0,0,1-6.233-3.172v10.88H68.761V91.572h8.228v3.091a6.925,6.925,0,0,1,6.477-3.573C89.047,91.09,92.468,95.386,92.468,101.93ZM84,101.89c0-2.891-1.263-4.376-3.585-4.376S76.867,99,76.867,101.89s1.222,4.416,3.544,4.416S84,104.78,84,101.89Zm26.313-10.519v7.508h-1.956c-3.3,0-5.051,1.606-5.051,5.46v7.949H94.83V91.572h8.309v4.095A5.3,5.3,0,0,1,108.8,91.25,8.494,8.494,0,0,1,110.309,91.371Zm2.484,0.2h8.473v20.716h-8.473V91.572Zm0.081-5.54a4.135,4.135,0,1,1,4.156,4.095A4.135,4.135,0,0,1,112.874,86.031Zm33.647,13.409v12.847h-8.473V100.805c0-1.646-.733-2.729-2.4-2.729a2.572,2.572,0,0,0-2.77,2.77v11.442H124.4V91.572h8.31v3.011h0.122c1.426-2.529,3.748-3.493,6.518-3.493C143.67,91.09,146.521,93.458,146.521,99.441ZM173,91.572v19.793c0,6.223-4.318,9.635-11.855,9.635-7.046,0-11.323-2.69-11.893-8.311H157.8c0.2,1.687,1.223,2.45,3.259,2.45,2.281,0,3.3-.964,3.3-3.092v-3.734a7.421,7.421,0,0,1-6.6,3.212c-5.458,0-8.88-4.055-8.88-10.238,0-6.142,3.422-10.2,8.88-10.2a7.425,7.425,0,0,1,6.762,3.453V91.572H173Zm-8.514,9.676c0-2.81-1.222-4.336-3.544-4.336s-3.584,1.526-3.584,4.336c0,2.891,1.262,4.417,3.584,4.417S164.484,104.138,164.484,101.247Z"/>
  </g>
</svg>
