<svg id="HING" xmlns="http://www.w3.org/2000/svg" width="300" height="250" viewBox="0 0 300 250">
  <defs>
    <style>
      .cls-1 {
        fill: #4c286c;
        fill-rule: evenodd;
      }
    </style>
  </defs>
  <g id="txt1">
    <path class="cls-1" d="M78.3,179.085v10.441H75.02l-2.093-3.711c-0.349-.615-0.656-1.172-0.935-1.744,0.042,1.232.056,2.419,0.056,3.754v1.7H68.977V179.085h3.28l2.052,3.71c0.307,0.558.642,1.261,0.963,1.965-0.041-1.3-.041-2.552-0.041-3.973v-1.7H78.3Zm0.889,5.22c0-3.343,2.163-5.454,5.262-5.454s5.262,2.111,5.262,5.454-2.164,5.47-5.262,5.47S79.189,187.663,79.189,184.305Zm7.258,0c0-1.861-.823-2.639-2-2.639s-2,.778-2,2.639c0,1.877.823,2.655,2,2.655S86.447,186.182,86.447,184.305ZM104,179.085l-2.624,10.441H98l-0.656-3.182c-0.2-.91-0.363-1.819-0.517-2.713-0.167.894-.335,1.8-0.53,2.713l-0.656,3.182H92.263l-2.624-10.441h3.224l0.559,3.094c0.223,1.232.433,2.478,0.642,3.681,0.2-1.2.433-2.449,0.656-3.681l0.586-3.094h3.029l0.586,3.094c0.223,1.232.461,2.478,0.656,3.681,0.209-1.2.419-2.449,0.642-3.681l0.558-3.094H104Z"/>
  </g>
</svg>
