<svg id="PUNJ" xmlns="http://www.w3.org/2000/svg" width="300" height="250" viewBox="0 0 300 250">
  <defs>
    <style>
      .cls-1 {
        fill: #fff;
        fill-rule: evenodd;
      }
    </style>
  </defs>
  <path class="cls-1" d="M62.365,192.538h-1.14V195.8a1.791,1.791,0,0,1-1.895,2.065,2.482,2.482,0,0,1-2.459-2.247c0-.866.555-1.541,1.894-1.541h0.318v0.786H58.765c-0.744,0-1.011.272-1.011,0.725A1.713,1.713,0,0,0,59.39,197.1c0.714,0,1-.5,1-1.31v-3.254H55.958v-0.765h6.407v0.765Zm-2.7-1.742a1.528,1.528,0,0,1-1.5-1.794h0.784c0,0.938.356,0.957,0.734,1.008a1.559,1.559,0,0,1,1.478,1.773H60.389A0.863,0.863,0,0,0,59.665,190.8ZM68,192.538h-1.27v3.3a1.791,1.791,0,0,1-1.874,2.066,2.482,2.482,0,0,1-2.479-2.258c0-.856.555-1.531,1.894-1.531H65.9v-1.582H61.6v-0.765H68v0.765Zm-2.1,3.295v-0.927H64.275c-0.744,0-1.011.272-1.011,0.726a1.707,1.707,0,0,0,1.646,1.511A1.055,1.055,0,0,0,65.9,195.833Zm11.43-3.295H75.993v5.34H75.17v-2.489H72.959a9.812,9.812,0,0,1-.348,2.489H71.778a10.529,10.529,0,0,0,.387-2.489,2.066,2.066,0,0,0-.625-1.349l1.19-.424a6.408,6.408,0,0,1,.218,1.008H75.17v-2.086h-4.7v-0.765h6.864v0.765Zm2.655,0H78.568v2.912H77.755v-2.912H76.327v-0.765h3.66v0.765Zm6,0H81.552a1.494,1.494,0,0,0,1.7,1.28,5.192,5.192,0,0,0,1.309-.141V194.4a4.469,4.469,0,0,1-1.14.182l-0.109,1.43-0.02.181a2.618,2.618,0,0,0-1.458-.544,1.076,1.076,0,0,0-.922.4,2.07,2.07,0,0,0,2,1.168,2.83,2.83,0,0,0,2.082-.887v0.816a2.891,2.891,0,0,1-2.221.847,2.712,2.712,0,0,1-2.737-1.944,1.791,1.791,0,0,1,1.794-1.139,2.017,2.017,0,0,1,.784.142l0.049-.5a2.092,2.092,0,0,1-1.923-2.016H79.122v-0.765h6.864v0.765ZM82.7,190.8A1.528,1.528,0,0,1,81.2,189h0.784c0,0.938.356,0.957,0.734,1.008a1.559,1.559,0,0,1,1.478,1.773H83.423A0.863,0.863,0,0,0,82.7,190.8Z"/>
</svg>
