<svg id="PUNJ" xmlns="http://www.w3.org/2000/svg" width="300" height="250" viewBox="0 0 300 250">
  <defs>
    <style>
      .cls-1 {
        fill: #4b286d;
        fill-rule: evenodd;
      }
    </style>
  </defs>
  <g id="txt1">
    <path class="cls-1" d="M56.006,86.6H53.3v8.875c0,3.788-1.9,5.668-6.078,5.668-3.513,0-7.556-2.433-7.556-6.138,0-2.682,1.84-4.727,6.106-4.727H49.65V86.6H38V83.478H56.006V86.6ZM49.65,95.45V93.432H45.775c-1.673,0-2.175.525-2.175,1.465,0,1.908,2.231,3.124,3.82,3.124C49.12,98.021,49.65,97.33,49.65,95.45ZM47.335,77.921a3.894,3.894,0,0,1,3.96-3.954,3.954,3.954,0,1,1,0,7.907A3.894,3.894,0,0,1,47.335,77.921Zm5.521,0A1.6,1.6,0,0,0,51.3,76.345a1.562,1.562,0,0,0,0,3.124A1.589,1.589,0,0,0,52.857,77.921ZM78.033,86.6h-3.29v14.1H71.2V86.6H67.94v8.46c0,3.566-1.952,5.64-5.241,5.64-3.542,0-6.943-3.567-6.943-6.663,0-2.377,1.952-4.7,6.05-4.7h2.51V86.6H54.892V83.478H78.033V86.6ZM64.316,94.98V92.464h-2.51c-0.251,0-2.147-.028-2.147,1.521,0,1.327,1.784,3.7,3.1,3.566C64.316,97.413,64.316,95.837,64.316,94.98ZM106.639,86.6h-2.76v14.238h-3.513V99.652a12.421,12.421,0,0,1-2.984.359c-3.848,0-6.664-1.962-7.472-5.031a6.525,6.525,0,0,1,2.342-3.622,6.064,6.064,0,0,1-2.062-3.511,4.737,4.737,0,0,1-.084-1.244H87.345V83.478h19.294V86.6Zm-6.273,9.981V92.961H96.992c-1.674,0-2.983.691-3.346,2.018,0.363,1.161,2.119,1.935,4.21,1.935A8.886,8.886,0,0,0,100.366,96.583Zm0-9.981H93.674a4.038,4.038,0,0,0,.111,1c0.391,1.6,1.7,2.212,3.43,2.212h3.151V86.6Zm22.165,0h-2.7v8.875c0,3.788-1.9,5.668-6.078,5.668-3.513,0-7.556-2.433-7.556-6.138,0-2.682,1.84-4.727,6.106-4.727h3.875V86.6H104.52V83.478h18.011V86.6Zm-6.357,8.847V93.432H112.3c-1.673,0-2.175.525-2.175,1.465,0,1.908,2.231,3.124,3.819,3.124C115.644,98.021,116.174,97.33,116.174,95.45ZM139.762,86.6H137v14.238h-3.514V94.675h-4.85c-0.307.94-.838,2.24-1.7,4.341l-4.155-1.825c1.617-2.433,3.067-3.649,3.067-6a9.394,9.394,0,0,0-1.283-4.589h-2.815V83.478h18.011V86.6Zm-11.4,0a15.774,15.774,0,0,1,.808,4.783v0.166h4.321V86.6h-5.129Zm8.253-3.1h-3.151c0-1.852-.808-3.179-3.959-3.318l-0.809-3.428C132.485,76.262,136.612,78.529,136.612,83.506ZM145,97.634l-1.868,6.359H139.93l1.5-6.359H145Z"/>
  </g>
</svg>
