<svg id="PUNJ" xmlns="http://www.w3.org/2000/svg" width="300" height="250" viewBox="0 0 300 250">
  <defs>
    <style>
      .cls-1 {
        fill: #4b286d;
        fill-rule: evenodd;
      }
    </style>
  </defs>
  <g id="txt1">
    <path class="cls-1" d="M61.138,116.562H58.362v14.544H54.828V123.6H52.7a21.782,21.782,0,0,1-2.188,5.563l-3.59-1.667c2.945-4.828,3.085-6.579,1.852-7.907-1.683.17-2.412,1.807-4.459,6.326l-3.59-1.666c1.767-4.123,2.384-6.016.841-7.682H38v-3.191h5.132c1.851,0.565,2.692,2.993,2.411,4.716a4.677,4.677,0,0,1,4.908-1.92,6.425,6.425,0,0,1,2.441,4.236h1.935v-7.032h6.31v3.191Zm15.733,0h-3v1.073c0,2.966-.5,3.5-1.206,4.237a5.7,5.7,0,0,1,1.206,3.558c0,3.3-2.833,5.818-7.039,5.818-2.131,0-4.572-.706-5.637-1.695v-3.361a9.838,9.838,0,0,0,5.272,1.836c2.3,0,3.814-1.13,3.814-2.57,0-1.779-1.99-1.863-6.2-1.863V120.4c4.263,0,6.226.226,6.17-2.513v-1.328h-11.5v-3.191H76.872v3.191ZM73.478,113.4H70.309c0-1.892-.813-3.248-3.982-3.389l-0.814-3.5C69.327,106,73.478,108.315,73.478,113.4Zm27.373,7.145a4.977,4.977,0,0,1,1.542,4.067c0,4.264-3.421,7.174-8.02,7.174-3.506,0-5.805-1.78-5.805-4.406,0-2.175,1.514-3.841,4.542-3.841a5.648,5.648,0,0,1,5.357,3.135,3.511,3.511,0,0,0,.337-1.554c0-2.993-1.234-2.8-4.094-2.767H91.624v-3.615h3.085c3.309-.113,3.842.084,3.926-2.175H86.211v-3.191h18.117v3.191h-2.1C102.141,119.1,101.8,119.979,100.851,120.544Zm-6.254,8.05a6.673,6.673,0,0,0,1.542-.17,3.248,3.248,0,0,0-3-1.7c-0.785,0-1.009.283-1.009,0.678C92.129,127.915,92.689,128.594,94.6,128.594Zm17.64-12.032h-3.45v14.544h-3.533V116.562h-3.365v-3.191h3.393v-2.2a1.8,1.8,0,0,0-1.711-1.921,1.777,1.777,0,0,0-1.682,1.921v0.847H98.3v-0.847a5.26,5.26,0,0,1,10.517,0v2.2h3.421v3.191Zm20.306,0H127.1v0.226a10.582,10.582,0,0,1-.42,2.966,6.626,6.626,0,0,1,3.645,5.818c0,3.784-3.282,5.676-6.17,5.676V128.17a2.605,2.605,0,0,0,2.636-2.712,3.179,3.179,0,0,0-1.458-2.71,10.493,10.493,0,0,1-4.011,3.784,11.109,11.109,0,0,1-3.982-3.784,3.086,3.086,0,0,0-1.458,2.71,2.56,2.56,0,0,0,2.58,2.712v3.078c-2.889,0-6.17-1.892-6.17-5.676a6.653,6.653,0,0,1,3.674-5.818,10.461,10.461,0,0,1-.421-2.938v-0.254h-4.992v-3.191h21.988v3.191Zm-9.031,0h-4.4v0.508c0,1.893.73,4.321,2.215,5.507a6.857,6.857,0,0,0,2.188-5.478v-0.537Zm26.419,0h-3.169v14.544h-3.534V124.5H138.1a38.833,38.833,0,0,1-.9,6.608h-3.563a38.774,38.774,0,0,0,1.038-6.636,6.925,6.925,0,0,0-1.627-4.321L137.9,118.2c0.084,1.073.2,1.949,0.252,3.107h5.077v-4.745h-12.7v-3.191H149.93v3.191Zm-7.628,13.3a1.856,1.856,0,0,1-1.851,1.864,1.805,1.805,0,0,1-1.852-1.864,1.832,1.832,0,0,1,1.852-1.836A1.888,1.888,0,0,1,142.3,129.864Zm22.52-6.976c0,0.48.28,0.9,1.318,0.9h7.936v3.164h-7.627c0.14,1.072.841,2.146,3.5,2.117,0.112,0,3.169-.084,4.207-0.734v2.626a10.063,10.063,0,0,1-4.739,1.017c-5.133,0-6.171-3.5-6.171-5.479v-0.254a3.837,3.837,0,0,1-2.159-3.389c0-2.2,1.795-4.01,5.862-4.01h3.533v-2.288H158.876v-3.191h18.117v3.191h-2.917v5.479h-7.571C166.111,122.041,164.822,121.843,164.822,122.888Zm20.08-6.326h-3.45v14.544h-3.533V116.562h-3.366v-3.191h3.393v-2.2a1.8,1.8,0,0,0-1.711-1.921,1.777,1.777,0,0,0-1.682,1.921v0.847h-3.59v-0.847a5.26,5.26,0,0,1,10.517,0v2.2H184.9v3.191ZM192,129.7h-3.534v-15.11H192V129.7Z"/>
  </g>
</svg>
