<svg id="PUNJ" xmlns="http://www.w3.org/2000/svg" width="300" height="250" viewBox="0 0 300 250">
  <defs>
    <style>
      .cls-1 {
        fill: #4b286d;
        fill-rule: evenodd;
      }
    </style>
  </defs>
  <g id="txt1">
    <path class="cls-1" d="M48.056,143.322H46.668v7.144H44.9v-3.093H42.463c-0.154.472-.42,1.123-0.855,2.177l-2.088-.915c0.813-1.221,1.541-1.831,1.541-3.01a4.712,4.712,0,0,0-.644-2.3H39v-1.567h9.055v1.567Zm-5.733,0a7.91,7.91,0,0,1,.407,2.4v0.083H44.9v-2.483H42.323Zm11.363-2.649v0.416H51.892v-0.416a0.877,0.877,0,0,0-.841-0.943,0.889,0.889,0,0,0-.855.943v1.082h1.7v1.567H50.21v7.144H48.444v-7.144H46.719v-1.567h1.71v-1.082A2.63,2.63,0,0,1,53.686,140.673Zm6.333,2.649H58.631v7.144H56.865v-0.832a4.714,4.714,0,0,1-1.331.208c-1.822,0-3.616-1.1-3.574-2.581a5.615,5.615,0,0,0,.925-2.829,2.782,2.782,0,0,0-.14-1.11h-1.78v-1.567h2.8a4.55,4.55,0,0,1,.785,2.663,6.344,6.344,0,0,1-.757,2.843c-0.028.417,1.233,0.875,2.256,0.875a4.009,4.009,0,0,0,.813-0.084v-6.3h3.154v1.567Zm-1.237,10.529c-0.322-.278-0.617-0.527-0.883-0.721a7.84,7.84,0,0,1-.9.429L55.768,154l-0.617-2.122,1.331-.444a1.743,1.743,0,0,1,.379-0.041v-2.025h1.78v2.621c0.294,0.194.631,0.43,1.037,0.735Zm-3.113-14.884a1.956,1.956,0,0,1,1.99-1.984,1.984,1.984,0,1,1,0,3.967A1.955,1.955,0,0,1,55.668,138.967Zm2.775,0a0.8,0.8,0,0,0-.785-0.791,0.784,0.784,0,0,0,0,1.567A0.8,0.8,0,0,0,58.443,138.967Zm12.307,4.355H69.1V150.4h-1.78v-7.075h-1.64v4.245a2.505,2.505,0,0,1-2.635,2.83,3.746,3.746,0,0,1-3.49-3.344c0-1.192.981-2.357,3.041-2.357h1.261v-1.374H59.117v-1.567H70.751v1.567Zm-6.9,4.2v-1.262H62.593a0.933,0.933,0,0,0-1.079.763c0,0.666.9,1.859,1.555,1.789A1.045,1.045,0,0,0,63.855,147.525Zm21.114-4.2H83.581v7.144H81.815v-3.093H79.376c-0.154.472-.42,1.123-0.855,2.177l-2.088-.915c0.813-1.221,1.542-1.831,1.542-3.01a4.713,4.713,0,0,0-.645-2.3H75.914v-1.567h9.055v1.567Zm-5.733,0a7.911,7.911,0,0,1,.407,2.4v0.083h2.173v-2.483H79.236Zm4.145-1.554H81.8c0-.929-0.407-1.594-1.99-1.664l-0.407-1.72A3.355,3.355,0,0,1,83.38,141.768ZM95,143.322H92.28v0.112a5.085,5.085,0,0,1-.21,1.456,3.249,3.249,0,0,1,1.822,2.857,2.894,2.894,0,0,1-3.084,2.789v-1.513a1.289,1.289,0,0,0,1.318-1.331,1.559,1.559,0,0,0-.729-1.332,5.209,5.209,0,0,1-2,1.859,5.51,5.51,0,0,1-1.99-1.859,1.511,1.511,0,0,0-.728,1.332,1.267,1.267,0,0,0,1.289,1.331v1.513a2.893,2.893,0,0,1-3.084-2.789,3.262,3.262,0,0,1,1.836-2.857,5.063,5.063,0,0,1-.211-1.443v-0.125H84.011v-1.567H95v1.567Zm-4.513,0h-2.2v0.25a3.631,3.631,0,0,0,1.107,2.7,3.342,3.342,0,0,0,1.094-2.691v-0.264Z"/>
  </g>
</svg>
