<svg id="PUNJ" xmlns="http://www.w3.org/2000/svg" width="300" height="250" viewBox="0 0 300 250">
  <defs>
    <style>
      .cls-1 {
        fill: #4b286d;
        fill-rule: evenodd;
      }
    </style>
  </defs>
  <g id="txt1">
    <path class="cls-1" d="M48.082,161.214H47.169v4.406c0,1.941-.97,2.9-3.022,2.9-1.841,0-3.851-1.246-3.851-3.158,0-1.361.928-2.409,3.078-2.409h0.45v1.615h-0.45c-0.843,0-1.1.269-1.1,0.75a1.889,1.889,0,0,0,1.954,1.6c0.815,0,1.1-.353,1.1-1.317v-4.392H39v-1.6h9.081v1.6Zm-2.225,7.806v1.3a4.021,4.021,0,0,1-2.263.609,4.106,4.106,0,0,1-2.278-.609v-1.3a4.155,4.155,0,0,0,2.221.468A4.588,4.588,0,0,0,45.857,169.02Zm10.725-7.806H50.636c0.084,0.737.745,1.218,2.305,1.218,0.253,0,1.419,0,1.616-.042v1.473a11.229,11.229,0,0,1-1.406.114L52.913,166.3l-1.518-.737a2.11,2.11,0,0,0-.661-0.113,1.321,1.321,0,0,0-.956.383,2.659,2.659,0,0,0,2.516,1.317,3.9,3.9,0,0,0,2.881-1.176v1.615a4.09,4.09,0,0,1-3.2,1.176,4.007,4.007,0,0,1-4.161-2.932,2.73,2.73,0,0,1,2.812-1.828,3.511,3.511,0,0,1,.9.113l0.014-.156a3.02,3.02,0,0,1-2.712-2.748H46.855v-1.6h9.727v1.6Zm14.245,0H69.435v7.3H67.664v-3.159H65.218c-0.154.482-.421,1.147-0.858,2.224l-2.094-.935c0.815-1.247,1.546-1.87,1.546-3.074a4.878,4.878,0,0,0-.646-2.352h-1.42v-1.6h9.081v1.6Zm-5.749,0a8.209,8.209,0,0,1,.408,2.451v0.085h2.179v-2.536H65.077Zm1.856,6.716a0.929,0.929,0,0,1-.928.934,0.9,0.9,0,0,1-.928-0.934,0.92,0.92,0,0,1,.928-0.922A0.947,0.947,0,0,1,66.933,167.93Zm1.373,1.09v1.3a4.02,4.02,0,0,1-2.263.609,4.106,4.106,0,0,1-2.277-.609v-1.3a4.154,4.154,0,0,0,2.221.468A4.587,4.587,0,0,0,68.306,169.02Zm10.6-7.806H77.541v4.548c0,1.94-.956,2.9-3.064,2.9-1.771,0-3.809-1.247-3.809-3.145,0-1.374.927-2.423,3.078-2.423H75.7v-1.884H69.824v-1.6H78.9v1.6Zm-3.2,4.534v-1.034H73.746c-0.844,0-1.1.268-1.1,0.75a1.891,1.891,0,0,0,1.926,1.6C75.432,167.065,75.7,166.711,75.7,165.748Zm0.839,3.272v1.3a4.021,4.021,0,0,1-2.263.609A4.106,4.106,0,0,1,72,170.324v-1.3a4.155,4.155,0,0,0,2.221.468A4.587,4.587,0,0,0,76.539,169.02Zm0,2.04v1.3a4.013,4.013,0,0,1-2.263.609A4.1,4.1,0,0,1,72,172.363v-1.3a4.155,4.155,0,0,0,2.221.468A4.587,4.587,0,0,0,76.539,171.06Zm16.456-9.846H92.081v4.406c0,1.941-.97,2.9-3.022,2.9-1.841,0-3.851-1.246-3.851-3.158,0-1.361.927-2.409,3.078-2.409h0.45v1.615h-0.45c-0.843,0-1.1.269-1.1,0.75a1.889,1.889,0,0,0,1.953,1.6c0.815,0,1.1-.353,1.1-1.317v-4.392H83.914v-1.6h9.081v1.6Zm-1-1.587H90.221c0-.523-0.534-0.552-1.785-0.608l-0.422-1.771a4.993,4.993,0,0,1,2.643.736,3.94,3.94,0,0,0-2.193-1.147L88.028,155C90.517,155.109,91.992,156.822,91.992,159.627Z"/>
  </g>
</svg>
