<svg id="PUNJ" xmlns="http://www.w3.org/2000/svg" width="300" height="250" viewBox="0 0 300 250">
  <defs>
    <style>
      .cls-1 {
        fill: #4b286d;
        fill-rule: evenodd;
      }
    </style>
  </defs>
  <path id="txt2" class="cls-1" d="M45.674,82.3H44.892v3.75c0,1.652-.829,2.472-2.582,2.472-1.574,0-3.292-1.061-3.292-2.689,0-1.158.792-2.05,2.631-2.05h0.384v1.375H41.649c-0.721,0-.937.229-0.937,0.639a1.613,1.613,0,0,0,1.67,1.363c0.7,0,.937-0.3.937-1.121V82.3H37.913V80.936h7.761V82.3Zm-1.895,6.644v1.109a3.444,3.444,0,0,1-1.934.518,3.517,3.517,0,0,1-1.945-.518V88.942a3.563,3.563,0,0,0,1.9.4A3.94,3.94,0,0,0,43.779,88.942ZM52.945,82.3H47.864c0.072,0.627.637,1.037,1.97,1.037,0.216,0,1.213,0,1.381-.036v1.254a9.581,9.581,0,0,1-1.2.1l-0.2,1.978L48.512,86a1.79,1.79,0,0,0-.564-0.1,1.13,1.13,0,0,0-.817.326,2.273,2.273,0,0,0,2.15,1.121,3.341,3.341,0,0,0,2.463-1v1.375a3.507,3.507,0,0,1-2.74,1,3.425,3.425,0,0,1-3.556-2.5,2.334,2.334,0,0,1,2.4-1.556,2.971,2.971,0,0,1,.769.1l0.013-.133A2.576,2.576,0,0,1,46.313,82.3H44.632V80.936h8.313V82.3Zm12.188,0H63.944v6.21H62.429V85.819h-2.09c-0.132.41-.36,0.977-0.733,1.893l-1.79-.8c0.7-1.061,1.321-1.592,1.321-2.617a4.136,4.136,0,0,0-.553-2H57.372V80.936h7.761V82.3Zm-4.913,0a6.974,6.974,0,0,1,.348,2.086v0.072h1.861V82.3H60.22Zm1.586,5.716a0.794,0.794,0,0,1-.793.8,0.771,0.771,0,0,1-.792-0.8,0.783,0.783,0,0,1,.792-0.784A0.807,0.807,0,0,1,61.805,88.014Zm1.18,0.928v1.109a3.444,3.444,0,0,1-1.934.518,3.517,3.517,0,0,1-1.945-.518V88.942a3.563,3.563,0,0,0,1.9.4A3.939,3.939,0,0,0,62.985,88.942Zm9.06-6.644H70.879v3.871c0,1.652-.817,2.472-2.618,2.472C66.746,88.641,65,87.58,65,85.964c0-1.169.792-2.062,2.63-2.062H69.3V82.3H64.284V80.936h7.761V82.3ZM69.3,86.157v-0.88h-1.67c-0.721,0-.937.229-0.937,0.639a1.615,1.615,0,0,0,1.646,1.362C69.077,87.278,69.3,86.977,69.3,86.157Zm0.724,2.786v1.109a3.444,3.444,0,0,1-1.934.518,3.517,3.517,0,0,1-1.946-.518V88.942a3.564,3.564,0,0,0,1.9.4A3.939,3.939,0,0,0,70.029,88.942Zm0,1.736v1.11a3.44,3.44,0,0,1-1.934.518,3.513,3.513,0,0,1-1.946-.518v-1.11a3.559,3.559,0,0,0,1.9.4A3.934,3.934,0,0,0,70.029,90.679ZM84.1,82.3H83.319v3.75c0,1.652-.828,2.472-2.582,2.472-1.574,0-3.292-1.061-3.292-2.689,0-1.158.793-2.05,2.631-2.05h0.385v1.375H80.076c-0.721,0-.937.229-0.937,0.639a1.613,1.613,0,0,0,1.67,1.363c0.7,0,.937-0.3.937-1.121V82.3H76.34V80.936H84.1V82.3Zm-0.85-1.351H81.737c0-.446-0.457-0.47-1.526-0.518l-0.36-1.507a4.279,4.279,0,0,1,2.258.627,3.37,3.37,0,0,0-1.873-.977L79.863,77C81.99,77.1,83.25,78.56,83.25,80.948ZM50.169,102.014H48.285v9.836h-2.4v-0.821a8.37,8.37,0,0,1-2.037.248c-2.625,0-4.547-1.356-5.1-3.476a4.509,4.509,0,0,1,1.6-2.5,4.2,4.2,0,0,1-1.409-2.426,3.359,3.359,0,0,1-.057-0.859H37V99.855H50.169v2.159Zm-4.281,6.9v-2.5h-2.3A2.135,2.135,0,0,0,41.3,107.8c0.246,0.8,1.446,1.337,2.873,1.337A6.023,6.023,0,0,0,45.888,108.909Zm0-6.9H41.321a2.788,2.788,0,0,0,.076.687,2.089,2.089,0,0,0,2.341,1.528h2.15v-2.215Zm15.206,0h-1.98v5.768a3.8,3.8,0,0,1-4.091,4.049,3.839,3.839,0,0,1-4.129-3.935v-1.3a4.8,4.8,0,0,0-1.085-2.616l3.292-1.318c0.058,0.726.133,1.318,0.171,2.1h3.444v-2.75H47.925V99.855H61.093v2.159Zm-4.377,5.691v-0.783H53.082v0.363c0.038,1.7.7,2.368,1.959,2.368A1.563,1.563,0,0,0,56.716,107.705Zm14.92-5.691H69.6v0.725c0,2.006-.342,2.369-0.818,2.865a3.855,3.855,0,0,1,.818,2.407c0,2.235-1.921,3.935-4.775,3.935A6.368,6.368,0,0,1,61,110.8v-2.273a6.7,6.7,0,0,0,3.577,1.241c1.56,0,2.587-.764,2.587-1.738,0-1.2-1.351-1.26-4.205-1.26v-2.159c2.892,0,4.225.153,4.187-1.7v-0.9h-7.8V99.855H71.636v2.159Zm17.927-.44h-2l-0.038,1.758a7.693,7.693,0,0,1-1.065,4.144,10.8,10.8,0,0,1,.418,3.056c0,0.382,0,.841-0.019,1.223H85.3c0.019-.286.038-0.86,0.038-1.261a11.112,11.112,0,0,0-.114-1.643,5.242,5.242,0,0,1-3.253,1.07c-2.4,0-3.787-1.337-3.787-3.285a3.2,3.2,0,0,1,3.482-3.3,4.624,4.624,0,0,1,4,2.291,7.632,7.632,0,0,0,.305-2.2v-1.853H76.4v-1.452H89.562v1.452Zm-4.757,5.616A3.238,3.238,0,0,0,81.8,104.8a1.81,1.81,0,0,0-2.036,1.815c0,1.108.818,1.814,2.283,1.814A3.464,3.464,0,0,0,84.806,107.19Zm15.528-5.616H97.9v6.265c0,2.388-1.18,3.916-3.6,3.916-2.322,0-4.758-1.91-4.758-4.279,0-1.623,1.066-2.9,3.635-2.9H96.3v-3H88.042v-1.452h12.292v1.452ZM96.3,107.82v-1.757H93.18c-1.427,0-1.941.516-1.941,1.375A3.26,3.26,0,0,0,94.4,110.3C95.73,110.3,96.3,109.348,96.3,107.82Zm-1.387-9.55C94,98.1,92.04,97.964,92.04,94.87h1.5c0,1.776.686,1.815,1.409,1.91,1.465,0.229,2.836.9,2.836,3.362H96.3A1.641,1.641,0,0,0,94.913,98.27Zm22.91,3.3h-2.435v6.265c0,2.388-1.18,3.916-3.6,3.916-2.322,0-4.758-1.91-4.758-4.279,0-1.623,1.067-2.9,3.635-2.9h3.12v-3h-8.257v-1.452h12.291v1.452Zm-4.034,6.246v-1.757h-3.12c-1.427,0-1.941.516-1.941,1.375a3.26,3.26,0,0,0,3.159,2.865C113.219,110.3,113.789,109.348,113.789,107.82Zm-1.881-11.575a2.522,2.522,0,1,1,2.531,2.521A2.534,2.534,0,0,1,111.908,96.245Zm3.8,0a1.275,1.275,0,1,0-2.549,0A1.275,1.275,0,0,0,115.713,96.245Zm16.611,5.329h-2.377v10.181h-1.58V101.574h-3.1v6.284c0,2.483-1.123,3.9-3.025,3.9a4.847,4.847,0,0,1-4.377-4.451c0-1.336,1.009-2.731,3.654-2.731h2.15v-3h-7.136v-1.452h15.793v1.452Zm-8.657,6.227v-1.757h-2.15c-0.932,0-1.96.267-1.96,1.222,0,1.146,1.332,3.056,2.683,3.018C123.667,110.246,123.667,108.336,123.667,107.8Zm13.531-6.227h-2.74V111.7h-1.579V101.574h-2.7v-1.452h2.7V98.366c0-1.471-.78-2.006-1.561-2.006s-1.579.535-1.579,2.006v0.573h-1.56V98.366c0-2.1,1.142-3.476,3.139-3.476,1.979,0,3.14,1.375,3.14,3.476v1.757h2.74v1.452Zm5.6,0v2.235a3.965,3.965,0,0,1,3.577,4.068,3.6,3.6,0,0,1-3.463,3.629v-1.47a2.245,2.245,0,0,0,1.9-2.292,2.831,2.831,0,0,0-5.633,0,2.245,2.245,0,0,0,1.9,2.292v1.47a3.588,3.588,0,0,1-3.463-3.629,3.98,3.98,0,0,1,3.6-4.068v-2.235h-5.461v-1.452h12.292v1.452h-5.251ZM162,104.9a2.81,2.81,0,0,1,1.618,2.693c0,2.5-2.093,4.355-4.948,4.355-2.207,0-3.577-1.089-3.577-2.617,0-1.242.894-2.235,2.626-2.235a4.158,4.158,0,0,1,3.749,2.35,2.673,2.673,0,0,0,.57-1.719c0-1.547-1.141-2.063-3.178-2.044h-2.092v-1.566h2.092c2.341-.115,3.026-0.5,3.083-2.541H153.09v-1.452h12.292v1.452h-1.865C163.442,103.675,162.7,104.649,162,104.9Zm-3.253,5.577a4.523,4.523,0,0,0,1.674-.286,3.13,3.13,0,0,0-2.683-1.643,0.876,0.876,0,0,0-1.066.8C156.667,109.921,157.257,110.475,158.742,110.475Zm12.007-8.9H168.01V111.7h-1.58V101.574h-2.7v-1.452h2.7V98.366c0-1.471-.78-2.006-1.56-2.006s-1.579.535-1.579,2.006v0.573h-1.56V98.366c0-2.1,1.141-3.476,3.139-3.476,1.979,0,3.14,1.375,3.14,3.476v1.757h2.739v1.452Zm13.474,0H180.36c0.019,0.21.038,0.44,0.038,0.688a6.641,6.641,0,0,1-.342,2.1,4,4,0,0,1,2.55,3.7,3.578,3.578,0,0,1-3.768,3.553v-1.432a2.138,2.138,0,0,0,2.188-2.121,2.685,2.685,0,0,0-1.56-2.387,6.558,6.558,0,0,1-2.55,2.6,6.539,6.539,0,0,1-2.569-2.578,2.694,2.694,0,0,0-1.541,2.368,2.134,2.134,0,0,0,2.169,2.121v1.432a3.563,3.563,0,0,1-3.748-3.553,4.015,4.015,0,0,1,2.53-3.7,7.164,7.164,0,0,1-.324-2.12,6.677,6.677,0,0,1,.039-0.669h-4.167v-1.452h14.918v1.452Zm-5.423,0h-3.767c-0.02.229-.038,0.478-0.038,0.745a4.892,4.892,0,0,0,1.921,4.221,5.1,5.1,0,0,0,1.922-4.24C178.838,102.052,178.819,101.8,178.8,101.574Zm16.9,0H193.13V111.7h-1.579V106.98h-4.243a18.46,18.46,0,0,1-.666,4.717h-1.6a19.78,19.78,0,0,0,.742-4.717,3.9,3.9,0,0,0-1.2-2.56l2.283-.8a12.019,12.019,0,0,1,.419,1.91h4.263v-3.954h-9.02v-1.452H195.7v1.452Zm-5.365,8.557a1,1,0,0,1-.99.993,0.984,0.984,0,1,1,0-1.967A0.994,0.994,0,0,1,190.333,110.131Zm14.064-3a2.732,2.732,0,0,0,2.911,3.075,4.3,4.3,0,0,0,3.14-1.242v1.471a4.26,4.26,0,0,1-3.235,1.242,4.118,4.118,0,0,1-4.281-4.317v-0.783a3.9,3.9,0,0,0-1.2-2.56l2.283-.8a12.243,12.243,0,0,1,.418,1.91H208.7v-3.553H199.83v-1.452H213v1.452h-2.721v5H204.4v0.554Zm5.785-6.991h-1.464a2.8,2.8,0,0,0-3.2-2.961l-0.361-1.528A4.413,4.413,0,0,1,210.182,100.142ZM44.251,123.694v2.234A3.965,3.965,0,0,1,47.828,130a3.6,3.6,0,0,1-3.463,3.629v-1.47a2.244,2.244,0,0,0,1.9-2.292,2.6,2.6,0,0,0-2.816-2.54,2.6,2.6,0,0,0-2.816,2.54,2.243,2.243,0,0,0,1.9,2.292v1.47A3.588,3.588,0,0,1,39.076,130a3.981,3.981,0,0,1,3.6-4.068v-2.234H37.211v-1.452H49.5v1.452H44.251Zm10.847,0h-2.72v5.52H50.817v-5.52h-2.74v-1.452H55.1v1.452Zm13.473,0H64.709c0.019,0.21.038,0.439,0.038,0.687a6.639,6.639,0,0,1-.342,2.1,4,4,0,0,1,2.55,3.706,3.578,3.578,0,0,1-3.768,3.552v-1.432a2.138,2.138,0,0,0,2.188-2.12,2.685,2.685,0,0,0-1.56-2.388,6.553,6.553,0,0,1-2.55,2.6,6.557,6.557,0,0,1-2.569-2.579,2.693,2.693,0,0,0-1.541,2.369,2.134,2.134,0,0,0,2.169,2.12v1.432a3.563,3.563,0,0,1-3.748-3.552,4.014,4.014,0,0,1,2.53-3.706,7.15,7.15,0,0,1-.324-2.121c0-.247.02-0.477,0.038-0.667H53.653v-1.452H68.571v1.452Zm-5.423,0H59.381c-0.02.229-.038,0.477-0.038,0.744a4.893,4.893,0,0,0,1.921,4.221,5.1,5.1,0,0,0,1.922-4.24C63.186,124.171,63.168,123.923,63.148,123.694Zm14.1,5.9a2.733,2.733,0,0,0,.647,1.795,3.673,3.673,0,0,1,3.635-2.445c1.864,0,2.854,1.089,2.854,2.388,0,1.547-1.409,2.673-3.654,2.673-2.854,0-5.062-1.833-5.062-4.469,0-1.8,1.047-3.763,4.263-3.763h2.34v-2.081H73.826v-1.452H86.118v1.452H83.854v3.571H79.478A2.145,2.145,0,0,0,77.251,129.6Zm1.6,2.5a4.433,4.433,0,0,0,1.959.42c1.161,0,2-.363,2-1.032,0-.554-0.475-1.088-1.522-1.088A2.61,2.61,0,0,0,78.85,132.1Zm2.038-11.709c-0.914-.172-2.873-0.306-2.873-3.4h1.5c0,1.776.686,1.815,1.409,1.91,1.465,0.23,2.836.9,2.836,3.362H82.276A1.641,1.641,0,0,0,80.887,120.389Zm11.056,3.305v2.234A3.965,3.965,0,0,1,95.52,130a3.6,3.6,0,0,1-3.463,3.629v-1.47a2.244,2.244,0,0,0,1.9-2.292,2.831,2.831,0,0,0-5.632,0,2.243,2.243,0,0,0,1.9,2.292v1.47A3.588,3.588,0,0,1,86.768,130a3.981,3.981,0,0,1,3.6-4.068v-2.234H84.9v-1.452H97.2v1.452H91.943Zm16.727,0H106.1v10.123h-1.579V129.1h-4.243a18.467,18.467,0,0,1-.666,4.718h-1.6a19.8,19.8,0,0,0,.742-4.718,3.9,3.9,0,0,0-1.2-2.56l2.283-.8a12.008,12.008,0,0,1,.419,1.91h4.262v-3.953H95.5v-1.452H108.67v1.452Zm-5.365,8.557a1,1,0,0,1-.99.992,0.984,0.984,0,1,1,0-1.967A0.994,0.994,0,0,1,103.305,132.251Zm8.012-.5-1.256,4.393h-1.409l1.085-4.393h1.58Zm15.3-4.738a2.813,2.813,0,0,1,1.618,2.694c0,2.5-2.093,4.355-4.948,4.355-2.207,0-3.577-1.089-3.577-2.616,0-1.242.894-2.235,2.626-2.235a4.158,4.158,0,0,1,3.749,2.348,2.665,2.665,0,0,0,.57-1.719c0-1.546-1.141-2.062-3.178-2.043h-2.092v-1.566h2.092c2.341-.115,3.027-0.5,3.083-2.54h-8.848v-1.452H130v1.452h-1.865C128.064,125.794,127.321,126.769,126.617,127.016Zm-3.253,5.578a4.544,4.544,0,0,0,1.674-.286,3.13,3.13,0,0,0-2.683-1.643,0.877,0.877,0,0,0-1.066.8C121.289,132.041,121.879,132.594,123.364,132.594Zm4.661-10.333h-1.464a2.8,2.8,0,0,0-3.2-2.961L123,117.772A4.413,4.413,0,0,1,128.025,122.261Zm3.673,8.117a4.159,4.159,0,0,0,3.9,2.2,5.482,5.482,0,0,0,4.015-1.681v1.547a5.654,5.654,0,0,1-4.262,1.6,5.339,5.339,0,0,1-5.328-3.668,5.083,5.083,0,0,1,5.195-3.667h2.416v-3.017h-9.286v-1.452h13.168v1.452h-2.3V128.2h-4A3.6,3.6,0,0,0,131.7,130.378Zm15.186-6.684h-2.72v5.52H142.6v-5.52h-2.74v-1.452h7.021v1.452Zm20.078,0h-2.3v10.123H163.08v-5.272h-1.808a15.544,15.544,0,0,1-1.484,3.9l-1.618-.725c1.979-3.591,2.094-4.813,1.067-5.941-1.143.115-2.113,1.261-3.654,4.47l-1.58-.726c1.333-2.941,1.484-4.7.476-5.825H151.72v-1.452H155.2c1.255,0.65,1.54,2.483,1.35,3.648a3.6,3.6,0,0,1,3.425-1.624,3.959,3.959,0,0,1,1.409,2.827h1.693v-4.851h3.882v1.452Zm7.118,4.029a2.879,2.879,0,0,1,1.065,2.33c0,2.14-1.788,3.649-4.376,3.649a6.133,6.133,0,0,1-3.805-1.165v-1.49a6.91,6.91,0,0,0,3.653,1.165c1.617,0,2.95-.763,2.95-2.2,0-1.509-1.389-1.471-4.644-1.471v-1.452c3.54,0,4.662-.057,4.624-2.139v-1.26h-8.239v-1.452H177.6v1.452h-2.473v1.088C175.127,126.788,174.555,127.4,174.08,127.723Zm0.933-5.462h-1.464a2.8,2.8,0,0,0-3.2-2.961l-0.361-1.528A4.413,4.413,0,0,1,175.013,122.261ZM45.773,149.843a2.878,2.878,0,0,1,1.065,2.33c0,2.139-1.788,3.649-4.376,3.649a6.134,6.134,0,0,1-3.8-1.166v-1.489a6.909,6.909,0,0,0,3.653,1.165c1.617,0,2.949-.764,2.949-2.2,0-1.509-1.389-1.471-4.643-1.471v-1.452c3.54,0,4.662-.057,4.624-2.14v-1.26H37v-1.452H49.294v1.452H46.82V146.9C46.82,148.907,46.249,149.518,45.773,149.843Zm14.977-4.03h-2l-0.038,1.757a7.692,7.692,0,0,1-1.065,4.145,10.8,10.8,0,0,1,.418,3.056c0,0.382,0,.841-0.019,1.222h-1.56c0.019-.286.038-0.859,0.038-1.26a11.126,11.126,0,0,0-.114-1.643,5.242,5.242,0,0,1-3.253,1.07c-2.4,0-3.787-1.337-3.787-3.285a3.2,3.2,0,0,1,3.482-3.305,4.622,4.622,0,0,1,4,2.293,7.644,7.644,0,0,0,.305-2.2v-1.853H47.583v-1.452H60.75v1.452Zm-4.757,5.616a3.237,3.237,0,0,0-3.007-2.388,1.809,1.809,0,0,0-2.035,1.814c0,1.108.818,1.815,2.283,1.815A3.464,3.464,0,0,0,55.993,151.429Zm10.3-5.616v2.235a3.964,3.964,0,0,1,3.577,4.068,3.6,3.6,0,0,1-3.463,3.629v-1.471a2.243,2.243,0,0,0,1.9-2.292,2.831,2.831,0,0,0-5.632,0,2.243,2.243,0,0,0,1.9,2.292v1.471a3.588,3.588,0,0,1-3.463-3.629,3.98,3.98,0,0,1,3.6-4.068v-2.235H59.248v-1.452H71.541v1.452H66.289Zm10.847,0h-2.72v5.52H72.855v-5.52h-2.74v-1.452h7.021v1.452Zm13.473,0H86.746c0.02,0.211.038,0.439,0.038,0.688a6.639,6.639,0,0,1-.342,2.1,4,4,0,0,1,2.55,3.706,3.578,3.578,0,0,1-3.768,3.552v-1.433a2.137,2.137,0,0,0,2.188-2.119,2.685,2.685,0,0,0-1.56-2.388,6.564,6.564,0,0,1-2.55,2.6,6.552,6.552,0,0,1-2.569-2.58,2.7,2.7,0,0,0-1.541,2.37,2.133,2.133,0,0,0,2.169,2.119v1.433a3.562,3.562,0,0,1-3.748-3.552,4.014,4.014,0,0,1,2.53-3.706,7.155,7.155,0,0,1-.324-2.121c0-.247.02-0.477,0.038-0.668H75.691v-1.452H90.609v1.452Zm-5.423,0H81.419c-0.02.229-.038,0.478-0.038,0.745a4.894,4.894,0,0,0,1.921,4.221,5.105,5.105,0,0,0,1.922-4.24C85.224,146.291,85.206,146.042,85.186,145.813Zm-1.407-3.3c-0.914-.171-2.873-0.305-2.873-3.4h1.5c0,1.776.686,1.815,1.409,1.91,1.465,0.229,2.836.9,2.836,3.362H85.169A1.641,1.641,0,0,0,83.78,142.508Zm18.305,3.3H99.516v10.123H97.937v-4.717H93.694a18.442,18.442,0,0,1-.666,4.717h-1.6a19.781,19.781,0,0,0,.741-4.717,3.9,3.9,0,0,0-1.2-2.56l2.283-.8a12.042,12.042,0,0,1,.419,1.909h4.263v-3.953h-9.02v-1.452h13.167v1.452Zm5.1,0h-2.74v10.123h-1.579V145.813h-2.7v-1.452h2.7V142.6c0-1.47-.78-2.005-1.561-2.005s-1.578.535-1.578,2.005v0.573h-1.56V142.6c0-2.1,1.142-3.476,3.139-3.476,1.979,0,3.14,1.375,3.14,3.476v1.757h2.74v1.452Zm11.419-4.393-1.256,4.393h-1.408l1.085-4.393h1.579Zm11.057,8.423a2.879,2.879,0,0,1,1.065,2.33c0,2.139-1.788,3.649-4.376,3.649a6.133,6.133,0,0,1-3.8-1.166v-1.489a6.91,6.91,0,0,0,3.653,1.165c1.617,0,2.949-.764,2.949-2.2,0-1.509-1.389-1.471-4.643-1.471v-1.452c3.54,0,4.662-.057,4.624-2.14v-1.26H120.89v-1.452h12.292v1.452h-2.473V146.9C130.709,148.907,130.137,149.518,129.662,149.843Zm0.934-5.462h-1.464a2.8,2.8,0,0,0-3.2-2.961l-0.361-1.528A4.413,4.413,0,0,1,130.6,144.381Zm6.983,10.734H136V144.743h1.579v10.372Z"/>
</svg>
