<svg id="HING" xmlns="http://www.w3.org/2000/svg" width="728" height="90" viewBox="0 0 728 90">
  <defs>
    <style>
      .cls-1 {
        fill: #4c286c;
        fill-rule: evenodd;
      }
    </style>
  </defs>
  <g id="txt1">
    <path class="cls-1" d="M190,47.232h8.815c0.2,2.572,1.818,3.2,4.308,3.2,2.569,0,3.676-.624,3.676-1.91,0-1.208-.949-1.831-3.992-2.26l-3.4-.468c-5.1-.7-8.736-3.429-8.736-8.728,0-4.364,2.333-9.079,11.978-9.079,7.352,0,11.858,2.728,12.372,9.157h-8.262c-0.2-1.675-1.106-2.649-3.794-2.649-2.451,0-3.4.7-3.4,1.792s0.949,1.637,2.649,1.87l3.4,0.467c7.036,0.974,10.2,3.624,10.2,8.572,0,5.962-4.387,9.819-12.846,9.819C194.348,57.012,190.276,53.038,190,47.232Zm42.339,9.118a5.98,5.98,0,0,1-.593-2.338c-1.107,1.87-3.321,3-6.562,3-4.309,0-7.51-1.948-7.51-6.2,0-3.507,2.174-5.689,7.787-6.234l3.715-.35c1.66-.156,2.451-0.468,2.451-1.52s-0.791-1.481-2.293-1.481c-1.58,0-2.332.468-2.45,1.988h-8.222c0.2-4.91,3.241-7.443,10.791-7.443,7.352,0,10.4,2.338,10.4,6.429v10.95a7.026,7.026,0,0,0,.751,3.2h-8.261Zm-0.712-7.676V47.349a2.317,2.317,0,0,1-1.779.819l-1.9.233c-1.305.156-1.937,0.7-1.937,1.754,0,1.208.83,1.793,2.411,1.793C230.52,51.947,231.627,50.856,231.627,48.674Zm11.309,1.52V28.607h8.222v19.95c0,1.676.633,1.793,1.739,1.793H254v6a27.118,27.118,0,0,1-3.2.195C245.189,56.545,242.936,54.674,242.936,50.194Zm34.906-1.87H262.979c0.119,1.832,1.344,3.078,3.913,3.078a3.444,3.444,0,0,0,2.926-1.091h7.668c-1.225,4.208-5.336,6.507-10.752,6.507-7.115,0-11.463-3.935-11.463-10.443,0-6.351,4.348-10.6,11.424-10.6,6.68,0,11.305,3.78,11.305,10.287A18.873,18.873,0,0,1,277.842,48.323ZM263.1,44.115h7c-0.2-1.987-1.383-2.962-3.518-2.962A3.105,3.105,0,0,0,263.1,44.115Z"/>
  </g>
</svg>
