<svg id="HING" xmlns="http://www.w3.org/2000/svg" width="728" height="90" viewBox="0 0 728 90">
  <defs>
    <style>
      .cls-1 {
        fill: #4c286c;
        fill-rule: evenodd;
      }
    </style>
  </defs>
  <g id="txt1">
    <path class="cls-1" d="M51,47.364h8.81c0.2,2.582,1.817,3.208,4.306,3.208,2.568,0,3.674-.626,3.674-1.917,0-1.212-.948-1.838-3.99-2.269l-3.4-.47c-5.1-.7-8.731-3.442-8.731-8.762,0-4.381,2.331-9.114,11.97-9.114,7.348,0,11.851,2.738,12.365,9.192H67.749c-0.2-1.682-1.106-2.66-3.792-2.66-2.449,0-3.4.7-3.4,1.8s0.948,1.643,2.647,1.878l3.4,0.469C73.636,39.7,76.8,42.357,76.8,47.325c0,5.985-4.385,9.857-12.839,9.857C55.345,57.182,51.276,53.193,51,47.364Zm50.888-.939c0,6.376-3.319,10.562-8.731,10.562a6.758,6.758,0,0,1-6.045-3.09V64.5H78.895V36.333h7.98v3.012a6.709,6.709,0,0,1,6.281-3.482C98.568,35.863,101.887,40.049,101.887,46.425Zm-8.218-.039c0-2.817-1.225-4.264-3.476-4.264s-3.437,1.447-3.437,4.264,1.185,4.3,3.437,4.3S93.669,49.2,93.669,46.386Zm25.525-10.249v7.315h-1.9c-3.2,0-4.9,1.565-4.9,5.32v7.745h-8.217V36.333h8.059v3.99a5.143,5.143,0,0,1,5.491-4.3A8.185,8.185,0,0,1,119.194,36.137Zm2.412,0.2h8.217V56.517h-8.217V36.333Zm0.079-5.4a4.01,4.01,0,1,1,4.03,3.99A4.019,4.019,0,0,1,121.685,30.935ZM154.319,44V56.517H146.1V45.33c0-1.6-.711-2.66-2.331-2.66a2.5,2.5,0,0,0-2.686,2.7V56.517h-8.217V36.333h8.059v2.934h0.119a6.683,6.683,0,0,1,6.32-3.4C151.553,35.863,154.319,38.172,154.319,44ZM180,36.333V55.618c0,6.063-4.188,9.388-11.5,9.388-6.835,0-10.982-2.621-11.536-8.1h8.3c0.2,1.643,1.185,2.386,3.16,2.386,2.212,0,3.2-.939,3.2-3.012V52.645a7.191,7.191,0,0,1-6.4,3.13c-5.294,0-8.612-3.951-8.612-9.975,0-5.985,3.318-9.936,8.612-9.936a7.19,7.19,0,0,1,6.558,3.364V36.333H180Zm-8.257,9.428c0-2.738-1.185-4.225-3.437-4.225s-3.476,1.487-3.476,4.225c0,2.816,1.225,4.3,3.476,4.3S171.744,48.576,171.744,45.761Z"/>
  </g>
</svg>
