<svg id="HING" xmlns="http://www.w3.org/2000/svg" width="728" height="90" viewBox="0 0 728 90">
  <defs>
    <style>
      .cls-1 {
        fill: #4c286c;
        fill-rule: evenodd;
      }
    </style>
  </defs>
  <g id="txt1">
    <path class="cls-1" d="M491.989,45.46a5.333,5.333,0,1,1,10.662,0A5.333,5.333,0,1,1,491.989,45.46Zm7.353,0c0-1.864-.835-2.642-2.022-2.642S495.3,43.6,495.3,45.46s0.835,2.656,2.022,2.656S499.342,47.339,499.342,45.46ZM513,40.235v10.45h-3.323l-2.121-3.713c-0.353-.617-0.664-1.174-0.947-1.746,0.042,1.233.056,2.422,0.056,3.757v1.7h-3.111V40.235h3.323l2.079,3.713c0.311,0.558.651,1.262,0.976,1.967-0.043-1.306-.043-2.554-0.043-3.978v-1.7H513Z"/>
  </g>
</svg>
