<svg id="TC" xmlns="http://www.w3.org/2000/svg" width="300" height="600" viewBox="0 0 300 600">
  <defs>
    <style>
      .cls-1 {
        fill: #fff;
        fill-rule: evenodd;
      }
    </style>
  </defs>
  <path class="cls-1" d="M65.877,549.666a0.169,0.169,0,0,0,.111-0.1,0.382,0.382,0,0,0,.051-0.2v-4.459a9.129,9.129,0,0,0,2.433-1.719L63,543.184v-0.736h6.607v0.658a8.678,8.678,0,0,1-2.745,2.189l-0.011,4.371a0.824,0.824,0,0,1-.191.511,0.678,0.678,0,0,1-.543.255l-1.479.02-0.361-.786h1.6Zm10.258-.01a1.214,1.214,0,0,1-.171.668,0.579,0.579,0,0,1-.523.265H74.647l-0.422-.727h0.884a0.24,0.24,0,0,0,.192-0.083,0.287,0.287,0,0,0,.07-0.192v-1.168h-2.1a4.482,4.482,0,0,1-1.066,2.317l-0.573-.51a4.7,4.7,0,0,0,.523-0.742,3.38,3.38,0,0,0,.221-0.57,4.464,4.464,0,0,0,.141-0.741v-3.054l-0.261.285-0.634-.423a5.866,5.866,0,0,0,1.669-3.094l0.654,0.256a4.32,4.32,0,0,1-.12.609H75.6a11.338,11.338,0,0,1-.523,1.581h1.056v0.442a2.5,2.5,0,0,0,.915-0.677,1.858,1.858,0,0,0,.463-1.041h-1.1V542.34h3.811a8.076,8.076,0,0,1-.452,2.209,0.654,0.654,0,0,1-.241.309,0.694,0.694,0,0,1-.382.133,2.233,2.233,0,0,1-.448-0.034c-0.192-.03-0.324-0.047-0.4-0.054l-0.232-.815a3.557,3.557,0,0,0,.713.225,0.3,0.3,0,0,0,.372-0.274c0.047-.158.117-0.484,0.211-0.982H78.248a3.548,3.548,0,0,1-.548,1.389,2.946,2.946,0,0,1-1.222.958l-0.322-.432Zm-2.585-6.187a6.623,6.623,0,0,1-.432.864l1.156-.009c0.073-.125.15-0.27,0.227-0.437a3.426,3.426,0,0,0,.165-0.418H73.551Zm0.392,2.554V545.03H73.269v0.993h0.673Zm-0.673.668,0.01,1.03h0.664v-1.03H73.269Zm2.091-1.661H74.667v0.993h0.7Zm0.011,1.661h-0.7l0.011,1.021,0.694,0.009v-1.03Zm3.59,1.856v2.16H78.207l-0.011-2.16H76.256V547.84l1.952-.011v-1.021H77.5a3.487,3.487,0,0,1-.513.884l-0.774-.265a2.715,2.715,0,0,0,.558-0.811,4.232,4.232,0,0,0,.307-1.369l0.694,0.206a3.216,3.216,0,0,1-.07.638L78.2,546.1l0.011-1.021,0.753-.01v1.021h1.177l-0.01.717H78.961v1.021h1.7v0.718h-1.7Zm11.224,2.121a18.7,18.7,0,0,1-3.148-.4,9.58,9.58,0,0,1-1.921-.653l-0.312.206a7.164,7.164,0,0,1-2.886.933l-0.453-.658a13.776,13.776,0,0,0,1.413-.309,8.909,8.909,0,0,0,1.514-.555,6.826,6.826,0,0,1-1.459-1.257l0.583-.383a11.723,11.723,0,0,0,1.469,1.119,2.69,2.69,0,0,0,.347-0.589,3.144,3.144,0,0,0,.206-0.648H82.8l0.01-3.634H85.7v-0.726l-3.942.009v-0.7h8.579v0.7l-3.892-.009v0.726h2.8v3.634H86.3a3.664,3.664,0,0,1-.232.87,2.951,2.951,0,0,1-.422.741,4.939,4.939,0,0,0,1.226.408,17.523,17.523,0,0,0,1.816.284q1.031,0.113,1.966.133Zm-6.628-5.373H85.7v-0.746l-2.142-.009v0.755Zm0,1.464,2.083,0.01,0.04-.776H83.557v0.766Zm2.877-.766-0.051.776h2.132v-0.776H86.434ZM88.5,544.54H86.463l-0.01.755H88.5V544.54Zm4.233,3.28a13,13,0,0,0,2.529-1.184,7.01,7.01,0,0,0,1.8-1.586,12.366,12.366,0,0,1-1.88.909,20.6,20.6,0,0,1-2.957.879l-0.483-.659q0.795-.175,1.735-0.431a11.64,11.64,0,0,0,1.4-.453,3.525,3.525,0,0,0-1.127-.824l0.7-.442a3.176,3.176,0,0,1,.588.427,3.99,3.99,0,0,1,.537.545,8.952,8.952,0,0,0,1.066-.628,9.582,9.582,0,0,0,.935-0.767H94.82a10.82,10.82,0,0,1-2.2,1.091l-0.664-.609a7.766,7.766,0,0,0,3.882-2.377l0.7,0.363a7.273,7.273,0,0,1-.734.786h2.836v0.658a6.993,6.993,0,0,1-.679.751,7.294,7.294,0,0,1-.739.644l0.593,0.314a4.446,4.446,0,0,1-.534.7l2.716,0.01-0.011.658a6.75,6.75,0,0,1-.6.9,5.869,5.869,0,0,1-1.01,1,7.571,7.571,0,0,1-1.443.893,12.637,12.637,0,0,1-1.775.683,27.951,27.951,0,0,1-2.927.648l-0.5-.677a20.351,20.351,0,0,0,4.505-1.16,3.576,3.576,0,0,0-1.106-.982l0.724-.4a3.1,3.1,0,0,1,1.036,1.071,8.181,8.181,0,0,0,.98-0.6,4.3,4.3,0,0,0,.735-0.653,4.162,4.162,0,0,0,.467-0.634H96.5a7.967,7.967,0,0,1-1.141.8,18.884,18.884,0,0,1-2.037.973Z"/>
</svg>
