<svg id="TC" xmlns="http://www.w3.org/2000/svg" width="300" height="600" viewBox="0 0 300 600">
  <defs>
    <style>
      .cls-1 {
        fill: #4c286c;
        fill-rule: evenodd;
      }
    </style>
  </defs>
  <g id="txt1">
    <path class="cls-1" d="M55.54,205.16a27.33,27.33,0,0,0-1.4-4.959A11.733,11.733,0,0,0,52,196.29a76.444,76.444,0,0,0,9.932-22.3l6.331,1.417v-0.493h38.483l0.062,5.667H88.623L88.5,181.813h12.662v12.875h6.207v8.439h-5.152a5.83,5.83,0,0,1,.652.8q0.341,0.494,2.2,3.265a28.435,28.435,0,0,0-5.958,3.2,16.408,16.408,0,0,0-2.359-3.819,7.725,7.725,0,0,1-1.366,2.649,2.705,2.705,0,0,1-2.048,1.293H86.326l-0.5.8H99.92l2.234,2.094a27.307,27.307,0,0,1-6.021,6.654,33.5,33.5,0,0,0,5.928.924,56.376,56.376,0,0,0,6.424.123q-1.987,2.464-2.7,3.511a9.979,9.979,0,0,0-1.148,2.249,15.1,15.1,0,0,0-.621,2.125,54.223,54.223,0,0,1-15.331-4,74.207,74.207,0,0,1-7.479,2.525A44.247,44.247,0,0,1,73.23,229a11.817,11.817,0,0,0-1.614-3.819,13.081,13.081,0,0,0-2.483-2.957,42.711,42.711,0,0,0,11.608-1.6l-2.483-2.279a53.15,53.15,0,0,1-10.241,3.942,11.166,11.166,0,0,0-.652-1.324,8.765,8.765,0,0,0-1.21-1.571q-0.808-.862-0.993-1.047v10.472h-7.7V202.326Zm21.351,0a10.155,10.155,0,0,1-.372,1.324,12.746,12.746,0,0,1-.652,1.51q-0.4.8-.962,1.786t-0.745,1.355a7.745,7.745,0,0,0-2.514-1.448,19.139,19.139,0,0,0-4.314-1.077,15.746,15.746,0,0,0,1.738-2.588,14.545,14.545,0,0,0,1.179-2.71H65.967v-8.686h4.593V181.813h9.683l0.124-1.232h-12.1l-3.1,8.07v26.92a28.481,28.481,0,0,0,8.162-2.557,20.041,20.041,0,0,0,4.811-3.542,2.4,2.4,0,0,1-.838-1.078,3.33,3.33,0,0,1-.4-1.386V205.16Zm-3.848-4.682,3.848,1.355v-0.492a0.561,0.561,0,0,0-.434-0.432,0.556,0.556,0,0,1-.435-0.431,2.077,2.077,0,0,1,.062-0.4,1.09,1.09,0,0,1,1.055-.277h5.772l0.869-.432-10.738-.123v1.232ZM93.4,185.386H78.319V186.5H93.4v-1.109Zm0,4.066H78.319v1.109H93.4v-1.109Zm0,4.065H78.319v1.109H93.4v-1.109ZM89.43,204.729a1.686,1.686,0,0,0,.838-0.277,3.856,3.856,0,0,0,.9-2.126q2.358,1.356,2.762,1.54a7.175,7.175,0,0,0,.776.308l-1.862-2.341,5.214-2.464-7.138-.123q0.123,0.124.776,0.955a8.7,8.7,0,0,1,.838,1.2q-0.5.248-1.986,0.924T88.22,203.5q-0.838.493-1.459,0.924a13.2,13.2,0,0,0-3.228-3.881v3.511c0,0.453.331,0.678,0.993,0.678h4.9Zm-3.724,11.642,2.234,1.294,1.924-1.17Zm14.338-17.125h-1.49a3.08,3.08,0,0,1,.342.216,3.888,3.888,0,0,1,.59.585q0.372,0.432.559,0.616v-1.417ZM121.4,227.521a29.154,29.154,0,0,0-6.58-4.189,25.8,25.8,0,0,0,6.393-11.519q4.47,1.17,6.952,1.971Q126.173,222.409,121.4,227.521Zm-3.476-16.509-1.117-7.146,21.227,0.308v-1.663H121.582V185.14H138.03v-1.233H114.941v-6.529h23.028v-1.417l-0.435-.678a0.5,0.5,0,0,1-.093-0.523,0.525,0.525,0,0,1,.279-0.4h8.628v2.957h23.276v6.653H146.348V185.2h16.511v17.5a47.953,47.953,0,0,1,4.345,7.331,18.951,18.951,0,0,0-7.139,1.848L159.32,209.9l-12.476.247a29.9,29.9,0,0,1,4.221,5.421,15.9,15.9,0,0,0-6.7,3.511,41.059,41.059,0,0,0-4.9-7.084l2.731-1.479Zm20.049-20.883h-8.38v1.54h8.38v-1.54Zm0,5.975h-8.38v1.479h8.38V196.1Zm11.048,24.641a3.289,3.289,0,0,0,1.21-.831,9.494,9.494,0,0,0,1.521-3.173,24.718,24.718,0,0,0,3.228,1.478,21.57,21.57,0,0,0,3.6,1.109q-0.063.309-.342,1.664a18,18,0,0,1-.652,2.4,6.6,6.6,0,0,1-.962,1.817,5.592,5.592,0,0,1-1.21,1.2,7.218,7.218,0,0,1-1.18.677,12.494,12.494,0,0,1-4.779.8l-12.786-.062a8.806,8.806,0,0,1-2.824-.492,4.686,4.686,0,0,1-3.2-4.436v-9.3a1.2,1.2,0,0,0-.155-0.493,1.894,1.894,0,0,0-.341-0.492,0.459,0.459,0,0,1-.062-0.524,0.527,0.527,0,0,1,.558-0.338h7.945v7.884a1.074,1.074,0,0,0,1.3,1.109h9.124Zm7.075-16.386-0.806-.924a11.587,11.587,0,0,1,2.234-.739l-11.11-.123V204.3Zm-1.179-14.23h-8.441v1.54h8.441v-1.54Zm0,5.975h-8.441v1.479h8.441V196.1Zm5.959,15.956q6.517,5.542,9.125,9.917a18.665,18.665,0,0,0-6.89,3.635,45.366,45.366,0,0,0-3.725-5.637,46.35,46.35,0,0,0-4.593-5.2L160.375,212Z"/>
  </g>
</svg>
