<svg id="TC" xmlns="http://www.w3.org/2000/svg" width="300" height="600" viewBox="0 0 300 600">
  <defs>
    <style>
      .cls-1 {
        fill: #4c286c;
        fill-rule: evenodd;
      }
    </style>
  </defs>
  <g id="txt1">
    <path class="cls-1" d="M73.83,157.93H65.138V140.8q-0.309.184-2.312,1.566t-3.668,2.3l-0.8.43a44.459,44.459,0,0,0-5.364-7.737,39.738,39.738,0,0,0,11.713-6.447H53.733l-0.062-7.552H70.316l0.678-1.044h-10.6v-7.062h13.07l0.246-.921H57.37V106.72H75.063a14.135,14.135,0,0,0,.185-1.9q0.061-1.29.124-1.842l8.507,0.675-0.246,3.07h20.961l-0.062,7.614H82.4l-0.247.921h19.42v7.062H79.625l-0.678,1.044H108.23v7.552H98.058a44.339,44.339,0,0,0,4.5,3.009,37.289,37.289,0,0,0,6.534,3.008q-0.555.678-1.942,2.672a40.288,40.288,0,0,0-2.928,5.127q-1.479-.8-4.377-2.733l-3.082-2.057v18.053H88.256V155.9H73.83v2.026Zm1.356-27.017-1.479,1.535H88.318L86.9,130.913H75.186Zm13.069,8.474H73.83v1.473H88.256v-1.473Zm0,8.166H73.83v1.474H88.256v-1.474Zm44.264,9.272H124.2v-51.21H161v51.148l-8.508-.061v-3.991l-19.974.061v4.053Zm19.974-43.043H132.52v11.175h19.974V113.782Zm0,19.034H132.52v11.728h19.974V132.816Z"/>
  </g>
</svg>
