<svg id="TC" xmlns="http://www.w3.org/2000/svg" width="300" height="600" viewBox="0 0 300 600">
  <defs>
    <style>
      .cls-1 {
        fill: #4c286c;
        fill-rule: evenodd;
      }
    </style>
  </defs>
  <g id="txt1">
    <path class="cls-1" d="M106.5,248.871a0.34,0.34,0,0,0-.18-0.182,0.314,0.314,0,0,1-.181-0.245,0.325,0.325,0,0,1,.085-0.149,0.455,0.455,0,0,1,.361-0.107h2.575v3.52h2.02v0.746q0.3-.49.713-1.333A27.858,27.858,0,0,0,113.054,248l2.85,0.576a16.845,16.845,0,0,1-.734,1.611q-0.521,1.035-.67,1.354h1.872a17.774,17.774,0,0,0,1.127-3.477l2.893,0.747q-0.042.086-.436,1.13a13.564,13.564,0,0,1-.669,1.557l3.445,0.043v2.773H119.01v1.237l3.382,0.021v2.6H119.01v1.237h3.382v2.645H119.01v1.131h3.85v2.708h-8.742V267h-2.787V256.955a0.778,0.778,0,0,0-.107.16,0.525,0.525,0,0,1-.212.2v1.323l-1.85.789v5.226a2.112,2.112,0,0,1-.809,1.75,8,8,0,0,1-2.786.511,4.413,4.413,0,0,0-1.085-2.9c0.1,0,.294.006,0.585,0.021s0.517,0.017.68,0.01a2.549,2.549,0,0,0,.436-0.053,0.361,0.361,0,0,0,.224-0.139,0.341,0.341,0,0,0,.095-0.2v-3.179q-0.425.15-1.914,0.6l-0.595-3.178,2.509-.511v-3.029l-2.382-.022v-2.623H106.5v-2.837Zm3.383,5.482h-0.723v0.682Zm0.085,2.048a3.327,3.327,0,0,0-.808-0.683v0.938Zm6.275-.833v-1.237h-2.127v1.237h2.127Zm0,3.84v-1.237h-2.127v1.237h2.127Zm0,3.776v-1.131h-2.127v1.131h2.127Zm19.739-14.975v6.037h3.595V249.9a0.284,0.284,0,0,0-.212-0.2,0.283,0.283,0,0,1-.213-0.224c0-.156.127-0.235,0.382-0.235h2.915V257.6h-2.872v-0.7h-3.595v6.548l4.127-.021v-4.735a0.287,0.287,0,0,0-.2-0.15,0.266,0.266,0,0,1-.2-0.234q0-.236.384-0.235l2.914-.022v8.938H140.09l0.021-1H129.029v0.959h-2.681v-8.19a0.242,0.242,0,0,0-.2-0.2,0.258,0.258,0,0,1-.2-0.245q0-.256.447-0.257h2.638l-0.022,5.376h4.042v-6.527l-3.446.021v0.662h-2.765l0.021-7.722a0.292,0.292,0,0,0-.213-0.181,0.288,0.288,0,0,1-.212-0.246,0.19,0.19,0,0,1,.117-0.17,0.536,0.536,0,0,1,.265-0.064H129.6v5.055h3.446v-5.333a0.261,0.261,0,0,0-.075-0.17,0.326,0.326,0,0,0-.159-0.107,0.209,0.209,0,0,1-.213-0.192,0.24,0.24,0,0,1,.3-0.235h3.084Z"/>
  </g>
</svg>
