<svg id="TC" xmlns="http://www.w3.org/2000/svg" width="300" height="600" viewBox="0 0 300 600">
  <defs>
    <style>
      .cls-1 {
        fill: #4c286c;
        fill-rule: evenodd;
      }
    </style>
  </defs>
  <g id="txt1">
    <path class="cls-1" d="M54.538,263.578q-0.064-.524-0.268-1.571T54,260.563l2.489-.335v-3.537h-2v-2.449h2l0.022-2.616H54.3v-2.491H61.3v2.491H59.344v2.616h1.824v2.449H59.344v3.139l2.017-.314v2.429Zm15.813,0.376q0.472,0,.6-1.947a8.775,8.775,0,0,0,2.339,1.256A6.727,6.727,0,0,1,73.044,265a2.978,2.978,0,0,1-.665,1.34,1.233,1.233,0,0,1-.869.418H68.356a1.809,1.809,0,0,1-1.212-.409,1.234,1.234,0,0,1-.482-0.973v-4.96H65.888a15.66,15.66,0,0,1-.333,2.082A4.721,4.721,0,0,1,65,263.807a7.032,7.032,0,0,1-1.084,1.3,12.4,12.4,0,0,1-2.07,1.162,9.1,9.1,0,0,1-2.22.617,12.244,12.244,0,0,0-1.652-2.657,8.537,8.537,0,0,0,2.167-.378,7,7,0,0,0,1.781-.784,2.178,2.178,0,0,0,.879-0.932,5.042,5.042,0,0,0,.365-1.716H61.619V248.842h9.7v11.575H69.364l0.022,3.244a0.3,0.3,0,0,0,.365.293h0.6Zm-5.943-11.91h4.141v-0.732H64.408v0.732Zm0,2.889h4.141V254.2H64.408v0.733Zm0,2.993h4.141v-0.733H64.408v0.733Zm12.83-3.621a0.372,0.372,0,0,0-.311-0.283,0.372,0.372,0,0,1-.311-0.3q0-.292.579-0.293h2.768v1.988l8.389,0.021,0.022-3.663-11.693-.042v-2.511H91.034v9.712h-2.66v-0.9l-8.411-.02v5.212a0.5,0.5,0,0,0,.247.449,1.112,1.112,0,0,0,.611.157l7.574-.021a11.188,11.188,0,0,0,1.3-.052,1.8,1.8,0,0,0,.708-0.24,1.705,1.705,0,0,0,.547-0.566,21.16,21.16,0,0,0,.386-2.47A8.013,8.013,0,0,0,94,261.651q0,0.084-.1.775t-0.214,1.235a4.731,4.731,0,0,1-.322.984,3.34,3.34,0,0,1-.515.8,1.982,1.982,0,0,1-.8.544,4.62,4.62,0,0,1-1.223.251q-0.816.084-2.7,0.085h-8.5a2.831,2.831,0,0,1-1.62-.5,1.53,1.53,0,0,1-.74-1.319Z"/>
  </g>
</svg>
