<svg id="TC" xmlns="http://www.w3.org/2000/svg" width="300" height="600" viewBox="0 0 300 600">
  <defs>
    <style>
      .cls-1 {
        fill: #4c286c;
        fill-rule: evenodd;
      }
    </style>
  </defs>
  <g id="txt1">
    <path class="cls-1" d="M55.54,263.593q-0.064-.523-0.268-1.57T55,260.579l2.489-.335v-3.538h-2v-2.449h2l0.022-2.616H55.3V249.15H62.3v2.491H60.346v2.616H62.17v2.449H60.346v3.14l2.017-.314v2.428Zm15.813,0.377q0.472,0,.6-1.947a8.832,8.832,0,0,0,2.339,1.256,6.718,6.718,0,0,1-.247,1.737,2.973,2.973,0,0,1-.665,1.34,1.235,1.235,0,0,1-.869.419H69.358a1.814,1.814,0,0,1-1.212-.409,1.237,1.237,0,0,1-.482-0.973v-4.961H66.891a15.69,15.69,0,0,1-.333,2.083A4.744,4.744,0,0,1,66,263.823a7,7,0,0,1-1.084,1.3,12.331,12.331,0,0,1-2.071,1.163,9.137,9.137,0,0,1-2.22.617,12.226,12.226,0,0,0-1.652-2.658,8.535,8.535,0,0,0,2.167-.377,7,7,0,0,0,1.781-.785,2.171,2.171,0,0,0,.879-0.931,5.047,5.047,0,0,0,.365-1.717H62.621V248.857h9.7v11.575H70.366l0.022,3.244a0.3,0.3,0,0,0,.365.294h0.6ZM65.41,252.06h4.141v-0.733H65.41v0.733Zm0,2.888h4.141v-0.732H65.41v0.732Zm0,2.993h4.141v-0.732H65.41v0.732Zm12.83-3.62a0.372,0.372,0,0,0-.311-0.283,0.373,0.373,0,0,1-.311-0.3q0-.293.579-0.293h2.768v1.989l8.389,0.021,0.022-3.664-11.693-.041v-2.512H92.037v9.712h-2.66v-0.9l-8.411-.021v5.213a0.5,0.5,0,0,0,.247.449,1.112,1.112,0,0,0,.611.157l7.574-.021a11.423,11.423,0,0,0,1.3-.052,1.8,1.8,0,0,0,.708-0.241,1.686,1.686,0,0,0,.547-0.566,21.173,21.173,0,0,0,.386-2.469A8.054,8.054,0,0,0,95,261.667q0,0.084-.1.775t-0.215,1.234a4.735,4.735,0,0,1-.322.985,3.36,3.36,0,0,1-.515.8,1.992,1.992,0,0,1-.8.544,4.661,4.661,0,0,1-1.223.251q-0.816.082-2.7,0.084h-8.5a2.824,2.824,0,0,1-1.62-.5,1.528,1.528,0,0,1-.74-1.318Z"/>
  </g>
</svg>
