<svg id="TC" xmlns="http://www.w3.org/2000/svg" width="300" height="600" viewBox="0 0 300 600">
  <defs>
    <style>
      .cls-1 {
        fill: #4c286c;
        fill-rule: evenodd;
      }
    </style>
  </defs>
  <path class="cls-1" d="M47.114,112.317q-0.058-.489-0.245-1.469T46.623,109.5l2.28-.313v-3.312H47.075v-2.292H48.9l0.02-2.45H46.9V98.8h6.407v2.332H51.517v2.45h1.671v2.292H51.517v2.939l1.847-.294v2.273ZM61.6,112.67q0.432,0,.55-1.822a7.973,7.973,0,0,0,2.142,1.175,6.405,6.405,0,0,1-.226,1.627,2.8,2.8,0,0,1-.609,1.254,1.12,1.12,0,0,1-.8.392h-2.89a1.64,1.64,0,0,1-1.11-.382A1.168,1.168,0,0,1,58.219,114v-4.644H57.512a14.885,14.885,0,0,1-.3,1.949,4.513,4.513,0,0,1-.511,1.225,6.584,6.584,0,0,1-.992,1.215,11.227,11.227,0,0,1-1.9,1.088,8.264,8.264,0,0,1-2.034.578,11.49,11.49,0,0,0-1.514-2.489,7.6,7.6,0,0,0,1.985-.353,6.326,6.326,0,0,0,1.631-.734,2.022,2.022,0,0,0,.806-0.872,4.825,4.825,0,0,0,.334-1.607H53.6V98.523h8.883v10.836H60.7l0.019,3.037a0.272,0.272,0,0,0,.334.274H61.6Zm-5.444-11.149h3.794v-0.686H56.155v0.686Zm0,2.7h3.794v-0.686H56.155v0.686Zm0,2.8h3.794v-0.686H56.155v0.686Zm11.753-3.39a0.344,0.344,0,0,0-.285-0.264,0.347,0.347,0,0,1-.285-0.284c0-.183.178-0.275,0.531-0.275H70.4v1.862l7.684,0.019,0.019-3.429L67.4,101.227V98.876H80.545v9.092H78.108v-0.843l-7.7-.019v4.879a0.473,0.473,0,0,0,.225.421,1.009,1.009,0,0,0,.56.147l6.937-.02a9.983,9.983,0,0,0,1.19-.049,1.629,1.629,0,0,0,.648-0.225,1.574,1.574,0,0,0,.5-0.529,20.156,20.156,0,0,0,.353-2.312,7.314,7.314,0,0,0,2.437,1.1q0,0.078-.088.725t-0.2,1.156a4.435,4.435,0,0,1-.295.921,3.166,3.166,0,0,1-.471.745,1.84,1.84,0,0,1-.737.509,4.165,4.165,0,0,1-1.12.235q-0.747.078-2.476,0.078H70.09a2.546,2.546,0,0,1-1.484-.47,1.439,1.439,0,0,1-.677-1.234ZM88.033,98.8a0.314,0.314,0,0,0-.167-0.166,0.291,0.291,0,0,1-.168-0.226,0.3,0.3,0,0,1,.079-0.137,0.421,0.421,0,0,1,.334-0.1H90.49V101.4h1.867v0.686q0.275-.45.658-1.224a25.217,25.217,0,0,0,1.072-2.871l2.633,0.529a15.421,15.421,0,0,1-.678,1.48q-0.482.949-.619,1.244h1.729a16.323,16.323,0,0,0,1.041-3.194l2.674,0.686q-0.04.079-.4,1.039a12.474,12.474,0,0,1-.618,1.431l3.183,0.039v2.547H99.589v1.136l3.125,0.02v2.391H99.589v1.136h3.125v2.43H99.589v1.038h3.558v2.489H95.069v1.019H92.494v-9.23a0.714,0.714,0,0,0-.1.148,0.5,0.5,0,0,1-.2.186v1.215l-1.71.725v4.8a1.934,1.934,0,0,1-.747,1.607,7.394,7.394,0,0,1-2.575.47,4.051,4.051,0,0,0-1-2.665c0.091,0,.271.007,0.54,0.02s0.478,0.016.63,0.01a2.415,2.415,0,0,0,.4-0.049,0.334,0.334,0,0,0,.206-0.127,0.321,0.321,0,0,0,.089-0.187v-2.919q-0.394.137-1.77,0.548l-0.549-2.919,2.319-.47v-2.783l-2.2-.019V101.4h2.2V98.8Zm3.124,5.035H90.49v0.627Zm0.079,1.881a3.1,3.1,0,0,0-.747-0.627v0.863Zm5.8-.764v-1.136H95.069v1.136h1.965Zm0,3.527v-1.136H95.069v1.136h1.965Zm0,3.468v-1.038H95.069v1.038h1.965ZM115.272,98.19v5.545H118.6v-4a0.265,0.265,0,0,0-.2-0.186,0.261,0.261,0,0,1-.2-0.205c0-.144.118-0.216,0.354-0.216h2.692v7.681H118.6v-0.647h-3.323v6.016l3.814-.02v-4.35a0.265,0.265,0,0,0-.187-0.137,0.245,0.245,0,0,1-.187-0.216c0-.143.118-0.215,0.354-0.215l2.693-.02v8.21h-2.693l0.02-.921h-10.24v0.882H106.37v-7.525a0.222,0.222,0,0,0-.187-0.185,0.238,0.238,0,0,1-.187-0.226c0-.156.138-0.235,0.413-0.235h2.437l-0.019,4.938h3.734v-6l-3.185.02v0.607h-2.554l0.02-7.093a0.274,0.274,0,0,0-.2-0.166,0.266,0.266,0,0,1-.2-0.225,0.175,0.175,0,0,1,.109-0.157,0.5,0.5,0,0,1,.246-0.059h2.573v4.644h3.185v-4.9a0.24,0.24,0,0,0-.069-0.157,0.294,0.294,0,0,0-.148-0.1,0.194,0.194,0,0,1-.2-0.177,0.221,0.221,0,0,1,.275-0.215h2.849ZM58.653,145.482q-2.458.3-9.295,0.478l-1.349-2.212a87.127,87.127,0,0,0,11.423-.538,45.339,45.339,0,0,0,9.985-2.063l1.259,1.705a40.308,40.308,0,0,1-9.685,2.361v4.424h8.546v2.183H60.991v4.573l11-.03v2.182H60.962v7.145q0,2.391-2.129,2.391H54.695l-0.839-2.451q3,0.269,3.778.239A1.184,1.184,0,0,0,58.4,165.6a1.025,1.025,0,0,0,.255-0.777v-6.278H47.2l-0.03-2.152H58.653l0.03-4.573H49.688l-0.03-2.183h8.995v-4.155Zm33.311-4.035,2.279,0.029q0,6.517.75,15.216H98.05a17.688,17.688,0,0,0-2.129-1.584l1.14-.987-1.44.269L94.782,152.6a23.066,23.066,0,0,0,3.239-4.006l-2.519.6-1.049-1.7q0.959-1.286,2.039-3.034a22.819,22.819,0,0,0,1.619-3.034l1.919,1.255a24.528,24.528,0,0,1-2.639,3.976l1.92-.239q0.209-.3,1.289-2.122l1.769,1.016a29.077,29.077,0,0,1-4.557,6.606l2.039-.3-0.54-1.2,1.679-.777a16.325,16.325,0,0,1,1.859,4.843l-1.949.717a7.688,7.688,0,0,0-.45-1.644l-2.638.359q0.359,0.24,1.169.837a17.724,17.724,0,0,1,1.738,1.5l-0.359.448h2.218v2.092H95.352a16.324,16.324,0,0,0,1.109,3.169,29.9,29.9,0,0,0,3.628-2.9l1.5,1.435a39.584,39.584,0,0,1-3.928,3.2,8.389,8.389,0,0,0,1.859,1.465,0.927,0.927,0,0,0,.719.1,0.617,0.617,0,0,0,.389-0.493l0.63-3.2,2.189,0.9a21.281,21.281,0,0,1-1.139,3.8,2.28,2.28,0,0,1-1.619,1.406,3.325,3.325,0,0,1-2.249-.539,13.159,13.159,0,0,1-2.729-2.212,25.527,25.527,0,0,1-3.283,1.465,26.426,26.426,0,0,1-3.822,1.076l-1.11-2.032a19.742,19.742,0,0,0,6.986-2.242,14.791,14.791,0,0,1-1.379-4.4H89.085l-0.18,1.136a16.162,16.162,0,0,1,4.107,2.571l-1.229,1.734a12.423,12.423,0,0,0-3.389-2.212,12.065,12.065,0,0,1-4.047,5.53l-1.648-1.7a10.629,10.629,0,0,0,1.829-1.674,8.9,8.9,0,0,0,1.528-2.466,10.745,10.745,0,0,0,.78-2.915H83.449v-2.092h3.477v-1.7h2.219v1.7h3.629l-0.15-1.7-1.859.568-0.54-1.614-4.407.657-0.9-1.614a26.964,26.964,0,0,0,3.268-4.334l-2.488.567-0.75-1.524v1.584H82.489v2.452l0.569-.539a17.677,17.677,0,0,1,2.819,4.126l-1.619,1.255a23.276,23.276,0,0,0-1.769-3.049v14.558H80.241v-11.9a34.107,34.107,0,0,1-2.459,4.842l-2.069-1.106a28.03,28.03,0,0,0,4.437-10.642h-3.3v-2.092l3.389,0.03v-5.769h2.249v5.769h2.518a26.444,26.444,0,0,0,3.178-5.62l1.949,1.106a26.727,26.727,0,0,1-2.428,4.065l1.679-.3q0.63-1.167,1.02-2.093l1.679,0.9Zm0.15,4.184a30.064,30.064,0,0,1-4.438,6.667l2.009-.269-0.6-1.076,1.829-.808a21.339,21.339,0,0,1,.87,2.033q0.449,1.2.689,2.063Q92.114,149.279,92.114,145.631ZM120.6,157.648q-0.24-.387-0.855-1.21a17.571,17.571,0,0,0-1.468-1.7q-0.855-.882-1.335-1.3l1.679-1.673a24.736,24.736,0,0,1,4.108,3.826Zm36.609-16.022a21.069,21.069,0,0,1-.45,5.172h5.728v2.182h-1.44a31.665,31.665,0,0,1-2.609,11.657,14.582,14.582,0,0,0,2.024,3.154,15.526,15.526,0,0,0,2.893,2.706l-1.559,1.644a16.4,16.4,0,0,1-4.556-5.291,21.8,21.8,0,0,1-1.845,2.705,19.643,19.643,0,0,1-2.5,2.526l-1.5-1.525a13.8,13.8,0,0,0,2.294-2.2,23.452,23.452,0,0,0,2.444-3.723,37.211,37.211,0,0,1-1.889-6.875q-0.15.21-.525,0.792a8.078,8.078,0,0,1-.554.792l-1.2-.806v2.869h-7.076l1.29,0.568-0.45.807,8.065,0.03v2.093l-3.627-.03a8.148,8.148,0,0,1-2.279,2.959q0.958,0.42,3.358,1.7l-1.26,1.823q-0.21-.119-0.809-0.463t-1.739-.927q-1.14-.582-1.439-0.732a20.322,20.322,0,0,1-8.665,2.87l-0.93-2.063a20.244,20.244,0,0,0,6.956-1.644,17.317,17.317,0,0,0-4.408-.747q1.17-1.136,1.755-1.734a6.866,6.866,0,0,0,.854-1.016h-4.587l0.03-2.093,6.056-.03,0.9-1.375h-5.187v-4.872h5.4V151.52l-5.428.031v-3.319h-2.128l-0.029-2.032h2.157v-2.99h5.428v-1.973l2.249-.03,0.029,2h5.428l0.029,2.99h1.8v2.032h-1.8l-0.029,3.319-5.457-.031,0.029,1.017h5.517v0.627a13.869,13.869,0,0,0,2.429-5.245,31.3,31.3,0,0,0,.779-6.772Zm-16.28,3.468L140.9,146.2h3.269v-1.077Zm-0.031,3.138,0.031,1.375,3.238,0.03v-1.405H140.9Zm3.269,7.324,0.029-1.2-3.237.03v1.166h3.208Zm1.648,7.413a7.36,7.36,0,0,0,1.89-2.062l-3.448-.03-1.17,1.375Zm3.929-14.737h-3.3l-0.029,1.435,3.328-.03v-1.405Zm0.059,6.158h-3.387l0.029,1.166H149.8V154.39Zm-3.358-9.3V146.2h3.3v-1.106h-3.3Zm9.895,3.855c-0.04.12-.135,0.395-0.285,0.823s-0.255.752-.315,0.971q0.119,0.569.359,2.063t0.465,2.466q0.225,0.972.42,1.614t0.345,1.061a38.52,38.52,0,0,0,1.08-3.931,28.068,28.068,0,0,0,.539-5.067h-2.608Zm16.071,16.681a2.243,2.243,0,0,1-.375,1.315,2.564,2.564,0,0,1-1.245.867,3.744,3.744,0,0,1-.989.224q-0.51.045-1.154,0.045h-0.914l-0.96-2.152q1.319,0.088,2.578.09a0.719,0.719,0,0,0,.57-0.24,0.876,0.876,0,0,0,.21-0.6v-7.054l-2.759,1.166-1.379-1.734,4.107-1.794V149.4H167.01l-0.029-2.152h3.148l-0.031-5.829h2.249l0.03,5.8h2.459V149.4h-2.428v5.381l2.488-1.106v2.3l-2.519,1.105Zm17.3-13.81v1.793h-6.356a2.121,2.121,0,0,1-1.184-.389,1.963,1.963,0,0,1-.795-0.956,3.832,3.832,0,0,1-.18-1.106l-3.028.389-0.03-2,2.938-.238,0.031-1.286h-3.448l-0.031,9.267a17.275,17.275,0,0,1-3.448,10.851l-1.948-1.375a12.1,12.1,0,0,0,2.338-4.275,26.193,26.193,0,0,0,.81-7.533v-9.117h5.7l0.031-4.484h2.248v1.614l6.867,0.03v1.793l-6.867.031v1.016h9a12.213,12.213,0,0,1-.254,1.48q-0.2.851-1.035,3.332l-2.039-.478c0.02-.079.064-0.244,0.135-0.493s0.174-.572.315-0.971,0.22-.638.239-0.718h-6.326v1.076l5.008-.478v1.883l-5.008.508a0.672,0.672,0,0,0,.779.807Zm2.039,14.318q-2.668-1.226-3.6-4.9l-0.509.3a11.452,11.452,0,0,1,.359,4.08,2.5,2.5,0,0,1-1.229,1.9,3.768,3.768,0,0,1-1.169.374,8.4,8.4,0,0,1-1.709.045c-0.7-.041-1.079-0.06-1.14-0.06L182,165.779q0.48,0.03,1.754.254a3.652,3.652,0,0,0,1.934-.045,1.037,1.037,0,0,0,.375-0.538,5.662,5.662,0,0,0-.045-2.062,25.01,25.01,0,0,1-3.508,1.913,24.192,24.192,0,0,1-4.078,1.285l-1.319-1.644a28.493,28.493,0,0,0,4.407-1.18,15.306,15.306,0,0,0,3.958-2.258l-0.36-.747a19.555,19.555,0,0,1-3.388,1.674,25.625,25.625,0,0,1-3.148.927l-1.319-1.674a28.5,28.5,0,0,0,3.9-1.047,12.582,12.582,0,0,0,2.939-1.464c-0.021-.02-0.09-0.1-0.21-0.254a1.506,1.506,0,0,0-.27-0.284,25.891,25.891,0,0,1-4.708,1.2l-1.2-1.793a19.245,19.245,0,0,0,6.477-1.7l-5.787-.06v-1.942h13.313l-0.031,1.942-3.987.03c-0.06.06-.2,0.175-0.42,0.344s-0.84.543-1.859,1.121a9.808,9.808,0,0,1,1.409,1.794,7.08,7.08,0,0,0,1.709-1.047,13.447,13.447,0,0,0,1.649-1.554l1.53,1.494q-0.242.3-.556,0.643a14.692,14.692,0,0,1-1.244,1.121,6.171,6.171,0,0,0,1.065,2.511,6.257,6.257,0,0,0,2.234,1.913Zm9.954-.119a23.053,23.053,0,0,0,8.575-4.245,22.911,22.911,0,0,1-3.208-4.051,27.109,27.109,0,0,1-2.308-4.8q-0.42,6.487-1.709,9.357a23.18,23.18,0,0,1-3.808,5.829q-0.48-.24-1.424-0.807t-1.005-.6a14.711,14.711,0,0,0,4.618-7.473q0.208-.927.434-2.481t0.405-4.9q0.21-3.8.12-6.457h-4.018v-2.271h19.1v1.973q-1.288,1.943-3.9,5.35h5.937a15.733,15.733,0,0,1-1.888,6.218,25.208,25.208,0,0,1-3.809,5.022,25.423,25.423,0,0,0,8.875,4.185l-1.408,2.152a27.3,27.3,0,0,1-9.265-4.693,22.308,22.308,0,0,1-8.845,4.693Zm3.239-19.252q0.36,1.257.959,2.99A48.729,48.729,0,0,0,208,154.6a17.862,17.862,0,0,0,1.335,2.332,27.155,27.155,0,0,0,2.772,3.228,20.5,20.5,0,0,0,2.789-3.542,15.562,15.562,0,0,0,1.859-3.931h-6.387v-2q2.58-3.23,3.958-5.292h-9.384v1.375ZM49.718,179.938v2.81l-2.249.03-0.03-5.022H58.293V176.68H48.969v-2.153H69.926L69.9,176.68H60.571v1.076H71.305l0.03,4.782-2.279.031v-2.631l-8.485.03v5.978H58.293l0.029-6.008h-8.6ZM60.571,195.99a0.648,0.648,0,0,0,.24.508,1.173,1.173,0,0,0,.78.209h7.585a0.853,0.853,0,0,0,.675-0.343,2.076,2.076,0,0,0,.405-0.762q0.18-.777.45-2.661l2.159,0.718a10.936,10.936,0,0,1-1.26,4.2,2.23,2.23,0,0,1-1.858,1.032H60.6a2.343,2.343,0,0,1-1.44-.4,1.839,1.839,0,0,1-.7-1,4.265,4.265,0,0,1-.165-1.136l0.029-1.285-8.905.03v-8.61l20.089,0.03v8.58l-8.935-.03v0.926Zm-3.178-13.212H50.407V180.8h6.986v1.974Zm0.03,0.867-0.03,1.943H50.438l-0.03-1.943h7.017ZM51.666,188.7v1.046h6.656l-0.029-1.076Zm6.627,4.214,0.029-1.225H51.666v1.225h6.627Zm8.934-3.168,0.03-1.106-6.687.06v1.046h6.656Zm0.03,1.972-6.687-.029v1.225h6.656ZM61.441,180.8h7.106v1.974l-7.076.03Zm7.076,2.841,0.03,1.943H61.471v-1.943h7.046Zm19.34,13.87a1.056,1.056,0,0,0,.884-0.4,1.574,1.574,0,0,0,.314-1v-8.759H77.572v-2.212H89.055l0.03-2.989a34.934,34.934,0,0,0,3.029-2.242,24.034,24.034,0,0,0,3.148-3.049h-14v-2.212l17.27,0.03v1.674a30.039,30.039,0,0,1-3.373,3.8,27.924,27.924,0,0,1-3.823,3.108v1.883h10.914v2.212H91.334l-0.03,9.955a2.039,2.039,0,0,1-.434,1.24,2.585,2.585,0,0,1-.945.823,3.51,3.51,0,0,1-1.469.3q-1.079.06-3.3,0l-1.709-2.152h4.408Zm20.209,2.421V179.579h4.077V176.5h-5.727v-2.182h15.891V176.5h-4.438v3.079h3.9v20.357H119.4v-2.182h-9.025v2.182h-2.308Zm9.563-10.582a2.417,2.417,0,0,1-1.363-.762,2.18,2.18,0,0,1-.674-1.6v-5.141h-1.14a24.507,24.507,0,0,1-.585,4.574,10.1,10.1,0,0,1-1.019,2.526,18.037,18.037,0,0,1-1.244,1.838l-1.259-.717v1.255H119.4v-1.973h-1.77Zm-7.284-7.5v6.816a10.738,10.738,0,0,0,1.228-2.482,15.731,15.731,0,0,0,.57-4.334h-1.8Zm0.029,11.658v2.063h9.115v-2.063h-9.115Zm5.218-13.84V176.5H114.42v3.169h1.171Zm3.807,2.182h-1.619v4.962a1.451,1.451,0,0,0,.15.239,0.722,0.722,0,0,0,.285.21,1.19,1.19,0,0,0,.42.1,3.824,3.824,0,0,0,.479,0c0.17-.01.264-0.015,0.285-0.015v-5.5ZM133.1,192.7q-0.12,1.167-.809,4.245a2.5,2.5,0,0,1-.66,1.181,2.173,2.173,0,0,1-1.26.7h-4.377a2.251,2.251,0,0,1-1.08-.314,2.886,2.886,0,0,1-1.349-2.256v-12.7h5.547V176.5h-6.176v-2.182h8.425v13.033h-2.249v-1.614h-3.178V196.05q0,0.717,1.139.718h2.489a0.876,0.876,0,0,0,.54-0.762,15.868,15.868,0,0,0,.464-2.288q0.227-1.524.255-1.763Zm2.848-5.5a30.82,30.82,0,0,0,6.687-14.17l2.158,0.449a36.437,36.437,0,0,1-1.859,6.785v19.641l-2.308.029v-15.4q-0.81,1.286-2.729,4.036Zm8.1,2.122,0.03-2.272h8.335l0.029-5.919-4.047-.029a28.012,28.012,0,0,1-2.608,4.813l-2.1-1.047a18.883,18.883,0,0,0,2.564-4.529,21.775,21.775,0,0,0,1.273-5.216l2.07,0.658a14.184,14.184,0,0,1-.45,3.079l3.268-.03,0.029-5.919,2.4,0.03v5.889l6.206,0.03v2.271l-6.206-.029v5.948l8.245-.03v2.272l-8.245.03-0.031,10.433h-2.4l0.029-10.433h-8.394ZM49.538,207.131l8.935-.03a12.8,12.8,0,0,0,.389-2.3l2.189,0.479a15.4,15.4,0,0,1-.27,1.854h9.235v2.181H60.3l-0.45,1.436h8.186l0.029,2.151H58.923l-0.9,1.705H72l0.029,2.151H66q2.069,2.811,7.5,4.514l-1.23,2.033a15.159,15.159,0,0,1-2.219-.837,16.263,16.263,0,0,1-2.7-1.525l-0.03,10.792-2.428-.03v-1.794H54.845v1.913l-2.429-.029,0.03-11.3a19.261,19.261,0,0,1-2.353,1.5,17.663,17.663,0,0,1-2.534,1.165L46,221.33q1.319-.569,2.879-1.421a25.483,25.483,0,0,0,2.713-1.688,11.5,11.5,0,0,0,1.724-1.466H47.59v-2.181h7.645a10.416,10.416,0,0,0,1.14-1.675H51.607l-0.03-2.151h5.787a12.324,12.324,0,0,0,.63-1.436l-8.455-.03v-2.151Zm15.142,11.657a10.974,10.974,0,0,1-1.619-2.033l-6.567.03a22.493,22.493,0,0,1-1.829,2H64.679Zm0.18,4.335V220.94l-10.014.031v2.152H64.859Zm-10.014,2.122v2.482H64.859l0.03-2.482H54.845ZM98.26,207.489v23.167l-2.4-.03-0.03-2.84H84.109v2.989l-2.369-.03,0.029-23.256H98.26Zm-14.122,8.878,11.724-.03V209.7H84.109Zm11.753,2.183H84.109l0.029,7.024H95.862Zm17.871-3.8a11.454,11.454,0,0,1,1.933,2.331,6.009,6.009,0,0,1,.855,2.317,7.132,7.132,0,0,1-.061,2.257,3.89,3.89,0,0,1-.929,1.794,3.552,3.552,0,0,1-1.619,1.136,5.728,5.728,0,0,1-2.908.089l-0.54-2.481q1.439,0.3,1.754.344a2.366,2.366,0,0,0,.584.015,1.7,1.7,0,0,0,.481-0.12,1.646,1.646,0,0,0,.329-0.179,1.955,1.955,0,0,0,.614-0.942,3.04,3.04,0,0,0,.016-1.629,8.74,8.74,0,0,0-3.059-4.544q2.04-4.722,2.639-6.665l-3.748-.031v23.317l-2.219.059-0.029-25.587h8.425v2.211Zm17.629,16.919a11.9,11.9,0,0,1-4.438-3.108,14.568,14.568,0,0,1-3-4.574,17.063,17.063,0,0,1-1.08-4.783l-3.117.03-0.03,9q0.659-.329,2.5-1.046t2.114-.838v2.272l-6.416,2.81q-0.061-.03-0.765-0.583t-1.124-.912a3.285,3.285,0,0,0,1.019-.777,1.924,1.924,0,0,0,.42-1.316V206.323h12.682l0.03,12.824-5.067.03a22.137,22.137,0,0,0,.435,2.391,10.42,10.42,0,0,0,.735,1.913l4.347-3.826,1.709,1.555q-0.48.448-1.484,1.33t-3.612,2.8a9.192,9.192,0,0,0,2.293,2.585,12.578,12.578,0,0,0,3.223,1.869Zm-11.633-20.118h8.155v-3.078h-8.155v3.078Zm8.125,2.153-8.125.03v3.288l8.065-.06Zm27.344,16.5a21.411,21.411,0,0,1-5.771-.329,12.317,12.317,0,0,1-5.082-2l-2.1-1.7a15.816,15.816,0,0,1-4.587,5.649,12.66,12.66,0,0,1-1-.986q-0.615-.657-0.854-0.9a13.306,13.306,0,0,0,1.844-1.39A10.332,10.332,0,0,0,139.5,226.4a8.562,8.562,0,0,0,1.153-2.586,26.28,26.28,0,0,0,.57-5.291h2.339a32.755,32.755,0,0,1-.51,5.291,14.778,14.778,0,0,0,1.784,1.659,11.822,11.822,0,0,0,2.039,1.361,6.39,6.39,0,0,0,1.544.6l0.06-11.269h-7.676l0.06-2.153,17.541-.059v2.212l-7.677.03-0.089,4.424,9.355-.03v2.182l-9.266.03v5.022l3.839,0.12h8.6L162,230.207h-6.776Zm-7.5-25.618a16.292,16.292,0,0,1,2.249,1.48,21.243,21.243,0,0,1,2.069,1.779l-0.719.478,10.313,0.06-0.029,5.948h-2.309l0.06-3.677-19.309-.059v3.557h-2.308l0.029-5.769H149.35a13.983,13.983,0,0,0-3.658-2.631ZM169.709,232V217.443a16.9,16.9,0,0,1-2.188,2.84l-2.039-1.315a22.779,22.779,0,0,0,3.927-6.114,38.077,38.077,0,0,0,2.638-8l2.069,0.777q-0.33,1.4-.989,3.557t-1.169,3.557V232h-2.249Zm10.434-8.609a4.582,4.582,0,0,1-.33.717l9.024,0.03v1.614a21.272,21.272,0,0,1-1.723,1.7,9.4,9.4,0,0,1-1.694,1.255,16.538,16.538,0,0,0,3.448.808,22.78,22.78,0,0,0,4.318.239l-1.11,2a23.525,23.525,0,0,1-8.934-1.854,25.719,25.719,0,0,1-9.445,1.974l-0.96-2a23.069,23.069,0,0,0,8.185-1.195,9.534,9.534,0,0,1-2.608-2.511,11.764,11.764,0,0,1-1.844,1.48,10.7,10.7,0,0,1-1.694.822l-1.469-1.495a8.687,8.687,0,0,0,5.187-4.514l0.629,0.329-0.24-.627a5.155,5.155,0,0,1-.09-1.241q0-.97-0.029-1.271l1.738-.03v1.435a0.539,0.539,0,0,0,.136.494,0.66,0.66,0,0,0,.524.223H185a0.579,0.579,0,0,0,.525-0.254,1.481,1.481,0,0,0,.21-0.627c0.03-.249.054-0.524,0.075-0.823l0.9,0.3,1.919-.926a3.87,3.87,0,0,1,.989.688v-1.166h-6.355a6.828,6.828,0,0,1,2.039,1.375l-1.56,1.2q-0.24-.18-0.87-0.643c-0.419-.309-0.82-0.583-1.2-0.823a5.83,5.83,0,0,0-1.319-.6l0.569-.508L175.5,219v1.764h-2.159v-3.706h2.248v-7.773h5.728l0.449-.837h-7.8v-1.913h18.59v1.913l-8.605-.03-0.27.867h5.757v7.773h2.368l-0.03,3.437H190.1a11.993,11.993,0,0,1,1.678,2.122l-1.558,1.076a9.292,9.292,0,0,0-2.88-2.809,3.545,3.545,0,0,1-.734,1.794,1.867,1.867,0,0,1-1.514.717h-4.947Zm-1.739-2.661a10.073,10.073,0,0,1-3.568,3.139l-1.529-1.644a10.488,10.488,0,0,0,1.694-.9,9.473,9.473,0,0,0,1.9-1.734Zm-0.57-8.7,9.385,0.029V211.2l-9.385-.029v0.867Zm0,1.644v0.867h9.385v-0.867h-9.385Zm9.385,3.378v-0.838h-9.385v0.838h9.385Zm-6.476,8.938a3.29,3.29,0,0,0,.629.583q0.39,0.283.959,0.657t0.75,0.494q0.33-.12.69-0.27a5.646,5.646,0,0,0,.734-0.373q0.375-.224.87-0.569c0.329-.228.555-0.383,0.675-0.463Zm15.231,1.673a11.947,11.947,0,0,0,6.117-3.736q1.287,0.957,1.619,1.255a9.949,9.949,0,0,1-2.564,2.571,12.888,12.888,0,0,1-3.4,1.734Zm12.563-8.519-7.916.03V210.12l7.916,0.029v-1.016l-11.693-.03,0.029-2.152h11.664V204.53h2.308v2.391l11.723,0.03V209.1H210.845v1.046l8.006,0.03-0.031,8.968h-0.629a12.3,12.3,0,0,1,4.077,3.677l-2.008,1.315a13.139,13.139,0,0,0-1.379-1.734q-4.168.18-9.565,0.18,0.15,0.088.794,0.463t1.2,0.762a6.505,6.505,0,0,1,1.049.927,9.931,9.931,0,0,1,.78.941c0.189,0.27.315,0.454,0.375,0.554l-1.949,1.315a10.051,10.051,0,0,0-4.378-3.8l1.56-1.046q-5.879.06-10.824,0.209l-1.23-2.3q2.04,0.03,11.844-.06v-1.405Zm0-5.71v-1.166H202.96v1.166h5.577Zm0,2.123H202.96v1.405h5.577V215.56Zm-1.859,8.31v3.737a1,1,0,0,0,.255.508,1.115,1.115,0,0,0,.494.359h5.907a1.759,1.759,0,0,0,.4-0.209,1.011,1.011,0,0,0,.36-0.494,6.449,6.449,0,0,0,.271-1.165,8.567,8.567,0,0,1,.254-1.182,19.692,19.692,0,0,1,2.159.9c-0.041.159-.105,0.472-0.2,0.941s-0.175.837-.255,1.106a5.431,5.431,0,0,1-.315.808,2.67,2.67,0,0,1-.524.731,2.365,2.365,0,0,1-.75.508,8.719,8.719,0,0,1-3.058.21h-4.828a2.673,2.673,0,0,1-1.379-.6,3.444,3.444,0,0,1-.959-1.2,7.179,7.179,0,0,1-.24-1.734V223.87h2.4Zm9.445-3.527a8.414,8.414,0,0,1-1.47-.688l0.749-.448-4.557-.06-0.03,1.286Zm-5.278-6.906h5.637v-1.166h-5.637v1.166Zm0.031,3.528h5.577V215.59h-5.577v1.375Zm10.7,13.153a12.971,12.971,0,0,0-5.456-4.663l1.709-1.286a12.726,12.726,0,0,1,3.432,2.033,11.772,11.772,0,0,1,2.2,2.541ZM233.9,205.755q-0.12.6-.329,1.39t-0.511,1.674q-0.3.883-.7,1.884t-0.435,1.121l0.03,20.087h-2.279V216.278a11.182,11.182,0,0,1-.929,1.344q-0.69.9-1.5,1.765l-1.859-1.615a22.982,22.982,0,0,0,4.047-5.62,27.619,27.619,0,0,0,2.489-7.025Zm8.305,23.436a20.685,20.685,0,0,1-7.856,2.75l-1.139-2.152a18.34,18.34,0,0,0,7.736-2.092Zm9.265-19.55,0.03,5.65-17.24.03-0.03-5.68h5.007v-1.106h-5.4V206.5h19.069v2.033l-6.446-.029v1.165Zm-16.041,17.876v-11.27h14.842l-0.03,11.27H235.431Zm1.11-14.08h2.668l0.03-1.793-2.729-.029Zm1.139,5.86h10.314V218.16H237.71Zm10.314,3.049v-1.107l-10.314-.029v1.136h10.314Zm0,3.257v-1.284H237.71V225.6h10.284Zm-6.536-15.962h2.758v-1.135l-2.758.029v1.106Zm0,2v1.793h2.788v-1.822Zm10.284,20.267a20.78,20.78,0,0,0-7.975-2.3l1.169-1.854A23.471,23.471,0,0,1,253,229.938Zm-5.277-20.267v1.793h2.759v-1.822Z"/>
</svg>
