<svg id="TC" xmlns="http://www.w3.org/2000/svg" width="300" height="250" viewBox="0 0 300 250">
  <defs>
    <style>
      .cls-1 {
        fill: #248700;
        fill-rule: evenodd;
      }
    </style>
  </defs>
  <path id="立即登記" class="cls-1" d="M226.6,227.971v0.836h8.3v-0.848l-3.954-.011,0.608-.435a4.381,4.381,0,0,0-1.937-1.685l-0.733.6a3.264,3.264,0,0,1,.613.292,3.465,3.465,0,0,1,.665.527,4.982,4.982,0,0,1,.59.716Zm3.609,5.809a9.048,9.048,0,0,0-.6-2.606,6.58,6.58,0,0,0-1.283-2.195l-0.8.39a4.965,4.965,0,0,1,.842,1.232,9.5,9.5,0,0,1,.619,1.638,10.558,10.558,0,0,1,.349,1.805Zm5.237,0.7h-3.816a10.585,10.585,0,0,0,.968-1.713,11.179,11.179,0,0,0,.659-1.833,15.744,15.744,0,0,0,.332-1.564L232.715,229a12.6,12.6,0,0,1-.733,2.962,10.259,10.259,0,0,1-1.375,2.515h-4.526v0.848h9.362v-0.848Zm4.8-1.822q0.5,0.54.721,0.825l-2.039.951,0.023-2.612,3.254-.012V226.5h-4.159v7.872a0.709,0.709,0,0,1-.086.384,0.856,0.856,0,0,1-.338.258l0.767,0.653q1.455-.79,3.071-1.49a7.848,7.848,0,0,1,.7,1.352q0.114-.033.779-0.332a7.219,7.219,0,0,0-.808-1.53A9.25,9.25,0,0,0,241,232.256Zm-1.307-5.305h2.384v1.341l-2.372.011Zm2.384,2.189v1.421h-2.4l0.023-1.421h2.372Zm3.472,4.789h0.538a3.123,3.123,0,0,0,.722-0.068,1.133,1.133,0,0,0,.5-0.39,0.809,0.809,0,0,0,.149-0.435V226.6l-3.689.011V236.3H243.9l0.011-8.846h1.9l0.012,5.558a0.417,0.417,0,0,1-.2.435,2.546,2.546,0,0,1-.607.04l-0.459-.006Zm12.569-6.943a6.5,6.5,0,0,1-1.294,1.386,0.194,0.194,0,0,1-.081-0.069c-0.03-.038-0.145-0.187-0.343-0.447a4.459,4.459,0,0,0,.658-0.624,9.114,9.114,0,0,0,.636-0.808c-0.328-.267-0.55-0.439-0.664-0.516a5.546,5.546,0,0,1-1.031,1.2,10.81,10.81,0,0,1-.711-1.639l-0.733.355a10.215,10.215,0,0,0,.636,1.559,6.026,6.026,0,0,0,.75,1.26h-2.761a4.255,4.255,0,0,0,1-2.486l-4.045-.012,0.011,0.837h2.98a3.63,3.63,0,0,1-.413.847,4.114,4.114,0,0,1-.6.734,5.333,5.333,0,0,0-.647-0.67,3.6,3.6,0,0,0-.6-0.442l-0.584.585a6.5,6.5,0,0,1,.928.733,2.964,2.964,0,0,1,.275.344,8.772,8.772,0,0,1-2.166,1.295l0.608,0.687a9.068,9.068,0,0,0,2.841-1.982l0.012,0.366H255.5l0.023-.492a6.176,6.176,0,0,0,1.2,1.209,10.964,10.964,0,0,0,1.61,1l0.55-.71a7.693,7.693,0,0,1-2.235-1.5,5.992,5.992,0,0,0,1.375-1.513Zm-0.779,6.05v-2.716h-5.672l-0.011,2.716,1.18,0.022-0.687.333a5.041,5.041,0,0,1,.939,1h-3.265v0.825H258.4l-0.011-.837-3.106.012a4.59,4.59,0,0,0,.608-0.894l-0.745-.424a4.194,4.194,0,0,1-1,1.318h-0.962a5.077,5.077,0,0,0-.952-1.352h4.343Zm-0.894-1.891,0.012,1.066h-3.907v-1.055ZM264.1,236.1v-3.884h-3.323l-0.012,3.907,0.86-.012v-0.87h1.6V236.1H264.1Zm-0.86-1.684h-1.6l-0.011-1.375h1.6Zm-0.641-6.818,0.378-.184a3.608,3.608,0,0,0-.55-0.859,5.377,5.377,0,0,0-.733-0.71l-0.711.469a4.7,4.7,0,0,1,1.112,1.307h-2.04v0.825l4.595,0.011,0.011-.836Zm2.28,2.589v4.309a1.737,1.737,0,0,0,.126.641,1,1,0,0,0,.35.476,0.839,0.839,0,0,0,.487.155H268.9a0.988,0.988,0,0,0,.55-0.184,1.4,1.4,0,0,0,.424-0.424,1.561,1.561,0,0,0,.195-0.424c0.007-.053.036-0.175,0.086-0.366s0.084-.35.1-0.476,0.032-.238.04-0.338l-0.882-.332a5.824,5.824,0,0,1-.184,1.363,0.516,0.516,0,0,1-.16.235,0.37,0.37,0,0,1-.241.1h-2.658a0.32,0.32,0,0,1-.275-0.149,0.535,0.535,0,0,1-.1-0.31l-0.012-3.426H268.5v0.619h0.928l-0.011-5-4.779.012v0.848H268.5v2.669h-3.621Zm-0.653-1.145h-3.69l0.012,0.825h3.666Zm0.011,1.524h-3.666l-0.012.836h3.678v-0.836Z"/>
</svg>
