<svg id="Frame_3" data-name="Frame 3" xmlns="http://www.w3.org/2000/svg" width="300" height="250" viewBox="0 0 300 250">
  <defs>
    <style>
      .cls-1 {
        fill: #468424;
        fill-rule: evenodd;
      }
    </style>
  </defs>
  <path id="了解更多" class="cls-1" d="M130.012,224.663l0.44,0.979,1.8-.025a0.811,0.811,0,0,0,.661-0.318,1.044,1.044,0,0,0,.232-0.636l0.012-5.441a10.587,10.587,0,0,0,3.338-2.727v-0.819h-8.033v0.917l6.652,0.012a11.1,11.1,0,0,1-2.96,2.14V224.3a0.492,0.492,0,0,1-.061.245,0.21,0.21,0,0,1-.134.122h-1.944Zm13.138-5.845,0.392,0.538a3.59,3.59,0,0,0,1.485-1.192,4.487,4.487,0,0,0,.667-1.73h1.369q-0.171.93-.257,1.223a0.367,0.367,0,0,1-.452.342,4.268,4.268,0,0,1-.868-0.281l0.281,1.015c0.09,0.008.251,0.03,0.483,0.067a2.646,2.646,0,0,0,.544.043,0.836,0.836,0,0,0,.465-0.165,0.826,0.826,0,0,0,.293-0.385,10.264,10.264,0,0,0,.551-2.752h-4.635v0.893H144.8a2.324,2.324,0,0,1-.562,1.3,3.045,3.045,0,0,1-1.113.844v-0.55h-1.284a14.5,14.5,0,0,0,.636-1.969h-2.165a5.222,5.222,0,0,0,.147-0.758l-0.8-.318a7.368,7.368,0,0,1-2.029,3.852l0.77,0.525,0.318-.354v3.8a5.845,5.845,0,0,1-.171.923,4.316,4.316,0,0,1-.269.709,5.74,5.74,0,0,1-.636.923l0.7,0.636a5.643,5.643,0,0,0,1.3-2.886H142.2v1.456a0.365,0.365,0,0,1-.086.238,0.286,0.286,0,0,1-.232.1H140.8l0.513,0.905h0.966a0.7,0.7,0,0,0,.636-0.33,1.535,1.535,0,0,0,.208-0.832Zm-0.953,1.309h-0.856v-1.235h0.843Zm-2.556,0v-1.235h0.819v1.235h-0.819Zm0.819,0.831v1.284h-0.807l-0.012-1.284h0.819Zm0.881-4.01a4.429,4.429,0,0,1-.2.519c-0.094.208-.186,0.39-0.275,0.544l-1.406.013a8.367,8.367,0,0,0,.525-1.076h1.358Zm0.856,5.294-0.844-.012-0.012-1.272H142.2v1.284Zm6.431,1.027v-0.892h-2.066v-1.272h1.418l0.012-.893h-1.43v-1.271l-0.917.012-0.012,1.272-0.6-.013a4.039,4.039,0,0,0,.086-0.794l-0.844-.257a5.391,5.391,0,0,1-.373,1.706,3.388,3.388,0,0,1-.678,1.008l0.941,0.331a4.436,4.436,0,0,0,.624-1.1h0.856v1.272l-2.372.012v0.88h2.36l0.012,2.69h0.917v-2.69h2.066Zm11.859,1.7q-1.137-.024-2.391-0.165a20.757,20.757,0,0,1-2.207-.355,5.848,5.848,0,0,1-1.492-.507,3.661,3.661,0,0,0,.514-0.923,4.7,4.7,0,0,0,.281-1.082h3.571v-4.525h-3.4v-0.905l4.732,0.013v-0.869h-10.43v0.869l4.794-.013v0.905h-3.51l-0.012,4.525h3.326a3.9,3.9,0,0,1-.251.807,3.349,3.349,0,0,1-.422.733,14.357,14.357,0,0,1-1.785-1.394l-0.709.477a8.358,8.358,0,0,0,1.773,1.565,10.561,10.561,0,0,1-1.84.691,16.3,16.3,0,0,1-1.718.385l0.55,0.82a8.606,8.606,0,0,0,3.509-1.162l0.379-.257a11.4,11.4,0,0,0,2.336.813,22.152,22.152,0,0,0,3.827.5Zm-2.617-5.747h-2.494l0.012-.942h2.482v0.942Zm-6.016-.942,2.6,0.013v0.929h-2.6V218.28Zm6.028,1.81v0.966H155.29l0.061-.966h2.531Zm-6.028,0h2.58l-0.049.966-2.531-.012V220.09Zm11.885,3.057a22.531,22.531,0,0,0,2.476-1.21,9.735,9.735,0,0,0,1.388-.991h3.131a5.17,5.17,0,0,1-.569.789,5.318,5.318,0,0,1-.893.813,9.994,9.994,0,0,1-1.192.746,3.81,3.81,0,0,0-1.259-1.333l-0.881.5a4.375,4.375,0,0,1,1.345,1.223,24.236,24.236,0,0,1-5.478,1.443l0.612,0.844a33.362,33.362,0,0,0,3.558-.807,15.182,15.182,0,0,0,2.158-.85,9.089,9.089,0,0,0,1.755-1.113,7.329,7.329,0,0,0,1.229-1.241,8.515,8.515,0,0,0,.727-1.125l0.013-.819-3.3-.012a5.53,5.53,0,0,0,.648-0.869l-0.721-.391a10.317,10.317,0,0,0,1.724-1.736V216.19H166.76a8.914,8.914,0,0,0,.892-0.979l-0.856-.452a9.421,9.421,0,0,1-4.72,2.959l0.807,0.758a13.029,13.029,0,0,0,2.678-1.357h3.363a11.747,11.747,0,0,1-1.137.954,11,11,0,0,1-1.3.782,4.848,4.848,0,0,0-.655-0.678,3.817,3.817,0,0,0-.715-0.532l-0.856.55a4.272,4.272,0,0,1,1.37,1.027,13.9,13.9,0,0,1-1.706.562q-1.143.32-2.109,0.538l0.587,0.82A24.554,24.554,0,0,0,166,220.047a14.869,14.869,0,0,0,2.287-1.131,8.591,8.591,0,0,1-2.183,1.975,15.565,15.565,0,0,1-3.075,1.474Z"/>
</svg>
