<svg id="Frame_3" data-name="Frame 3" xmlns="http://www.w3.org/2000/svg" width="300" height="250" viewBox="0 0 300 250">
  <defs>
    <style>
      .cls-1 {
        fill: #58595b;
        fill-rule: evenodd;
      }
    </style>
  </defs>
  <path id="_有若干條件_" data-name="*有若干條件。" class="cls-1" d="M10.995,238.434a7.251,7.251,0,0,0-.8.329l0.014-.077a5.8,5.8,0,0,0,.063-0.77H9.777q0,0.133.056,0.777L9.84,238.77a2.214,2.214,0,0,0-.3-0.151c-0.119-.049-0.279-0.11-0.479-0.185l-0.161.49q0.378,0.092.84,0.189a2.918,2.918,0,0,0-.28.3l-0.245.294-0.042.049,0.4,0.294a6.143,6.143,0,0,0,.413-0.672l0.035-.063,0.042,0.07c0.187,0.313.329,0.534,0.427,0.665l0.406-.294-0.056-.07-0.238-.266-0.231-.252-0.063-.056c0.117-.014.259-0.04,0.427-0.077s0.31-.075.427-0.112Zm1.17,3.01q0.637-.651.851-0.9a4.56,4.56,0,0,0,.332-0.42v3.339H13.9v-1.484l2.639,0.007v0.693a0.112,0.112,0,0,1-.038.08,0.128,0.128,0,0,1-.095.039,5.216,5.216,0,0,1-.882-0.035q0.063,0.161.245,0.539h0.4a2.817,2.817,0,0,0,.529-0.035,0.6,0.6,0,0,0,.248-0.175,0.471,0.471,0,0,0,.116-0.266v-3.577H13.894q0.091-.189.252-0.651l3.766-.007v-0.5H14.349q0.168-.575.231-0.868l-0.539-.119c-0.093.387-.158,0.636-0.193,0.745s-0.062.188-.081,0.235H12.1V238.6l1.47,0.007a4.656,4.656,0,0,1-.717,1.27,9.151,9.151,0,0,1-1.18,1.25Zm4.361-1.68v0.574l-2.625-.007v-0.567h2.625Zm-2.639,1.078,2.646,0.007v0.63H13.887v-0.637Zm7-1.407v-0.77h0.938v-0.511H20.887V237.23H20.362v0.917l-1.449.007,0.007,0.5,1.442,0.007v0.77h0.525Zm-1.631,2.87a12.109,12.109,0,0,0,1.2-.826v1.988h0.532v-0.49l2.485-.007,0.007,0.49H24l0.007-2.506h-3a6.165,6.165,0,0,0,.581-0.742l3.15-.007v-0.5H21.895a7.431,7.431,0,0,0,.3-0.742l-0.49-.21a5.313,5.313,0,0,1-.441.952H19.123v0.5h1.834a4.583,4.583,0,0,1-.707.735,11.014,11.014,0,0,1-1.386.959Zm4.165-2.891v-0.756H24.87l0.007-.5H23.414v-0.931H22.889v0.931H21.972v0.511H22.9v0.749h0.525Zm-2.436,3.052v-1h2.492v0.994Zm7.464-2.149v3.164H29v-3.164l2.513-.007v-0.525L29,239.778v-1.624H31.06l-0.007-.532H26.4v0.532h2.051l0.007,1.631H25.922v0.525Zm6.321-.3,0.238,0.4q0.329-.071.637-0.168a3.825,3.825,0,0,0,.567-0.228q0.259-.129.595-0.332a2.735,2.735,0,0,0,.427.283,3.164,3.164,0,0,0,.612.252q0.353,0.109.767,0.193l0.245-.511a3.2,3.2,0,0,1-1.617-.532,2.658,2.658,0,0,0,.382-0.354,2.571,2.571,0,0,0,.3-0.4,2.195,2.195,0,0,0,.172-0.339h0.476v-0.518H36.478l0.175-.455-0.462-.168a5.422,5.422,0,0,1-.4.85,4.033,4.033,0,0,1-.5.711,2.934,2.934,0,0,1-.469.434l0.476,0.322a5.161,5.161,0,0,0,.693-0.8,3.629,3.629,0,0,0,.427.672,5.253,5.253,0,0,1-1.666.616v-1.582H34.238v3.675h0.518Zm2.8-1.743a5.7,5.7,0,0,1-.385.479,4.342,4.342,0,0,1-.315.3,2.486,2.486,0,0,1-.483-0.777Zm-3.71.9a17,17,0,0,0,.49-1.827l-0.469-.182q-0.182.777-.329,1.246a7.7,7.7,0,0,1-.378.962,6.934,6.934,0,0,1-.693,1.124l0.427,0.322c0.037-.042.085-0.1,0.143-0.179s0.117-.159.175-0.248,0.09-.135.094-0.14l-0.007,3.241h0.539Zm5.152,3.444a3.362,3.362,0,0,1-1.477-1.484l0.959-.007-0.007-.511H37.073l-0.007-.679H36.527v0.679H35.134l-0.007.518h0.924a2.66,2.66,0,0,1-.4.595,3.668,3.668,0,0,1-.55.518,4.617,4.617,0,0,1-.511.343l0.35,0.448a6.121,6.121,0,0,0,1.008-.886,2.942,2.942,0,0,0,.581-0.857v2.177h0.539l0.014-2.135a3.348,3.348,0,0,0,1.519,1.659Zm1.008-1.792q0.448-.643.637-0.945v3.6l0.539-.007v-4.6a8.548,8.548,0,0,0,.434-1.589l-0.5-.1a7.223,7.223,0,0,1-1.561,3.318ZM43.415,241l-0.007,2.443h0.56L43.975,241l1.925-.007v-0.532l-1.925.007v-1.393l1.449,0.007v-0.532l-1.449-.007V237.16l-0.56-.007-0.007,1.386-0.763.007a3.334,3.334,0,0,0,.1-0.721l-0.483-.154a5.111,5.111,0,0,1-.3,1.221,4.426,4.426,0,0,1-.6,1.061l0.49,0.245a6.554,6.554,0,0,0,.609-1.127l0.945,0.007-0.007,1.386H41.462L41.455,241h1.96Zm6.324-.823a0.945,0.945,0,0,0-.164-0.388,0.832,0.832,0,0,0-.35-0.287,0.987,0.987,0,0,0-.455-0.077,0.809,0.809,0,0,0-.473.192,0.882,0.882,0,0,0-.3.424,0.915,0.915,0,0,0-.024.458,0.835,0.835,0,0,0,.185.4,0.928,0.928,0,0,0,.354.252,0.972,0.972,0,0,0,.43.07,0.833,0.833,0,0,0,.462-0.2,0.937,0.937,0,0,0,.3-0.423A0.848,0.848,0,0,0,49.739,240.173Zm-0.451.221a0.415,0.415,0,0,1-.119.238,0.462,0.462,0,0,1-.242.126,0.441,0.441,0,0,1-.27-0.028A0.48,0.48,0,0,1,48.5,240.6a0.455,0.455,0,0,1-.095-0.189,0.433,0.433,0,0,1,.014-0.217,0.491,0.491,0,0,1,.1-0.189,0.417,0.417,0,0,1,.2-0.119,0.447,0.447,0,0,1,.235-0.007,0.475,0.475,0,0,1,.182.1,0.492,0.492,0,0,1,.126.165A0.5,0.5,0,0,1,49.287,240.394Z"/>
</svg>
