<svg id="Frame_3" data-name="Frame 3" xmlns="http://www.w3.org/2000/svg" width="300" height="250" viewBox="0 0 300 250">
  <defs>
    <style>
      .cls-1 {
        fill: #462b69;
        fill-rule: evenodd;
      }
    </style>
  </defs>
  <path id="_15起_" data-name="15起* " class="cls-1" d="M66.164,119.759H62.506c-0.752,3.479-2.872,4.434-6.017,4.638l-0.547.035v3.24h5.607v16.371h4.615V119.759Zm12.467,8.322a6.942,6.942,0,0,0-4.445,1.6l1.06-6.037H85.709v-3.888H71.623l-2.256,14.154h4.239a4.738,4.738,0,1,1,4.274,6.958A4.33,4.33,0,0,1,73.3,137.12h-4.41c0.342,4.638,4.068,7.469,8.992,7.469,5.367,0,9.094-3.376,9.094-8.424C86.973,131.867,84.238,128.081,78.632,128.081Zm18.441,12.1v-3.511H93.523V138.6h-1.61v-0.688h1.47v-1.147h-1.47v-0.908h-1.04c-0.213,0-.32.044-0.32,0.13a0.171,0.171,0,0,0,.095.155,0.178,0.178,0,0,1,.085.184l-0.01.439h-1.69v1.147h1.7V138.6h-2.08v1.167h2.21l-0.02,2.674a2.408,2.408,0,0,0-.185-0.23,2.6,2.6,0,0,1-.23-0.3,0.734,0.734,0,0,1-.095-0.2q0.05-.588.08-1.506l-1.17-.129a14.962,14.962,0,0,1-.07,1.775,3.9,3.9,0,0,1-.74,1.855,1.676,1.676,0,0,1,.445.275q0.2,0.174.5,0.473l0.06,0.06a5.717,5.717,0,0,0,.45-0.728,2.852,2.852,0,0,0,.13-0.319l0.09-.319a2.8,2.8,0,0,0,.73.868c0.06,0.046.17,0.121,0.33,0.224a1.851,1.851,0,0,0,.64.234,6.193,6.193,0,0,0,1.15.08h4.209a4.724,4.724,0,0,1,.38-1.346l-1.58.079h-3.2a1.628,1.628,0,0,1-.56-0.054,0.354,0.354,0,0,1-.14-0.125v-1.317h1.31l0.01-1.147-1.32.01v-0.888h1.45v2.115l0.02,0.309a0.779,0.779,0,0,0,.25.5,0.717,0.717,0,0,0,.52.229h2.06l0.19-.02a0.991,0.991,0,0,0,.45-0.244,1.2,1.2,0,0,0,.31-0.5,4.492,4.492,0,0,0,.18-0.778,5.644,5.644,0,0,1-.63-0.209l-0.48-.289-0.03.329a0.881,0.881,0,0,1-.095.414,0.24,0.24,0,0,1-.2.1h-1.14a0.191,0.191,0,0,1-.135-0.064,0.212,0.212,0,0,1-.065-0.155l0.01-1.317h1.16v0.29l1.17,0.01Zm-1.2-1.177h-1.14v-1.187h1.14v1.187Zm4.142-2.076a7.265,7.265,0,0,0-.717.332,5.819,5.819,0,0,0,.1-0.774H98.826a4.418,4.418,0,0,0,.1.774q-0.128-.081-0.35-0.192c-0.148-.074-0.26-0.126-0.338-0.157l-0.186.552a7.107,7.107,0,0,0,.758.152,6.548,6.548,0,0,0-.56.546l0.478,0.361a6.532,6.532,0,0,0,.379-0.681,2.244,2.244,0,0,0,.137.274q0.079,0.133.236,0.4l0.472-.337a3.288,3.288,0,0,0-.236-0.273,3.471,3.471,0,0,0-.289-0.285q0.222-.024.764-0.128Z"/>
  <path id="_" data-name="$" class="cls-1" d="M54.78,129.416c0-1.809-1.088-2.85-3.778-3.378l-0.368-.064v-3.169a1.789,1.789,0,0,1,1.713,1.857h2.1c-0.08-1.953-1.2-3.362-3.809-3.618v-1.632H49.482v1.6c-2.529.112-3.906,1.409-3.906,3.217,0,2.065,1.457,3.042,3.665,3.458l0.24,0.048v3.393a2.063,2.063,0,0,1-2.065-2.225H45.288c0.016,2.417,1.569,3.794,4.194,3.986v1.633h1.152v-1.617C53.211,132.777,54.78,131.544,54.78,129.416Zm-6.995-5.251c0-.784.56-1.312,1.7-1.392v2.945C48.2,125.4,47.785,124.982,47.785,124.165Zm2.849,6.995v-3.185c1.409,0.336,1.9.736,1.9,1.553C52.539,130.5,51.867,131.064,50.634,131.16Z"/>
  <path id="每月計劃" class="cls-1" d="M57.353,108.643q-0.17,1.706-.205,1.945c-0.023.16-.042,0.27-0.055,0.329l-1.59-.01-0.01.729h1.49q-0.17,1.037-.5,2.383h5.429a1.048,1.048,0,0,1-.17.444,0.357,0.357,0,0,1-.26.125q-0.15.011-.515,0a8.711,8.711,0,0,1-1.215-.17l0.27,0.769a10.472,10.472,0,0,0,1.31.109,4.7,4.7,0,0,0,.55-0.04,0.852,0.852,0,0,0,.41-0.189,1.082,1.082,0,0,0,.295-0.429,3.448,3.448,0,0,0,.185-0.619h0.99l-0.01-.728-0.89.01,0.23-1.665h1.09v-0.729h-1.04q0-.019.065-0.9t0.075-1.367H57.353Zm0.53,2.264c0.026-.152.06-0.419,0.1-0.8s0.067-.621.08-0.728l4.389-.01a15.327,15.327,0,0,1-.12,1.546Zm4.389,0.719q-0.09.807-.22,1.665l-4.559.01,0.29-1.665h1.05l-0.42.548a8.986,8.986,0,0,1,1.5.534,4.216,4.216,0,0,1,.85.543l0.53-.518a4.608,4.608,0,0,0-1.025-.659,6.558,6.558,0,0,0-1.235-.458h3.239Zm-0.91-1.3a3.054,3.054,0,0,0-.9-0.554,6.12,6.12,0,0,0-1.35-.354l-0.52.549a5.371,5.371,0,0,1,1.235.339,4.025,4.025,0,0,1,.995.568Zm2.61-2.474v-0.718H58.182a2.078,2.078,0,0,1,.115-0.249,2.234,2.234,0,0,0,.155-0.389l-0.73-.24a6.96,6.96,0,0,1-.445,1,8.239,8.239,0,0,1-1.755,2.194l0.62,0.469a9.957,9.957,0,0,0,1.69-2.065h6.139ZM71,112.194l-0.01,1.945a0.186,0.186,0,0,1-.08.145,0.267,0.267,0,0,1-.17.065l-1.29-.04,0.3,0.8,1.21-.01a1.042,1.042,0,0,0,.395-0.085,0.751,0.751,0,0,0,.335-0.274,0.682,0.682,0,0,0,.13-0.389l-0.01-7.491H66.832l0.01,4.608a3.358,3.358,0,0,1-.5,1.77,4.985,4.985,0,0,1-1.425,1.482l0.49,0.708A11.039,11.039,0,0,0,66.3,114.6a5.3,5.3,0,0,0,.8-1.072,4.9,4.9,0,0,0,.52-1.337H71Zm-3.349-3.052v-1.556l3.339,0.01v1.546H67.652Zm3.339,0.748L71,111.456H67.642q0.02-.26.015-0.8t0-.778Zm2.544-2.105v0.728h4.119v-0.728l-1.68-.02,0.16-.089a3.108,3.108,0,0,0-1.09-1.457l-0.62.429a4.507,4.507,0,0,1,.565.584,2.743,2.743,0,0,1,.335.553h-1.79Zm5.839,7.521h0.76V110.04l2.34-.01v-0.719h-2.33l-0.01-2.962-0.76-.01,0.01,2.972h-2.09v0.719l2.08,0.01v5.266Zm-2.34-.189v-3.272l-2.809.01v3.272l0.75-.01v-0.479h1.3l0.01,0.479h0.75Zm-0.76-1.207h-1.3v-1.337l1.3-.01v1.347Zm0.97-4.858H73.995v0.738l3.249-.01v-0.728Zm-3.229,2.055h3.209v-0.728H74Zm14.775,3.112v-2.444H84.031v2.444H88.79ZM88.04,112.4v0.289H86.77V112.4h1.27Zm-1.98.289h-1.27V112.4h1.27v0.289Zm1.98,0.588v0.28l-1.26.01-0.01-.29h1.27Zm-3.239,0h1.27l0.01,0.29h-1.29Zm4.639-2.453-2.68.01v-0.3h2.11V109.93l-2.11-.01v-0.239l2.01,0.009v-1h0.66v-0.658H88.77V107.1l-2.01-.01v-0.668H86V107.1h-1.89v0.648l1.89-.01v0.3l-2.63-.01v0.668H86v0.349h-1.88v0.648l1.88-.009-0.01.249h-2.06v0.608H86v0.3h-2.84v0.618H89.44v-0.628Zm-1.43-2.8-1.25.01-0.01-.3h1.26v0.29Zm-1.25.668h1.25v0.349l-1.25-.01v-0.339Zm4.059-2.234v7.81a0.269,0.269,0,0,1-.065.184,0.249,0.249,0,0,1-.175.085,2.635,2.635,0,0,1-.575.005c-0.3-.016-0.455-0.025-0.475-0.025L89.8,115.3c0.113-.006.33-0.01,0.65-0.01a1.568,1.568,0,0,0,.72-0.129,0.907,0.907,0,0,0,.27-0.255,0.614,0.614,0,0,0,.14-0.374v-8.069H90.82Zm-1.22,6.772,0.75-.009,0.01-5.816H89.6v5.825Zm-6.1,2.095,5.969-.359v-0.628l-6.359.3Z"/>
</svg>
