<svg id="TC" xmlns="http://www.w3.org/2000/svg" width="300" height="250" viewBox="0 0 300 250">
  <defs>
    <style>
      .cls-1 {
        fill: #4d4d4f;
        fill-rule: evenodd;
      }
    </style>
  </defs>
  <path id="_須簽約兩年_有若干條件_" data-name="*須簽約兩年。 有若干條件。" class="cls-1" d="M119.8,223.5a10.265,10.265,0,0,0-1.117.456l0.02-.107a8.081,8.081,0,0,0,.087-1.068h-0.68q0,0.185.078,1.078l0.01,0.107a2.978,2.978,0,0,0-.423-0.209q-0.247-.1-0.665-0.257l-0.224.679q0.525,0.126,1.166.262a4.049,4.049,0,0,0-.389.418l-0.34.407-0.058.068,0.554,0.408a8.746,8.746,0,0,0,.573-0.932l0.048-.087,0.059,0.1q0.388,0.651.592,0.922l0.564-.408-0.078-.1-0.33-.369-0.321-.349-0.087-.078c0.161-.019.359-0.055,0.592-0.107s0.431-.1.593-0.155Zm9.034,5.145v-4.98h-1.846a3.973,3.973,0,0,0,.369-0.709h2.166v-0.709h-5.362l0.01,0.709h2.38a3,3,0,0,1-.437.709l-1.6.019,0.01,4.961h4.313Zm-3.585-2.874,2.837-.009v0.708H125.25v-0.7Zm2.837-1.378,0.019,0.64-2.856.01v-0.66Zm0,2.8v0.738H125.25v-0.748Zm-6.567-2.33a9.608,9.608,0,0,0,2.613-2.486l-0.515-.456a12.931,12.931,0,0,1-1.228,1.34A8.006,8.006,0,0,1,121,224.321Zm-0.077,2.563a6.422,6.422,0,0,0,1.481-1,10.892,10.892,0,0,0,1.336-1.432l-0.214-.2a2.274,2.274,0,0,0-.321-0.257,7.645,7.645,0,0,1-2.807,2.359Zm2.418-.2a7.946,7.946,0,0,1-1.345,1.553,6.892,6.892,0,0,1-1.676,1.117l0.535,0.543a6.446,6.446,0,0,0,1.651-1.145,9.364,9.364,0,0,0,1.379-1.622Zm5.673,2.757a4.949,4.949,0,0,0-1.064-.748,8.419,8.419,0,0,0-1.258-.524c-0.155.214-.285,0.408-0.388,0.583a6.268,6.268,0,0,1,2.234,1.252Zm-3.575-1.223a6.343,6.343,0,0,1-2.4,1.068l0.428,0.64a6.89,6.89,0,0,0,2.409-1.184Zm8.966-5.524a6.48,6.48,0,0,1-1.763,1.67,12.043,12.043,0,0,1-2.841,1.291l0.641,0.582,1.01-.437-0.01,2.029h1.049a1.574,1.574,0,0,1-.7.932,3.308,3.308,0,0,1-1.273.544l0.37,0.641a4.644,4.644,0,0,0,1.049-.413,2.809,2.809,0,0,0,.806-0.665,4.6,4.6,0,0,1,.8.393q0.345,0.219.462,0.306l0.417-.582a4.8,4.8,0,0,0-1.34-.709,2.067,2.067,0,0,0,.107-0.437h0.99v-2.126l-2.506-.019q0.341-.156.743-0.364a6.125,6.125,0,0,0,.656-0.384l0.01,0.408,2.826-.01v-0.408a10.652,10.652,0,0,0,1.389.767H135.3v2.107l1.088,0.01a1.642,1.642,0,0,1-.093.3,1.693,1.693,0,0,1-.311.456,2.022,2.022,0,0,1-.587.456,3.386,3.386,0,0,1-.612.262l0.4,0.6a3.694,3.694,0,0,0,.913-0.456,4.035,4.035,0,0,0,.67-0.641,4.7,4.7,0,0,1,1.865,1.029l0.467-.582a6.239,6.239,0,0,0-2.128-1.1,0.9,0.9,0,0,0,.078-0.33H138v-2.039q0.71,0.321,1.049.447l0.447-.641a15.514,15.514,0,0,1-1.7-.714,7.851,7.851,0,0,1-1.311-.81,6.994,6.994,0,0,1-.972-0.9l0.428,0.223,0.408-.515,0.466-.009a4.608,4.608,0,0,1,.767,1.213,7.2,7.2,0,0,0,.69-0.31,3.861,3.861,0,0,0-.612-0.894h1.515v-0.689h-2.516a3.1,3.1,0,0,0,.224-0.874l-0.661-.155a3.072,3.072,0,0,1-.864,1.748Zm-0.855.893a4.66,4.66,0,0,0-.466-0.719h1.146v-0.679h-2.079a4.364,4.364,0,0,0,.175-0.835l-0.651-.117a3.6,3.6,0,0,1-.684,1.695,7.929,7.929,0,0,1-.8.927l0.7,0.32a7.527,7.527,0,0,0,.961-1.32h0.389a3.936,3.936,0,0,1,.631,1.077Zm1.943,2.8h1.292l-0.01.757H136Zm-3.342.01H134l0.01,0.757-1.341.01v-0.767Zm1.321-1.738a6.424,6.424,0,0,0,1.02-.922l0.258,0.252c0.165,0.162.322,0.307,0.471,0.437a1.716,1.716,0,0,0,.349.252Zm11.588,5.1a9.51,9.51,0,0,0,1.108.131,4.6,4.6,0,0,0,.505-0.015,1.071,1.071,0,0,0,.388-0.136,1.053,1.053,0,0,0,.374-0.359,1.491,1.491,0,0,0,.219-0.524,16.008,16.008,0,0,0,.223-2.2q0.068-1.413.068-3.956h-2.749a10.908,10.908,0,0,0,.253-1.34l-0.69-.184a7,7,0,0,1-.6,2.135,4.308,4.308,0,0,1-1.146,1.631l0.738,0.418a7.123,7.123,0,0,0,1.224-1.952l2.263-.009q-0.009,2.038-.107,3.548a10.038,10.038,0,0,1-.223,1.879,0.58,0.58,0,0,1-.194.223,0.54,0.54,0,0,1-.272.107,10.76,10.76,0,0,1-1.613-.243Zm-2.554-4.233c0.039,0.058.107,0.149,0.2,0.272a2.393,2.393,0,0,1,.194.272l-1.36.165a8.116,8.116,0,0,0,1.112-1.282,9.8,9.8,0,0,0,.86-1.65l-0.661-.34a6.349,6.349,0,0,1-.417.883c-0.039.007-.221,0.033-0.544,0.078s-0.544.071-.661,0.078a5.877,5.877,0,0,0,.772-0.986,8.162,8.162,0,0,0,.656-1.238l-0.651-.368a6.67,6.67,0,0,1-1.991,2.834l0.359,0.612a7.483,7.483,0,0,1,.831-0.165q0.558-.087.821-0.107a5.748,5.748,0,0,1-.714.961,10.084,10.084,0,0,1-1.005.932l0.466,0.622q0.679-.165,2.37-0.389c0.006,0.02.026,0.07,0.058,0.151a1.229,1.229,0,0,1,.068.228,0.747,0.747,0,0,1,.01.2l0.7-.262a3.25,3.25,0,0,0-.855-1.728Zm3.875,1.369a2.442,2.442,0,0,0-.4-0.855,3.988,3.988,0,0,0-.622-0.694,3.339,3.339,0,0,0-.65-0.451l-0.593.417a3.722,3.722,0,0,1,1.044.927,2.5,2.5,0,0,1,.539,1.141Zm-2.409,2.252a3.866,3.866,0,0,0-.767-1.932l-0.68.146a3.718,3.718,0,0,1,.738,2.019Zm-3.36.718a4.462,4.462,0,0,0,.5-1.1,6.94,6.94,0,0,0,.233-1.258l-0.67-.174a4.63,4.63,0,0,1-.214,1.242,3.976,3.976,0,0,1-.563,1.088Zm1.865-.436a4.2,4.2,0,0,0-.321-2.088l-0.68.088a4.473,4.473,0,0,1,.306,1.019,2.977,2.977,0,0,1-.034,1.078Zm12.1-1.233a5.91,5.91,0,0,0,.6-0.627,3.8,3.8,0,0,0,.5-0.907,4.067,4.067,0,0,0,.389.951,3.491,3.491,0,0,0,.466.6l0.272-.223v0.9a0.217,0.217,0,0,1-.1.2,0.348,0.348,0,0,1-.219.053l-0.893-.039,0.33,0.709h0.291c0.149,0,.279,0,0.389-0.015a1.77,1.77,0,0,0,.311-0.053,0.9,0.9,0,0,0,.446-0.311,0.793,0.793,0,0,0,.175-0.505v-5.592h-3.244v-0.912h3.934v-0.709h-8.674v0.7h4v0.932l-3.235-.01v6.641h0.748v-2.058l0.3,0.281a4.135,4.135,0,0,0,.612-0.757,4.8,4.8,0,0,0,.408-0.767,3.709,3.709,0,0,0,.4.971,3.625,3.625,0,0,0,.5.621l0.272-.291-0.01,1.534H154.8v-1.6Zm-0.3-4.146h2.516l-0.019,3.311a5.3,5.3,0,0,1-.826-2.709H155.1v0.68h0.787a3.786,3.786,0,0,1-.214.825,3.564,3.564,0,0,1-.408.825,1.8,1.8,0,0,1-.466.5v-3.427Zm-0.728,3.369a2.108,2.108,0,0,1-.4-0.636,5.718,5.718,0,0,1-.331-1.005,5.568,5.568,0,0,1-.16-1.1h-1.4v0.67h0.807a3.281,3.281,0,0,1-.224.84,3.731,3.731,0,0,1-.388.738,3.1,3.1,0,0,1-.389.471v-3.35h2.487v3.369Zm7.761-6.262a6.326,6.326,0,0,1-1.8,3.223l0.612,0.5a4.7,4.7,0,0,0,.743-0.878,10.233,10.233,0,0,0,.6-1.063h2V224.7l-2.584.01V227l-1.2-.009v0.728h3.788v2.786h0.767v-2.8l3.352,0.01V227h-3.352v-1.572h2.477v-0.719h-2.477l-0.009-1.243,2.962-.019v-0.709h-5.439q0.126-.417.15-0.543c0.016-.084.028-0.156,0.034-0.214Zm2.156,3.748L163.977,227h-1.826v-1.572h1.836Zm11.01,0.48a1.324,1.324,0,0,0-.228-0.539,1.159,1.159,0,0,0-.486-0.4,1.384,1.384,0,0,0-.631-0.107,1.129,1.129,0,0,0-.656.267,1.224,1.224,0,0,0-.413.588,1.282,1.282,0,0,0-.034.636,1.155,1.155,0,0,0,.258.558,1.282,1.282,0,0,0,.49.349,1.325,1.325,0,0,0,.6.1,1.153,1.153,0,0,0,.641-0.276,1.3,1.3,0,0,0,.417-0.588A1.162,1.162,0,0,0,175,225.908Zm-0.626.306a0.58,0.58,0,0,1-.166.33,0.629,0.629,0,0,1-.335.175,0.61,0.61,0,0,1-.374-0.039,0.672,0.672,0,0,1-.218-0.185,0.617,0.617,0,0,1-.131-0.262,0.6,0.6,0,0,1,.019-0.3,0.691,0.691,0,0,1,.146-0.262,0.59,0.59,0,0,1,.277-0.165,0.632,0.632,0,0,1,.325-0.01,0.658,0.658,0,0,1,.253.141,0.681,0.681,0,0,1,.174.228A0.7,0.7,0,0,1,174.371,226.214Zm-54.8,13.106q0.884-.9,1.18-1.243a6.219,6.219,0,0,0,.461-0.582v4.631h0.768v-2.058l3.662,0.009v0.962a0.156,0.156,0,0,1-.054.111,0.176,0.176,0,0,1-.131.054,7.221,7.221,0,0,1-1.224-.049q0.088,0.224.34,0.748h0.559a3.887,3.887,0,0,0,.733-0.049,0.842,0.842,0,0,0,.345-0.243,0.653,0.653,0,0,0,.16-0.369v-4.961h-4.4q0.126-.261.35-0.9l5.226-.01v-0.7H122.6q0.234-.8.321-1.2l-0.748-.165q-0.194.805-.267,1.034c-0.049.152-.086,0.261-0.112,0.325h-2.311v0.709l2.039,0.01a6.481,6.481,0,0,1-1,1.762,12.761,12.761,0,0,1-1.637,1.733Zm6.051-2.33v0.8l-3.642-.009V236.99h3.642Zm-3.662,1.5,3.672,0.01v0.874h-3.672v-0.884Zm9.714-1.951v-1.068h1.3v-0.709h-1.3v-1.281h-0.729v1.272l-2.01.009,0.009,0.7,2,0.01v1.068h0.729Zm-2.263,3.98a16.916,16.916,0,0,0,1.661-1.145v2.757h0.738v-0.68l3.448-.009,0.01,0.679H136l0.01-3.475h-4.167a8.563,8.563,0,0,0,.806-1.03l4.371-.009v-0.7h-3.944a10.166,10.166,0,0,0,.418-1.029l-0.68-.292a7.346,7.346,0,0,1-.612,1.321h-2.972v0.7h2.545a6.371,6.371,0,0,1-.981,1.019,15.156,15.156,0,0,1-1.923,1.33Zm5.779-4.009v-1.049H137.2l0.009-.7h-2.03v-1.291h-0.728v1.291h-1.273v0.709h1.282v1.039h0.729Zm-3.38,4.233v-1.389h3.458v1.379Zm10.578-2.981v4.388h0.767v-4.388l3.487-.01v-0.728l-3.487-.009v-2.253h2.856l-0.01-.738h-6.459v0.738h2.846l0.009,2.262h-3.516v0.728Zm8.79-.417,0.33,0.553c0.305-.065.6-0.142,0.884-0.233a5.611,5.611,0,0,0,.787-0.315q0.36-.18.826-0.462a3.814,3.814,0,0,0,.592.394,4.49,4.49,0,0,0,.85.349q0.49,0.15,1.064.267l0.34-.709a4.432,4.432,0,0,1-2.244-.738,4.014,4.014,0,0,0,.947-1.043,3.061,3.061,0,0,0,.238-0.471h0.66v-0.718h-2.9l0.243-.631-0.641-.233a7.652,7.652,0,0,1-.549,1.179,5.609,5.609,0,0,1-.694.985,4.05,4.05,0,0,1-.651.6l0.66,0.447a7.149,7.149,0,0,0,.962-1.107,5.011,5.011,0,0,0,.592.932,7.28,7.28,0,0,1-2.311.855v-2.195h-0.719v5.1h0.719Zm3.885-2.418a7.825,7.825,0,0,1-.534.665,6.048,6.048,0,0,1-.437.423,3.436,3.436,0,0,1-.67-1.078Zm-5.148,1.243a23.425,23.425,0,0,0,.68-2.534l-0.651-.252q-0.252,1.077-.456,1.728a10.755,10.755,0,0,1-.525,1.335A9.617,9.617,0,0,1,148,238l0.592,0.446c0.052-.058.118-0.14,0.2-0.247s0.162-.222.243-0.345,0.125-.187.131-0.194l-0.009,4.5h0.748Zm7.149,4.776a4.65,4.65,0,0,1-2.049-2.058l1.331-.009-0.01-.709h-1.962l-0.01-.942h-0.748v0.942h-1.933l-0.01.718h1.283a3.678,3.678,0,0,1-.559.825,5.1,5.1,0,0,1-.762.719,6.556,6.556,0,0,1-.709.476l0.485,0.621a8.5,8.5,0,0,0,1.4-1.228,4.1,4.1,0,0,0,.806-1.189v3.019h0.748l0.019-2.961a4.654,4.654,0,0,0,2.108,2.3Zm1.312-2.485q0.621-.893.884-1.311v5l0.747-.009v-6.379a11.8,11.8,0,0,0,.6-2.2l-0.7-.145a10.016,10.016,0,0,1-2.166,4.6Zm4.711,0.243-0.01,3.388h0.777l0.01-3.388,2.671-.01v-0.738l-2.671.01v-1.932l2.01,0.01V235.3l-2.01-.01v-1.912l-0.777-.01-0.01,1.922-1.059.01a4.634,4.634,0,0,0,.146-1l-0.67-.214a7.124,7.124,0,0,1-.413,1.694,6.135,6.135,0,0,1-.831,1.471l0.68,0.34a9.035,9.035,0,0,0,.845-1.563l1.312,0.01-0.01,1.922h-2.7l-0.01.738h2.72Zm10.019-1.141a1.324,1.324,0,0,0-.228-0.539,1.159,1.159,0,0,0-.486-0.4,1.384,1.384,0,0,0-.631-0.107,1.127,1.127,0,0,0-.656.267,1.218,1.218,0,0,0-.413.588,1.27,1.27,0,0,0-.034.636,1.155,1.155,0,0,0,.258.558,1.282,1.282,0,0,0,.49.349,1.323,1.323,0,0,0,.6.1,1.153,1.153,0,0,0,.642-0.276,1.3,1.3,0,0,0,.417-0.588A1.174,1.174,0,0,0,173.108,237.558Zm-0.627.306a0.573,0.573,0,0,1-.165.33,0.629,0.629,0,0,1-.335.175,0.61,0.61,0,0,1-.374-0.039,0.662,0.662,0,0,1-.218-0.185,0.617,0.617,0,0,1-.131-0.262,0.588,0.588,0,0,1,.019-0.3,0.691,0.691,0,0,1,.146-0.262,0.592,0.592,0,0,1,.276-0.165,0.636,0.636,0,0,1,.326-0.01,0.654,0.654,0,0,1,.252.141A0.566,0.566,0,0,1,172.481,237.864Z"/>
</svg>
