<svg id="TC" xmlns="http://www.w3.org/2000/svg" width="300" height="250" viewBox="0 0 300 250">
  <defs>
    <style>
      .cls-1 {
        fill: #fff;
        fill-rule: evenodd;
      }
    </style>
  </defs>
  <path id="_須簽約兩年_有若干條件_" data-name="*須簽約兩年。有若干條件。" class="cls-1" d="M93.524,226.653a10.237,10.237,0,0,0-1.117.456L92.427,227a8.053,8.053,0,0,0,.087-1.068h-0.68q0,0.184.078,1.078l0.01,0.107a3.049,3.049,0,0,0-.422-0.209q-0.248-.1-0.665-0.257l-0.223.679q0.524,0.126,1.165.262a4,4,0,0,0-.388.418l-0.34.408-0.058.068,0.553,0.407a8.6,8.6,0,0,0,.573-0.932l0.049-.087,0.058,0.1q0.388,0.651.592,0.922l0.563-.407-0.078-.1-0.33-.368-0.32-.35-0.087-.078c0.162-.019.359-0.055,0.592-0.106s0.43-.1.592-0.156Zm9.028,5.145v-4.98h-1.844a4.111,4.111,0,0,0,.369-0.709h2.165V225.4H97.883l0.01,0.709h2.379a3,3,0,0,1-.437.709l-1.6.019,0.01,4.961h4.31Zm-3.582-2.874,2.835-.009v0.708H98.97v-0.7Zm2.835-1.378,0.019,0.641-2.854.009v-0.66Zm0,2.8v0.738H98.97v-0.748Zm-6.563-2.33a9.617,9.617,0,0,0,2.611-2.486l-0.514-.456a12.955,12.955,0,0,1-1.228,1.34,8,8,0,0,1-1.393,1.068Zm-0.078,2.563a6.409,6.409,0,0,0,1.481-1,10.858,10.858,0,0,0,1.335-1.432l-0.214-.2a2.241,2.241,0,0,0-.32-0.257,7.637,7.637,0,0,1-2.806,2.359Zm2.417-.2a7.935,7.935,0,0,1-1.345,1.553,6.87,6.87,0,0,1-1.675,1.117l0.534,0.543a6.4,6.4,0,0,0,1.65-1.145,9.377,9.377,0,0,0,1.379-1.621Zm5.669,2.757a4.879,4.879,0,0,0-1.063-.747,8.347,8.347,0,0,0-1.257-.525c-0.155.214-.285,0.408-0.388,0.583a6.28,6.28,0,0,1,2.233,1.252Zm-3.572-1.223a6.342,6.342,0,0,1-2.4,1.068l0.427,0.641a6.909,6.909,0,0,0,2.408-1.185Zm8.96-5.524a6.447,6.447,0,0,1-1.762,1.67,12.006,12.006,0,0,1-2.839,1.291l0.64,0.582,1.01-.437-0.01,2.03h1.049a1.584,1.584,0,0,1-.7.932,3.311,3.311,0,0,1-1.272.543l0.369,0.641a4.644,4.644,0,0,0,1.049-.413,2.791,2.791,0,0,0,.8-0.665,4.528,4.528,0,0,1,.8.394q0.345,0.217.461,0.3l0.418-.582a4.83,4.83,0,0,0-1.34-.709,2.067,2.067,0,0,0,.107-0.437h0.99V229.4l-2.5-.019c0.227-.1.474-0.225,0.743-0.364a5.936,5.936,0,0,0,.655-0.384l0.01,0.408,2.825-.01v-0.408a10.519,10.519,0,0,0,1.389.767h-2.515V231.5l1.087,0.01a1.551,1.551,0,0,1-.092.3,1.709,1.709,0,0,1-.31.456,2.04,2.04,0,0,1-.588.456,3.411,3.411,0,0,1-.611.262l0.4,0.6a3.7,3.7,0,0,0,.912-0.456,4.074,4.074,0,0,0,.67-0.641,4.7,4.7,0,0,1,1.864,1.029l0.466-.582a6.232,6.232,0,0,0-2.126-1.1,0.948,0.948,0,0,0,.078-0.33h0.951v-2.039q0.708,0.321,1.048.447l0.447-.641a15.3,15.3,0,0,1-1.7-.714,7.934,7.934,0,0,1-1.311-.81,6.973,6.973,0,0,1-.97-0.9l0.427,0.223,0.408-.514,0.466-.01a4.66,4.66,0,0,1,.767,1.213,7.311,7.311,0,0,0,.689-0.31,3.824,3.824,0,0,0-.612-0.893h1.515v-0.69h-2.515a3.1,3.1,0,0,0,.224-0.873l-0.661-.156a3.072,3.072,0,0,1-.864,1.748Zm-0.854.893a4.6,4.6,0,0,0-.466-0.718h1.146v-0.68h-2.078a4.364,4.364,0,0,0,.175-0.835l-0.651-.116a3.618,3.618,0,0,1-.194.791,3.571,3.571,0,0,1-.49.9,7.822,7.822,0,0,1-.8.927l0.7,0.32a7.49,7.49,0,0,0,.961-1.32h0.388a3.954,3.954,0,0,1,.632,1.077Zm1.942,2.8h1.291l-0.01.757h-1.291Zm-3.34.01h1.33l0.01,0.757-1.34.01V230.08Zm1.32-1.738a6.424,6.424,0,0,0,1.02-.922l0.257,0.252q0.248,0.243.471,0.437a1.716,1.716,0,0,0,.349.252Zm11.582,5.1a9.3,9.3,0,0,0,1.107.131,4.589,4.589,0,0,0,.5-0.015,1.065,1.065,0,0,0,.388-0.136,1.053,1.053,0,0,0,.374-0.359,1.491,1.491,0,0,0,.219-0.524,16.008,16.008,0,0,0,.223-2.2q0.068-1.413.068-3.956h-2.748a10.908,10.908,0,0,0,.253-1.34l-0.689-.184a7.028,7.028,0,0,1-.6,2.135,4.308,4.308,0,0,1-1.146,1.631l0.738,0.418a7.092,7.092,0,0,0,1.223-1.951l2.262-.01q-0.009,2.038-.107,3.548a9.948,9.948,0,0,1-.223,1.879,0.58,0.58,0,0,1-.194.223,0.536,0.536,0,0,1-.272.107,10.769,10.769,0,0,1-1.612-.243Zm-2.553-4.233c0.039,0.058.107,0.149,0.2,0.272a2.269,2.269,0,0,1,.194.272l-1.359.165a8.168,8.168,0,0,0,1.112-1.282,9.806,9.806,0,0,0,.859-1.65l-0.66-.34a6.471,6.471,0,0,1-.418.883q-0.059.01-.543,0.078t-0.661.078a5.929,5.929,0,0,0,.772-0.986,8.291,8.291,0,0,0,.656-1.237l-0.651-.369a6.677,6.677,0,0,1-1.99,2.834l0.359,0.612a7.407,7.407,0,0,1,.83-0.165c0.372-.058.646-0.094,0.82-0.107a5.688,5.688,0,0,1-.713.961,10.084,10.084,0,0,1-1,.932l0.466,0.622q0.68-.165,2.369-0.389c0.006,0.02.026,0.07,0.058,0.151a1.157,1.157,0,0,1,.068.228,0.747,0.747,0,0,1,.01.2l0.7-.262a3.255,3.255,0,0,0-.854-1.728Zm3.874,1.369a2.442,2.442,0,0,0-.4-0.855,3.988,3.988,0,0,0-.622-0.694,3.352,3.352,0,0,0-.65-0.451l-0.592.417a3.736,3.736,0,0,1,1.043.928,2.49,2.49,0,0,1,.539,1.14Zm-2.408,2.252a3.866,3.866,0,0,0-.767-1.932l-0.679.146a3.724,3.724,0,0,1,.737,2.019Zm-3.359.719a4.468,4.468,0,0,0,.495-1.1,6.94,6.94,0,0,0,.233-1.258l-0.67-.174a4.591,4.591,0,0,1-.213,1.242,3.976,3.976,0,0,1-.563,1.088Zm1.864-.437a4.206,4.206,0,0,0-.32-2.088l-0.68.088a4.473,4.473,0,0,1,.306,1.019,2.977,2.977,0,0,1-.034,1.078Zm12.1-1.233a5.988,5.988,0,0,0,.6-0.626,3.869,3.869,0,0,0,.5-0.908,4.071,4.071,0,0,0,.388.951,3.541,3.541,0,0,0,.466.6l0.272-.223v0.9a0.217,0.217,0,0,1-.1.2,0.348,0.348,0,0,1-.219.053l-0.893-.039,0.33,0.709h0.292c0.148,0,.278-0.005.388-0.015a1.754,1.754,0,0,0,.311-0.053,0.9,0.9,0,0,0,.446-0.311,0.793,0.793,0,0,0,.175-0.5v-5.592h-3.243v-0.913h3.932V225.4h-8.669v0.7h4v0.932l-3.233-.009v6.64h0.747V231.6l0.3,0.281a4.135,4.135,0,0,0,.612-0.757,4.8,4.8,0,0,0,.408-0.767,3.66,3.66,0,0,0,.4.971,3.573,3.573,0,0,0,.5.621l0.272-.291-0.01,1.534H128.5v-1.6Zm-0.3-4.146h2.514L131,231.041a5.3,5.3,0,0,1-.825-2.709H128.8v0.68h0.786a3.786,3.786,0,0,1-.214.825,3.6,3.6,0,0,1-.407.825,1.826,1.826,0,0,1-.466.5V227.73Zm-0.728,3.369a2.108,2.108,0,0,1-.4-0.636,5.64,5.64,0,0,1-.33-1,5.573,5.573,0,0,1-.161-1.1h-1.4v0.67h0.806a3.277,3.277,0,0,1-.223.84,3.785,3.785,0,0,1-.388.738,3.1,3.1,0,0,1-.389.471v-3.35h2.486V231.1Zm7.757-6.262a6.322,6.322,0,0,1-1.8,3.223l0.612,0.5a4.7,4.7,0,0,0,.743-0.878,10.233,10.233,0,0,0,.6-1.063h2v1.242l-2.583.01v2.291l-1.2-.009v0.728h3.786v2.786h0.767v-2.8l3.349,0.01v-0.719h-3.349v-1.572h2.475v-0.719h-2.475l-0.01-1.242,2.961-.02V225.9h-5.437c0.084-.278.135-0.459,0.151-0.543s0.027-.156.034-0.214Zm2.155,3.748-0.01,1.572h-1.825v-1.572h1.835Zm11,0.48a1.3,1.3,0,0,0-.228-0.539,1.164,1.164,0,0,0-.485-0.4,1.372,1.372,0,0,0-.631-0.106,1.123,1.123,0,0,0-.656.267,1.213,1.213,0,0,0-.412.587,1.271,1.271,0,0,0-.034.636,1.154,1.154,0,0,0,.257.558,1.282,1.282,0,0,0,.49.349,1.338,1.338,0,0,0,.6.1,1.159,1.159,0,0,0,.641-0.277,1.292,1.292,0,0,0,.417-0.587A1.167,1.167,0,0,0,148.691,229.065Zm-0.626.306a0.567,0.567,0,0,1-.165.33,0.632,0.632,0,0,1-.335.175,0.61,0.61,0,0,1-.374-0.039,0.68,0.68,0,0,1-.218-0.184,0.626,0.626,0,0,1-.131-0.263,0.6,0.6,0,0,1,.019-0.3,0.691,0.691,0,0,1,.146-0.262,0.592,0.592,0,0,1,.276-0.165,0.625,0.625,0,0,1,.326-0.009,0.659,0.659,0,0,1,.252.14,0.684,0.684,0,0,1,.175.228A0.7,0.7,0,0,1,148.065,229.371Zm5.369,1.456q0.883-.9,1.179-1.242a6.346,6.346,0,0,0,.461-0.583v4.631h0.767v-2.058l3.66,0.009v0.962a0.159,0.159,0,0,1-.053.111,0.177,0.177,0,0,1-.131.054,7.206,7.206,0,0,1-1.223-.049q0.087,0.224.339,0.748h0.559a3.9,3.9,0,0,0,.733-0.049,0.839,0.839,0,0,0,.344-0.243,0.661,0.661,0,0,0,.161-0.369v-4.96h-4.4q0.126-.262.349-0.9l5.223-.01v-0.7h-4.941q0.232-.8.32-1.2l-0.747-.165q-0.195.805-.267,1.034c-0.049.152-.086,0.261-0.112,0.325h-2.311v0.709l2.039,0.01a6.466,6.466,0,0,1-1,1.762,12.693,12.693,0,0,1-1.636,1.733Zm6.048-2.33v0.8l-3.641-.009V228.5h3.641Zm-3.66,1.495,3.67,0.01v0.874h-3.67v-0.884Zm9.708-1.951v-1.068h1.3v-0.709h-1.3v-1.281H164.8v1.272l-2.01.009,0.01,0.7,2,0.01v1.068h0.728Zm-2.262,3.98a16.821,16.821,0,0,0,1.66-1.145v2.757h0.738v-0.68l3.447-.009,0.009,0.679h0.728l0.01-3.475H165.7a8.511,8.511,0,0,0,.806-1.029l4.369-.01v-0.7h-3.942a10.166,10.166,0,0,0,.418-1.029l-0.68-.291a7.45,7.45,0,0,1-.611,1.32h-2.971v0.7h2.543a6.4,6.4,0,0,1-.98,1.019,15.205,15.205,0,0,1-1.922,1.33Zm5.777-4.009v-1.049h2.009l0.01-.7h-2.029v-1.291h-0.728v1.291h-1.272v0.709h1.282v1.039h0.728Zm-3.379,4.233v-1.389h3.456v1.379Zm10.573-2.981v4.388h0.767v-4.388l3.485-.01v-0.728l-3.485-.009v-2.253h2.854l-0.01-.738h-6.456v0.738h2.845l0.009,2.262h-3.514v0.728Zm8.786-.417,0.33,0.553c0.3-.065.6-0.142,0.883-0.233a5.432,5.432,0,0,0,.786-0.315q0.36-.18.826-0.462a3.766,3.766,0,0,0,.592.394,4.452,4.452,0,0,0,.849.349c0.327,0.1.681,0.189,1.063,0.267l0.34-.709a4.434,4.434,0,0,1-2.242-.737,3.744,3.744,0,0,0,.529-0.491,3.693,3.693,0,0,0,.417-0.553,3.061,3.061,0,0,0,.238-0.471h0.66v-0.718h-2.9l0.243-.631L187,224.857a7.553,7.553,0,0,1-.548,1.179,5.658,5.658,0,0,1-.694.986,4.037,4.037,0,0,1-.651.6l0.66,0.447a7.2,7.2,0,0,0,.962-1.107,4.909,4.909,0,0,0,.592.932,7.28,7.28,0,0,1-2.311.855v-2.194h-0.718v5.1h0.718Zm3.883-2.418a7.825,7.825,0,0,1-.534.665,6.048,6.048,0,0,1-.437.423,3.454,3.454,0,0,1-.67-1.078Zm-5.146,1.243a23.425,23.425,0,0,0,.68-2.534l-0.65-.252q-0.254,1.077-.457,1.728a10.683,10.683,0,0,1-.524,1.335,9.688,9.688,0,0,1-.961,1.558l0.592,0.446c0.052-.058.118-0.14,0.2-0.247s0.162-.222.243-0.345,0.124-.187.131-0.194l-0.01,4.5h0.748Zm7.146,4.777a4.662,4.662,0,0,1-2.049-2.059l1.33-.009-0.009-.709h-1.961l-0.01-.942h-0.748v0.942h-1.932l-0.009.718H186.8a3.665,3.665,0,0,1-.558.826,5.147,5.147,0,0,1-.762.718,6.556,6.556,0,0,1-.709.476l0.486,0.621a8.535,8.535,0,0,0,1.4-1.228,4.1,4.1,0,0,0,.805-1.189v3.019h0.748l0.019-2.961a4.652,4.652,0,0,0,2.107,2.3Zm1.31-2.486q0.623-.893.884-1.31v5l0.747-.009v-6.379a11.806,11.806,0,0,0,.6-2.2l-0.7-.145a10.015,10.015,0,0,1-2.165,4.6Zm4.709,0.243-0.01,3.388h0.777l0.01-3.388,2.669-.01v-0.738l-2.669.01v-1.932l2.009,0.01v-0.738l-2.009-.01v-1.912l-0.777-.01-0.01,1.922-1.058.01a4.634,4.634,0,0,0,.146-1l-0.67-.214a7.084,7.084,0,0,1-.413,1.695,6.11,6.11,0,0,1-.83,1.47l0.68,0.34a9.1,9.1,0,0,0,.844-1.563l1.311,0.01-0.01,1.922h-2.7l-0.009.738h2.718Zm10.014-1.141a1.324,1.324,0,0,0-.228-0.539,1.164,1.164,0,0,0-.485-0.4,1.372,1.372,0,0,0-.631-0.106,1.123,1.123,0,0,0-.656.267,1.213,1.213,0,0,0-.412.587,1.26,1.26,0,0,0-.034.636,1.154,1.154,0,0,0,.257.558,1.282,1.282,0,0,0,.49.349,1.338,1.338,0,0,0,.6.1,1.159,1.159,0,0,0,.641-0.277,1.292,1.292,0,0,0,.417-0.587A1.167,1.167,0,0,0,206.941,229.065Zm-0.626.306a0.573,0.573,0,0,1-.165.33,0.632,0.632,0,0,1-.335.175,0.61,0.61,0,0,1-.374-0.039,0.68,0.68,0,0,1-.218-0.184,0.626,0.626,0,0,1-.131-0.263,0.6,0.6,0,0,1,.019-0.3,0.691,0.691,0,0,1,.146-0.262,0.592,0.592,0,0,1,.276-0.165,0.625,0.625,0,0,1,.326-0.009,0.659,0.659,0,0,1,.252.14,0.684,0.684,0,0,1,.175.228A0.7,0.7,0,0,1,206.315,229.371Z"/>
</svg>
