<svg id="TC" xmlns="http://www.w3.org/2000/svg" width="300" height="250" viewBox="0 0 300 250">
  <defs>
    <style>
      .cls-1 {
        fill: #fffffe;
        fill-rule: evenodd;
      }
    </style>
  </defs>
  <path id="_直播電視" data-name="+ 直播電視" class="cls-1" d="M160.718,140.327h-7.71v-7.709h-3.25v7.709h-7.751v3h7.751v7.709h3.25v-7.709h7.71v-3ZM77.007,173.038v23.583h-6.25l0.042,3,35.584,0.042-0.042-3.042h-6.333V173.038H89.673a17.833,17.833,0,0,0,1.042-2.792l14.208-.042v-3l-13.5-.041,0.333-2.542-3.375-.875a16.682,16.682,0,0,1-.375,3.458H71.882v3H87.34a17.626,17.626,0,0,1-1.208,2.834H77.007Zm3.167,8.333H96.84v3.083H80.173v-3.083Zm0,8.75v-2.833H96.84l0.042,2.875ZM96.84,176.163v2.416l-16.708.042v-2.5ZM80.132,193.121H96.84v3.5H80.132v-3.5Zm44-18.792v2.959h7.541a14.026,14.026,0,0,1-1.9,2.291,17.274,17.274,0,0,1-3.312,2.542,23,23,0,0,1-4.25,2.042l1.875,2.708,2.917-1.5,0.041,15.75h3.084v-2.708h12.75v2.708h2.958V184.2l-16.917-.041a15.4,15.4,0,0,0,3.271-2.75,14.03,14.03,0,0,0,2.438-3.25v5.458l3.166,0.042,0.042-6.375h10.625v-2.959H137.84v-6a54.969,54.969,0,0,0,9.542-2.083l-1.917-2.458a46.688,46.688,0,0,1-9.646,1.791q-6.147.625-12.437,0.667l1.791,3.042q0.167,0,1.417-.021t1.708,0.021l-1.875,1.083a9.989,9.989,0,0,1,2.125,1.9,11.4,11.4,0,0,1,1.334,2.062h-5.75Zm13.833,12.834,4.917,0.041v2.667h-4.917v-2.708Zm-3.083,8.291h-4.75v-2.666h4.75v2.666Zm0-8.25v2.667H130.09v-2.708Zm7.958,5.584,0.042,2.666h-4.959l0.042-2.666h4.875Zm-29.458-5.334q0.582-.249,1.27-0.562t1.688-.833q1-.52,1.25-0.646v11.333a1.512,1.512,0,0,1-.167.813,0.73,0.73,0,0,1-.541.479,8.039,8.039,0,0,1-1.917.041Q113.673,198,113.09,198q0.416,1.291,1.167,3.167H115.8c0.75,0,1.334-.015,1.75-0.042a4.778,4.778,0,0,0,1.042-.167,2.776,2.776,0,0,0,1.5-1.125,3.1,3.1,0,0,0,.625-1.833l0.042-13.792,4.125-2.083-0.084-3.25-4.041,1.917v-6.667h4.125v-2.958h-4.125l-0.042-7.209H117.59v7.209l-4.958.041-0.042,2.917h5l0.042,8q-2.292,1.125-6.292,2.75Zm17.958-13.208,1.542-.708a17.078,17.078,0,0,0-1.5-2.417,13.685,13.685,0,0,0-1.792-2.042q1.041-.041,2.833-0.187t2.209-.146v5.583Zm10.333-.25a11.9,11.9,0,0,0,3.5-4.625l-1.916-1.167a8.294,8.294,0,0,1-1.521,2.417,18.032,18.032,0,0,1-2.1,2.125Zm8.125,9.667a19.853,19.853,0,0,0-9.833-6l-1.958,2.291a16.877,16.877,0,0,1,4.062,1.542,18.283,18.283,0,0,1,3.5,2.333,17.715,17.715,0,0,1,2.229,2.25Zm23.584,10.666,12.416,0.042V182.413l-27.916-.042v12l12.375-.042-0.042,1.792a5.96,5.96,0,0,0,.229,1.583,2.564,2.564,0,0,0,.979,1.4,3.255,3.255,0,0,0,2,.563h12.709a3.1,3.1,0,0,0,2.583-1.438q1.041-1.437,1.75-5.854l-3-1q-0.375,2.625-.625,3.708a2.9,2.9,0,0,1-.563,1.063,1.182,1.182,0,0,1-.937.479H174.8a1.626,1.626,0,0,1-1.083-.292,0.9,0.9,0,0,1-.333-0.708v-1.292Zm0-7.416v-1.459l9.291-.083-0.041,1.542h-9.25Zm-12.375,4.416v-1.708h9.25l-0.042,1.708h-9.208Zm9.208-5.916,0.042,1.5h-9.25v-1.459Zm12.417,5.916h-9.25v-1.708l9.291,0.042Zm-12.375-18.083-0.042,8.375h3.167v-8.333l11.791-.042v3.667l3.167-.042L188.3,170.2H173.382v-1.5H186.34l0.042-3H157.257v3h12.958v1.5H155.132l0.041,7,3.125-.041v-3.917h11.959Zm4.375,4,9.833-.042v-2.75H174.59Zm-5.667-2.792h-9.708v2.75h9.708v-2.75Zm5.667,3.959v2.708h9.833l-0.042-2.708h-9.791Zm-15.375,0,0.041,2.708h9.667l0.042-2.708h-9.75Zm64.375,8.625,4.583-.042V165.538l-17.417.041v21.542l3.959-.042a11.385,11.385,0,0,1-1.417,5.521,8.409,8.409,0,0,1-4,3.771,19.127,19.127,0,0,1-4.5,1.625l1.75,2.833a11.916,11.916,0,0,0,2.229-.708q1.062-.459,2.4-1.125a10.759,10.759,0,0,0,2.9-2.167,11.96,11.96,0,0,0,2.062-2.916,15.883,15.883,0,0,0,1.229-3.4,14.647,14.647,0,0,0,.438-3.438l2.667,0.042-0.042,9.25a3.3,3.3,0,0,0,1.271,1.917,3.88,3.88,0,0,0,2.062.875h4.167a3.532,3.532,0,0,0,2.917-1.542,12.558,12.558,0,0,0,.979-2.458q0.394-1.375.771-3.334a32.24,32.24,0,0,0-3-1.333,18.2,18.2,0,0,1-.75,4.542,1.6,1.6,0,0,1-.48.687,1.382,1.382,0,0,1-.812.354H224.8a1.174,1.174,0,0,1-.771-0.354,1.061,1.061,0,0,1-.395-0.812v-7.875Zm-9.584-12.417h10.875v3.042l-10.875.041v-3.083Zm10.875-6.083v3.083l-10.958-.042v-3Zm-10.833,15.5v-3.292l10.917,0.042v3.25H214.09ZM205.423,169.2a28.37,28.37,0,0,0-4.625-6.041l-2.333,2.041q1.165,1.375,2.437,3.167t1.813,2.708Zm-8.333,18.834a26.192,26.192,0,0,0,2.25-1.5,14.368,14.368,0,0,0,1.917-1.625V201.2l3-.041V185.038q1.707,0.834,3.666,4.083,0.834-.584,2.542-2.042a18.5,18.5,0,0,0-2.4-2.75,17.479,17.479,0,0,0-2.854-2.25l-0.875.834-0.042-1.625a19.408,19.408,0,0,0,2.813-4.646,17.51,17.51,0,0,0,1.354-5.438l-12.083.042,0.083,3h8.458a18.83,18.83,0,0,1-3.708,6.125,32.01,32.01,0,0,1-6.125,5.458Z"/>
</svg>
