<svg id="Frame_1" data-name="Frame 1" xmlns="http://www.w3.org/2000/svg" width="300" height="250" viewBox="0 0 300 250">
  <defs>
    <style>
      .cls-1 {
        fill: #fff;
        fill-rule: evenodd;
      }
    </style>
  </defs>
  <path id="用更節能的方式_讓家保持溫暖明亮" data-name="用更節能的方式 讓家保持溫暖明亮" class="cls-1" d="M82.781,54.776v9.345a14.014,14.014,0,0,1-.231,2.509,10.26,10.26,0,0,1-.672,2.279,13.368,13.368,0,0,1-1.953,2.94l1.344,1.008a13.932,13.932,0,0,0,2.121-3.181,13.338,13.338,0,0,0,.945-3.98h4.6v5h1.638v-5H95.15V70.19a0.508,0.508,0,0,1-.084.3,0.348,0.348,0,0,1-.252.136,5.723,5.723,0,0,1-.787.032q-0.409-.01-1.439-0.053l0.5,1.638,2.394-.042a1.36,1.36,0,0,0,.578-0.263,1.709,1.709,0,0,0,.515-0.651,1.821,1.821,0,0,0,.21-0.787V54.776H82.781Zm6.153,1.554v3.045H84.419V56.33h4.515Zm6.174,4.578-0.021,3.234H90.572l0.021-3.234h4.515ZM90.572,56.33h4.536v3.024l-4.515.021Zm-6.153,4.578h4.515v3.234H84.419V60.908ZM118.643,71.03q-1.953-.042-4.106-0.284a35.564,35.564,0,0,1-3.79-.609,10.094,10.094,0,0,1-2.562-.871,6.253,6.253,0,0,0,.882-1.585,7.993,7.993,0,0,0,.483-1.859h6.132v-7.77h-5.838V56.5l8.127,0.021V55.028H100.058v1.491l8.232-.021v1.554h-6.027l-0.021,7.77h5.712a6.673,6.673,0,0,1-.431,1.386,5.756,5.756,0,0,1-.724,1.26,24.8,24.8,0,0,1-3.066-2.394l-1.218.819a14.327,14.327,0,0,0,3.045,2.688,18.2,18.2,0,0,1-3.161,1.186,28.381,28.381,0,0,1-2.95.662l0.945,1.407a14.754,14.754,0,0,0,6.027-1.995l0.651-.441a19.614,19.614,0,0,0,4.011,1.4,38.165,38.165,0,0,0,6.573.85Zm-4.494-9.87h-4.284l0.021-1.617h4.263V61.16Zm-10.332-1.617,4.473,0.021v1.6h-4.473V59.543Zm10.353,3.108V64.31h-4.452l0.1-1.659h4.347Zm-10.353,0h4.431l-0.084,1.659-4.347-.021V62.651Zm18.251,10.017q0.63-.357,6.069-2.268,0.21,0.357.588,1.071t0.441,0.84q0.546-.252,1.428-0.777a17.543,17.543,0,0,0-1.68-2.751A9.256,9.256,0,0,0,127.4,67.25L126,68.027a6.488,6.488,0,0,1,1.26,1.218l-4.011,1.323V67.04h6.132V59.858h-7.728l0.021,10.353a1.37,1.37,0,0,1-.252.892,1.748,1.748,0,0,1-.609.473Zm5.712-11.319L127.8,62.63l-4.578-.021v-1.26h4.557Zm0,2.751v1.449h-4.536V64.1h4.536Zm1.974-6.909,0.021-1.512-5.649.021q0.021-.042.126-0.357t0.189-.588q0.084-.273.126-0.441l-1.449-.546a9.3,9.3,0,0,1-3.15,5.271l1.239,1.05a9.882,9.882,0,0,0,1.417-1.47,7.191,7.191,0,0,0,.956-1.428h1.533a10.386,10.386,0,0,1,1.428,2.394l0.315-.136q0.168-.073,1.092-0.578a7.736,7.736,0,0,0-1.113-1.68h2.919Zm9.009-.063V55.637l-6.195-.021q0.21-.714.357-1.428l-1.428-.525a9.081,9.081,0,0,1-1.082,2.8,7.436,7.436,0,0,1-2.026,2.215l1.344,1.071a7.943,7.943,0,0,0,2.184-2.625h1.827a9.282,9.282,0,0,1,1.323,2.352,3.593,3.593,0,0,0,.409-0.168q0.22-.1.557-0.3t0.462-.262a11.659,11.659,0,0,0-1.05-1.617h3.318Zm-2.94,4.158,0.021,6.069a0.564,0.564,0,0,1-.158.4,0.475,0.475,0,0,1-.409.147l-2.331-.126,0.693,1.638q0.315-.021,1.312,0a4.484,4.484,0,0,0,1.355-.1,2.488,2.488,0,0,0,.724-0.483,1.211,1.211,0,0,0,.315-0.6,2.83,2.83,0,0,0,.074-0.556V59.795l-6.615-.021V72.689h1.6l-0.021-11.4h3.444Zm13.263-.084h-7.581V72.668l1.6,0.021q-0.021-2.373,0-4.389h4.368v1.974a0.678,0.678,0,0,1-.094.336,0.334,0.334,0,0,1-.242.189,5.322,5.322,0,0,1-1.165,0q-0.724-.063-1.04-0.084l0.588,1.617a14.5,14.5,0,0,0,2.268-.063,1.307,1.307,0,0,0,.935-0.493,2.613,2.613,0,0,0,.367-1.061V61.2Zm-5.964,2.793L143.1,62.714h4.368v1.26ZM143.1,65.507h4.389l-0.021,1.281H143.1V65.507ZM144.487,53.6q-1.281,2.184-1.722,2.793a12.421,12.421,0,0,1-.85,1.061,7.927,7.927,0,0,1-.788.767,2.082,2.082,0,0,1-.441.389,4.915,4.915,0,0,0-.462.367l1.155,1.407q0.378-.042,2.2-0.283t2.94-.357q1.123-.115,1.9-0.158,0.378,0.84.431,1c0.035,0.1.066,0.207,0.094,0.3a6.91,6.91,0,0,0,.9-0.357q0.546-.252.609-0.273a13,13,0,0,0-1.26-2.363,9.267,9.267,0,0,0-1.7-1.921l-1.407.777a13.345,13.345,0,0,1,1.3,1.386l-4.473.378a10.63,10.63,0,0,0,1.533-1.764,21.341,21.341,0,0,0,1.491-2.415Zm12.558,4.767q-0.462,2.835-.987,2.835h-2.772a1.479,1.479,0,0,1-.724-0.178,0.511,0.511,0,0,1-.326-0.431V59.06a20.568,20.568,0,0,0,3.612-1.428,13.472,13.472,0,0,0,2.31-1.533l-0.966-1.2a13.469,13.469,0,0,1-2.467,1.565,14.278,14.278,0,0,1-2.489,1.019l-0.021-3.633-1.575.021,0.021,7.287a1.65,1.65,0,0,0,.6,1.081,1.941,1.941,0,0,0,1.333.473h3.738a1.318,1.318,0,0,0,.924-0.431,2.566,2.566,0,0,0,.63-0.934,22.732,22.732,0,0,0,.693-2.394ZM150.6,63.3v6.72a1.591,1.591,0,0,0,.336.945,1.855,1.855,0,0,0,.8.651,2.2,2.2,0,0,0,.819.189l3.8-.021a2.392,2.392,0,0,0,.756-0.221,1.658,1.658,0,0,0,.609-0.472,3.391,3.391,0,0,0,.4-0.7,7.9,7.9,0,0,0,.389-1.26q0.2-.829.283-1.061L157.3,67.5a9.215,9.215,0,0,1-.5,2.2,0.924,0.924,0,0,1-.63.588h-3.234a0.862,0.862,0,0,1-.577-0.157,0.478,0.478,0,0,1-.179-0.367l0.021-1.974a17.765,17.765,0,0,0,3.2-.977,12.764,12.764,0,0,0,2.971-1.69L157.3,64.016a11.792,11.792,0,0,1-2.478,1.365,17.185,17.185,0,0,1-2.625.84l-0.021-2.94Zm20.965-9.576a18.524,18.524,0,0,1-3.171,8.022l0.021-4.137H165.2a13.3,13.3,0,0,0,1.134-3.108l-1.512-.609a12.775,12.775,0,0,1-1.281,3.717h-1.932V72.143h1.659v-1.7l3.528-.021q0,0.105-.021.7a7.734,7.734,0,0,0,.021,1.019l1.617-.021V62.441l1.092,0.693a16.985,16.985,0,0,0,2.436-4.389h4.473a66.661,66.661,0,0,1-.693,9.282,13.241,13.241,0,0,1-.693,2.478,0.778,0.778,0,0,1-.8.378A15.6,15.6,0,0,1,171.059,70l0.273,1.764a20.707,20.707,0,0,0,2.761.651,3.685,3.685,0,0,0,.977,0,1.863,1.863,0,0,0,.882-0.525,3.037,3.037,0,0,0,.735-1.239,19.261,19.261,0,0,0,.735-2.992q0.252-1.544.346-2.846t0.137-2.4q0.042-1.1.063-2.877t0.042-2.258h-5.67q0.084-.294.346-1.092t0.378-1.26q0.115-.462.179-0.819Zm-4.83,5.376V63.2l-3.486-.021L163.226,59.1h3.507Zm-3.465,9.807v-4.2l3.486-.021,0.021,4.242Zm11.886-2.079a15.661,15.661,0,0,0-1.239-2.625,18.415,18.415,0,0,0-1.827-2.5l-1.3.861a18.371,18.371,0,0,1,2.856,4.935Zm12.621-4.515q0.126-2.184.126-3.612l10.563-.021V57.128l-7.686-.042,0.525-.357a5.509,5.509,0,0,0-1.3-1.754,11.3,11.3,0,0,0-1.827-1.418l-1.491.9a7.341,7.341,0,0,1,1.774,1.228,4.589,4.589,0,0,1,1.082,1.438h-8.61v1.554h5.25q0,2.982-.126,4.284a11.643,11.643,0,0,1-.977,3.917,7.666,7.666,0,0,1-2,2.593,10.493,10.493,0,0,1-3.171,1.743l1.092,1.512a10.8,10.8,0,0,0,2.793-1.533,8.383,8.383,0,0,0,1.774-1.806,11.03,11.03,0,0,0,.966-1.67,10.907,10.907,0,0,0,.567-1.554q0.22-.788.557-2.3h6.174a28.2,28.2,0,0,1-.263,3.024,27.888,27.888,0,0,1-.556,2.94,0.946,0.946,0,0,1-1.134.693,21.657,21.657,0,0,1-3.528-.987l0.315,1.869a25.325,25.325,0,0,0,3.066.641,7,7,0,0,0,.966.052,0.87,0.87,0,0,0,.21-0.042,1.9,1.9,0,0,0,1.029-.514,2.215,2.215,0,0,0,.63-0.977,30.469,30.469,0,0,0,1.113-8.274Zm13.041-4.452v1.554h9.975a46.828,46.828,0,0,0,.966,5.66,16.373,16.373,0,0,0,1.375,3.643,13.624,13.624,0,0,0,1.943,2.793,3.992,3.992,0,0,0,1.113.892,1.768,1.768,0,0,0,.829.221,1.286,1.286,0,0,0,.6-0.189,1.817,1.817,0,0,0,.5-0.483,14.868,14.868,0,0,0,.966-3.591l-1.617-.693a14.5,14.5,0,0,1-.357,2.6q-0.189.567-.462,0.483a6.3,6.3,0,0,1-1.7-2.037A15.81,15.81,0,0,1,213.731,66a24.724,24.724,0,0,1-.788-2.992,29.308,29.308,0,0,1-.472-3.591h5.88V57.863l-6.048-.021q-0.126-1.155-.252-4.032l-1.659.063q0.147,2.982.252,3.969Zm16.527-1.344a6.536,6.536,0,0,0-3.57-2.142l-1.26,1.2a7.761,7.761,0,0,1,2.341.945,6.508,6.508,0,0,1,1.355,1.2ZM211.316,68.7l-0.1-1.533-4.158.966-0.021-4.557h3.255V62.021h-8.211l0.021,1.533,3.339,0.021v5l-4.284,1.05,0.588,1.491ZM76.249,93.631a16.357,16.357,0,0,0,2.121-.714v1.2a0.368,0.368,0,0,1-.157.115q-0.116.053-.62,0.242l0.8,1.26q1.05-.42,4.221-1.3L82.57,93.022q-0.819.168-2.646,0.651v-1.7a6.615,6.615,0,0,0,1.344-1.3h0.5a7.821,7.821,0,0,0,.756,1.68,5.824,5.824,0,0,0,2.152,2.173A10.058,10.058,0,0,0,87.8,95.71l0.672-1.386a6.784,6.784,0,0,1-1.449-.3,8.147,8.147,0,0,1-1.743-.851,8.95,8.95,0,0,0,2.1-1.638l-0.966-.882h1.365l-0.021-1.407H84.691V88.423h2.2V87.016h-2.2V86.344h2.835V84.958H84.712V84.076H87V80.527H82.15v3.591l1.092-.021-0.021.861H80.2a4.391,4.391,0,0,1,0-.861h1.029v-3.57H76.4V84.1h2.331v0.861H75.913l0.021,1.386h2.814v0.651l-2.142.021V88.4h2.142v0.84H75.787V90.67l3.57,0.042a9.341,9.341,0,0,1-3.969,1.659v-3.99H70.621v6.951h1.512V93.883H73.9v1.428h1.491L75.43,92.6Zm6.993-5.208-0.021.819h-2.94V88.423h2.961Zm-0.021-2.079v0.672H80.2V86.344h3.024Zm3.066,4.284a8.82,8.82,0,0,1-2.079,1.659,4.556,4.556,0,0,1-.462-0.767,7.664,7.664,0,0,1-.4-0.892h2.94Zm-12.432-.819v2.646H72.133l0.021-2.646h1.7Zm11.7-7.035H83.6V81.808h1.953v0.966ZM77.8,81.808h2v1.008h-2V81.808Zm-2.2-1.974-2.289-.042,0.8-.336a11.87,11.87,0,0,0-.829-1.533,7.4,7.4,0,0,0-.977-1.26l-1.407.756a6.939,6.939,0,0,1,1.092,1.323,7.793,7.793,0,0,1,.525,1.092h-2.9l0.021,1.47h6.405V79.9l11.886,0.021v-1.47H82.486a12.087,12.087,0,0,0-1.554-1.806l-1.449.756q1.029,0.861,1.092.934c0.042,0.049.077,0.088,0.105,0.115l-5.061-.021ZM75.724,82.5H70.432v1.491l5.292-.021V82.5Zm0,2.793H70.432v1.491h5.292V85.294ZM107.64,79.33h-7.1a7.8,7.8,0,0,0-1.271-1.638,7.229,7.229,0,0,0-1.4-1.113l-1.323.987A15.54,15.54,0,0,1,98.2,78.889a3.09,3.09,0,0,1,.347.441H90.966v3.906h1.617l-0.021-2.415h13.461v2.331h1.617V79.33Zm1.008,13.5a5.841,5.841,0,0,1-1.817-1.134,9.852,9.852,0,0,1-1.606-1.869,8.288,8.288,0,0,1-1.071-2.184,15.338,15.338,0,0,0,2.331-2.1l-1.218-1.071a9.109,9.109,0,0,1-3.885,3.024,5.534,5.534,0,0,0-.851-1.334,4.955,4.955,0,0,0-1.123-1.019,15.036,15.036,0,0,0,2.016-1.344h3.864V82.312H93.444l-0.021,1.512,5.292,0.021a21.688,21.688,0,0,1-7.644,2.373L92.163,87.6a18.321,18.321,0,0,0,5.691-1.659,6.345,6.345,0,0,1,1.05.714,13.843,13.843,0,0,1-1.953,1.155,14.806,14.806,0,0,1-2.782,1.019,30.167,30.167,0,0,1-3.5.7L91.785,90.9a15.836,15.836,0,0,0,4.252-1.029,19.5,19.5,0,0,0,3.727-2.016,8.673,8.673,0,0,1,.567,1.218,13.886,13.886,0,0,1-4.41,2.552A28.986,28.986,0,0,1,90.252,93l1.155,1.449a33.876,33.876,0,0,0,3.5-.85A21.737,21.737,0,0,0,98.1,92.371a11.616,11.616,0,0,0,2.573-1.659,17.507,17.507,0,0,1-.084,2.814,0.916,0.916,0,0,1-.231.4,1.152,1.152,0,0,1-.378.294,7.033,7.033,0,0,1-1.533-.136,17.56,17.56,0,0,1-2-.536L97.1,95.416a8.169,8.169,0,0,0,3.675.147,1.813,1.813,0,0,0,.934-0.725,4.064,4.064,0,0,0,.494-1.816,12.049,12.049,0,0,0-.011-2.068,15.586,15.586,0,0,0-.3-2.068l1.008-.42a12.592,12.592,0,0,0,.861,1.879,10.282,10.282,0,0,0,1.606,2.153,6.536,6.536,0,0,0,2.237,1.575Zm5.26-15.981a16.658,16.658,0,0,1-1.585,5.177,17.618,17.618,0,0,1-3.2,4.42l1.176,1.134,0.441-.441q0.315-.315,1.659-2.037V95.857h1.575V82.333a22.073,22.073,0,0,0,.819-2.341,19.954,19.954,0,0,0,.567-2.489Zm13.5,11V86.323h-5.5v-1.68h3.948V77.881h-9.681v6.762l4.158-.021v1.7h-5.628v1.533h4.284a13.218,13.218,0,0,1-1.554,2.509,9.917,9.917,0,0,1-1.785,1.806,9.2,9.2,0,0,1-1.554.977l1.176,1.218A10.646,10.646,0,0,0,117.2,92.98a12.825,12.825,0,0,0,1.879-2.1,9.535,9.535,0,0,0,1.26-2.247l-0.021,7.161h1.6l0.042-7.434a11.021,11.021,0,0,0,5.46,5.943l1.239-1.176a13.982,13.982,0,0,1-3.328-2.279,8.019,8.019,0,0,1-1.922-2.992h4.011Zm-3.15-4.746h-6.489l-0.021-3.717h6.531Zm6.764,12.579h1.953a1.784,1.784,0,0,0,1.26-.41,1.568,1.568,0,0,0,.441-1.207l0.021-6.048,2.415-.9v-1.7l-2.415.987V82.5h2.541L137.22,81.01H134.7V76.831h-1.617L133.1,81.01h-2.877V82.5H133.1v4.452q-0.546.21-1.9,0.641t-1.5.472l1.05,1.323A12.185,12.185,0,0,0,131.97,89a11.473,11.473,0,0,0,1.134-.472v5.061a0.582,0.582,0,0,1-.21.483,2.194,2.194,0,0,1-.682.115,9.1,9.1,0,0,1-.935-0.031q-0.546-.042-0.756-0.042Zm12.894-.021a2.128,2.128,0,0,0,1.208-.514,1.735,1.735,0,0,0,.472-1.04v-5.1h3.108V87.52H145.62V85.9h-1.6L144,87.52h-7.371v1.491H144v4.767a0.558,0.558,0,0,1-.42.357,19.942,19.942,0,0,1-2.394-.105,11.053,11.053,0,0,0,.609,1.617ZM143.457,76.81H141.84v2.961h-4.053l-0.021,1.491h4.074v2.6h-4.83v1.512l11.571-.021V83.866l-5.124.021v-2.6l3.969-.021V79.771h-3.969V76.81Zm-1.281,15.33a13.511,13.511,0,0,0-3.8-2.52l-1.05,1.155a14.456,14.456,0,0,1,3.78,2.541Zm14.973-5.88h9.912l-0.021-8.106h-9.891V86.26Zm8.295-2.877a14.072,14.072,0,0,0-2.688-1.89,5.736,5.736,0,0,0,.231-1.617l-0.861-.189h3.3Zm-6.678-3.7h2.625a4.12,4.12,0,0,1-.63,2.4,3.711,3.711,0,0,1-2,1.25V79.687Zm6.657,5.04h-6.678v-0.9l0.945,0.861a6.769,6.769,0,0,0,2.457-1.722,5.775,5.775,0,0,1,2.289,1.743l0.987-.84v0.861ZM169.5,95.185V93.631H168.09V87.52H156.057v6.111h-1.323l-0.021,1.554H169.5Zm-6.447-1.554h-1.932V89.053h1.932v4.578Zm3.4,0h-1.869l-0.021-4.578h1.869Zm-8.736-4.578h1.869v4.578h-1.869V89.053Zm-1.008-8.295a4.405,4.405,0,0,0-.766-0.987,7.574,7.574,0,0,0-1.344-1.06,12.063,12.063,0,0,0-1.565-.851L151.9,78.889a7.732,7.732,0,0,1,3.549,3.045Zm-1.176,4.116a8.01,8.01,0,0,0-4.011-2.793l-1.05,1.092a14.18,14.18,0,0,1,1.659.861,7.563,7.563,0,0,1,1.3.987,9.234,9.234,0,0,1,.9.987Zm-3.465,10.689a12.176,12.176,0,0,0,2.027-3.5,22.833,22.833,0,0,0,1.354-4.588l-1.365-.672a21.22,21.22,0,0,1-1.365,4.316,12.087,12.087,0,0,1-2.226,3.623Zm24.642-4.221,0.021-12.684h-5.061V93.232h1.6v-1.89h3.444Zm-1.575-7.2h-1.89l0.021-3.948h1.869v3.948Zm-0.021,5.691h-1.848V85.567h1.848V89.83Zm14.3,4.326a14.364,14.364,0,0,1-2.594-.5,6.943,6.943,0,0,1-2.194-.966,10.147,10.147,0,0,0,1.5-1.47,9.61,9.61,0,0,0,1.229-1.827V87.94H180.72a2.166,2.166,0,0,0,.157-0.451,3.161,3.161,0,0,1,.137-0.43h7.728V85.567H181.2l0.315-.966h6.447V83.089l-8.064-.042,1.092-.546a5.5,5.5,0,0,0-.924-1.512,5.109,5.109,0,0,0-1.218-1.113l-1.323.672a6.524,6.524,0,0,1,1.953,2.541h-1.449V84.6h1.932a3.921,3.921,0,0,1-.294.966h-2.415v1.491h2.037a9.233,9.233,0,0,1-1.313,2.793,10.971,10.971,0,0,1-2.152,2.436l1.533,0.819a15.953,15.953,0,0,0,2.52-3.36,13.455,13.455,0,0,0,.966,1.533,10.893,10.893,0,0,0,1.113,1.344,15.666,15.666,0,0,1-5.019,1.638l0.861,1.47a13.914,13.914,0,0,0,2.94-.819,17.367,17.367,0,0,0,2.478-1.281,13.53,13.53,0,0,0,5.229,2.016Zm-3.864-4.683a9.664,9.664,0,0,1-1.187,1.418,7.038,7.038,0,0,1-1.06.871,5.43,5.43,0,0,1-.893-0.977,14.814,14.814,0,0,1-.913-1.312h4.053Zm1.806-12.579a24.045,24.045,0,0,1-4.022.924,57.949,57.949,0,0,1-6.6.483l0.714,1.512a30.475,30.475,0,0,0,4.063-.263,41.245,41.245,0,0,0,4.358-.693,11.952,11.952,0,0,0,2.541-.808ZM186.579,82.9a9.364,9.364,0,0,0,1.092-3.444l-1.386-.4a10.46,10.46,0,0,1-1.176,3.192Zm-2.184-.609A7.761,7.761,0,0,0,182.82,79.6l-1.533.441a9.5,9.5,0,0,1,1.134,1.607,5.756,5.756,0,0,1,.462,1.207Zm12.942,13.4a10.85,10.85,0,0,0,2.405-2.195,9.436,9.436,0,0,0,1.365-2.3,8.182,8.182,0,0,0,.556-2.31l4.683,0.021,0.021,4.242a0.445,0.445,0,0,1-.157.3,0.565,0.565,0,0,1-.326.178,2.124,2.124,0,0,1-.64.042q-0.41-.021-1.67-0.126l0.525,1.638q0.567-.021,2.268.021a2.117,2.117,0,0,0,1.05-.588,1.377,1.377,0,0,0,.546-0.945L207.984,77.8h-7.812l-0.021,7.959a17.515,17.515,0,0,1-.4,4.085,6.718,6.718,0,0,1-1.218,2.5,12.02,12.02,0,0,1-2.373,2.174ZM206.388,82.5l-4.641-.021V79.33h4.641V82.5Zm-0.021,1.512,0.021,3.318-4.62.021V84.013h4.6Zm-14.343-4.977V91.174l1.6-.021-0.021-1.3h3.213v1.323h1.533l0.042-12.1Zm1.554,1.554,3.15,0.021V83.53l-3.129.021Zm3.234,4.494v3.255H193.6V85.084h3.213ZM214.4,85.777h11.109v-4.62H214.4v4.62Zm9.513-3v1.407l-7.875.021V82.753ZM212.052,86.7v3.822h1.6V88.3h12.663V90.46h1.554l0.021-3.759H212.052Zm15.309,4.2a7.924,7.924,0,0,1-.431,1.817,0.742,0.742,0,0,1-.472.556h-2.982a0.474,0.474,0,0,1-.546-0.525l-0.021-3.465-1.554.021,0.021,4.242a1.1,1.1,0,0,0,.451.8,1.961,1.961,0,0,0,1.04.483h3.843a1.485,1.485,0,0,0,1.176-.5,3.65,3.65,0,0,0,.693-1.543q0.252-1.039.336-1.27Zm0.378-10.668v-1.6h-6.888a8.08,8.08,0,0,0-1.428-2.058l-1.764.84a5.946,5.946,0,0,1,1.344,1.2H212.22v1.617h15.519Zm-10.626,9.009a4.72,4.72,0,0,1-1.47,3.108,8.552,8.552,0,0,1-4.935,1.617l0.756,1.617a11.156,11.156,0,0,0,4.641-1.617,5.21,5.21,0,0,0,1.774-1.921,6.362,6.362,0,0,0,.767-2.615Z"/>
</svg>
