<svg id="Frame_2" data-name="Frame 2" xmlns="http://www.w3.org/2000/svg" width="300" height="250" viewBox="0 0 300 250">
  <defs>
    <style>
      .cls-1 {
        fill: #fff;
        fill-rule: evenodd;
      }
    </style>
  </defs>
  <path id="透過手機自動化管理_室溫_電燈和電器" data-name="透過手機自動化管理 室溫、電燈和電器" class="cls-1" d="M64.859,63.359a9.493,9.493,0,0,0-2.751-3.528l-1.323,1.008a6.765,6.765,0,0,1,2.751,3.507Zm2.73,6.762h1.617a5.467,5.467,0,0,1-.766,3.16,4.18,4.18,0,0,1-2.489,1.627l0.441,0.777a5.837,5.837,0,0,1-2-1.008,11.531,11.531,0,0,0,1.092-4.494H62.717a16.542,16.542,0,0,0,1.533-1.827A10.672,10.672,0,0,0,65.489,66.3V64.892l-5.376.021,0.021,1.512h3.591a11.79,11.79,0,0,1-3.171,3.759L60.575,71.7l3.255,0.021a8.1,8.1,0,0,1-.567,1.817,8.687,8.687,0,0,1-1.375,2.153,10.8,10.8,0,0,1-2.153,1.953l1.2,1.218a12.479,12.479,0,0,0,1.459-1.386A17.2,17.2,0,0,0,63.683,75.9a10.024,10.024,0,0,0,6.153,1.953l8.253,0.021,0.777-1.743-3.486.21-5.019.021a14.581,14.581,0,0,1-1.606-.094,6.66,6.66,0,0,1-1.291-.242,5.265,5.265,0,0,0,2.121-1.627,5.109,5.109,0,0,0,.83-1.964,12.41,12.41,0,0,0,.2-2.31h2.73L72.65,72.473l2.646-.021q-0.021.105-.094,0.441t-0.168.63a4.174,4.174,0,0,1-.242.588,0.725,0.725,0,0,1-.693.336,11.677,11.677,0,0,1-2.541-.672l0.168,1.638,1.785,0.42a2.013,2.013,0,0,0,2.373-.651,10.721,10.721,0,0,0,1.239-4.242H74.708L75.4,68.588H72.608L72.65,65.9a4.785,4.785,0,0,0,1.869,1.974,12.124,12.124,0,0,0,3.129,1.491L78.7,68a11.208,11.208,0,0,1-3.087-1.281,4.645,4.645,0,0,1-1.449-1.407h3.507V63.779l-5.061.021,0.021-1.512a19.84,19.84,0,0,0,4.557-1.239l-0.924-1.176a25.382,25.382,0,0,1-2.646.682,28.3,28.3,0,0,1-3.5.483q-1.943.157-4.231,0.178l0.735,1.512,4.389-.21V63.8h-5.04l-0.021,1.533h3.528a6.142,6.142,0,0,1-1.953,1.6A11.351,11.351,0,0,1,64.691,68l1.26,1.344a11.937,11.937,0,0,0,1.638-.63v1.407Zm3.423-1.533-3.192-.042a9.721,9.721,0,0,0,1.5-.882,6.717,6.717,0,0,0,1.113-.966,3.638,3.638,0,0,0,.578-0.819v2.709ZM94.219,75.56a8.851,8.851,0,0,0,2.667-.21,1.642,1.642,0,0,0,.819-0.672,1.852,1.852,0,0,0,.189-0.84l0.021-7.245-1.26.021v-5.8H87.52L87.5,66.635H86.365v9.093H87.94l0.021-7.6h8.358v5.439a0.667,0.667,0,0,1-.084.336,0.3,0.3,0,0,1-.21.168,12.249,12.249,0,0,1-2.415.042Zm-3.066-8.946H89.095V62.33h5.964l0.021,1.281H91.153v3Zm1.533-1.6L95.059,65v1.617H92.686v-1.6ZM94.807,73.5V69.134h-5.4v4.2L89.431,73.5h5.376Zm-1.491-2.94v1.491H90.8V70.562h2.52ZM81.409,60.713a7.4,7.4,0,0,1,1.313,1.47A18.393,18.393,0,0,1,83.74,63.9q0.294-.168.756-0.472t0.546-.367q-0.231-.441-0.672-1.155a8.171,8.171,0,0,0-.924-1.239,7.81,7.81,0,0,0-.8-0.777Zm0.147,18.1a14.3,14.3,0,0,0,1.3-1.3,14.506,14.506,0,0,0,1.092-1.365,8.587,8.587,0,0,0,5.67,1.7l9.009-.063,0.693-1.638q-0.189,0-1.6.073t-2.058.094l-3.381.042a34.986,34.986,0,0,1-3.927-.084,9.649,9.649,0,0,1-1.722-.346,5.5,5.5,0,0,1-1.207-.535,5.189,5.189,0,0,1-.83-0.609,15.668,15.668,0,0,0,1.071-4.515H83.047a21.225,21.225,0,0,0,1.344-1.858,20.754,20.754,0,0,0,1.239-2.09V64.913H80.737v1.449h3.129a18.083,18.083,0,0,1-1.48,2.32,14.525,14.525,0,0,1-1.418,1.648v1.407l3.024-.021a8.528,8.528,0,0,1-.735,2.415,9.594,9.594,0,0,1-1.334,2.132,12.574,12.574,0,0,1-1.46,1.5Zm27.363-13.02h-6.3l0.021,1.533h6.3l-0.021,3.213h-8.043l0.021,1.512h8.022v4.41a0.721,0.721,0,0,1-.179.546,0.827,0.827,0,0,1-.535.189q-0.546.021-2.646-.168l0.588,1.722h2.9a1.408,1.408,0,0,0,1.491-1.68V72.053h7.728V70.52l-7.707.021V67.328h5.985V65.795h-5.985V62.687a28.116,28.116,0,0,0,6.783-1.659l-0.882-1.2a31.719,31.719,0,0,1-6.993,1.449,60.911,60.911,0,0,1-8,.378l0.945,1.554q4.788-.126,6.51-0.336v2.919ZM131.7,62.729l-1.176-.63q-0.273.651-.714,1.47l-1.176.21a18.828,18.828,0,0,0,1.7-2.856l-1.365-.777a18.614,18.614,0,0,1-2.226,3.948h-1.764V60.041h-1.575v4.053l-2.373-.021v1.47h2.31a19.726,19.726,0,0,1-3.108,7.476l1.449,0.777a23.9,23.9,0,0,0,1.722-3.4v8.358h1.575V68.525a16.213,16.213,0,0,1,1.239,2.142l1.134-.882a12.4,12.4,0,0,0-1.974-2.9l-0.4.378V65.543H126.7V64.43l0.525,1.071,1.743-.4a18.951,18.951,0,0,1-2.289,3.045l0.63,1.134,3.087-.462,0.378,1.134,1.3-.4,0.1,1.2h-2.541v-1.2H128.09v1.2h-2.436v1.47h2.373a7.577,7.577,0,0,1-.546,2.047A6.236,6.236,0,0,1,126.41,76a7.46,7.46,0,0,1-1.281,1.176l1.155,1.2a8.478,8.478,0,0,0,2.835-3.885,8.713,8.713,0,0,1,2.373,1.554l0.861-1.218a11.3,11.3,0,0,0-2.877-1.806l0.126-.8h2.814a10.414,10.414,0,0,0,.966,3.087,13.783,13.783,0,0,1-4.893,1.575l0.777,1.428a18.474,18.474,0,0,0,2.677-.756,17.883,17.883,0,0,0,2.3-1.029,9.264,9.264,0,0,0,1.911,1.554,2.324,2.324,0,0,0,1.575.378,1.6,1.6,0,0,0,1.134-.987,14.942,14.942,0,0,0,.8-2.667l-1.533-.63-0.441,2.247a0.435,0.435,0,0,1-.273.346,0.647,0.647,0,0,1-.5-0.073,5.309,5.309,0,0,1-.693-0.472,5.379,5.379,0,0,1-.609-0.556,27.71,27.71,0,0,0,2.751-2.247l-1.05-1.008a21.024,21.024,0,0,1-2.541,2.037,11.507,11.507,0,0,1-.777-2.226h5.061v-1.47H137.5l0.252-.315a12.4,12.4,0,0,0-1.218-1.05q-0.567-.42-0.819-0.588l1.848-.252a5.367,5.367,0,0,1,.315,1.155l1.365-.5a11.473,11.473,0,0,0-1.3-3.4l-1.176.546,0.378,0.84-1.428.21a20.428,20.428,0,0,0,3.192-4.641l-1.239-.714q-0.756,1.281-.9,1.491l-1.344.168a17.252,17.252,0,0,0,1.848-2.793l-1.344-.882a15.986,15.986,0,0,1-1.134,2.132q-0.756,1.228-1.428,2.131l0.735,1.2,1.764-.42a16.115,16.115,0,0,1-2.268,2.814l0.588,1.26,1.008-.189-0.8.693a12.5,12.5,0,0,1,1.491,1.113h-2.142q-0.525-6.111-.525-10.689l-1.6-.021Zm0.273,6.3q-0.168-.609-0.483-1.449a15.1,15.1,0,0,0-.609-1.428l-1.281.567,0.42,0.756-1.407.189a21.11,21.11,0,0,0,3.108-4.683q0,2.562.252,6.048h0Zm18.192-9.618a20.3,20.3,0,0,1-2.163,3.4l-4.872.021v15.9h1.68V77.009h9.618v1.68l1.722,0.042,0.021-15.918h-6.006a14.674,14.674,0,0,0,1.491-2.6Zm4.263,9.009v2.625h-9.618v-2.6Zm0.021-4.032-0.021,2.457h-9.618V64.388h9.639Zm-9.639,11.025V72.641l9.618-.021-0.021,2.793h-9.6Zm29.5-10.542V59.852h-1.6v5.019h-1.974v1.512h2.016a29.564,29.564,0,0,1-.473,5.953,10.85,10.85,0,0,1-1.312,3.517l-4.368.336V74.951h4.053V73.4l-4.053.021V72.41h3.612V65.543H166.6V64.619h4.62V63.086H166.6V62.225a24.851,24.851,0,0,0,4.368-.945L170.006,60.1a15.483,15.483,0,0,1-2.688.556q-1.659.22-3.644,0.357t-3.685.115l0.84,1.449q1.029-.021,4.2-0.21v0.714h-4.956v1.533h4.956v0.924h-3.654V72.41h3.654v1.008h-4.137v1.533h4.137v1.365q-2.457.21-5.481,0.378l0.8,1.575,9.6-1.05a4.3,4.3,0,0,1-.588.651l1.407,0.882a12.534,12.534,0,0,0,1.932-2.888,15.141,15.141,0,0,0,1.218-3.812,31.056,31.056,0,0,0,.42-5.67h1.68a60.724,60.724,0,0,1-.305,6.153,26.335,26.335,0,0,1-.64,3.612,0.594,0.594,0,0,1-.714.42,15.377,15.377,0,0,1-1.7-.21l0.357,1.7q1.134,0.126,1.512.147a2.175,2.175,0,0,0,1.386-.357,2.038,2.038,0,0,0,.693-1.26,32.959,32.959,0,0,0,.682-4.945q0.2-2.824.242-6.772h-3.213ZM168.6,67.055v1.113H166.6V67.076Zm-5.649,1.113V67.055h2.079v1.113H162.95ZM168.6,69.68v1.2H166.6v-1.2H168.6Zm-5.649,1.2v-1.2l2.079-.021v1.218H162.95Zm20.527,7.917h1.617V65.774a40.436,40.436,0,0,0,1.974-5.04l-1.491-.693a25.719,25.719,0,0,1-2.488,5.712,16.522,16.522,0,0,1-3.266,3.906l1.533,0.945a16.2,16.2,0,0,0,1.229-1.334q0.6-.724.892-1.165V78.794Zm7.14-18.375h-1.575V75.707a2.043,2.043,0,0,0,.378,1.207,2.008,2.008,0,0,0,.924.745,2.83,2.83,0,0,0,1.008.21h4.179a1.912,1.912,0,0,0,.956-0.221,2.866,2.866,0,0,0,.724-0.6,4.888,4.888,0,0,0,.735-1.6q0.231-.882.441-2.079l-1.575-.588a17.382,17.382,0,0,1-.672,2.9,0.788,0.788,0,0,1-.357.42,1.065,1.065,0,0,1-.567.168h-3.57a0.866,0.866,0,0,1-1.029-.924V69.68a17.978,17.978,0,0,0,7.14-4.389l-1.428-.861a15.1,15.1,0,0,1-2.814,2.184,12.919,12.919,0,0,1-2.9,1.428V60.419ZM205.1,77.45h9.009v1.239h1.617V73.082H205.078v-1.05l9.723-.021-0.021-4.284h-11.3l-0.021,11.025h1.659Zm-4.389-8.274,1.575,0.021,0.021-2.541h13.776v2.436l1.6,0.021V65.165H210.16a5.6,5.6,0,0,0-.305-0.472q-0.3-.451-0.619-0.851a7.176,7.176,0,0,0-.5-0.588l-1.512.483a8.666,8.666,0,0,1,.745.8,4.581,4.581,0,0,1,.452.63H200.71v4.011Zm0.336-4.053A8.844,8.844,0,0,0,203.251,63h1.218a7.442,7.442,0,0,1,1.2,2.016l1.428-.777a7.794,7.794,0,0,1-.441-0.745Q206.4,63.023,206.38,63l3.171-.021V61.49h-5.439l0.525-1.155-1.365-.651a11.716,11.716,0,0,1-1.691,2.772,8.383,8.383,0,0,1-1.732,1.533ZM218.119,62.9V61.406h-5.733a5.566,5.566,0,0,0,.294-1.239l-1.407-.525a9.318,9.318,0,0,1-.767,2.142,8.209,8.209,0,0,1-1.312,1.848l1.239,0.9a6.608,6.608,0,0,0,1.26-1.617h1.386a6.785,6.785,0,0,1,1.365,1.995,8.455,8.455,0,0,0,1.428-.735,5.6,5.6,0,0,0-.966-1.281h3.213Zm-13.041,6.321h8.106l0.021,1.3h-8.127v-1.3Zm9.03,5.355V75.98L205.12,76,205.1,74.615Zm13.24-13.524V70.2H231.7l-0.021,2.016H227.5v1.512h4.2l-0.021,2.415h-5.523v1.491H238.9V76.148h-5.607V73.733h4.179V72.221h-4.137V70.2H237.6l0.042-9.135Zm1.6,3.759V62.561l2.751,0.021-0.021,2.226h-2.73Zm7.077,1.533v2.373l-2.709-.021V66.32Zm-2.688-3.78,2.751,0.021-0.042,2.247h-2.688ZM231.7,66.278l-0.021,2.436h-2.73V66.3Zm-4.578,7.266V71.969q-0.546.21-1.438,0.578t-1.1.451V68.756h2.058V67.265l-2.058.021,0.021-4.158h2.331V61.637l-6.51-.021v1.533l2.52-.021-0.021,4.158-2.079-.021-0.021,1.491h2.142v4.851q-2.352.882-3.171,1.113,0.336,0.336.851,0.788t0.535,0.472ZM91.6,89.53l0.021-4.872H84.442a6.66,6.66,0,0,0-1.911-2.037L81,83.482a8.847,8.847,0,0,1,1.617,1.176h-7.56v5h1.638V86.191H90.028V89.53H91.6ZM90.616,93.5a10.735,10.735,0,0,0-1.764-1.932,10.112,10.112,0,0,0-2.121-1.512L85.366,91l1.281,0.819-6.846.525a10.143,10.143,0,0,0,1.712-1.407,18,18,0,0,0,1.712-1.953h5.859V87.472l-11.424-.021,0.021,1.533H81.1a14,14,0,0,1-2.026,2.069,13.178,13.178,0,0,1-2.53,1.691l1.008,1.575q1.386-.231,5.334-0.63t4.4-.441q0.451-.042.934-0.1,0.084,0.105.389,0.43t0.451,0.5q0.147,0.179.231,0.283Zm1.323,7.161V99.148l-7.707.021V97.237l6.111,0.021V95.725H84.232L84.19,94.108h-1.6v1.6l-6.132.021v1.512l6.132,0.021v1.89H74.845v1.533Zm9.009-8.4h9.912l-0.021-8.106h-9.891V92.26Zm8.3-2.877a14.072,14.072,0,0,0-2.688-1.89,5.736,5.736,0,0,0,.231-1.617l-0.861-.189h3.3Zm-6.678-3.7h2.625a4.12,4.12,0,0,1-.63,2.4,3.711,3.711,0,0,1-2,1.25V85.687Zm6.657,5.04h-6.678v-0.9l0.945,0.861a6.769,6.769,0,0,0,2.457-1.722,5.775,5.775,0,0,1,2.289,1.743l0.987-.84v0.861Zm4.074,10.458V99.631h-1.407V93.52H99.856v6.111H98.533l-0.021,1.554H113.3Zm-6.447-1.554h-1.932V95.053h1.932v4.578Zm3.4,0h-1.869l-0.021-4.578h1.869Zm-8.736-4.578h1.869v4.578h-1.869V95.053Zm-1.008-8.295a4.4,4.4,0,0,0-.766-0.987A7.581,7.581,0,0,0,98.4,84.71a12.065,12.065,0,0,0-1.564-.851L95.7,84.889a7.733,7.733,0,0,1,3.549,3.045Zm-1.176,4.116a8.011,8.011,0,0,0-4.011-2.793l-1.05,1.092a14.2,14.2,0,0,1,1.659.861,7.571,7.571,0,0,1,1.3.987,9.266,9.266,0,0,1,.9.987Zm-3.465,10.689a12.182,12.182,0,0,0,2.026-3.5,22.861,22.861,0,0,0,1.355-4.588l-1.365-.672a21.226,21.226,0,0,1-1.365,4.316,12.1,12.1,0,0,1-2.226,3.623ZM121.8,92.974a17.313,17.313,0,0,0-2.877-2.688l-1.176,1.176q0.336,0.294.935,0.913a12.612,12.612,0,0,1,1.029,1.2q0.429,0.578.6,0.85Zm14.49,5.334,6.258,0.021V92.3l-14.07-.021v6.048l6.237-.021-0.021.9a2.973,2.973,0,0,0,.116.8,1.288,1.288,0,0,0,.493.7,1.64,1.64,0,0,0,1.008.284h6.405a1.562,1.562,0,0,0,1.3-.725,7.69,7.69,0,0,0,.882-2.95l-1.512-.5q-0.189,1.323-.315,1.869a1.476,1.476,0,0,1-.283.535,0.6,0.6,0,0,1-.473.242H137a0.821,0.821,0,0,1-.546-0.147,0.457,0.457,0,0,1-.168-0.357V98.308Zm0-3.738V93.835l4.683-.042-0.021.777h-4.662ZM130.048,96.8V95.935h4.662l-0.021.861h-4.641Zm4.641-2.982,0.021,0.756h-4.662V93.835Zm6.258,2.982h-4.662V95.935l4.683,0.021Zm-6.237-9.114L134.689,91.9h1.6V87.7l5.943-.021V89.53l1.6-.021-0.021-3.36h-7.518V85.393h6.531l0.021-1.512H128.158v1.512h6.531v0.756h-7.6l0.021,3.528,1.575-.021V87.682h6.027Zm2.2,2.016,4.956-.021V88.291h-4.977Zm-2.856-1.407h-4.893v1.386h4.893V88.291Zm2.856,2v1.365h4.956l-0.021-1.365h-4.935Zm-7.749,0,0.021,1.365h4.872l0.021-1.365h-4.914Zm23.3,9.03-0.021,1.491H164.7V99.316l-4.221-.021a8.4,8.4,0,0,0,1.26-2.52l-1.26-.441h1.827l-0.021-4.662h-7.455v4.662l1.659,0.042-1.386.525a4.576,4.576,0,0,1,1.113,1.05,5.5,5.5,0,0,1,.8,1.365h-4.557Zm3.948-6.111h4.305v1.6h-4.305V93.2Zm0.966,6.069,1.071-.5a5.437,5.437,0,0,0-1.806-2.436h3.654a8.79,8.79,0,0,1-1.6,2.982Zm-8.022-16.086L149.4,89.74l-0.105,4.578a9.315,9.315,0,0,1-3.066,6.762l1.281,1.029a11.5,11.5,0,0,0,3.087-5.565,4.816,4.816,0,0,1,1.355,1.008,5.494,5.494,0,0,1,1.081,1.554,13.585,13.585,0,0,0,1.365-.945A12.068,12.068,0,0,0,152.7,96.2a7.667,7.667,0,0,0-1.9-1.334q0.126-.9.147-4.179a9.022,9.022,0,0,0,2.772-2.373l-0.409-.409a5.777,5.777,0,0,0-.494-0.451q-0.189-.147-0.252-0.189a10.676,10.676,0,0,1-.829,1.05,3.97,3.97,0,0,1-.788.714q-0.084-3.129-.021-5.838h-1.575Zm16.233,8.127a7.458,7.458,0,0,1-1.743-1.165,15.031,15.031,0,0,1-1.533-1.481,7.158,7.158,0,0,0,2.184-2.058q-0.042-.042-0.42-0.378a4.923,4.923,0,0,0-.651-0.5,6.668,6.668,0,0,1-1.848,1.848,2.582,2.582,0,0,1-.5-0.861,9.821,9.821,0,0,0,2.268-2.289q-0.147-.1-0.5-0.42a5.077,5.077,0,0,0-.588-0.462,7.11,7.11,0,0,1-1.785,1.89,19.641,19.641,0,0,1-.861-2.688,4.433,4.433,0,0,0-.745.252q-0.451.189-.62,0.252a16.657,16.657,0,0,0,2.331,5.544h-3.948a5.9,5.9,0,0,0,.756-1.449,9.117,9.117,0,0,0,.525-1.89,10.182,10.182,0,0,0,.147-1.554h-5.67v1.554H156.3a8.32,8.32,0,0,1-.357,1.124q-0.273.724-.462,1.1a4.142,4.142,0,0,0-.682-0.892q-0.409-.409-1.082-0.956l-1.176.987a5.384,5.384,0,0,1,2.121,2.058,7.137,7.137,0,0,1-1.155,1.144,13.96,13.96,0,0,1-2.2,1.376l1.281,1.218a14.12,14.12,0,0,0,3.108-2.625l0.021,0.336h5.628l0.042-.357a8.755,8.755,0,0,0,1.554,1.543,11.366,11.366,0,0,0,1.6,1.061Zm-17.871,1.05a7.178,7.178,0,0,0,.714-1.69,8.9,8.9,0,0,0,.357-1.806,6.53,6.53,0,0,0,0-1.291l-1.533-.357a7.661,7.661,0,0,1-1.155,4.746Zm29.547,2.982a7.881,7.881,0,0,0-.966-1.69,10.45,10.45,0,0,0-1.312-1.533,6.855,6.855,0,0,0-1.061-.85l-0.567.4V90.139l3.549,0.021,0.021-1.533-3.57.021V85.624a19.371,19.371,0,0,0,1.964-.7,9.7,9.7,0,0,0,1.333-.641l-0.966-1.2a14.772,14.772,0,0,1-3.727,1.3,35.079,35.079,0,0,1-4.631.609l0.651,1.449a13.16,13.16,0,0,0,1.386-.115q0.693-.094,1.428-0.2t0.966-.147v2.667l-4.095-.021V90.16h4.011a12.375,12.375,0,0,1-1.995,3.675,18.256,18.256,0,0,1-3.318,3.339l1.47,1.071a23.783,23.783,0,0,0,1.838-1.827,16.838,16.838,0,0,0,1.375-1.7,8.462,8.462,0,0,0,.714-1.2v8.274h1.6v-9.03a8.761,8.761,0,0,1,2.583,3.549Zm6.762-10.563h-6.552l0.021,15.771h1.575v-2.1h3.36v2.079l1.6-.021V84.784Zm-4.956,1.533h3.36V96.9h-3.36V86.317Zm17.18,11.991,6.258,0.021V92.3l-14.07-.021v6.048l6.237-.021-0.021.9a3.014,3.014,0,0,0,.116.8,1.293,1.293,0,0,0,.493.7,1.64,1.64,0,0,0,1.008.284h6.405a1.562,1.562,0,0,0,1.3-.725,7.69,7.69,0,0,0,.882-2.95l-1.512-.5q-0.189,1.323-.315,1.869a1.461,1.461,0,0,1-.283.535,0.6,0.6,0,0,1-.473.242h-5.313a0.821,0.821,0,0,1-.546-0.147,0.457,0.457,0,0,1-.168-0.357V98.308Zm0-3.738V93.835l4.683-.042-0.021.777h-4.662ZM190.011,96.8V95.935h4.662l-0.021.861h-4.641Zm4.641-2.982,0.021,0.756h-4.662V93.835ZM200.91,96.8h-4.662V95.935l4.683,0.021Zm-6.237-9.114L194.652,91.9h1.6V87.7l5.943-.021V89.53l1.6-.021-0.021-3.36h-7.518V85.393h6.531l0.021-1.512H188.121v1.512h6.531v0.756h-7.6l0.021,3.528,1.575-.021V87.682h6.027Zm2.2,2.016,4.956-.021V88.291h-4.977Zm-2.856-1.407h-4.893v1.386h4.893V88.291Zm2.856,2v1.365h4.956l-0.021-1.365h-4.935Zm-7.749,0,0.021,1.365h4.872l0.021-1.365h-4.914ZM214.7,89.11V83.965h-7.056V89.11H214.7Zm-1.659-1.554h-3.759V85.519h3.759v2.037Zm3.3,1.533,2.541,0.042-1.2.588q0.693,0.273,1.407.63h-3.129a5.306,5.306,0,0,0,.336-1.533l-1.512-.315a5.311,5.311,0,0,1-.462,1.869l-7.35.021v1.554l6.111,0.042q-2.331,1.449-7.014,1.554l0.546,1.6a29.428,29.428,0,0,0,4.294-.588,8.549,8.549,0,0,0,2.531-1.029A6.323,6.323,0,0,0,215.2,91.9h0.441a4.339,4.339,0,0,0,.966,1.113,5.333,5.333,0,0,0,1.3.882,16.4,16.4,0,0,0,2.824.829,17.51,17.51,0,0,0,3.6.451,8.884,8.884,0,0,0,.441-0.871q0.252-.556.336-0.746a22.6,22.6,0,0,1-3.486-.221,10.822,10.822,0,0,1-2.615-.64,4.012,4.012,0,0,1-1.312-.8H224.1V90.349h-3.087a6.857,6.857,0,0,0-1.428-1.26h3.78V83.881l-7.035.021v5.187Zm1.617-1.554V85.477h3.759v2.058H217.95Zm5.208,14.217,0.021-6.594-6.783.021-0.021,6.573h1.68v-1.3H221.5l0.021,1.3h1.638Zm-1.638-5.019v2.184h-3.507V96.733h3.507Zm-12.012,3.8h3.528v1.218H214.7V95.221l-6.846-.021v6.594h1.659v-1.26Zm0-1.575v-2.2h3.507v2.2h-3.507Z"/>
</svg>
