<svg id="TC" xmlns="http://www.w3.org/2000/svg" width="300" height="250" viewBox="0 0 300 250">
  <defs>
    <style>
      .cls-1 {
        fill: #fffffe;
        fill-rule: evenodd;
      }
    </style>
  </defs>
  <path id="_" data-name="$" class="cls-1" d="M87.2,139.447c0-6.616-4.243-8.821-11.261-10.046l-1.469-.245v-9.638c3.917,0.327,5.549,2.206,5.712,5.064h5.875c-0.326-5.962-4.243-9.637-11.587-10.046v-4.818H71.7v4.737c-8,.408-11.832,4.328-11.832,9.637,0,6.534,4.243,9.066,10.771,10.21l1.061,0.163v10.128c-4.08-.327-6.2-1.879-6.528-5.8H59.129c0.245,6.125,4.08,10.291,12.567,10.781v4.818H74.47v-4.737C82.386,149.411,87.2,145.818,87.2,139.447Zm-21.053-15.6c0-2.45,1.714-4.084,5.549-4.329v9.148C67.534,127.849,66.147,126.461,66.147,123.847Zm8.323,20.827v-9.719c5.222,0.98,6.447,2.287,6.447,4.9C80.917,142.551,79.121,144.429,74.47,144.674Z"/>
  <path id="每月僅" class="cls-1" d="M135.932,149.045c6.608-3.649,11.052-9.465,11.052-17.79,0-14.255-10.938-22.009-25.978-22.009-16.406,0-26.433,9.693-26.547,24.176h9.571c0.456-10.948,7.634-15.509,16.976-15.509,9.913,0,16.293,4.9,16.293,13.57s-5.925,13.8-16.862,13.8h-5.469v7.983h6.038c11.394,0,18.458,6.386,18.458,16.193s-7.064,15.966-17.888,15.966c-11.849,0-18.572-6.159-18.913-17.676H93.206c-0.114,15.737,9.8,26.342,28.37,26.342,16.521,0,27.914-9.807,27.914-24.632C149.49,159.309,143.338,152.923,135.932,149.045Zm63.57-.342c6.836-2.965,11.735-8.667,11.735-17.22,0-14.483-11.735-22.237-26.091-22.237S159.055,117,159.055,131.483c0,8.553,4.9,14.255,11.735,17.22-9,3.421-15.039,10.492-15.039,20.527,0,15.4,11.963,24.86,29.395,24.86s29.4-9.465,29.4-24.86C214.542,159.2,208.5,152.124,199.5,148.7Zm-14.356-30.79c9.343,0,16.635,4.675,16.635,13.57s-7.292,13.571-16.635,13.571-16.634-4.676-16.634-13.571S175.8,117.913,185.146,117.913Zm0,67.511c-11.735,0-19.369-5.816-19.369-16.194s7.634-16.193,19.369-16.193,19.369,5.816,19.369,16.193S196.882,185.424,185.146,185.424Zm54.3,7.192,0.9-1.9-6.219.15a35.534,35.534,0,0,1-5.183-.125,11.871,11.871,0,0,1-2.885-.7v-4.275h3.022v-1.775l-3.1.025,0.025-2.675,3.5,0.025v-1.8h-4.4l0.05-2.8h3.546l0.025-1.825h-3.6l-0.025-3.575h-1.949l0.025,3.575h-3.621v1.825l3.6-.05,0.025,2.85h-4.371v1.8h5.3v7.75a5.674,5.674,0,0,1-1.237-.875,6.38,6.38,0,0,1-1.011-1.125q0.124-1,.224-3.625l-1.948-.25a31.922,31.922,0,0,1-.35,4.8,14.591,14.591,0,0,1-2.2,4.875l1.6,1.1a15.419,15.419,0,0,0,1.361-2.125,11.393,11.393,0,0,0,.987-2.425,12.138,12.138,0,0,0,8.143,3.15l4.52,0.075Zm-3.023-3.625a2.192,2.192,0,0,0,.925-0.35,2.717,2.717,0,0,0,.749-0.675,15.05,15.05,0,0,0,1.2-3.525l-1.824-.775a16.188,16.188,0,0,1-.474,2.15,2.928,2.928,0,0,1-.425,1.025,0.985,0.985,0,0,1-.549.35h-3.6a0.521,0.521,0,0,1-.362-0.15,0.46,0.46,0,0,1-.162-0.35l-0.025-5h4.146l-0.025,1h1.923v-9.45h-7.893v13.875a1.918,1.918,0,0,0,.225.887,1.666,1.666,0,0,0,.7.7,1.907,1.907,0,0,0,.925.263Zm-4.5-9.1v-4.875H236v4.875h-4.072Zm11.542-.569,1.325-1.807,1.325,1.807,0.844-.67-1.339-1.836,2.125-.7-0.349-1.006-2.067.671v-2.215h-1.078v2.215l-2.067-.671-0.349,1.006,2.14,0.7-1.339,1.836ZM101.113,67.5q-0.709,7.125-.854,8.125T100.03,77L93.4,76.954,93.363,80h6.208q-0.709,4.334-2.083,9.958h22.625a4.409,4.409,0,0,1-.708,1.854,1.5,1.5,0,0,1-1.084.521q-0.624.042-2.146,0a36.856,36.856,0,0,1-5.062-.708l1.125,3.208a43.459,43.459,0,0,0,5.458.458,20.275,20.275,0,0,0,2.292-.167,3.584,3.584,0,0,0,1.708-.792,4.5,4.5,0,0,0,1.229-1.792,14.468,14.468,0,0,0,.771-2.583h4.125l-0.041-3.042-3.709.042L125.03,80h4.541V76.954h-4.333q0-.083.271-3.75t0.312-5.708H101.113Zm2.208,9.458q0.167-.958.417-3.333t0.333-3.042l18.292-.042a64.4,64.4,0,0,1-.5,6.458Zm18.292,3q-0.375,3.375-.917,6.958l-19,.042L102.905,80h4.375l-1.75,2.292a37.679,37.679,0,0,1,6.25,2.229,17.529,17.529,0,0,1,3.541,2.271l2.209-2.167a19.236,19.236,0,0,0-4.271-2.75,27.324,27.324,0,0,0-5.146-1.917h13.5Zm-3.792-5.417a12.737,12.737,0,0,0-3.75-2.312,25.2,25.2,0,0,0-5.625-1.479l-2.166,2.292a22.548,22.548,0,0,1,5.145,1.417,16.651,16.651,0,0,1,4.146,2.375ZM128.7,64.2v-3H104.571a9.256,9.256,0,0,1,.479-1.042,9.143,9.143,0,0,0,.646-1.625l-3.041-1A29.041,29.041,0,0,1,100.8,61.7a31.118,31.118,0,0,1-3.312,4.958,31.031,31.031,0,0,1-4,4.208l2.583,1.958a41.64,41.64,0,0,0,7.042-8.625H128.7Zm29.129,18.125-0.041,8.125a0.776,0.776,0,0,1-.334.6,1.1,1.1,0,0,1-.708.271l-5.375-.167,1.25,3.333,5.042-.042a4.3,4.3,0,0,0,1.646-.354,3.111,3.111,0,0,0,1.395-1.146,2.845,2.845,0,0,0,.542-1.625L161.2,60.038H140.45l0.042,19.25a14.063,14.063,0,0,1-2.1,7.4,20.829,20.829,0,0,1-5.938,6.188l2.042,2.958a46.077,46.077,0,0,0,3.729-3.437,22.04,22.04,0,0,0,3.354-4.479,20.508,20.508,0,0,0,2.167-5.583h14.083Zm-13.958-12.75v-6.5l13.917,0.042v6.458H143.867ZM157.784,72.7l0.041,6.542h-14q0.084-1.083.063-3.333t0.021-3.25Zm32.158-1.833-9.833-.042v8.417h9.833v1.875h-9.833v2.917h9.833v1.792h-8.625l0.042,2.875,8.708-.083v2.292l-12.25-.042V93.7l28.5-.042-0.042-2.833-13.083.083V88.621l8.583,0.042-0.041-2.875-8.542-.042V83.954L202.984,84V81.121h-9.875l-0.042-1.875h9.917l0.041-8.375-9.958-.042v-1.75l5.458-.042V64.163h6.792V61.288h-6.792l-0.041-3.208h-3.167l-0.042,3.167h-7.666V58.121h-3.292v3.167l-5.083-.042-0.042,2.917h5.083v4.792L189.9,69Zm9.833,2.875-0.083,2.583-6.625-.042V73.7ZM183.317,73.7H189.9v2.667l-6.541.042Zm4.292-7.583,0.041-1.958h7.625v1.958h-7.666ZM170.65,78.871A45.306,45.306,0,0,0,173.9,74.5V95.579h3.292l-0.042-28.25q0.166-.583,1.1-3.521a45.617,45.617,0,0,0,1.27-4.6l-2.958-1.542a67.625,67.625,0,0,1-2.271,8.083,34.977,34.977,0,0,1-2.979,6.458A33.846,33.846,0,0,1,167.859,77Z"/>
</svg>
