<svg id="Frame_3" data-name="Frame 3" xmlns="http://www.w3.org/2000/svg" width="300" height="250" viewBox="0 0 300 250">
  <defs>
    <style>
      .cls-1 {
        fill: #4b286d;
        fill-rule: evenodd;
      }
    </style>
  </defs>
  <path id="智能家居安防" class="cls-1" d="M72.478,60.633L72.45,62.7h4.984a4.46,4.46,0,0,1-1.008,1.512,6.725,6.725,0,0,1-2.016,1.358,11.574,11.574,0,0,1-2.772.882l1.008,2.1a12.87,12.87,0,0,0,2-.644,7.874,7.874,0,0,0,1.3-.644V78.945l2.1,0.028V77.181H89.67v1.652h2.184L91.826,67.045,76.2,66.989a7.2,7.2,0,0,0,2.324-1.9,9.875,9.875,0,0,1,2.1.308,22.966,22.966,0,0,1,3.332,1.26l1.12-1.708a10.648,10.648,0,0,0-2.2-1.008,19.932,19.932,0,0,0-3.346-.728l0.224-.532h4.648V60.661l-4.34-.028a10.186,10.186,0,0,0,.14-2.408l3.276-.028V56.181l-6.468-.028a5.715,5.715,0,0,0,.476-1.54l-2.044-.784a11.276,11.276,0,0,1-1.036,3.332,7.523,7.523,0,0,1-2.072,2.492l1.96,0.868a10.757,10.757,0,0,0,1.232-1.134,6.1,6.1,0,0,0,.9-1.19h1.68a9.382,9.382,0,0,1-.14,2.464ZM89.67,71.1H78.05V69.061l11.62,0.028V71.1Zm-0.028,4.032H78.05V73.149H89.67Zm4.816-10.22V55.649H85.19v9.268h9.268ZM92.33,62.9H87.29l0.028-5.208H92.33V62.9Zm17.424,0.644H99.646V78.833l2.128,0.028q-0.029-3.164,0-5.852H107.6v2.632a0.906,0.906,0,0,1-.126.448,0.444,0.444,0,0,1-.322.252,7.1,7.1,0,0,1-1.554,0q-0.966-.084-1.386-0.112l0.784,2.156a19.334,19.334,0,0,0,3.024-.084,1.742,1.742,0,0,0,1.246-.658,3.484,3.484,0,0,0,.49-1.414V63.545ZM101.8,67.269l-0.028-1.708H107.6v1.68Zm-0.028,2.016h5.852L107.6,70.993h-5.824V69.285Zm1.848-15.876q-1.709,2.912-2.3,3.724a16.56,16.56,0,0,1-1.134,1.414,10.534,10.534,0,0,1-1.05,1.022,2.783,2.783,0,0,1-.588.518,6.5,6.5,0,0,0-.616.49l1.54,1.876q0.5-.056,2.926-0.378t3.92-.476q1.5-.154,2.534-0.21,0.5,1.12.574,1.33t0.126,0.406a9.213,9.213,0,0,0,1.2-.476q0.727-.336.812-0.364a17.327,17.327,0,0,0-1.68-3.15,12.355,12.355,0,0,0-2.268-2.562l-1.876,1.036a17.83,17.83,0,0,1,1.736,1.848l-5.964.5a14.173,14.173,0,0,0,2.044-2.352,28.5,28.5,0,0,0,1.988-3.22Zm16.744,6.356q-0.617,3.78-1.316,3.78h-3.7a1.972,1.972,0,0,1-.966-0.238,0.681,0.681,0,0,1-.434-0.574V60.689a27.424,27.424,0,0,0,4.816-1.9,17.976,17.976,0,0,0,3.08-2.044l-1.288-1.6a17.966,17.966,0,0,1-3.29,2.086,19.055,19.055,0,0,1-3.318,1.358l-0.028-4.844-2.1.028,0.028,9.716a2.2,2.2,0,0,0,.8,1.442,2.59,2.59,0,0,0,1.778.63h4.984a1.758,1.758,0,0,0,1.232-.574,3.422,3.422,0,0,0,.84-1.246,30.474,30.474,0,0,0,.924-3.192Zm-8.6,6.58V75.3a2.119,2.119,0,0,0,.448,1.26,2.473,2.473,0,0,0,1.064.868,2.942,2.942,0,0,0,1.092.252l5.068-.028a3.189,3.189,0,0,0,1.008-.294,2.208,2.208,0,0,0,.812-0.63,4.507,4.507,0,0,0,.532-0.938,10.516,10.516,0,0,0,.518-1.68q0.266-1.106.378-1.414l-1.988-.756a12.286,12.286,0,0,1-.672,2.94,1.233,1.233,0,0,1-.84.784h-4.312a1.151,1.151,0,0,1-.77-0.21,0.635,0.635,0,0,1-.238-0.49l0.028-2.632a23.688,23.688,0,0,0,4.27-1.3,17.023,17.023,0,0,0,3.962-2.254L120.7,67.3a15.714,15.714,0,0,1-3.3,1.82,22.913,22.913,0,0,1-3.5,1.12l-0.028-3.92Zm36.792-9.3H139.1a10.4,10.4,0,0,0-1.694-2.184,9.627,9.627,0,0,0-1.862-1.484L133.778,54.7a20.651,20.651,0,0,1,2.2,1.764,4.15,4.15,0,0,1,.462.588H126.33v5.208h2.156l-0.028-3.22h17.948v3.108h2.156v-5.1Zm1.344,18a7.79,7.79,0,0,1-2.422-1.512,13.114,13.114,0,0,1-2.142-2.492,11.071,11.071,0,0,1-1.428-2.912,20.483,20.483,0,0,0,3.108-2.8L145.4,63.909a12.147,12.147,0,0,1-5.18,4.032,7.355,7.355,0,0,0-1.134-1.778,6.614,6.614,0,0,0-1.5-1.358,20.1,20.1,0,0,0,2.688-1.792h5.152V61.025H129.634l-0.028,2.016,7.056,0.028q-3.472,2.1-10.192,3.164l1.456,1.848a24.423,24.423,0,0,0,7.588-2.212,8.468,8.468,0,0,1,1.4.952,18.48,18.48,0,0,1-2.6,1.54,19.726,19.726,0,0,1-3.71,1.358,40.222,40.222,0,0,1-4.662.938l1.484,1.82a21.114,21.114,0,0,0,5.67-1.372,25.985,25.985,0,0,0,4.97-2.688,11.568,11.568,0,0,1,.756,1.624,18.511,18.511,0,0,1-5.88,3.4,38.648,38.648,0,0,1-7.56,1.834l1.54,1.932a45.092,45.092,0,0,0,4.662-1.134,28.991,28.991,0,0,0,4.256-1.638,15.485,15.485,0,0,0,3.43-2.212,23.3,23.3,0,0,1-.112,3.752,1.217,1.217,0,0,1-.308.532,1.538,1.538,0,0,1-.5.392,9.376,9.376,0,0,1-2.044-.182,23.4,23.4,0,0,1-2.66-.714l0.868,2.492q3.612,0.672,4.9.2a2.42,2.42,0,0,0,1.246-.966,5.416,5.416,0,0,0,.658-2.422,16.028,16.028,0,0,0-.014-2.758,20.722,20.722,0,0,0-.406-2.758l1.344-.56a16.789,16.789,0,0,0,1.148,2.506,13.737,13.737,0,0,0,2.142,2.87,8.706,8.706,0,0,0,2.982,2.1Zm3.735,4.032a13.324,13.324,0,0,0,2.366-4.032,17.266,17.266,0,0,0,.924-4.942q0.154-2.814.182-3.206l8.148,0.028,0.028,3h-6.72l0.028,8.96,2.072-.028,0.028-1.652h11.452v1.652h2.128V69.9l-6.888.028-0.028-3h8.9V64.889l-8.9.028L167.389,62h-2.1l-0.028,2.884H157l0.028-3.108h17.836V55.145H154.873V67.017a35.3,35.3,0,0,1-.168,4.186,14.245,14.245,0,0,1-.5,2.3,12.47,12.47,0,0,1-.938,2.2,11.834,11.834,0,0,1-1.47,2.128Zm3.36-21.9h15.736l0.028,2.576L157,59.737V57.189Zm3.668,18,0.028-3.22,11.48-.028-0.028,3.248h-11.48Zm41-12.824-0.028-5.152-9.352-.056,0.812-.588a9.9,9.9,0,0,0-4.676-2.968l-1.708,1.428a9.877,9.877,0,0,1,4.116,2.184H180.5v5.32h2.1v-3.22h16.94v3.052h2.128Zm0.476,14.588a25.916,25.916,0,0,0-3.08-1.848,51.213,51.213,0,0,0-4.872-2.1A11.02,11.02,0,0,0,195.9,70.7a27.742,27.742,0,0,0,1.792-4.1l4.508-.028V64.553H189.711l1.848-3.472-1.932-.952L187.3,64.553h-7.392V66.6l6.272-.028a36.406,36.406,0,0,1-3.36,5.376q3.5,0.728,7.056,1.848-4.06,2.688-10.836,3.22L180.415,79a25.693,25.693,0,0,0,4.83-.91,21.432,21.432,0,0,0,4.186-1.666,24.493,24.493,0,0,0,3.052-1.9q3.584,1.512,4.844,2.128a17.625,17.625,0,0,1,2.184,1.246q0.924,0.63,1.26.91ZM188.731,66.569l6.692,0.028a10.007,10.007,0,0,1-1.33,3.038,12.183,12.183,0,0,1-2.114,2.59q-2.549-.84-5.6-1.624Zm25.144-9.576V55.229h-7.812L206.091,79h2.1V57.273h3.472l-2.576,6.608a8.249,8.249,0,0,1,2.716,3.78,2.567,2.567,0,0,1,.084,1.428,1.452,1.452,0,0,1-.532.812q-1.12.532-3.08-.476l0.616,2.492a4.753,4.753,0,0,0,1.3.238,5.193,5.193,0,0,0,1.3-.07,3.144,3.144,0,0,0,1.5-.8,3.253,3.253,0,0,0,.938-1.442,8.4,8.4,0,0,0,.056-1.946,5.322,5.322,0,0,0-.658-2.086,15.329,15.329,0,0,0-1.75-2.464Zm5.432,8.092q0.084-.784.126-2.408t0.1-2.184h9.94V58.449h-7.616l1.456-1.288a15.022,15.022,0,0,0-2.408-2.184,11.254,11.254,0,0,0-2.408-1.4l-1.484,1.456a9.232,9.232,0,0,1,4.648,3.416h-7.616v2.044h3.276q0.056,1.428-.126,4.13t-0.378,4.13a12.971,12.971,0,0,1-1.764,4.83,13.364,13.364,0,0,1-3.668,3.906l1.848,1.54,2.268-2.3a12.744,12.744,0,0,0,2.59-4.354,20.5,20.5,0,0,0,1.106-5.222l5.656-.028q-0.309,4-.532,5.446t-0.448,2.338a1.416,1.416,0,0,1-.924,1.26,8.865,8.865,0,0,1-1.9-.336q-0.981-.28-2.52-0.84l0.616,2.464c0.056,0.018.354,0.107,0.9,0.266s1.073,0.3,1.6.42a6.177,6.177,0,0,0,1.372.182,3.643,3.643,0,0,0,.98-0.112,2.9,2.9,0,0,0,1.876-2.324,38.506,38.506,0,0,0,.812-4.76q0.363-3.024.56-6.048h-7.924Z"/>
</svg>
