<svg id="TC" xmlns="http://www.w3.org/2000/svg" width="300" height="250" viewBox="0 0 300 250">
  <defs>
    <style>
      .cls-1 {
        fill: #4b286d;
        fill-rule: evenodd;
      }
    </style>
  </defs>
  <path id="選用全新升級版Optik_TV_" data-name="選用全新升級版Optik TV®" class="cls-1" d="M40.945,67.374V63.132H35.3V68.8a1.4,1.4,0,0,0,.455,1.077,1.708,1.708,0,0,0,1.206.42h3.187a2.064,2.064,0,0,0,1.093-.68,5.025,5.025,0,0,0,.933-1.724Zm-1.616-1.588-2.413-.023V64.7h2.413v1.089ZM36.916,67.4l3.71-.023q-0.387,1.407-.751,1.406H37.463a0.482,0.482,0,0,1-.546-0.544V67.4Zm-3.209.068q-0.046.136-.182,0.6a1.915,1.915,0,0,1-.25.6,0.418,0.418,0,0,1-.25.159H30.839a0.707,0.707,0,0,1-.376-0.091,0.279,0.279,0,0,1-.148-0.249V67.419h4.029l-0.023-4.264-5.667-.023v6.034a1.038,1.038,0,0,0,.467.851,1.853,1.853,0,0,0,1.149.352l3.027-.023a1.213,1.213,0,0,0,.694-0.272,2.421,2.421,0,0,0,.683-0.862,4.907,4.907,0,0,0,.444-1.2ZM32.683,64.72v1.111H30.316L30.293,64.72h2.39Zm-3.346,8.529h2.322l0.023,1.588H28.495V76.4H42.2l-0.023-1.588-3.505.023-0.023-1.588h2.3V71.684H38.623V70.572H36.962v1.111l-3.573-.023-0.023-1.089H31.659v1.111H29.314Zm4.029,0h3.619l-0.023,1.588H33.388Zm-6.123-7.6a6.205,6.205,0,0,0-1.013-1.543A11.548,11.548,0,0,0,24.1,62.338l-1.275,1a6.552,6.552,0,0,1,3.05,3.221Zm15,15.878,0.728-1.769q-2.163.159-2.526,0.181t-0.614.023l-8.217.113a7.548,7.548,0,0,1-2.208-.261,15.432,15.432,0,0,1-2.413-.964,17.98,17.98,0,0,0,1.07-5.512l-2.527-.023A14.476,14.476,0,0,0,26.97,71.23a9.056,9.056,0,0,0,.933-2.223V67.6H22.691v1.565h3.437a11.422,11.422,0,0,1-2.913,4.287V74.9l3.1-.023a15.657,15.657,0,0,1-.614,2.541,6.986,6.986,0,0,1-1.252,2.212,10.171,10.171,0,0,1-2.026,1.871l1.206,1.225a15,15,0,0,0,2.617-2.654,13.005,13.005,0,0,0,2.993,1.282,8.851,8.851,0,0,0,2.265.261ZM35.824,77.74a11.254,11.254,0,0,1,2.515.817,6.625,6.625,0,0,1,2.014,1.361l1.07-1.27a7.738,7.738,0,0,0-2.105-1.338,13.565,13.565,0,0,0-2.583-.771Zm-6.054,2.041a8.028,8.028,0,0,0,2.4-.68A14.586,14.586,0,0,0,34.5,77.717l-1-1.157a7.973,7.973,0,0,1-2.06,1.111,12.635,12.635,0,0,1-2.538.7ZM48.706,63V73.09a15.088,15.088,0,0,1-.25,2.711,11.054,11.054,0,0,1-.728,2.461,14.433,14.433,0,0,1-2.117,3.176l1.457,1.089a15.042,15.042,0,0,0,2.3-3.437,14.369,14.369,0,0,0,1.024-4.3h4.985v5.4h1.775v-5.4h4.962v4.854a0.546,0.546,0,0,1-.091.329,0.377,0.377,0,0,1-.273.147,6.213,6.213,0,0,1-.853.034q-0.444-.011-1.559-0.057l0.546,1.769,2.595-.045A1.476,1.476,0,0,0,63.1,81.54a1.845,1.845,0,0,0,.558-0.7,1.96,1.96,0,0,0,.228-0.851V63H48.706Zm6.669,1.679v3.289H50.482V64.674h4.894Zm6.692,4.945-0.023,3.493H57.151l0.023-3.493h4.894Zm-4.916-4.945h4.916v3.266l-4.894.023Zm-6.669,4.945h4.894v3.493H50.482V69.619Zm35.666,2.722a6.126,6.126,0,0,1,2.117-2.858,23.818,23.818,0,0,1-2.709-1.248,16.23,16.23,0,0,1-2.72-1.792,11.427,11.427,0,0,1-1.957-2,10.483,10.483,0,0,1-1.149-1.905H70.693v2.79H74.2a15.7,15.7,0,0,1-6.441,4.378,7.886,7.886,0,0,1,1.013,1.361,8.506,8.506,0,0,1,.649,1.452q0.478-.2.671-0.295t0.421-.215q0.227-.124.387-0.216v0.522h5.349v1.656H71.308v2.745h4.939v2.268H68.69V81.8l18.6-.023v-2.79H79.524V76.719h4.848V73.975H79.524V72.319h5.235V71.774ZM74.38,69.483a16.3,16.3,0,0,0,1.946-1.769,16.737,16.737,0,0,0,1.6-1.928A20.891,20.891,0,0,0,79.6,67.771a17.4,17.4,0,0,0,1.878,1.758Zm26.2-2.563L99.372,66.6h1.866V63.971H98.1q-0.569-1.361-.842-1.86l-3.118.408a6.6,6.6,0,0,1,.751,1.452H90.882V66.6l2.048,0.045-0.8.091a7.737,7.737,0,0,1,.683,2.019H90.7v2.7h3.983v0.862H90.9V74.95h3.073A16.549,16.549,0,0,1,92,77.014a12.466,12.466,0,0,1-1.593,1.18,4.136,4.136,0,0,1,1.571,2.518l0.273-.181q1.707-1.429,2.014-1.747t0.421-.431v3.9h2.982V78.012A7.378,7.378,0,0,0,99.3,79.169l0.364,0.2a4.637,4.637,0,0,1,.637-1.452,3.549,3.549,0,0,1,.8-0.839,8.76,8.76,0,0,1-1.047,1.951,7.458,7.458,0,0,1-1.548,1.611,4.943,4.943,0,0,1,2.663,1.769l0.933-.953a12.392,12.392,0,0,0,1.525-2.54,13.417,13.417,0,0,0,.876-2.937,26.056,26.056,0,0,0,.353-4.185h1.275l0.022,10.548h3.05L109.182,71.8h1.684l0.023-2.994H104.9V66.262a28.383,28.383,0,0,0,3.084-.6,20.046,20.046,0,0,0,2.833-.919l-2.276-2.45a25.155,25.155,0,0,1-6.623,1.7v6.442l-0.137,3.425a9.3,9.3,0,0,1-.591,2.881l-0.274-.114a9.507,9.507,0,0,1-1.684-.839,6.086,6.086,0,0,1-1-.839h2.981V72.3l-3.55.023V71.457h3.846v-2.7H99.645ZM97.505,66.6a15.445,15.445,0,0,1-.819,2.155H95.73q-0.137-.522-0.66-2.155h2.435Zm21.6,6.034a8.961,8.961,0,0,1-.58,3.5,5.448,5.448,0,0,1-1.753,2.234,9.336,9.336,0,0,1-3.084,1.429,7.349,7.349,0,0,1,2.345,2.609,13.146,13.146,0,0,0,2.23-1.27,9.172,9.172,0,0,0,2.231-2.155,7.379,7.379,0,0,0,1.206-2.779,20.245,20.245,0,0,0,.41-3.573H126v9.776l3.255-.023V72.636H133.9v-2.9h-4.643V62.383H126a0.343,0.343,0,0,0-.41.363,0.457,0.457,0,0,0,.2.329,0.524,0.524,0,0,1,.2.42v6.238h-3.87V66.466q0.206-.045.922-0.193t1.332-.306a6.759,6.759,0,0,0,1.07-.363l-2.368-2.5a26.164,26.164,0,0,1-8.785,1.5,12.643,12.643,0,0,1,1.593,2.722,19.3,19.3,0,0,0,1.946-.17q1.127-.147,1.263-0.17v2.745h-5.348v2.9h5.348Zm23.216,9.822V73.544l0.592-.045,0.159,0.839a7.112,7.112,0,0,1,2.527-.544,21.551,21.551,0,0,0-1.206-4.378l-2.3.249q1.457-1.837,2.663-3.629h1.5q-0.069,2.813-.171,4.661a31.329,31.329,0,0,1-.375,3.471,22.828,22.828,0,0,1-.615,2.756,10.4,10.4,0,0,1-.205-1.1c-0.045-.355-0.1-0.843-0.159-1.463l-2.231.181a23.651,23.651,0,0,0,.478,4.491,4.207,4.207,0,0,0,.444-0.136,3.539,3.539,0,0,1,.535-0.148,2.264,2.264,0,0,1,.364-0.034,7.913,7.913,0,0,1-.739,1.145,7.543,7.543,0,0,1-.922,1.009,4.664,4.664,0,0,1,.922.386,4.184,4.184,0,0,1,.9.635,3.382,3.382,0,0,1,.591.7,5.745,5.745,0,0,0,.638-0.7q0.3-.386.614-0.873t0.41-.624a4.207,4.207,0,0,1,1.172.862,4.039,4.039,0,0,1,.831,1.18,16.251,16.251,0,0,0,1.8-1.2,15.479,15.479,0,0,0,1.5-1.293,18.824,18.824,0,0,0,3.05,2.654,6.922,6.922,0,0,1,.66-1.508,6.78,6.78,0,0,1,.979-1.372,13.645,13.645,0,0,1-2.914-2.155,17.955,17.955,0,0,0,2.208-7.463l-0.683-.454h-1.593l1.389-6.011-0.865-.476h-9.878v2.563l-1.935-.885-1.548,2.291-0.5-.386q1.367-2.223,2.026-3.38l-2.413-1.111a22.632,22.632,0,0,1-1.57,2.971l-0.637-.567-1.662,2.132a23.028,23.028,0,0,1,3.073,2.631q-0.342.476-1.457,1.747l-1.684-.045,0.592,2.926,2.8-.227,0.023,8.642h2.822Zm8.627-12.816h-1.981l0.069-3.584h2.708Zm1.957,2.7a8.618,8.618,0,0,1-1.024,2.994,7.554,7.554,0,0,1-1.389-2.994h2.413Zm-10.47-1.316-1.548.091,1.184-1.384Zm-5.394,3.357a24.328,24.328,0,0,1-.751,5.648,6.7,6.7,0,0,1,2.435.7,22.723,22.723,0,0,0,.433-2.937,26.9,26.9,0,0,0,.091-3.1ZM148,77.434a22.222,22.222,0,0,0,.535-2.6,10.613,10.613,0,0,0,1.457,2.971,9.728,9.728,0,0,1-1.559,1.259,9.356,9.356,0,0,1-1.377.669A19.775,19.775,0,0,0,148,77.434Zm27.529-7q-0.067,1.5-.125,1.973a5.9,5.9,0,0,1-.25,1.078,4.887,4.887,0,0,1-.6,1.214,6.165,6.165,0,0,1-.695-1.917,12.824,12.824,0,0,1-.193-2.348h1.866ZM171.3,78.954a6.079,6.079,0,0,1-1.912,1.1,11.722,11.722,0,0,0,1.138-3.04,26.936,26.936,0,0,0,.683-4.786,16.78,16.78,0,0,0,.432,1.973,13.523,13.523,0,0,0,.637,1.837,11.45,11.45,0,0,0,.615,1.225A8.537,8.537,0,0,1,171.3,78.954Zm-5.645,1.077-0.865.817a2.757,2.757,0,0,1,1.218.42,10.331,10.331,0,0,1,1.627,1.145,4.494,4.494,0,0,0,.751-0.805q0.342-.465.82-1.236a9.621,9.621,0,0,1,1.217.9,6.562,6.562,0,0,1,1.082,1.1,7.773,7.773,0,0,0,1.525-1.077q0.75-.669,1.57-1.531a18.805,18.805,0,0,0,1.457,1.475,10.047,10.047,0,0,0,1.5,1.157,4.952,4.952,0,0,1,.785-1.406,8.84,8.84,0,0,1,1.081-1.225,7.422,7.422,0,0,1-1.627-1.259,15.948,15.948,0,0,1-1.4-1.576,17.582,17.582,0,0,0,1.252-3.89,39.055,39.055,0,0,0,.637-4.752l-0.819-.612h-6.237v-1.86a28.542,28.542,0,0,0,4.473-.5,24.01,24.01,0,0,0,3.494-.93l-1.776-2.268a15.351,15.351,0,0,1-3.96.862q-2.3.227-5.167,0.25v8.393a18.733,18.733,0,0,1-.352,3.289,10.991,10.991,0,0,1-.854,2.9V71.729H162.92V69.665h5.053V66.988h-1.207V62.247h-2.8a0.482,0.482,0,0,0-.342.159,0.268,0.268,0,0,0,.114.374,0.675,0.675,0,0,1,.251.261v3.947h-1.07V62.451h-3.073a0.426,0.426,0,0,0-.273.091,0.279,0.279,0,0,0-.114.227,0.375,0.375,0,0,0,.3.34,0.375,0.375,0,0,1,.3.34v7.259a32.014,32.014,0,0,1-1,8.438,6.19,6.19,0,0,1-.409,1.112,4.655,4.655,0,0,1,2.777,1.52l0.136,0.159a27.794,27.794,0,0,0,1.389-7.463h1.433v5.557h1.275Zm25.947,1.2c4.849,0,8.081-3.357,8.081-8.438s-3.232-8.438-8.081-8.438c-4.87,0-8.1,3.357-8.1,8.438S186.728,81.233,191.6,81.233Zm0-2.7c-2.958,0-4.893-2.178-4.893-5.739s1.935-5.739,4.893-5.739,4.894,2.178,4.894,5.739S194.557,78.534,191.6,78.534Zm16.361-9.641a4.24,4.24,0,0,0-3.756,1.951V69.166h-2.754V85.316h2.868V79.351a4.205,4.205,0,0,0,3.642,1.792c3.232,0,5.257-2.4,5.257-6.125S211.191,68.893,207.959,68.893Zm-0.683,9.89c-1.867,0-3.027-1.293-3.027-3.766s1.16-3.766,3.027-3.766,3.027,1.2,3.027,3.675S209.142,78.783,207.276,78.783Zm13.424-7.44V69.166h-2.322v-3.4h-2.845v3.4h-1.821v2.178h1.821v6.624c0,2.155,1.184,2.994,3.665,2.994,0.455,0,.978-0.045,1.5-0.091V78.693h-0.979c-0.956,0-1.343-.249-1.343-1.021V71.343H220.7Zm2.726-3.584a1.577,1.577,0,1,0-1.593-1.565A1.571,1.571,0,0,0,223.426,67.759ZM221.992,80.87h2.868v-11.7h-2.868v11.7Zm13.036,0h3.277l-4.711-7.281,4.438-4.423h-3.414l-4.78,4.854v-9.3h-2.822V80.87h2.822V77.2l1.775-1.769ZM257.355,64.72H243.881v2.745h5.189V80.87h3.1V67.464h5.189V64.72Zm12.849,0-2.868,8.348c-0.524,1.588-1.07,3.312-1.525,5.036-0.478-1.724-1.025-3.448-1.548-5.036l-2.936-8.348h-3.278L263.99,80.87h3.6l5.8-16.151H270.2Zm6.044-.028a2.183,2.183,0,1,0,2.256,2.186A2.2,2.2,0,0,0,276.248,64.691Zm0,3.888a1.711,1.711,0,1,1,1.752-1.7A1.694,1.694,0,0,1,276.248,68.579Zm0.912-1.217a0.474,0.474,0,0,0-.266-0.467,0.546,0.546,0,0,0,.319-0.52,0.684,0.684,0,0,0-.814-0.652h-1.026v2.257h0.513V67.142h0.477c0.2,0,.266.071,0.283,0.291l0.018,0.238a0.611,0.611,0,0,0,.08.308h0.539a0.513,0.513,0,0,1-.1-0.308Zm-1.274-.644V66.163h0.469a0.28,0.28,0,1,1,.017.555h-0.486Z"/>
</svg>
