<svg id="Layer_1" data-name="Layer 1" xmlns="http://www.w3.org/2000/svg" viewBox="0 0 748.56 278.48"><defs><style>.cls-1{fill:#eb0a1e;}.cls-2{fill:#fff;}.cls-3{fill:none;stroke:#fff;stroke-miterlimit:10;stroke-width:4px;}</style></defs><rect class="cls-1" x="470.3" y="0.23" width="278.26" height="278.26"/><path class="cls-2" d="M1787,139.18a121.49,121.49,0,0,0-67.83,0c-25.11,8.07-42.36,24.83-42.36,44.2,0,27.25,34.15,49.34,76.27,49.34s76.27-22.09,76.27-49.34C1829.33,164,1812.08,147.26,1787,139.18Zm-33.92,72.33c-6.28,0-11.42-12.36-11.72-27.89,3.78.34,7.7.52,11.72.52s7.94-.18,11.72-.52C1764.48,199.15,1759.35,211.51,1753.06,211.51Zm-10.92-40c1.71-10.9,5.95-18.62,10.92-18.62s9.21,7.72,10.92,18.62c-3.49.32-7.15.49-10.92.49S1745.63,171.78,1742.14,171.46Zm28.53-.82c-2.56-17.11-9.47-29.38-17.61-29.38s-15,12.27-17.6,29.38c-15.49-2.42-26.32-7.93-26.32-14.34,0-8.64,19.66-15.64,43.92-15.64s43.93,7,43.93,15.64C1797,162.71,1786.16,168.22,1770.67,170.64Zm-82.75,10.94c0-8.36,3.22-16.19,8.83-22.92a9.55,9.55,0,0,0-.1,1.41c0,10.51,15.78,19.44,37.79,22.72,0,.8,0,1.59,0,2.4,0,19.53,5.42,36.08,12.91,41.79C1714,224.94,1687.92,205.4,1687.92,181.58ZM1758.8,227c7.49-5.71,12.91-22.25,12.91-41.79,0-.81,0-1.6,0-2.4,22-3.28,37.78-12.21,37.78-22.72a9.55,9.55,0,0,0-.1-1.41c5.61,6.73,8.83,14.56,8.83,22.92C1818.2,205.4,1792.09,224.94,1758.8,227Z" transform="translate(-1143.7 -68.71)"/><polygon class="cls-2" points="535.72 178.87 506.12 178.87 506.12 185.42 517.04 185.42 517.04 213.32 524.79 213.32 524.79 185.42 535.72 185.42 535.72 178.87"/><path class="cls-2" d="M1699.4,246.55a18.26,18.26,0,1,0,18.26,18.26A18.26,18.26,0,0,0,1699.4,246.55Zm8.95,23.79a9.46,9.46,0,0,1-7.15,5.85,10.15,10.15,0,0,1-3.59,0,9.46,9.46,0,0,1-7.15-5.85,15.09,15.09,0,0,1,0-11.06,9.44,9.44,0,0,1,7.15-5.85,10.15,10.15,0,0,1,3.59,0,9.44,9.44,0,0,1,7.15,5.85,15.09,15.09,0,0,1,0,11.06Z" transform="translate(-1143.7 -68.71)"/><polygon class="cls-2" points="574.09 178.87 583.22 178.87 591.74 193.68 600.27 178.87 609.39 178.87 595.61 200.57 595.61 213.32 587.87 213.32 587.87 200.57 574.09 178.87"/><path class="cls-2" d="M1753.23,264.81a18.26,18.26,0,1,1,18.26,18.26A18.27,18.27,0,0,1,1753.23,264.81Zm18.26,11.54a10.76,10.76,0,0,0,1.8-.16,9.46,9.46,0,0,0,7.15-5.85,15.22,15.22,0,0,0,0-11.06,9.48,9.48,0,0,0-7.15-5.85,10.76,10.76,0,0,0-1.8-.16,10.54,10.54,0,0,0-1.79.16,9.49,9.49,0,0,0-7.16,5.85,15.22,15.22,0,0,0,0,11.06,9.47,9.47,0,0,0,7.16,5.85A10.54,10.54,0,0,0,1771.49,276.35Z" transform="translate(-1143.7 -68.71)"/><path class="cls-2" d="M1844.87,274.43H1830.2l-2.82,7.58h-8.62l14-34.45h9.64l14,34.45h-8.62l-2.83-7.58Zm-2.26-6-5.07-13.61-5.08,13.61Z" transform="translate(-1143.7 -68.71)"/><polygon class="cls-2" points="677.34 178.87 647.74 178.87 647.74 185.42 658.67 185.42 658.67 213.32 666.41 213.32 666.41 185.42 677.34 185.42 677.34 178.87"/><line class="cls-3" x1="416.61" x2="416.61" y2="278.26"/><path class="cls-2" d="M1178.81,153.38h-16.34l-4.26,13.07H1143.7l19.38-54H1179l19.38,54h-15.27Zm-3.65-11.25-4.56-14.06L1166,142.13Z" transform="translate(-1143.7 -68.71)"/><path class="cls-2" d="M1235.73,125h-13.45v41.5h-14.44V125h-13.45V112.49h41.34Z" transform="translate(-1143.7 -68.71)"/><path class="cls-2" d="M1275.94,153.6v12.85h-34.13v-54h14.44V153.6Z" transform="translate(-1143.7 -68.71)"/><path class="cls-2" d="M1312.8,153.38h-16.34l-4.26,13.07h-14.52l19.38-54H1313l19.38,54h-15.28Zm-3.65-11.25-4.56-14.06L1300,142.13Z" transform="translate(-1143.7 -68.71)"/><path class="cls-2" d="M1387,112.49v54h-13.91l-21.5-31.77v31.77h-13.69v-54h14l21.43,31.84V112.49Z" transform="translate(-1143.7 -68.71)"/><path class="cls-2" d="M1434.4,125h-13.46v41.5H1406.5V125h-13.45V112.49h41.35Z" transform="translate(-1143.7 -68.71)"/><path class="cls-2" d="M1440.47,112.49h14.44v54h-14.44Z" transform="translate(-1143.7 -68.71)"/><path class="cls-2" d="M1462,139.7c0-16.95,12.08-28,28.81-28a36.44,36.44,0,0,1,17.48,4.48l-4.64,12.85c-3.57-2.06-7.45-3.88-12.24-3.88-8.66,0-14.29,5.78-14.29,14.21,0,8.06,5.1,14.37,14.29,14.37a26.73,26.73,0,0,0,13.76-4.34l3.95,12.47c-4.79,3.19-10.64,5.32-18.92,5.32C1473.38,167.21,1462,156.19,1462,139.7Z" transform="translate(-1143.7 -68.71)"/><path class="cls-2" d="M1253.89,195h-13.45v41.5H1226V195h-13.45V182.49h41.34Z" transform="translate(-1143.7 -68.71)"/><path class="cls-2" d="M1255.26,209.47c0-17,12.16-27.74,28.5-27.74s28.5,10.79,28.5,27.51-12.16,28-28.65,28C1267.5,237.21,1255.26,226.49,1255.26,209.47Zm41.88,0c0-8.44-5.4-14.14-13.38-14.14s-13.37,5.7-13.37,14.14,5.39,14.13,13.37,14.13S1297.14,217.83,1297.14,209.47Z" transform="translate(-1143.7 -68.71)"/><path class="cls-2" d="M1342.43,216v20.45H1328.3V216l-17.48-33.51h15.81l9.65,20,9.65-20h14Z" transform="translate(-1143.7 -68.71)"/><path class="cls-2" d="M1358.47,209.47c0-17,12.16-27.74,28.5-27.74s28.5,10.79,28.5,27.51-12.16,28-28.65,28C1370.71,237.21,1358.47,226.49,1358.47,209.47Zm41.88,0c0-8.44-5.4-14.14-13.38-14.14s-13.38,5.7-13.38,14.14S1379,223.6,1387,223.6,1400.35,217.83,1400.35,209.47Z" transform="translate(-1143.7 -68.71)"/><path class="cls-2" d="M1458.18,195h-13.45v41.5h-14.44V195h-13.45V182.49h41.34Z" transform="translate(-1143.7 -68.71)"/><path class="cls-2" d="M1489.34,223.38H1473l-4.25,13.07h-14.52l19.38-54h15.88l19.38,54H1493.6Zm-3.65-11.25-4.56-14.06-4.56,14.06Z" transform="translate(-1143.7 -68.71)"/><path class="cls-2" d="M1227.45,279.24c0,16.19-11.32,27.21-27.13,27.21h-22.73v-54h22.73C1216.13,252.49,1227.45,263.05,1227.45,279.24Zm-15.2.15c0-9.5-5.78-14.51-14.36-14.51H1192v29.18h5.86C1206.63,294.06,1212.25,288.74,1212.25,279.39Z" transform="translate(-1143.7 -68.71)"/><path class="cls-2" d="M1234.52,252.49h34.81V265H1249v8.43h19.76v12.09H1249v8.36h21v12.54h-35.49Z" transform="translate(-1143.7 -68.71)"/><path class="cls-2" d="M1309.38,293.38H1293l-4.26,13.07h-14.52l19.38-54h15.89l19.38,54h-15.28Zm-3.65-11.25-4.56-14.06-4.56,14.06Z" transform="translate(-1143.7 -68.71)"/><path class="cls-2" d="M1368.58,293.6v12.85h-34.13v-54h14.44V293.6Z" transform="translate(-1143.7 -68.71)"/><path class="cls-2" d="M1375,252.49h34.81V265h-20.37v8.43h19.76v12.09h-19.76v8.36h21v12.54H1375Z" transform="translate(-1143.7 -68.71)"/><path class="cls-2" d="M1436.9,286.76h-3v19.69H1419.5v-54h22c12.47,0,18.78,7.52,18.78,16.18a17,17,0,0,1-9.66,15.43l14.14,22.35h-16.87Zm-3-11.09H1439c3.72,0,6-2.13,6-5.85s-2.28-5.7-6-5.7h-5.09Z" transform="translate(-1143.7 -68.71)"/><path class="cls-2" d="M1467,302l3.57-13.22c4.48,3.11,10.56,5.77,16,5.77,3.87,0,5.47-1.37,5.47-3.57,0-2.43-2-3.19-9-5.85-9.19-3.5-14.74-7.6-14.74-16.42,0-10.72,8.13-17,19.91-17,6.31,0,13.3,1.82,17,4L1501,267.69a28,28,0,0,0-12.47-3.42c-3.26,0-5.54,1.06-5.54,3,0,2.58,3.65,3.87,9.73,6,8.81,3.12,14.13,6.46,14.13,15.81,0,11.4-7.9,18.09-20.82,18.09A36.19,36.19,0,0,1,1467,302Z" transform="translate(-1143.7 -68.71)"/></svg>