<svg id="HING" xmlns="http://www.w3.org/2000/svg" width="300" height="600" viewBox="0 0 300 600">
  <defs>
    <style>
      .cls-1 {
        fill: #080;
        fill-rule: evenodd;
      }
    </style>
  </defs>
  <path id="Learn_more" data-name="Learn more" class="cls-1" d="M63.263,548.654h-3.53v-6.308H58.786V549.5h4.477v-0.85Zm5.089-3.352a2.13,2.13,0,0,0-.891-0.847,2.518,2.518,0,0,0-1.091-.249,2.21,2.21,0,0,0-1.794.762,2.993,2.993,0,0,0-.637,1.987,2.782,2.782,0,0,0,.657,1.956,2.351,2.351,0,0,0,1.824.715,2.39,2.39,0,0,0,1.465-.435,2.205,2.205,0,0,0,.806-1.245l-0.9-.112a1.649,1.649,0,0,1-.522.8,1.33,1.33,0,0,1-.845.266,1.451,1.451,0,0,1-1.091-.454,2.008,2.008,0,0,1-.491-1.313h3.882A3.6,3.6,0,0,0,68.352,545.3Zm-3.467,1.111a1.735,1.735,0,0,1,.464-1.074,1.355,1.355,0,0,1,1.02-.415,1.5,1.5,0,0,1,.955.349,1.515,1.515,0,0,1,.491,1.14h-2.93Zm9.179,2.371q-0.042-.369-0.041-1.448v-1.182a4.169,4.169,0,0,0-.1-1.006,1.133,1.133,0,0,0-.537-0.666,2.634,2.634,0,0,0-1.37-.276,2.822,2.822,0,0,0-1.611.4,1.743,1.743,0,0,0-.728,1.2l0.859,0.112a1.159,1.159,0,0,1,.452-0.781,1.655,1.655,0,0,1,.9-0.21,1.929,1.929,0,0,1,.708.107,0.806,0.806,0,0,1,.527.623,4.359,4.359,0,0,1,.024.559,4.234,4.234,0,0,1-.757.181l-0.82.122a2.885,2.885,0,0,0-1.584.554A1.47,1.47,0,0,0,70,549.216a1.912,1.912,0,0,0,1.294.41,2.871,2.871,0,0,0,1.909-.762,1.978,1.978,0,0,0,.181.64h0.923A1.864,1.864,0,0,1,74.064,548.784Zm-1.416-.24a1.8,1.8,0,0,1-1.145.389,1.15,1.15,0,0,1-.772-0.232,0.745,0.745,0,0,1-.269-0.589,0.91,0.91,0,0,1,1-.842,9.31,9.31,0,0,0,1.685-.364v0.318A1.58,1.58,0,0,1,72.648,548.544Zm4.617-4.338a1.264,1.264,0,0,0-1.1.9h-0.02v-0.782h-0.8V549.5h0.879v-2.72a2.506,2.506,0,0,1,.254-1.238,0.813,0.813,0,0,1,.747-0.441,1.267,1.267,0,0,1,.64.19l0.3-.811a1.723,1.723,0,0,0-.9-0.278h0Zm5.837,2.109a5.41,5.41,0,0,0-.059-0.9,1.415,1.415,0,0,0-.286-0.625,1.36,1.36,0,0,0-.627-0.439,2.336,2.336,0,0,0-.811-0.147,2.011,2.011,0,0,0-.945.213,1.824,1.824,0,0,0-.686.637H79.669v-0.733H78.878V549.5h0.879v-2.832a2.611,2.611,0,0,1,.147-0.982,1.079,1.079,0,0,1,.5-0.537,1.521,1.521,0,0,1,.74-0.19,1.046,1.046,0,0,1,.794.3,1.589,1.589,0,0,1,.286,1.094V549.5H83.1v-3.189Zm10.572-.371a1.856,1.856,0,0,0-.4-1.3,1.568,1.568,0,0,0-1.209-.435,1.8,1.8,0,0,0-1.6.908,1.293,1.293,0,0,0-.535-0.681,1.77,1.77,0,0,0-.94-0.227,1.715,1.715,0,0,0-1.548.84h-0.02v-0.723H86.633V549.5h0.879v-2.69a2.179,2.179,0,0,1,.364-1.46,1.213,1.213,0,0,1,.93-0.391,0.882,0.882,0,0,1,.671.249,1.354,1.354,0,0,1,.237.923V549.5h0.879V546.5a1.569,1.569,0,0,1,.376-1.172,1.245,1.245,0,0,1,.894-0.361,0.876,0.876,0,0,1,.632.2,0.847,0.847,0,0,1,.251.454,3.359,3.359,0,0,1,.049.617V549.5h0.879v-3.56Zm1.719-1.067a2.709,2.709,0,0,0-.7,2.039,2.642,2.642,0,0,0,.723,2.061,2.465,2.465,0,0,0,1.7.649,2.541,2.541,0,0,0,1.685-.632,2.7,2.7,0,0,0,.747-2.161,2.611,2.611,0,0,0-.691-1.943,2.373,2.373,0,0,0-1.741-.684A2.4,2.4,0,0,0,95.394,544.877Zm0.637,3.526a2.2,2.2,0,0,1-.437-1.487,2.239,2.239,0,0,1,.43-1.492,1.385,1.385,0,0,1,1.1-.5,1.407,1.407,0,0,1,1.091.493,2.133,2.133,0,0,1,.442,1.465,2.5,2.5,0,0,1-.391,1.465,1.307,1.307,0,0,1-1.143.556A1.388,1.388,0,0,1,96.031,548.4Zm6.477-4.2a1.264,1.264,0,0,0-1.1.9H101.39v-0.782h-0.8V549.5h0.879v-2.72a2.509,2.509,0,0,1,.254-1.238,0.812,0.812,0,0,1,.747-0.441,1.271,1.271,0,0,1,.64.19l0.3-.811a1.721,1.721,0,0,0-.9-0.278h0Zm5.576,1.1a2.129,2.129,0,0,0-.891-0.847,2.518,2.518,0,0,0-1.091-.249,2.21,2.21,0,0,0-1.8.762,2.992,2.992,0,0,0-.637,1.987,2.781,2.781,0,0,0,.657,1.956,2.351,2.351,0,0,0,1.824.715,2.388,2.388,0,0,0,1.464-.435,2.2,2.2,0,0,0,.806-1.245l-0.9-.112a1.651,1.651,0,0,1-.523.8,1.328,1.328,0,0,1-.844.266,1.451,1.451,0,0,1-1.092-.454,2.011,2.011,0,0,1-.491-1.313h3.882A3.6,3.6,0,0,0,108.084,545.3Zm-3.467,1.111a1.739,1.739,0,0,1,.464-1.074,1.356,1.356,0,0,1,1.021-.415,1.493,1.493,0,0,1,.954.349,1.513,1.513,0,0,1,.491,1.14h-2.93Z"/>
</svg>
