<svg id="txt1" xmlns="http://www.w3.org/2000/svg" width="300" height="600" viewBox="0 0 300 600">
  <defs>
    <style>
      .cls-1 {
        fill: #4c286c;
        fill-rule: evenodd;
      }
    </style>
  </defs>
  <path class="cls-1" d="M59.811,205.477a6.243,6.243,0,0,1-.6-2.4c-1.118,1.919-3.354,3.079-6.627,3.079-4.352,0-7.586-2-7.586-6.359,0-3.6,2.2-5.84,7.865-6.4l3.753-.36c1.677-.159,2.476-0.48,2.476-1.559s-0.8-1.521-2.316-1.521c-1.6,0-2.356.48-2.475,2.041H46c0.2-5.04,3.274-7.64,10.9-7.64,7.426,0,10.5,2.4,10.5,6.6V202.2a7.309,7.309,0,0,0,.758,3.279H59.811ZM59.093,197.6v-1.36a2.326,2.326,0,0,1-1.8.84l-1.917.24c-1.318.16-1.956,0.72-1.956,1.8,0,1.24.838,1.84,2.435,1.84C57.974,200.958,59.093,199.838,59.093,197.6ZM92,184.839v20.638H83.851v-3h-0.12a6.737,6.737,0,0,1-6.388,3.48c-4.232,0-7.027-2.36-7.027-8.319v-12.8h8.3v11.439c0,1.64.719,2.72,2.356,2.72a2.541,2.541,0,0,0,2.715-2.76v-11.4H92Zm18.249-.2v7.479h-1.916c-3.234,0-4.951,1.6-4.951,5.44v7.919h-8.3V184.839h8.144v4.08a5.211,5.211,0,0,1,5.55-4.4A8.173,8.173,0,0,1,110.245,184.639Zm34.1-7.639v28.477h-8.065V202.4a6.768,6.768,0,0,1-6.349,3.56c-5.469,0-8.824-4.279-8.824-10.8s3.355-10.8,8.824-10.8a6.809,6.809,0,0,1,6.109,3.16V177h8.305ZM136.4,195.2c0-2.879-1.2-4.4-3.473-4.4s-3.514,1.521-3.514,4.4,1.238,4.36,3.514,4.36S136.4,198.078,136.4,195.2Zm33.063,2.04H154.452c0.12,1.88,1.357,3.16,3.952,3.16a3.446,3.446,0,0,0,2.955-1.12h7.746c-1.238,4.319-5.39,6.679-10.861,6.679-7.186,0-11.578-4.04-11.578-10.719,0-6.519,4.392-10.879,11.539-10.879,6.748,0,11.419,3.88,11.419,10.559A19.753,19.753,0,0,1,169.464,197.238Zm-14.892-4.32h7.067c-0.2-2.04-1.4-3.039-3.553-3.039A3.152,3.152,0,0,0,154.572,192.918Zm31.147,12.559a6.231,6.231,0,0,1-.6-2.4c-1.118,1.919-3.354,3.079-6.629,3.079-4.352,0-7.585-2-7.585-6.359,0-3.6,2.2-5.84,7.865-6.4l3.754-.36c1.676-.159,2.475-0.48,2.475-1.559s-0.8-1.521-2.316-1.521c-1.6,0-2.356.48-2.476,2.041h-8.3c0.2-5.04,3.274-7.64,10.9-7.64,7.427,0,10.5,2.4,10.5,6.6V202.2a7.311,7.311,0,0,0,.759,3.279h-8.344ZM185,197.6v-1.36a2.326,2.326,0,0,1-1.8.84l-1.916.24c-1.318.16-1.957,0.72-1.957,1.8,0,1.24.838,1.84,2.436,1.84C183.882,200.958,185,199.838,185,197.6Zm11.422,1.56V177h8.305v20.478c0,1.72.639,1.839,1.756,1.839H207.6v6.16a26.967,26.967,0,0,1-3.233.2C198.7,205.677,196.422,203.757,196.422,199.158Zm12.22-.32h7.9c0.16,1.44,1,2.04,2.915,2.04,1.637,0,2.516-.4,2.516-1.2,0-.68-0.439-1.04-1.757-1.24l-4.032-.56c-4.712-.64-7.308-2.8-7.308-6.6,0-4.6,3.674-6.919,10.222-6.919,7.665,0,10.022,3.28,10.26,7.039H221.9c-0.12-1.4-.879-1.959-2.795-1.959-1.637,0-2.356.36-2.356,1.12,0,0.639.44,1.04,1.757,1.239l4.032,0.561c5.391,0.759,7.467,3.039,7.467,6.519,0,4.719-3.993,7.279-10.821,7.279S209,203.6,208.642,198.838ZM69.074,236.161c0,6.519-3.354,10.8-8.823,10.8A6.766,6.766,0,0,1,53.9,243.4v3.08H45.837V218h8.3v10.519a6.809,6.809,0,0,1,6.109-3.16C65.72,225.362,69.074,229.641,69.074,236.161Zm-8.3-.04c0-2.88-1.238-4.359-3.514-4.359s-3.474,1.479-3.474,4.359,1.2,4.4,3.474,4.4S60.77,239,60.77,236.121Zm32.3-2.44v12.8h-8.3V235.041c0-1.64-.719-2.72-2.355-2.72a2.541,2.541,0,0,0-2.715,2.76v11.4h-8.3V218h8.3v10.759a6.793,6.793,0,0,1,6.348-3.4C90.279,225.362,93.074,227.722,93.074,233.681Zm3.078-7.839h8.3V246.48h-8.3V225.842Zm0.079-5.52a4.052,4.052,0,1,1,4.072,4.08A4.084,4.084,0,0,1,96.232,220.322Zm11.3,21.718a5.024,5.024,0,0,1,5.07-4.919,4.94,4.94,0,1,1,0,9.879A5.005,5.005,0,0,1,107.533,242.04Z"/>
</svg>
