<svg id="txt1" xmlns="http://www.w3.org/2000/svg" width="300" height="600" viewBox="0 0 300 600">
  <defs>
    <style>
      .cls-1 {
        fill: #4c286c;
        fill-rule: evenodd;
      }
    </style>
  </defs>
  <path class="cls-1" d="M44,295.484C44,290.9,47.09,288,51.519,288s7.522,2.9,7.522,7.485c0,4.606-3.093,7.5-7.522,7.5C47.07,302.987,44,300.09,44,295.484Zm10.376,0c0-2.556-1.177-3.622-2.853-3.622s-2.854,1.066-2.854,3.622c0,2.575,1.177,3.641,2.854,3.641S54.373,298.059,54.373,295.484Zm19.272-7.163v14.325H68.955l-2.993-5.091c-0.5-.845-0.938-1.609-1.337-2.393,0.06,1.689.08,3.319,0.08,5.15v2.334h-4.39V288.321H65l2.933,5.09c0.439,0.764.918,1.73,1.377,2.7-0.06-1.791-.06-3.5-0.06-5.453v-2.333h4.39Zm19.61,0v14.325H88.565l-2.993-5.091c-0.5-.845-0.938-1.609-1.337-2.393,0.06,1.689.08,3.319,0.08,5.15v2.334h-4.39V288.321h4.689l2.933,5.09c0.439,0.764.918,1.73,1.377,2.7-0.06-1.791-.06-3.5-0.06-5.453v-2.333h4.39Zm1.274,7.163c0-4.588,3.093-7.485,7.522-7.485s7.523,2.9,7.523,7.485c0,4.606-3.093,7.5-7.523,7.5C97.6,302.987,94.528,300.09,94.528,295.484Zm10.376,0c0-2.556-1.177-3.622-2.853-3.622s-2.853,1.066-2.853,3.622c0,2.575,1.177,3.641,2.853,3.641S104.9,298.059,104.9,295.484Zm25.1-7.163-3.752,14.325h-4.828l-0.938-4.366c-0.28-1.247-.519-2.495-0.739-3.722-0.239,1.227-.478,2.475-0.758,3.722l-0.937,4.366h-4.829l-3.752-14.325h4.61l0.8,4.245c0.319,1.69.619,3.4,0.918,5.05,0.279-1.65.618-3.36,0.938-5.05l0.838-4.245h4.33l0.837,4.245c0.32,1.69.659,3.4,0.938,5.05,0.3-1.65.6-3.36,0.918-5.05l0.8-4.245H130Z"/>
</svg>
