<svg id="txt1" xmlns="http://www.w3.org/2000/svg" width="300" height="600" viewBox="0 0 300 600">
  <defs>
    <style>
      .cls-1 {
        fill: #4c286c;
        fill-rule: evenodd;
      }
    </style>
  </defs>
  <path class="cls-1" d="M44,272.937h4.451c0.1,1.328.918,1.65,2.175,1.65,1.3,0,1.856-.322,1.856-0.986,0-.623-0.479-0.945-2.016-1.167l-1.717-.241c-2.575-.362-4.411-1.771-4.411-4.507,0-2.253,1.178-4.687,6.048-4.687,3.713,0,5.988,1.408,6.248,4.727H52.461c-0.1-.864-0.559-1.367-1.916-1.367-1.238,0-1.717.362-1.717,0.925s0.479,0.845,1.337.966l1.716,0.241c3.553,0.5,5.15,1.871,5.15,4.426,0,3.078-2.215,5.07-6.487,5.07C46.194,277.987,44.138,275.935,44,272.937Zm26.664-4.506c0,3.1-2.056,5.11-5.569,5.11H62.678v4.1H58.167V263.32h6.926C68.606,263.32,70.662,265.332,70.662,268.431Zm-4.631,0a1.32,1.32,0,0,0-1.537-1.369H62.678V269.8h1.816A1.32,1.32,0,0,0,66.031,268.431Zm18.7,9.214H80.12a3.58,3.58,0,0,1-.28-1.448l-0.06-1.428c-0.059-1.369-.479-1.791-1.816-1.791H76.408v4.667H71.9V263.32H78.9c4.271,0,5.469,1.972,5.469,4.2a3.33,3.33,0,0,1-2.136,3.42c1.318,0.5,1.876,1.489,2,3.139l0.16,2.113A3,3,0,0,0,84.731,277.645Zm-4.971-9.395a1.317,1.317,0,0,0-1.557-1.429h-1.8v2.857h1.8A1.317,1.317,0,0,0,79.761,268.25Zm6.105-4.93h4.511v14.325H85.866V263.32Zm19.54,0v14.325h-4.691l-2.994-5.09c-0.5-.845-0.938-1.61-1.337-2.394,0.06,1.69.08,3.319,0.08,5.151v2.333H92.072V263.32h4.69l2.935,5.09c0.439,0.765.918,1.731,1.378,2.7-0.06-1.791-.06-3.5-0.06-5.453V263.32h4.391Zm15.686,5.976v8.349h-2.915l-0.319-1.529a5.2,5.2,0,0,1-4.351,1.871c-4.392,0-6.827-3.279-6.827-7.544,0-4.346,2.735-7.444,7.406-7.444,3.852,0,6.527,2.092,6.986,5.271h-4.611a2.23,2.23,0,0,0-2.3-1.408c-1.517,0-2.814.885-2.814,3.661,0,2.455,1.018,3.642,2.834,3.642a2.383,2.383,0,0,0,2.535-1.71h-2.515V269.3h6.887Zm5.524,3.641h4.451c0.1,1.328.918,1.65,2.176,1.65,1.3,0,1.856-.322,1.856-0.986,0-.623-0.479-0.945-2.016-1.167l-1.717-.241c-2.575-.362-4.411-1.771-4.411-4.507,0-2.253,1.178-4.687,6.048-4.687,3.713,0,5.988,1.408,6.248,4.727h-4.172c-0.1-.864-0.559-1.367-1.916-1.367-1.238,0-1.717.362-1.717,0.925s0.479,0.845,1.338.966l1.716,0.241c3.553,0.5,5.15,1.871,5.15,4.426,0,3.078-2.215,5.07-6.487,5.07C128.811,277.987,126.755,275.935,126.616,272.937Zm23.071,2.837h-5.11l-0.559,1.871h-4.511l4.811-14.325h5.509l5.089,14.325h-4.67Zm-1-3.319-0.978-3.3c-0.2-.7-0.419-1.429-0.6-2.133l-0.6,2.133-0.978,3.3h3.154Zm17.462,1.287v3.9H155.532V263.32h4.511v10.422h6.108Zm5.706-6.518v1.408h6.607v3.762h-6.607v1.348H179v3.9H167.346V263.32H179v3.9h-7.146Z"/>
</svg>
