<svg xmlns="http://www.w3.org/2000/svg" width="300" height="600" viewBox="0 0 300 600">
  <defs>
    <style>
      .cls-1 {
        fill: #4c286c;
        fill-rule: evenodd;
      }
    </style>
  </defs>
  <path id="txt2" class="cls-1" d="M43.819,105.049c0-4.322,2.95-7.052,7.176-7.052s7.177,2.73,7.177,7.052c0,4.341-2.95,7.071-7.177,7.071C46.749,112.12,43.819,109.39,43.819,105.049Zm9.9,0c0-2.408-1.122-3.413-2.722-3.413s-2.721,1.005-2.721,3.413c0,2.426,1.122,3.431,2.721,3.431S53.717,107.475,53.717,105.049ZM72.108,98.3v13.5H67.634L64.778,107c-0.476-.8-0.894-1.517-1.275-2.256,0.057,1.592.076,3.127,0.076,4.853v2.2H59.391V98.3h4.474l2.8,4.8c0.419,0.72.876,1.631,1.313,2.54-0.057-1.686-.057-3.3-0.057-5.137V98.3h4.188Zm18.716,0v13.5H86.35L83.494,107c-0.476-.8-0.894-1.517-1.275-2.256,0.057,1.592.076,3.127,0.076,4.853v2.2H78.107V98.3h4.474l2.8,4.8c0.419,0.72.876,1.631,1.313,2.54-0.057-1.686-.057-3.3-0.057-5.137V98.3h4.188Zm1.22,6.749c0-4.322,2.95-7.052,7.176-7.052s7.177,2.73,7.177,7.052c0,4.341-2.951,7.071-7.177,7.071C94.975,112.12,92.044,109.39,92.044,105.049Zm9.9,0c0-2.408-1.122-3.413-2.722-3.413s-2.721,1.005-2.721,3.413c0,2.426,1.122,3.431,2.721,3.431S101.942,107.475,101.942,105.049ZM125.891,98.3l-3.578,13.5h-4.607l-0.895-4.114c-0.266-1.175-.5-2.351-0.7-3.507-0.228,1.156-.457,2.332-0.723,3.507l-0.895,4.114h-4.607L106.3,98.3h4.4l0.762,4c0.3,1.593.59,3.2,0.875,4.758,0.267-1.554.59-3.165,0.9-4.758l0.8-4h4.131l0.8,4c0.306,1.593.629,3.2,0.9,4.758,0.284-1.554.57-3.165,0.874-4.758l0.763-4h4.4ZM43,151.065h6.7c0.15,1.976,1.383,2.455,3.276,2.455,1.954,0,2.8-.479,2.8-1.467,0-.928-0.721-1.407-3.035-1.736l-2.585-.36c-3.878-.538-6.643-2.634-6.643-6.706,0-3.353,1.773-6.975,9.108-6.975,5.591,0,9.018,2.1,9.409,7.035H55.747c-0.15-1.287-.842-2.035-2.886-2.035-1.863,0-2.584.538-2.584,1.377S51,143.91,52.291,144.09l2.585,0.359c5.35,0.749,7.755,2.784,7.755,6.586,0,4.58-3.337,7.544-9.77,7.544C46.309,158.579,43.213,155.526,43,151.065Zm32.195,7a4.65,4.65,0,0,1-.45-1.8c-0.842,1.437-2.526,2.305-4.991,2.305-3.276,0-5.711-1.5-5.711-4.76,0-2.694,1.653-4.371,5.921-4.79l2.826-.269c1.262-.12,1.863-0.359,1.863-1.168s-0.6-1.137-1.743-1.137c-1.2,0-1.774.359-1.864,1.527H64.8c0.15-3.773,2.465-5.718,8.206-5.718,5.591,0,7.906,1.8,7.906,4.939v8.412a5.435,5.435,0,0,0,.572,2.455H75.2Zm-0.541-5.9v-1.018a1.75,1.75,0,0,1-1.352.628l-1.442.18c-0.992.12-1.474,0.539-1.474,1.347,0,0.928.632,1.378,1.834,1.378A2.2,2.2,0,0,0,74.656,152.173Zm25.613-9.55-5.8,15.447h-7.3l-5.8-15.447h6.673l1.293,4.431c0.6,2.095,1.082,3.8,1.623,5.957,0.541-2.155,1.022-3.862,1.624-5.957l1.262-4.431h6.433Zm17.165,9.28h-11.3c0.091,1.407,1.023,2.365,2.977,2.365a2.6,2.6,0,0,0,2.224-.838h5.832c-0.932,3.233-4.058,5-8.176,5-5.412,0-8.718-3.023-8.718-8.023,0-4.879,3.306-8.142,8.688-8.142,5.079,0,8.6,2.9,8.6,7.9A14.744,14.744,0,0,1,117.434,151.9Zm-11.213-3.233h5.321a2.338,2.338,0,0,0-2.676-2.275A2.369,2.369,0,0,0,106.221,148.67Zm24.83,1.108-2.765,2.574v5.718h-2.405V136.756h2.405v12.782l7.184-6.915h3.187l-5.892,5.568,6.312,9.879h-2.795Zm22.937,6.346v1.946a9.167,9.167,0,0,1-1.322.09c-1.714,0-2.5-.749-2.616-2.215a5.692,5.692,0,0,1-5.05,2.484c-3.366,0-5.47-1.616-5.47-4.52,0-2.425,1.472-4.341,5.741-4.79l2.224-.239c1.563-.18,2.435-0.749,2.435-2.126,0-1.616-.842-2.425-3.487-2.425s-3.758.749-3.908,3.054H140.13c0.181-2.994,1.774-5.119,6.313-5.119,4.3,0,5.831,1.886,5.831,4.49v8.622a0.71,0.71,0,0,0,.842.748h0.872Zm-4.058-4.161v-1.826a4.016,4.016,0,0,1-2.044.659l-2.255.269c-2.825.329-3.607,1.287-3.607,2.784,0,1.527.962,2.544,3.1,2.544C147.435,156.393,149.93,155.016,149.93,151.963Zm14.4-9.55v2.306h-0.6c-3.1,0-5.08,1.556-5.08,4.55v8.8h-2.406V142.623h2.285v2.724a5.418,5.418,0,0,1,4.99-2.963C163.758,142.384,164,142.384,164.328,142.413Zm15.032,8.772H167.576c0.241,3.472,2.074,5.059,4.779,5.059a3.983,3.983,0,0,0,4.119-2.874h2.5a6.466,6.466,0,0,1-6.673,5.059c-4.239,0-7.215-3.083-7.215-8.083,0-4.849,2.855-8.082,7.154-8.082,4.63,0,7.125,3.652,7.125,8.082v0.839Zm-11.724-2.156h9.139c-0.241-2.544-1.774-4.58-4.54-4.58C169.8,144.449,168.027,145.976,167.636,149.029Zm14.309-10.208a1.624,1.624,0,1,1,1.624,1.616A1.633,1.633,0,0,1,181.945,138.821Zm0.421,3.8h2.4V158.07h-2.4V142.623Zm18.788,5V158.07h-2.405V147.862c0-2.395-1.322-3.443-3.546-3.443-2.014,0-4.269,1.5-4.269,4.91v8.741h-2.405V142.623h2.285v2.305a5.718,5.718,0,0,1,4.869-2.664C199.141,142.264,201.154,144.209,201.154,147.622ZM52.531,171.306v2.3h-0.6c-3.1,0-5.08,1.558-5.08,4.552v8.8H44.445V171.515H46.73v2.725a5.419,5.419,0,0,1,4.99-2.965A7.916,7.916,0,0,1,52.531,171.306Zm14.91,13.71v1.947a9.309,9.309,0,0,1-1.322.089c-1.713,0-2.5-.748-2.616-2.215a5.694,5.694,0,0,1-5.05,2.485c-3.366,0-5.47-1.617-5.47-4.521,0-2.424,1.473-4.34,5.741-4.79l2.224-.239c1.563-.18,2.435-0.749,2.435-2.126,0-1.616-.842-2.424-3.487-2.424s-3.758.748-3.908,3.053h-2.4c0.18-2.993,1.773-5.119,6.313-5.119,4.3,0,5.831,1.886,5.831,4.49v8.622a0.71,0.71,0,0,0,.842.748h0.872Zm-4.058-4.161V179.03a4.024,4.024,0,0,1-2.044.658l-2.255.27c-2.825.329-3.607,1.287-3.607,2.784,0,1.526.962,2.544,3.1,2.544C60.889,185.286,63.383,183.909,63.383,180.855Zm18.939-4.34v10.448H79.917V176.754c0-2.395-1.322-3.443-3.546-3.443-2.014,0-4.268,1.5-4.268,4.91v8.742H69.7V171.515h2.285v2.305a5.719,5.719,0,0,1,4.869-2.664C80.308,171.156,82.322,173.1,82.322,176.515Zm17.826-5v14.849c0,4.011-2.315,6.826-7.215,6.826-3.968,0-6.282-1.977-6.613-4.97h2.4c0.3,1.946,1.774,2.934,4.209,2.934,3.1,0,4.81-1.587,4.81-4.79v-1.5a6.276,6.276,0,0,1-5.2,2.455c-4.359,0-7.215-3.144-7.215-8.083s2.855-8.083,7.215-8.083a6.27,6.27,0,0,1,5.321,2.6v-2.246h2.284Zm-2.315,7.724c0-3.742-1.984-5.928-4.99-5.928s-4.99,2.306-4.99,5.928,1.984,5.927,4.99,5.927S97.833,182.981,97.833,179.239Zm19.6,0.838H105.65c0.241,3.473,2.073,5.059,4.779,5.059a3.983,3.983,0,0,0,4.119-2.874h2.494a6.465,6.465,0,0,1-6.673,5.06c-4.239,0-7.214-3.083-7.214-8.083,0-4.85,2.855-8.083,7.154-8.083,4.629,0,7.125,3.652,7.125,8.083v0.838Zm-11.724-2.155h9.138c-0.24-2.545-1.774-4.581-4.539-4.581C107.874,173.341,106.1,174.869,105.71,177.922Zm28.257,2.155H122.184c0.24,3.473,2.073,5.059,4.779,5.059a3.983,3.983,0,0,0,4.119-2.874h2.494a6.466,6.466,0,0,1-6.673,5.06c-4.239,0-7.215-3.083-7.215-8.083,0-4.85,2.856-8.083,7.155-8.083,4.629,0,7.124,3.652,7.124,8.083v0.838Zm-11.724-2.155h9.139c-0.241-2.545-1.774-4.581-4.539-4.581C124.408,173.341,122.635,174.869,122.243,177.922Zm27.356-1.407v10.448h-2.4V176.754c0-2.395-1.323-3.443-3.548-3.443-2.013,0-4.268,1.5-4.268,4.91v8.742h-2.405V171.515h2.285v2.305a5.718,5.718,0,0,1,4.869-2.664C147.585,171.156,149.6,173.1,149.6,176.515Zm23.688-10.867v21.315H171v-2.4a6.1,6.1,0,0,1-5.32,2.755c-4.36,0-7.215-3.144-7.215-8.083s2.855-8.083,7.215-8.083a6.1,6.1,0,0,1,5.2,2.574v-8.082h2.4Zm-2.314,13.591c0-3.742-1.984-5.928-4.99-5.928s-4.99,2.306-4.99,6.047,1.984,5.808,4.99,5.808S170.973,182.981,170.973,179.239Zm19.6,0.838H178.789c0.241,3.473,2.074,5.059,4.78,5.059a3.984,3.984,0,0,0,4.119-2.874h2.494a6.466,6.466,0,0,1-6.673,5.06c-4.239,0-7.215-3.083-7.215-8.083,0-4.85,2.856-8.083,7.154-8.083,4.63,0,7.125,3.652,7.125,8.083v0.838Zm-11.724-2.155h9.139c-0.241-2.545-1.774-4.581-4.54-4.581C181.014,173.341,179.241,174.869,178.849,177.922Zm28.137,7.094v1.947a9.317,9.317,0,0,1-1.322.089c-1.714,0-2.5-.748-2.616-2.215a5.693,5.693,0,0,1-5.05,2.485c-3.367,0-5.47-1.617-5.47-4.521,0-2.424,1.472-4.34,5.741-4.79l2.224-.239c1.563-.18,2.435-0.749,2.435-2.126,0-1.616-.842-2.424-3.487-2.424s-3.758.748-3.908,3.053h-2.405c0.18-2.993,1.773-5.119,6.313-5.119,4.3,0,5.831,1.886,5.831,4.49v8.622a0.71,0.71,0,0,0,.842.748h0.872Zm-4.058-4.161V179.03a4.026,4.026,0,0,1-2.045.658l-2.254.27c-2.825.329-3.607,1.287-3.607,2.784,0,1.526.962,2.544,3.1,2.544C200.433,185.286,202.928,183.909,202.928,180.855Zm6.163,2.994v-18.2H211.5v17.991a1.2,1.2,0,0,0,1.473,1.318h1.142v2.006c-0.572.059-1.112,0.089-1.533,0.089C210.414,187.052,209.091,186.214,209.091,183.849Zm6.163-1.8h2.434c0.27,2.335,1.413,3.2,4.148,3.2,2.615,0,3.728-.868,3.728-2.394,0-1.378-.842-2.007-3.548-2.516l-1.442-.269c-3.367-.628-4.84-2.155-4.84-4.551,0-2.634,2.1-4.37,5.651-4.37,4.148,0,6.253,1.826,6.313,5.119h-2.4c-0.121-2.4-1.534-3.053-3.909-3.053-2.073,0-3.246.838-3.246,2.275,0,1.467,1.142,2.006,3.126,2.395l1.383,0.27c3.818,0.748,5.35,2.035,5.35,4.55,0,2.933-2.344,4.61-6.162,4.61C217.9,187.322,215.493,185.675,215.254,182.053ZM49.616,207.563l-2.765,2.575v5.717H44.445V194.54H46.85v12.783l7.184-6.915h3.187l-5.892,5.569,6.313,9.878h-2.8Zm22.606,1.407H60.437c0.241,3.473,2.074,5.059,4.779,5.059a3.983,3.983,0,0,0,4.119-2.874H71.83a6.466,6.466,0,0,1-6.673,5.06c-4.239,0-7.215-3.083-7.215-8.083,0-4.85,2.855-8.084,7.154-8.084,4.629,0,7.125,3.653,7.125,8.084v0.838ZM60.5,206.815h9.139c-0.241-2.545-1.774-4.581-4.539-4.581C62.662,202.234,60.889,203.761,60.5,206.815Zm19.48,4.131h2.435c0.27,2.335,1.413,3.2,4.148,3.2,2.615,0,3.727-.868,3.727-2.394,0-1.378-.841-2.007-3.547-2.516L85.3,208.97c-3.367-.628-4.84-2.155-4.84-4.551,0-2.634,2.1-4.371,5.651-4.371,4.148,0,6.253,1.827,6.313,5.12h-2.4c-0.12-2.4-1.533-3.054-3.908-3.054-2.074,0-3.246.839-3.246,2.276,0,1.467,1.142,2.006,3.126,2.394l1.383,0.27c3.818,0.749,5.351,2.036,5.351,4.55,0,2.934-2.345,4.611-6.162,4.611C82.622,216.215,80.217,214.568,79.977,210.946Zm29.309,2.963v1.946a9.157,9.157,0,0,1-1.322.09c-1.713,0-2.5-.748-2.615-2.215a5.7,5.7,0,0,1-5.051,2.485c-3.366,0-5.47-1.617-5.47-4.521,0-2.424,1.473-4.34,5.741-4.79l2.225-.239c1.562-.18,2.434-0.749,2.434-2.126,0-1.616-.841-2.425-3.486-2.425s-3.758.749-3.909,3.054h-2.4c0.18-2.993,1.773-5.12,6.313-5.12,4.3,0,5.831,1.887,5.831,4.491v8.622a0.709,0.709,0,0,0,.841.748h0.872Zm-4.058-4.161v-1.825a4.013,4.013,0,0,1-2.044.657l-2.255.27c-2.825.33-3.607,1.288-3.607,2.785,0,1.526.962,2.544,3.1,2.544C102.734,214.179,105.228,212.8,105.228,209.748Zm20.021,4.161v1.946a9.171,9.171,0,0,1-1.323.09c-1.713,0-2.5-.748-2.615-2.215a5.694,5.694,0,0,1-5.051,2.485c-3.366,0-5.47-1.617-5.47-4.521,0-2.424,1.473-4.34,5.741-4.79l2.225-.239c1.562-.18,2.434-0.749,2.434-2.126,0-1.616-.841-2.425-3.486-2.425s-3.758.749-3.909,3.054h-2.4c0.18-2.993,1.773-5.12,6.313-5.12,4.3,0,5.831,1.887,5.831,4.491v8.622a0.71,0.71,0,0,0,.842.748h0.872Zm-4.059-4.161v-1.825a4.013,4.013,0,0,1-2.044.657l-2.254.27c-2.825.33-3.607,1.288-3.607,2.785,0,1.526.962,2.544,3.1,2.544C118.7,214.179,121.19,212.8,121.19,209.748Zm9.32-7.245v10.029c0,0.809.392,1.318,1.774,1.318H133.7v2q-0.992.09-1.713,0.09c-2.405,0-3.878-.838-3.878-3.2V202.5h-2.555v-2.095h2.555v-4.371h2.4v4.371H133.7V202.5H130.51Zm18.518,2.9v10.448h-2.405V205.647c0-2.395-1.323-3.443-3.547-3.443-2.014,0-4.269,1.5-4.269,4.91v8.741H136.4V194.54h2.405v7.994a5.722,5.722,0,0,1,4.749-2.486C147.014,200.048,149.028,202,149.028,205.407Zm8.867,2.725c0-4.94,3.157-8.084,7.516-8.084s7.515,3.144,7.515,8.084-3.157,8.083-7.515,8.083S157.9,213.071,157.9,208.132Zm12.5,0c0-3.742-1.983-5.928-4.989-5.928s-4.99,2.186-4.99,5.928,1.983,5.927,4.99,5.927S170.4,211.873,170.4,208.132Zm18.157-2.725v10.448h-2.4V205.647c0-2.395-1.323-3.443-3.547-3.443-2.014,0-4.269,1.5-4.269,4.91v8.741h-2.405V200.408h2.285v2.305a5.721,5.721,0,0,1,4.869-2.665C186.544,200.048,188.557,202,188.557,205.407ZM59.264,237.025c0,4.939-2.855,8.083-7.214,8.083a6.1,6.1,0,0,1-5.2-2.575v8.083H44.445V229.3H46.73v2.4a6.105,6.105,0,0,1,5.32-2.755C56.409,228.941,59.264,232.085,59.264,237.025Zm-2.525-.12c0-3.742-1.984-5.808-4.99-5.808s-4.991,2.186-4.991,5.928,1.984,5.927,4.991,5.927S56.74,240.647,56.74,236.905ZM74.9,234.3v10.448H72.491V234.54c0-2.395-1.322-3.443-3.546-3.443-2.014,0-4.269,1.5-4.269,4.91v8.741H62.271V223.433h2.405v7.993a5.722,5.722,0,0,1,4.749-2.485C72.883,228.941,74.9,230.888,74.9,234.3Zm3.006,2.725c0-4.94,3.157-8.084,7.515-8.084s7.515,3.144,7.515,8.084-3.157,8.083-7.515,8.083S77.9,241.964,77.9,237.025Zm12.5,0c0-3.742-1.983-5.928-4.99-5.928s-4.99,2.186-4.99,5.928,1.984,5.927,4.99,5.927S90.408,240.766,90.408,237.025Zm18.157-2.725v10.448H106.16V234.54c0-2.395-1.322-3.443-3.547-3.443-2.013,0-4.268,1.5-4.268,4.91v8.741H95.94V229.3h2.285v2.305a5.718,5.718,0,0,1,4.869-2.665C106.551,228.941,108.565,230.888,108.565,234.3Zm17.286,3.563H114.068c0.24,3.472,2.073,5.059,4.779,5.059a3.984,3.984,0,0,0,4.119-2.874h2.494a6.466,6.466,0,0,1-6.673,5.06c-4.239,0-7.215-3.084-7.215-8.083,0-4.85,2.856-8.084,7.154-8.084,4.63,0,7.125,3.653,7.125,8.084v0.838Zm-11.724-2.155h9.139c-0.241-2.545-1.774-4.581-4.54-4.581C116.292,231.127,114.519,232.654,114.127,235.708Zm13.468,4.131h2.435c0.27,2.335,1.413,3.2,4.148,3.2,2.615,0,3.727-.868,3.727-2.4,0-1.378-.841-2.006-3.547-2.515l-1.442-.269c-3.368-.628-4.84-2.155-4.84-4.551,0-2.634,2.1-4.371,5.651-4.371,4.148,0,6.253,1.827,6.312,5.12h-2.4c-0.12-2.4-1.533-3.054-3.908-3.054-2.074,0-3.246.838-3.246,2.276,0,1.467,1.142,2.005,3.125,2.394l1.383,0.27c3.818,0.749,5.351,2.036,5.351,4.55,0,2.934-2.345,4.611-6.162,4.611C130.24,245.108,127.835,243.461,127.6,239.839Zm18.367,4.46c0,2.845-1.412,4.161-3.367,4.55l-0.3.06v-1.586l0.21-.06c0.932-.269,1.533-0.839,1.653-2.335h-0.18a1.563,1.563,0,0,1-1.683-1.557,1.609,1.609,0,0,1,1.683-1.616C145.21,241.755,145.962,242.653,145.962,244.3Zm23.086-20.866v21.315h-2.284v-2.395a6.1,6.1,0,0,1-5.32,2.755c-4.36,0-7.215-3.144-7.215-8.083s2.855-8.084,7.215-8.084a6.1,6.1,0,0,1,5.2,2.575v-8.083h2.4Zm-2.314,13.592c0-3.742-1.984-5.928-4.99-5.928s-4.99,2.306-4.99,6.047,1.984,5.808,4.99,5.808S166.734,240.766,166.734,237.025Zm19.63,5.777v1.946a9.167,9.167,0,0,1-1.322.09c-1.714,0-2.5-.749-2.616-2.215a5.7,5.7,0,0,1-5.051,2.485c-3.366,0-5.47-1.617-5.47-4.521,0-2.425,1.473-4.341,5.742-4.79l2.224-.24c1.563-.179,2.434-0.748,2.434-2.125,0-1.616-.841-2.425-3.486-2.425s-3.758.749-3.909,3.054h-2.4c0.18-2.993,1.773-5.12,6.313-5.12,4.3,0,5.831,1.887,5.831,4.491v8.622a0.71,0.71,0,0,0,.842.748h0.872Zm-4.059-4.161v-1.825a4.013,4.013,0,0,1-2.044.657l-2.254.27c-2.825.33-3.607,1.288-3.607,2.785,0,1.526.962,2.544,3.1,2.544C179.811,243.072,182.305,241.7,182.305,238.641Zm9.319-7.245v10.029c0,0.809.392,1.318,1.774,1.318h1.413v2q-0.992.09-1.713,0.09c-2.405,0-3.878-.838-3.878-3.2V231.4h-2.555V229.3h2.555V224.93h2.4V229.3h3.187V231.4h-3.187Zm19.3,11.406v1.946a9.147,9.147,0,0,1-1.322.09c-1.713,0-2.5-.749-2.615-2.215a5.7,5.7,0,0,1-5.051,2.485c-3.366,0-5.47-1.617-5.47-4.521,0-2.425,1.473-4.341,5.741-4.79l2.225-.24c1.562-.179,2.434-0.748,2.434-2.125,0-1.616-.841-2.425-3.486-2.425s-3.758.749-3.909,3.054h-2.4c0.18-2.993,1.773-5.12,6.313-5.12,4.3,0,5.831,1.887,5.831,4.491v8.622a0.71,0.71,0,0,0,.842.748h0.871Zm-4.058-4.161v-1.825a4.013,4.013,0,0,1-2.044.657l-2.254.27c-2.826.33-3.607,1.288-3.607,2.785,0,1.526.962,2.544,3.1,2.544C204.371,243.072,206.865,241.7,206.865,238.641ZM58,271.7v1.946a9.161,9.161,0,0,1-1.322.09c-1.713,0-2.5-.749-2.616-2.215A5.694,5.694,0,0,1,49.014,274c-3.366,0-5.47-1.617-5.47-4.521,0-2.425,1.473-4.341,5.741-4.79l2.224-.24c1.563-.179,2.435-0.748,2.435-2.125,0-1.616-.842-2.425-3.487-2.425s-3.758.749-3.908,3.054h-2.4c0.18-2.993,1.773-5.12,6.313-5.12,4.3,0,5.831,1.887,5.831,4.491v8.622a0.71,0.71,0,0,0,.842.748H58Zm-4.058-4.161v-1.826a4.005,4.005,0,0,1-2.044.658l-2.255.27c-2.825.33-3.607,1.288-3.607,2.784,0,1.527.962,2.545,3.1,2.545C51.449,271.965,53.944,270.588,53.944,267.534Zm18.939-4.341v10.448H70.478V263.433c0-2.395-1.322-3.443-3.546-3.443-2.014,0-4.268,1.5-4.268,4.91v8.741H60.258V258.194h2.285V260.5a5.718,5.718,0,0,1,4.869-2.665C70.869,257.834,72.883,259.78,72.883,263.193Zm17.825-10.867v21.315H88.424v-2.4A6.1,6.1,0,0,1,83.1,274c-4.359,0-7.215-3.144-7.215-8.083s2.855-8.084,7.215-8.084a6.1,6.1,0,0,1,5.2,2.575v-8.083h2.4Zm-2.314,13.592c0-3.742-1.984-5.928-4.99-5.928s-4.99,2.306-4.99,6.047,1.984,5.808,4.99,5.808S88.394,269.659,88.394,265.918Zm15.541-5.629v10.029c0,0.809.392,1.318,1.775,1.318h1.413v2q-0.993.09-1.714,0.09c-2.405,0-3.878-.838-3.878-3.2V260.289H98.976v-2.095h2.555v-4.371h2.4v4.371h3.188v2.095h-3.188Zm19.12,6.467H111.271c0.241,3.472,2.073,5.059,4.779,5.059a3.983,3.983,0,0,0,4.119-2.874h2.494A6.466,6.466,0,0,1,115.99,274c-4.239,0-7.215-3.084-7.215-8.083,0-4.85,2.856-8.084,7.155-8.084,4.629,0,7.125,3.653,7.125,8.084v0.838ZM111.33,264.6h9.139c-0.24-2.544-1.774-4.58-4.539-4.58C113.5,260.02,111.722,261.547,111.33,264.6Zm13.979,1.318c0-4.97,2.886-8.084,7.185-8.084,3.7,0,6.192,2.186,6.673,5.6h-2.5a4.034,4.034,0,0,0-4.178-3.443c-2.645,0-4.659,1.887-4.659,5.928s2.073,5.927,4.659,5.927a4.071,4.071,0,0,0,4.209-3.5h2.464A6.391,6.391,0,0,1,132.494,274C128.256,274,125.309,270.887,125.309,265.918Zm29.19-2.725v10.448h-2.406V263.433c0-2.395-1.322-3.443-3.546-3.443-2.014,0-4.268,1.5-4.268,4.91v8.741h-2.406V252.326h2.406v7.993a5.721,5.721,0,0,1,4.749-2.485C152.485,257.834,154.5,259.78,154.5,263.193Zm3.307,8.892a1.76,1.76,0,0,1,3.517,0A1.759,1.759,0,1,1,157.806,272.085Z"/>
</svg>
