<svg id="HING" xmlns="http://www.w3.org/2000/svg" width="320" height="50" viewBox="0 0 320 50">
  <defs>
    <style>
      .cls-1 {
        fill: #4c286c;
        fill-rule: evenodd;
      }
    </style>
  </defs>
  <g id="txt1">
    <path class="cls-1" d="M278,35.43A2.8,2.8,0,1,1,280.784,38,2.53,2.53,0,0,1,278,35.43Zm3.844,0a1.071,1.071,0,1,0-2.115,0A1.072,1.072,0,1,0,281.842,35.43Zm7.141-2.449v4.9h-1.737l-1.108-1.74c-0.185-.289-0.349-0.55-0.5-0.819,0.022,0.578.029,1.135,0.029,1.761v0.8h-1.626v-4.9h1.737l1.087,1.741c0.163,0.261.34,0.591,0.51,0.922-0.022-.612-0.022-1.2-0.022-1.865v-0.8h1.626Z"/>
  </g>
</svg>
