<svg xmlns="http://www.w3.org/2000/svg" width="300" height="50" viewBox="0 0 300 50">
  <defs>
    <style>
      .cls-1 {
        fill: #fff;
        fill-rule: evenodd;
      }
    </style>
  </defs>
  <path id="_须签约两年_有若干条件_" data-name="*须签约两年。有若干条件。" class="cls-1" d="M52.674,43.346l0.49-.729,0.49,0.729L54,43.107l-0.549-.688,0.829-.263-0.152-.379-0.788.327,0.029-.834H52.954L52.983,42.1,52.2,41.777l-0.152.379,0.829,0.263-0.566.688Zm7.352-2.106V40.814h-3.2V41.24h1.418a2.355,2.355,0,0,1-.085.3,2.051,2.051,0,0,1-.114.268H57.16v2.847H57.6V42.232h1.751v2.252H59.8V41.806H58.52a2.836,2.836,0,0,0,.169-0.566h1.337Zm0.134,4.218a2.954,2.954,0,0,0-.54-0.6,6.889,6.889,0,0,0-.762-0.551l-0.3.3a5,5,0,0,1,.73.54,2.79,2.79,0,0,1,.531.639Zm-3.794-4.742a4.685,4.685,0,0,1-.66.881,3.779,3.779,0,0,1-.84.677L55.193,42.6a4.8,4.8,0,0,0,1.512-1.627,3.2,3.2,0,0,0-.338-0.257h0Zm1.9,1.721q0.006,0.572-.012.931a3.426,3.426,0,0,1-.085.636,2.027,2.027,0,0,1-.155.446,1.874,1.874,0,0,1-1.611.892l0.286,0.438a2.381,2.381,0,0,0,1.564-.858,1.827,1.827,0,0,0,.295-0.586,3.315,3.315,0,0,0,.125-0.656q0.029-.332.029-0.723V42.517Zm-1.85-.157a4.5,4.5,0,0,1-.665.849,3.558,3.558,0,0,1-.835.633L55.246,44.1a3.95,3.95,0,0,0,.487-0.353,4.254,4.254,0,0,0,.543-0.548,5.06,5.06,0,0,0,.476-0.668Zm0.228,1.313a5.245,5.245,0,0,1-.77.954,3.824,3.824,0,0,1-.951.691q0.157,0.169.338,0.344a4.3,4.3,0,0,0,.948-0.744,5.687,5.687,0,0,0,.779-1Zm9.5,0.2a7.151,7.151,0,0,1-1.351-.595,3.792,3.792,0,0,1-1.013-.846l0.14-.146L63.7,42.074a2.33,2.33,0,0,0,.178-0.225q0.1-.143.16-0.242h0.432a1.193,1.193,0,0,1,.21.219,5.163,5.163,0,0,1,.315.522l0.4-.187a3.114,3.114,0,0,0-.374-0.554h0.951V41.217H64.222a3.211,3.211,0,0,0,.152-0.426L64.035,40.6a3.849,3.849,0,0,1-.277.613,3.278,3.278,0,0,1-.336.5,1.66,1.66,0,0,1-.286.283l0.257,0.158a4.488,4.488,0,0,1-1.126.96,6.436,6.436,0,0,1-1.442.586l0.251,0.391a4.237,4.237,0,0,0,.686-0.236,4.882,4.882,0,0,0,.633-0.324v0.245h2.136l-0.006-.216a6.236,6.236,0,0,0,.6.33,6.371,6.371,0,0,0,.665.283Zm-2.708-2.217V41.2l-1.3-.012q0.006-.018.085-0.172t0.137-.3L62,40.511a4.641,4.641,0,0,1-.487.928,3.049,3.049,0,0,1-.651.665l0.315,0.292a2.11,2.11,0,0,0,.435-0.365,2.414,2.414,0,0,0,.33-0.446h0.2a2.8,2.8,0,0,1,.508.788l0.391-.2a2.449,2.449,0,0,0-.181-0.312,2.545,2.545,0,0,0-.2-0.265Zm0.4,3.2a1.865,1.865,0,0,0-.271-0.513,1.81,1.81,0,0,0-.388-0.391l-0.362.2a1.413,1.413,0,0,1,.406.441,2.5,2.5,0,0,1,.2.487Zm2.078,0.758v-0.42H64.456a5.478,5.478,0,0,0,.309-0.47q0.193-.318.286-0.51L64.619,43.9a4.85,4.85,0,0,1-.66,1.219H60.948v0.42h4.961ZM62.746,44.8a1.8,1.8,0,0,0-.695-0.875l-0.368.21a1.626,1.626,0,0,1,.388.376,2.323,2.323,0,0,1,.283.534Zm-0.128-1.429a4.118,4.118,0,0,0,.9-0.7,3.174,3.174,0,0,0,.776.718Zm7.231-1.913a3.406,3.406,0,0,0,.14-0.8l-0.4-.1a4.679,4.679,0,0,1-.353,1.272,2.76,2.76,0,0,1-.7.986l0.438,0.227a2.669,2.669,0,0,0,.4-0.5,4.5,4.5,0,0,0,.347-0.65h1.389s0,0.192,0,.563-0.007.645-.014,0.82l-0.023.5q-0.041.863-.076,1.073a1.79,1.79,0,0,1-.07.3,0.391,0.391,0,0,1-.12.14,0.311,0.311,0,0,1-.166.064,7.387,7.387,0,0,1-.957-0.152L69.813,45.7a5.82,5.82,0,0,0,.68.085,1.752,1.752,0,0,0,.289-0.015,0.655,0.655,0,0,0,.379-0.21,0.824,0.824,0,0,0,.21-0.4,10.152,10.152,0,0,0,.143-1.458q0.038-.922.038-2.24h-1.7Zm0.759,2.532A1.792,1.792,0,0,0,70.45,43.6a1.954,1.954,0,0,0-.344-0.452,2.116,2.116,0,0,0-.5-0.376l-0.362.251a2.032,2.032,0,0,1,.957,1.26Zm-1.833-.478-1.278.3a4.219,4.219,0,0,0,.651-0.764,9.01,9.01,0,0,0,.575-1.009l-0.408-.187a5.592,5.592,0,0,1-.391.694q-0.555.123-.613,0.128,0.146-.257.417-0.831t0.429-.942l-0.4-.181q-0.216.554-.5,1.152a9.769,9.769,0,0,1-.484.93L67,43.2l0.114-.035q0.09-.029.292-0.085t0.23-.061a6.468,6.468,0,0,1-.834.968l0.21,0.391q0.654-.2,1.763-0.472v-0.4ZM68.88,44.9V44.466q-0.969.344-2.084,0.683l0.222,0.4ZM77.6,41.3V40.872H72.65V41.3h1.657v0.747H72.983v3.733h0.444V42.447H74.3a3.858,3.858,0,0,1-.09.706,3.042,3.042,0,0,1-.28.779,1.867,1.867,0,0,1-.458.592l0.333,0.292a2.173,2.173,0,0,0,.327-0.364,2.858,2.858,0,0,0,.312-0.545,2.933,2.933,0,0,0,.19-0.548,1.506,1.506,0,0,1,.4.449l0.309-.315A2.287,2.287,0,0,0,74.7,42.9l0.058-.455h0.823a3.426,3.426,0,0,1-.236,1.184,2.931,2.931,0,0,1-.715,1.05L75,44.973a3.346,3.346,0,0,0,.881-1.622,1.95,1.95,0,0,1,.318.341,2.575,2.575,0,0,1,.254.411l0.35-.321a2.368,2.368,0,0,0-.371-0.47,3.917,3.917,0,0,0-.482-0.394l0.041-.472h0.864v2.759a0.107,0.107,0,0,1-.1.117,3.494,3.494,0,0,1-.554-0.047L76.356,45.7a2.67,2.67,0,0,0,.481.02,0.535,0.535,0,0,0,.236-0.067,0.368,0.368,0,0,0,.2-0.344V42.045H76.017V41.3H77.6Zm-2.008.747H74.751V41.3H75.6v0.747Zm7.908,2.094V43.713H81.492V42.762H82.98V42.337H81.492V41.578h1.774V41.152H80q0.076-.251.091-0.327c0.01-.05.016-0.093,0.02-0.128l-0.373-.181a3.8,3.8,0,0,1-1.08,1.937l0.368,0.3a3.2,3.2,0,0,0,.388-0.446,4.925,4.925,0,0,0,.417-0.726h1.2v0.758H79.484v1.377h-0.73v0.426h2.276v1.68h0.461v-1.68h2.013Zm-2.475-.426h-1.1V42.762h1.1v0.951Zm6.645-.656a0.786,0.786,0,0,0-.137-0.324,0.694,0.694,0,0,0-.292-0.239,0.825,0.825,0,0,0-.379-0.064,0.678,0.678,0,0,0-.394.16,0.732,0.732,0,0,0-.248.353,0.764,0.764,0,0,0-.02.382,0.7,0.7,0,0,0,.155.335,0.772,0.772,0,0,0,.295.21,0.807,0.807,0,0,0,.359.058,0.694,0.694,0,0,0,.385-0.166,0.78,0.78,0,0,0,.251-0.353A0.7,0.7,0,0,0,87.676,43.057Zm-0.376.184a0.345,0.345,0,0,1-.1.2,0.38,0.38,0,0,1-.2.1,0.367,0.367,0,0,1-.225-0.023,0.4,0.4,0,0,1-.131-0.111,0.374,0.374,0,0,1-.079-0.157,0.36,0.36,0,0,1,.012-0.181,0.414,0.414,0,0,1,.088-0.157,0.351,0.351,0,0,1,.166-0.1,0.374,0.374,0,0,1,.2-0.006,0.393,0.393,0,0,1,.152.085,0.41,0.41,0,0,1,.1.137A0.414,0.414,0,0,1,87.3,43.241Zm8.048-1.493V41.322H92.377q0.14-.478.193-0.723l-0.449-.1a8.072,8.072,0,0,1-.228.822H90.5v0.426h1.226a3.883,3.883,0,0,1-.6,1.059,7.629,7.629,0,0,1-.983,1.041l0.409,0.268q0.531-.542.709-0.747a3.871,3.871,0,0,0,.277-0.35V45.8H92V44.571H94.2v0.578a0.1,0.1,0,0,1-.029.07,0.1,0.1,0,0,1-.076.029,4.309,4.309,0,0,1-.735-0.029q0.052,0.134.2,0.449H93.9a2.321,2.321,0,0,0,.441-0.029,0.5,0.5,0,0,0,.207-0.146,0.393,0.393,0,0,0,.1-0.222V42.29H92q0.076-.158.21-0.543h3.14ZM94.2,43.188H92V42.716H94.2v0.473Zm0,0.957H92V43.614H94.2v0.531Zm6.986-2.345V41.374H99.97V40.6H99.526v0.776H97.863V40.6H97.419v0.776h-1.2V41.8h1.2v0.642h0.444V41.8h1.663v0.624H99.97V41.8h1.214Zm-0.117,1.289V42.663H98.7a6.189,6.189,0,0,0,.251-0.618L98.54,41.87a4.414,4.414,0,0,1-.368.793H96.386v0.426h1.529a3.717,3.717,0,0,1-.587.607,9.613,9.613,0,0,1-1.159.8L96.5,44.833a10.124,10.124,0,0,0,1-.688V45.8h0.444V45.387h2.077V45.8h0.444V43.707h-2.5a5.126,5.126,0,0,0,.484-0.618h2.626Zm-1.051,1.872H97.939V44.133h2.077v0.828Zm6.864-1.785V42.733h-2.095V41.374H106.5V40.931h-3.887v0.443h1.71v1.359h-2.107v0.443h2.107v2.637h0.461V43.177h2.095ZM113,43.258q-0.992-.292-1.479-0.481a6.692,6.692,0,0,1-.774-0.347,4.97,4.97,0,0,0,.686-0.575,2.236,2.236,0,0,0,.371-0.493V41h-2.078l0.088-.169a0.7,0.7,0,0,0,.029-0.07l-0.374-.163a3.41,3.41,0,0,1-.659.916,2.441,2.441,0,0,1-.922.607l0.326,0.367a3.024,3.024,0,0,0,1-.752,1.3,1.3,0,0,0,.234.277,3.752,3.752,0,0,0,.309.245q0.175,0.126.21,0.155a6.771,6.771,0,0,1-.645.3,15.1,15.1,0,0,1-1.666.5l0.286,0.385q0.888-.233,1.526-0.469a4.135,4.135,0,0,0,.908-0.429,6.271,6.271,0,0,0,.82.417q0.47,0.2,1.474.522Zm-0.122,1.855c-0.07-.062-0.153-0.129-0.248-0.2a3.818,3.818,0,0,0-.324-0.216,3.288,3.288,0,0,0-.385-0.2q-0.206-.087-0.511-0.2t-0.33-.114l-0.233.35a5.656,5.656,0,0,1,1.129.464,2.838,2.838,0,0,1,.622.487ZM112.261,44V43.573h-1.675V43.217h-0.444v0.356h-1.75V44h1.75v1.254a0.123,0.123,0,0,1-.037.073,0.1,0.1,0,0,1-.068.032l-0.572-.029,0.17,0.467h0.595a0.3,0.3,0,0,0,.257-0.143,0.565,0.565,0,0,0,.1-0.33V44h1.675Zm-2.737.169a3.537,3.537,0,0,1-.771.528,4.255,4.255,0,0,1-.992.341l0.31,0.4a5.67,5.67,0,0,0,.939-0.391,3.757,3.757,0,0,0,.794-0.578Zm1.751-2.742a3.3,3.3,0,0,1-.922.752,3.361,3.361,0,0,1-.888-0.752h1.81Zm7.616,2.316V43.3H117.28V42.138h1.214V41.695H117.28V40.54h-0.461v1.155h-0.642a2.752,2.752,0,0,0,.088-0.595l-0.4-.128a4.263,4.263,0,0,1-.248,1.018,3.7,3.7,0,0,1-.5.884l0.409,0.2a5.456,5.456,0,0,0,.507-0.939h0.788V43.3h-1.628v0.443h1.628v2.036h0.461V43.742h1.611Zm-3.98-3.179a6.026,6.026,0,0,1-1.3,2.765l0.38,0.268,0.537-.788v3h0.443V41.975a7.136,7.136,0,0,0,.362-1.324Zm7.958,2.494a0.8,0.8,0,0,0-.138-0.324,0.691,0.691,0,0,0-.291-0.239,0.829,0.829,0,0,0-.38-0.064,0.679,0.679,0,0,0-.394.16,0.738,0.738,0,0,0-.248.353,0.756,0.756,0,0,0-.02.382,0.7,0.7,0,0,0,.154.335,0.774,0.774,0,0,0,.295.21,0.809,0.809,0,0,0,.359.058,0.692,0.692,0,0,0,.385-0.166,0.772,0.772,0,0,0,.251-0.353A0.707,0.707,0,0,0,122.869,43.057Zm-0.377.184a0.35,0.35,0,0,1-.1.2,0.384,0.384,0,0,1-.2.1,0.367,0.367,0,0,1-.225-0.023,0.391,0.391,0,0,1-.131-0.111,0.366,0.366,0,0,1-.079-0.157,0.362,0.362,0,0,1,.011-0.181,0.421,0.421,0,0,1,.088-0.157,0.351,0.351,0,0,1,.166-0.1,0.376,0.376,0,0,1,.2-0.006,0.4,0.4,0,0,1,.152.085,0.429,0.429,0,0,1,.1.137A0.416,0.416,0,0,1,122.492,43.241Z"/>
</svg>
