<svg id="SC" xmlns="http://www.w3.org/2000/svg" width="300" height="50" viewBox="0 0 300 50">
  <defs>
    <style>
      .cls-1 {
        fill: #fffffe;
        fill-rule: evenodd;
      }
    </style>
  </defs>
  <path id="_直播电视" data-name="+  直播电视" class="cls-1" d="M105.585,23.182h-3.063V20.12H101.23v3.062H98.15v1.192h3.08v3.062h1.292V24.373h3.063V23.182Zm20.6,7.051V29.024H123.24v-9.4h-3.693a7.524,7.524,0,0,0,.414-1.126h5.432V17.288h-5.151l0.133-1.01-1.342-.348a6.532,6.532,0,0,1-.149,1.357h-6.045V18.5h5.78a6.956,6.956,0,0,1-.48,1.126H114.86v9.4h-3v1.208h14.326Zm-4.207-8.194h-5.862V20.83h5.862v1.208Zm0,2.268h-5.862V23.131h5.862v1.175Zm0,2.334h-5.862V25.449h5.862v1.192Zm0,2.384h-5.862V27.849h5.862v1.175ZM139.926,17.7a3.854,3.854,0,0,1-.621.977,5.5,5.5,0,0,1-.819.828l0.993,0.546a3.608,3.608,0,0,0,.895-0.869,4.449,4.449,0,0,0,.513-0.869Zm2.915,6.29a10.207,10.207,0,0,1-2-1.225,5.974,5.974,0,0,1-1.367-1.44H142V20.118h-4.223V17.751a16.553,16.553,0,0,0,4.057-.944l-1.027-.861a19.134,19.134,0,0,1-3.66.745,39.618,39.618,0,0,1-4.571.3l0.58,1.159A7.955,7.955,0,0,1,134,18.132l-0.762.43a3.957,3.957,0,0,1,1.374,1.556h-2.285v1.208h3a5.973,5.973,0,0,1-1.565,1.573,9.126,9.126,0,0,1-2.2,1.142l0.745,1.076,1.143-.6v6.257h1.259V29.719h5.067v1.059h1.176V24.356a5.1,5.1,0,0,0,.994.629Zm-10.234-.745V21.939l-1.623.762V20.069h1.623V18.86h-1.623V16.013h-1.259V18.86h-1.987v1.208h1.987v3.162q-0.993.48-2.484,1.093l0.811,1.026q0.232-.1.5-0.223c0.183-.083.406-0.193,0.671-0.331s0.431-.223.5-0.257v4.5a0.6,0.6,0,0,1-.066.323,0.29,0.29,0,0,1-.216.19,2.41,2.41,0,0,1-.629.05c-0.21-.011-0.5-0.033-0.878-0.066L128.4,30.8a5.534,5.534,0,0,0,1.722-.083,1.049,1.049,0,0,0,.6-0.439,1.246,1.246,0,0,0,.257-0.737V24.058Zm3.908-3.129L135.14,20.1l0.663-.281a6.836,6.836,0,0,0-.6-0.96,5.4,5.4,0,0,0-.713-0.811,17.821,17.821,0,0,0,2.021-.133v2.2Zm-2.3,3.907a6.218,6.218,0,0,0,2.3-2.367v2.168h1.259v-2.5H138.1a6.828,6.828,0,0,0,2.467,2.715Zm5.564,2.284H137.84V25.25h1.937v1.059Zm0,2.2H137.84V27.452h1.937v1.059Zm-3.2-2.2H134.71V25.25h1.871v1.059Zm0,2.2H134.71V27.452h1.871v1.059Zm20.5-1.9L157.014,27.9a1.152,1.152,0,0,1-.5,1.142h-4.985a0.383,0.383,0,0,1-.463-0.4v-2h5.018V18.562h-5.018V16.03H149.81v2.533h-4.9v8.078h4.9v1.9q0,1.639,1.358,1.639H156.6l0.48-.05q1.176-.116,1.176-2.963Zm-2.252-4.668h-3.759V19.787h3.759v2.152Zm0,3.509h-3.759v-2.3h3.759v2.3Zm-5.018-3.509H146.1V19.787h3.71v2.152Zm0,3.509H146.1v-2.3h3.71v2.3Zm22.751,0.712V16.791h-7.154V26.16h1.259V18H171.3V26.16h1.258Zm-9.373-8.095a4.436,4.436,0,0,0-.836-1.15,3.987,3.987,0,0,0-1.069-.786l-0.894.7a4.79,4.79,0,0,1,1.838,1.937Zm9.605,9.435-0.232,1.275a0.3,0.3,0,0,1-.1.174,0.266,0.266,0,0,1-.182.075h-1.921a0.243,0.243,0,0,1-.182-0.091,0.277,0.277,0,0,1-.083-0.19V24.009h-0.762l0.066-1.043V18.976h-1.192v3.758a12.745,12.745,0,0,1-.149,1.738,5.167,5.167,0,0,1-.745,2.061,7.734,7.734,0,0,1-1.648,1.87,8.855,8.855,0,0,1-2.377,1.415l0.828,1.026a8.33,8.33,0,0,0,2.981-1.97,7.738,7.738,0,0,0,1.739-2.665v2.731a1.346,1.346,0,0,0,.323.927,1.185,1.185,0,0,0,.936.364h2.567a0.869,0.869,0,0,0,.571-0.2,1.213,1.213,0,0,0,.364-0.571,6.054,6.054,0,0,0,.207-0.819c0.056-.3.083-0.452,0.083-0.463Zm-7.6-1.8a6.538,6.538,0,0,0-.621-1.266,4.834,4.834,0,0,0-.87-1.084l-0.811.762a6.4,6.4,0,0,1,.77,1.109,11.786,11.786,0,0,1,.637,1.308Zm-5.763-6.721v1.208h3.726a6.66,6.66,0,0,1-1.01,2.177,8.448,8.448,0,0,1-1.632,1.779,11.236,11.236,0,0,1-1.631,1.126l0.745,1.043a17.191,17.191,0,0,0,1.8-1.324v5.877h1.259V23.595a10.785,10.785,0,0,0,2-4.618h-5.266Z"/>
</svg>
