<svg xmlns="http://www.w3.org/2000/svg" width="300" height="50" viewBox="0 0 300 50">
  <defs>
    <style>
      .cls-1 {
        fill: #fffffe;
        fill-rule: evenodd;
      }
    </style>
  </defs>
  <path id="_" data-name="$" class="cls-1" d="M87.154,17c0-2.354-1.492-3.138-3.959-3.574l-0.516-.087V9.907c1.377,0.116,1.951.785,2.008,1.8h2.066c-0.115-2.121-1.492-3.429-4.074-3.574V6.42H81.7V8.106c-2.812.145-4.16,1.54-4.16,3.429,0,2.325,1.492,3.226,3.787,3.632L81.7,15.225v3.6c-1.434-.116-2.18-0.668-2.3-2.063H77.285c0.086,2.179,1.435,3.661,4.418,3.836v1.714h0.975V20.63C85.461,20.543,87.154,19.264,87.154,17Zm-7.4-5.55c0-.872.6-1.453,1.951-1.54v3.255C80.24,12.871,79.752,12.377,79.752,11.447Zm2.926,7.41V15.4c1.836,0.349,2.267.814,2.267,1.744C84.945,18.1,84.314,18.77,82.678,18.857Z"/>
  <path id="_38起_" data-name="38起*" class="cls-1" d="M43.853,17.228V16.074H34.805a3.234,3.234,0,0,1,.18-0.387,3.3,3.3,0,0,0,.242-0.609l-1.141-.38a11.055,11.055,0,0,1-.7,1.581,11.833,11.833,0,0,1-1.242,1.882,11.72,11.72,0,0,1-1.5,1.6L31.618,20.5a15.765,15.765,0,0,0,2.641-3.273h9.595Zm0.328,5.993V22.067H42.556q0-.032.1-1.423t0.117-2.166H33.509q-0.234,2.372-.289,2.791t-0.117.8H30.6v1.154H32.93Q32.664,24.866,32.149,27h8.485a1.681,1.681,0,0,1-.266.7,0.56,0.56,0,0,1-.406.2q-0.234.016-.8,0a13.669,13.669,0,0,1-1.9-.269l0.422,1.218a16.1,16.1,0,0,0,2.047.174,7.512,7.512,0,0,0,.859-0.063,1.338,1.338,0,0,0,.641-0.3,1.712,1.712,0,0,0,.461-0.68A5.563,5.563,0,0,0,41.978,27h1.531V25.846H42.119l0.359-2.625h1.7Zm-2.7-3.59q0,0.759-.187,2.435H34.337q0.062-.364.156-1.273t0.125-1.162h6.86ZM41.2,23.221q-0.141,1.218-.344,2.625H33.727l0.453-2.625h1.641l-0.656.87a14.021,14.021,0,0,1,2.344.846,6.564,6.564,0,0,1,1.328.862l0.828-.822a7.14,7.14,0,0,0-1.609-1.044,9.7,9.7,0,0,0-1.922-.712H41.2ZM39.775,21.15a4.765,4.765,0,0,0-1.406-.878,9.359,9.359,0,0,0-2.11-.561l-0.813.87a8.379,8.379,0,0,1,1.93.538,6.227,6.227,0,0,1,1.555.9Zm16.312-5.5H48.336v7.305a5.357,5.357,0,0,1-.8,2.8A7.924,7.924,0,0,1,45.3,28.107L46.07,29.23a12.731,12.731,0,0,0,2.281-2.4,7.805,7.805,0,0,0,1.188-2.736h5.266v3.1a0.3,0.3,0,0,1-.125.229,0.411,0.411,0,0,1-.266.1L52.4,27.459l0.469,1.265h1.891a1.6,1.6,0,0,0,.617-0.134,1.111,1.111,0,0,0,.516-0.443,1.157,1.157,0,0,0,.2-0.625V15.647Zm-1.281,3.637H49.571V16.8h5.235v2.483Zm0,3.653H49.571q0.031-.411.023-1.265T49.6,20.438h5.2v2.5ZM72.766,28A10.659,10.659,0,0,1,70.6,26.423a13.631,13.631,0,0,1-1.789-2.032q0.25-.348.609-0.972a15.545,15.545,0,0,0,.852-1.85,17.038,17.038,0,0,0,.742-2.238q0.25-1.012.3-1.368t0.07-.466V16.438H63.75v1.139h1.141a16.179,16.179,0,0,0,2.438,6.847,14.293,14.293,0,0,1-4.594,3.495l0.719,1.012a12.409,12.409,0,0,0,2.586-1.565A14.9,14.9,0,0,0,68.032,25.4a14.527,14.527,0,0,0,1.836,2.008,11.154,11.154,0,0,0,2.227,1.6ZM62.828,14.872q-1.25,3.368-1.922,4.7a11.582,11.582,0,0,1-1.274,2.064A7.975,7.975,0,0,1,58.5,22.794l0.844,0.854a6.932,6.932,0,0,0,.977-0.988,11.951,11.951,0,0,0,1.1-1.479V28.93h1.125v-10.1a30.75,30.75,0,0,0,1.266-3.4Zm7.313,2.7a14.25,14.25,0,0,1-.461,2.2,12.991,12.991,0,0,1-.781,2.087,11.751,11.751,0,0,1-.836,1.486,13.773,13.773,0,0,1-1.438-3.115,12.809,12.809,0,0,1-.516-2.657h4.032Zm33.946,2.932a6.982,6.982,0,0,0,3.886-6.329c0-5.072-3.846-7.831-9.133-7.831-5.768,0-9.294,3.449-9.334,8.6h3.365c0.16-3.895,2.684-5.518,5.969-5.518,3.486,0,5.728,1.745,5.728,4.828s-2.083,4.909-5.929,4.909H96.716v2.84H98.84c4.005,0,6.489,2.272,6.489,5.761s-2.484,5.68-6.289,5.68c-4.166,0-6.529-2.191-6.65-6.289H89.065c-0.04,5.6,3.445,9.372,9.975,9.372,5.808,0,9.814-3.489,9.814-8.764C108.854,24.16,106.691,21.888,104.087,20.508Zm22.351-.122a6.437,6.437,0,0,0,4.126-6.127c0-5.153-4.126-7.912-9.174-7.912s-9.173,2.759-9.173,7.912a6.437,6.437,0,0,0,4.126,6.127,7.611,7.611,0,0,0-5.288,7.3c0,5.477,4.206,8.845,10.335,8.845s10.336-3.368,10.336-8.845A7.612,7.612,0,0,0,126.438,20.387ZM121.39,9.432c3.285,0,5.849,1.663,5.849,4.828s-2.564,4.828-5.849,4.828-5.848-1.663-5.848-4.828S118.106,9.432,121.39,9.432Zm0,24.019c-4.126,0-6.81-2.069-6.81-5.761s2.684-5.761,6.81-5.761S128.2,24,128.2,27.69,125.516,33.451,121.39,33.451Zm22.275-1.842q-0.16.79-.26,1.1a0.7,0.7,0,0,1-.557.652h-1.6a0.324,0.324,0,0,1-.26-0.063,0.407,0.407,0,0,1-.037-0.2V30.317h1.981V31.07h0.941v-4.7h-4.284v0.916h3.343V29.4h-2.922V33.29a1.049,1.049,0,0,0,.117.464,0.876,0.876,0,0,0,.39.383,1.2,1.2,0,0,0,.57.144h1.993a0.884,0.884,0,0,0,.5-0.163,1.286,1.286,0,0,0,.365-0.351A7.634,7.634,0,0,0,144.545,32Zm1.362,3.5q-0.655.05-1.7,0.075t-1.176.025h-0.168q-1.572,0-1.931-.013c-0.24-.008-0.487-0.027-0.743-0.056a6.183,6.183,0,0,1-.749-0.132,4.237,4.237,0,0,1-.663-0.213V32.662h1.474V31.747H137.9V30.455h1.672V29.54h-2.043v-1.4h1.585V27.219h-1.585V25.426h-0.941v1.793h-1.821v0.915h1.821v1.4h-2.192v0.916h2.563v3.863a1.88,1.88,0,0,1-.551-0.4,4.017,4.017,0,0,1-.489-0.577A15.045,15.045,0,0,0,136,31.5l-0.929-.138a16.085,16.085,0,0,1-.186,2.433,5.217,5.217,0,0,1-1.127,2.446l0.818,0.577a9.178,9.178,0,0,0,.743-1.2,4.821,4.821,0,0,0,.433-1.129,4.85,4.85,0,0,0,1.269.928,5.556,5.556,0,0,0,1.48.533,6.758,6.758,0,0,0,1.288.144l2.229,0.025h2.587Zm1.429-6.968,0.486-.679,0.486,0.679,0.256-.207-0.491-.689,0.778-.254-0.108-.311-0.757.249V26.108h-0.328v0.819l-0.757-.249-0.108.311,0.778,0.254-0.491.689Z"/>
</svg>
