<svg xmlns="http://www.w3.org/2000/svg" width="300" height="50" viewBox="0 0 300 50">
  <defs>
    <style>
      .cls-1 {
        fill: #fffffe;
        fill-rule: evenodd;
      }
    </style>
  </defs>
  <path id="选用全新升级版Optik_TV_" data-name="选用全新升级版Optik TV®" class="cls-1" d="M12.686,18.511l-0.98.662a7.35,7.35,0,0,1,1.376,1.42,5.516,5.516,0,0,1,.648,1.215,11.553,11.553,0,0,0,1.028-.757,8.272,8.272,0,0,0-2.071-2.539h0Zm12.127,11.8a9.047,9.047,0,0,1-1.676.126h-5.6a4.012,4.012,0,0,1-1.391-.189,4.292,4.292,0,0,0,1.328-.9A4.889,4.889,0,0,0,18.4,28.07a5.934,5.934,0,0,0,.514-1.5,7.943,7.943,0,0,0,.158-1.562H20.18v3.88a0.771,0.771,0,0,0,.2.457,1.227,1.227,0,0,0,.427.363,0.914,0.914,0,0,0,.372.11h2.182a0.67,0.67,0,0,0,.411-0.181,1.633,1.633,0,0,0,.411-0.678,6.015,6.015,0,0,0,.3-1.222l-1.075-.473-0.174,1.151a0.291,0.291,0,0,1-.269.252h-1.3a0.426,0.426,0,0,1-.285-0.205V25.01h2.656V23.858H20.323V21.745h2.53V20.593h-2.53V18.48h-1.2v2.114H17.635a10.112,10.112,0,0,0,.19-1.577l-1.075-.331a10.929,10.929,0,0,1-.348,1.956,8.079,8.079,0,0,1-.624,1.664,3.994,3.994,0,0,1-.719,1.017l0.727,0.536h-0.4V25.01H17.9A7.277,7.277,0,0,1,17.572,27a3.3,3.3,0,0,1-.854,1.285,5.79,5.79,0,0,1-1.66,1.1L15.5,30.167a6.206,6.206,0,0,1-.727-0.379,1.926,1.926,0,0,1-.585-0.473v-5.8H10.915v1.151h2.071V29a20.674,20.674,0,0,1-2.624,1.972l0.9,0.915,2.119-1.735a5.856,5.856,0,0,0,1.723,1.033,8.077,8.077,0,0,0,1.787.4h7.431Zm-5.692-6.451H16.243a5.556,5.556,0,0,0,1.107-2.113h1.771v2.113ZM38.7,18.78H28.168V25.8a10.369,10.369,0,0,1-.174,1.877,7.478,7.478,0,0,1-.522,1.719A10.036,10.036,0,0,1,26,31.6l1.012,0.757a9.548,9.548,0,0,0,1.692-2.618,11.077,11.077,0,0,0,.617-2.776H32.8v3.77H34v-3.77h3.447v3.391a0.269,0.269,0,0,1-.237.331,4.318,4.318,0,0,1-.593.024q-0.308-.008-1.083-0.039l0.38,1.23,1.8-.032a1.025,1.025,0,0,0,.435-0.2,1.284,1.284,0,0,0,.387-0.489,1.364,1.364,0,0,0,.158-0.591V18.78Zm-1.249,3.454H34v-2.3h3.447v2.3Zm0,3.58H34V23.385h3.447v2.429ZM32.8,22.234H29.369v-2.3H32.8v2.3Zm0,3.58H29.369V23.385H32.8v2.429Zm19.335-3.525a9.381,9.381,0,0,1-2.119-1.711,6.82,6.82,0,0,1-1.146-1.672l0.19-.315L46.8,18.054a16.738,16.738,0,0,1-1.763,2.492,10.531,10.531,0,0,1-2,1.751,13.21,13.21,0,0,1-2.7,1.372A5.469,5.469,0,0,1,41.645,25.7a5.473,5.473,0,0,0,1.028-.5v0.363h3.81v1.151H42.957v1.893h3.526v1.309H41.139v1.94H54.056v-1.94H48.665V28.606h3.368V26.713H48.665V25.562H52.3V25.183a6.605,6.605,0,0,0,.949.473,4.36,4.36,0,0,1,1.486-2.066A15.565,15.565,0,0,1,52.135,22.289Zm-7.123,1.3a7.343,7.343,0,0,0,1.344-1.128,11.386,11.386,0,0,0,1.2-1.443,14.461,14.461,0,0,0,1.194,1.4,9.314,9.314,0,0,0,1.383,1.207ZM70,22.817H65.844V21.051a19.7,19.7,0,0,0,2.142-.418,13.918,13.918,0,0,0,1.968-.639l-1.581-1.7a17.464,17.464,0,0,1-4.6,1.183v5.142a10.812,10.812,0,0,1-.593,4.006A6.222,6.222,0,0,1,61.4,31.051a7.62,7.62,0,0,1,1.834,1.325,7.722,7.722,0,0,0,1.542-2.082,9.274,9.274,0,0,0,.79-2.413,16.314,16.314,0,0,0,.245-2.981H66.7v7.334h2.119V24.9h1.17Zm-6.514,1.845V22.786h-1.3l0.569-1.1-0.949-.394H63.3v-1.83H61.117q-0.4-.946-0.585-1.293l-2.166.284a4.581,4.581,0,0,1,.522,1.009H56.105v1.83l1.439,0.031-0.538.174a5.807,5.807,0,0,1,.348.86,3.255,3.255,0,0,1,.095.434h-1.47v1.877h2.767v0.6H56.121v1.83h2.134a10.761,10.761,0,0,1-2.609,2.35,7.165,7.165,0,0,1,1.17,1.672l0.822-.6a2.466,2.466,0,0,1,.585,1.735,4.79,4.79,0,0,0,1.976-.434,1.329,1.329,0,0,0,.632-1.27V29.158a3.1,3.1,0,0,1,.293.213,5.426,5.426,0,0,1,.4.371q0.237,0.237.316,0.3,0.237-.331.7-0.883t0.632-.757a11.057,11.057,0,0,0-1.866-1.309h1.976v-1.83H60.817v-0.6h2.672Zm-2.783-3.375a15.447,15.447,0,0,1-.569,1.5H59.473q-0.095-.363-0.459-1.5h1.692Zm-1.961,8.691a0.211,0.211,0,0,1-.2.2,2.038,2.038,0,0,1-.593.016,4.143,4.143,0,0,0,.459-0.418q0.269-.276.332-0.323v0.521Zm26.533-4.5V23.464H82.053V18.653H79.587a0.175,0.175,0,0,0-.174.134,0.127,0.127,0,0,0,.095.181,0.366,0.366,0,0,1,.2.166,0.481,0.481,0,0,1,.087.26v4.069H77.1V20.877a10.322,10.322,0,0,0,2.15-1.12l-1.486-1.419A17.105,17.105,0,0,1,74.741,19.5a11.867,11.867,0,0,1-3.075.465,3.462,3.462,0,0,1,.7.923,4.11,4.11,0,0,1,.411,1.08A14.472,14.472,0,0,0,75,21.492v1.972H71.286v2.019H75a6.239,6.239,0,0,1-.4,2.437,3.791,3.791,0,0,1-1.217,1.554,6.488,6.488,0,0,1-2.142.994,4.831,4.831,0,0,1,.735.568,3.536,3.536,0,0,1,.569.662,4.3,4.3,0,0,1,.324.584,9.115,9.115,0,0,0,1.549-.883A5.882,5.882,0,0,0,76.1,29.734a5.69,5.69,0,0,0,.751-1.869,13.48,13.48,0,0,0,.237-2.382h2.7v6.8h2.261v-6.8h3.225Zm14.19,4.077a6.262,6.262,0,0,1-.656-0.654,12.5,12.5,0,0,0,1.534-5.189L99.872,23.4H98.765l0.964-4.085-0.6-.426h-7v2h1.439a32.176,32.176,0,0,1-.3,4.369A20.555,20.555,0,0,1,92.441,29V28.259L86.528,29.82l0.632,2.161,4.727-1.688a5.255,5.255,0,0,1-.822.915,4.685,4.685,0,0,1,.877.5,5,5,0,0,1,.8.694,11.3,11.3,0,0,0,1.122-1.561,3,3,0,0,1,.83.615,2.882,2.882,0,0,1,.593.836,11.28,11.28,0,0,0,1.249-.836,10.74,10.74,0,0,0,1.043-.9A13.07,13.07,0,0,0,99.7,32.407a7.637,7.637,0,0,1,1.328-1.719A15.206,15.206,0,0,1,99.469,29.56ZM92.3,27.234V25.4l-2.245.363q0.411-.568,1-1.593t1-1.83l-1.581-.962-0.9,1.451L89.136,22.6q0.632-.93,1.186-1.94t0.806-1.593l-1.707-.789q-0.459,1.073-.949,1.98T87.7,21.587l-0.506-.268-0.917,1.814a14.426,14.426,0,0,1,2.293,1.451q-0.348.568-.98,1.451l-1.091.126L87,28.464Zm5.075-6.325L96.82,23.4H95.445a15.077,15.077,0,0,0,.047-2.492h1.882Zm0.806,4.369a5.988,5.988,0,0,1-.712,2.082,5.308,5.308,0,0,1-.6-1.009,5.142,5.142,0,0,1-.364-1.073H98.18ZM95.05,29.97a6.507,6.507,0,0,1-.98.481A18.2,18.2,0,0,0,95.081,27a7.017,7.017,0,0,0,1.075,2.082A6.864,6.864,0,0,1,95.05,29.97Zm20.24-.442a8.518,8.518,0,0,1-.981-1.065,12.2,12.2,0,0,0,.87-2.7,27.293,27.293,0,0,0,.443-3.3l-0.57-.426h-4.332V20.735a19.8,19.8,0,0,0,3.107-.347,16.65,16.65,0,0,0,2.427-.647l-1.233-1.577a10.667,10.667,0,0,1-2.751.6q-1.6.158-3.589,0.174v5.836A12.057,12.057,0,0,1,108.419,27a9.946,9.946,0,0,1-.577,2.05v-4.2h-2.894V23.417h3.51V21.556H107.62v-3.3h-1.944a0.33,0.33,0,0,0-.237.11,0.186,0.186,0,0,0,.079.26,0.47,0.47,0,0,1,.174.181v2.744h-0.744V18.4h-2.134a0.3,0.3,0,0,0-.19.063,0.193,0.193,0,0,0-.079.158,0.261,0.261,0,0,0,.206.237,0.26,0.26,0,0,1,.2.237v5.047a19.314,19.314,0,0,1-.98,6.64,3.232,3.232,0,0,1,1.929,1.057L104,31.95a19.32,19.32,0,0,0,.964-5.189h1v3.864h0.886l-0.6.568a1.912,1.912,0,0,1,.846.292,7.133,7.133,0,0,1,1.13.8,5.043,5.043,0,0,0,1.17-1.53,4.037,4.037,0,0,1,.783.647,7.717,7.717,0,0,1,.735.852,5.89,5.89,0,0,0,1.186-.828,10.3,10.3,0,0,0,1.043-1.049A9.922,9.922,0,0,0,114.19,31.5a10.037,10.037,0,0,0,.925.765,9.913,9.913,0,0,1,.608-0.994,4.735,4.735,0,0,1,.688-0.836A9.3,9.3,0,0,1,115.289,29.529Zm-1.676-5.591a7.99,7.99,0,0,1-.585,2.981,7.96,7.96,0,0,1-.664-2.981h1.249Zm-2.846,5.938a4.225,4.225,0,0,1-1.328.765,7.013,7.013,0,0,0,.593-1.412,12.453,12.453,0,0,0,.434-1.979q0.159-1.1.206-2.082a8.871,8.871,0,0,0,.443,1.853,8.206,8.206,0,0,0,.759,1.68A5.975,5.975,0,0,1,110.767,29.876Zm12.917,1.585c3.368,0,5.613-2.334,5.613-5.867s-2.245-5.867-5.613-5.867c-3.384,0-5.629,2.334-5.629,5.867S120.3,31.461,123.684,31.461Zm0-1.877c-2.055,0-3.4-1.514-3.4-3.99s1.344-3.99,3.4-3.99,3.4,1.514,3.4,3.99S125.739,29.584,123.684,29.584Zm11.364-6.7a2.943,2.943,0,0,0-2.608,1.356V23.07h-1.913V34.3h1.992V30.152a2.919,2.919,0,0,0,2.529,1.246c2.245,0,3.653-1.672,3.653-4.259S137.293,22.881,135.048,22.881Zm-0.474,6.877c-1.3,0-2.1-.9-2.1-2.618s0.807-2.618,2.1-2.618,2.1,0.836,2.1,2.555S135.871,29.757,134.574,29.757Zm9.325-5.173V23.07h-1.613V20.7H140.31V23.07h-1.265v1.514h1.265V29.19c0,1.5.822,2.082,2.546,2.082,0.316,0,.679-0.032,1.043-0.063V29.694h-0.68c-0.664,0-.933-0.173-0.933-0.71v-4.4H143.9Zm1.894-2.492A1.1,1.1,0,1,0,144.686,21,1.092,1.092,0,0,0,145.793,22.092Zm-1,9.117h1.992V23.07H144.8v8.139Zm9.055,0h2.276l-3.273-5.063,3.083-3.076h-2.371l-3.32,3.375V19.978h-1.961v11.23h1.961V28.653l1.233-1.23Zm15.509-11.23H160v1.908h3.6v9.322h2.15V21.887h3.6V19.978Zm8.925,0-1.992,5.8c-0.364,1.1-.743,2.3-1.059,3.5-0.332-1.2-.712-2.4-1.075-3.5l-2.04-5.8h-2.277l4.127,11.23h2.5l4.032-11.23h-2.214Zm4.17-.18a1.423,1.423,0,1,0,1.469,1.425A1.432,1.432,0,0,0,182.456,19.8Zm0,2.535a1.115,1.115,0,1,1,1.141-1.109A1.1,1.1,0,0,1,182.456,22.333Zm0.594-.793a0.309,0.309,0,0,0-.173-0.3,0.355,0.355,0,0,0,.207-0.339,0.445,0.445,0,0,0-.53-0.425h-0.668v1.471h0.334V21.4h0.311c0.133,0,.173.046,0.184,0.19l0.012,0.155a0.4,0.4,0,0,0,.052.2h0.351a0.338,0.338,0,0,1-.063-0.2Zm-0.83-.42V20.758h0.305a0.183,0.183,0,1,1,.012.362H182.22Z"/>
</svg>
