<svg id="PUNJ" xmlns="http://www.w3.org/2000/svg" width="300" height="600" viewBox="0 0 300 600">
  <defs>
    <style>
      .cls-1 {
        fill: #fff;
        fill-rule: evenodd;
      }
    </style>
  </defs>
  <path class="cls-1" d="M73.384,545.537h-1.14V548.8a1.79,1.79,0,0,1-1.895,2.064,2.482,2.482,0,0,1-2.459-2.246c0-.866.555-1.541,1.894-1.541H70.1v0.785H69.784c-0.744,0-1.011.272-1.011,0.725a1.714,1.714,0,0,0,1.636,1.512c0.714,0,1-.5,1-1.31v-3.254H66.977v-0.765h6.407v0.765Zm-2.7-1.743a1.527,1.527,0,0,1-1.5-1.793h0.784c0,0.937.356,0.957,0.734,1.008a1.558,1.558,0,0,1,1.478,1.772H71.407A0.863,0.863,0,0,0,70.683,543.794Zm8.34,1.743h-1.27v3.3a1.79,1.79,0,0,1-1.874,2.065A2.481,2.481,0,0,1,73.4,548.65c0-.856.555-1.531,1.894-1.531h1.627v-1.582h-4.3v-0.765h6.407v0.765Zm-2.1,3.295V547.9H75.294c-0.744,0-1.011.272-1.011,0.726a1.707,1.707,0,0,0,1.646,1.511A1.054,1.054,0,0,0,76.921,548.832Zm11.43-3.295H87.012v5.34H86.189v-2.489H83.977a9.813,9.813,0,0,1-.348,2.489H82.8a10.521,10.521,0,0,0,.387-2.489,2.062,2.062,0,0,0-.625-1.349l1.191-.424a6.43,6.43,0,0,1,.218,1.008h2.222v-2.086h-4.7v-0.765h6.864v0.765Zm2.654,0H89.587v2.911H88.774v-2.911H87.345v-0.765h3.66v0.765Zm6,0H92.571a1.494,1.494,0,0,0,1.7,1.28,5.192,5.192,0,0,0,1.309-.141V547.4a4.513,4.513,0,0,1-1.14.182l-0.109,1.43-0.02.181a2.61,2.61,0,0,0-1.458-.544,1.075,1.075,0,0,0-.922.4,2.068,2.068,0,0,0,2,1.168,2.833,2.833,0,0,0,2.082-.886v0.816a2.9,2.9,0,0,1-2.221.846,2.711,2.711,0,0,1-2.737-1.944,1.79,1.79,0,0,1,1.794-1.139,2.016,2.016,0,0,1,.784.142l0.049-.5a2.092,2.092,0,0,1-1.924-2.015H90.14v-0.765H97v0.765Zm-3.286-1.743A1.527,1.527,0,0,1,92.22,542H93c0,0.937.356,0.957,0.734,1.008a1.558,1.558,0,0,1,1.478,1.772H94.442A0.863,0.863,0,0,0,93.718,543.794Z"/>
</svg>
