<svg id="PUNJ" xmlns="http://www.w3.org/2000/svg" width="300" height="600" viewBox="0 0 300 600">
  <defs>
    <style>
      .cls-1 {
        fill: #4c286c;
        fill-rule: evenodd;
      }
    </style>
  </defs>
  <g id="txt1">
    <path class="cls-1" d="M78.1,150H74.135v20.646H69.086V159.979H66.04a30.783,30.783,0,0,1-3.126,7.9l-5.129-2.365c4.208-6.856,4.408-9.341,2.645-11.226-2.4.24-3.446,2.566-6.372,8.98L48.929,160.9c2.525-5.853,3.406-8.539,1.2-10.9H45.042v-4.531h7.334c2.645,0.8,3.847,4.25,3.446,6.695a6.7,6.7,0,0,1,7.013-2.726,9.1,9.1,0,0,1,3.486,6.014h2.765v-9.983H78.1V150Zm22.486,0H96.3v1.523c0,4.21-.722,4.971-1.723,6.013a8.07,8.07,0,0,1,1.723,5.052c0,4.691-4.048,8.258-10.059,8.258-3.046,0-6.532-1-8.055-2.405v-4.771a14.127,14.127,0,0,0,7.534,2.606c3.286,0,5.45-1.6,5.45-3.648,0-2.526-2.846-2.646-8.856-2.646v-4.53c6.091,0,8.9.32,8.816-3.568V150H74.7v-4.531h25.888V150Zm-4.846-4.491H91.215c0-2.686-1.162-4.61-5.691-4.81l-1.162-4.972C89.812,135,95.743,138.29,95.743,145.506Zm39.115,10.143c1.363,1,2.2,3.087,2.2,5.773,0,6.054-4.889,10.183-11.461,10.183-5.009,0-8.3-2.526-8.3-6.254,0-3.087,2.164-5.452,6.492-5.452a8.075,8.075,0,0,1,7.654,4.45,4.944,4.944,0,0,0,.481-2.2c0-4.249-1.764-3.969-5.851-3.929h-4.408v-5.132h4.408c4.729-.16,5.49.12,5.611-3.086H113.94v-4.531h25.887V150h-3C136.7,153.6,136.221,154.848,134.858,155.649Zm-8.936,11.426a9.544,9.544,0,0,0,2.2-.24,4.65,4.65,0,0,0-4.288-2.406c-1.122,0-1.442.4-1.442,0.962C122.4,166.113,123.2,167.075,125.922,167.075ZM151.132,150H146.2v20.646h-5.05V150h-4.809v-4.531h4.85v-3.127a2.56,2.56,0,0,0-2.445-2.726,2.528,2.528,0,0,0-2.405,2.726v1.2h-5.129v-1.2c0-4.41,3.326-7.3,7.534-7.3a7.147,7.147,0,0,1,7.494,7.3v3.127h4.889V150Zm29.016,0h-7.775v0.32a14.8,14.8,0,0,1-.6,4.209,9.4,9.4,0,0,1,5.21,8.259c0,5.373-4.688,8.058-8.815,8.058v-4.37a3.708,3.708,0,0,0,3.766-3.848,4.512,4.512,0,0,0-2.083-3.849,14.94,14.94,0,0,1-5.731,5.372,15.8,15.8,0,0,1-5.691-5.372,4.376,4.376,0,0,0-2.083,3.849,3.643,3.643,0,0,0,3.686,3.848v4.37c-4.127,0-8.816-2.685-8.816-8.058a9.441,9.441,0,0,1,5.249-8.259,14.794,14.794,0,0,1-.6-4.169V150H148.73v-4.531h31.418V150Zm-12.9,0h-6.292v0.721c0,2.686,1.042,6.134,3.166,7.818,2.365-2,3.126-4.851,3.126-7.778V150ZM205,150H200.47v20.646h-5.049v-9.381h-7.335a54.71,54.71,0,0,1-1.281,9.381h-5.09a54.834,54.834,0,0,0,1.483-9.421,9.8,9.8,0,0,0-2.324-6.134l6.932-2.766c0.12,1.523.28,2.766,0.361,4.41h7.254V150H177.267v-4.531H205V150Zm-10.9,18.882a2.643,2.643,0,0,1-2.645,2.646,2.57,2.57,0,0,1-2.645-2.646,2.609,2.609,0,0,1,2.645-2.606A2.688,2.688,0,0,1,194.1,168.879ZM53.5,205.088c0,0.682.4,1.283,1.884,1.283H66.722v4.49h-10.9c0.2,1.524,1.2,3.047,5.009,3.007,0.16,0,4.529-.12,6.011-1.042v3.728C65.4,217.517,62.354,218,60.069,218c-7.334,0-8.816-4.972-8.816-7.778v-0.361a5.442,5.442,0,0,1-3.086-4.811c0-3.127,2.565-5.693,8.375-5.693h5.05v-3.247H45v-4.53H70.889v4.53H66.722v7.778H55.9C55.341,203.886,53.5,203.605,53.5,205.088Zm28.7-8.98H77.264v20.647H72.215V196.108H67.406v-4.53h4.849v-3.127a2.56,2.56,0,0,0-2.444-2.726,2.528,2.528,0,0,0-2.4,2.726v1.2H62.277v-1.2c0-4.41,3.327-7.3,7.534-7.3a7.148,7.148,0,0,1,7.494,7.3v3.127h4.889v4.53Zm10.14,18.642H87.285V193.3h5.049V214.75Z"/>
  </g>
</svg>
