<svg id="PUNJ" xmlns="http://www.w3.org/2000/svg" width="300" height="600" viewBox="0 0 300 600">
  <defs>
    <style>
      .cls-1 {
        fill: #4c286c;
        fill-rule: evenodd;
      }
    </style>
  </defs>
  <g id="txt1">
    <path class="cls-1" d="M70.918,109.081H67.026V121.8c0,5.427-2.728,8.121-8.746,8.121-5.055,0-10.872-3.486-10.872-8.794,0-3.842,2.648-6.774,8.786-6.774h5.576v-5.268H45v-4.476H70.918v4.476Zm-9.147,12.676v-2.892H56.194c-2.407,0-3.129.753-3.129,2.1,0,2.733,3.21,4.476,5.5,4.476C61.009,125.441,61.771,124.451,61.771,121.757ZM58.446,96.642a5.591,5.591,0,0,1,5.7-5.664,5.666,5.666,0,1,1,0,11.329A5.591,5.591,0,0,1,58.446,96.642Zm7.943,0a2.289,2.289,0,0,0-2.247-2.258,2.238,2.238,0,0,0,0,4.476A2.282,2.282,0,0,0,66.389,96.642Zm36.224,12.439H97.88v20.2H92.785v-20.2H88.091V121.2c0,5.11-2.808,8.081-7.542,8.081-5.095,0-9.989-5.11-9.989-9.546,0-3.407,2.808-6.735,8.706-6.735h3.61v-3.921H69.316v-4.476h33.3v4.476Zm-19.737,12v-3.605h-3.61c-0.361,0-3.089-.04-3.089,2.178,0,1.9,2.567,5.308,4.453,5.11C82.876,124.569,82.876,122.312,82.876,121.084Zm60.906-12H139.81v20.4h-5.054v-1.7a17.93,17.93,0,0,1-4.293.515c-5.536,0-9.588-2.813-10.751-7.209a9.347,9.347,0,0,1,3.369-5.19,8.683,8.683,0,0,1-2.968-5.031,6.76,6.76,0,0,1-.121-1.782h-3.971v-4.476h27.761v4.476Zm-9.026,14.3v-5.19H129.9c-2.407,0-4.292.991-4.814,2.893,0.522,1.663,3.049,2.772,6.058,2.772A12.838,12.838,0,0,0,134.756,123.381Zm0-14.3h-9.629a5.732,5.732,0,0,0,.161,1.426c0.561,2.3,2.447,3.169,4.934,3.169h4.534v-4.595Zm31.9,0h-3.89V121.8c0,5.427-2.729,8.121-8.746,8.121-5.055,0-10.872-3.486-10.872-8.794,0-3.842,2.648-6.774,8.786-6.774h5.576v-5.268H140.737v-4.476h25.915v4.476Zm-9.146,12.676v-2.892H151.93c-2.407,0-3.129.753-3.129,2.1,0,2.733,3.209,4.476,5.5,4.476C156.744,125.441,157.506,124.451,157.506,121.757Zm33.943-12.676h-3.971v20.4h-5.055v-8.833h-6.981c-0.441,1.346-1.2,3.208-2.447,6.219l-5.977-2.615c2.326-3.486,4.413-5.229,4.413-8.6a13.424,13.424,0,0,0-1.846-6.575h-4.051v-4.476h25.915v4.476Zm-16.408,0a22.5,22.5,0,0,1,1.163,6.853v0.237h6.219v-7.09h-7.382Zm11.879-4.437h-4.533c0-2.654-1.164-4.555-5.7-4.753l-1.163-4.912C180.983,94.266,186.92,97.514,186.92,104.644ZM199,124.886L196.307,134h-4.613l2.167-9.111H199Z"/>
  </g>
</svg>
