<svg id="PUNJ" xmlns="http://www.w3.org/2000/svg" width="300" height="600" viewBox="0 0 300 600">
  <defs>
    <style>
      .cls-1 {
        fill: #4c286c;
        fill-rule: evenodd;
      }
    </style>
  </defs>
  <g id="txt1">
    <path class="cls-1" d="M57.948,263.594h-1.3v6.135c0,2.7-1.383,4.043-4.308,4.043-2.625,0-5.49-1.735-5.49-4.4,0-1.893,1.322-3.352,4.388-3.352h0.641v2.248H51.235c-1.2,0-1.563.375-1.563,1.046,0,1.36,1.583,2.229,2.785,2.229,1.162,0,1.563-.494,1.563-1.836v-6.114H45v-2.228H57.948v2.228Zm-3.168,10.868v1.815a5.839,5.839,0,0,1-3.226.848,5.959,5.959,0,0,1-3.246-.848v-1.815a6.042,6.042,0,0,0,3.166.651A6.679,6.679,0,0,0,54.779,274.462Zm15.29-10.868H61.593c0.12,1.027,1.062,1.7,3.286,1.7,0.361,0,2.024,0,2.3-.059v2.051a16.533,16.533,0,0,1-2,.158l-0.34,3.234-2.164-1.025a3.028,3.028,0,0,0-.941-0.158,1.91,1.91,0,0,0-1.363.532,3.812,3.812,0,0,0,3.587,1.834,5.626,5.626,0,0,0,4.108-1.636v2.248c-0.681.888-2.365,1.638-4.569,1.638-3.046,0-5.17-1.52-5.932-4.084,0.521-1.932,2.525-2.544,4.008-2.544a5.045,5.045,0,0,1,1.283.158l0.02-.217a4.252,4.252,0,0,1-3.867-3.827H56.2v-2.228H70.069v2.228Zm20.315,0H88.4v10.158H85.875v-4.4H82.388c-0.221.67-.6,1.6-1.222,3.1l-2.986-1.3c1.162-1.736,2.2-2.6,2.2-4.28a6.675,6.675,0,0,0-.922-3.275H77.438v-2.228H90.384v2.228Zm-8.2,0a11.191,11.191,0,0,1,.581,3.413v0.118h3.106v-3.531H82.188Zm2.645,9.35a1.311,1.311,0,0,1-1.323,1.3,1.274,1.274,0,0,1-1.323-1.3,1.3,1.3,0,0,1,1.323-1.283A1.334,1.334,0,0,1,84.833,272.944Zm1.962,1.518v1.815a5.84,5.84,0,0,1-3.226.848,5.96,5.96,0,0,1-3.246-.848v-1.815a6.042,6.042,0,0,0,3.166.651A6.679,6.679,0,0,0,86.795,274.462ZM101.9,263.594H99.96v6.332c0,2.7-1.363,4.043-4.369,4.043-2.525,0-5.43-1.736-5.43-4.378,0-1.913,1.323-3.373,4.389-3.373h2.785v-2.624H88.959v-2.228H101.9v2.228Zm-4.569,6.312v-1.44H94.55c-1.2,0-1.563.375-1.563,1.046,0,1.36,1.6,2.228,2.745,2.228C96.954,271.74,97.335,271.247,97.335,269.906Zm1.2,4.556v1.815a5.839,5.839,0,0,1-3.226.848,5.96,5.96,0,0,1-3.246-.848v-1.815a6.042,6.042,0,0,0,3.166.651A6.679,6.679,0,0,0,98.535,274.462Zm0,2.84v1.815a5.839,5.839,0,0,1-3.226.848,5.96,5.96,0,0,1-3.246-.848V277.3a6.032,6.032,0,0,0,3.166.651A6.668,6.668,0,0,0,98.535,277.3ZM122,263.594h-1.3v6.135c0,2.7-1.383,4.043-4.308,4.043-2.625,0-5.491-1.735-5.491-4.4,0-1.893,1.323-3.352,4.389-3.352h0.641v2.248h-0.641c-1.2,0-1.563.375-1.563,1.046,0,1.36,1.583,2.229,2.785,2.229,1.162,0,1.563-.494,1.563-1.836v-6.114h-9.018v-2.228H122v2.228Zm-1.426-2.208h-2.524c0-.73-0.762-0.77-2.546-0.849l-0.6-2.465a7.245,7.245,0,0,1,3.768,1.026c-0.441-.73-2.024-1.362-3.126-1.6l-0.622-2.565C118.469,255.094,120.573,257.48,120.573,261.386Z"/>
  </g>
</svg>
