<svg id="PUNJ" xmlns="http://www.w3.org/2000/svg" width="300" height="600" viewBox="0 0 300 600">
  <defs>
    <style>
      .cls-1 {
        fill: #4c286c;
        fill-rule: evenodd;
      }
    </style>
  </defs>
  <g id="txt1">
    <path class="cls-1" d="M57.932,239.242H55.951v10.479H53.428v-4.537H49.945c-0.22.691-.6,1.648-1.221,3.194l-2.983-1.343c1.161-1.791,2.2-2.686,2.2-4.415a7.046,7.046,0,0,0-.921-3.378H45v-2.3H57.932v2.3Zm-8.187,0a11.886,11.886,0,0,1,.581,3.52v0.122h3.1v-3.642H49.745Zm16.232-3.886v0.61H63.415v-0.61a1.276,1.276,0,0,0-1.2-1.384,1.292,1.292,0,0,0-1.221,1.384v1.587h2.422v2.3h-2.4v10.479H58.491V239.242H56.028v-2.3h2.443v-1.587A3.754,3.754,0,0,1,65.978,235.356Zm9.047,3.886H73.043v10.479H70.52V248.5a6.536,6.536,0,0,1-1.9.305c-2.6,0-5.165-1.607-5.1-3.784a8.4,8.4,0,0,0,1.321-4.151,4.177,4.177,0,0,0-.2-1.628H62.093v-2.3h4a6.81,6.81,0,0,1,1.121,3.907,9.515,9.515,0,0,1-1.081,4.171c-0.04.61,1.762,1.282,3.223,1.282a5.658,5.658,0,0,0,1.162-.122v-9.238h4.5v2.3ZM73.26,254.686c-0.461-.408-0.881-0.773-1.261-1.058a11.307,11.307,0,0,1-1.281.631l-1.762.65L68.076,251.8l1.9-.65a2.425,2.425,0,0,1,.54-0.062v-2.97H73.06v3.845c0.42,0.285.9,0.631,1.481,1.079Zm-4.445-21.833a2.831,2.831,0,0,1,2.843-2.909,2.91,2.91,0,0,1,0,5.819A2.832,2.832,0,0,1,68.816,232.853Zm3.964,0a1.16,1.16,0,0,0-1.121-1.16,1.151,1.151,0,0,0,0,2.3A1.155,1.155,0,0,0,72.779,232.853Zm17.577,6.389H87.993v10.377H85.451V239.242H83.109v6.226c0,2.625-1.4,4.151-3.763,4.151a5.419,5.419,0,0,1-4.984-4.9c0-1.749,1.4-3.458,4.344-3.458h1.8v-2.015H73.741v-2.3H90.356v2.3Zm-9.849,6.165v-1.851h-1.8c-0.18,0-1.542-.021-1.542,1.119,0,0.977,1.281,2.727,2.222,2.625C80.507,247.2,80.507,246.038,80.507,245.407Zm30.162-6.165h-1.982v10.479h-2.523v-4.537h-3.482c-0.221.691-.6,1.648-1.222,3.194l-2.982-1.343c1.161-1.791,2.2-2.686,2.2-4.415a7.048,7.048,0,0,0-.921-3.378H97.737v-2.3h12.932v2.3Zm-8.188,0a11.894,11.894,0,0,1,.581,3.52v0.122h3.1v-3.642h-3.683Zm5.923-2.279h-2.262c0-1.363-.58-2.339-2.842-2.441L102.719,232A4.831,4.831,0,0,1,108.4,236.963Zm16.6,2.279h-3.883v0.163a7.686,7.686,0,0,1-.3,2.136,4.78,4.78,0,0,1,2.6,4.192,4.173,4.173,0,0,1-4.4,4.09V247.6a1.866,1.866,0,0,0,1.881-1.952,2.3,2.3,0,0,0-1.04-1.954,7.514,7.514,0,0,1-2.863,2.727,7.95,7.95,0,0,1-2.843-2.727,2.23,2.23,0,0,0-1.04,1.954,1.835,1.835,0,0,0,1.841,1.952v2.219a4.173,4.173,0,0,1-4.4-4.09,4.8,4.8,0,0,1,2.623-4.192,7.578,7.578,0,0,1-.3-2.116v-0.183h-3.563v-2.3H125v2.3Zm-6.446,0h-3.142v0.366a5.4,5.4,0,0,0,1.581,3.968,4.965,4.965,0,0,0,1.561-3.947v-0.387Z"/>
  </g>
</svg>
