<svg id="PUNJ" xmlns="http://www.w3.org/2000/svg" width="300" height="600" viewBox="0 0 300 600">
  <defs>
    <style>
      .cls-1 {
        fill: #4c286c;
        fill-rule: evenodd;
      }
    </style>
  </defs>
  <path id="txt2" class="cls-1" d="M54.624,102.336H53.386v5.905c0,2.6-1.313,3.893-4.093,3.893-2.494,0-5.216-1.672-5.216-4.235,0-1.823,1.257-3.228,4.169-3.228h0.61v2.165h-0.61c-1.142,0-1.485.361-1.485,1.006,0,1.31,1.5,2.146,2.646,2.146,1.1,0,1.485-.475,1.485-1.766v-5.886H42.325V100.19h12.3v2.146ZM51.618,112.8v1.747a5.489,5.489,0,0,1-3.065.817,5.606,5.606,0,0,1-3.084-.817V112.8a5.678,5.678,0,0,0,3.008.626A6.272,6.272,0,0,0,51.618,112.8Zm14.527-10.462H58.091c0.114,0.987,1.009,1.633,3.122,1.633,0.343,0,1.923,0,2.189-.058v1.975a15.36,15.36,0,0,1-1.9.152l-0.324,3.114-2.055-.987a2.859,2.859,0,0,0-.9-0.152,1.8,1.8,0,0,0-1.295.513,3.61,3.61,0,0,0,3.409,1.766,5.3,5.3,0,0,0,3.9-1.577v2.165a5.57,5.57,0,0,1-4.34,1.576,5.424,5.424,0,0,1-5.635-3.93c0.5-1.861,2.4-2.45,3.808-2.45a4.754,4.754,0,0,1,1.218.152l0.019-.209a4.067,4.067,0,0,1-3.674-3.683H52.969V100.19H66.144v2.146Zm19.308,0H83.567v9.779h-2.4V107.88H77.855c-0.209.646-.572,1.538-1.162,2.981l-2.836-1.253c1.1-1.671,2.094-2.507,2.094-4.121a6.486,6.486,0,0,0-.876-3.151H73.153V100.19h12.3v2.146Zm-7.787,0a10.881,10.881,0,0,1,.553,3.285v0.113h2.951v-3.4h-3.5Zm2.513,9a1.253,1.253,0,0,1-1.257,1.253,1.219,1.219,0,0,1-1.257-1.253,1.237,1.237,0,0,1,1.257-1.234A1.275,1.275,0,0,1,80.178,111.336Zm1.867,1.462v1.747a5.489,5.489,0,0,1-3.065.817,5.606,5.606,0,0,1-3.084-.817V112.8a5.678,5.678,0,0,0,3.008.626A6.271,6.271,0,0,0,82.045,112.8ZM96.4,102.336H94.554v6.095c0,2.6-1.295,3.892-4.151,3.892-2.4,0-5.16-1.671-5.16-4.215,0-1.842,1.257-3.247,4.169-3.247h2.646v-2.525H84.1V100.19H96.4v2.146Zm-4.341,6.076v-1.386H89.413c-1.142,0-1.485.36-1.485,1.006,0,1.31,1.523,2.146,2.608,2.146C91.7,110.178,92.059,109.7,92.059,108.412ZM93.2,112.8v1.747a5.489,5.489,0,0,1-3.065.817,5.606,5.606,0,0,1-3.084-.817V112.8a5.678,5.678,0,0,0,3.008.626A6.271,6.271,0,0,0,93.2,112.8Zm0,2.734v1.747a5.481,5.481,0,0,1-3.065.817,5.6,5.6,0,0,1-3.084-.817v-1.747a5.676,5.676,0,0,0,3.008.627A6.27,6.27,0,0,0,93.2,115.532Zm22.3-13.2h-1.238v5.905c0,2.6-1.314,3.893-4.093,3.893-2.494,0-5.217-1.672-5.217-4.235,0-1.823,1.257-3.228,4.17-3.228h0.609v2.165h-0.609c-1.142,0-1.485.361-1.485,1.006,0,1.31,1.5,2.146,2.646,2.146,1.1,0,1.485-.475,1.485-1.766v-5.886H103.2V100.19h12.3v2.146Zm-1.351-2.127h-2.4c0-.7-0.724-0.741-2.418-0.817l-0.571-2.373a6.823,6.823,0,0,1,3.58.987,5.359,5.359,0,0,0-2.971-1.538L108.78,94C112.15,94.152,114.149,96.449,114.149,100.209ZM61.807,143.173H58.831v15.442H55.043v-1.29a13.307,13.307,0,0,1-3.217.39c-4.15,0-7.185-2.129-8.057-5.457a7.083,7.083,0,0,1,2.525-3.928,6.59,6.59,0,0,1-2.225-3.808,5.182,5.182,0,0,1-.09-1.349H41v-3.389h20.8v3.389ZM55.043,154v-3.928H51.405c-1.8,0-3.217.75-3.608,2.189,0.391,1.26,2.285,2.1,4.54,2.1A9.528,9.528,0,0,0,55.043,154Zm0-10.824H47.827a4.4,4.4,0,0,0,.12,1.079c0.421,1.739,1.834,2.4,3.7,2.4h3.4v-3.478Zm24.021,0H75.938v9.055c0,4.468-3.127,6.357-6.464,6.357-3.728,0-6.524-2.369-6.524-6.177v-2.039a7.521,7.521,0,0,0-1.714-4.108l5.2-2.069c0.09,1.14.21,2.069,0.27,3.3H72.15v-4.318H58.26v-3.389h20.8v3.389Zm-6.914,8.935v-1.229H66.408v0.57c0.06,2.668,1.112,3.718,3.1,3.718C72.511,155.167,72.15,152.678,72.15,152.108Zm23.571-8.935H92.5v1.139c0,3.148-.541,3.718-1.293,4.5a6.019,6.019,0,0,1,1.293,3.778c0,3.508-3.036,6.176-7.546,6.176-2.285,0-4.9-.749-6.044-1.8V153.4a10.617,10.617,0,0,0,5.653,1.949c2.465,0,4.088-1.2,4.088-2.728,0-1.889-2.135-1.979-6.644-1.979v-3.388c4.57,0,6.675.24,6.615-2.669v-1.409H76.3v-3.389H95.72v3.389Zm28.322-.69h-3.156l-0.061,2.759a12.016,12.016,0,0,1-1.683,6.506,16.865,16.865,0,0,1,.661,4.8c0,0.6,0,1.319-.03,1.919h-2.466c0.031-.45.061-1.35,0.061-1.979a17.4,17.4,0,0,0-.181-2.579,8.316,8.316,0,0,1-5.141,1.679c-3.788,0-5.983-2.1-5.983-5.157,0-3.118,2.165-5.187,5.5-5.187a7.317,7.317,0,0,1,6.314,3.6,11.965,11.965,0,0,0,.481-3.448v-2.909H103.238V140.2h20.8v2.279Zm-7.517,8.815c-0.931-2.428-2.645-3.747-4.749-3.747-1.985,0-3.217,1.139-3.217,2.848,0,1.739,1.293,2.849,3.607,2.849A5.486,5.486,0,0,0,116.525,151.3Zm24.534-8.815h-3.848v9.835c0,3.748-1.863,6.147-5.681,6.147-3.668,0-7.517-3-7.517-6.717,0-2.548,1.684-4.557,5.742-4.557h4.931v-4.708H121.638V140.2h19.421v2.279Zm-6.373,9.805V149.53h-4.931c-2.254,0-3.066.809-3.066,2.158,0,2.429,2.706,4.5,4.991,4.5C133.784,156.186,134.686,154.687,134.686,152.288ZM132.492,137.3c-1.444-.27-4.54-0.48-4.54-5.337h2.375c0,2.788,1.082,2.848,2.225,3,2.314,0.36,4.479,1.409,4.479,5.277h-2.345C134.686,138.375,133.754,137.476,132.492,137.3Zm36.2,5.187h-3.848v9.835c0,3.748-1.864,6.147-5.682,6.147-3.668,0-7.516-3-7.516-6.717,0-2.548,1.683-4.557,5.742-4.557h4.931v-4.708H149.268V140.2h19.421v2.279Zm-6.373,9.805V149.53h-4.931c-2.255,0-3.066.809-3.066,2.158,0,2.429,2.706,4.5,4.99,4.5C161.414,156.186,162.316,154.687,162.316,152.288Zm-2.977-18.17a3.984,3.984,0,1,1,4,3.957A3.991,3.991,0,0,1,159.339,134.118Zm6.014,0a2.015,2.015,0,0,0-4.029,0,1.968,1.968,0,0,0,2.014,1.979A1.988,1.988,0,0,0,165.353,134.118Zm26.246,8.365h-3.758v15.982h-2.5V142.483h-4.9v9.865c0,3.9-1.773,6.117-4.78,6.117-3.638,0-6.914-3.868-6.914-6.987,0-2.1,1.593-4.287,5.772-4.287h3.4v-4.708H166.645V140.2H191.6v2.279Zm-13.679,9.775V149.5h-3.4c-1.474,0-3.1.42-3.1,1.919,0,1.8,2.105,4.8,4.239,4.738C177.92,156.1,177.92,153.1,177.92,152.258Zm21.377-9.775h-4.329v15.892h-2.5V142.483H188.2V140.2h4.269v-2.758c0-2.309-1.232-3.149-2.465-3.149s-2.5.84-2.5,3.149v0.9h-2.465v-0.9c0-3.3,1.805-5.457,4.961-5.457,3.127,0,4.961,2.158,4.961,5.457V140.2H199.3v2.279Zm8.839,0v3.508a6.237,6.237,0,0,1,5.652,6.387,5.672,5.672,0,0,1-5.472,5.7v-2.309a3.529,3.529,0,0,0,3.007-3.6c0-2.219-1.774-3.988-4.449-3.988s-4.451,1.769-4.451,3.988a3.529,3.529,0,0,0,3.007,3.6v2.309a5.652,5.652,0,0,1-5.472-5.7,6.263,6.263,0,0,1,5.682-6.387v-3.508h-8.628V140.2h19.421v2.279h-8.3ZM55.072,184.635a4.411,4.411,0,0,1,2.555,4.228c0,3.928-3.307,6.837-7.816,6.837-3.488,0-5.653-1.709-5.653-4.108,0-1.95,1.413-3.508,4.15-3.508a6.569,6.569,0,0,1,5.922,3.688,4.171,4.171,0,0,0,.9-2.7c0-2.428-1.8-3.238-5.021-3.208H46.805v-2.459h3.307c3.7-.18,4.78-0.78,4.87-3.988H41v-2.279H60.424v2.279H57.478C57.358,182.716,56.185,184.245,55.072,184.635Zm-5.141,8.755a7.191,7.191,0,0,0,2.646-.449,4.949,4.949,0,0,0-4.24-2.578c-1.112,0-1.683.509-1.683,1.259C46.655,192.521,47.586,193.39,49.931,193.39ZM68.9,179.418H64.573v15.891h-2.5V179.418H57.809v-2.279h4.269v-2.758c0-2.309-1.232-3.149-2.465-3.149s-2.5.84-2.5,3.149v0.9H54.651v-0.9c0-3.3,1.8-5.457,4.961-5.457,3.127,0,4.961,2.159,4.961,5.457v2.758H68.9v2.279Zm21.287,0h-6.1c0.03,0.33.061,0.69,0.061,1.079a10.374,10.374,0,0,1-.541,3.3,6.288,6.288,0,0,1,4.028,5.818c0,3.718-3.127,5.576-5.952,5.576v-2.248a3.369,3.369,0,0,0,3.458-3.328,4.214,4.214,0,0,0-2.465-3.748,10.327,10.327,0,0,1-4.029,4.078,10.324,10.324,0,0,1-4.059-4.048,4.228,4.228,0,0,0-2.435,3.718,3.361,3.361,0,0,0,3.427,3.328v2.248c-2.826,0-5.923-1.858-5.923-5.576a6.305,6.305,0,0,1,4-5.818,11.15,11.15,0,0,1-.511-3.327c0-.39.03-0.75,0.06-1.05H66.619v-2.279h23.57v2.279Zm-8.567,0H75.668c-0.03.36-.06,0.749-0.06,1.169a7.661,7.661,0,0,0,3.036,6.627,7.992,7.992,0,0,0,3.037-6.656C81.681,180.167,81.651,179.778,81.621,179.418Zm26.7,0h-4.059v15.891h-2.494V187.9H95.06a28.756,28.756,0,0,1-1.052,7.405H91.483a30.908,30.908,0,0,0,1.172-7.405,6.1,6.1,0,0,0-1.895-4.019l3.608-1.259a19,19,0,0,1,.662,3h6.735v-6.207H87.514v-2.279h20.8v2.279Zm-8.477,13.433a1.57,1.57,0,0,1-1.564,1.559,1.544,1.544,0,1,1,0-3.088A1.564,1.564,0,0,1,99.841,192.851Zm22.218-4.707c0,3.148,1.773,4.827,4.6,4.827a6.808,6.808,0,0,0,4.96-1.949v2.309a6.747,6.747,0,0,1-5.111,1.949,6.487,6.487,0,0,1-6.765-6.777v-1.229a6.1,6.1,0,0,0-1.893-4.018L121.457,182a18.97,18.97,0,0,1,.662,3h6.734v-5.577h-14.01v-2.279h20.8v2.279h-4.3v7.856h-9.29v0.87Zm9.139-10.975h-2.315a4.411,4.411,0,0,0-5.051-4.647l-0.57-2.4A6.957,6.957,0,0,1,131.2,177.169Zm22.85,2.249v3.508a6.237,6.237,0,0,1,5.652,6.387,5.672,5.672,0,0,1-5.472,5.7V192.7a3.528,3.528,0,0,0,3.006-3.6c0-2.22-1.773-3.989-4.449-3.989s-4.45,1.769-4.45,3.989a3.528,3.528,0,0,0,3.007,3.6v2.309a5.651,5.651,0,0,1-5.472-5.7,6.263,6.263,0,0,1,5.682-6.387v-3.508h-8.628v-2.279h19.421v2.279h-8.3Zm17.137,0h-4.3v8.666H164.42v-8.666h-4.329v-2.279h11.094v2.279Zm21.285,0h-6.1c0.03,0.33.061,0.69,0.061,1.079a10.373,10.373,0,0,1-.541,3.3,6.289,6.289,0,0,1,4.028,5.818c0,3.718-3.127,5.576-5.953,5.576v-2.248a3.369,3.369,0,0,0,3.458-3.328,4.214,4.214,0,0,0-2.465-3.748,10.326,10.326,0,0,1-4.029,4.078,10.322,10.322,0,0,1-4.059-4.048,4.228,4.228,0,0,0-2.435,3.718,3.361,3.361,0,0,0,3.427,3.328v2.248c-2.826,0-5.923-1.858-5.923-5.576a6.306,6.306,0,0,1,4-5.818,11.144,11.144,0,0,1-.511-3.327c0-.39.031-0.75,0.06-1.05H168.9v-2.279h23.57v2.279Zm-8.567,0h-5.954c-0.03.36-.059,0.749-0.059,1.169a7.661,7.661,0,0,0,3.036,6.627,7.992,7.992,0,0,0,3.036-6.656C183.962,180.167,183.932,179.778,183.9,179.418Zm22.278,9.265A4.278,4.278,0,0,0,207.2,191.5a5.8,5.8,0,0,1,5.742-3.838c2.946,0,4.51,1.709,4.51,3.748,0,2.428-2.224,4.2-5.772,4.2-4.51,0-8-2.879-8-7.017,0-2.818,1.653-5.906,6.734-5.906h3.7v-3.269H200.769v-2.279h19.422v2.279h-3.577v5.607H209.7A3.376,3.376,0,0,0,206.181,188.683Zm2.526,3.929a7.042,7.042,0,0,0,3.1.658c1.833,0,3.157-.569,3.157-1.618,0-.87-0.752-1.709-2.405-1.709A4.12,4.12,0,0,0,208.707,192.612Zm3.218-18.381c-1.444-.27-4.541-0.48-4.541-5.338h2.376c0,2.789,1.082,2.849,2.224,3,2.315,0.36,4.48,1.409,4.48,5.277h-2.345C214.119,175.31,213.187,174.41,211.925,174.231Zm17.466,5.187v3.508a6.237,6.237,0,0,1,5.652,6.387,5.672,5.672,0,0,1-5.471,5.7V192.7a3.528,3.528,0,0,0,3.006-3.6c0-2.22-1.773-3.989-4.449-3.989s-4.45,1.769-4.45,3.989a3.528,3.528,0,0,0,3.006,3.6v2.309a5.651,5.651,0,0,1-5.471-5.7,6.262,6.262,0,0,1,5.682-6.387v-3.508h-8.628v-2.279h19.421v2.279h-8.3Zm26.427,0H251.76v15.891h-2.5V187.9h-6.7a28.786,28.786,0,0,1-1.052,7.405h-2.525a30.925,30.925,0,0,0,1.172-7.405,6.1,6.1,0,0,0-1.894-4.019l3.608-1.259a18.982,18.982,0,0,1,.661,3h6.735v-6.207H235.014v-2.279h20.8v2.279Zm-8.477,13.433a1.571,1.571,0,0,1-1.564,1.559,1.544,1.544,0,1,1,0-3.088A1.564,1.564,0,0,1,247.341,192.851ZM260,192.072l-1.984,6.9H255.79l1.713-6.9H260ZM55.072,221.57a4.413,4.413,0,0,1,2.555,4.229c0,3.928-3.307,6.836-7.816,6.836-3.488,0-5.653-1.709-5.653-4.108,0-1.949,1.413-3.508,4.15-3.508a6.57,6.57,0,0,1,5.922,3.689,4.175,4.175,0,0,0,.9-2.7c0-2.429-1.8-3.239-5.021-3.209H46.805v-2.459h3.307c3.7-.179,4.78-0.78,4.87-3.988H41v-2.278H60.424v2.278H57.478C57.358,219.651,56.185,221.181,55.072,221.57Zm-5.141,8.756a7.212,7.212,0,0,0,2.646-.449,4.95,4.95,0,0,0-4.24-2.579c-1.112,0-1.683.51-1.683,1.259C46.655,229.456,47.586,230.326,49.931,230.326ZM57.3,214.1H54.983a4.411,4.411,0,0,0-5.051-4.647l-0.571-2.4A6.956,6.956,0,0,1,57.3,214.1Zm5.8,12.744a6.58,6.58,0,0,0,6.164,3.449,8.683,8.683,0,0,0,6.343-2.64v2.43c-0.991,1.288-3.607,2.518-6.734,2.518a8.433,8.433,0,0,1-8.418-5.757c1.323-3.569,3.818-5.757,8.207-5.757H72.48v-4.738H57.809v-2.278h20.8v2.278H74.975v7.077H68.661A5.684,5.684,0,0,0,63.1,226.848Zm23.993-10.5h-4.3v8.666H80.328v-8.666H76v-2.278H87.092v2.278Zm31.719,0h-3.638v15.892h-2.5V223.97h-2.857a24.3,24.3,0,0,1-2.345,6.117l-2.555-1.14c3.127-5.637,3.307-7.556,1.684-9.325-1.8.18-3.337,1.979-5.772,7.016l-2.5-1.139c2.1-4.618,2.344-7.376.752-9.146H94.73v-2.278h5.5c1.985,1.019,2.435,3.9,2.135,5.727a5.693,5.693,0,0,1,5.412-2.549A6.194,6.194,0,0,1,110,221.69h2.676v-7.615h6.133v2.278Zm11.244,6.327a4.5,4.5,0,0,1,1.684,3.659c0,3.357-2.826,5.726-6.915,5.726-2.405,0-4.96-.809-6.013-1.829V227.9a10.956,10.956,0,0,0,5.772,1.83c2.556,0,4.661-1.2,4.661-3.449,0-2.369-2.2-2.308-7.336-2.308v-2.28c5.592,0,7.366-.089,7.3-3.357v-1.98H116.2v-2.278h19.421v2.278h-3.908v1.709C131.709,221.211,130.807,222.171,130.055,222.68Zm1.474-8.576h-2.315a4.411,4.411,0,0,0-5.051-4.647l-0.57-2.4A6.956,6.956,0,0,1,131.529,214.1Zm25.555,8.576a4.507,4.507,0,0,1,1.684,3.659c0,3.357-2.827,5.726-6.916,5.726-2.4,0-4.96-.809-6.013-1.829V227.9a10.964,10.964,0,0,0,5.773,1.83c2.556,0,4.66-1.2,4.66-3.449,0-2.369-2.195-2.308-7.336-2.308v-2.28c5.592,0,7.367-.089,7.306-3.357v-1.98H143.224v-2.278h19.421v2.278h-3.907v1.709C158.738,221.211,157.835,222.171,157.084,222.68Zm23.661-6.327h-3.156l-0.061,2.76a12,12,0,0,1-1.683,6.5,16.828,16.828,0,0,1,.662,4.8c0,0.6,0,1.319-.031,1.919h-2.465c0.03-.449.061-1.349,0.061-1.979a17.407,17.407,0,0,0-.181-2.579,8.32,8.32,0,0,1-5.141,1.679c-3.788,0-5.983-2.1-5.983-5.157,0-3.118,2.165-5.186,5.5-5.186a7.316,7.316,0,0,1,6.314,3.6,11.962,11.962,0,0,0,.48-3.448v-2.909H159.941v-2.278h20.8v2.278Zm-7.516,8.816c-0.932-2.429-2.645-3.748-4.75-3.748-1.984,0-3.216,1.139-3.216,2.848,0,1.74,1.292,2.848,3.607,2.848A5.487,5.487,0,0,0,173.229,225.169Zm16.266-8.816v3.508a6.238,6.238,0,0,1,5.652,6.388,5.671,5.671,0,0,1-5.472,5.7v-2.308a3.53,3.53,0,0,0,3.007-3.6c0-2.22-1.774-3.989-4.45-3.989s-4.45,1.769-4.45,3.989a3.53,3.53,0,0,0,3.007,3.6v2.308a5.651,5.651,0,0,1-5.472-5.7A6.264,6.264,0,0,1,187,219.861v-3.508h-8.628v-2.278h19.421v2.278h-8.3Zm17.137,0h-4.3v8.666h-2.465v-8.666h-4.329v-2.278h11.094v2.278Zm21.286,0h-6.1c0.031,0.33.061,0.69,0.061,1.08a10.383,10.383,0,0,1-.541,3.3,6.287,6.287,0,0,1,4.028,5.817c0,3.718-3.126,5.577-5.952,5.577v-2.248a3.37,3.37,0,0,0,3.458-3.329A4.217,4.217,0,0,0,220.4,222.8a10.319,10.319,0,0,1-4.029,4.078,10.322,10.322,0,0,1-4.059-4.048,4.23,4.23,0,0,0-2.435,3.718,3.362,3.362,0,0,0,3.428,3.329v2.248c-2.827,0-5.923-1.859-5.923-5.577a6.305,6.305,0,0,1,4-5.817,11.182,11.182,0,0,1-.51-3.328c0-.39.03-0.749,0.059-1.05h-6.583v-2.278h23.57v2.278Zm-8.569,0H213.4c-0.031.36-.06,0.75-0.06,1.169a7.659,7.659,0,0,0,3.036,6.627,7.992,7.992,0,0,0,3.037-6.656C219.41,217.1,219.379,216.713,219.349,216.353Zm-2.223-5.187c-1.443-.269-4.54-0.479-4.54-5.337h2.376c0,2.789,1.082,2.848,2.224,3,2.315,0.361,4.48,1.41,4.48,5.277h-2.345C219.321,212.246,218.389,211.346,217.126,211.166Zm28.922,5.187h-4.059v15.892H239.5v-7.406h-6.706a28.749,28.749,0,0,1-1.052,7.406h-2.525a30.888,30.888,0,0,0,1.173-7.406,6.1,6.1,0,0,0-1.895-4.018l3.609-1.26a19.094,19.094,0,0,1,.661,3H239.5v-6.207H225.244v-2.278h20.8v2.278Zm8.057,0h-4.328v15.892h-2.5V216.353h-4.269v-2.278h4.269v-2.759c0-2.309-1.232-3.148-2.465-3.148s-2.5.839-2.5,3.148v0.9h-2.465v-0.9c0-3.3,1.8-5.457,4.961-5.457,3.127,0,4.961,2.159,4.961,5.457v2.759h4.328v2.278ZM51.435,246.392l-1.984,6.9H47.226l1.714-6.9h2.495ZM68.9,259.616a4.5,4.5,0,0,1,1.684,3.658c0,3.358-2.826,5.727-6.916,5.727-2.4,0-4.96-.81-6.013-1.83v-2.338a10.961,10.961,0,0,0,5.772,1.829c2.556,0,4.661-1.2,4.661-3.449,0-2.369-2.2-2.308-7.335-2.308v-2.279c5.591,0,7.366-.09,7.3-3.358v-1.98H55.043V251.01H74.464v2.278H70.556V255C70.556,258.146,69.654,259.106,68.9,259.616Zm1.474-8.576H68.062a4.412,4.412,0,0,0-5.051-4.648l-0.571-2.4A6.956,6.956,0,0,1,70.376,251.04ZM81.41,267.891H78.915V251.61H81.41v16.281Z"/>
</svg>
