<svg id="HING" xmlns="http://www.w3.org/2000/svg" width="300" height="250" viewBox="0 0 300 250">
  <defs>
    <style>
      .cls-1 {
        fill: #4c286c;
        fill-rule: evenodd;
      }
    </style>
  </defs>
  <g id="txt1">
    <path class="cls-1" d="M39.992,146.886h9.017c0.2,2.66,1.86,3.3,4.408,3.3,2.628,0,3.761-.644,3.761-1.973,0-1.249-.971-1.894-4.084-2.338l-3.478-.483c-5.217-.725-8.937-3.546-8.937-9.026,0-4.512,2.386-9.387,12.253-9.387,7.521,0,12.131,2.82,12.657,9.469H57.136c-0.2-1.733-1.132-2.741-3.882-2.741-2.507,0-3.477.726-3.477,1.854s0.97,1.692,2.709,1.934l3.478,0.484c7.2,1.007,10.432,3.746,10.432,8.864C66.4,153.011,61.908,157,53.254,157,44.44,157,40.274,152.89,39.992,146.886ZM83.3,156.315a6.265,6.265,0,0,1-.606-2.418c-1.132,1.935-3.4,3.1-6.712,3.1-4.408,0-7.683-2.015-7.683-6.407,0-3.625,2.224-5.882,7.966-6.446l3.8-.363c1.7-.161,2.507-0.483,2.507-1.571s-0.809-1.531-2.345-1.531c-1.618,0-2.386.484-2.507,2.055h-8.41c0.2-5.077,3.316-7.7,11.039-7.7,7.521,0,10.635,2.418,10.635,6.648v11.322a7.328,7.328,0,0,0,.768,3.3H83.3Zm-0.728-7.937v-1.371a2.355,2.355,0,0,1-1.819.847l-1.941.242c-1.334.161-1.981,0.725-1.981,1.813,0,1.249.849,1.853,2.467,1.853C81.438,151.762,82.57,150.634,82.57,148.378Zm11.565,1.571V127.628h8.41v20.629c0,1.732.647,1.853,1.78,1.853h1.132v6.2a27.466,27.466,0,0,1-3.276.2C96.439,156.516,94.135,154.583,94.135,149.949Zm35.705-1.934h-15.2c0.121,1.894,1.375,3.183,4,3.183a3.5,3.5,0,0,0,2.993-1.128h7.845c-1.254,4.351-5.46,6.728-11,6.728-7.279,0-11.727-4.069-11.727-10.8,0-6.567,4.448-10.959,11.686-10.959,6.834,0,11.565,3.908,11.565,10.637A19.86,19.86,0,0,1,129.84,148.015Zm-15.084-4.351h7.158c-0.2-2.055-1.416-3.063-3.6-3.063A3.189,3.189,0,0,0,114.756,143.664Z"/>
  </g>
</svg>
