<svg id="HING" xmlns="http://www.w3.org/2000/svg" width="300" height="250" viewBox="0 0 300 250">
  <defs>
    <style>
      .cls-1 {
        fill: #4c286c;
        fill-rule: evenodd;
      }
    </style>
  </defs>
  <g id="txt1">
    <path class="cls-1" d="M42,184.333a5.089,5.089,0,0,1,5.329-5.455,5.464,5.464,0,0,1,0,10.924A5.086,5.086,0,0,1,42,184.333Zm7.35,0c0-1.862-.834-2.64-2.021-2.64s-2.021.778-2.021,2.64c0,1.877.834,2.654,2.021,2.654S49.35,186.21,49.35,184.333ZM63,179.112v10.441H59.678l-2.12-3.71c-0.354-.616-0.664-1.173-0.947-1.745,0.043,1.232.057,2.42,0.057,3.754v1.7h-3.11V179.112h3.322l2.078,3.71c0.311,0.558.65,1.261,0.975,1.966-0.042-1.306-.042-2.552-0.042-3.974v-1.7H63Z"/>
  </g>
</svg>
