<svg id="HING" xmlns="http://www.w3.org/2000/svg" width="300" height="250" viewBox="0 0 300 250">
  <defs>
    <style>
      .cls-1 {
        fill: #4c286c;
        fill-rule: evenodd;
      }
    </style>
  </defs>
  <path id="txt2" class="cls-1" d="M38.591,82.069A3.878,3.878,0,0,1,42.734,78a4.08,4.08,0,1,1,0,8.159A3.875,3.875,0,0,1,38.591,82.069Zm5.714,0c0-1.391-.649-1.971-1.572-1.971s-1.571.58-1.571,1.971,0.649,1.982,1.571,1.982S44.306,83.471,44.306,82.069Zm10.614-3.9v7.8H52.338L50.689,83.2c-0.275-.46-0.517-0.876-0.736-1.3C49.986,82.814,50,83.7,50,84.7v1.271H47.58v-7.8h2.582l1.615,2.77c0.242,0.416.505,0.942,0.758,1.467C52.5,81.434,52.5,80.5,52.5,79.441v-1.27H54.92Zm10.8,0v7.8H63.14L61.491,83.2c-0.275-.46-0.517-0.876-0.736-1.3,0.033,0.92.044,1.807,0.044,2.8v1.271H58.381v-7.8h2.582l1.616,2.77c0.242,0.416.505,0.942,0.758,1.467C63.3,81.434,63.3,80.5,63.3,79.441v-1.27h2.417Zm0.7,3.9a4.143,4.143,0,1,1,4.143,4.085A3.878,3.878,0,0,1,66.424,82.069Zm5.714,0c0-1.391-.649-1.971-1.571-1.971S69,80.678,69,82.069s0.649,1.982,1.572,1.982S72.138,83.471,72.138,82.069Zm13.824-3.9-2.066,7.8H81.237L80.72,83.591c-0.153-.679-0.286-1.358-0.407-2.026-0.132.668-.263,1.347-0.417,2.026l-0.516,2.376H76.72l-2.066-7.8h2.538l0.44,2.311c0.176,0.92.341,1.851,0.505,2.749,0.154-.9.34-1.829,0.516-2.749l0.461-2.311H81.5l0.461,2.311c0.177,0.92.363,1.851,0.517,2.749,0.165-.9.33-1.829,0.505-2.749l0.44-2.311h2.538ZM38,106.272h3.786c0.086,1.117.781,1.388,1.852,1.388,1.1,0,1.579-.271,1.579-0.829,0-.525-0.408-0.8-1.716-0.981l-1.459-.2c-2.191-.3-3.753-1.489-3.753-3.79,0-1.895,1-3.942,5.145-3.942,3.158,0,5.094,1.184,5.315,3.976H45.2c-0.085-.727-0.475-1.151-1.63-1.151-1.053,0-1.46.3-1.46,0.779s0.408,0.711,1.137.812l1.46,0.2c3.023,0.423,4.381,1.574,4.381,3.722,0,2.589-1.885,4.264-5.518,4.264C39.867,110.519,38.118,108.793,38,106.272Zm18.186,3.96a2.63,2.63,0,0,1-.255-1.016,3.04,3.04,0,0,1-2.819,1.3c-1.85,0-3.226-.846-3.226-2.69,0-1.523.934-2.47,3.345-2.707l1.6-.153c0.713-.067,1.053-0.2,1.053-0.659s-0.34-.643-0.984-0.643a0.849,0.849,0,0,0-1.052.863H50.31c0.085-2.132,1.393-3.232,4.636-3.232,3.159,0,4.466,1.015,4.466,2.792v4.754a3.071,3.071,0,0,0,.323,1.388H56.185ZM55.879,106.9v-0.575a0.986,0.986,0,0,1-.764.355l-0.815.1a0.757,0.757,0,0,0-.832.761c0,0.525.356,0.779,1.036,0.779A1.243,1.243,0,0,0,55.879,106.9Zm14.468-5.4-3.278,8.731H62.944L59.667,101.5h3.769l0.731,2.5c0.339,1.185.611,2.149,0.917,3.367,0.305-1.218.578-2.182,0.917-3.367l0.713-2.5h3.634Zm9.7,5.245H73.659a1.433,1.433,0,0,0,1.681,1.337,1.469,1.469,0,0,0,1.256-.474h3.294c-0.526,1.828-2.292,2.826-4.618,2.826-3.056,0-4.924-1.709-4.924-4.535,0-2.758,1.868-4.6,4.907-4.6,2.87,0,4.857,1.641,4.857,4.467A8.389,8.389,0,0,1,80.044,106.746Zm-6.334-1.827h3.005a1.321,1.321,0,0,0-1.511-1.286A1.339,1.339,0,0,0,73.71,104.919ZM41.734,126.4l-1.562,1.455v3.232H38.814V119.041h1.359v7.224l4.058-3.908h1.8L42.7,125.5l3.566,5.584H44.689Zm12.957,3.587v1.1a5.174,5.174,0,0,1-.747.05,1.255,1.255,0,0,1-1.478-1.252,3.211,3.211,0,0,1-2.852,1.405c-1.9,0-3.09-.914-3.09-2.555,0-1.37.832-2.453,3.243-2.707l1.256-.136c0.883-.1,1.375-0.423,1.375-1.2,0-.914-0.476-1.37-1.97-1.37s-2.123.423-2.207,1.725H46.863c0.1-1.692,1-2.892,3.566-2.892,2.428,0,3.293,1.065,3.293,2.537v4.873a0.4,0.4,0,0,0,.476.423h0.493ZM52.4,127.636V126.6a2.263,2.263,0,0,1-1.155.372l-1.273.153c-1.6.185-2.038,0.727-2.038,1.573,0,0.863.543,1.438,1.749,1.438A2.513,2.513,0,0,0,52.4,127.636Zm8.135-5.4v1.3h-0.34c-1.749,0-2.87.879-2.87,2.572v4.974H55.965v-8.731h1.291v1.54a3.062,3.062,0,0,1,2.819-1.675C60.21,122.222,60.346,122.222,60.533,122.239Zm8.49,4.958H62.367c0.136,1.962,1.172,2.859,2.7,2.859a2.25,2.25,0,0,0,2.326-1.625H68.8a3.652,3.652,0,0,1-3.769,2.86c-2.395,0-4.076-1.743-4.076-4.569,0-2.741,1.613-4.567,4.041-4.567,2.614,0,4.024,2.063,4.024,4.567V127.2ZM62.4,125.978h5.161A2.565,2.565,0,0,0,65,123.389C63.623,123.389,62.622,124.252,62.4,125.978Zm8.084-5.77a0.917,0.917,0,1,1,.917.914A0.922,0.922,0,0,1,70.485,120.208Zm0.237,2.149h1.359v8.731H70.722v-8.731Zm10.612,2.826v5.9H79.975v-5.77a1.753,1.753,0,0,0-2-1.945,2.488,2.488,0,0,0-2.412,2.774v4.941H74.2v-8.731h1.291v1.3a3.233,3.233,0,0,1,2.751-1.5A2.788,2.788,0,0,1,81.334,125.183Zm7.472-1.641v5.668c0,0.457.221,0.744,1,.744h0.8v1.134c-0.374.034-.7,0.05-0.968,0.05-1.358,0-2.19-.473-2.19-1.81v-5.786H86v-1.185h1.444v-2.47h1.358v2.47h1.8v1.185h-1.8Zm10.9,6.446v1.1a5.173,5.173,0,0,1-.747.05,1.255,1.255,0,0,1-1.478-1.252,3.211,3.211,0,0,1-2.852,1.405c-1.9,0-3.09-.914-3.09-2.555,0-1.37.832-2.453,3.243-2.707l1.257-.136c0.883-.1,1.375-0.423,1.375-1.2,0-.914-0.476-1.37-1.969-1.37s-2.123.423-2.207,1.725H91.88c0.1-1.692,1-2.892,3.566-2.892,2.428,0,3.293,1.065,3.293,2.537v4.873a0.4,0.4,0,0,0,.476.423h0.493Zm-2.292-2.352V126.6a2.263,2.263,0,0,1-1.155.372l-1.273.153c-1.6.185-2.038,0.727-2.038,1.573,0,0.863.543,1.438,1.749,1.438A2.513,2.513,0,0,0,97.416,127.636Zm11.31,2.352v1.1a5.173,5.173,0,0,1-.747.05,1.255,1.255,0,0,1-1.478-1.252,3.212,3.212,0,0,1-2.852,1.405c-1.9,0-3.091-.914-3.091-2.555,0-1.37.832-2.453,3.244-2.707l1.256-.136c0.883-.1,1.376-0.423,1.376-1.2,0-.914-0.476-1.37-1.97-1.37s-2.123.423-2.207,1.725H100.9c0.1-1.692,1-2.892,3.566-2.892,2.428,0,3.293,1.065,3.293,2.537v4.873a0.4,0.4,0,0,0,.476.423h0.493Zm-2.292-2.352V126.6a2.266,2.266,0,0,1-1.155.372l-1.273.153c-1.6.185-2.038,0.727-2.038,1.573,0,0.863.543,1.438,1.749,1.438A2.513,2.513,0,0,0,106.434,127.636Zm10.222,2.268v1.184h-7.081v-1.015l4.007-5.144c0.374-.474.747-0.948,1.137-1.421-0.628.034-1.239,0.034-1.867,0.034h-3.108v-1.185h6.674v1.016l-4.008,5.143c-0.373.474-.747,0.948-1.137,1.421,0.628-.033,1.239-0.033,1.868-0.033h3.515Zm8.932,0.084v1.1a5.164,5.164,0,0,1-.747.05,1.255,1.255,0,0,1-1.478-1.252,3.21,3.21,0,0,1-2.852,1.405c-1.9,0-3.091-.914-3.091-2.555,0-1.37.833-2.453,3.244-2.707l1.256-.136c0.883-.1,1.376-0.423,1.376-1.2,0-.914-0.476-1.37-1.97-1.37s-2.122.423-2.207,1.725H117.76c0.1-1.692,1-2.892,3.566-2.892,2.428,0,3.294,1.065,3.294,2.537v4.873a0.4,0.4,0,0,0,.476.423h0.492Zm-2.292-2.352V126.6a2.263,2.263,0,0,1-1.155.372l-1.273.153c-1.6.185-2.038,0.727-2.038,1.573,0,0.863.543,1.438,1.749,1.438A2.513,2.513,0,0,0,123.3,127.636Zm14.824-8.595v12.047h-1.29v-1.353a3.452,3.452,0,0,1-3.006,1.556c-2.462,0-4.075-1.777-4.075-4.569s1.613-4.567,4.075-4.567a3.443,3.443,0,0,1,2.937,1.454v-4.568h1.359Zm-1.308,7.681c0-2.115-1.121-3.349-2.818-3.349s-2.819,1.3-2.819,3.417,1.121,3.283,2.819,3.283S136.812,128.837,136.812,126.722Zm11.072,0.475h-6.656c0.136,1.962,1.172,2.859,2.7,2.859a2.25,2.25,0,0,0,2.326-1.625h1.409a3.651,3.651,0,0,1-3.769,2.86c-2.4,0-4.075-1.743-4.075-4.569,0-2.741,1.613-4.567,4.041-4.567,2.614,0,4.024,2.063,4.024,4.567V127.2Zm-6.622-1.219h5.162a2.565,2.565,0,0,0-2.564-2.589C142.485,123.389,141.483,124.252,141.262,125.978Zm15.894,4.01v1.1a5.173,5.173,0,0,1-.747.05,1.255,1.255,0,0,1-1.478-1.252,3.212,3.212,0,0,1-2.852,1.405c-1.9,0-3.091-.914-3.091-2.555,0-1.37.832-2.453,3.244-2.707l1.256-.136c0.883-.1,1.375-0.423,1.375-1.2,0-.914-0.475-1.37-1.969-1.37s-2.123.423-2.207,1.725h-1.359c0.1-1.692,1-2.892,3.566-2.892,2.428,0,3.293,1.065,3.293,2.537v4.873a0.4,0.4,0,0,0,.476.423h0.493Zm-2.293-2.352V126.6a2.259,2.259,0,0,1-1.154.372l-1.273.153c-1.6.185-2.038,0.727-2.038,1.573,0,0.863.543,1.438,1.749,1.438A2.512,2.512,0,0,0,154.863,127.636Zm3.481,1.692V119.041H159.7V129.21a0.679,0.679,0,0,0,.832.744h0.645v1.134a8.59,8.59,0,0,1-.865.05C159.091,131.138,158.344,130.665,158.344,129.328Zm3.482-1.015H163.2c0.153,1.32.8,1.811,2.343,1.811,1.478,0,2.106-.491,2.106-1.355,0-.777-0.476-1.133-2-1.421l-0.816-.151c-1.9-.356-2.733-1.219-2.733-2.572,0-1.49,1.188-2.47,3.192-2.47,2.343,0,3.532,1.031,3.566,2.892H167.5c-0.068-1.354-.866-1.725-2.207-1.725-1.172,0-1.834.473-1.834,1.285,0,0.829.645,1.134,1.766,1.354L166,126.114c2.156,0.423,3.023,1.15,3.023,2.571,0,1.658-1.325,2.606-3.482,2.606C163.32,131.291,161.962,130.361,161.826,128.313ZM41.734,147.257l-1.562,1.455v3.232H38.814V139.9h1.359v7.224l4.058-3.909h1.8L42.7,146.361l3.566,5.583H44.689Zm12.769,0.8H47.848c0.136,1.963,1.172,2.859,2.7,2.859a2.249,2.249,0,0,0,2.326-1.624h1.41a3.652,3.652,0,0,1-3.769,2.86c-2.395,0-4.076-1.743-4.076-4.569,0-2.741,1.613-4.568,4.041-4.568,2.614,0,4.024,2.064,4.024,4.568v0.474Zm-6.622-1.219h5.161a2.564,2.564,0,0,0-2.564-2.588C49.1,144.246,48.1,145.109,47.882,146.834Zm11,2.335h1.375c0.153,1.32.8,1.811,2.343,1.811,1.478,0,2.106-.491,2.106-1.354,0-.778-0.476-1.133-2-1.421l-0.816-.152c-1.9-.355-2.733-1.219-2.733-2.572,0-1.489,1.188-2.47,3.192-2.47,2.343,0,3.532,1.032,3.567,2.893H64.557c-0.068-1.354-.866-1.725-2.208-1.725-1.172,0-1.834.473-1.834,1.285,0,0.829.646,1.134,1.767,1.354l0.78,0.152c2.157,0.423,3.023,1.15,3.023,2.572,0,1.658-1.325,2.606-3.482,2.606C60.38,152.148,59.022,151.217,58.885,149.169Zm16.557,1.676v1.1A5.033,5.033,0,0,1,74.7,152a1.256,1.256,0,0,1-1.478-1.252,3.213,3.213,0,0,1-2.852,1.405c-1.9,0-3.09-.914-3.09-2.555,0-1.371.832-2.453,3.243-2.707l1.256-.136c0.883-.1,1.375-0.423,1.375-1.2,0-.913-0.476-1.369-1.969-1.369s-2.123.423-2.208,1.725H67.614c0.1-1.692,1-2.893,3.566-2.893,2.428,0,3.293,1.066,3.293,2.537v4.873a0.4,0.4,0,0,0,.476.424h0.493Zm-2.293-2.352V147.46a2.271,2.271,0,0,1-1.155.373l-1.273.152c-1.6.186-2.038,0.727-2.038,1.574S69.228,151,70.433,151A2.513,2.513,0,0,0,73.15,148.493Zm11.309,2.352v1.1a5.03,5.03,0,0,1-.747.051,1.255,1.255,0,0,1-1.478-1.252,3.214,3.214,0,0,1-2.852,1.405c-1.9,0-3.09-.914-3.09-2.555,0-1.371.832-2.453,3.243-2.707l1.257-.136c0.883-.1,1.375-0.423,1.375-1.2,0-.913-0.476-1.369-1.97-1.369s-2.123.423-2.207,1.725H76.631c0.1-1.692,1-2.893,3.566-2.893,2.428,0,3.293,1.066,3.293,2.537v4.873a0.4,0.4,0,0,0,.476.424h0.492Zm-2.292-2.352V147.46a2.272,2.272,0,0,1-1.155.373l-1.273.152c-1.6.186-2.038,0.727-2.038,1.574S78.244,151,79.45,151A2.513,2.513,0,0,0,82.166,148.493Zm5.265-4.095v5.668c0,0.457.22,0.745,1,.745h0.8v1.133c-0.374.035-.7,0.051-0.968,0.051-1.358,0-2.19-.473-2.19-1.81V144.4H84.629v-1.185h1.444v-2.47h1.358v2.47h1.8V144.4h-1.8Zm10.46,1.641v5.905H96.533v-5.77a1.754,1.754,0,0,0-2-1.945A2.488,2.488,0,0,0,92.118,147v4.941H90.759V139.9h1.359v4.517a3.231,3.231,0,0,1,2.682-1.4A2.788,2.788,0,0,1,97.891,146.039Zm5.01,1.54c0-2.792,1.784-4.568,4.246-4.568s4.244,1.776,4.244,4.568-1.782,4.569-4.244,4.569S102.9,150.371,102.9,147.579Zm7.064,0c0-2.115-1.121-3.35-2.818-3.35s-2.819,1.235-2.819,3.35,1.12,3.351,2.819,3.351S109.965,149.694,109.965,147.579Zm10.256-1.54v5.905h-1.359v-5.77a1.753,1.753,0,0,0-2-1.945A2.488,2.488,0,0,0,114.448,147v4.941h-1.359v-8.731h1.291v1.3a3.23,3.23,0,0,1,2.751-1.506A2.788,2.788,0,0,1,120.221,146.039Zm13.806,1.54c0,2.792-1.613,4.569-4.075,4.569a3.448,3.448,0,0,1-2.938-1.456v4.569h-1.358V143.213h1.29v1.354a3.448,3.448,0,0,1,3.006-1.556C132.414,143.011,134.027,144.787,134.027,147.579Zm-1.426-.067c0-2.115-1.121-3.283-2.819-3.283s-2.818,1.235-2.818,3.35,1.12,3.351,2.818,3.351S132.6,149.626,132.6,147.512Zm10.256-1.473v5.905H141.5v-5.77a1.754,1.754,0,0,0-2-1.945A2.488,2.488,0,0,0,137.084,147v4.941h-1.358V139.9h1.358v4.517a3.233,3.233,0,0,1,2.683-1.4A2.788,2.788,0,0,1,142.857,146.039Zm1.7,1.54c0-2.792,1.783-4.568,4.245-4.568s4.244,1.776,4.244,4.568-1.782,4.569-4.244,4.569S144.556,150.371,144.556,147.579Zm7.063,0c0-2.115-1.121-3.35-2.818-3.35s-2.819,1.235-2.819,3.35,1.121,3.351,2.819,3.351S151.619,149.694,151.619,147.579Zm10.257-1.54v5.905h-1.359v-5.77a1.753,1.753,0,0,0-2-1.945A2.488,2.488,0,0,0,156.1,147v4.941h-1.358v-8.731h1.29v1.3a3.232,3.232,0,0,1,2.751-1.506A2.788,2.788,0,0,1,161.876,146.039Zm9.764,2.014h-6.656c0.136,1.963,1.172,2.859,2.7,2.859a2.249,2.249,0,0,0,2.326-1.624h1.41a3.653,3.653,0,0,1-3.77,2.86c-2.4,0-4.075-1.743-4.075-4.569,0-2.741,1.613-4.568,4.041-4.568,2.614,0,4.024,2.064,4.024,4.568v0.474Zm-6.622-1.219h5.162a2.565,2.565,0,0,0-2.564-2.588C166.241,144.246,165.239,145.109,165.018,146.834Zm7.607,2.335H174c0.153,1.32.8,1.811,2.343,1.811,1.478,0,2.106-.491,2.106-1.354,0-.778-0.476-1.133-2-1.421l-0.815-.152c-1.9-.355-2.734-1.219-2.734-2.572,0-1.489,1.189-2.47,3.192-2.47,2.343,0,3.532,1.032,3.567,2.893H178.3c-0.069-1.354-.867-1.725-2.208-1.725-1.171,0-1.834.473-1.834,1.285,0,0.829.646,1.134,1.767,1.354l0.78,0.152c2.157,0.423,3.023,1.15,3.023,2.572,0,1.658-1.324,2.606-3.481,2.606C174.12,152.148,172.762,151.217,172.625,149.169ZM183,151.691a2.3,2.3,0,0,1-1.9,2.572l-0.169.033v-0.9l0.119-.034a1.253,1.253,0,0,0,.933-1.32h-0.1a0.883,0.883,0,0,1-.951-0.88,0.91,0.91,0,0,1,.951-0.914A1.189,1.189,0,0,1,183,151.691ZM46.76,160.754V172.8h-1.29v-1.353A3.45,3.45,0,0,1,42.465,173c-2.462,0-4.076-1.777-4.076-4.568s1.613-4.568,4.076-4.568a3.446,3.446,0,0,1,2.937,1.454v-4.568H46.76Zm-1.307,7.682c0-2.116-1.121-3.35-2.818-3.35s-2.819,1.3-2.819,3.418,1.121,3.282,2.819,3.282S45.453,170.551,45.453,168.436ZM56.542,171.7v1.1a5.17,5.17,0,0,1-.747.051,1.256,1.256,0,0,1-1.478-1.252,3.213,3.213,0,0,1-2.852,1.4c-1.9,0-3.09-.913-3.09-2.554,0-1.371.832-2.454,3.244-2.708l1.256-.136c0.883-.1,1.375-0.422,1.375-1.2,0-.914-0.476-1.37-1.969-1.37s-2.123.423-2.208,1.726H48.714c0.1-1.693,1-2.893,3.566-2.893,2.428,0,3.293,1.065,3.293,2.537v4.873a0.4,0.4,0,0,0,.476.424h0.493Zm-2.292-2.353v-1.032a2.262,2.262,0,0,1-1.155.372l-1.273.153c-1.6.186-2.038,0.727-2.038,1.574s0.543,1.437,1.749,1.437A2.512,2.512,0,0,0,54.25,169.349Zm5.264-4.094v5.668c0,0.457.221,0.745,1,.745h0.8V172.8c-0.374.034-.7,0.051-0.968,0.051-1.358,0-2.19-.474-2.19-1.81v-5.787H56.712V164.07h1.444V161.6h1.358v2.47h1.8v1.185h-1.8Zm10.9,6.447v1.1a5.167,5.167,0,0,1-.747.051,1.256,1.256,0,0,1-1.478-1.252,3.213,3.213,0,0,1-2.852,1.4c-1.9,0-3.09-.913-3.09-2.554,0-1.371.832-2.454,3.243-2.708l1.257-.136c0.883-.1,1.375-0.422,1.375-1.2,0-.914-0.476-1.37-1.969-1.37s-2.123.423-2.207,1.726H62.587c0.1-1.693,1-2.893,3.566-2.893,2.428,0,3.293,1.065,3.293,2.537v4.873a0.4,0.4,0,0,0,.476.424h0.492Zm-2.292-2.353v-1.032a2.262,2.262,0,0,1-1.155.372l-1.273.153c-1.6.186-2.038,0.727-2.038,1.574s0.543,1.437,1.749,1.437A2.512,2.512,0,0,0,68.123,169.349ZM82.659,171.7v1.1a5.17,5.17,0,0,1-.747.051,1.256,1.256,0,0,1-1.478-1.252,3.213,3.213,0,0,1-2.852,1.4c-1.9,0-3.09-.913-3.09-2.554,0-1.371.832-2.454,3.244-2.708l1.256-.136c0.883-.1,1.375-0.422,1.375-1.2,0-.914-0.476-1.37-1.969-1.37s-2.123.423-2.207,1.726H74.831c0.1-1.693,1-2.893,3.566-2.893,2.428,0,3.293,1.065,3.293,2.537v4.873a0.4,0.4,0,0,0,.476.424h0.493Zm-2.293-2.353v-1.032a2.262,2.262,0,0,1-1.155.372l-1.273.153c-1.6.186-2.038,0.727-2.038,1.574s0.543,1.437,1.749,1.437A2.512,2.512,0,0,0,80.367,169.349Zm10.7-2.453V172.8H89.707v-5.77a1.754,1.754,0,0,0-2-1.945,2.488,2.488,0,0,0-2.412,2.774V172.8H83.933V164.07h1.291v1.3a3.231,3.231,0,0,1,2.751-1.506A2.788,2.788,0,0,1,91.065,166.9Zm10.069-6.142V172.8h-1.29v-1.353A3.451,3.451,0,0,1,96.839,173c-2.462,0-4.076-1.777-4.076-4.568s1.613-4.568,4.076-4.568a3.446,3.446,0,0,1,2.937,1.454v-4.568h1.358Zm-1.307,7.682c0-2.116-1.121-3.35-2.818-3.35s-2.819,1.3-2.819,3.418,1.121,3.282,2.819,3.282S99.827,170.551,99.827,168.436Zm8.779-3.181v5.668c0,0.457.22,0.745,1,.745h0.8V172.8c-0.374.034-.7,0.051-0.968,0.051-1.358,0-2.19-.474-2.19-1.81v-5.787H105.8V164.07h1.444V161.6h1.358v2.47h1.8v1.185h-1.8Zm10.8,3.655H112.75c0.135,1.963,1.171,2.859,2.7,2.859a2.248,2.248,0,0,0,2.325-1.625h1.41a3.652,3.652,0,0,1-3.769,2.86c-2.395,0-4.076-1.743-4.076-4.568,0-2.742,1.614-4.568,4.042-4.568,2.614,0,4.024,2.064,4.024,4.568v0.474Zm-6.622-1.219h5.161a2.564,2.564,0,0,0-2.563-2.589C114.006,165.1,113,165.966,112.784,167.691Zm7.9,0.745c0-2.809,1.631-4.568,4.059-4.568a3.545,3.545,0,0,1,3.769,3.163H127.1a2.279,2.279,0,0,0-2.36-1.945c-1.494,0-2.632,1.065-2.632,3.35s1.171,3.35,2.632,3.35a2.3,2.3,0,0,0,2.377-1.98h1.392a3.609,3.609,0,0,1-3.769,3.2C122.345,173,120.68,171.245,120.68,168.436Zm16.488-1.54V172.8H135.81v-5.77a1.754,1.754,0,0,0-2-1.945,2.488,2.488,0,0,0-2.412,2.774V172.8h-1.359V160.754H131.4v4.518a3.233,3.233,0,0,1,2.683-1.4A2.788,2.788,0,0,1,137.168,166.9Zm1.869,5.025a0.995,0.995,0,0,1,1.987,0A0.994,0.994,0,1,1,139.037,171.921Z"/>
</svg>
