<svg id="HING" xmlns="http://www.w3.org/2000/svg" width="300" height="600" viewBox="0 0 300 600">
  <defs>
    <style>
      .cls-1 {
        fill: #4c286c;
      }

      .cls-1, .cls-2 {
        fill-rule: evenodd;
      }

      .cls-2 {
        fill: #fff;
      }
    </style>
  </defs>
  <path class="cls-1" d="M46.818,105.052C46.818,100.729,49.77,98,54,98s7.18,2.731,7.18,7.054c0,4.342-2.952,7.072-7.18,7.072C49.75,112.124,46.818,109.394,46.818,105.052Zm9.9,0c0-2.408-1.123-3.413-2.724-3.413s-2.723,1.005-2.723,3.413c0,2.427,1.123,3.431,2.723,3.431S56.721,107.479,56.721,105.052Zm18.4-6.75v13.5H70.644l-2.857-4.8c-0.476-.8-0.895-1.517-1.276-2.257,0.057,1.593.076,3.129,0.076,4.854v2.2H62.4V98.3h4.476l2.8,4.8c0.419,0.72.876,1.63,1.314,2.54-0.057-1.687-.057-3.3-0.057-5.138V98.3h4.19Zm18.724,0v13.5H89.368l-2.857-4.8c-0.476-.8-0.895-1.517-1.276-2.257,0.057,1.593.076,3.129,0.076,4.854v2.2h-4.19V98.3H85.6l2.8,4.8c0.419,0.72.876,1.63,1.314,2.54-0.057-1.687-.057-3.3-0.057-5.138V98.3h4.19Zm1.221,6.75c0-4.323,2.952-7.054,7.179-7.054s7.18,2.731,7.18,7.054c0,4.342-2.952,7.072-7.18,7.072C98,112.124,95.065,109.394,95.065,105.052Zm9.9,0c0-2.408-1.123-3.413-2.723-3.413s-2.723,1.005-2.723,3.413c0,2.427,1.123,3.431,2.723,3.431S104.967,107.479,104.967,105.052Zm23.96-6.75-3.58,13.5h-4.609l-0.895-4.115c-0.266-1.175-.5-2.351-0.7-3.507-0.228,1.156-.457,2.332-0.723,3.507l-0.9,4.115h-4.609l-3.58-13.5h4.4l0.762,4c0.3,1.593.59,3.2,0.876,4.759,0.266-1.554.59-3.166,0.9-4.759l0.8-4H121.2l0.8,4c0.3,1.593.628,3.2,0.9,4.759,0.285-1.554.57-3.166,0.875-4.759l0.762-4h4.4ZM46,151.076h6.706c0.15,1.976,1.383,2.455,3.278,2.455,1.955,0,2.8-.479,2.8-1.467,0-.928-0.722-1.408-3.037-1.737l-2.587-.359c-3.88-.539-6.646-2.635-6.646-6.707,0-3.354,1.774-6.977,9.112-6.977,5.593,0,9.022,2.1,9.413,7.037H58.752c-0.15-1.288-.842-2.036-2.887-2.036-1.864,0-2.585.539-2.585,1.377S54,143.92,55.294,144.1l2.586,0.36c5.352,0.748,7.759,2.784,7.759,6.587,0,4.581-3.338,7.545-9.774,7.545C49.31,158.591,46.212,155.537,46,151.076Zm32.209,7.006a4.649,4.649,0,0,1-.45-1.8c-0.842,1.437-2.527,2.305-4.993,2.305-3.278,0-5.714-1.5-5.714-4.761,0-2.694,1.654-4.371,5.924-4.79l2.827-.27c1.263-.12,1.864-0.359,1.864-1.168s-0.6-1.137-1.744-1.137c-1.2,0-1.775.359-1.865,1.527H67.806c0.15-3.773,2.466-5.719,8.21-5.719,5.594,0,7.909,1.8,7.909,4.94v8.414a5.439,5.439,0,0,0,.572,2.455H78.21Zm-0.541-5.9v-1.019a1.748,1.748,0,0,1-1.353.629l-1.443.18c-0.993.12-1.474,0.539-1.474,1.347,0,0.928.632,1.378,1.835,1.378A2.2,2.2,0,0,0,77.669,152.184Zm25.624-9.552-5.8,15.45H90.181l-5.8-15.45h6.676l1.293,4.431c0.6,2.1,1.083,3.8,1.624,5.959,0.541-2.156,1.022-3.862,1.624-5.959l1.263-4.431h6.436Zm17.173,9.282H109.157c0.091,1.407,1.023,2.365,2.978,2.365a2.6,2.6,0,0,0,2.226-.838h5.833c-0.932,3.234-4.059,5-8.179,5-5.414,0-8.722-3.024-8.722-8.024,0-4.88,3.308-8.144,8.692-8.144,5.082,0,8.6,2.9,8.6,7.905A14.757,14.757,0,0,1,120.466,151.914Zm-11.218-3.234h5.323a2.338,2.338,0,0,0-2.676-2.275A2.37,2.37,0,0,0,109.248,148.68Zm24.841,1.108-2.766,2.575v5.719h-2.407V136.764h2.407v12.784l7.186-6.916H141.7l-5.9,5.569,6.316,9.881h-2.8Zm22.947,6.348v1.946a9.171,9.171,0,0,1-1.323.09c-1.714,0-2.5-.749-2.617-2.216a5.693,5.693,0,0,1-5.052,2.485c-3.368,0-5.473-1.616-5.473-4.521,0-2.425,1.474-4.341,5.744-4.791l2.225-.239c1.564-.18,2.436-0.749,2.436-2.126,0-1.617-.842-2.425-3.488-2.425s-3.76.748-3.91,3.054h-2.406c0.181-2.994,1.774-5.12,6.316-5.12,4.3,0,5.834,1.886,5.834,4.491v8.623a0.711,0.711,0,0,0,.842.749h0.872Zm-4.06-4.162v-1.827a4.007,4.007,0,0,1-2.045.659l-2.256.27c-2.826.329-3.608,1.287-3.608,2.784,0,1.527.962,2.545,3.1,2.545C150.481,156.405,152.976,155.028,152.976,151.974Zm14.405-9.552v2.306h-0.6c-3.1,0-5.082,1.557-5.082,4.551v8.8h-2.407v-15.45h2.286v2.725a5.423,5.423,0,0,1,4.992-2.964C166.81,142.393,167.051,142.393,167.381,142.422Zm15.038,8.773H170.63c0.241,3.474,2.075,5.06,4.782,5.06a3.984,3.984,0,0,0,4.12-2.874h2.5a6.468,6.468,0,0,1-6.676,5.06c-4.241,0-7.218-3.084-7.218-8.084,0-4.851,2.856-8.084,7.157-8.084,4.632,0,7.128,3.652,7.128,8.084V151.2ZM170.69,149.04h9.143c-0.241-2.545-1.775-4.581-4.542-4.581C172.855,144.459,171.082,145.985,170.69,149.04Zm14.316-10.21a1.624,1.624,0,1,1,1.624,1.616A1.632,1.632,0,0,1,185.006,138.83Zm0.421,3.8h2.406v15.45h-2.406v-15.45Zm18.8,5v10.45h-2.406v-10.21c0-2.4-1.323-3.443-3.548-3.443-2.015,0-4.27,1.5-4.27,4.91v8.743h-2.407v-15.45h2.286v2.306a5.721,5.721,0,0,1,4.872-2.665C202.209,142.273,204.223,144.219,204.223,147.632ZM51.053,177.617v10.031c0,0.809.392,1.318,1.775,1.318h1.414v2.006q-0.993.088-1.714,0.089c-2.406,0-3.88-.838-3.88-3.2v-10.24H46.092v-2.095h2.556V171.15h2.405v4.372h3.189v2.095H51.053Zm19.308,11.408v1.947a9.321,9.321,0,0,1-1.323.089c-1.714,0-2.5-.748-2.617-2.215a5.7,5.7,0,0,1-5.053,2.485c-3.368,0-5.473-1.617-5.473-4.521,0-2.425,1.473-4.342,5.744-4.791l2.225-.24c1.563-.179,2.436-0.748,2.436-2.126,0-1.616-.842-2.425-3.488-2.425s-3.759.749-3.91,3.054H56.5c0.18-2.993,1.774-5.12,6.316-5.12,4.3,0,5.834,1.887,5.834,4.491v8.624a0.71,0.71,0,0,0,.842.748h0.872Zm-4.06-4.162v-1.825a4.027,4.027,0,0,1-2.045.658l-2.256.27c-2.826.329-3.609,1.287-3.609,2.784,0,1.527.962,2.545,3.1,2.545C63.806,189.3,66.3,187.918,66.3,184.863Zm20.029,4.162v1.947a9.319,9.319,0,0,1-1.323.089c-1.714,0-2.5-.748-2.617-2.215a5.7,5.7,0,0,1-5.053,2.485c-3.368,0-5.473-1.617-5.473-4.521,0-2.425,1.474-4.342,5.744-4.791l2.225-.24c1.563-.179,2.436-0.748,2.436-2.126,0-1.616-.842-2.425-3.488-2.425s-3.759.749-3.91,3.054H72.467c0.18-2.993,1.774-5.12,6.316-5.12,4.3,0,5.834,1.887,5.834,4.491v8.624a0.71,0.71,0,0,0,.842.748H86.33Zm-4.06-4.162v-1.825a4.026,4.026,0,0,1-2.045.658l-2.256.27c-2.826.329-3.609,1.287-3.609,2.784,0,1.527.962,2.545,3.1,2.545C79.775,189.3,82.27,187.918,82.27,184.863Zm18.106,4.013v2.1H87.835v-1.8l7.1-9.1c0.662-.839,1.323-1.677,2.015-2.515-1.113.059-2.2,0.059-3.308,0.059h-5.5v-2.095H99.955v1.8l-7.1,9.1c-0.662.838-1.323,1.676-2.015,2.514,1.113-.059,2.2-0.059,3.308-0.059h6.226Zm15.818,0.149v1.947a9.307,9.307,0,0,1-1.322.089c-1.715,0-2.5-.748-2.617-2.215a5.7,5.7,0,0,1-5.053,2.485c-3.367,0-5.472-1.617-5.472-4.521,0-2.425,1.473-4.342,5.743-4.791l2.226-.24c1.563-.179,2.435-0.748,2.435-2.126,0-1.616-.842-2.425-3.488-2.425s-3.759.749-3.91,3.054h-2.405c0.18-2.993,1.774-5.12,6.315-5.12,4.3,0,5.834,1.887,5.834,4.491v8.624a0.71,0.71,0,0,0,.842.748h0.872Zm-4.06-4.162v-1.825a4.023,4.023,0,0,1-2.045.658l-2.255.27c-2.827.329-3.609,1.287-3.609,2.784,0,1.527.963,2.545,3.1,2.545C109.639,189.3,112.134,187.918,112.134,184.863Zm26.256-15.21v21.319H136.1v-2.4a6.106,6.106,0,0,1-5.323,2.755c-4.361,0-7.218-3.144-7.218-8.084s2.857-8.085,7.218-8.085a6.106,6.106,0,0,1,5.2,2.575v-8.084h2.406Zm-2.316,13.594c0-3.743-1.985-5.929-4.992-5.929s-4.992,2.306-4.992,6.048,1.984,5.809,4.992,5.809S136.074,186.989,136.074,183.247Zm19.609,0.838H143.894c0.241,3.473,2.074,5.06,4.781,5.06a3.985,3.985,0,0,0,4.121-2.874h2.5a6.468,6.468,0,0,1-6.675,5.06c-4.241,0-7.219-3.084-7.219-8.084,0-4.851,2.857-8.085,7.158-8.085,4.632,0,7.128,3.653,7.128,8.085v0.838Zm-11.729-2.156H153.1c-0.24-2.545-1.775-4.581-4.541-4.581C146.119,177.348,144.345,178.876,143.954,181.929Zm28.149,7.1v1.947a9.331,9.331,0,0,1-1.323.089c-1.714,0-2.5-.748-2.617-2.215a5.7,5.7,0,0,1-5.052,2.485c-3.368,0-5.473-1.617-5.473-4.521,0-2.425,1.473-4.342,5.744-4.791l2.225-.24c1.563-.179,2.436-0.748,2.436-2.126,0-1.616-.842-2.425-3.488-2.425s-3.76.749-3.911,3.054h-2.405c0.18-2.993,1.774-5.12,6.316-5.12,4.3,0,5.833,1.887,5.833,4.491v8.624a0.71,0.71,0,0,0,.842.748H172.1Zm-4.06-4.162v-1.825A4.03,4.03,0,0,1,166,183.7l-2.256.27c-2.826.329-3.609,1.287-3.609,2.784,0,1.527.963,2.545,3.1,2.545C165.547,189.3,168.043,187.918,168.043,184.863Zm6.165,2.994v-18.2h2.407v18a1.2,1.2,0,0,0,1.473,1.318h1.143v2.006c-0.571.059-1.113,0.089-1.534,0.089C175.532,191.061,174.208,190.223,174.208,187.857Zm6.167-1.8h2.436c0.27,2.336,1.413,3.2,4.15,3.2,2.616,0,3.729-.868,3.729-2.395,0-1.378-.842-2.007-3.549-2.516l-1.443-.269c-3.369-.628-4.842-2.156-4.842-4.551,0-2.635,2.105-4.372,5.653-4.372,4.15,0,6.256,1.827,6.316,5.12h-2.406c-0.12-2.4-1.534-3.054-3.91-3.054-2.074,0-3.247.839-3.247,2.276,0,1.467,1.143,2.006,3.127,2.4l1.383,0.27c3.82,0.749,5.353,2.036,5.353,4.551,0,2.934-2.345,4.611-6.164,4.611C183.021,191.331,180.615,189.684,180.375,186.061ZM52.618,215.568l-2.767,2.575v5.719H47.445V202.543h2.406v12.785l7.187-6.916h3.189l-5.895,5.569,6.316,9.881h-2.8Zm22.616,1.408H63.444c0.241,3.473,2.075,5.059,4.782,5.059a3.984,3.984,0,0,0,4.12-2.874h2.5a6.467,6.467,0,0,1-6.676,5.06c-4.241,0-7.218-3.083-7.218-8.084,0-4.851,2.857-8.085,7.157-8.085,4.632,0,7.128,3.653,7.128,8.085v0.839ZM63.5,214.82h9.143c-0.241-2.545-1.775-4.581-4.541-4.581C65.67,210.239,63.9,211.766,63.5,214.82Zm19.489,4.131h2.436c0.27,2.336,1.414,3.2,4.15,3.2,2.616,0,3.729-.868,3.729-2.4,0-1.378-.842-2.007-3.549-2.515l-1.443-.269c-3.369-.629-4.842-2.156-4.842-4.552,0-2.635,2.105-4.372,5.654-4.372,4.15,0,6.256,1.827,6.315,5.12H93.037c-0.12-2.394-1.534-3.053-3.91-3.053-2.075,0-3.247.838-3.247,2.276,0,1.466,1.142,2,3.127,2.394l1.383,0.27c3.82,0.749,5.353,2.037,5.353,4.551,0,2.934-2.346,4.611-6.165,4.611C85.639,224.221,83.233,222.574,82.993,218.951Zm29.322,2.964v1.947a9.326,9.326,0,0,1-1.323.09c-1.714,0-2.5-.749-2.617-2.216a5.7,5.7,0,0,1-5.053,2.485c-3.367,0-5.472-1.617-5.472-4.521,0-2.425,1.473-4.341,5.744-4.791l2.225-.24c1.563-.179,2.436-0.748,2.436-2.125,0-1.616-.842-2.425-3.488-2.425s-3.76.748-3.911,3.053h-2.4c0.18-2.993,1.774-5.12,6.316-5.12,4.3,0,5.833,1.887,5.833,4.492v8.623a0.71,0.71,0,0,0,.842.748h0.873Zm-4.06-4.162v-1.825a4.03,4.03,0,0,1-2.045.658l-2.256.27c-2.826.329-3.609,1.287-3.609,2.784,0,1.527.963,2.545,3.1,2.545C105.759,222.185,108.255,220.808,108.255,217.753Zm20.029,4.162v1.947a9.316,9.316,0,0,1-1.323.09c-1.714,0-2.5-.749-2.617-2.216a5.7,5.7,0,0,1-5.052,2.485c-3.368,0-5.473-1.617-5.473-4.521,0-2.425,1.474-4.341,5.744-4.791l2.225-.24c1.564-.179,2.436-0.748,2.436-2.125,0-1.616-.842-2.425-3.488-2.425s-3.759.748-3.91,3.053H114.42c0.18-2.993,1.774-5.12,6.316-5.12,4.3,0,5.834,1.887,5.834,4.492v8.623a0.71,0.71,0,0,0,.842.748h0.872Zm-4.06-4.162v-1.825a4.026,4.026,0,0,1-2.045.658l-2.256.27c-2.826.329-3.608,1.287-3.608,2.784,0,1.527.962,2.545,3.1,2.545C121.729,222.185,124.224,220.808,124.224,217.753Zm9.324-7.245v10.03c0,0.809.392,1.318,1.775,1.318h1.413v2.006q-0.992.088-1.714,0.09c-2.406,0-3.879-.839-3.879-3.2v-10.24h-2.557v-2.1h2.557V204.04h2.405v4.372h3.188v2.1h-3.188Zm18.525,2.9v10.45h-2.405v-10.21c0-2.4-1.324-3.444-3.549-3.444-2.015,0-4.27,1.5-4.27,4.911v8.743h-2.407V202.543h2.407v8a5.723,5.723,0,0,1,4.751-2.486C150.059,208.052,152.073,210,152.073,213.412Zm8.872,2.725c0-4.94,3.158-8.085,7.519-8.085s7.518,3.145,7.518,8.085-3.158,8.084-7.518,8.084S160.945,221.077,160.945,216.137Zm12.51,0c0-3.742-1.984-5.929-4.991-5.929s-4.992,2.187-4.992,5.929,1.984,5.929,4.992,5.929S173.455,219.879,173.455,216.137Zm18.166-2.725v10.45h-2.406v-10.21c0-2.4-1.323-3.444-3.549-3.444-2.014,0-4.27,1.5-4.27,4.911v8.743H178.99v-15.45h2.286v2.305a5.723,5.723,0,0,1,4.871-2.665C189.606,208.052,191.621,210,191.621,213.412ZM62.271,249.028c0,4.939-2.857,8.084-7.217,8.084a6.105,6.105,0,0,1-5.2-2.575v8.084H47.445V241.3h2.286v2.4a6.107,6.107,0,0,1,5.323-2.755C59.414,240.943,62.271,244.087,62.271,249.028Zm-2.526-.12c0-3.743-1.985-5.81-4.992-5.81s-4.993,2.187-4.993,5.93,1.985,5.928,4.993,5.928S59.745,252.651,59.745,248.908ZM77.91,246.3v10.45H75.5v-10.21c0-2.4-1.323-3.444-3.548-3.444-2.015,0-4.27,1.5-4.27,4.911v8.743H65.279V235.433h2.406v8a5.723,5.723,0,0,1,4.751-2.485C75.9,240.943,77.91,242.889,77.91,246.3Zm3.007,2.726c0-4.941,3.158-8.085,7.519-8.085s7.519,3.144,7.519,8.085-3.158,8.084-7.519,8.084S80.917,253.967,80.917,249.028Zm12.511,0c0-3.743-1.984-5.93-4.992-5.93s-4.992,2.187-4.992,5.93,1.984,5.928,4.992,5.928S93.428,252.769,93.428,249.028Zm18.165-2.726v10.45h-2.406v-10.21c0-2.4-1.323-3.444-3.548-3.444-2.015,0-4.271,1.5-4.271,4.911v8.743H98.962V241.3h2.286v2.305a5.723,5.723,0,0,1,4.872-2.664C109.578,240.943,111.593,242.889,111.593,246.3Zm17.294,3.564H117.1c0.241,3.473,2.074,5.059,4.781,5.059A3.985,3.985,0,0,0,126,252.051h2.5a6.468,6.468,0,0,1-6.675,5.061c-4.241,0-7.219-3.084-7.219-8.084,0-4.851,2.857-8.085,7.158-8.085,4.632,0,7.128,3.653,7.128,8.085v0.838Zm-11.729-2.156H126.3c-0.24-2.545-1.775-4.581-4.541-4.581C119.323,243.129,117.549,244.656,117.158,247.71Zm13.474,4.132h2.435c0.27,2.335,1.414,3.2,4.15,3.2,2.616,0,3.729-.868,3.729-2.394,0-1.379-.842-2.007-3.549-2.516l-1.443-.269c-3.368-.629-4.842-2.156-4.842-4.552,0-2.635,2.105-4.371,5.654-4.371,4.15,0,6.256,1.826,6.315,5.12h-2.405c-0.12-2.395-1.534-3.054-3.91-3.054-2.075,0-3.247.838-3.247,2.276,0,1.467,1.142,2.006,3.126,2.4l1.384,0.27c3.82,0.748,5.353,2.036,5.353,4.55,0,2.934-2.346,4.612-6.165,4.612C133.278,257.112,130.871,255.465,130.632,251.842Zm18.374,4.461c0,2.845-1.412,4.162-3.368,4.551l-0.3.06v-1.587l0.21-.06c0.932-.269,1.533-0.838,1.654-2.336h-0.18a1.562,1.562,0,0,1-1.684-1.556,1.61,1.61,0,0,1,1.684-1.617C148.254,253.758,149.006,254.656,149.006,256.3Zm23.1-20.87v21.319h-2.285v-2.4a6.108,6.108,0,0,1-5.323,2.756c-4.362,0-7.218-3.145-7.218-8.084s2.856-8.085,7.218-8.085a6.1,6.1,0,0,1,5.2,2.575v-8.085H172.1Zm-2.316,13.6c0-3.743-1.984-5.93-4.992-5.93s-4.991,2.307-4.991,6.049,1.984,5.809,4.991,5.809S169.787,252.769,169.787,249.028Zm19.639,5.778v1.946a9.171,9.171,0,0,1-1.323.09c-1.714,0-2.5-.749-2.617-2.216a5.7,5.7,0,0,1-5.052,2.486c-3.368,0-5.473-1.617-5.473-4.522,0-2.425,1.474-4.341,5.744-4.791l2.225-.239c1.564-.18,2.436-0.749,2.436-2.126,0-1.616-.842-2.425-3.488-2.425s-3.76.748-3.91,3.054h-2.406c0.18-2.994,1.774-5.12,6.316-5.12,4.3,0,5.834,1.887,5.834,4.491v8.623a0.71,0.71,0,0,0,.842.749h0.872Zm-4.06-4.162v-1.826a4.02,4.02,0,0,1-2.045.658l-2.256.27c-2.826.329-3.608,1.288-3.608,2.785,0,1.526.962,2.545,3.1,2.545C182.87,255.076,185.366,253.7,185.366,250.644Zm9.323-7.246v10.03c0,0.809.391,1.318,1.775,1.318h1.413v2.006q-0.992.09-1.714,0.09c-2.406,0-3.879-.838-3.879-3.2V243.4h-2.557v-2.1h2.557v-4.371h2.405V241.3h3.188v2.1h-3.188ZM214,254.806v1.946a9.181,9.181,0,0,1-1.323.09c-1.714,0-2.5-.749-2.617-2.216A5.7,5.7,0,0,1,205,257.112c-3.367,0-5.472-1.617-5.472-4.522,0-2.425,1.473-4.341,5.744-4.791l2.225-.239c1.563-.18,2.436-0.749,2.436-2.126,0-1.616-.842-2.425-3.488-2.425s-3.76.748-3.911,3.054h-2.405c0.18-2.994,1.774-5.12,6.316-5.12,4.3,0,5.833,1.887,5.833,4.491v8.623a0.711,0.711,0,0,0,.842.749H214Zm-4.06-4.162v-1.826a4.02,4.02,0,0,1-2.045.658l-2.256.27c-2.826.329-3.609,1.288-3.609,2.785,0,1.526.963,2.545,3.1,2.545C207.441,255.076,209.937,253.7,209.937,250.644ZM61.008,287.7v1.946a9.17,9.17,0,0,1-1.323.09c-1.714,0-2.5-.749-2.617-2.216A5.7,5.7,0,0,1,52.016,290c-3.368,0-5.473-1.617-5.473-4.522,0-2.425,1.473-4.341,5.744-4.79l2.225-.24c1.563-.179,2.436-0.749,2.436-2.126,0-1.616-.842-2.425-3.488-2.425s-3.759.749-3.91,3.054H47.144c0.18-2.994,1.774-5.12,6.316-5.12,4.3,0,5.834,1.887,5.834,4.491v8.623a0.71,0.71,0,0,0,.842.749h0.872Zm-4.06-4.162v-1.826a4.017,4.017,0,0,1-2.045.658l-2.256.27c-2.826.33-3.608,1.288-3.608,2.785,0,1.526.962,2.545,3.1,2.545C54.452,287.966,56.948,286.589,56.948,283.534ZM75.9,279.193v10.449H73.489v-10.21c0-2.4-1.323-3.443-3.548-3.443-2.015,0-4.27,1.5-4.27,4.91v8.743H63.264v-15.45H65.55V276.5a5.723,5.723,0,0,1,4.871-2.664C73.88,273.833,75.9,275.779,75.9,279.193Zm17.833-10.869v21.318H91.443v-2.4A6.105,6.105,0,0,1,86.121,290c-4.361,0-7.218-3.144-7.218-8.084s2.857-8.085,7.218-8.085a6.105,6.105,0,0,1,5.2,2.575v-8.084h2.405Zm-2.315,13.594c0-3.743-1.984-5.929-4.992-5.929s-4.992,2.306-4.992,6.048,1.984,5.809,4.992,5.809S91.413,285.66,91.413,281.918Zm15.548-5.63v10.031c0,0.809.392,1.317,1.775,1.317h1.414v2.006q-0.993.09-1.714,0.09c-2.407,0-3.88-.838-3.88-3.2v-10.24H102v-2.1h2.556v-4.371h2.405v4.371h3.189v2.1h-3.189Zm19.128,6.468H114.3c0.241,3.473,2.074,5.06,4.781,5.06a3.985,3.985,0,0,0,4.121-2.875h2.5A6.467,6.467,0,0,1,119.022,290c-4.241,0-7.218-3.084-7.218-8.084,0-4.851,2.856-8.085,7.157-8.085,4.632,0,7.128,3.653,7.128,8.085v0.838ZM114.36,280.6H123.5c-0.24-2.545-1.774-4.581-4.541-4.581C116.525,276.019,114.751,277.546,114.36,280.6Zm13.985,1.318c0-4.971,2.887-8.085,7.187-8.085,3.7,0,6.195,2.186,6.676,5.6h-2.5a4.037,4.037,0,0,0-4.181-3.443c-2.646,0-4.661,1.887-4.661,5.929s2.075,5.928,4.661,5.928a4.072,4.072,0,0,0,4.211-3.5h2.465A6.392,6.392,0,0,1,135.532,290C131.292,290,128.345,286.888,128.345,281.918Zm29.2-2.725v10.449h-2.406v-10.21c0-2.4-1.323-3.443-3.548-3.443-2.015,0-4.271,1.5-4.271,4.91v8.743h-2.406V268.324h2.406v7.994a5.724,5.724,0,0,1,4.751-2.485C155.532,273.833,157.547,275.779,157.547,279.193Zm3.309,8.893a1.761,1.761,0,0,1,3.518,0A1.759,1.759,0,1,1,160.856,288.086Z"/>
  <path id="Learn_more" data-name="Learn more" class="cls-2" d="M62.263,548.654h-3.53v-6.308H57.786V549.5h4.478v-0.85Zm5.089-3.352a2.13,2.13,0,0,0-.891-0.847,2.518,2.518,0,0,0-1.091-.249,2.21,2.21,0,0,0-1.794.762,2.993,2.993,0,0,0-.637,1.987,2.782,2.782,0,0,0,.657,1.956,2.351,2.351,0,0,0,1.824.715,2.39,2.39,0,0,0,1.465-.435,2.2,2.2,0,0,0,.806-1.245l-0.9-.112a1.649,1.649,0,0,1-.523.8,1.33,1.33,0,0,1-.845.266,1.451,1.451,0,0,1-1.091-.454,2.008,2.008,0,0,1-.491-1.313h3.882A3.6,3.6,0,0,0,67.352,545.3Zm-3.467,1.111a1.735,1.735,0,0,1,.464-1.074,1.355,1.355,0,0,1,1.02-.415,1.5,1.5,0,0,1,.955.349,1.515,1.515,0,0,1,.491,1.14h-2.93Zm9.179,2.371q-0.042-.369-0.041-1.448v-1.182a4.169,4.169,0,0,0-.1-1.006,1.133,1.133,0,0,0-.537-0.666,2.634,2.634,0,0,0-1.37-.276,2.83,2.83,0,0,0-1.611.4,1.747,1.747,0,0,0-.728,1.2l0.859,0.112a1.159,1.159,0,0,1,.452-0.781,1.655,1.655,0,0,1,.9-0.21,1.93,1.93,0,0,1,.708.107,0.806,0.806,0,0,1,.527.623,4.359,4.359,0,0,1,.024.559,4.234,4.234,0,0,1-.757.181l-0.82.122a2.885,2.885,0,0,0-1.584.554A1.47,1.47,0,0,0,69,549.216a1.912,1.912,0,0,0,1.294.41,2.871,2.871,0,0,0,1.909-.762,1.975,1.975,0,0,0,.181.64h0.923A1.864,1.864,0,0,1,73.064,548.784Zm-1.416-.24a1.8,1.8,0,0,1-1.145.389,1.149,1.149,0,0,1-.771-0.232,0.745,0.745,0,0,1-.269-0.589,0.91,0.91,0,0,1,1-.842,9.31,9.31,0,0,0,1.685-.364v0.318A1.58,1.58,0,0,1,71.648,548.544Zm4.617-4.338a1.264,1.264,0,0,0-1.1.9H75.147v-0.782h-0.8V549.5h0.879v-2.72a2.506,2.506,0,0,1,.254-1.238,0.813,0.813,0,0,1,.747-0.441,1.267,1.267,0,0,1,.64.19l0.3-.811a1.723,1.723,0,0,0-.9-0.278h0Zm5.837,2.109a5.41,5.41,0,0,0-.059-0.9,1.414,1.414,0,0,0-.286-0.625,1.359,1.359,0,0,0-.627-0.439,2.336,2.336,0,0,0-.811-0.147,2.023,2.023,0,0,0-.945.212,1.827,1.827,0,0,0-.686.638H78.669v-0.733H77.878V549.5h0.879v-2.832a2.611,2.611,0,0,1,.147-0.982,1.079,1.079,0,0,1,.5-0.537,1.521,1.521,0,0,1,.74-0.19,1.046,1.046,0,0,1,.794.3,1.589,1.589,0,0,1,.286,1.094V549.5H82.1v-3.189Zm10.572-.371a1.856,1.856,0,0,0-.4-1.3,1.568,1.568,0,0,0-1.209-.435,1.8,1.8,0,0,0-1.6.908,1.294,1.294,0,0,0-.535-0.681,1.771,1.771,0,0,0-.94-0.227,1.714,1.714,0,0,0-1.548.84h-0.02v-0.723H85.633V549.5h0.879v-2.69a2.179,2.179,0,0,1,.364-1.46,1.213,1.213,0,0,1,.93-0.391,0.882,0.882,0,0,1,.671.249,1.355,1.355,0,0,1,.237.923V549.5h0.879V546.5a1.569,1.569,0,0,1,.376-1.172,1.245,1.245,0,0,1,.894-0.361,0.876,0.876,0,0,1,.632.2,0.848,0.848,0,0,1,.251.454,3.359,3.359,0,0,1,.049.617V549.5h0.879v-3.56Zm1.719-1.067a2.709,2.709,0,0,0-.7,2.039,2.642,2.642,0,0,0,.723,2.061,2.465,2.465,0,0,0,1.7.649,2.541,2.541,0,0,0,1.685-.632,2.7,2.7,0,0,0,.747-2.161,2.61,2.61,0,0,0-.691-1.943,2.373,2.373,0,0,0-1.741-.684A2.4,2.4,0,0,0,94.394,544.877Zm0.637,3.526a2.2,2.2,0,0,1-.437-1.487,2.239,2.239,0,0,1,.43-1.492,1.385,1.385,0,0,1,1.1-.5,1.407,1.407,0,0,1,1.091.493,2.133,2.133,0,0,1,.442,1.465,2.5,2.5,0,0,1-.391,1.465,1.307,1.307,0,0,1-1.143.556A1.388,1.388,0,0,1,95.031,548.4Zm6.477-4.2a1.264,1.264,0,0,0-1.1.9H100.39v-0.782h-0.8V549.5h0.879v-2.72a2.5,2.5,0,0,1,.254-1.238,0.812,0.812,0,0,1,.747-0.441,1.271,1.271,0,0,1,.64.19l0.3-.811a1.721,1.721,0,0,0-.9-0.278h0Zm5.576,1.1a2.129,2.129,0,0,0-.891-0.847,2.518,2.518,0,0,0-1.091-.249,2.21,2.21,0,0,0-1.8.762,2.992,2.992,0,0,0-.637,1.987,2.781,2.781,0,0,0,.657,1.956,2.351,2.351,0,0,0,1.824.715,2.388,2.388,0,0,0,1.464-.435,2.2,2.2,0,0,0,.806-1.245l-0.9-.112a1.651,1.651,0,0,1-.523.8,1.328,1.328,0,0,1-.844.266,1.451,1.451,0,0,1-1.092-.454,2.011,2.011,0,0,1-.491-1.313h3.882A3.6,3.6,0,0,0,107.084,545.3Zm-3.467,1.111a1.739,1.739,0,0,1,.464-1.074,1.356,1.356,0,0,1,1.021-.415,1.493,1.493,0,0,1,.954.349,1.513,1.513,0,0,1,.491,1.14h-2.93Z"/>
</svg>
