<svg id="HING" xmlns="http://www.w3.org/2000/svg" width="300" height="600" viewBox="0 0 300 600">
  <defs>
    <style>
      .cls-1 {
        fill: #4c286c;
        fill-rule: evenodd;
      }
    </style>
  </defs>
  <path class="cls-1" d="M47,202.168H60.328c0.3,3.9,2.748,4.845,6.513,4.845,3.884,0,5.557-.946,5.557-2.9,0-1.832-1.434-2.777-6.035-3.427l-5.138-.709c-7.708-1.064-13.2-5.2-13.2-13.235,0-6.617,3.525-13.766,18.1-13.766,11.113,0,17.925,4.136,18.7,13.884H72.337c-0.3-2.54-1.673-4.017-5.736-4.017-3.7,0-5.138,1.064-5.138,2.718s1.434,2.481,4,2.836l5.139,0.709c10.636,1.477,15.416,5.494,15.416,13C86.02,211.149,79.388,217,66.6,217,53.576,217,47.421,210.971,47,202.168Zm63.989,13.825a9.107,9.107,0,0,1-.9-3.545c-1.673,2.836-5.019,4.549-9.918,4.549-6.513,0-11.353-2.954-11.353-9.394,0-5.317,3.286-8.626,11.771-9.453l5.616-.531c2.51-.237,3.7-0.709,3.7-2.305s-1.195-2.245-3.466-2.245c-2.389,0-3.525.709-3.7,3.014H90.318c0.3-7.445,4.9-11.285,16.312-11.285,11.113,0,15.714,3.545,15.714,9.748v16.6a10.691,10.691,0,0,0,1.135,4.844H110.992Zm-1.076-11.639v-2.009a3.5,3.5,0,0,1-2.689,1.241l-2.868.354c-1.972.237-2.928,1.064-2.928,2.659,0,1.832,1.255,2.718,3.645,2.718C108.243,209.317,109.916,207.662,109.916,204.354Zm17.084,2.3V173.927h12.428v30.25c0,2.54.957,2.718,2.63,2.718h1.673v9.1a40.965,40.965,0,0,1-4.84.3C130.406,216.289,127,213.452,127,206.658Zm52.758-2.836H157.292c0.179,2.777,2.032,4.668,5.915,4.668,2.091,0,3.585-.532,4.421-1.655H179.22c-1.852,6.381-8.066,9.867-16.252,9.867-10.755,0-17.328-5.967-17.328-15.834,0-9.63,6.573-16.07,17.269-16.07,10.1,0,17.088,5.731,17.088,15.6A28.9,28.9,0,0,1,179.758,203.822Zm-22.287-6.381h10.575c-0.3-3.013-2.09-4.49-5.317-4.49C159.622,192.951,157.949,194.369,157.471,197.441Z"/>
</svg>
