<svg id="HING" xmlns="http://www.w3.org/2000/svg" width="300" height="600" viewBox="0 0 300 600">
  <defs>
    <style>
      .cls-1 {
        fill: #4c286c;
        fill-rule: evenodd;
      }
    </style>
  </defs>
  <path class="cls-1" d="M49,256.99c0-4.9,3.338-7.991,8.119-7.991s8.119,3.094,8.119,7.991c0,4.918-3.338,8.011-8.119,8.011C52.317,265,49,261.908,49,256.99Zm11.2,0c0-2.728-1.271-3.867-3.08-3.867s-3.079,1.139-3.079,3.867c0,2.749,1.271,3.887,3.079,3.887S60.2,259.739,60.2,256.99ZM81,249.343v15.293H75.937L72.707,259.2c-0.538-.9-1.012-1.718-1.443-2.556,0.065,1.8.086,3.544,0.086,5.5v2.492H66.612V249.343h5.061l3.165,5.434c0.474,0.816.991,1.847,1.486,2.878-0.064-1.911-.064-3.737-0.064-5.821v-2.491H81Z"/>
</svg>
