<svg id="Frame_3" data-name="Frame 3" xmlns="http://www.w3.org/2000/svg" width="728" height="90" viewBox="0 0 728 90">
  <defs>
    <style>
      .cls-1 {
        fill: #fff;
        fill-rule: evenodd;
      }
    </style>
  </defs>
  <path id="cta" class="cls-1" d="M666.7,54.772h-0.648a2.061,2.061,0,0,0-2.009-2.326c-0.537-.081-1.1-0.162-1.1-1.447h-0.9a2.026,2.026,0,0,0,1.984,2.325,1.26,1.26,0,0,1,1.127,1.448H659v0.865h6.13v4.421c0,1.15-.442,1.933-1.5,1.933a2.517,2.517,0,0,1-2.4-2.2c0-.662.413-1.068,1.542-1.068h0.441V57.854h-0.441c-1.791,0-2.507.866-2.507,1.974a3.386,3.386,0,0,0,3.278,3.015c1.735,0,2.52-1.149,2.52-2.771V55.637h6.666v2.258h-2.356c-1.792,0-2.507.865-2.507,1.96a3.37,3.37,0,0,0,3.346,3.029c1.64,0,2.452-1.149,2.452-2.771V55.637h1.93V54.772h-8.9Zm6.035,5.326c0,1.15-.441,1.934-1.461,1.934a2.516,2.516,0,0,1-2.439-2.2c0-.663.414-1.069,1.544-1.069h2.356V60.1Zm21.637-7.652c-0.536-.081-1.1-0.162-1.1-1.447h-0.9a2.026,2.026,0,0,0,1.983,2.325,1.26,1.26,0,0,1,1.128,1.448H677.561v0.865h6.654v2.974h-3.307a5.661,5.661,0,0,0-.358-1.284l-1.4.419a2.579,2.579,0,0,1,.895,1.73,12.075,12.075,0,0,1-.537,3.394h0.936a13,13,0,0,0,.51-3.394h3.266V62.87h0.923V55.637h2.6v4.015h0.923V55.637h3.152a2.8,2.8,0,0,0,2.687,2.731l-0.083.865a2.956,2.956,0,0,0-1.17-.228,2.445,2.445,0,0,0-2.412,1.459,3.717,3.717,0,0,0,3.706,2.543,4.155,4.155,0,0,0,3.072-1.137V60.922a4,4,0,0,1-2.92,1.218,2.994,2.994,0,0,1-2.893-1.677,1.713,1.713,0,0,1,1.405-.608,3.279,3.279,0,0,1,1.969.7l0.014-.122,0.165-2.028a5,5,0,0,0,1.654-.284v-0.81a5.313,5.313,0,0,1-1.833.228,2.159,2.159,0,0,1-2.437-1.906h6.254V54.772h-2.609a2.061,2.061,0,0,0-2.01-2.326"/>
</svg>
