<svg id="Frame_3" data-name="Frame 3" xmlns="http://www.w3.org/2000/svg" width="728" height="90" viewBox="0 0 728 90">
  <defs>
    <style>
      .cls-1 {
        fill: #fff;
        fill-rule: evenodd;
      }
    </style>
  </defs>
  <path id="ਹੋਰ_ਜਾਣੋ" data-name="ਹੋਰ ਜਾਣੋ" class="cls-1" d="M665,54.23h-8.761v0.861h6.035v4.4c0,1.143-.434,1.923-1.478,1.923a2.49,2.49,0,0,1-2.36-2.192c0-.659.407-1.062,1.519-1.062h0.434V57.3h-0.434c-1.763,0-2.468.861-2.468,1.963a3.347,3.347,0,0,0,3.228,3c1.708,0,2.481-1.143,2.481-2.757V55.091H665V54.23Zm-2.7.027h0.881a2.047,2.047,0,0,0-1.98-2.34c-0.529-.081-1.085-0.161-1.085-1.439H659.23a2.006,2.006,0,0,0,1.953,2.313A1.259,1.259,0,0,1,662.3,54.257Zm10.279-.027h-8.76v0.861h5.939v2.246h-2.319c-1.763,0-2.468.861-2.468,1.95a3.332,3.332,0,0,0,3.3,3.012c1.613,0,2.413-1.143,2.413-2.757V55.091h1.9V54.23Zm-4.258,7.222a2.486,2.486,0,0,1-2.4-2.192c0-.659.407-1.062,1.519-1.062h2.319v1.331C669.753,60.672,669.319,61.452,668.316,61.452ZM683.89,54.23h-9.384v0.861h6.55V58.05H677.8a5.743,5.743,0,0,0-.353-1.278l-1.383.417a2.577,2.577,0,0,1,.882,1.721,12.162,12.162,0,0,1-.529,3.376h0.922a13.163,13.163,0,0,0,.5-3.376h3.214v3.376h0.908V55.091h1.926V54.23Zm3.576,0h-5v0.861h2.062v3.994h0.908V55.091h2.034V54.23Zm8.135,0h-9.384v0.861h2.319a2.778,2.778,0,0,0,2.644,2.717l-0.081.861a2.876,2.876,0,0,0-1.153-.229,2.4,2.4,0,0,0-2.373,1.453,3.66,3.66,0,0,0,3.648,2.528,4.069,4.069,0,0,0,3.024-1.13V60.349a3.922,3.922,0,0,1-2.875,1.21,2.943,2.943,0,0,1-2.848-1.668,1.683,1.683,0,0,1,1.384-.605,3.214,3.214,0,0,1,1.939.7l0.014-.121,0.162-2.017a4.858,4.858,0,0,0,1.628-.282V56.759a5.149,5.149,0,0,1-1.8.229,2.133,2.133,0,0,1-2.4-1.9H695.6V54.23Zm-3.447.027h0.881a2.047,2.047,0,0,0-1.98-2.34c-0.529-.081-1.085-0.161-1.085-1.439h-0.881a2.005,2.005,0,0,0,1.952,2.313A1.26,1.26,0,0,1,692.154,54.257Z"/>
</svg>
