<svg id="Frame_3" data-name="Frame 3" xmlns="http://www.w3.org/2000/svg" width="728" height="90" viewBox="0 0 728 90">
  <defs>
    <style>
      .cls-1 {
        fill: #58595b;
        fill-rule: evenodd;
      }
    </style>
  </defs>
  <path id="legal" class="cls-1" d="M658.612,77.295c-0.254.185-.509,0.36-0.772,0.534,0.01-.33.028-0.661,0.057-0.962h-0.773c0.03,0.321.047,0.642,0.057,0.962-0.263-.174-0.526-0.349-0.78-0.534l-0.386.69c0.282,0.138.563,0.274,0.838,0.43-0.275.156-.556,0.3-0.838,0.437l0.386,0.681c0.254-.185.517-0.36,0.78-0.526-0.01.321-.027,0.644-0.057,0.963H657.9c-0.029-.3-0.047-0.631-0.057-0.963,0.263,0.165.518,0.341,0.772,0.526L659,78.851c-0.282-.135-0.556-0.281-0.828-0.437,0.272-.146.546-0.292,0.828-0.43Zm4.17,5.379a0.5,0.5,0,0,0,0,1,0.5,0.5,0,0,0,0-1m12.8-4.572H659.771v0.74h1.055a3.783,3.783,0,0,1,.516,1.837,4.252,4.252,0,0,1-.978,2.229l0.912,0.417a11.214,11.214,0,0,0,.669-1.6h1.985V84h0.78V78.842h4.427v1.527h-1.544c-1.269,0-1.8.652-1.8,1.478a2.37,2.37,0,0,0,2.353,2.179,1.716,1.716,0,0,0,1.778-1.994v-3.19h4.511v0.641c0.018,1.061-.537,1.09-2.287,1.09v0.74c1.609,0,2.3-.021,2.3.748a1.253,1.253,0,0,1-1.459,1.119,3.358,3.358,0,0,1-1.807-.594v0.759a2.985,2.985,0,0,0,1.882.592,1.939,1.939,0,0,0,2.164-1.858,1.481,1.481,0,0,0-.526-1.186,1.587,1.587,0,0,0,.517-1.5V78.842h1.714v2.81H677.7v-2.81h1.347V78.1h-3.473Zm-11.648,2.87h-1.863a1.605,1.605,0,0,0,.01-0.224,4.868,4.868,0,0,0-.386-1.906h2.239v2.13Zm5.207,1.05a1.014,1.014,0,0,1-.941,1.265,1.632,1.632,0,0,1-1.562-1.459c0-.439.254-0.7,0.959-0.7h1.544v0.894Zm8.665-5.554a0.462,0.462,0,0,0-.452-0.477,0.457,0.457,0,0,0-.451.477,0.448,0.448,0,0,0,.451.467,0.453,0.453,0,0,0,.452-0.467m12.33,1.635h-9.32v0.74h2.061a3.31,3.31,0,0,0-.019.341,3.722,3.722,0,0,0,.16,1.079,2.043,2.043,0,0,0-1.251,1.887,1.784,1.784,0,0,0,1.853,1.809V83.229a1.07,1.07,0,0,1-1.072-1.08,1.376,1.376,0,0,1,.762-1.207,1.267,1.267,0,1,0,2.532-.01,1.373,1.373,0,0,1,.771,1.217,1.072,1.072,0,0,1-1.083,1.08v0.729a1.791,1.791,0,0,0,1.863-1.809,2.037,2.037,0,0,0-1.26-1.887,3.475,3.475,0,0,0,.169-1.069c0-.128-0.009-0.245-0.019-0.35h2.515v2.81h0.772v-2.81h4.094v1.525H692.6c-1.309,0-1.807.71-1.807,1.392a2.436,2.436,0,0,0,2.163,2.266c0.942,0,1.5-.72,1.5-1.984v-3.2h1.534v5.184h0.781V78.842h1.176V78.1h-7.81Zm-5.557,3.269a2.528,2.528,0,0,1-.948-2.151c0-.135.008-0.263,0.018-0.378h1.862c0.01,0.115.019,0.243,0.019,0.369a2.63,2.63,0,0,1-.951,2.161m9.085,0.641c0,0.273,0,1.245-.706,1.264a1.694,1.694,0,0,1-1.326-1.537,0.792,0.792,0,0,1,.97-0.622h1.062v0.894Zm-0.1,2.529V85.2a2.69,2.69,0,0,0,1.523.4,2.642,2.642,0,0,0,1.515-.4V84.542a2.975,2.975,0,0,1-1.552.36,2.687,2.687,0,0,1-1.486-.36m0,1.4V86.6a2.691,2.691,0,0,0,1.523.4,2.642,2.642,0,0,0,1.515-.4V85.943a2.975,2.975,0,0,1-1.552.36,2.687,2.687,0,0,1-1.486-.36m11.115-7.84h-5.321v0.739h4.207v3.142c0,0.779-.273,1.264-0.951,1.264a1.636,1.636,0,0,1-1.552-1.459c0-.438.255-0.7,0.959-0.7h0.3V80.33h-0.3c-1.269,0-1.795.651-1.795,1.488a2.372,2.372,0,0,0,2.332,2.169,1.717,1.717,0,0,0,1.8-1.994V78.841h3.023V79.98a2.008,2.008,0,0,0-1.778,2.072,1.8,1.8,0,0,0,1.712,1.848V83.15a1.134,1.134,0,0,1-.941-1.167,1.4,1.4,0,0,1,2.787,0,1.134,1.134,0,0,1-.942,1.167V83.9a1.811,1.811,0,0,0,1.712-1.848,2,2,0,0,0-1.768-2.072V78.841h2.6V78.1h-6.079Zm7.538,5.476H713V78.3h-0.781v5.282Z"/>
</svg>
