<svg id="Frame_3" data-name="Frame 3" xmlns="http://www.w3.org/2000/svg" width="728" height="90" viewBox="0 0 728 90">
  <defs>
    <style>
      .cls-1 {
        fill: #58595b;
        fill-rule: evenodd;
      }
    </style>
  </defs>
  <path id="_ਸ਼ਰਤਾਂ_ਲਾਗੂ_ਹਨ_" data-name="*ਸ਼ਰਤਾਂ ਲਾਗੂ ਹਨ।" class="cls-1" d="M658.39,77.971L658,77.3c-0.257.181-.514,0.352-0.78,0.523,0.01-.323.029-0.646,0.057-0.941H656.5q0.042,0.471.057,0.941c-0.267-.171-0.533-0.342-0.789-0.523l-0.39.675c0.285,0.133.57,0.266,0.846,0.418-0.276.152-.561,0.295-0.846,0.428l0.39,0.665c0.256-.181.522-0.352,0.789-0.513q-0.015.471-.057,0.941h0.779c-0.028-.295-0.047-0.618-0.057-0.941,0.266,0.162.523,0.333,0.78,0.513l0.389-.665c-0.285-.133-0.561-0.276-0.836-0.428C657.829,78.247,658.105,78.1,658.39,77.971Zm6.917,0.114h-6.141v0.722h1.065a3.591,3.591,0,0,1,.523,1.8,4.084,4.084,0,0,1-.989,2.177l0.922,0.409a10.756,10.756,0,0,0,.675-1.569h2.006v2.224h0.789V78.807h1.15V78.085Zm-1.939.722v2.082h-1.882a1.7,1.7,0,0,0,.009-0.219,4.618,4.618,0,0,0-.389-1.863h2.262Zm-1.16,3.746a0.49,0.49,0,1,0,0,.979A0.49,0.49,0,1,0,662.208,82.553Zm8.429-4.468H664.5v0.722h4.125V80.3h-1.559c-1.283,0-1.815.637-1.815,1.445a2.363,2.363,0,0,0,2.376,2.129,1.7,1.7,0,0,0,1.8-1.949V78.807h1.217V78.085Zm-2.966,5.067a1.626,1.626,0,0,1-1.578-1.426c0-.428.256-0.684,0.969-0.684h1.559v0.875A1,1,0,0,1,667.671,83.152Zm7.088-3.8V78.807h1.235V78.085h-6.141v0.722h4.117v0.627c0.019,1.036-.542,1.065-2.31,1.065v0.723c1.625,0,2.319-.019,2.319.732a1.256,1.256,0,0,1-1.473,1.093,3.463,3.463,0,0,1-1.826-.58v0.741a3.078,3.078,0,0,0,1.9.58,1.937,1.937,0,0,0,2.186-1.816,1.431,1.431,0,0,0-.532-1.16A1.528,1.528,0,0,0,674.759,79.349Zm3.865-1.264h-3.508v0.722h1.369v2.747h0.78V78.807h1.359V78.085ZM676.9,76.944a0.451,0.451,0,0,0,.456-0.456,0.459,0.459,0,0,0-.456-0.466,0.453,0.453,0,0,0-.457.466A0.445,0.445,0,0,0,676.9,76.944Zm10.95,1.141H680.4v0.722h2.082c-0.009.1-.019,0.209-0.019,0.333a3.534,3.534,0,0,0,.162,1.055,2,2,0,0,0-1.265,1.844,1.778,1.778,0,0,0,1.873,1.768V83.095a1.065,1.065,0,0,1-1.084-1.055,1.341,1.341,0,0,1,.77-1.179,1.279,1.279,0,1,0,2.558-.009,1.337,1.337,0,0,1,.779,1.188,1.066,1.066,0,0,1-1.093,1.055v0.713a1.785,1.785,0,0,0,1.882-1.768,1.993,1.993,0,0,0-1.274-1.844,3.3,3.3,0,0,0,.171-1.046c0-.124-0.009-0.238-0.019-0.342h1.93V78.085Zm-2.69,1.084a2.538,2.538,0,0,1-.96,2.11,2.43,2.43,0,0,1-.96-2.1c0-.133.009-0.257,0.019-0.371h1.882C685.151,78.921,685.161,79.045,685.161,79.169Zm5.433-1.084h-3.508v0.722h1.369v2.747h0.78V78.807h1.359V78.085Zm7.1,0H689.8v0.722h3.565V80.3h-1.074c-1.322,0-1.825.694-1.825,1.359a2.416,2.416,0,0,0,2.186,2.215c0.951,0,1.511-.7,1.511-1.939V78.807h1.55v5.067h0.789V78.807h1.188V78.085Zm-5.038,5.057a1.675,1.675,0,0,1-1.34-1.5,0.8,0.8,0,0,1,.979-0.608h1.074v0.875C693.368,82.173,693.368,83.123,692.655,83.142Zm2.106,1.587a2.79,2.79,0,0,1-1.5-.352v0.646a2.791,2.791,0,0,0,1.54.39,2.736,2.736,0,0,0,1.53-.39V84.378A3.088,3.088,0,0,1,694.761,84.73Zm0,1.369a2.79,2.79,0,0,1-1.5-.352v0.646a2.791,2.791,0,0,0,1.54.39,2.736,2.736,0,0,0,1.53-.39V85.747A3.088,3.088,0,0,1,694.761,86.1Zm10.493-8.014h-6.141v0.722h4.249v3.07a1,1,0,0,1-.96,1.236,1.632,1.632,0,0,1-1.568-1.426c0-.428.256-0.684,0.969-0.684h0.3V80.262h-0.3c-1.283,0-1.815.637-1.815,1.454a2.365,2.365,0,0,0,2.357,2.12,1.7,1.7,0,0,0,1.816-1.949v-3.08h1.093V78.085Zm5.367,0.722V78.085H704.48v0.722h2.729V79.92a1.984,1.984,0,0,0-1.8,2.025,1.79,1.79,0,0,0,1.73,1.806V83.019a1.118,1.118,0,0,1-.951-1.141,1.415,1.415,0,0,1,2.814,0,1.117,1.117,0,0,1-.95,1.141v0.732a1.8,1.8,0,0,0,1.73-1.806A1.976,1.976,0,0,0,708,79.92V78.807h2.623Zm2.259-.532h-0.789v5.162h0.789V78.275Z"/>
</svg>
