<svg xmlns="http://www.w3.org/2000/svg" width="728" height="90" viewBox="0 0 728 90">
  <defs>
    <style>
      .cls-1 {
        fill: #fff;
        fill-rule: evenodd;
      }
    </style>
  </defs>
  <path class="cls-1" d="M263.233,21.01h-5a5.888,5.888,0,0,0-6.685-5.811l0.392,1.617a4.083,4.083,0,0,1,4.648,4.195H242.424v11.5a7.45,7.45,0,0,1-2.508.379c-2.4,0-4.025-.632-4.7-2.3a10.809,10.809,0,0,0,1.411-5.356,7.4,7.4,0,0,0-1.2-4.22H220.6v6.47h-2.509a4.859,4.859,0,0,0-1.829-3.715c-2.038-.354-3.815,1.086-4.757,2.324,0.263-1.542.027-4.069-1.7-5.079h-4.809v1.617h3.973c1.386,1.491,1.306,4.018-.576,8.01l1.725,0.784c2.221-4.347,3.738-5.887,5.306-6.039,1.542,1.592,1.359,3.235-1.333,8.162l1.8,0.783a19.627,19.627,0,0,0,2.037-5.231H220.6v7.05h1.752V22.626h4.94v7.505h1.75V22.626h5.391a7.6,7.6,0,0,1,.522,2.931,10.421,10.421,0,0,1-1.594,5.028c0.628,2.679,3.189,3.969,5.958,3.969a8.205,8.205,0,0,0,3.11-.556v2.148h1.752V22.626h5.44c0.026,2.4,1.672,4.624,5.1,5.1l-0.157,1.618a5.667,5.667,0,0,0-2.222-.43,4.646,4.646,0,0,0-4.574,2.73,7.047,7.047,0,0,0,7.031,4.751c2.665,0,4.965-1.036,5.828-2.123V32.507a7.651,7.651,0,0,1-5.54,2.273,5.693,5.693,0,0,1-5.49-3.133,3.276,3.276,0,0,1,2.667-1.137,6.3,6.3,0,0,1,3.738,1.313l0.025-.228,0.314-3.789a9.605,9.605,0,0,0,3.136-.531V25.76a10.148,10.148,0,0,1-3.475.429c-2.9,0-4.574-1.692-4.627-3.563h11.866V21.01Zm24.75,0H282.86V32.684a1.178,1.178,0,0,1-.575.127c-2.718,0-3.057-1.971-3.11-5.081,0.026-.353.026-0.708,0.026-1.061V24.319h-1.777v2.755c0,2.224-.235,5.686-2.431,5.686-0.967,0-1.725-.732-2.508-2.072a11.462,11.462,0,0,0,1.49-5.458,6.891,6.891,0,0,0-1.36-4.22h-4.7v1.617H271.7a6.672,6.672,0,0,1,.575,2.755,8.518,8.518,0,0,1-1.881,5.231c1.7,2.906,2.9,3.764,4.5,3.764a3.579,3.579,0,0,0,3.4-2.275,3.662,3.662,0,0,0,3.477,2.275,4.137,4.137,0,0,0,1.1-.127v1.9h1.751V22.627h12.445v4.22h-4.468c-3.4,0-4.757,1.618-4.757,3.664,0,3.009,3.189,5.661,6.35,5.661,3.11,0,4.653-2.148,4.653-5.18V22.627h3.659V21.01h-14.51Zm9.073,9.955c0,2.148-.836,3.614-2.771,3.614-2.168,0-4.625-1.946-4.625-4.119,0-1.239.785-2,2.928-2h4.468v2.5Zm19.157-8.338v3.311a5.17,5.17,0,0,1,4.939,5.18,4.676,4.676,0,0,1-4.547,4.675V34.2a3.179,3.179,0,0,0,2.822-3.21c0-2-1.645-3.512-4.076-3.512s-4.078,1.516-4.078,3.512A3.18,3.18,0,0,0,314.1,34.2v1.592a4.658,4.658,0,0,1-4.546-4.675,5.171,5.171,0,0,1,4.939-5.18V22.627h-7.71V21.01h16.883v1.617h-7.448Zm3.3,15.136v1.491c-0.681.657-2.771,1.011-4.209,1.011s-3.527-.355-4.233-1.011V37.763a7.888,7.888,0,0,0,4.129.935,8.726,8.726,0,0,0,4.313-.935m0,3.639v1.491c-0.681.657-2.771,1.01-4.209,1.01s-3.527-.353-4.233-1.01V41.4a7.888,7.888,0,0,0,4.129.935,8.726,8.726,0,0,0,4.313-.935m-7.685-25.547A3.343,3.343,0,0,1,315.2,12.6a3.261,3.261,0,1,1,0,6.519,3.359,3.359,0,0,1-3.373-3.26m5.2,0a1.763,1.763,0,0,0-1.829-1.793,1.782,1.782,0,1,0,0,3.562,1.757,1.757,0,0,0,1.829-1.768m24.045,3.234a3.32,3.32,0,0,1-3.371-3.235h1.515a1.844,1.844,0,0,0,3.685,0h1.542a3.337,3.337,0,0,1-3.371,3.235m14.948,1.921c-0.018-3.064-1.577-3.97-3.812-4.347-1.02-.152-2.091-0.3-2.091-2.7h-1.7c0,3.943,2.719,4.17,3.765,4.347,1.651,0.225,2.128,1.338,2.14,2.7h0v5.938H348.39a13.059,13.059,0,0,0,.13-1.719,7.389,7.389,0,0,0-1.2-4.22h-19.37v1.618H339.4v4.22h-4.47c-3.4,0-4.755,1.617-4.755,3.664,0,3.007,3.187,5.66,6.35,5.66,3.11,0,4.652-2.148,4.652-5.18V22.628h5.152a7.6,7.6,0,0,1,.523,2.93,10.432,10.432,0,0,1-1.594,5.029c0.626,2.679,3.189,3.967,5.958,3.967a8.205,8.205,0,0,0,3.11-.556v2.148h1.752V22.628h3.371V21.01h-3.424ZM339.4,30.965c0,2.149-.836,3.614-2.771,3.614-2.168,0-4.625-1.946-4.625-4.119,0-1.237.784-2,2.926-2h4.47v2.5Zm14.926,1.542a7.454,7.454,0,0,1-2.51.379c-2.4,0-4.024-.632-4.7-2.3A9.624,9.624,0,0,0,348,28.565h6.324v3.942Zm25.931-13.443a3.337,3.337,0,0,0,3.372-3.235h-1.541a1.844,1.844,0,0,1-3.685,0h-1.515a3.319,3.319,0,0,0,3.369,3.235m25.979,1.946h-5.123V32.684a1.174,1.174,0,0,1-.574.127c-2.718,0-3.059-1.971-3.11-5.08,0.027-.353.027-0.706,0.027-1.061V24.32h-1.777v2.753c0,2.224-.236,5.686-2.432,5.686-0.967,0-1.724-.733-2.509-2.072a11.452,11.452,0,0,0,1.491-5.458,6.891,6.891,0,0,0-1.36-4.22h-21.7V18.583c0-2.349,1.281-2.982,2.353-2.982s2.378,0.633,2.378,2.982v0.759h1.726V18.583c0-2.78-1.361-4.6-4.1-4.6-2.718,0-4.1,1.82-4.1,4.6V21.01h-3.972v1.617h3.972v13.52h1.75V22.626h9.387v3.311a5.171,5.171,0,0,0-4.94,5.18,4.658,4.658,0,0,0,4.546,4.675V34.2a3.178,3.178,0,0,1-2.822-3.209c0-2,1.646-3.512,4.077-3.512s4.078,1.516,4.078,3.512A3.179,3.179,0,0,1,380.67,34.2v1.592a4.676,4.676,0,0,0,4.547-4.675,5.172,5.172,0,0,0-4.94-5.18V22.626h9.674a6.687,6.687,0,0,1,.575,2.755,8.521,8.521,0,0,1-1.882,5.231c1.7,2.907,2.9,3.766,4.494,3.766a3.579,3.579,0,0,0,3.4-2.275,3.662,3.662,0,0,0,3.477,2.275,4.2,4.2,0,0,0,1.1-.127v1.9h1.753V22.626h4.84v7.505h1.751V22.626h3.919V21.01h-7.14ZM442.18,15.2l0.393,1.617a4.083,4.083,0,0,1,4.646,4.195H432.972v6.47h-2.51a4.854,4.854,0,0,0-1.829-3.715c-2.038-.355-3.815,1.087-4.756,2.324,0.261-1.541.027-4.068-1.7-5.079H417.37v1.618h3.971c1.386,1.49,1.309,4.017-.573,8.01l1.723,0.784c2.223-4.346,3.738-5.889,5.306-6.04,1.543,1.592,1.358,3.235-1.332,8.162l1.8,0.784a19.574,19.574,0,0,0,2.04-5.231h2.665v7.05h1.752V22.627h12.5v1.844c0.052,2.855-1.386,3.007-6.56,3.007V29.1c4.678,0,6.585-.1,6.585,2.022,0,2.148-1.958,3.159-4.233,3.159a9.756,9.756,0,0,1-5.044-1.542v1.617a8.55,8.55,0,0,0,5.2,1.542c3.424,0,5.829-1.9,5.829-4.675a3.386,3.386,0,0,0-1.568-3.058c0.652-.353,1.541-1.262,1.541-3.916V22.627h3.608V21.009h-3.713A5.89,5.89,0,0,0,442.18,15.2m24.15-1.491a3.25,3.25,0,0,0-.862,2.173,3.358,3.358,0,0,0,3.37,3.261,3.26,3.26,0,1,0,.053-6.519c-1.358-.076-3.528-0.152-3.528-2.629h-1.7a3.627,3.627,0,0,0,2.666,3.715m2.508,0.379a1.783,1.783,0,1,1-1.854,1.793,1.785,1.785,0,0,1,1.854-1.793M480,32.431a1.19,1.19,0,0,0-1.227,1.188A1.21,1.21,0,0,0,480,34.833a1.229,1.229,0,0,0,1.229-1.214A1.208,1.208,0,0,0,480,32.431m23-9.8V21.009H456.706v1.618h11.448v4.22h-4.47c-3.4,0-4.756,1.617-4.756,3.664,0,3.007,3.188,5.661,6.351,5.661,3.11,0,4.651-2.149,4.651-5.181V22.627h4.579a9.281,9.281,0,0,1,1.542,4.977c0,2.149-1.177,3.614-2.639,5.889l2.013,0.884a21.818,21.818,0,0,0,1.96-4.246h5.879v6.014h1.751V22.627h8.811v3.309a5.173,5.173,0,0,0-4.939,5.181,4.66,4.66,0,0,0,4.547,4.675V34.2a3.179,3.179,0,0,1-2.822-3.209c0-2,1.647-3.512,4.076-3.512s4.078,1.516,4.078,3.512a3.177,3.177,0,0,1-2.822,3.209v1.593a4.679,4.679,0,0,0,4.548-4.675,5.173,5.173,0,0,0-4.939-5.181V22.627H503Zm-34.846,8.339c0,2.148-.836,3.613-2.771,3.613-2.168,0-4.625-1.945-4.625-4.119,0-1.237.783-2,2.926-2h4.47v2.5Zm15.11-2.451H477.7a6.9,6.9,0,0,0,.026-0.733,11.351,11.351,0,0,0-1.227-5.155h6.768v5.887Zm-240.742,27.6h-3.5c-0.018-3.064-1.577-3.97-3.812-4.347-1.02-.152-2.09-0.3-2.09-2.7h-1.7c0,3.941,2.718,4.169,3.763,4.345,1.651,0.226,2.128,1.338,2.14,2.705H225.639v1.617h11.63v8.263c0,2.149-.836,3.614-2.848,3.614-2.064,0-4.548-1.945-4.548-4.117,0-1.239.785-2,2.928-2h0.836V61.877H232.8c-3.4,0-4.757,1.617-4.757,3.688,0,2.981,3.267,5.636,6.22,5.636,3.293,0,4.783-2.149,4.783-5.181V57.731H251.7v4.221h-4.468c-3.4,0-4.757,1.617-4.757,3.662,0,3.009,3.189,5.661,6.351,5.661,3.11,0,4.652-2.148,4.652-5.18V57.731h3.66V56.115H242.522ZM251.7,66.07c0,2.149-.836,3.616-2.77,3.616-2.169,0-4.626-1.946-4.626-4.12,0-1.237.784-2,2.928-2H251.7v2.5Zm29.719-9.955V53.688c0-2.779-1.385-4.6-4.1-4.6-2.745,0-4.1,1.819-4.1,4.6v0.759h1.725V53.688c0-2.349,1.307-2.982,2.378-2.982s2.353,0.633,2.353,2.982v2.426h-18.4v1.617h11.578v3.185h-4.1c-3.084,0-4.626,1.262-4.626,2.956A2.836,2.836,0,0,0,266,66.5a6.011,6.011,0,0,0-.025.683c0,1.592.732,4.322,5.41,4.322a9.19,9.19,0,0,0,3.344-.557V69.482a9.688,9.688,0,0,1-3.684.48c-2.745-.051-3.424-1.491-3.424-2.831V66.906a3.922,3.922,0,0,0,.522.023H274.6V65.312h-6.613c-1.385,0-2.091-.582-2.091-1.415,0-1.137,1.334-1.364,2.431-1.364H274.6v-4.8h5.074v13.52h1.75V57.731h3.972V56.114h-3.972Zm14.112,20.393V78c0.7,0.658,2.8,1.013,4.235,1.013s3.528-.355,4.207-1.013v-1.49a8.724,8.724,0,0,1-4.313.935,7.886,7.886,0,0,1-4.129-.935m0-3.639v1.491c0.7,0.658,2.8,1.011,4.235,1.011s3.528-.353,4.207-1.011V72.868a8.724,8.724,0,0,1-4.313.935,7.886,7.886,0,0,1-4.129-.935m44.386-16.753H306.325V56.039c0-3.411-2.09-6.115-5.75-6.115s-5.776,2.753-6.768,6.191h-4.418v1.617h4.051a20.24,20.24,0,0,0-.314,3.538c0,6.115,2.666,10.057,6.874,10.108,3.136,0.05,5.124-2.073,5.124-4.5a4.268,4.268,0,0,0-3.948-4.195,6.153,6.153,0,0,0,4.992-4.954h12.889v4.221h-4.468c-3.4,0-4.757,1.617-4.757,3.662,0,3.009,3.189,5.661,6.35,5.661,3.11,0,4.653-2.148,4.653-5.18V57.731h13.619v5.561h-6.273a10.54,10.54,0,0,0-.679-2.4l-2.665.784a4.8,4.8,0,0,1,1.7,3.235,22.311,22.311,0,0,1-1.02,6.343h1.778a24.136,24.136,0,0,0,.967-6.343h6.193v6.343h1.751V57.731h4.943v7.505H342.9V57.731h3.921V56.115h-6.9ZM303.372,66.929a2.909,2.909,0,0,1-3.215,2.857c-2.849,0-4.678-2.4-5.149-6.42h3.215c3.449,0,5.149,1.821,5.149,3.563m-5.149-5.1h-3.344V61.169a18.98,18.98,0,0,1,.286-3.437h9.227c-0.6,2.527-2.692,4.094-6.169,4.094m6.351-5.711h-9.042c0.758-2.527,2.247-4.5,4.939-4.6,2.718-.1,4.1,1.819,4.1,4.574v0.026Zm14.483,9.955c0,2.149-.836,3.616-2.771,3.616-2.168,0-4.625-1.946-4.625-4.12,0-1.237.785-2,2.928-2h4.468v2.5Zm43.708,6.8v1.491c-0.679.658-2.771,1.011-4.209,1.011s-3.526-.353-4.233-1.011V72.868a7.888,7.888,0,0,0,4.129.935,8.718,8.718,0,0,0,4.313-.935M375.1,67.536a1.19,1.19,0,0,0-1.228,1.188,1.211,1.211,0,0,0,1.228,1.214,1.227,1.227,0,0,0,1.227-1.214,1.2,1.2,0,0,0-1.227-1.188m41.25-11.421H350.765v1.617H364.1v2.577a9.184,9.184,0,0,1-.6,3.413,6.271,6.271,0,0,0-5.515-3.286c-2.77,0-4.574,1.694-4.574,4.17,0,2.5,1.857,4.195,4.94,4.195A6.992,6.992,0,0,0,363,67.132a13.059,13.059,0,0,1,.236,2.6c0,0.531-.026,1.288-0.053,1.668h1.726c0-.5.026-1.112,0.026-1.617a13.66,13.66,0,0,0-.6-4.171,9.923,9.923,0,0,0,1.464-5.457l0.051-2.426h3.768a9.276,9.276,0,0,1,1.541,4.978c0,2.148-1.175,3.614-2.639,5.887l2.011,0.886a21.535,21.535,0,0,0,1.961-4.246h5.882v6.014h1.751V57.731h7.189a6.8,6.8,0,0,0-.077,1.137,8.717,8.717,0,0,0,.469,2.855,5.077,5.077,0,0,0-3.5,4.777c0,3.032,2.561,4.574,4.939,4.574V69.483a3.043,3.043,0,0,1-3.187-2.957,3.772,3.772,0,0,1,2.4-3.36A8.545,8.545,0,0,0,391.8,66.6a9.059,9.059,0,0,0,3.425-3.462,3.808,3.808,0,0,1,2.431,3.386,3.068,3.068,0,0,1-3.216,2.957v1.592c2.378,0,4.966-1.542,4.966-4.574a5.154,5.154,0,0,0-3.528-4.8,8.76,8.76,0,0,0,.5-2.831,4.67,4.67,0,0,0-.1-1.137h14.718v1.844c0.053,2.857-1.385,3.007-6.56,3.007V64.2c4.679,0,6.586-.1,6.586,2.021,0,2.148-1.959,3.16-4.233,3.16a9.764,9.764,0,0,1-5.045-1.542v1.617A8.554,8.554,0,0,0,406.94,71c3.425,0,5.83-1.9,5.83-4.675a3.386,3.386,0,0,0-1.568-3.058c0.652-.353,1.541-1.264,1.541-3.916V57.731h5.179v7.506h1.751V57.731h3.919V56.115h-7.241Zm-57.9,11.069c-2.09,0-3.293-.986-3.293-2.578,0-1.567,1.177-2.552,2.98-2.552a4.62,4.62,0,0,1,4.365,3.311,5.127,5.127,0,0,1-4.052,1.82m19.921-3.565H372.8a6.641,6.641,0,0,0,.027-0.732,11.338,11.338,0,0,0-1.23-5.155h6.771v5.887ZM391.8,64.731a6.449,6.449,0,0,1-2.849-5.811,8.045,8.045,0,0,1,.079-1.188h5.514a5.291,5.291,0,0,1,.106,1.137,6.9,6.9,0,0,1-2.85,5.863m78.469-8.616H427.749v1.617h7.708v3.311a5.171,5.171,0,0,0-4.939,5.18,4.66,4.66,0,0,0,4.547,4.676V69.3a3.178,3.178,0,0,1-2.822-3.209c0-2,1.646-3.513,4.077-3.513S440.4,64.1,440.4,66.1a3.179,3.179,0,0,1-2.822,3.209V70.9a4.678,4.678,0,0,0,4.547-4.676,5.172,5.172,0,0,0-4.94-5.18V57.731h9.177v7.506h1.751V57.731h7.762a6.8,6.8,0,0,0-.077,1.137,8.718,8.718,0,0,0,.47,2.855,5.077,5.077,0,0,0-3.5,4.777c0,3.032,2.561,4.574,4.939,4.574V69.483a3.043,3.043,0,0,1-3.187-2.957,3.773,3.773,0,0,1,2.4-3.36,8.541,8.541,0,0,0,3.45,3.436,9.064,9.064,0,0,0,3.424-3.462,3.808,3.808,0,0,1,2.431,3.386,3.068,3.068,0,0,1-3.216,2.957v1.592c2.379,0,4.967-1.542,4.967-4.574a5.155,5.155,0,0,0-3.529-4.8,8.734,8.734,0,0,0,.5-2.831,4.721,4.721,0,0,0-.1-1.137h5.434V56.115Zm-9.9,8.616a6.447,6.447,0,0,1-2.849-5.811,8.194,8.194,0,0,1,.078-1.188h5.514a5.228,5.228,0,0,1,.106,1.137,6.9,6.9,0,0,1-2.849,5.863m15.763,5.485h-1.75V56.443h1.75V70.215Z"/>
</svg>
