<svg id="Frame_1" data-name="Frame 1" xmlns="http://www.w3.org/2000/svg" width="728" height="90" viewBox="0 0 728 90">
  <defs>
    <style>
      .cls-1 {
        fill: #fff;
        fill-rule: evenodd;
      }
    </style>
  </defs>
  <path id="ਆਪਣੇ_ਘਰ_ਨੂੰ_ਰੱਖੋ_ਨਿੱਘਾ_ਅਤੇ_ਰੌਸ਼ਨ_ਹੋਰ_ਵੀ_ਊਰਜਾ_ਕੁਸ਼ਲਤਾ_ਨਾਲ_" data-name="ਆਪਣੇ ਘਰ ਨੂੰ ਰੱਖੋ ਨਿੱਘਾ ਅਤੇ ਰੌਸ਼ਨ ਹੋਰ ਵੀ ਊਰਜਾ ਕੁਸ਼ਲਤਾ ਨਾਲ।" class="cls-1" d="M227.96,21.927l-12.3,0,0,6.655h-2.5a5.065,5.065,0,0,0-1.819-3.822c-2.027-.364-3.8,1.117-4.732,2.39,0.26-1.586.027-4.186-1.688-5.226h-4.784v1.664h3.951c1.378,1.534,1.3,4.134-.574,8.241l1.716,0.806c2.211-4.471,3.719-6.056,5.279-6.212,1.533,1.638,1.351,3.328-1.328,8.4l1.793,0.806a20.586,20.586,0,0,0,2.03-5.381h2.651l0,7.253H217.4l0-13.909h4.913l0,7.721h1.742l0-7.721h3.9V21.927Zm15.8,0h-5.095l0,11.829a7.19,7.19,0,0,1-2.5.389c-2.392,0-4-.651-4.679-2.367a11.422,11.422,0,0,0,1.405-5.511,7.8,7.8,0,0,0-1.194-4.342h-4.732V23.59h3.743a8.047,8.047,0,0,1,.52,3.016,10.985,10.985,0,0,1-1.588,5.173c0.623,2.756,3.171,4.082,5.927,4.083a7.915,7.915,0,0,0,3.093-.571V37.5H240.4l0-13.909h3.354V21.931Zm16.906,0-17.991,0v1.664h4.445c0.026,2.47,1.663,4.758,5.069,5.253l-0.157,1.664a5.472,5.472,0,0,0-2.21-.442,4.6,4.6,0,0,0-4.55,2.807,7.02,7.02,0,0,0,6.992,4.889c2.652,0,4.94-1.065,5.8-2.182v-1.82a7.5,7.5,0,0,1-5.512,2.338,5.635,5.635,0,0,1-5.459-3.225,3.211,3.211,0,0,1,2.652-1.169,6.129,6.129,0,0,1,3.717,1.353l0.026-.234,0.313-3.9a9.24,9.24,0,0,0,3.12-.545v-1.56a9.79,9.79,0,0,1-3.458.441c-2.886,0-4.549-1.743-4.6-3.667l11.8,0V21.935Zm-11.618-5.983,0.389,1.664a4.131,4.131,0,0,1,4.626,4.369H255.7A5.933,5.933,0,0,0,249.049,15.953Zm36.234,5.989h-5.1l0,12.011a1.144,1.144,0,0,1-.572.13c-2.7,0-3.041-2.029-3.092-5.226,0.026-.364.026-0.728,0.026-1.092V25.345h-1.768v2.834c0,2.288-.235,5.849-2.419,5.849-0.962,0-1.716-.754-2.5-2.132a12.086,12.086,0,0,0,1.483-5.615A7.247,7.247,0,0,0,270,21.938h-4.679V23.6h3.77a7.067,7.067,0,0,1,.571,2.834,8.938,8.938,0,0,1-1.873,5.381c1.689,2.99,2.885,3.874,4.47,3.875a3.565,3.565,0,0,0,3.381-2.339,3.641,3.641,0,0,0,3.457,2.341,4.039,4.039,0,0,0,1.092-.13v1.95h1.742l0-13.909h3.353V21.942Zm15.735,0-16.794,0v1.664l11.386,0V27.95h-4.445c-3.38,0-4.732,1.662-4.733,3.768,0,3.094,3.17,5.824,6.316,5.825,3.094,0,4.628-2.209,4.629-5.328l0-8.605h3.64V21.946ZM292.851,35.9c-2.157,0-4.6-2-4.6-4.239,0-1.274.781-2.054,2.912-2.053h4.446v2.574C295.608,34.4,294.775,35.905,292.851,35.9Zm29.222-12.289V21.952l-16.794,0v1.664l7.67,0v3.406a5.247,5.247,0,0,0-4.915,5.328,4.722,4.722,0,0,0,4.522,4.811V35.52a3.236,3.236,0,0,1-2.806-3.3c0-2.054,1.638-3.613,4.056-3.613s4.055,1.561,4.055,3.615a3.238,3.238,0,0,1-2.809,3.3v1.638a4.74,4.74,0,0,0,4.524-4.808,5.247,5.247,0,0,0-4.912-5.331V23.614Zm-8.427,16.532a7.636,7.636,0,0,1-4.107-.963v1.534c0.7,0.676,2.782,1.041,4.212,1.041s3.509-.363,4.186-1.039V39.187A8.44,8.44,0,0,1,313.646,40.148Zm0,3.744a7.636,7.636,0,0,1-4.107-.963v1.534c0.7,0.676,2.782,1.041,4.212,1.041s3.509-.363,4.186-1.039V42.931A8.44,8.44,0,0,1,313.645,43.891ZM313.651,20a3.354,3.354,0,1,0-3.352-3.354A3.4,3.4,0,0,0,313.651,20Zm0-1.534a1.833,1.833,0,1,1,1.82-1.819A1.777,1.777,0,0,1,313.652,18.466Zm29.476,3.491-16.795,0v1.664l11.387,0v4.342h-4.446c-3.38,0-4.732,1.663-4.732,3.768,0,3.094,3.17,5.824,6.315,5.825,3.094,0,4.628-2.209,4.629-5.328l0-8.605h3.639V21.958Zm-8.167,13.958c-2.158,0-4.6-2-4.6-4.239,0-1.274.781-2.054,2.913-2.053h4.445V32.2C337.717,34.409,336.885,35.917,334.961,35.916Zm7.78-19.262h-1.534a1.833,1.833,0,0,1-3.666,0h-1.508A3.354,3.354,0,0,0,342.741,16.654ZM358.9,21.962h-5.1V28.07l-5.9,0a13.817,13.817,0,0,0,.131-1.768,7.8,7.8,0,0,0-1.195-4.342h-4.732v1.664h3.744a8.053,8.053,0,0,1,.519,3.016,11,11,0,0,1-1.587,5.173c0.623,2.756,3.17,4.082,5.926,4.083a7.917,7.917,0,0,0,3.094-.571v2.21h1.742l0-13.908H358.9V21.962Zm-7.595,12.217c-2.392,0-4-.651-4.679-2.367a10.009,10.009,0,0,0,.885-2.08l6.291,0v4.056A7.187,7.187,0,0,1,351.307,34.179Zm2.5-12.166h1.69c0-3.2-1.559-4.134-3.794-4.525-1.014-.156-2.08-0.313-2.079-2.782h-1.69c0,4.056,2.7,4.29,3.742,4.473C353.34,19.413,353.807,20.583,353.807,22.013Zm17.1-7.275c-2.7,0-4.082,1.871-4.083,4.73v2.5h-3.952v1.664h3.952l0,13.909h1.742l0-13.909h3.9V21.966h-3.9v-2.5c0-2.418,1.275-3.067,2.341-3.067s2.365,0.65,2.365,3.068v0.78h1.716v-0.78C374.992,16.611,373.641,14.739,370.911,14.738Zm17.315,8.9V21.97l-16.795,0v1.664l7.669,0v3.406a5.248,5.248,0,0,0-4.915,5.328,4.723,4.723,0,0,0,4.522,4.811V35.538a3.237,3.237,0,0,1-2.807-3.3c0-2.054,1.639-3.613,4.057-3.613s4.055,1.561,4.054,3.615a3.236,3.236,0,0,1-2.808,3.3v1.638a4.741,4.741,0,0,0,4.525-4.808,5.247,5.247,0,0,0-4.912-5.331V23.632Zm-4.079-6.994h-1.533a1.833,1.833,0,0,1-3.666,0H377.44A3.354,3.354,0,0,0,384.147,16.64Zm23.371,5.336h-5.095l0,12.011a1.145,1.145,0,0,1-.572.13c-2.7,0-3.041-2.029-3.092-5.226,0.026-.364.026-0.728,0.026-1.092V25.378h-1.768v2.834c0,2.288-.235,5.849-2.419,5.849-0.962,0-1.716-.754-2.5-2.132a12.086,12.086,0,0,0,1.483-5.615,7.254,7.254,0,0,0-1.35-4.342h-4.68v1.664h3.769a7.051,7.051,0,0,1,.571,2.834,8.938,8.938,0,0,1-1.873,5.381c1.689,2.99,2.885,3.874,4.471,3.875a3.563,3.563,0,0,0,3.38-2.339,3.641,3.641,0,0,0,3.457,2.341,4.039,4.039,0,0,0,1.092-.13v1.95h1.742l0-13.909h3.354V21.975Zm8.469,0-9.593,0v1.664h3.951l0,7.721h1.742l0-7.721h3.9V21.977Zm24.59,0.007h-5.1l0,6.655h-2.5a5.065,5.065,0,0,0-1.819-3.822c-2.028-.364-3.8,1.117-4.732,2.39,0.26-1.586.027-4.186-1.689-5.226h-4.783v1.664h3.952c1.377,1.534,1.3,4.134-.574,8.241l1.715,0.806c2.211-4.471,3.72-6.056,5.28-6.212,1.533,1.638,1.351,3.328-1.329,8.4l1.794,0.806a20.546,20.546,0,0,0,2.029-5.381h2.652l0,7.253h1.742l0-13.909h3.353V21.984Zm12.134,3.331V23.651H456.3V21.988l-16.794,0v1.664l11.465,0v1.9c0.051,2.938-1.379,3.093-6.526,3.092V30.3c4.654,0,6.551-.1,6.551,2.082,0,2.21-1.951,3.249-4.213,3.249a9.485,9.485,0,0,1-5.017-1.587v1.664a8.319,8.319,0,0,0,5.173,1.587c3.406,0,5.8-1.948,5.8-4.808a3.51,3.51,0,0,0-1.559-3.146C451.826,28.98,452.71,28.045,452.711,25.315Zm-6.756-9.309,0.389,1.664a4.133,4.133,0,0,1,4.627,4.369h1.637A5.932,5.932,0,0,0,445.955,16.006ZM477.2,21.994l-16.794,0v1.664l11.387,0,0,4.342h-4.445c-3.38,0-4.732,1.663-4.733,3.768,0,3.094,3.17,5.824,6.316,5.825,3.094,0,4.628-2.209,4.629-5.328l0-8.605h3.64V21.994Zm-8.166,13.958c-2.158,0-4.6-2-4.6-4.239,0-1.274.781-2.054,2.912-2.053h4.446v2.574C471.787,34.445,470.954,35.953,469.031,35.952Zm3.491-22.591c-1.352-.078-3.51-0.157-3.509-2.7h-1.69a3.718,3.718,0,0,0,2.651,3.822,3.35,3.35,0,0,0,2.494,5.59A3.354,3.354,0,0,0,472.522,13.362Zm-0.053,5.173a1.833,1.833,0,1,1,1.82-1.819A1.777,1.777,0,0,1,472.469,18.535ZM493.06,22l-16.794,0v1.664h2.99a9.775,9.775,0,0,1,1.532,5.122c0,2.21-1.17,3.717-2.627,6.057l2,0.91a22.67,22.67,0,0,0,1.951-4.367l5.849,0,0,6.187H489.7l0-13.909h3.353V22Zm-5.1,1.662,0,6.057-5.537,0a7.3,7.3,0,0,0,.026-0.754,11.991,11.991,0,0,0-1.22-5.3Zm-3.252,10.086a1.205,1.205,0,0,0-1.223,1.222,1.227,1.227,0,0,0,1.222,1.248,1.243,1.243,0,0,0,1.222-1.248A1.22,1.22,0,0,0,484.712,33.747Zm24.122-10.08V22L492.04,22v1.664l7.67,0V27.07a5.247,5.247,0,0,0-4.915,5.328,4.722,4.722,0,0,0,4.522,4.811V35.571a3.236,3.236,0,0,1-2.806-3.3c0-2.054,1.638-3.613,4.056-3.612s4.055,1.561,4.055,3.615a3.238,3.238,0,0,1-2.809,3.3v1.638a4.741,4.741,0,0,0,4.525-4.808,5.249,5.249,0,0,0-4.913-5.331V23.664Zm-271.3,32.263-16.794,0v1.664l11.569,0,0,8.5c0,2.21-.833,3.717-2.835,3.717-2.054,0-4.523-2-4.522-4.239,0-1.274.78-2.054,2.912-2.053h0.832V61.854h-0.832c-3.379,0-4.732,1.662-4.732,3.794,0,3.068,3.248,5.8,6.186,5.8,3.275,0,4.758-2.209,4.759-5.328l0-8.527h3.458V55.929Zm-5.173.051h1.69c0-3.2-1.559-4.134-3.794-4.525-1.014-.156-2.08-0.312-2.079-2.782h-1.69c0,4.056,2.7,4.29,3.742,4.473C231.9,53.38,232.363,54.55,232.362,55.98Zm20.947-.046-16.794,0v1.664l11.387,0v4.342h-4.446c-3.379,0-4.732,1.662-4.732,3.768,0,3.094,3.17,5.824,6.315,5.825,3.094,0,4.629-2.209,4.629-5.328l0-8.605h3.639V55.933Zm-8.167,13.958c-2.158,0-4.6-2-4.6-4.239,0-1.274.78-2.054,2.912-2.053H247.9v2.574C247.9,68.385,247.066,69.892,245.142,69.892Zm19.289-7.352,6.239,0V57.6h3.536V55.939l-16.8,0V57.6l11.517,0v3.276h-4.082c-3.068,0-4.6,1.3-4.6,3.04a2.913,2.913,0,0,0,1.871,2.7,6.106,6.106,0,0,0-.026.7c0,1.638.726,4.446,5.38,4.447A8.89,8.89,0,0,0,270.8,71.2V69.691a9.344,9.344,0,0,1-3.666.493c-2.729-.053-3.405-1.535-3.4-2.913V67.037a3.485,3.485,0,0,0,.52.026l6.421,0V65.4l-6.577,0c-1.378,0-2.08-.6-2.079-1.456C262.013,62.773,263.339,62.539,264.431,62.54Zm18.284-6.6h-3.952v-2.5c0-2.86-1.376-4.732-4.08-4.733-2.73,0-4.082,1.871-4.083,4.73v0.78h1.716v-0.78c0-2.418,1.3-3.067,2.366-3.067s2.34,0.651,2.339,3.068v2.5h-3.9V57.6h3.9l0,13.909h1.742l0-13.909h3.952V55.941Zm20.663,1.669h3.692V55.948h-3.536V55.869c0-3.51-2.078-6.292-5.718-6.293s-5.746,2.832-6.735,6.368h-4.393v1.664h4.03a21.5,21.5,0,0,0-.313,3.64c0,6.291,2.649,10.348,6.834,10.4a4.7,4.7,0,0,0,5.1-4.626,4.335,4.335,0,0,0-3.924-4.317A6.224,6.224,0,0,0,303.378,57.611Zm-5.665-6.4c2.7-.1,4.081,1.873,4.08,4.707v0.026l-9,0C293.553,53.345,295.035,51.317,297.713,51.214ZM295.474,61.82h-3.327V61.143a20.172,20.172,0,0,1,.287-3.536l9.177,0C301.012,60.21,298.932,61.821,295.474,61.82Zm5.12,5.253a2.934,2.934,0,0,1-3.2,2.937c-2.834,0-4.653-2.471-5.12-6.6h3.2C298.9,63.407,300.6,65.279,300.594,67.073Zm-7.8,6.107v1.534c0.7,0.676,2.781,1.041,4.211,1.041s3.51-.363,4.186-1.039V73.183a8.444,8.444,0,0,1-4.29.961A7.641,7.641,0,0,1,292.793,73.18Zm0,3.744v1.534c0.7,0.676,2.781,1.041,4.211,1.041s3.51-.363,4.186-1.039V76.926a8.438,8.438,0,0,1-4.289.961A7.641,7.641,0,0,1,292.792,76.924Zm30.066-20.972-16.794,0v1.664l11.387,0v4.342H313c-3.379,0-4.732,1.663-4.732,3.768,0,3.094,3.17,5.824,6.315,5.825,3.094,0,4.629-2.209,4.629-5.328l0-8.605h3.639V55.952Zm-8.167,13.958c-2.158,0-4.6-2-4.6-4.239,0-1.274.781-2.054,2.913-2.053h4.445v2.574C317.447,68.4,316.615,69.911,314.691,69.911Zm24.942-13.954-17.99,0v1.664l12.557,0,0,5.719-6.239,0a11.235,11.235,0,0,0-.675-2.47l-2.652.805A5,5,0,0,1,326.32,65a23.685,23.685,0,0,1-1.016,6.525h1.768A25.6,25.6,0,0,0,328.036,65l6.161,0,0,6.525h1.742l0-13.908h3.691V55.957Zm8.341,0-9.593,0V57.62h3.951l0,7.721h1.742l0-7.721h3.9V55.959Zm21.912,0.006-17.99,0v1.664l13.259,0v2.652a9.7,9.7,0,0,1-.6,3.509,6.209,6.209,0,0,0-5.484-3.381c-2.756,0-4.55,1.741-4.551,4.288,0,2.574,1.845,4.316,4.912,4.317a6.818,6.818,0,0,0,4.628-1.715,14.066,14.066,0,0,1,.234,2.678c0,0.546-.027,1.326-0.053,1.716h1.716c0-.52.026-1.144,0.026-1.664a14.493,14.493,0,0,0-.6-4.29,10.478,10.478,0,0,0,1.457-5.615l0.053-2.5h2.989V55.965Zm-10.35,11.384c-2.08,0-3.275-1.015-3.275-2.653,0-1.612,1.171-2.625,2.964-2.625,1.95,0,3.51,1.2,4.341,3.407A5.023,5.023,0,0,1,359.536,67.349Zm0,6.811a7.634,7.634,0,0,1-4.107-.963v1.534c0.7,0.676,2.782,1.041,4.211,1.041s3.51-.363,4.186-1.039V73.2A8.44,8.44,0,0,1,359.535,74.16ZM385.67,55.969l-16.794,0v1.664h2.99a9.775,9.775,0,0,1,1.533,5.122c0,2.21-1.171,3.717-2.628,6.057l2,0.91a22.668,22.668,0,0,0,1.951-4.367l5.849,0V71.54h1.741l0-13.908h3.354V55.969Zm-5.1,1.662v6.057l-5.538,0a7.3,7.3,0,0,0,.026-0.754,11.992,11.992,0,0,0-1.22-5.3Zm-3.252,10.086a1.2,1.2,0,0,0-1.222,1.222,1.225,1.225,0,0,0,1.221,1.248,1.243,1.243,0,0,0,1.222-1.248A1.219,1.219,0,0,0,377.322,67.718Zm27.71-11.743-20.382-.006v1.664l6.057,0a7.3,7.3,0,0,0-.078,1.17,9.238,9.238,0,0,0,.467,2.938,5.207,5.207,0,0,0-3.485,4.913,4.689,4.689,0,0,0,4.912,4.707V69.724a3.068,3.068,0,0,1-3.171-3.043,3.874,3.874,0,0,1,2.392-3.457,8.655,8.655,0,0,0,3.431,3.536,9.175,9.175,0,0,0,3.407-3.561A3.906,3.906,0,0,1,401,66.684a3.09,3.09,0,0,1-3.2,3.041v1.638a4.71,4.71,0,0,0,4.94-4.7,5.288,5.288,0,0,0-3.508-4.94,9.279,9.279,0,0,0,.5-2.912,5,5,0,0,0-.1-1.17h5.407V55.974Zm-7.02,2.832a7.189,7.189,0,0,1-2.835,6.031,6.711,6.711,0,0,1-2.833-5.98,8.654,8.654,0,0,1,.079-1.222l5.485,0A5.6,5.6,0,0,1,398.012,58.806Zm19.232,0.5V57.642h3.588V55.979l-16.794,0v1.664l11.465,0v1.9c0.051,2.938-1.379,3.093-6.526,3.092v1.664c4.654,0,6.552-.1,6.551,2.082,0,2.21-1.951,3.249-4.212,3.249a9.478,9.478,0,0,1-5.017-1.587V69.7a8.319,8.319,0,0,0,5.173,1.587c3.406,0,5.8-1.948,5.8-4.808a3.507,3.507,0,0,0-1.559-3.146C416.359,62.971,417.243,62.035,417.244,59.305Zm12.1-3.324-9.593,0v1.664H423.7l0,7.721h1.742l0-7.721h3.9V55.981Zm20.923,1.669V55.987l-16.794,0v1.664l7.669,0v3.406a5.249,5.249,0,0,0-4.915,5.328,4.723,4.723,0,0,0,4.523,4.811V69.555a3.237,3.237,0,0,1-2.807-3.3c0-2.054,1.639-3.613,4.057-3.613s4.055,1.561,4.054,3.615a3.236,3.236,0,0,1-2.808,3.3v1.638a4.74,4.74,0,0,0,4.525-4.808,5.247,5.247,0,0,0-4.912-5.331V57.649Zm8.584-1.662-9.593,0V57.65h3.951l0,7.721h1.742l0-7.721h3.9V55.989Zm19.345,0.005-20.382-.005v1.664l6.057,0a7.3,7.3,0,0,0-.078,1.17,9.267,9.267,0,0,0,.467,2.938,5.208,5.208,0,0,0-3.485,4.913,4.689,4.689,0,0,0,4.912,4.707V69.743a3.069,3.069,0,0,1-3.171-3.043,3.875,3.875,0,0,1,2.393-3.457,8.653,8.653,0,0,0,3.43,3.537,9.168,9.168,0,0,0,3.407-3.561A3.907,3.907,0,0,1,474.16,66.7a3.091,3.091,0,0,1-3.2,3.041v1.638a4.711,4.711,0,0,0,4.941-4.7,5.291,5.291,0,0,0-3.509-4.94,9.222,9.222,0,0,0,.5-2.911,5,5,0,0,0-.1-1.17h5.408V55.994Zm-7.02,2.832a7.186,7.186,0,0,1-2.835,6.031,6.711,6.711,0,0,1-2.832-5.98,8.518,8.518,0,0,1,.078-1.222l5.486,0A5.6,5.6,0,0,1,471.172,58.826Zm10.859-2.493h-1.742l0,14.169h1.742Z"/>
</svg>
