<svg id="Frame_2" data-name="Frame 2" xmlns="http://www.w3.org/2000/svg" width="728" height="90" viewBox="0 0 728 90">
  <defs>
    <style>
      .cls-1 {
        fill: #fff;
        fill-rule: evenodd;
      }
    </style>
  </defs>
  <path id="txt2" class="cls-1" d="M212.345,32.237c2.2-4.343,3.706-5.884,5.26-6.035,1.529,1.591,1.346,3.232-1.322,8.156l1.788,0.782a19.688,19.688,0,0,0,2.022-5.226h2.641v7.045h1.736V23.45h4.9v7.5H231.1v-7.5h5.342a7.614,7.614,0,0,1,.519,2.928,10.49,10.49,0,0,1-1.58,5.024c0.621,2.677,3.161,3.964,5.907,3.964a8.082,8.082,0,0,0,3.083-.555v2.147h1.736V23.45h5.39c0.026,2.4,1.658,4.621,5.052,5.1L256.4,30.166a5.571,5.571,0,0,0-2.2-.429,4.6,4.6,0,0,0-4.534,2.727,6.989,6.989,0,0,0,6.969,4.748c2.643,0,4.924-1.036,5.778-2.121V33.322a7.559,7.559,0,0,1-5.492,2.274,5.633,5.633,0,0,1-5.441-3.132,3.231,3.231,0,0,1,2.641-1.136,6.212,6.212,0,0,1,3.706,1.313l0.026-.227,0.312-3.788a9.417,9.417,0,0,0,3.109-.531V26.58a9.977,9.977,0,0,1-3.447.429c-2.876,0-4.534-1.691-4.586-3.559H265V21.834h-4.951a5.854,5.854,0,0,0-6.628-5.808l0.39,1.616a4.06,4.06,0,0,1,4.606,4.192H244.373V33.322a7.341,7.341,0,0,1-2.488.378c-2.382,0-3.99-.631-4.663-2.3a10.868,10.868,0,0,0,1.4-5.353,7.43,7.43,0,0,0-1.192-4.216H222.734V28.3h-2.487a4.874,4.874,0,0,0-1.812-3.712c-2.022-.353-3.784,1.085-4.715,2.323,0.257-1.541.024-4.066-1.686-5.075h-4.767V23.45h3.939c1.372,1.489,1.3,4.015-.571,8Zm58.274,3.282a1.206,1.206,0,0,0,1.218,1.212,1.223,1.223,0,0,0,1.217-1.212,1.2,1.2,0,0,0-1.217-1.187,1.185,1.185,0,0,0-1.218,1.187m30.211-12.07V21.833H282.976c-0.018-3.061-1.564-3.966-3.779-4.343-1.011-.152-2.074-0.3-2.074-2.7h-1.682c0,3.939,2.7,4.166,3.73,4.344,1.638,0.224,2.11,1.336,2.123,2.7H269.453v1.616h11.839v3.132H277.9c-4.224,0-5.6,2.5-5.6,4.8,0,3.359,2.9,5.731,6.684,5.731,2.9,0,4.767-1.414,4.767-3.358,0-1.591-1.3-3-3.68-3a4.8,4.8,0,0,0-4.87,3.408,3.634,3.634,0,0,1-1.165-2.7,3.038,3.038,0,0,1,3.238-3.257h5.751V23.449h8.708v3.308a5.151,5.151,0,0,0-4.9,5.177,4.636,4.636,0,0,0,4.508,4.67V35.013a3.167,3.167,0,0,1-2.8-3.207c0-1.994,1.632-3.51,4.042-3.51s4.041,1.516,4.041,3.51a3.168,3.168,0,0,1-2.8,3.207V36.6a4.654,4.654,0,0,0,4.507-4.67,5.151,5.151,0,0,0-4.9-5.177V23.449h7.382Zm-21.092,8.914c1.554,0,2.28.758,2.28,1.591,0,0.985-1.218,1.54-2.927,1.54a6.481,6.481,0,0,1-2.85-.605,3.591,3.591,0,0,1,3.5-2.525m38.372-7.3V23.449h3.575V21.833h-3.627c-0.019-3.062-1.566-3.966-3.781-4.343-1.01-.152-2.072-0.3-2.072-2.7H310.52c0,3.939,2.695,4.166,3.731,4.344,1.638,0.224,2.112,1.336,2.122,2.7H304.948v1.616h11.427v1.843c0.051,2.854-1.374,3-6.5,3v1.616c4.636,0,6.528-.1,6.528,2.021,0,2.145-1.942,3.156-4.2,3.156a9.616,9.616,0,0,1-5-1.54v1.616a8.438,8.438,0,0,0,5.155,1.54c3.394,0,5.778-1.894,5.778-4.672a3.385,3.385,0,0,0-1.555-3.055c0.648-.353,1.529-1.263,1.529-3.914m2.827-7.424a1.109,1.109,0,0,0-1.114-1.085,1.071,1.071,0,0,0-1.089,1.085,1.087,1.087,0,0,0,1.089,1.087,1.127,1.127,0,0,0,1.114-1.087m17.9,14.393a3.383,3.383,0,0,0-1.555-3.056c0.649-.353,1.529-1.263,1.529-3.914V23.449h5.132v7.5h1.736v-7.5h5.339a7.629,7.629,0,0,1,.517,2.928,10.478,10.478,0,0,1-1.579,5.026c0.621,2.676,3.162,3.963,5.908,3.963a8.053,8.053,0,0,0,3.083-.555v2.147h1.736V23.449H364.8a9.332,9.332,0,0,1,1.528,4.973c0,2.148-1.166,3.612-2.617,5.884l1.994,0.883a21.64,21.64,0,0,0,1.943-4.242h5.83v6.011h1.736V23.449h4.872v7.5h1.736v-7.5h9.3v3.308a5.149,5.149,0,0,0-4.9,5.177,4.637,4.637,0,0,0,4.507,4.67v-1.59a3.168,3.168,0,0,1-2.8-3.207c0-1.994,1.632-3.51,4.04-3.51s4.043,1.516,4.043,3.51a3.168,3.168,0,0,1-2.8,3.207V36.6a4.654,4.654,0,0,0,4.507-4.67,5.15,5.15,0,0,0-4.9-5.177V23.449h7.383V21.833h-26.74v7.5h-5.519a6.6,6.6,0,0,0,.027-0.731,10.932,10.932,0,0,0-2.255-6.767h-6.79V33.322a7.335,7.335,0,0,1-2.488.38c-2.382,0-3.99-.632-4.664-2.3a10.866,10.866,0,0,0,1.4-5.353A7.432,7.432,0,0,0,352,21.833H325.648v1.616h11.425v1.843c0.052,2.854-1.374,3-6.5,3v1.616c4.638,0,6.528-.1,6.528,2.021,0,2.145-1.942,3.156-4.2,3.156a9.623,9.623,0,0,1-5-1.54v1.616a8.443,8.443,0,0,0,5.155,1.54c3.394,0,5.778-1.894,5.778-4.672m63.283,8.08,1.684-5.808h-1.712l-1.527,5.808h1.555Zm66.2-4.519a5.879,5.879,0,0,1-5.543-3.106,5.1,5.1,0,0,1,5.053-3.056h5.231V23.45H476.4V21.834H456.913V19.409c0-2.777-1.374-4.6-4.067-4.6-2.721,0-4.068,1.818-4.068,4.6v0.758h1.709V19.409c0-2.348,1.3-2.979,2.359-2.979s2.331,0.631,2.331,2.979v2.425h-44.7V23.45h6.037a7.109,7.109,0,0,0-.078,1.136,8.792,8.792,0,0,0,.468,2.854,5.069,5.069,0,0,0-3.473,4.772,4.625,4.625,0,0,0,4.9,4.571V35.19a3.026,3.026,0,0,1-3.161-2.954,3.769,3.769,0,0,1,2.383-3.359,8.514,8.514,0,0,0,3.419,3.435,9.008,9.008,0,0,0,3.394-3.461,3.8,3.8,0,0,1,2.41,3.384,3.048,3.048,0,0,1-3.187,2.954v1.592a4.647,4.647,0,0,0,4.923-4.571,5.152,5.152,0,0,0-3.5-4.8,8.794,8.794,0,0,0,.491-2.827,4.719,4.719,0,0,0-.1-1.136h7.1v7.5h1.736v-7.5h5.131l1.71,5.4a7.463,7.463,0,0,0-2.85,3.637,7.17,7.17,0,0,0,7.072,4.7c2.643,0,4.922-1.011,5.778-2.1V33.347a7.543,7.543,0,0,1-5.492,2.248,5.877,5.877,0,0,1-5.544-3.106,5.1,5.1,0,0,1,5.053-3.056h5.232V23.45h4.845V36.959h1.736V23.45h14.409v4.368h-3.5a6.826,6.826,0,0,0-6.866,4.672,7.169,7.169,0,0,0,7.073,4.7c2.642,0,4.922-1.011,5.776-2.1V33.347a7.546,7.546,0,0,1-5.493,2.248m-47.342-5.151a6.461,6.461,0,0,1-2.824-5.808,7.878,7.878,0,0,1,.079-1.187H423.7a5.475,5.475,0,0,1,.1,1.136,6.918,6.918,0,0,1-2.825,5.858M448.6,27.818h-3.5a8.046,8.046,0,0,0-2.436.329l-1.477-4.7h7.41v4.368ZM505.78,35.09a9.629,9.629,0,0,1-5-1.54v1.616a8.445,8.445,0,0,0,5.157,1.54c3.393,0,5.776-1.894,5.776-4.672a3.385,3.385,0,0,0-1.554-3.056c0.648-.353,1.53-1.263,1.53-3.914V23.449h3.575V21.833h-3.681a5.855,5.855,0,0,0-6.628-5.808l0.39,1.616a4.062,4.062,0,0,1,4.607,4.192H495.831V28.3h-2.488a4.879,4.879,0,0,0-1.815-3.712c-2.02-.353-3.782,1.085-4.715,2.323,0.26-1.54.027-4.065-1.684-5.075h-4.767v1.616H484.3c1.374,1.489,1.3,4.015-.57,8l1.711,0.783c2.2-4.343,3.7-5.884,5.259-6.035,1.528,1.591,1.347,3.232-1.321,8.156l1.787,0.783a19.6,19.6,0,0,0,2.02-5.228h2.645v7.045h1.734V23.449h12.387v1.843c0.053,2.854-1.372,3-6.5,3v1.616c4.638,0,6.529-.1,6.529,2.021,0,2.145-1.943,3.156-4.2,3.156M250.756,73.652v1.489c0.7,0.658,2.772,1.011,4.2,1.011s3.5-.353,4.172-1.011V73.652a8.606,8.606,0,0,1-4.276.934,7.777,7.777,0,0,1-4.093-.934m70.951-16.741h-47.45V68.4a7.319,7.319,0,0,1-2.486.38c-2.384,0-3.99-.632-4.664-2.3a10.865,10.865,0,0,0,1.4-5.353,7.426,7.426,0,0,0-1.19-4.217h-5.963V56.834c0-3.408-2.072-6.111-5.7-6.111s-5.724,2.753-6.71,6.187h-4.378v1.616h4.016a20.4,20.4,0,0,0-.31,3.535c0,6.11,2.641,10.05,6.813,10.1,3.109,0.051,5.077-2.07,5.077-4.494a4.252,4.252,0,0,0-3.911-4.193,6.121,6.121,0,0,0,4.948-4.948h5.133a7.632,7.632,0,0,1,.517,2.93,10.478,10.478,0,0,1-1.579,5.024c0.621,2.676,3.161,3.963,5.908,3.963a8.047,8.047,0,0,0,3.081-.555v2.147h1.736V58.527h14.124V61.1a9.246,9.246,0,0,1-.6,3.41,6.212,6.212,0,0,0-5.468-3.283c-2.746,0-4.534,1.692-4.534,4.168,0,2.5,1.84,4.19,4.9,4.19a6.9,6.9,0,0,0,4.611-1.665,13.27,13.27,0,0,1,.234,2.6c0,0.531-.027,1.289-0.052,1.667h1.71c0-.5.025-1.111,0.025-1.616a13.767,13.767,0,0,0-.595-4.166,9.98,9.98,0,0,0,1.451-5.453l0.052-2.425H303.9v4.217h-4.432c-3.366,0-4.715,1.616-4.715,3.661,0,3,3.162,5.655,6.3,5.655,3.083,0,4.61-2.145,4.61-5.175V58.527h9.174v3.308a5.149,5.149,0,0,0-4.9,5.177,4.639,4.639,0,0,0,4.508,4.672V70.091a3.169,3.169,0,0,1-2.8-3.206c0-1.994,1.632-3.51,4.042-3.51s4.041,1.516,4.041,3.51a3.168,3.168,0,0,1-2.8,3.206v1.592a4.658,4.658,0,0,0,4.508-4.672,5.15,5.15,0,0,0-4.9-5.177V58.527h9.1v7.5h1.736v-7.5h3.887V56.911h-9.56ZM258.425,67.717a2.891,2.891,0,0,1-3.187,2.854c-2.824,0-4.637-2.4-5.1-6.415h3.187c3.42,0,5.1,1.819,5.1,3.561m-5.1-5.1h-3.316V61.96a19.221,19.221,0,0,1,.285-3.434h9.146c-0.6,2.525-2.669,4.09-6.115,4.09m6.3-5.706h-8.965c0.752-2.526,2.229-4.5,4.9-4.6,2.694-.1,4.068,1.816,4.068,4.57v0.025Zm24.9,11.059c-2.072,0-3.264-.984-3.264-2.574,0-1.567,1.166-2.552,2.954-2.552a4.585,4.585,0,0,1,4.325,3.308,5.057,5.057,0,0,1-4.015,1.818M303.9,66.859c0,2.147-.83,3.61-2.747,3.61-2.149,0-4.585-1.943-4.585-4.115,0-1.236.778-1.994,2.9-1.994H303.9v2.5Zm23.841-14.14a1.11,1.11,0,0,0-1.114-1.087,1.071,1.071,0,0,0-1.087,1.087,1.085,1.085,0,0,0,1.087,1.087,1.127,1.127,0,0,0,1.114-1.087m14.893,17.372a3.169,3.169,0,0,1-2.8-3.208c0-1.993,1.632-3.508,4.042-3.508s4.042,1.516,4.042,3.508a3.17,3.17,0,0,1-2.8,3.208v1.591a4.657,4.657,0,0,0,4.508-4.672,5.149,5.149,0,0,0-4.9-5.175V58.527h7.386V56.911H335.384v1.616h7.641v3.308a5.149,5.149,0,0,0-4.9,5.175,4.637,4.637,0,0,0,4.508,4.672V70.091ZM348,78.777V77.288a8.592,8.592,0,0,1-4.274.934,7.784,7.784,0,0,1-4.094-.934v1.489c0.7,0.656,2.773,1.011,4.2,1.011s3.5-.354,4.17-1.011m-8.368-5.126v1.489c0.7,0.658,2.773,1.011,4.2,1.011s3.5-.353,4.17-1.011V73.652a8.592,8.592,0,0,1-4.274.934,7.784,7.784,0,0,1-4.094-.934m0.752-21.892a3.342,3.342,0,0,0,3.342,3.257,3.259,3.259,0,1,0-3.342-3.257m5.155,0a1.748,1.748,0,0,1-1.813,1.769,1.781,1.781,0,1,1,0-3.561,1.754,1.754,0,0,1,1.813,1.792m66.1,5.151H410.6A5.854,5.854,0,0,0,403.97,51.1l0.389,1.616a4.065,4.065,0,0,1,4.609,4.208V64.41H403.45a6.9,6.9,0,0,0,.026-0.733,10.932,10.932,0,0,0-2.255-6.767h-5.106c-0.018-3.062-1.566-3.967-3.781-4.343-1.009-.153-2.072-0.3-2.072-2.7h-1.684c0,3.941,2.7,4.166,3.73,4.343,1.638,0.226,2.111,1.336,2.123,2.7H371.706v6.464h-2.488a4.872,4.872,0,0,0-1.814-3.712c-2.02-.354-3.782,1.085-4.715,2.325,0.259-1.541.028-4.066-1.684-5.077h-4.767v1.616h3.937c1.374,1.49,1.3,4.015-.569,8.005l1.71,0.782c2.2-4.343,3.7-5.884,5.26-6.035,1.527,1.59,1.346,3.232-1.321,8.156l1.787,0.783a19.6,19.6,0,0,0,2.02-5.228h2.644v7.045h1.735V58.526h4.9v7.5h1.735v-7.5h14.358v4.368h-3.5a6.831,6.831,0,0,0-6.867,4.671,7.172,7.172,0,0,0,7.074,4.7c2.641,0,4.922-1.011,5.776-2.1V68.424a7.543,7.543,0,0,1-5.492,2.248,5.873,5.873,0,0,1-5.543-3.106,5.1,5.1,0,0,1,5.052-3.055h5.232V58.526h4.124a9.336,9.336,0,0,1,1.528,4.975c0,2.147-1.166,3.61-2.617,5.884l1.994,0.884a21.654,21.654,0,0,0,1.943-4.243h5.83v6.009h1.737V58.526h13.786v4.368h-3.5a6.826,6.826,0,0,0-6.866,4.671,7.17,7.17,0,0,0,7.072,4.7c2.643,0,4.922-1.011,5.778-2.1V68.424a7.546,7.546,0,0,1-5.493,2.248,5.874,5.874,0,0,1-5.543-3.106,5.106,5.106,0,0,1,5.052-3.055h5.232V58.526h3.342V56.91H411.639Zm46.767-4.344c-1.01-.151-2.071-0.3-2.071-2.7h-1.686c0,3.941,2.695,4.166,3.732,4.343,1.637,0.226,2.109,1.337,2.121,2.7H433.478v1.616h13.214V61.1a9.2,9.2,0,0,1-.6,3.41,6.209,6.209,0,0,0-5.465-3.283c-2.747,0-4.533,1.692-4.533,4.168,0,2.5,1.839,4.19,4.9,4.19a6.9,6.9,0,0,0,4.613-1.665,13.516,13.516,0,0,1,.231,2.6c0,0.531-.026,1.289-0.05,1.667h1.708c0-.5.028-1.111,0.028-1.616a13.765,13.765,0,0,0-.6-4.166,9.971,9.971,0,0,0,1.45-5.453l0.053-2.425h12.05v4.217h-4.431c-3.369,0-4.715,1.616-4.715,3.661,0,3,3.161,5.655,6.3,5.655,3.083,0,4.611-2.145,4.611-5.175V58.527h3.629V56.911h-3.681c-0.019-3.063-1.565-3.967-3.781-4.344M441.1,67.97c-2.072,0-3.264-.984-3.264-2.574,0-1.567,1.166-2.552,2.953-2.552a4.585,4.585,0,0,1,4.327,3.308A5.06,5.06,0,0,1,441.1,67.97m19.383-1.111c0,2.147-.83,3.61-2.747,3.61-2.149,0-4.585-1.943-4.585-4.115,0-1.236.778-1.994,2.9-1.994h4.431v2.5Zm11.168-9.62H469.91V71h1.736V57.239Z"/>
</svg>
