<svg id="Frame_2" data-name="Frame 2" xmlns="http://www.w3.org/2000/svg" width="728" height="90" viewBox="0 0 728 90">
  <defs>
    <style>
      .cls-1 {
        fill: #fff;
        fill-rule: evenodd;
      }
    </style>
  </defs>
  <path id="ਆਪਣੇ_ਫ਼ੋਨ_ਤੋਂ_ਤਾਪਮਾਨ_ਲਾਈਟ_ਅਤੇ_ਉਪਕਰਨਾਂ_ਨੂੰ_ਆਟੋਮੇਟ_ਕਰੋ_" data-name="ਆਪਣੇ ਫ਼ੋਨ ਤੋਂ ਤਾਪਮਾਨ, ਲਾਈਟ ਅਤੇ ਉਪਕਰਨਾਂ ਨੂੰ ਆਟੋਮੇਟ ਕਰੋ।" class="cls-1" d="M234.769,21.915h-12.3v6.655h-2.5a5.064,5.064,0,0,0-1.82-3.821c-2.027-.364-3.795,1.118-4.731,2.392,0.26-1.586.026-4.185-1.689-5.225h-4.784v1.664h3.952c1.377,1.534,1.3,4.133-.572,8.241l1.715,0.806c2.21-4.471,3.718-6.057,5.278-6.213,1.533,1.638,1.351,3.327-1.326,8.4l1.793,0.806a20.576,20.576,0,0,0,2.028-5.381h2.652v7.253h1.741V23.578h4.913V31.3h1.742V23.578h3.9V21.915Zm14.51,0h-5.095V33.742a7.189,7.189,0,0,1-2.5.39c-2.392,0-4-.65-4.68-2.366a11.422,11.422,0,0,0,1.4-5.511,7.8,7.8,0,0,0-1.2-4.341h-4.731v1.664h3.744a8.046,8.046,0,0,1,.52,3.015,10.984,10.984,0,0,1-1.586,5.173c0.624,2.755,3.171,4.081,5.927,4.081a7.913,7.913,0,0,0,3.093-.572v2.21h1.742V23.578h3.353V21.915Zm15.6,0H246.89v1.664h4.445c0.026,2.47,1.664,4.757,5.07,5.251l-0.156,1.664a5.471,5.471,0,0,0-2.21-.442,4.6,4.6,0,0,0-4.549,2.808,7.02,7.02,0,0,0,6.993,4.887c2.651,0,4.939-1.066,5.8-2.184v-1.82a7.494,7.494,0,0,1-5.512,2.34,5.636,5.636,0,0,1-5.459-3.224,3.212,3.212,0,0,1,2.652-1.17,6.129,6.129,0,0,1,3.717,1.352l0.026-.234,0.312-3.9a9.24,9.24,0,0,0,3.12-.546V26.8a9.792,9.792,0,0,1-3.458.442c-2.885,0-4.549-1.742-4.6-3.665h11.8V21.915Zm-11.618-5.979,0.39,1.664a4.131,4.131,0,0,1,4.627,4.367h1.638A5.933,5.933,0,0,0,253.261,15.936ZM277.2,28.465h5.771V23.578h3.172V21.915H269.349v1.664h11.88V26.8h-3.406c-4.237,0-5.615,2.574-5.615,4.939,0,3.457,2.912,5.9,6.707,5.9,2.911,0,4.783-1.456,4.783-3.457,0-1.638-1.3-3.093-3.691-3.093A4.83,4.83,0,0,0,275.12,34.6a3.786,3.786,0,0,1-1.17-2.782A3.092,3.092,0,0,1,277.2,28.465Zm2.47,4.289c1.56,0,2.287.78,2.287,1.638,0,1.014-1.221,1.586-2.937,1.586a6.366,6.366,0,0,1-2.86-.624A3.618,3.618,0,0,1,279.669,32.755Zm-7.929,2.028A1.2,1.2,0,0,0,270.518,36a1.226,1.226,0,0,0,1.222,1.248A1.243,1.243,0,0,0,272.962,36,1.22,1.22,0,0,0,271.74,34.782Zm9.491-12.816h1.689c0-3.2-1.559-4.133-3.8-4.523-1.014-.156-2.08-0.312-2.08-2.782h-1.689c0,4.055,2.7,4.289,3.743,4.471C280.763,19.367,281.231,20.537,281.231,21.967Zm19.6,1.612V21.915H284.038v1.664h7.669v3.405a5.248,5.248,0,0,0-4.913,5.329,4.722,4.722,0,0,0,4.523,4.809V35.484a3.236,3.236,0,0,1-2.807-3.3c0-2.054,1.637-3.613,4.055-3.613s4.055,1.56,4.055,3.613a3.237,3.237,0,0,1-2.807,3.3v1.638a4.74,4.74,0,0,0,4.523-4.809,5.248,5.248,0,0,0-4.913-5.329V23.578h7.408Zm17.338,1.664V23.578h3.587V21.915H304.963v1.664h11.464v1.9c0.052,2.937-1.378,3.093-6.525,3.093v1.664c4.653,0,6.551-.1,6.551,2.08,0,2.21-1.95,3.249-4.211,3.249a9.48,9.48,0,0,1-5.017-1.586V35.64a8.317,8.317,0,0,0,5.173,1.586c3.4,0,5.8-1.95,5.8-4.809a3.506,3.506,0,0,0-1.56-3.145C317.285,28.907,318.169,27.971,318.169,25.242Zm-1.74-3.275h1.69c0-3.2-1.56-4.133-3.8-4.523-1.014-.156-2.079-0.312-2.079-2.782h-1.69c0,4.055,2.7,4.289,3.743,4.471C315.961,19.367,316.429,20.537,316.429,21.967Zm3.458-3.25a1.144,1.144,0,0,0,1.118-1.118,1.126,1.126,0,0,0-1.118-1.118A1.088,1.088,0,0,0,318.8,17.6,1.1,1.1,0,0,0,319.887,18.717Zm19.05,6.525V23.578h3.588V21.915H325.732v1.664H337.2v1.9c0.052,2.937-1.377,3.093-6.524,3.093v1.664c4.653,0,6.55-.1,6.55,2.08,0,2.21-1.949,3.249-4.211,3.249a9.483,9.483,0,0,1-5.017-1.586V35.64a8.32,8.32,0,0,0,5.173,1.586c3.406,0,5.8-1.95,5.8-4.809a3.506,3.506,0,0,0-1.56-3.145C338.053,28.907,338.937,27.971,338.937,25.242Zm10.79-3.327h-9.592v1.664h3.951V31.3h1.742V23.578h3.9V21.915Zm14.507,0h-5.095V33.742a7.191,7.191,0,0,1-2.5.39c-2.391,0-4-.65-4.679-2.366a11.422,11.422,0,0,0,1.4-5.511,7.8,7.8,0,0,0-1.2-4.341h-4.731v1.664h3.743a8.046,8.046,0,0,1,.52,3.015,10.984,10.984,0,0,1-1.586,5.173c0.624,2.755,3.172,4.081,5.927,4.081a7.918,7.918,0,0,0,3.094-.572v2.21h1.742V23.578h3.353V21.915Zm14.586,0h-5.095v7.721h-5.537a7.3,7.3,0,0,0,.026-0.754,11.448,11.448,0,0,0-2.262-6.967h-3.925v1.664h2.989A9.773,9.773,0,0,1,366.55,28.7c0,2.21-1.17,3.717-2.625,6.057l2,0.91a22.6,22.6,0,0,0,1.95-4.367h5.849v6.187h1.741V23.578h3.354V21.915Zm7.177,0h-9.592v1.664h3.951V31.3H382.1V23.578H386V21.915Zm14.559,1.664V21.915H383.763v1.664h7.668v3.405a5.248,5.248,0,0,0-4.913,5.329,4.722,4.722,0,0,0,4.523,4.809V35.484a3.237,3.237,0,0,1-2.807-3.3c0-2.054,1.638-3.613,4.055-3.613s4.055,1.56,4.055,3.613a3.236,3.236,0,0,1-2.807,3.3v1.638a4.74,4.74,0,0,0,4.523-4.809,5.248,5.248,0,0,0-4.913-5.329V23.578h7.409Zm1.874,11.178L400.9,40.735h1.56l1.689-5.979H402.43Zm28.8-12.842h-20.38v1.664h6.057a7.3,7.3,0,0,0-.078,1.17,9.266,9.266,0,0,0,.468,2.938,5.207,5.207,0,0,0-3.484,4.913,4.689,4.689,0,0,0,4.914,4.705V35.666a3.069,3.069,0,0,1-3.172-3.041,3.875,3.875,0,0,1,2.392-3.457,8.652,8.652,0,0,0,3.431,3.535,9.16,9.16,0,0,0,3.4-3.561,3.907,3.907,0,0,1,2.418,3.483,3.09,3.09,0,0,1-3.2,3.041V37.3a4.71,4.71,0,0,0,4.939-4.705,5.29,5.29,0,0,0-3.51-4.939,9.25,9.25,0,0,0,.494-2.911,5,5,0,0,0-.1-1.17h5.407V21.915Zm-7.018,2.834a7.187,7.187,0,0,1-2.834,6.031,6.709,6.709,0,0,1-2.833-5.979,8.515,8.515,0,0,1,.078-1.222h5.485A5.6,5.6,0,0,1,424.211,24.748Zm14.378-2.834H429v1.664h3.951V31.3h1.742V23.578h3.9V21.915Zm22.8,0h-3.951v-2.5c0-2.86-1.378-4.731-4.081-4.731-2.73,0-4.082,1.872-4.082,4.731V20.2h1.716v-0.78c0-2.418,1.3-3.067,2.366-3.067S455.7,17,455.7,19.419v2.5H436.2v1.664h3.639l1.716,5.563a7.649,7.649,0,0,0-2.86,3.743,7.2,7.2,0,0,0,7.1,4.835c2.651,0,4.939-1.04,5.8-2.158V33.768a7.483,7.483,0,0,1-5.511,2.314,5.872,5.872,0,0,1-5.563-3.2,5.111,5.111,0,0,1,5.069-3.145h5.251V23.578H455.7V37.486h1.742V23.578h3.951V21.915Zm-12.3,6.161h-3.509a7.939,7.939,0,0,0-2.444.338l-1.481-4.835h7.434v4.5Zm19.293,1.664h5.251V23.578h3.353V21.915H459v1.664h12.893v4.5h-3.509c-3.639,0-5.693,1.846-6.889,4.809a7.2,7.2,0,0,0,7.1,4.835c2.651,0,4.939-1.04,5.8-2.158V33.768a7.483,7.483,0,0,1-5.511,2.314,5.872,5.872,0,0,1-5.563-3.2A5.111,5.111,0,0,1,468.385,29.739Zm33.194-7.825h-5.1v6.655h-2.5a5.064,5.064,0,0,0-1.82-3.821c-2.028-.364-3.795,1.118-4.731,2.392,0.26-1.586.026-4.185-1.69-5.225h-4.783v1.664h3.951c1.378,1.534,1.3,4.133-.571,8.241l1.715,0.806c2.21-4.471,3.718-6.057,5.277-6.213,1.534,1.638,1.352,3.327-1.325,8.4l1.793,0.806a20.576,20.576,0,0,0,2.028-5.381h2.651v7.253h1.742V23.578h3.353V21.915ZM512.4,25.242V23.578h3.588V21.915H499.191v1.664h11.464v1.9c0.052,2.937-1.378,3.093-6.525,3.093v1.664c4.653,0,6.551-.1,6.551,2.08,0,2.21-1.95,3.249-4.211,3.249a9.484,9.484,0,0,1-5.018-1.586V35.64a8.321,8.321,0,0,0,5.174,1.586c3.405,0,5.8-1.95,5.8-4.809a3.506,3.506,0,0,0-1.559-3.145C511.513,28.907,512.4,27.971,512.4,25.242Zm-6.756-9.306,0.39,1.664a4.132,4.132,0,0,1,4.627,4.367h1.637A5.933,5.933,0,0,0,505.64,15.936ZM261.065,57.578h3.691V55.915h-3.535V55.837c0-3.509-2.08-6.291-5.719-6.291s-5.745,2.834-6.733,6.369h-4.393v1.664h4.029a21.5,21.5,0,0,0-.312,3.639c0,6.291,2.652,10.346,6.837,10.4a4.7,4.7,0,0,0,5.095-4.627,4.335,4.335,0,0,0-3.925-4.315A6.226,6.226,0,0,0,261.065,57.578ZM255.4,51.183c2.7-.1,4.081,1.872,4.081,4.705v0.026h-8.994C251.238,53.315,252.72,51.287,255.4,51.183Zm-2.236,10.606h-3.327V61.114a20.266,20.266,0,0,1,.286-3.535H259.3C258.7,60.178,256.619,61.789,253.162,61.789Zm5.121,5.251a2.935,2.935,0,0,1-3.2,2.938c-2.834,0-4.653-2.47-5.121-6.6h3.2C256.593,63.375,258.283,65.247,258.283,67.041Zm-7.694,6.109v1.534c0.7,0.676,2.781,1.04,4.211,1.04s3.509-.364,4.185-1.04V73.149a8.44,8.44,0,0,1-4.289.962A7.633,7.633,0,0,1,250.589,73.149Zm28.675-17.235h-5.1V67.742a7.189,7.189,0,0,1-2.5.39c-2.392,0-4-.65-4.68-2.366a11.422,11.422,0,0,0,1.4-5.511,7.8,7.8,0,0,0-1.2-4.341h-4.731v1.664h3.744a8.045,8.045,0,0,1,.52,3.015,10.984,10.984,0,0,1-1.586,5.173c0.624,2.755,3.171,4.081,5.927,4.081a7.913,7.913,0,0,0,3.093-.572v2.21h1.742V57.578h3.353V55.915Zm15.548,0H276.823v1.664h13.258V60.23a9.727,9.727,0,0,1-.6,3.509A6.21,6.21,0,0,0,284,60.36c-2.756,0-4.549,1.742-4.549,4.289,0,2.574,1.845,4.315,4.913,4.315a6.817,6.817,0,0,0,4.627-1.716,14.062,14.062,0,0,1,.234,2.677c0,0.546-.026,1.326-0.052,1.716h1.716c0-.52.026-1.144,0.026-1.664a14.489,14.489,0,0,0-.6-4.289,10.469,10.469,0,0,0,1.456-5.615l0.052-2.5h2.989V55.915ZM284.466,67.3c-2.08,0-3.276-1.014-3.276-2.652,0-1.612,1.17-2.625,2.964-2.625,1.95,0,3.509,1.2,4.341,3.405A5.023,5.023,0,0,1,284.466,67.3ZM309.32,55.915H292.527v1.664h11.386v4.341h-4.445c-3.38,0-4.732,1.664-4.732,3.769,0,3.094,3.172,5.823,6.317,5.823,3.094,0,4.627-2.21,4.627-5.329v-8.6h3.64V55.915Zm-8.163,13.959c-2.157,0-4.6-2-4.6-4.237,0-1.274.78-2.054,2.912-2.054h4.445v2.574C303.913,68.366,303.081,69.874,301.157,69.874Zm22.853-12.3V55.915H307.217v1.664h7.668v3.405a5.248,5.248,0,0,0-4.913,5.329,4.722,4.722,0,0,0,4.523,4.809V69.484a3.237,3.237,0,0,1-2.807-3.3c0-2.054,1.638-3.613,4.055-3.613s4.055,1.56,4.055,3.613a3.236,3.236,0,0,1-2.807,3.3v1.638a4.74,4.74,0,0,0,4.523-4.809,5.247,5.247,0,0,0-4.913-5.329V57.578h7.409Zm7.359-1.664h-9.592v1.664h3.951V65.3h1.742V57.578h3.9V55.915Zm-4.652-3.2a1.144,1.144,0,0,0,1.118-1.118,1.126,1.126,0,0,0-1.118-1.118,1.088,1.088,0,0,0-1.092,1.118A1.1,1.1,0,0,0,326.717,52.717Zm25.575,4.861V55.915H335.5v1.664h7.669v3.405a5.247,5.247,0,0,0-4.913,5.329,4.722,4.722,0,0,0,4.523,4.809V69.484a3.237,3.237,0,0,1-2.808-3.3c0-2.054,1.638-3.613,4.056-3.613s4.055,1.56,4.055,3.613a3.237,3.237,0,0,1-2.808,3.3v1.638a4.741,4.741,0,0,0,4.524-4.809,5.248,5.248,0,0,0-4.914-5.329V57.578h7.409Zm-8.42,16.533a7.635,7.635,0,0,1-4.107-.962v1.534c0.7,0.676,2.781,1.04,4.211,1.04s3.509-.364,4.185-1.04V73.149A8.438,8.438,0,0,1,343.872,74.111Zm0,3.743a7.635,7.635,0,0,1-4.107-.962v1.534c0.7,0.676,2.781,1.04,4.211,1.04s3.509-.364,4.185-1.04V76.893A8.438,8.438,0,0,1,343.872,77.855Zm0-23.89a3.353,3.353,0,1,0-3.354-3.353A3.4,3.4,0,0,0,343.872,53.965Zm0-1.534a1.833,1.833,0,1,1,1.819-1.82A1.776,1.776,0,0,1,343.872,52.431Zm40.367,3.483h-12.3v6.655h-2.5a5.064,5.064,0,0,0-1.82-3.821c-2.028-.364-3.795,1.118-4.731,2.392,0.26-1.586.026-4.185-1.69-5.225h-4.783v1.664h3.951c1.378,1.534,1.3,4.133-.572,8.241l1.716,0.806c2.21-4.471,3.717-6.057,5.277-6.213,1.534,1.638,1.352,3.327-1.326,8.4l1.794,0.806a20.576,20.576,0,0,0,2.028-5.381h2.651v7.253h1.742V57.578H378.6V65.3h1.742V57.578h3.9V55.915Zm7,7.825h5.251V57.578h3.354V55.915H381.852v1.664h12.893v4.5h-3.509c-3.639,0-5.693,1.846-6.889,4.809a7.2,7.2,0,0,0,7.1,4.835c2.652,0,4.939-1.04,5.8-2.158V67.768a7.481,7.481,0,0,1-5.511,2.314,5.872,5.872,0,0,1-5.563-3.2A5.111,5.111,0,0,1,391.236,63.739Zm3.512-7.773h1.689c0-3.2-1.559-4.133-3.8-4.523-1.014-.156-2.08-0.312-2.08-2.782h-1.689c0,4.055,2.7,4.289,3.743,4.471C394.28,53.367,394.748,54.537,394.748,55.967Zm19.678-.052h-5.095v7.721h-5.537a7.3,7.3,0,0,0,.026-0.754,11.453,11.453,0,0,0-2.261-6.967h-3.926v1.664h2.99a9.773,9.773,0,0,1,1.534,5.121c0,2.21-1.17,3.717-2.626,6.057l2,0.91a22.586,22.586,0,0,0,1.949-4.367h5.849v6.187h1.742V57.578h3.353V55.915Zm-10.11-5.979,0.39,1.664a4.132,4.132,0,0,1,4.628,4.367h1.637A5.933,5.933,0,0,0,404.316,49.936Zm17.08,13.8h5.251V57.578H430V55.915H412.011v1.664h12.894v4.5H421.4c-3.64,0-5.693,1.846-6.889,4.809a7.2,7.2,0,0,0,7.1,4.835c2.651,0,4.939-1.04,5.8-2.158V67.768a7.483,7.483,0,0,1-5.511,2.314,5.871,5.871,0,0,1-5.563-3.2A5.11,5.11,0,0,1,421.4,63.739Zm30.517-7.825H433.924v1.664h13.258V60.23a9.727,9.727,0,0,1-.6,3.509A6.211,6.211,0,0,0,441.1,60.36c-2.756,0-4.549,1.742-4.549,4.289,0,2.574,1.845,4.315,4.913,4.315a6.819,6.819,0,0,0,4.627-1.716,14.062,14.062,0,0,1,.234,2.677c0,0.546-.026,1.326-0.052,1.716h1.715c0-.52.026-1.144,0.026-1.664a14.49,14.49,0,0,0-.6-4.289,10.478,10.478,0,0,0,1.455-5.615l0.052-2.5h2.99V55.915ZM441.567,67.3c-2.08,0-3.276-1.014-3.276-2.652,0-1.612,1.17-2.625,2.964-2.625,1.949,0,3.509,1.2,4.341,3.405A5.024,5.024,0,0,1,441.567,67.3Zm24.854-11.386H449.628v1.664h11.386v4.341h-4.446c-3.379,0-4.731,1.664-4.731,3.769,0,3.094,3.172,5.823,6.317,5.823,3.093,0,4.627-2.21,4.627-5.329v-8.6h3.64V55.915Zm-8.163,13.959c-2.158,0-4.6-2-4.6-4.237,0-1.274.78-2.054,2.911-2.054h4.446v2.574C461.014,68.366,460.182,69.874,458.258,69.874Zm2.783-13.907h1.69c0-3.2-1.56-4.133-3.8-4.523-1.014-.156-2.08-0.312-2.08-2.782h-1.69c0,4.055,2.7,4.289,3.744,4.471C460.573,53.367,461.041,54.537,461.041,55.967Zm11.179,0.286h-1.742V70.42h1.742V56.252Z"/>
</svg>
