<svg id="Frame_3" data-name="Frame 3" xmlns="http://www.w3.org/2000/svg" width="728" height="90" viewBox="0 0 728 90">
  <defs>
    <style>
      .cls-1 {
        fill: #4b286d;
      }

      .cls-1, .cls-2 {
        fill-rule: evenodd;
      }

      .cls-2 {
        fill: #462b69;
      }
    </style>
  </defs>
  <path id="SmartHome_Security_ਪਲੈਨਜ਼_ਸ਼ੁਰੂ_15ਪ੍ਰਤੀ_ਮਹੀਨਾ_ਤੋਂ_" data-name="SmartHome Security  ਪਲੈਨਜ਼ ਸ਼ੁਰੂ   15ਪ੍ਰਤੀ ਮਹੀਨਾ ਤੋਂ *" class="cls-1" d="M258.872,37.574c4.691,0,7.324-2.277,7.324-5.733,0-2.825-1.591-4.581-6.089-5.568l-1.728-.384c-3.676-.823-4.581-1.755-4.581-3.621,0-1.838,1.454-3.017,4.279-3.017,3.895,0,5.074,1.509,5.266,4.032H265.7c-0.082-3.182-1.865-6.117-7.625-6.117-4.06,0-6.665,1.975-6.665,5.1,0,3.566,2.6,4.91,5.924,5.65l1.728,0.384c3.456,0.768,4.746,1.673,4.746,3.538,0,2.414-1.811,3.648-4.938,3.648-3.181,0-5.677-1.179-5.732-4.8h-2.387C250.808,35.572,254.209,37.574,258.872,37.574ZM283.61,22.653a4.889,4.889,0,0,0-4.361,2.661,4.432,4.432,0,0,0-4.361-2.661,4.546,4.546,0,0,0-4.087,2.414V22.982h-2.085V37.135h2.195V29.4c0-3.4,1.892-4.773,3.62-4.773,1.838,0,2.963.933,2.963,3.127v9.381h2.194V29.4c0-3.4,1.838-4.773,3.621-4.773,1.865,0,2.962.933,2.962,3.127v9.381h2.194v-9.6C288.465,24.792,286.9,22.653,283.61,22.653Zm19.731,12.7a0.649,0.649,0,0,1-.768-0.686v-7.9c0-2.386-1.4-4.114-5.321-4.114-4.142,0-5.6,1.948-5.761,4.69h2.195c0.137-2.112,1.152-2.8,3.566-2.8s3.181,0.741,3.181,2.222c0,1.262-.8,1.783-2.221,1.947l-2.03.22c-3.9.411-5.239,2.167-5.239,4.389,0,2.661,1.92,4.142,4.992,4.142a5.187,5.187,0,0,0,4.608-2.277c0.11,1.344.823,2.03,2.386,2.03a8.33,8.33,0,0,0,1.207-.082V35.353h-0.8Zm-7.3.247c-1.948,0-2.825-.933-2.825-2.331,0-1.372.713-2.249,3.291-2.551l2.057-.247a3.65,3.65,0,0,0,1.865-.6V31.54C300.433,34.338,298.157,35.6,296.045,35.6Zm16.7-12.837a4.942,4.942,0,0,0-4.553,2.716v-2.5h-2.085V37.135H308.3V29.071c0-2.743,1.81-4.169,4.635-4.169h0.549V22.79C313.183,22.763,312.964,22.763,312.744,22.763Zm9.6,2.14v-1.92h-2.907v-4h-2.194v4h-2.332V24.9h2.332v9.381c0,2.167,1.344,2.935,3.538,2.935q0.658,0,1.563-.082V35.3h-1.289c-1.262,0-1.618-.466-1.618-1.207V24.9h2.907Zm15.487-7.3V26h-10.89V17.606h-2.3V37.135h2.3v-9h10.89v9h2.3V17.606h-2.3Zm11.93,19.859c3.977,0,6.858-2.88,6.858-7.406s-2.881-7.406-6.858-7.406-6.857,2.88-6.857,7.406S345.786,37.465,349.763,37.465Zm0-1.975c-2.743,0-4.553-2-4.553-5.431s1.81-5.431,4.553-5.431,4.553,2,4.553,5.431S352.506,35.49,349.763,35.49Zm24.314-12.837a4.889,4.889,0,0,0-4.362,2.661,4.431,4.431,0,0,0-4.361-2.661,4.548,4.548,0,0,0-4.087,2.414V22.982h-2.084V37.135h2.194V29.4c0-3.4,1.893-4.773,3.621-4.773,1.837,0,2.962.933,2.962,3.127v9.381h2.194V29.4c0-3.4,1.838-4.773,3.621-4.773,1.865,0,2.962.933,2.962,3.127v9.381h2.195v-9.6C378.932,24.792,377.368,22.653,374.077,22.653Zm20.429,7.406c0-4.059-2.276-7.406-6.5-7.406-3.923,0-6.528,2.962-6.528,7.406,0,4.581,2.715,7.406,6.583,7.406a5.9,5.9,0,0,0,6.089-4.635h-2.277a3.635,3.635,0,0,1-3.758,2.633c-2.468,0-4.141-1.454-4.361-4.635h10.752V30.059Zm-6.5-5.4c2.523,0,3.922,1.865,4.142,4.2h-8.339C384.166,26.054,385.784,24.655,388.006,24.655Zm20.565,12.919c4.69,0,7.324-2.277,7.324-5.733,0-2.825-1.591-4.581-6.09-5.568l-1.728-.384c-3.675-.823-4.58-1.755-4.58-3.621,0-1.838,1.453-3.017,4.279-3.017,3.894,0,5.074,1.509,5.266,4.032H415.4c-0.082-3.182-1.865-6.117-7.625-6.117-4.06,0-6.666,1.975-6.666,5.1,0,3.566,2.606,4.91,5.925,5.65l1.728,0.384c3.456,0.768,4.745,1.673,4.745,3.538,0,2.414-1.81,3.648-4.937,3.648-3.182,0-5.678-1.179-5.733-4.8h-2.386C400.507,35.572,403.908,37.574,408.571,37.574Zm22.069-7.515c0-4.059-2.276-7.406-6.5-7.406-3.923,0-6.529,2.962-6.529,7.406,0,4.581,2.716,7.406,6.583,7.406a5.905,5.905,0,0,0,6.09-4.635h-2.277a3.636,3.636,0,0,1-3.758,2.633c-2.468,0-4.141-1.454-4.361-4.635H430.64V30.059Zm-6.5-5.4c2.523,0,3.922,1.865,4.141,4.2h-8.338C420.3,26.054,421.918,24.655,424.14,24.655Zm14.9,12.809a5.839,5.839,0,0,0,6.09-5.184h-2.249a3.719,3.719,0,0,1-3.841,3.209c-2.358,0-4.251-1.728-4.251-5.431s1.838-5.431,4.251-5.431a3.685,3.685,0,0,1,3.813,3.154h2.277a5.736,5.736,0,0,0-6.09-5.129c-3.922,0-6.555,2.853-6.555,7.406S435.175,37.465,439.042,37.465Zm17.7-14.482v8.009c0,3.127-2.057,4.5-3.894,4.5-2.03,0-3.237-.96-3.237-3.154V22.982h-2.194v9.573c0,3.127,1.837,4.91,4.992,4.91a5.213,5.213,0,0,0,4.443-2.441v2.112h2.085V22.982H456.74Zm12.092-.22a4.944,4.944,0,0,0-4.554,2.716v-2.5h-2.084V37.135h2.194V29.071c0-2.743,1.81-4.169,4.636-4.169h0.548V22.79C469.271,22.763,469.051,22.763,468.832,22.763Zm3.861-1.783a1.481,1.481,0,1,0-1.481-1.481A1.492,1.492,0,0,0,472.693,20.98Zm-1.1,16.156h2.194V22.982H471.6V37.135ZM483.087,24.9v-1.92h-2.908v-4h-2.194v4h-2.331V24.9h2.331v9.381c0,2.167,1.344,2.935,3.538,2.935q0.658,0,1.564-.082V35.3H481.8c-1.262,0-1.619-.466-1.619-1.207V24.9h2.908Zm11.772-1.92-2,5.87c-0.714,2.057-1.4,4.114-2.03,6.144-0.658-2.03-1.317-4.06-2.03-6.117l-2-5.9h-2.414L489.7,37.6c-0.164.439-.329,0.905-0.493,1.317a2.48,2.48,0,0,1-2.579,1.755h-1.289v1.838a10.936,10.936,0,0,0,1.317.082,4.277,4.277,0,0,0,4.608-3.237l5.979-16.375h-2.386Zm-261.7,30.6H227.56v12.48a7.917,7.917,0,0,1-2.359.329c-2.387,0-4.279-.768-4.8-2.3a12.244,12.244,0,0,0,1.481-5.76,8.368,8.368,0,0,0-1.344-4.745h-5.1v2.085h3.813a7.115,7.115,0,0,1,.493,2.907,11.468,11.468,0,0,1-1.728,5.513c0.494,2.935,3.374,4.526,6.474,4.526a8.77,8.77,0,0,0,3.072-.549V70.2h2.276V55.667h3.319V53.582Zm19.277,0h-21.5v2.085h6.007c-0.027.274-.055,0.6-0.055,0.96a10.259,10.259,0,0,0,.466,3.045,5.766,5.766,0,0,0-3.648,5.321,5.128,5.128,0,0,0,5.4,5.1V68.037a3.07,3.07,0,0,1-3.127-3.045,3.869,3.869,0,0,1,2.222-3.4,9.42,9.42,0,0,0,3.7,3.7,9.437,9.437,0,0,0,3.675-3.73,3.855,3.855,0,0,1,2.249,3.429,3.077,3.077,0,0,1-3.154,3.045v2.057c2.578,0,5.431-1.7,5.431-5.1a5.75,5.75,0,0,0-3.676-5.321,9.5,9.5,0,0,0,.494-3.017c0-.357-0.027-0.686-0.055-0.987h5.568V53.582Zm-7.762,3.127A7.321,7.321,0,0,1,241.9,62.8a7.016,7.016,0,0,1-2.771-6.062c0-.384.028-0.741,0.055-1.07h5.431C244.643,56,244.67,56.353,244.67,56.709Zm-4.806-14.564,0.576,2.3c1.948,0.329,3.978,1.591,4.471,3.621a8.524,8.524,0,0,0-5.074-1.591l0.549,2.249c2.962,0.11,4.2,1.125,4.2,2.139h2.277C246.859,45.574,244.253,42.337,239.864,42.145Zm28.389,13.522V53.582h-17.72v2.085h7.873v3.209a5.724,5.724,0,0,0-5.185,5.842,5.163,5.163,0,0,0,4.993,5.212V67.818a3.225,3.225,0,0,1-2.743-3.291,4.083,4.083,0,0,1,8.119,0,3.226,3.226,0,0,1-2.743,3.291V69.93a5.182,5.182,0,0,0,4.992-5.212,5.7,5.7,0,0,0-5.157-5.842V55.667h7.571Zm16.4-2.085H265.669v2.085h13v5.678h-6.144a17.379,17.379,0,0,0-.6-2.743l-3.292,1.152a5.585,5.585,0,0,1,1.728,3.675A28.353,28.353,0,0,1,269.29,70.2h2.3a26.413,26.413,0,0,0,.96-6.775h6.116V70.2h2.277V55.667h3.7V53.582Zm-9.161,12.974a1.413,1.413,0,1,0,0,2.825A1.413,1.413,0,1,0,275.489,66.556Zm33.537-12.974H291.307v2.085h3.072a10.371,10.371,0,0,1,1.508,5.184c0,2.331-1.289,3.813-2.852,6.281l2.66,1.18a31.138,31.138,0,0,0,1.948-4.526h5.787V70.2h2.277V55.667h3.319V53.582Zm-5.6,2.085v6.007H298a4.554,4.554,0,0,0,.028-0.631,13.321,13.321,0,0,0-1.125-5.376h6.528Zm-3.346,10.807a1.413,1.413,0,1,0,0,2.825A1.413,1.413,0,1,0,300.084,66.474ZM299.941,75.5a8.061,8.061,0,0,1-4.334-1.015v1.865c0.741,0.713,2.935,1.125,4.444,1.125s3.7-.412,4.416-1.125V74.482A8.9,8.9,0,0,1,299.941,75.5Zm24.467-21.915H306.689v2.085h11.9v4.306h-4.5c-3.7,0-5.239,1.838-5.239,4.169,0,3.4,3.511,6.144,6.857,6.144,3.484,0,5.184-2.194,5.184-5.623v-9h3.511V53.582ZM315.85,68.2c-2.084,0-4.553-1.893-4.553-4.114,0-1.234.741-1.975,2.8-1.975h4.5v2.524C318.593,66.831,317.77,68.2,315.85,68.2Zm0.049,7.3a8.054,8.054,0,0,1-4.333-1.015v1.865c0.74,0.713,2.935,1.125,4.443,1.125s3.7-.412,4.416-1.125V74.482A8.9,8.9,0,0,1,315.9,75.5Zm0,3.95a8.055,8.055,0,0,1-4.333-1.015V80.3c0.74,0.713,2.935,1.125,4.443,1.125s3.7-.411,4.416-1.125V78.432A8.9,8.9,0,0,1,315.9,79.447ZM350.865,50.51H347.93c-0.6,2.8-2.3,3.566-4.827,3.73l-0.439.027v2.606h4.5V70.04h3.7V50.51ZM361.23,57.2a5.56,5.56,0,0,0-3.566,1.289l0.85-4.855h8.393V50.51h-11.3L353.8,61.893h3.4a3.8,3.8,0,1,1,3.428,5.6,3.476,3.476,0,0,1-3.675-3.017h-3.539c0.275,3.73,3.264,6.007,7.214,6.007,4.307,0,7.3-2.716,7.3-6.775C367.922,60.248,365.728,57.2,361.23,57.2Zm27.395-4h-6.172V65.651a7.828,7.828,0,0,1-1.591.165c-2,0-4.471-.905-4.416-1.728a12.661,12.661,0,0,0,1.481-5.623,9.066,9.066,0,0,0-1.536-5.266h-5.486v3.1h3.484a5.548,5.548,0,0,1,.274,2.194,11.188,11.188,0,0,1-1.81,5.6c-0.082,2.935,3.429,5.1,6.994,5.1a9.084,9.084,0,0,0,2.606-.411v1.646h3.456V56.3h2.716V53.2Zm15.848,0H386.754v3.1H398.22v3.648h-3.813c-4.2,0-6.007,2.03-6.007,4.69,0,3.675,3.977,6.089,7.433,6.089,4.115,0,5.98-1.865,5.98-5.623V56.3h2.66V53.2Zm-8.448,14.428c-1.563,0-3.757-1.207-3.757-3.1,0-.933.493-1.454,2.139-1.454h3.813v2C398.22,66.94,397.7,67.626,396.025,67.626Zm-2.09,8.639,1.674-1.865a24.576,24.576,0,0,1,6.171,5.9L399.2,81.669A16.846,16.846,0,0,0,393.935,76.265ZM420.322,53.2H402.6v3.1h11.246v1.289c0.054,2.661-1.866,2.441-6.035,2.441v3.1c4.115,0,6.062.082,6.062,1.81,0,1.4-1.481,2.5-3.73,2.5a9.671,9.671,0,0,1-5.157-1.783v3.264a9.211,9.211,0,0,0,5.513,1.646c4.115,0,6.885-2.441,6.885-5.65a5.521,5.521,0,0,0-1.179-3.456c0.685-.713,1.179-1.234,1.179-4.114V56.3h2.935V53.2Zm7.592,0h-3.346V51.059a5.145,5.145,0,0,0-10.286,0v0.823h3.511V51.059a1.73,1.73,0,0,1,1.646-1.865,1.752,1.752,0,0,1,1.673,1.865V53.2h-3.319v3.1h3.292V70.424h3.456V56.3h3.373V53.2Zm27.533,0h-6.172v8.009h-4.251V61.043a13.894,13.894,0,0,0-2.387-7.845h-4.909v3.1h2.77a9.383,9.383,0,0,1,1.262,4.553c0,2.331-1.427,3.538-3.018,5.952l4.087,1.81c0.851-2.085,1.372-3.374,1.673-4.306h4.773v6.117h3.456V56.3h2.716V53.2Zm14.971,0H452.7v3.1h12.344v8.5c0,1.865-.549,2.551-2.14,2.551-1.646,0-3.813-1.207-3.813-3.1,0-.933.494-1.454,2.14-1.454h0.878V59.672h-0.878c-4.2,0-6.007,2.03-6.007,4.663,0,3.7,3.922,6.117,7.515,6.117,4,0,5.9-1.865,5.9-5.623V56.3h1.783V53.2Zm7.592,0h-3.346V51.059a5.145,5.145,0,0,0-10.286,0v0.823h3.511V51.059a1.73,1.73,0,0,1,1.646-1.865,1.752,1.752,0,0,1,1.673,1.865V53.2h-3.319v3.1h3.291V70.424h3.456V56.3h3.374V53.2Zm15.934,3.1V53.2H476.225v3.1h7.241v2.194a6.139,6.139,0,0,0-5.184,6.363,5.643,5.643,0,0,0,5.623,5.6v-3.1a2.828,2.828,0,0,1-2.14-2.88,3.492,3.492,0,0,1,6.94,0,2.823,2.823,0,0,1-2.167,2.88v3.1a5.661,5.661,0,0,0,5.623-5.6,6.139,6.139,0,0,0-5.184-6.363V56.3h6.967Zm8.387-3.1H492.21v3.1h3.319v7.3h3.456V56.3h3.346V53.2Zm20.813,4.032V55.667h3.566V53.582H508.991v2.085h11.876v1.81c0.055,2.99-1.563,3.072-6.665,3.072v2.085c4.691,0,6.693-.055,6.693,2.112,0,2.057-1.92,3.154-4.252,3.154a9.983,9.983,0,0,1-5.266-1.673v2.139c0.96,0.933,3.292,1.673,5.486,1.673,3.73,0,6.309-2.167,6.309-5.239a4.124,4.124,0,0,0-1.537-3.346C522.321,60.988,523.144,60.11,523.144,57.23Zm-2.282-6.363H523c0-3.538-1.975-4.5-4.087-4.828-1.042-.137-2.03-0.192-2.03-2.743h-2.167c0,4.444,2.825,4.636,4.142,4.882C520.012,48.344,520.862,49.167,520.862,50.868Zm-3.209-3.045a1.3,1.3,0,0,0,1.317-1.317,1.323,1.323,0,0,0-1.317-1.344,1.306,1.306,0,0,0-1.317,1.344A1.284,1.284,0,0,0,517.653,47.823Zm13.671,4.2,1.284-1.732,1.284,1.732,1-.791-1.3-1.777,2.09-.672-0.418-1.194-2.015.642V46.071h-1.284v2.165l-2-.642-0.418,1.194,2.091,0.672-1.314,1.777Z"/>
  <path id="_" data-name="$" class="cls-2" d="M342,61.577c0-2.274-1.376-3.583-4.775-4.247l-0.466-.081V53.265a2.255,2.255,0,0,1,2.166,2.335h2.65c-0.1-2.456-1.517-4.227-4.816-4.549V49H335.3V51.01c-3.2.141-4.938,1.771-4.938,4.046,0,2.6,1.842,3.824,4.634,4.348l0.3,0.06v4.267a2.6,2.6,0,0,1-2.611-2.8H330c0.02,3.039,1.983,4.77,5.3,5.012V68h1.456V65.965C340.016,65.8,342,64.254,342,61.577Zm-8.842-6.6c0-.986.708-1.651,2.145-1.751v3.7C333.683,56.525,333.157,56,333.157,54.975Zm3.6,8.8V59.766c1.781,0.423,2.408.926,2.408,1.953C339.166,62.946,338.317,63.651,336.758,63.771Z"/>
</svg>
