<svg xmlns="http://www.w3.org/2000/svg" width="728" height="90" viewBox="0 0 728 90">
  <defs>
    <style>
      .cls-1 {
        fill: #4b286d;
        fill-rule: evenodd;
      }
    </style>
  </defs>
  <path class="cls-1" d="M246.76,30.472H249.2c0.057,3.765,2.611,4.99,5.869,4.99,3.2,0,5.056-1.283,5.056-3.791,0-1.941-1.32-2.883-4.858-3.681l-1.771-.4c-3.4-.771-6.066-2.17-6.066-5.879,0-3.25,2.669-5.3,6.824-5.3,5.9,0,7.724,3.051,7.81,6.36h-2.417c-0.2-2.623-1.4-4.192-5.393-4.192-2.892,0-4.38,1.227-4.38,3.136,0,1.941.928,2.91,4.69,3.767l1.77,0.4c4.606,1.028,6.235,2.854,6.235,5.793,0,3.592-2.7,5.961-7.5,5.961-4.774,0-8.256-2.084-8.313-7.16m38.649-3.281v9.984h-2.248V27.419c0-2.283-1.122-3.252-3.033-3.252-1.825,0-3.7,1.426-3.7,4.962v8.045h-2.248V27.419c0-2.283-1.152-3.252-3.034-3.252-1.77,0-3.707,1.426-3.707,4.962v8.045h-2.248V22.456h2.137v2.168a4.641,4.641,0,0,1,4.184-2.508,4.533,4.533,0,0,1,4.465,2.766,5,5,0,0,1,4.465-2.766c3.37,0,4.972,2.224,4.972,5.076m16.081,8.13v1.854a8.393,8.393,0,0,1-1.238.086c-1.6,0-2.33-.712-2.444-2.11a5.282,5.282,0,0,1-4.717,2.367c-3.145,0-5.111-1.541-5.111-4.308,0-2.309,1.375-4.135,5.363-4.563l2.078-.229c1.461-.171,2.276-0.714,2.276-2.025,0-1.541-.787-2.311-3.259-2.311s-3.509.714-3.65,2.91H288.54c0.17-2.852,1.658-4.877,5.9-4.877,4.017,0,5.45,1.8,5.45,4.278v8.214a0.668,0.668,0,0,0,.785.714h0.817ZM297.7,31.355V29.616a3.72,3.72,0,0,1-1.91.627l-2.107.257c-2.639.312-3.37,1.227-3.37,2.653,0,1.454.9,2.424,2.893,2.424,2.163,0,4.494-1.313,4.494-4.222m13.395-9.1v2.2H310.53c-2.892,0-4.747,1.482-4.747,4.334v8.387h-2.246V22.455h2.135v2.6a5.054,5.054,0,0,1,4.662-2.826,7.241,7.241,0,0,1,.758.03m6.127,2.2v9.556c0,0.77.366,1.253,1.659,1.253H320.2v1.911c-0.617.058-1.152,0.085-1.6,0.085-2.248,0-3.625-.8-3.625-3.051V24.453h-2.385v-2h2.385V18.292h2.248v4.163H320.2v2h-2.977Zm21.228-7.588v20.31h-2.36V27.817h-11.15v9.357h-2.358V16.865h2.358v8.729h11.15V16.865h2.36Zm2.869,12.951c0-4.706,2.949-7.7,7.021-7.7s7.022,3,7.022,7.7-2.949,7.7-7.022,7.7-7.021-3-7.021-7.7m11.683,0c0-3.566-1.853-5.648-4.662-5.648s-4.663,2.082-4.663,5.648,1.854,5.646,4.663,5.646S353,33.382,353,29.816m25.243-2.625v9.984h-2.248V27.419c0-2.283-1.122-3.252-3.031-3.252-1.827,0-3.707,1.426-3.707,4.962v8.045h-2.248V27.419c0-2.283-1.152-3.252-3.033-3.252-1.771,0-3.707,1.426-3.707,4.962v8.045H358.02V22.456h2.136v2.168a4.642,4.642,0,0,1,4.183-2.508,4.532,4.532,0,0,1,4.467,2.766,4.993,4.993,0,0,1,4.464-2.766c3.371,0,4.972,2.224,4.972,5.076m15.981,3.423H383.214c0.225,3.309,1.937,4.819,4.463,4.819a3.729,3.729,0,0,0,3.85-2.737h2.33a6.064,6.064,0,0,1-6.235,4.821c-3.96,0-6.74-2.939-6.74-7.7,0-4.622,2.667-7.7,6.683-7.7,4.328,0,6.658,3.479,6.658,7.7v0.8ZM383.269,28.56h8.538c-0.224-2.424-1.657-4.363-4.242-4.363-2.273,0-3.93,1.456-4.3,4.363m17.041,1.913h2.444c0.055,3.765,2.611,4.99,5.869,4.99,3.2,0,5.056-1.283,5.056-3.791,0-1.941-1.32-2.883-4.858-3.681l-1.77-.4c-3.4-.771-6.065-2.17-6.065-5.879,0-3.25,2.665-5.3,6.822-5.3,5.9,0,7.724,3.051,7.808,6.36H413.2c-0.2-2.623-1.4-4.192-5.393-4.192-2.892,0-4.38,1.227-4.38,3.136,0,1.941.928,2.91,4.69,3.767l1.768,0.4c4.608,1.028,6.235,2.854,6.235,5.793,0,3.592-2.694,5.961-7.5,5.961-4.772,0-8.256-2.084-8.313-7.16m30.945,0.142h-11.01c0.226,3.309,1.937,4.819,4.464,4.819a3.727,3.727,0,0,0,3.849-2.737h2.331a6.065,6.065,0,0,1-6.235,4.821c-3.96,0-6.741-2.939-6.741-7.7,0-4.622,2.668-7.7,6.684-7.7,4.327,0,6.658,3.479,6.658,7.7v0.8ZM420.3,28.56h8.538c-0.225-2.424-1.656-4.363-4.241-4.363-2.274,0-3.93,1.456-4.3,4.363m12.88,1.256c0-4.735,2.694-7.7,6.711-7.7a5.9,5.9,0,0,1,6.235,5.334H443.8a3.788,3.788,0,0,0-3.9-3.281c-2.47,0-4.353,1.8-4.353,5.648s1.938,5.646,4.353,5.646a3.821,3.821,0,0,0,3.932-3.337h2.3a6.005,6.005,0,0,1-6.235,5.392c-3.958,0-6.711-2.965-6.711-7.7m27.123-7.36V37.175H458.17v-2.2a5.324,5.324,0,0,1-4.551,2.538c-3.231,0-5.111-1.855-5.111-5.105V22.456h2.246v9.727c0,2.281,1.236,3.28,3.314,3.28,1.883,0,3.989-1.426,3.989-4.678V22.456H460.3Zm10.922-.2v2.2h-0.562c-2.894,0-4.747,1.482-4.747,4.334v8.387H463.67V22.455h2.135v2.6a5.051,5.051,0,0,1,4.662-2.826,7.232,7.232,0,0,1,.758.03m1.712-3.423a1.517,1.517,0,1,1,1.516,1.541,1.54,1.54,0,0,1-1.516-1.541m0.393,3.623h2.248V37.175H473.33V22.456Zm8.819,2v9.556c0,0.77.366,1.253,1.659,1.253h1.318v1.911c-0.617.058-1.152,0.085-1.6,0.085-2.248,0-3.625-.8-3.625-3.051V24.453h-2.385v-2H479.9V18.292h2.248v4.163h2.977v2h-2.977Zm17.506-2-6.123,17.03c-0.926,2.6-2.414,3.365-4.717,3.365a10.963,10.963,0,0,1-1.349-.085V40.854h1.321a2.542,2.542,0,0,0,2.64-1.826c0.168-.428.337-0.913,0.5-1.368l-5.448-15.2h2.47l2.052,6.133c0.73,2.138,1.4,4.25,2.078,6.36,0.646-2.11,1.349-4.248,2.079-6.39l2.049-6.1h2.443ZM281.812,67.77a1.47,1.47,0,0,0,0,2.939,1.47,1.47,0,0,0,0-2.939M271.757,54.279H252.5c-0.009-5.488-2.674-8.844-7.16-9.043l0.59,2.4A5.494,5.494,0,0,1,250.5,51.4a8.653,8.653,0,0,0-5.2-1.653l0.564,2.339c3,0.114,4.27,1.152,4.291,2.2H232.735V67.257a7.956,7.956,0,0,1-2.414.344c-2.444,0-4.383-.8-4.915-2.4a12.9,12.9,0,0,0,1.515-5.99,8.8,8.8,0,0,0-1.376-4.934h-5.223v2.166h3.9a7.511,7.511,0,0,1,.5,3.023,12.059,12.059,0,0,1-1.768,5.736c0.505,3.051,3.454,4.706,6.627,4.706a8.857,8.857,0,0,0,3.146-.571v2.225h2.333V56.445h7.267c-0.027.286-.056,0.628-0.056,1a10.817,10.817,0,0,0,.477,3.168,5.992,5.992,0,0,0-3.734,5.533,5.285,5.285,0,0,0,5.532,5.306v-2.14a3.167,3.167,0,0,1-3.2-3.166,4.029,4.029,0,0,1,2.276-3.538,9.7,9.7,0,0,0,3.791,3.85,9.732,9.732,0,0,0,3.764-3.878,4.01,4.01,0,0,1,2.3,3.566,3.173,3.173,0,0,1-3.231,3.166v2.14a5.308,5.308,0,0,0,5.561-5.306,5.974,5.974,0,0,0-3.764-5.533,10.005,10.005,0,0,0,.507-3.138c0-.372-0.029-0.712-0.056-1.028h11.816v3.337a5.923,5.923,0,0,0-5.307,6.078,5.333,5.333,0,0,0,5.112,5.418v-2.2a3.341,3.341,0,0,1-2.809-3.423,4.174,4.174,0,0,1,8.313,0,3.342,3.342,0,0,1-2.808,3.423v2.2a5.351,5.351,0,0,0,5.111-5.418,5.9,5.9,0,0,0-5.279-6.078V56.445H285.07v5.9h-6.29a18.464,18.464,0,0,0-.619-2.852l-3.37,1.2a5.846,5.846,0,0,1,1.77,3.821,29.908,29.908,0,0,1-1.1,7.046h2.36a27.794,27.794,0,0,0,.983-7.046h6.263v7.046H287.4V56.445h3.791V54.279H271.757Zm-24.338,9.582a7.34,7.34,0,0,1-2.836-6.3c0-.4.028-0.771,0.055-1.114H250.2c0.027,0.342.055,0.714,0.055,1.084a7.66,7.66,0,0,1-2.836,6.332m61.04,5.277A1.476,1.476,0,0,0,307,67.685a1.469,1.469,0,0,0,0,2.938,1.481,1.481,0,0,0,1.463-1.484m-6.046,4.023V75.1c0.758,0.742,3.006,1.169,4.551,1.169s3.791-.428,4.522-1.169V73.161a9.013,9.013,0,0,1-4.633,1.054,8.168,8.168,0,0,1-4.44-1.054m13.741-18.883H298.009v2.166h3.147a10.921,10.921,0,0,1,1.543,5.392c0,2.426-1.32,3.966-2.92,6.531l2.724,1.227a32.763,32.763,0,0,0,2-4.706h5.925v6.674h2.331V56.445H325.95v4.48h-4.606c-3.791,0-5.364,1.91-5.364,4.334,0,3.536,3.6,6.39,7.021,6.39,3.566,0,5.308-2.281,5.308-5.847V56.445h3.6V54.279H316.154Zm-5.73,8.413h-5.561a5.1,5.1,0,0,0,.027-0.656,14.03,14.03,0,0,0-1.151-5.591h6.685v6.247Zm15.526,3.082c0,2.281-.842,3.707-2.808,3.707-2.135,0-4.663-1.969-4.663-4.278,0-1.283.76-2.054,2.865-2.054h4.606v2.625Zm-7.195,11.5v1.937c0.756,0.744,3,1.171,4.549,1.171s3.793-.428,4.522-1.171V77.269a9.017,9.017,0,0,1-4.634,1.054,8.153,8.153,0,0,1-4.437-1.054m0-4.108V75.1c0.756,0.742,3,1.169,4.549,1.169s3.793-.428,4.522-1.169V73.161a9.017,9.017,0,0,1-4.634,1.054,8.153,8.153,0,0,1-4.437-1.054m24.6-10.041v1.655h-0.982V63.121c-2.923-.171-4.355-1.683-4.437-4.021h2.47a1.784,1.784,0,0,0,1.967,1.939V58.015l-0.282-.058c-2.416-.4-3.9-1.34-3.9-3.651,0-2,1.349-3.393,4.186-3.479V49.173h0.982v1.683c2.641,0.2,3.961,1.539,4.073,3.737h-2.444a1.593,1.593,0,0,0-1.629-1.684v2.883l0.507,0.084c2.555,0.485,3.9,1.37,3.9,3.566,0,2.339-1.741,3.538-4.41,3.679m-0.982-7.531V52.882c-1.18.084-1.631,0.541-1.631,1.311,0,0.742.366,1.142,1.631,1.4m2.836,4.023c0-.8-0.45-1.14-1.854-1.426v2.88c1.292-.086,1.854-0.569,1.854-1.454m12.282,11.78H353.7V57.7H349.1V54.992l0.448-.03c2.585-.171,4.328-0.971,4.945-3.88h3v20.31Zm17.5-6.588c0,4.22-3.06,7.044-7.472,7.044-4.044,0-7.105-2.367-7.386-6.247h3.624a3.574,3.574,0,0,0,3.762,3.138,3.939,3.939,0,0,0,0-7.874,3.634,3.634,0,0,0-3.511,2.054h-3.482l1.854-11.838h11.572v3.252h-8.593l-0.872,5.05a5.641,5.641,0,0,1,3.651-1.34c4.605,0,6.853,3.164,6.853,6.76m41.1-13.15a5.267,5.267,0,0,0-10.533,0v0.855h3.6V51.654a1.788,1.788,0,0,1,1.685-1.939,1.811,1.811,0,0,1,1.713,1.939v2.224H389.869V66.829A7.82,7.82,0,0,1,388.24,67c-2.048,0-4.576-.941-4.521-1.8a13.339,13.339,0,0,0,1.517-5.849,9.555,9.555,0,0,0-1.572-5.477h-5.619V57.1h3.568a5.857,5.857,0,0,1,.28,2.283,11.758,11.758,0,0,1-1.854,5.819c-0.082,3.051,3.511,5.3,7.161,5.3a9.186,9.186,0,0,0,2.662-.426V73.7a3.292,3.292,0,0,0-.756.085l-2.669.911,1.236,4.365,2.471-.913a15.631,15.631,0,0,0,1.8-.883c0.534,0.4,1.124.911,1.77,1.482l1.8-2.311c-0.813-.627-1.488-1.112-2.078-1.511v-5.39h-0.022V57.1h11.7v1.342c0.059,2.767-1.909,2.538-6.176,2.538V64.2c4.212,0,6.2.085,6.2,1.885,0,1.454-1.517,2.594-3.82,2.594a9.809,9.809,0,0,1-5.28-1.854v3.395c1.068,1,3.511,1.711,5.646,1.711,4.212,0,7.05-2.538,7.05-5.875a5.793,5.793,0,0,0-1.209-3.6c0.7-.74,1.209-1.283,1.209-4.278V57.1h3.786V71.793h3.538V57.1h3.454V53.878h-3.425V51.654Zm69.262,2.224H467.387V51.655a5.267,5.267,0,0,0-10.533,0V52.51h3.6V51.655a1.79,1.79,0,0,1,1.684-1.941,1.813,1.813,0,0,1,1.714,1.941v2.224H441.39v8.329h-4.353V62.036a14.612,14.612,0,0,0-2.444-8.158h-5.027V57.1H432.4a9.868,9.868,0,0,1,1.292,4.735c0,2.424-1.459,3.679-3.088,6.189l4.185,1.883c0.869-2.169,1.4-3.508,1.711-4.479h4.888v6.362h3.54V57.1h12.6v8.842c0,1.939-.563,2.653-2.193,2.653-1.684,0-3.9-1.255-3.9-3.224,0-.97.507-1.512,2.191-1.512h0.9V60.61h-0.9c-4.3,0-6.151,2.11-6.151,4.851,0,3.85,4.016,6.358,7.694,6.358,4.1,0,6.039-1.939,6.039-5.845V57.1h2.607V71.793h3.539V57.1H476.4v2.281A6.359,6.359,0,0,0,471.09,66a5.823,5.823,0,0,0,5.759,5.819V68.6a2.936,2.936,0,0,1-2.192-3,3.57,3.57,0,0,1,7.106,0,2.929,2.929,0,0,1-2.219,3v3.222A5.843,5.843,0,0,0,485.3,66a6.36,6.36,0,0,0-5.309-6.617V57.1h8.758v7.587h3.539V57.1h3.425V53.878H485.353Zm31.675,4.193V56.445h3.652V54.279h-3.8c-0.011-3.653-2.026-4.65-4.183-4.992-1.067-.143-2.078-0.2-2.078-2.852H508.4c0,4.62,2.893,4.821,4.24,5.076,1.174,0.171,2.038,1.023,2.047,2.768H502.535v2.166H514.7v1.883c0.057,3.11-1.6,3.2-6.824,3.2v2.168c4.8,0,6.852-.056,6.852,2.2,0,2.138-1.965,3.278-4.353,3.278a10.121,10.121,0,0,1-5.393-1.74v2.225c0.984,0.969,3.37,1.74,5.618,1.74,3.818,0,6.46-2.253,6.46-5.447a4.318,4.318,0,0,0-1.573-3.48c0.7-.485,1.544-1.4,1.544-4.393m1.93-7.217a1.342,1.342,0,0,0,1.349-1.368,1.366,1.366,0,0,0-1.349-1.4,1.348,1.348,0,0,0-1.348,1.4,1.324,1.324,0,0,0,1.348,1.368m5.323,2.177,1.236-1.7-1.965-.641,0.394-1.138,1.878,0.611V48.1h1.209v2.065l1.892-.611,0.393,1.138-1.964.641,1.22,1.7-0.94.756-1.206-1.653-1.207,1.653Z"/>
</svg>
