<svg id="Layer_1" data-name="Layer 1" xmlns="http://www.w3.org/2000/svg" viewBox="0 0 730.4 278.48"><defs><style>.cls-1{fill:#eb0a1e;}.cls-2{fill:#fff;}.cls-3{fill:none;stroke:#fff;stroke-miterlimit:10;stroke-width:4px;}</style></defs><rect class="cls-1" x="452.14" y="0.23" width="278.26" height="278.26"/><path class="cls-2" d="M1787,139.18a121.49,121.49,0,0,0-67.83,0c-25.11,8.07-42.36,24.83-42.36,44.2,0,27.25,34.15,49.34,76.27,49.34s76.27-22.09,76.27-49.34C1829.33,164,1812.08,147.26,1787,139.18Zm-33.92,72.33c-6.28,0-11.42-12.36-11.72-27.89,3.78.34,7.7.52,11.72.52s7.94-.18,11.72-.52C1764.48,199.15,1759.35,211.51,1753.06,211.51Zm-10.92-40c1.71-10.9,5.95-18.62,10.92-18.62s9.21,7.72,10.92,18.62c-3.49.32-7.15.49-10.92.49S1745.63,171.78,1742.14,171.46Zm28.53-.82c-2.56-17.11-9.47-29.38-17.61-29.38s-15,12.27-17.6,29.38c-15.49-2.42-26.32-7.93-26.32-14.34,0-8.64,19.66-15.64,43.92-15.64s43.93,7,43.93,15.64C1797,162.71,1786.16,168.22,1770.67,170.64Zm-82.75,10.94c0-8.36,3.22-16.19,8.83-22.92a9.55,9.55,0,0,0-.1,1.41c0,10.51,15.78,19.44,37.79,22.72,0,.8,0,1.59,0,2.4,0,19.53,5.42,36.08,12.91,41.79C1714,224.94,1687.92,205.4,1687.92,181.58ZM1758.8,227c7.49-5.71,12.91-22.25,12.91-41.79,0-.81,0-1.6,0-2.4,22-3.28,37.78-12.21,37.78-22.72a9.55,9.55,0,0,0-.1-1.41c5.61,6.73,8.83,14.56,8.83,22.92C1818.2,205.4,1792.09,224.94,1758.8,227Z" transform="translate(-1161.86 -68.71)"/><polygon class="cls-2" points="517.55 178.87 487.95 178.87 487.95 185.42 498.88 185.42 498.88 213.32 506.63 213.32 506.63 185.42 517.55 185.42 517.55 178.87"/><path class="cls-2" d="M1699.4,246.55a18.26,18.26,0,1,0,18.26,18.26A18.26,18.26,0,0,0,1699.4,246.55Zm8.95,23.79a9.46,9.46,0,0,1-7.15,5.85,10.15,10.15,0,0,1-3.59,0,9.46,9.46,0,0,1-7.15-5.85,15.09,15.09,0,0,1,0-11.06,9.44,9.44,0,0,1,7.15-5.85,10.15,10.15,0,0,1,3.59,0,9.44,9.44,0,0,1,7.15,5.85,15.09,15.09,0,0,1,0,11.06Z" transform="translate(-1161.86 -68.71)"/><polygon class="cls-2" points="555.93 178.87 565.05 178.87 573.58 193.68 582.11 178.87 591.23 178.87 577.45 200.57 577.45 213.32 569.71 213.32 569.71 200.57 555.93 178.87"/><path class="cls-2" d="M1753.23,264.81a18.26,18.26,0,1,1,18.26,18.26A18.27,18.27,0,0,1,1753.23,264.81Zm18.26,11.54a10.76,10.76,0,0,0,1.8-.16,9.46,9.46,0,0,0,7.15-5.85,15.22,15.22,0,0,0,0-11.06,9.48,9.48,0,0,0-7.15-5.85,10.76,10.76,0,0,0-1.8-.16,10.54,10.54,0,0,0-1.79.16,9.49,9.49,0,0,0-7.16,5.85,15.22,15.22,0,0,0,0,11.06,9.47,9.47,0,0,0,7.16,5.85A10.54,10.54,0,0,0,1771.49,276.35Z" transform="translate(-1161.86 -68.71)"/><path class="cls-2" d="M1844.87,274.43H1830.2l-2.82,7.58h-8.62l14-34.45h9.64l14,34.45h-8.62l-2.83-7.58Zm-2.26-6-5.07-13.61-5.08,13.61Z" transform="translate(-1161.86 -68.71)"/><polygon class="cls-2" points="659.18 178.87 629.58 178.87 629.58 185.42 640.51 185.42 640.5 213.32 648.25 213.32 648.25 185.42 659.18 185.42 659.18 178.87"/><line class="cls-3" x1="398.45" x2="398.45" y2="278.26"/><path class="cls-2" d="M1161.86,138.69c0-17,12.16-27.74,28.5-27.74s28.5,10.79,28.5,27.52-12.16,28-28.65,28C1174.1,166.43,1161.86,155.72,1161.86,138.69Zm41.88,0c0-8.43-5.4-14.13-13.38-14.13s-13.38,5.7-13.38,14.13,5.4,14.14,13.38,14.14S1203.74,147.05,1203.74,138.69Z" transform="translate(-1161.86 -68.71)"/><path class="cls-2" d="M1275,111.71v54h-13.91l-21.51-31.77v31.77h-13.68v-54h14l21.44,31.85V111.71Z" transform="translate(-1161.86 -68.71)"/><path class="cls-2" d="M1322.45,124.18H1309v41.49h-14.44V124.18H1281.1V111.71h41.35Z" transform="translate(-1161.86 -68.71)"/><path class="cls-2" d="M1353.61,152.6h-16.34L1333,165.67h-14.52l19.39-54h15.88l19.38,54h-15.28ZM1350,141.35l-4.56-14.06-4.56,14.06Z" transform="translate(-1161.86 -68.71)"/><path class="cls-2" d="M1396.09,146h-3v19.68h-14.45v-54h22c12.47,0,18.77,7.53,18.77,16.19a17,17,0,0,1-9.65,15.43l14.14,22.34H1407Zm-3-11.1h5.09c3.72,0,6-2.13,6-5.85s-2.28-5.7-6-5.7h-5.09Z" transform="translate(-1161.86 -68.71)"/><path class="cls-2" d="M1428.84,111.71h14.44v54h-14.44Z" transform="translate(-1161.86 -68.71)"/><path class="cls-2" d="M1450.35,138.69c0-17,12.16-27.74,28.5-27.74s28.5,10.79,28.5,27.52-12.16,28-28.65,28C1462.59,166.43,1450.35,155.72,1450.35,138.69Zm41.88,0c0-8.43-5.4-14.13-13.38-14.13s-13.37,5.7-13.37,14.13,5.39,14.14,13.37,14.14S1492.23,147.05,1492.23,138.69Z" transform="translate(-1161.86 -68.71)"/><path class="cls-2" d="M1253.89,194.18h-13.45v41.49H1226V194.18h-13.45V181.71h41.34Z" transform="translate(-1161.86 -68.71)"/><path class="cls-2" d="M1255.26,208.69c0-17,12.16-27.74,28.5-27.74s28.5,10.79,28.5,27.52-12.16,28-28.65,28C1267.5,236.43,1255.26,225.72,1255.26,208.69Zm41.88,0c0-8.43-5.4-14.13-13.38-14.13s-13.37,5.7-13.37,14.13,5.39,14.14,13.37,14.14S1297.14,217.05,1297.14,208.69Z" transform="translate(-1161.86 -68.71)"/><path class="cls-2" d="M1342.43,215.23v20.44H1328.3V215.23l-17.48-33.52h15.81l9.65,20,9.65-20h14Z" transform="translate(-1161.86 -68.71)"/><path class="cls-2" d="M1358.47,208.69c0-17,12.16-27.74,28.5-27.74s28.5,10.79,28.5,27.52-12.16,28-28.65,28C1370.71,236.43,1358.47,225.72,1358.47,208.69Zm41.88,0c0-8.43-5.4-14.13-13.38-14.13s-13.38,5.7-13.38,14.13,5.4,14.14,13.38,14.14S1400.35,217.05,1400.35,208.69Z" transform="translate(-1161.86 -68.71)"/><path class="cls-2" d="M1458.18,194.18h-13.45v41.49h-14.44V194.18h-13.45V181.71h41.34Z" transform="translate(-1161.86 -68.71)"/><path class="cls-2" d="M1489.34,222.6H1473l-4.25,13.07h-14.52l19.38-54h15.88l19.38,54H1493.6Zm-3.65-11.25-4.56-14.06-4.56,14.06Z" transform="translate(-1161.86 -68.71)"/><path class="cls-2" d="M1227.45,278.47c0,16.18-11.32,27.2-27.13,27.2h-22.73v-54h22.73C1216.13,251.71,1227.45,262.28,1227.45,278.47Zm-15.2.15c0-9.5-5.78-14.52-14.36-14.52H1192v29.19h5.86C1206.63,293.29,1212.25,288,1212.25,278.62Z" transform="translate(-1161.86 -68.71)"/><path class="cls-2" d="M1234.52,251.71h34.81v12.54H1249v8.44h19.76v12.08H1249v8.36h21v12.54h-35.49Z" transform="translate(-1161.86 -68.71)"/><path class="cls-2" d="M1309.38,292.6H1293l-4.26,13.07h-14.52l19.38-54h15.89l19.38,54h-15.28Zm-3.65-11.25-4.56-14.06-4.56,14.06Z" transform="translate(-1161.86 -68.71)"/><path class="cls-2" d="M1368.58,292.83v12.84h-34.13v-54h14.44v41.12Z" transform="translate(-1161.86 -68.71)"/><path class="cls-2" d="M1375,251.71h34.81v12.54h-20.37v8.44h19.76v12.08h-19.76v8.36h21v12.54H1375Z" transform="translate(-1161.86 -68.71)"/><path class="cls-2" d="M1436.9,286h-3v19.68H1419.5v-54h22c12.47,0,18.78,7.53,18.78,16.19a17,17,0,0,1-9.66,15.43l14.14,22.34h-16.87Zm-3-11.1H1439c3.72,0,6-2.13,6-5.85s-2.28-5.7-6-5.7h-5.09Z" transform="translate(-1161.86 -68.71)"/><path class="cls-2" d="M1467,301.27l3.57-13.23c4.48,3.12,10.56,5.78,16,5.78,3.87,0,5.47-1.37,5.47-3.57,0-2.44-2-3.2-9-5.86-9.19-3.49-14.74-7.6-14.74-16.41,0-10.72,8.13-17,19.91-17,6.31,0,13.3,1.83,17,4L1501,266.91a28,28,0,0,0-12.47-3.42c-3.26,0-5.54,1.07-5.54,3,0,2.59,3.65,3.88,9.73,6,8.81,3.11,14.13,6.46,14.13,15.8,0,11.41-7.9,18.09-20.82,18.09A36.28,36.28,0,0,1,1467,301.27Z" transform="translate(-1161.86 -68.71)"/></svg>