<svg id="HING" xmlns="http://www.w3.org/2000/svg" width="300" height="600" viewBox="0 0 300 600">
  <defs>
    <style>
      .cls-1 {
        fill: #4c286c;
        fill-rule: evenodd;
      }
    </style>
  </defs>
  <path class="cls-1" d="M46,134.088H59.249c0.3,3.938,2.733,4.893,6.477,4.893,3.863,0,5.526-.955,5.526-2.924,0-1.85-1.426-2.8-6-3.461l-5.11-.716c-7.666-1.074-13.133-5.251-13.133-13.366,0-6.682,3.506-13.9,18.006-13.9,11.053,0,17.827,4.177,18.6,14.022H71.193c-0.3-2.566-1.664-4.057-5.7-4.057-3.684,0-5.11,1.074-5.11,2.744s1.426,2.506,3.982,2.864l5.11,0.716C80.048,122.393,84.8,126.45,84.8,134.028c0,9.129-6.6,15.036-19.313,15.036C52.534,149.064,46.413,142.978,46,134.088Zm76.535-1.432c0,9.725-4.992,16.11-13.133,16.11a10.128,10.128,0,0,1-9.092-4.714v16.17H87.947V117.261h12v4.595c1.783-3.222,4.814-5.311,9.449-5.311C117.54,116.545,122.532,122.93,122.532,132.656Zm-12.361-.06c0-4.3-1.842-6.5-5.229-6.5s-5.17,2.207-5.17,6.5,1.783,6.564,5.17,6.564S110.171,136.892,110.171,132.6Zm38.385-15.633v11.158H145.7c-4.814,0-7.369,2.387-7.369,8.115V148.05h-12.36V117.261H138.1v6.087c1.07-4.356,3.8-6.564,8.26-6.564A12.173,12.173,0,0,1,148.556,116.963Zm3.622,0.3h12.36V148.05h-12.36V117.261Zm0.119-8.234a6.032,6.032,0,1,1,6.062,6.086A6.088,6.088,0,0,1,152.3,109.027Zm49.083,19.929V148.05H189.019V130.985c0-2.446-1.07-4.057-3.506-4.057a3.785,3.785,0,0,0-4.041,4.117V148.05H169.111V117.261h12.123v4.476h0.179c2.08-3.759,5.467-5.192,9.508-5.192C197.22,116.545,201.38,120.066,201.38,128.956ZM240,117.261v29.417c0,9.248-6.3,14.32-17.292,14.32-10.28,0-16.52-4-17.352-12.351h12.479c0.3,2.5,1.783,3.639,4.754,3.639,3.328,0,4.814-1.432,4.814-4.594v-5.549c-1.9,2.924-5.051,4.773-9.627,4.773-7.963,0-12.955-6.026-12.955-15.215,0-9.129,4.992-15.156,12.955-15.156,4.813,0,7.963,2.029,9.865,5.132v-4.416H240Zm-12.419,14.381c0-4.177-1.783-6.445-5.17-6.445s-5.23,2.268-5.23,6.445c0,4.3,1.843,6.563,5.23,6.563S227.582,135.937,227.582,131.642Z"/>
</svg>
