<svg id="HING" xmlns="http://www.w3.org/2000/svg" width="300" height="600" viewBox="0 0 300 600">
  <defs>
    <style>
      .cls-1 {
        fill: #4c286c;
        fill-rule: evenodd;
      }
    </style>
  </defs>
  <path class="cls-1" d="M101.374,249.343v15.293H96.318L93.09,259.2c-0.538-.9-1.011-1.718-1.442-2.556,0.064,1.8.086,3.544,0.086,5.5v2.492H87V249.343h5.057l3.163,5.434c0.474,0.816.99,1.847,1.485,2.878-0.065-1.911-.065-3.737-0.065-5.821v-2.491h4.733Zm1.373,7.647c0-4.9,3.334-7.991,8.111-7.991s8.113,3.094,8.113,7.991c0,4.918-3.336,8.011-8.113,8.011C106.06,265,102.747,261.908,102.747,256.99Zm11.189,0c0-2.728-1.27-3.867-3.078-3.867s-3.076,1.139-3.076,3.867c0,2.749,1.269,3.887,3.076,3.887S113.936,259.739,113.936,256.99ZM141,249.343l-4.045,15.293h-5.208l-1.011-4.661c-0.3-1.332-.559-2.663-0.8-3.974-0.258,1.311-.516,2.642-0.817,3.974l-1.012,4.661H122.9l-4.045-15.293h4.97l0.861,4.532c0.344,1.8.667,3.63,0.99,5.391,0.3-1.761.667-3.587,1.011-5.391l0.9-4.532h4.67l0.9,4.532c0.344,1.8.71,3.63,1.011,5.391,0.322-1.761.646-3.587,0.99-5.391l0.861-4.532H141Z"/>
</svg>
