<svg id="txt1" xmlns="http://www.w3.org/2000/svg" width="320" height="50" viewBox="0 0 320 50">
  <defs>
    <style>
      .cls-1 {
        fill: #4c286c;
        fill-rule: evenodd;
      }
    </style>
  </defs>
  <path class="cls-1" d="M21.7,41.685a2.823,2.823,0,0,1-.271-1.087,3.223,3.223,0,0,1-3,1.395c-1.966,0-3.428-.906-3.428-2.881,0-1.631.992-2.645,3.554-2.9l1.7-.163c0.758-.073,1.119-0.218,1.119-0.706s-0.361-.689-1.047-0.689a0.9,0.9,0,0,0-1.118.924H15.454c0.09-2.283,1.48-3.461,4.926-3.461,3.356,0,4.745,1.087,4.745,2.989V40.2a3.315,3.315,0,0,0,.343,1.486H21.7Zm-0.325-3.569V37.5a1.05,1.05,0,0,1-.812.38l-0.866.109a0.808,0.808,0,0,0-.884.815c0,0.562.379,0.833,1.1,0.833A1.326,1.326,0,0,0,21.372,38.116Zm14.864-5.78v9.349H32.555V40.326H32.5A3.042,3.042,0,0,1,29.614,41.9c-1.912,0-3.175-1.069-3.175-3.769v-5.8h3.753v5.182a1.041,1.041,0,0,0,1.065,1.232,1.149,1.149,0,0,0,1.227-1.25V32.335h3.753Zm8.242-.09v3.388H43.612c-1.462,0-2.237.725-2.237,2.464v3.587H37.622V32.335H41.3v1.848a2.356,2.356,0,0,1,2.508-1.993A3.674,3.674,0,0,1,44.478,32.245Zm15.405-3.461v12.9H56.238V40.29A3.056,3.056,0,0,1,53.369,41.9c-2.472,0-3.987-1.938-3.987-4.892s1.515-4.892,3.987-4.892A3.075,3.075,0,0,1,56.13,33.55V28.785h3.753Zm-3.59,8.244c0-1.3-.541-1.993-1.57-1.993s-1.588.688-1.588,1.993S53.694,39,54.723,39,56.292,38.333,56.292,37.028Zm14.936,0.924H64.444a1.526,1.526,0,0,0,1.786,1.431,1.555,1.555,0,0,0,1.335-.508h3.5c-0.56,1.957-2.436,3.026-4.908,3.026-3.248,0-5.233-1.83-5.233-4.855,0-2.953,1.985-4.928,5.214-4.928,3.049,0,5.16,1.758,5.16,4.783A9.05,9.05,0,0,1,71.229,37.953ZM64.5,36h3.194a1.407,1.407,0,0,0-1.606-1.377A1.426,1.426,0,0,0,64.5,36Zm14.07,5.689A2.821,2.821,0,0,1,78.3,40.6a3.223,3.223,0,0,1-3,1.395c-1.966,0-3.428-.906-3.428-2.881,0-1.631.992-2.645,3.554-2.9l1.7-.163c0.758-.073,1.118-0.218,1.118-0.706s-0.361-.689-1.047-0.689a0.9,0.9,0,0,0-1.118.924H72.325c0.09-2.283,1.48-3.461,4.926-3.461,3.356,0,4.745,1.087,4.745,2.989V40.2a3.313,3.313,0,0,0,.343,1.486H78.568Zm-0.325-3.569V37.5a1.05,1.05,0,0,1-.812.38l-0.866.109a0.808,0.808,0,0,0-.884.815c0,0.562.379,0.833,1.1,0.833A1.326,1.326,0,0,0,78.244,38.116ZM83.4,38.822V28.785h3.753v9.277c0,0.779.289,0.833,0.794,0.833h0.505v2.79a12.126,12.126,0,0,1-1.462.09C84.429,41.775,83.4,40.905,83.4,38.822Zm5.519-.145h3.573c0.072,0.652.451,0.924,1.317,0.924,0.74,0,1.136-.181,1.136-0.543,0-.308-0.2-0.471-0.793-0.562l-1.822-.253c-2.129-.29-3.3-1.269-3.3-2.99,0-2.083,1.66-3.134,4.619-3.134,3.464,0,4.528,1.486,4.637,3.189H94.91c-0.054-.634-0.4-0.888-1.263-0.888-0.74,0-1.065.163-1.065,0.508,0,0.29.2,0.471,0.794,0.562L95.2,35.742c2.436,0.344,3.374,1.377,3.374,2.953,0,2.138-1.8,3.3-4.889,3.3S89.082,40.833,88.919,38.677Zm25.166-1.667c0,2.954-1.516,4.892-3.988,4.892a3.058,3.058,0,0,1-2.869-1.612v1.395h-3.644v-12.9h3.753V33.55a3.074,3.074,0,0,1,2.76-1.431C112.569,32.118,114.085,34.057,114.085,37.01Zm-3.753-.018c0-1.3-.559-1.975-1.588-1.975s-1.569.67-1.569,1.975,0.541,1.993,1.569,1.993S110.332,38.3,110.332,36.992Zm14.593-1.105v5.8h-3.753V36.5a1.041,1.041,0,0,0-1.064-1.232,1.149,1.149,0,0,0-1.227,1.251v5.163h-3.753v-12.9h3.753v4.874a3.068,3.068,0,0,1,2.869-1.54C123.662,32.118,124.925,33.187,124.925,35.887Zm1.386-3.551h3.753v9.349h-3.753V32.335Zm0.036-2.5a1.832,1.832,0,1,1,1.84,1.848A1.848,1.848,0,0,1,126.347,29.836Zm5.105,9.838a2.273,2.273,0,0,1,2.291-2.229,2.238,2.238,0,1,1,0,4.475A2.264,2.264,0,0,1,131.452,39.674Z"/>
</svg>
