<svg id="txt1" xmlns="http://www.w3.org/2000/svg" width="320" height="50" viewBox="0 0 320 50">
  <defs>
    <style>
      .cls-1 {
        fill: #4c286c;
        fill-rule: evenodd;
      }
    </style>
  </defs>
  <path class="cls-1" d="M26.61,21.023H22.44a3.272,3.272,0,0,1-.253-1.315l-0.054-1.3c-0.054-1.242-.433-1.626-1.643-1.626H19.083v4.238H15V8.017h6.336c3.863,0,4.946,1.79,4.946,3.818a3.025,3.025,0,0,1-1.932,3.106c1.191,0.456,1.7,1.351,1.805,2.849L26.3,19.708A2.729,2.729,0,0,0,26.61,21.023Zm-4.495-8.531a1.193,1.193,0,0,0-1.408-1.3H19.083V13.79h1.624A1.193,1.193,0,0,0,22.115,12.492Zm11.766,8.531a2.871,2.871,0,0,1-.271-1.1,3.217,3.217,0,0,1-3,1.406c-1.967,0-3.43-.913-3.43-2.9,0-1.644.993-2.667,3.557-2.923l1.7-.164c0.758-.073,1.119-0.22,1.119-0.712s-0.361-.694-1.047-0.694a0.908,0.908,0,0,0-1.119.932H27.635c0.09-2.3,1.48-3.489,4.928-3.489,3.358,0,4.747,1.1,4.747,3.014v5.133a3.363,3.363,0,0,0,.343,1.5H33.881Zm-0.325-3.6V16.8a1.048,1.048,0,0,1-.812.383l-0.867.11a0.811,0.811,0,0,0-.884.822,0.879,0.879,0,0,0,1.1.84A1.332,1.332,0,0,0,33.556,17.425Zm14.961-2.247v5.846H44.763V15.8A1.047,1.047,0,0,0,43.7,14.556a1.154,1.154,0,0,0-1.227,1.261v5.206H38.715V11.6H42.4v1.37h0.054a3.038,3.038,0,0,1,2.888-1.589C47.253,11.378,48.517,12.456,48.517,15.178ZM60.247,11.6V20.6c0,2.832-1.913,4.384-5.253,4.384-3.123,0-5.018-1.224-5.271-3.781h3.791a1.208,1.208,0,0,0,1.444,1.114,1.243,1.243,0,0,0,1.462-1.407v-1.7A3.264,3.264,0,0,1,53.5,20.676c-2.419,0-3.935-1.845-3.935-4.658,0-2.8,1.516-4.64,3.935-4.64a3.268,3.268,0,0,1,3,1.571V11.6h3.755ZM56.474,16c0-1.279-.541-1.973-1.57-1.973s-1.588.694-1.588,1.973c0,1.315.559,2.01,1.588,2.01S56.474,17.315,56.474,16ZM76.289,16.31c0,2.978-1.517,4.932-3.99,4.932a3.054,3.054,0,0,1-2.87-1.625v1.406H65.783V8.017h3.755v4.8A3.071,3.071,0,0,1,72.3,11.378C74.773,11.378,76.289,13.333,76.289,16.31Zm-3.755-.018c0-1.315-.559-1.991-1.588-1.991s-1.57.676-1.57,1.991,0.541,2.01,1.57,2.01S72.535,17.607,72.535,16.292Zm11.116,4.732a2.873,2.873,0,0,1-.271-1.1,3.216,3.216,0,0,1-3,1.406c-1.967,0-3.43-.913-3.43-2.9,0-1.644.993-2.667,3.556-2.923l1.7-.164c0.758-.073,1.119-0.22,1.119-0.712s-0.361-.694-1.047-0.694a0.908,0.908,0,0,0-1.119.932H77.4c0.09-2.3,1.48-3.489,4.928-3.489,3.358,0,4.747,1.1,4.747,3.014v5.133a3.363,3.363,0,0,0,.343,1.5H83.651Zm-0.325-3.6V16.8a1.047,1.047,0,0,1-.812.383l-0.867.11a0.811,0.811,0,0,0-.885.822,0.879,0.879,0,0,0,1.1.84A1.332,1.332,0,0,0,83.326,17.425Zm12.019-5.919v3.416H94.478c-1.462,0-2.238.731-2.238,2.484v3.617H88.485V11.6h3.682V13.46a2.361,2.361,0,0,1,2.509-2.009A3.649,3.649,0,0,1,95.345,11.506ZM95.9,17.991h3.575c0.072,0.657.451,0.931,1.318,0.931,0.74,0,1.137-.182,1.137-0.548,0-.311-0.2-0.475-0.794-0.566l-1.823-.256c-2.13-.292-3.3-1.279-3.3-3.014,0-2.1,1.66-3.16,4.621-3.16,3.466,0,4.531,1.5,4.639,3.215H101.9c-0.054-.64-0.4-0.9-1.264-0.9-0.74,0-1.065.165-1.065,0.512,0,0.292.2,0.475,0.794,0.566l1.824,0.256c2.437,0.347,3.375,1.388,3.375,2.978,0,2.156-1.8,3.325-4.892,3.325S96.064,20.165,95.9,17.991Zm20.485-.731H109.6a1.531,1.531,0,0,0,1.788,1.443,1.551,1.551,0,0,0,1.336-.512h3.5c-0.56,1.973-2.437,3.051-4.91,3.051-3.25,0-5.235-1.845-5.235-4.9,0-2.978,1.985-4.969,5.217-4.969,3.05,0,5.162,1.772,5.162,4.823A9.156,9.156,0,0,1,116.387,17.26Zm-6.733-1.973h3.2a1.412,1.412,0,0,0-1.607-1.388A1.43,1.43,0,0,0,109.654,15.287ZM122,19.927c0,2.631-1.1,4.53-4.044,4.713l-0.325.018V22.722l0.38-.018a1.438,1.438,0,0,0,1.516-1.5h-0.054a2.111,2.111,0,0,1-2.239-2.174,2.162,2.162,0,0,1,2.2-2.247C121.167,16.785,122,18.137,122,19.927Z"/>
</svg>
