<svg id="txt1" xmlns="http://www.w3.org/2000/svg" width="320" height="50" viewBox="0 0 320 50">
  <defs>
    <style>
      .cls-1 {
        fill: #4c286c;
        fill-rule: evenodd;
      }
    </style>
  </defs>
  <path class="cls-1" d="M260,32.269h1.648c0.037,0.454.34,0.564,0.805,0.564,0.481,0,.687-0.11.687-0.337s-0.177-.324-0.746-0.4l-0.635-.082a1.581,1.581,0,0,1-1.633-1.541c0-.771.436-1.6,2.239-1.6,1.374,0,2.217.482,2.313,1.617H263.13c-0.037-.3-0.207-0.468-0.709-0.468-0.459,0-.636.124-0.636,0.317s0.177,0.289.5,0.33l0.635,0.083c1.315,0.172,1.906.64,1.906,1.513,0,1.052-.82,1.734-2.4,1.734C260.81,34,260.049,33.294,260,32.269Zm9.872-1.541a1.778,1.778,0,0,1-2.061,1.747h-0.894v1.4h-1.67v-4.9h2.564A1.778,1.778,0,0,1,269.869,30.728Zm-1.714,0a0.475,0.475,0,0,0-.569-0.468h-0.672V31.2h0.672A0.475,0.475,0,0,0,268.155,30.728Zm6.923,3.15h-1.706a1.118,1.118,0,0,1-.1-0.5l-0.023-.488a0.539,0.539,0,0,0-.673-0.612H272v1.6h-1.669v-4.9h2.593c1.581,0,2.025.674,2.025,1.438a1.139,1.139,0,0,1-.791,1.17,1.072,1.072,0,0,1,.739,1.073l0.059,0.723A0.967,0.967,0,0,0,275.078,33.879Zm-1.839-3.213a0.473,0.473,0,0,0-.576-0.488H272v0.977h0.666A0.473,0.473,0,0,0,273.239,30.666Zm2.261-1.685h1.67v4.9H275.5v-4.9Zm7.233,0v4.9H281l-1.108-1.74c-0.185-.289-0.348-0.55-0.5-0.819,0.023,0.578.03,1.136,0.03,1.761v0.8H277.8v-4.9h1.736l1.086,1.74c0.163,0.261.34,0.591,0.51,0.922-0.022-.612-0.022-1.2-0.022-1.864v-0.8h1.625Zm5.808,2.043v2.855h-1.079l-0.118-.523a2,2,0,0,1-1.611.64,2.4,2.4,0,0,1-2.527-2.58,2.48,2.48,0,0,1,2.741-2.546,2.346,2.346,0,0,1,2.587,1.8h-1.708a0.834,0.834,0,0,0-.85-0.482,1.031,1.031,0,0,0-1.042,1.252,1.032,1.032,0,0,0,1.05,1.245,0.882,0.882,0,0,0,.938-0.585h-0.931v-1.08h2.55Zm2.046,1.245h1.648c0.037,0.454.34,0.564,0.805,0.564,0.481,0,.688-0.11.688-0.337s-0.177-.324-0.747-0.4l-0.635-.082a1.582,1.582,0,0,1-1.633-1.541c0-.771.436-1.6,2.239-1.6,1.374,0,2.217.482,2.313,1.617h-1.544c-0.038-.3-0.208-0.468-0.71-0.468-0.458,0-.635.124-0.635,0.317s0.177,0.289.5,0.33l0.635,0.083c1.316,0.172,1.907.64,1.907,1.513,0,1.052-.82,1.734-2.4,1.734C291.4,34,290.64,33.294,290.587,32.269Zm8.542,0.97h-1.892l-0.206.64h-1.67l1.781-4.9h2.039l1.884,4.9h-1.729ZM298.76,32.1L298.4,30.976c-0.073-.241-0.155-0.488-0.221-0.73l-0.222.73L297.592,32.1h1.168Zm6.465,0.44v1.334H301.3v-4.9h1.669v3.563h2.261Zm2.113-2.229V30.8h2.446v1.286h-2.446v0.461h2.646v1.334h-4.315v-4.9h4.315v1.335h-2.646Z"/>
</svg>
