<svg id="txt1" xmlns="http://www.w3.org/2000/svg" width="320" height="50" viewBox="0 0 320 50">
  <defs>
    <style>
      .cls-1 {
        fill: #4c286c;
        fill-rule: evenodd;
      }
    </style>
  </defs>
  <path class="cls-1" d="M277.987,39.43a2.807,2.807,0,1,1,2.8,2.566A2.535,2.535,0,0,1,277.987,39.43Zm3.857,0a1.074,1.074,0,1,0-2.122,0A1.075,1.075,0,1,0,281.844,39.43Zm7.165-2.449v4.9h-1.743l-1.112-1.741c-0.185-.289-0.349-0.55-0.5-0.819,0.022,0.578.029,1.136,0.029,1.761v0.8h-1.631v-4.9H285.8l1.09,1.74c0.163,0.261.341,0.591,0.512,0.922-0.022-.612-0.022-1.2-0.022-1.865v-0.8h1.631Zm7.292,0v4.9h-1.743l-1.112-1.741c-0.186-.289-0.349-0.55-0.5-0.819,0.023,0.578.03,1.136,0.03,1.761v0.8h-1.631v-4.9h1.743l1.09,1.74c0.163,0.261.341,0.591,0.512,0.922-0.022-.612-0.022-1.2-0.022-1.865v-0.8H296.3Zm0.475,2.449a2.807,2.807,0,1,1,2.8,2.566A2.535,2.535,0,0,1,296.776,39.43Zm3.857,0a1.074,1.074,0,1,0-2.122,0A1.075,1.075,0,1,0,300.633,39.43Zm9.332-2.449-1.394,4.9h-1.8l-0.348-1.493c-0.1-.427-0.193-0.853-0.274-1.273-0.089.42-.178,0.846-0.283,1.273l-0.348,1.493h-1.8l-1.395-4.9h1.713l0.3,1.451c0.119,0.578.23,1.163,0.342,1.727,0.1-.564.23-1.149,0.348-1.727l0.312-1.451h1.61l0.311,1.451c0.118,0.578.245,1.163,0.348,1.727,0.112-.564.223-1.149,0.342-1.727l0.3-1.451h1.713Z"/>
</svg>
