<svg xmlns="http://www.w3.org/2000/svg" width="320" height="50" viewBox="0 0 320 50">
  <defs>
    <style>
      .cls-1 {
        fill: #4c286c;
        fill-rule: evenodd;
      }
    </style>
  </defs>
  <path id="txt2" class="cls-1" d="M7,18.3h3.3c0.074,0.978.681,1.214,1.614,1.214,0.962,0,1.377-.236,1.377-0.725,0-.459-0.356-0.7-1.495-0.859l-1.274-.178c-1.91-.267-3.272-1.3-3.272-3.317,0-1.659.874-3.451,4.486-3.451,2.753,0,4.441,1.037,4.633,3.48H13.275c-0.074-.636-0.415-1.007-1.421-1.007-0.917,0-1.274.266-1.274,0.681s0.356,0.621.992,0.71l1.273,0.178c2.636,0.37,3.819,1.378,3.819,3.258,0,2.265-1.643,3.732-4.811,3.732C8.627,22.022,7.1,20.511,7,18.3Zm15.857,3.465a2.3,2.3,0,0,1-.222-0.888,2.649,2.649,0,0,1-2.457,1.14c-1.614,0-2.812-.741-2.812-2.355,0-1.332.814-2.162,2.916-2.369l1.391-.133c0.622-.06.919-0.178,0.919-0.578s-0.3-.563-0.859-0.563a0.742,0.742,0,0,0-.918.755H17.734c0.074-1.865,1.214-2.828,4.041-2.828,2.753,0,3.893.888,3.893,2.443v4.161a2.7,2.7,0,0,0,.281,1.214H22.856Zm-0.266-2.917v-0.5a0.862,0.862,0,0,1-.666.311l-0.711.089a0.661,0.661,0,0,0-.725.666c0,0.459.31,0.681,0.9,0.681A1.087,1.087,0,0,0,22.589,18.852ZM35.2,14.129l-2.857,7.64h-3.6l-2.857-7.64h3.287l0.636,2.192c0.3,1.036.532,1.88,0.8,2.947,0.267-1.066.5-1.91,0.8-2.947l0.621-2.192H35.2Zm8.455,4.59H38.093a1.25,1.25,0,0,0,1.465,1.17,1.277,1.277,0,0,0,1.1-.415h2.872c-0.46,1.6-2,2.473-4.027,2.473-2.665,0-4.293-1.5-4.293-3.968,0-2.413,1.629-4.027,4.278-4.027,2.5,0,4.233,1.437,4.233,3.91A7.208,7.208,0,0,1,43.658,18.719Zm-5.522-1.6h2.621a1.153,1.153,0,0,0-1.317-1.125A1.169,1.169,0,0,0,38.137,17.12Zm12.231,0.549-1.362,1.273v2.828H47.822V11.227h1.184V17.55l3.538-3.421h1.569l-2.9,2.754,3.108,4.886H52.944Zm11.3,3.138v0.963a4.456,4.456,0,0,1-.651.045,1.1,1.1,0,0,1-1.287-1.1,2.8,2.8,0,0,1-2.487,1.229c-1.658,0-2.694-.8-2.694-2.236,0-1.2.726-2.147,2.827-2.369l1.1-.119a1.063,1.063,0,0,0,1.2-1.051c0-.8-0.414-1.2-1.717-1.2s-1.85.37-1.924,1.51H54.839c0.089-1.48.874-2.532,3.108-2.532,2.117,0,2.872.933,2.872,2.221v4.265a0.35,0.35,0,0,0,.415.37h0.429Zm-2-2.058v-0.9a1.965,1.965,0,0,1-1.006.325l-1.11.134c-1.392.163-1.777,0.636-1.777,1.377A1.266,1.266,0,0,0,57.3,20.94,2.194,2.194,0,0,0,59.665,18.749Zm7.094-4.723v1.14h-0.3c-1.525,0-2.5.77-2.5,2.251v4.353H62.778v-7.64H63.9v1.348A2.666,2.666,0,0,1,66.36,14.01C66.478,14.01,66.6,14.01,66.76,14.025Zm7.4,4.338h-5.8c0.118,1.718,1.021,2.5,2.353,2.5a1.962,1.962,0,0,0,2.028-1.422h1.229a3.185,3.185,0,0,1-3.286,2.5c-2.087,0-3.552-1.525-3.552-4,0-2.4,1.406-4,3.522-4,2.28,0,3.508,1.807,3.508,4v0.414ZM68.388,17.3h4.5A2.25,2.25,0,1,0,68.388,17.3Zm7.049-5.049a0.8,0.8,0,1,1,.8.8A0.805,0.805,0,0,1,75.437,12.249Zm0.207,1.88h1.184v7.64H75.644v-7.64ZM84.9,16.6v5.168H83.713V16.721a1.532,1.532,0,0,0-1.747-1.7,2.174,2.174,0,0,0-2.1,2.428v4.324H78.68v-7.64H79.8v1.14a2.812,2.812,0,0,1,2.4-1.318A2.436,2.436,0,0,1,84.9,16.6Zm8.723-2.577v1.14h-0.3c-1.525,0-2.5.77-2.5,2.251v4.353H89.638v-7.64h1.125v1.348A2.666,2.666,0,0,1,93.22,14.01C93.338,14.01,93.456,14.01,93.62,14.025Zm7.342,6.781v0.963a4.442,4.442,0,0,1-.651.045,1.1,1.1,0,0,1-1.287-1.1,2.8,2.8,0,0,1-2.487,1.229c-1.658,0-2.695-.8-2.695-2.236,0-1.2.726-2.147,2.827-2.369l1.1-.119a1.063,1.063,0,0,0,1.2-1.051c0-.8-0.414-1.2-1.717-1.2s-1.85.37-1.924,1.51H94.138c0.089-1.48.874-2.532,3.108-2.532,2.117,0,2.873.933,2.873,2.221v4.265a0.35,0.35,0,0,0,.415.37h0.428Zm-2-2.058v-0.9a1.964,1.964,0,0,1-1.006.325l-1.11.134c-1.392.163-1.777,0.636-1.777,1.377A1.266,1.266,0,0,0,96.6,20.94,2.194,2.194,0,0,0,98.964,18.749Zm9.328-2.147v5.168h-1.184V16.721a1.532,1.532,0,0,0-1.747-1.7,2.174,2.174,0,0,0-2.1,2.428v4.324h-1.184v-7.64H103.2v1.14a2.813,2.813,0,0,1,2.4-1.318A2.436,2.436,0,0,1,108.292,16.6Zm8.781-2.473v7.344c0,1.984-1.14,3.377-3.553,3.377-1.954,0-3.094-.977-3.257-2.458h1.184c0.148,0.963.874,1.45,2.073,1.45a2.113,2.113,0,0,0,2.368-2.369v-0.74a3.086,3.086,0,0,1-2.561,1.214c-2.146,0-3.552-1.554-3.552-4s1.406-4,3.552-4a3.082,3.082,0,0,1,2.62,1.288v-1.11h1.126Zm-1.14,3.821c0-1.852-.977-2.932-2.458-2.932s-2.457,1.139-2.457,2.932,0.977,2.932,2.457,2.932S115.933,19.8,115.933,17.95Zm9.653,0.414h-5.8c0.118,1.718,1.022,2.5,2.354,2.5a1.961,1.961,0,0,0,2.027-1.422h1.229a3.185,3.185,0,0,1-3.286,2.5c-2.087,0-3.552-1.525-3.552-4,0-2.4,1.406-4,3.522-4,2.28,0,3.508,1.807,3.508,4v0.414ZM119.813,17.3h4.5A2.251,2.251,0,1,0,119.813,17.3Zm13.917,1.066h-5.8c0.118,1.718,1.021,2.5,2.354,2.5a1.961,1.961,0,0,0,2.027-1.422h1.229a3.185,3.185,0,0,1-3.286,2.5c-2.088,0-3.553-1.525-3.553-4,0-2.4,1.407-4,3.523-4,2.279,0,3.508,1.807,3.508,4v0.414ZM127.957,17.3h4.5A2.251,2.251,0,1,0,127.957,17.3Zm13.474-.7v5.168h-1.184V16.721a1.532,1.532,0,0,0-1.747-1.7,2.174,2.174,0,0,0-2.1,2.428v4.324h-1.184v-7.64h1.125v1.14a2.811,2.811,0,0,1,2.4-1.318A2.436,2.436,0,0,1,141.431,16.6ZM153.1,11.227V21.769h-1.125V20.585a3,3,0,0,1-2.62,1.362c-2.146,0-3.552-1.554-3.552-4s1.406-4,3.552-4a3,3,0,0,1,2.561,1.273v-4H153.1Zm-1.139,6.723c0-1.852-.977-2.932-2.458-2.932s-2.458,1.139-2.458,2.991,0.978,2.873,2.458,2.873S151.959,19.8,151.959,17.95Zm9.654,0.414h-5.8c0.118,1.718,1.021,2.5,2.354,2.5a1.963,1.963,0,0,0,2.028-1.422h1.228a3.185,3.185,0,0,1-3.286,2.5c-2.088,0-3.552-1.525-3.552-4,0-2.4,1.406-4,3.522-4,2.28,0,3.509,1.807,3.509,4v0.414ZM155.839,17.3h4.5A2.251,2.251,0,1,0,155.839,17.3ZM169.7,20.807v0.963a4.442,4.442,0,0,1-.651.045,1.1,1.1,0,0,1-1.287-1.1,2.8,2.8,0,0,1-2.487,1.229c-1.659,0-2.695-.8-2.695-2.236,0-1.2.726-2.147,2.827-2.369l1.1-.119a1.063,1.063,0,0,0,1.2-1.051c0-.8-0.414-1.2-1.717-1.2s-1.85.37-1.924,1.51h-1.185c0.089-1.48.874-2.532,3.109-2.532,2.117,0,2.872.933,2.872,2.221v4.265a0.35,0.35,0,0,0,.415.37H169.7Zm-2-2.058v-0.9a1.965,1.965,0,0,1-1.006.325l-1.11.134c-1.392.163-1.777,0.636-1.777,1.377a1.265,1.265,0,0,0,1.524,1.259A2.194,2.194,0,0,0,167.7,18.749Zm3.038,1.481v-9h1.183v8.9a0.593,0.593,0,0,0,.725.651h0.564v0.992a7.485,7.485,0,0,1-.756.045A1.446,1.446,0,0,1,170.737,20.23Zm3.034-.889h1.2c0.132,1.155.695,1.584,2.042,1.584,1.289,0,1.836-.429,1.836-1.184,0-.681-0.415-0.993-1.747-1.244l-0.71-.134c-1.659-.311-2.383-1.066-2.383-2.25,0-1.3,1.036-2.162,2.783-2.162,2.042,0,3.078.9,3.108,2.532h-1.184c-0.059-1.184-.755-1.51-1.924-1.51-1.022,0-1.6.415-1.6,1.125,0,0.725.563,0.993,1.54,1.185l0.681,0.133c1.88,0.37,2.635,1.008,2.635,2.25,0,1.451-1.155,2.28-3.035,2.28C175.075,21.947,173.89,21.133,173.771,19.341ZM10.255,34.011L8.893,35.285v2.828H7.709V27.57H8.893v6.324l3.538-3.422H14l-2.9,2.755,3.108,4.886H12.831Zm11.133,0.7h-5.8c0.118,1.718,1.021,2.5,2.354,2.5a1.963,1.963,0,0,0,2.027-1.422H21.2a3.186,3.186,0,0,1-3.286,2.5c-2.087,0-3.552-1.525-3.552-4,0-2.4,1.406-4,3.522-4,2.28,0,3.508,1.807,3.508,4v0.415Zm-5.773-1.066h4.5A2.25,2.25,0,1,0,15.616,33.641Zm9.6,2.044h1.2c0.133,1.154.7,1.584,2.042,1.584,1.289,0,1.836-.43,1.836-1.185,0-.68-0.415-0.992-1.747-1.243l-0.71-.134c-1.658-.311-2.383-1.066-2.383-2.251,0-1.3,1.036-2.163,2.783-2.163,2.042,0,3.079.9,3.108,2.533H30.155c-0.059-1.185-.755-1.511-1.924-1.511-1.022,0-1.6.415-1.6,1.126s0.563,0.992,1.54,1.184l0.681,0.134c1.88,0.37,2.635,1.006,2.635,2.25,0,1.452-1.155,2.28-3.035,2.28C26.515,38.291,25.33,37.477,25.211,35.685Zm14.434,1.465v0.963a4.456,4.456,0,0,1-.651.045,1.1,1.1,0,0,1-1.287-1.1,2.8,2.8,0,0,1-2.487,1.229c-1.658,0-2.695-.8-2.695-2.236,0-1.2.726-2.148,2.827-2.369l1.1-.119a1.063,1.063,0,0,0,1.2-1.051c0-.8-0.414-1.2-1.717-1.2s-1.85.371-1.924,1.511H32.821c0.089-1.481.874-2.533,3.108-2.533,2.117,0,2.872.933,2.872,2.222v4.265a0.35,0.35,0,0,0,.415.37h0.429Zm-2-2.058v-0.9a1.963,1.963,0,0,1-1.006.326l-1.11.134c-1.392.163-1.777,0.636-1.777,1.377a1.266,1.266,0,0,0,1.525,1.259A2.194,2.194,0,0,0,37.647,35.093Zm9.862,2.058v0.963a4.457,4.457,0,0,1-.651.045,1.1,1.1,0,0,1-1.287-1.1,2.8,2.8,0,0,1-2.487,1.229c-1.658,0-2.695-.8-2.695-2.236,0-1.2.726-2.148,2.827-2.369l1.1-.119a1.063,1.063,0,0,0,1.2-1.051c0-.8-0.414-1.2-1.717-1.2s-1.85.371-1.924,1.511H40.685c0.089-1.481.874-2.533,3.108-2.533,2.117,0,2.872.933,2.872,2.222v4.265a0.35,0.35,0,0,0,.415.37h0.429Zm-2-2.058v-0.9a1.963,1.963,0,0,1-1.006.326l-1.11.134c-1.392.163-1.777,0.636-1.777,1.377a1.266,1.266,0,0,0,1.525,1.259A2.194,2.194,0,0,0,45.51,35.093ZM50.1,31.509V36.47c0,0.4.192,0.651,0.874,0.651h0.7v0.993q-0.488.045-.844,0.045c-1.184,0-1.91-.415-1.91-1.585V31.509H47.659V30.472h1.258V28.31H50.1v2.162H51.67v1.037H50.1Zm9.12,1.438v5.167H58.038v-5.05a1.533,1.533,0,0,0-1.747-1.7,2.175,2.175,0,0,0-2.1,2.429v4.324H53V27.57h1.184v3.953a2.815,2.815,0,0,1,2.338-1.229A2.436,2.436,0,0,1,59.221,32.946Zm4.37,1.347a3.711,3.711,0,1,1,7.4,0A3.711,3.711,0,1,1,63.591,34.293Zm6.158,0c0-1.851-.977-2.932-2.458-2.932s-2.457,1.081-2.457,2.932,0.977,2.932,2.457,2.932S69.749,36.144,69.749,34.293Zm8.943-1.347v5.167H77.508v-5.05a1.532,1.532,0,0,0-1.746-1.7,2.175,2.175,0,0,0-2.1,2.429v4.324H72.476V30.472H73.6v1.14A2.812,2.812,0,0,1,76,30.295,2.436,2.436,0,0,1,78.693,32.946Zm12.038,1.347c0,2.444-1.407,4-3.553,4a3,3,0,0,1-2.561-1.273v4H83.433V30.472h1.125v1.185a3,3,0,0,1,2.62-1.363C89.323,30.295,90.731,31.85,90.731,34.293Zm-1.244-.059c0-1.852-.977-2.873-2.457-2.873s-2.457,1.081-2.457,2.932,0.976,2.932,2.457,2.932S89.487,36.084,89.487,34.234Zm8.943-1.288v5.167H97.246v-5.05a1.532,1.532,0,0,0-1.746-1.7,2.175,2.175,0,0,0-2.1,2.429v4.324H92.213V27.57H93.4v3.953a2.815,2.815,0,0,1,2.339-1.229A2.436,2.436,0,0,1,98.43,32.946Zm1.483,1.347a3.711,3.711,0,1,1,7.4,0A3.711,3.711,0,1,1,99.913,34.293Zm6.158,0c0-1.851-.977-2.932-2.458-2.932s-2.457,1.081-2.457,2.932,0.977,2.932,2.457,2.932S106.071,36.144,106.071,34.293Zm8.944-1.347v5.167H113.83v-5.05a1.532,1.532,0,0,0-1.746-1.7,2.175,2.175,0,0,0-2.1,2.429v4.324H108.8V30.472h1.125v1.14a2.811,2.811,0,0,1,2.4-1.318A2.437,2.437,0,0,1,115.015,32.946Zm8.513,1.762h-5.8c0.118,1.718,1.021,2.5,2.354,2.5a1.962,1.962,0,0,0,2.027-1.422h1.229a3.186,3.186,0,0,1-3.286,2.5c-2.088,0-3.553-1.525-3.553-4,0-2.4,1.407-4,3.523-4,2.279,0,3.508,1.807,3.508,4v0.415Zm-5.773-1.066h4.5A2.251,2.251,0,1,0,117.755,33.641Zm6.634,2.044h1.2c0.133,1.154.7,1.584,2.043,1.584,1.288,0,1.836-.43,1.836-1.185,0-.68-0.415-0.992-1.747-1.243l-0.71-.134c-1.659-.311-2.384-1.066-2.384-2.251,0-1.3,1.036-2.163,2.783-2.163,2.043,0,3.079.9,3.109,2.533h-1.185c-0.059-1.185-.755-1.511-1.924-1.511-1.022,0-1.6.415-1.6,1.126s0.562,0.992,1.54,1.184l0.681,0.134c1.88,0.37,2.634,1.006,2.634,2.25,0,1.452-1.154,2.28-3.034,2.28C125.692,38.291,124.507,37.477,124.389,35.685Zm9.047,2.206a2.008,2.008,0,0,1-1.659,2.252l-0.147.029V39.387l0.1-.03a1.1,1.1,0,0,0,.814-1.155h-0.088a0.771,0.771,0,0,1-.829-0.77,0.794,0.794,0,0,1,.829-0.8A1.038,1.038,0,0,1,133.436,37.891Zm11.37-10.321V38.114h-1.125V36.928a3,3,0,0,1-2.62,1.363c-2.146,0-3.552-1.554-3.552-4s1.406-4,3.552-4a3,3,0,0,1,2.561,1.274v-4h1.184Zm-1.139,6.723c0-1.851-.978-2.932-2.459-2.932s-2.457,1.14-2.457,2.992,0.977,2.872,2.457,2.872S143.667,36.144,143.667,34.293Zm9.668,2.858v0.963a4.452,4.452,0,0,1-.651.045,1.1,1.1,0,0,1-1.288-1.1,2.8,2.8,0,0,1-2.487,1.229c-1.658,0-2.694-.8-2.694-2.236,0-1.2.726-2.148,2.827-2.369l1.1-.119a1.063,1.063,0,0,0,1.2-1.051c0-.8-0.413-1.2-1.717-1.2s-1.85.371-1.923,1.511h-1.185c0.088-1.481.873-2.533,3.108-2.533,2.117,0,2.872.933,2.872,2.222v4.265a0.35,0.35,0,0,0,.415.37h0.429Zm-2-2.058v-0.9a1.96,1.96,0,0,1-1.006.326l-1.11.134c-1.392.163-1.777,0.636-1.777,1.377a1.266,1.266,0,0,0,1.525,1.259A2.194,2.194,0,0,0,151.336,35.093Zm4.592-3.584V36.47c0,0.4.192,0.651,0.873,0.651h0.7v0.993q-0.488.045-.843,0.045c-1.184,0-1.91-.415-1.91-1.585V31.509h-1.257V30.472h1.257V28.31h1.185v2.162H157.5v1.037h-1.568Zm9.5,5.642v0.963a4.452,4.452,0,0,1-.651.045,1.1,1.1,0,0,1-1.288-1.1,2.8,2.8,0,0,1-2.487,1.229c-1.658,0-2.695-.8-2.695-2.236,0-1.2.727-2.148,2.828-2.369l1.1-.119a1.063,1.063,0,0,0,1.2-1.051c0-.8-0.414-1.2-1.718-1.2s-1.85.371-1.923,1.511h-1.186c0.089-1.481.875-2.533,3.109-2.533,2.118,0,2.872.933,2.872,2.222v4.265a0.35,0.35,0,0,0,.415.37h0.429Zm-2-2.058v-0.9a1.968,1.968,0,0,1-1.007.326l-1.11.134c-1.392.163-1.777,0.636-1.777,1.377a1.266,1.266,0,0,0,1.525,1.259A2.194,2.194,0,0,0,163.435,35.093Zm12.674,2.058v0.963a4.466,4.466,0,0,1-.652.045,1.1,1.1,0,0,1-1.287-1.1,2.8,2.8,0,0,1-2.487,1.229c-1.659,0-2.695-.8-2.695-2.236,0-1.2.726-2.148,2.828-2.369l1.1-.119a1.063,1.063,0,0,0,1.2-1.051c0-.8-0.414-1.2-1.717-1.2s-1.85.371-1.924,1.511h-1.184c0.088-1.481.873-2.533,3.108-2.533,2.117,0,2.872.933,2.872,2.222v4.265a0.35,0.35,0,0,0,.415.37h0.429Zm-2-2.058v-0.9a1.96,1.96,0,0,1-1.006.326l-1.11.134c-1.392.163-1.777,0.636-1.777,1.377a1.266,1.266,0,0,0,1.525,1.259A2.194,2.194,0,0,0,174.11,35.093Zm9.329-2.147v5.167h-1.185v-5.05a1.532,1.532,0,0,0-1.746-1.7,2.175,2.175,0,0,0-2.1,2.429v4.324h-1.183V30.472h1.125v1.14a2.811,2.811,0,0,1,2.4-1.318A2.437,2.437,0,0,1,183.439,32.946Zm8.779-5.376V38.114h-1.125V36.928a3,3,0,0,1-2.619,1.363c-2.146,0-3.553-1.554-3.553-4s1.407-4,3.553-4a3,3,0,0,1,2.561,1.274v-4h1.183Zm-1.139,6.723c0-1.851-.977-2.932-2.458-2.932s-2.457,1.14-2.457,2.992,0.977,2.872,2.457,2.872S191.079,36.144,191.079,34.293Zm7.656-2.784V36.47c0,0.4.193,0.651,0.874,0.651H200.3v0.993q-0.487.045-.844,0.045c-1.183,0-1.909-.415-1.909-1.585V31.509h-1.258V30.472h1.258V28.31h1.184v2.162H200.3v1.037h-1.569Zm9.416,3.2h-5.8c0.118,1.718,1.022,2.5,2.354,2.5a1.962,1.962,0,0,0,2.027-1.422h1.229a3.186,3.186,0,0,1-3.286,2.5c-2.087,0-3.552-1.525-3.552-4,0-2.4,1.406-4,3.522-4,2.28,0,3.508,1.807,3.508,4v0.415Zm-5.773-1.066h4.5A2.251,2.251,0,1,0,202.378,33.641Zm6.886,0.651c0-2.458,1.421-4,3.538-4a3.1,3.1,0,0,1,3.287,2.769h-1.23a1.987,1.987,0,0,0-2.057-1.7c-1.3,0-2.295.933-2.295,2.932s1.022,2.932,2.295,2.932a2.007,2.007,0,0,0,2.072-1.732h1.215a3.153,3.153,0,0,1-3.287,2.8C210.714,38.291,209.264,36.751,209.264,34.293Zm14.376-1.347v5.167h-1.185v-5.05a1.532,1.532,0,0,0-1.746-1.7,2.174,2.174,0,0,0-2.1,2.429v4.324h-1.184V27.57h1.184v3.953a2.813,2.813,0,0,1,2.338-1.229A2.437,2.437,0,0,1,223.64,32.946Zm1.63,4.4a0.867,0.867,0,0,1,1.732,0A0.866,0.866,0,1,1,225.27,37.343Z"/>
</svg>
