<svg xmlns="http://www.w3.org/2000/svg" width="107" height="32" viewBox="0 0 107 32">
  <defs>
    <style>
      .cls-1 {
        fill: #fff;
      }

      .cls-1, .cls-2, .cls-3 {
        fill-rule: evenodd;
      }

      .cls-2 {
        fill: #eb0a1e;
      }

      .cls-3 {
        fill: #fbfbfb;
      }
    </style>
  </defs>
  <path class="cls-1" d="M70-.009V32.007m-6.022-8.87H0V8.86H63.974V23.137Zm-63.2-.761H63.2V9.623H0.777V22.377ZM8.65,18.643H7.508L6.621,15.126H6.6L5.734,18.643H4.569L3.184,13.477H4.335l0.828,3.516H5.177l0.91-3.516H7.164l0.894,3.559H8.073L8.93,13.477h1.129Zm2.23-5.166h3.912v0.954H12.03v1.108h2.535v0.883H12.03v1.266h2.82v0.956h-3.97V13.477ZM16.7,16.929a0.987,0.987,0,0,0,1.159.955,0.854,0.854,0,0,0,1.019-.645c0-.556-0.784-0.65-1.555-0.854s-1.56-.5-1.56-1.468a1.742,1.742,0,0,1,1.957-1.563c1.092,0,2.1.47,2.1,1.664H18.7a0.846,0.846,0,0,0-1.034-.782,0.677,0.677,0,0,0-.792.586c0,0.4.252,0.45,1.562,0.782a1.665,1.665,0,0,1,1.553,1.5c0,0.949-.754,1.658-2.176,1.658-1.16,0-2.24-.564-2.228-1.838H16.7Zm5.424-2.5H20.559V13.477h4.287v0.954H23.277v4.213h-1.15V14.431Zm3.612-.954H27.36l1.222,3.553H28.6l1.158-3.553h1.62v5.166H30.3V14.982H30.282L29,18.643H28.114l-1.282-3.625H26.818v3.625H25.739V13.477Zm6.94,0h1.149v5.166H32.679V13.477Zm2.455,0h1.145l2.182,3.466h0.016V13.477h1.078v5.166H38.4l-2.177-3.46H36.213v3.46H35.134V13.477Zm6.509,3.452a0.986,0.986,0,0,0,1.157.955,0.855,0.855,0,0,0,1.02-.645c0-.556-0.783-0.65-1.554-0.854s-1.561-.5-1.561-1.468a1.742,1.742,0,0,1,1.957-1.563c1.09,0,2.1.47,2.1,1.664H43.642a0.845,0.845,0,0,0-1.032-.782,0.678,0.678,0,0,0-.793.586c0,0.4.25,0.45,1.564,0.782a1.664,1.664,0,0,1,1.551,1.5c0,0.949-.753,1.658-2.174,1.658-1.158,0-2.242-.564-2.229-1.838h1.115Zm5.421-2.5H45.495V13.477h4.288v0.954H48.215v4.213H47.064V14.431Zm3.613-.954H54.59v0.954H51.827v1.108h2.537v0.883H51.827v1.266h2.821v0.956H50.677V13.477Zm5.037,0h2.821A1.429,1.429,0,0,1,60.067,14.9a1.572,1.572,0,0,1-1.012,1.4v0.015l1.354,2.325H59.083l-1.241-2.021H56.865v2.021h-1.15V13.477Zm1.15,2.337h1.262a0.73,0.73,0,1,0,0-1.454H56.865v1.454Z"/>
  <path class="cls-2" d="M107,32.027H74.973V0H107V32.027Z"/>
  <path class="cls-1" d="M95.605,7.584a14.716,14.716,0,0,0-8.212,0c-3.04.977-5.128,3.005-5.128,5.35,0,3.3,4.134,5.972,9.234,5.972s9.233-2.674,9.233-5.972C100.733,10.59,98.644,8.562,95.605,7.584ZM91.5,16.339c-0.761,0-1.383-1.5-1.419-3.376,0.458,0.041.932,0.063,1.419,0.063s0.961-.022,1.419-0.063C92.882,14.843,92.261,16.339,91.5,16.339Zm-1.323-4.847c0.207-1.319.721-2.254,1.323-2.254s1.115,0.935,1.322,2.254c-0.423.038-.866,0.059-1.322,0.059S90.6,11.53,90.177,11.491Zm3.454-.1C93.322,9.321,92.485,7.836,91.5,7.836s-1.823,1.485-2.132,3.556c-1.875-.293-3.186-0.959-3.186-1.735,0-1.046,2.381-1.893,5.318-1.893s5.318,0.848,5.318,1.893C96.817,10.433,95.506,11.1,93.631,11.391ZM83.614,12.716a4.313,4.313,0,0,1,1.068-2.774,1.27,1.27,0,0,0-.012.171c0,1.272,1.911,2.353,4.575,2.751,0,0.1,0,.192,0,0.289,0,2.365.656,4.368,1.563,5.058C86.775,17.965,83.614,15.6,83.614,12.716Zm8.581,5.5c0.907-.691,1.563-2.693,1.563-5.058q0-.146,0-0.289c2.664-.4,4.574-1.479,4.574-2.751a1.287,1.287,0,0,0-.012-0.171,4.315,4.315,0,0,1,1.068,2.774C99.385,15.6,96.224,17.965,92.195,18.211Zm-9.612,2.494H79V21.5h1.323v3.378h0.938V21.5h1.323V20.705ZM85,20.58a2.21,2.21,0,1,0,2.21,2.21A2.21,2.21,0,0,0,85,20.58Zm1.084,2.879a1.148,1.148,0,0,1-.866.709,1.235,1.235,0,0,1-.435,0,1.148,1.148,0,0,1-.866-0.709,1.835,1.835,0,0,1,0-1.338,1.148,1.148,0,0,1,.866-0.708,1.229,1.229,0,0,1,.435,0,1.147,1.147,0,0,1,.866.708A1.838,1.838,0,0,1,86.087,23.459Zm1.142-2.754h1.105L89.366,22.5,90.4,20.705h1.1l-1.668,2.627v1.543H88.9V23.332ZM91.52,22.79A2.21,2.21,0,1,1,93.731,25,2.21,2.21,0,0,1,91.52,22.79Zm2.211,1.4a1.275,1.275,0,0,0,.217-0.019,1.146,1.146,0,0,0,.866-0.709,1.834,1.834,0,0,0,0-1.338,1.146,1.146,0,0,0-.866-0.709,1.227,1.227,0,0,0-.435,0,1.146,1.146,0,0,0-.866.709,1.832,1.832,0,0,0,0,1.338,1.146,1.146,0,0,0,.866.709A1.276,1.276,0,0,0,93.731,24.187Zm8.883-.233h-1.775l-0.342.917H99.454l1.689-4.169h1.167L104,24.872h-1.043l-0.343-.917h0Zm-0.273-.73-0.614-1.647-0.615,1.647h1.229Zm-2.612-2.519H96.146V21.5h1.323v3.378h0.938V21.5h1.323V20.705Z"/>
  <path class="cls-3" d="M70.112,80.035H69.083V-0.018h1.028V80.035Z"/>
</svg>
