<svg id="logo" xmlns="http://www.w3.org/2000/svg" viewBox="0 0 600 500">
  <defs>
    <style>
      .cls-1 {
        fill: #6ebe44;
      }
      .cls-3 {
        fill: #4b286d;
      }
    </style>
  </defs>
  <g>
    <g>
      <path class="cls-3" d="M510.44,44.61h-10.03V25.8h-6.69v23.41h16.71v-4.59h.01Z"/>
      <path class="cls-3" d="M481.61,30.19v-4.39h-16.3v23.41h16.3v-4.81h-9.61v-5.22h7.73v-4.39h-7.73v-4.39l9.61-.21h0Z"/>
      <path class="cls-3" d="M564.15,34.58c-4.39-.84-6.06-1.05-6.06-2.92,0-1.67,2.3-2.3,3.55-2.3,2.09,0,4.39,.63,6.9,1.88l1.88-4.18c-2.51-1.25-6.06-2.09-9.2-2.09-6.27,0-10.24,2.51-10.45,7.31-.21,4.39,3.55,6.06,6.9,6.9,3.14,.84,6.48,1.25,6.48,3.14s-1.25,2.51-4.39,2.51c-2.72,0-5.43-.84-7.73-2.09l-1.25,4.39c2.92,1.25,6.06,2.09,9.4,2.09,4.39,0,7.53-.84,9.82-2.92,1.67-1.25,2.3-3.34,2.3-5.22-.84-3.14-2.92-5.43-8.15-6.48"/>
      <path class="cls-3" d="M533.23,25.6v17.13c-.21,1.25-1.47,2.3-3.76,2.3-1.47,0-2.72-.63-3.34-1.25-.42-.42-.42-1.25-.42-2.51v-15.46h-6.9v16.09c0,2.3,.42,3.34,1.25,4.39,1.67,2.09,5.01,3.14,9.4,3.14h.42c6.06,0,9.2-2.51,9.82-4.39,.42-1.05,.63-1.25,.63-3.76v-15.67h-7.11Z"/>
      <path class="cls-3" d="M456.11,30.4v-4.59h-20.69v4.39h6.9v18.81h6.69V30.41h7.1Z"/>
      <path class="cls-3" d="M438.56,19.32l-38.87,7.73v2.51h.21c25.49-6.27,38.66-9.82,38.87-9.82s.21-.21,.21-.21c0-.21-.21-.21-.42-.21"/>
    </g>
    <path class="cls-1" d="M406.17,21.41c.63-.42,.84-.21,.63,.42-.42,.84-1.67,4.59-11.28,12.96-2.51,2.09-4.39,3.34-7.73,5.43,5.64-8.78,14.42-16.09,18.39-18.81m1.05-2.92c-1.88,.21-5.43,2.92-7.11,4.39-7.53,6.69-13.17,12.54-17.56,19.02-8.57,4.39-19.65,9.4-30.51,12.96h-.21l-2.09,5.64,1.05-.42c6.9-2.51,18.39-7.53,29.05-12.96-.63,1.25-.84,2.92-.84,4.18,0,.84,.21,1.88,.63,2.72,.84,1.67,2.09,2.92,3.76,3.76,2.51,1.05,6.27,1.05,10.45-.21,10.65-3.14,23.2-12.96,26.12-15.26h.21c.21,0,.21-.21,0-.21,0,0-.21-.21-.42,0h-.21c-2.92,1.88-17.34,10.24-26.54,12.75-4.81,1.25-8.36,.63-9.61-1.25-.63-.84-.84-1.25-.84-2.51,0-1.88,.84-4.18,2.51-6.9,1.25-.84,2.92-1.88,4.39-2.51,9.2-5.22,19.65-15.04,19.85-21.1v-.21c0-.63-.21-1.05-.63-1.25-.42-.42-1.05-.63-1.47-.63"/>
    <path class="cls-3" d="M399.9,27.05l-40.55,8.78-1.67,4.18,42.42-10.24-.21-2.72h.01Z"/>
  </g>
</svg>