<svg id="Frame_1" data-name="Frame 1" xmlns="http://www.w3.org/2000/svg" width="728" height="90" viewBox="0 0 728 90">
  <defs>
    <style>
      .cls-1 {
        fill: #fff;
        fill-rule: evenodd;
      }
    </style>
  </defs>
  <path id="Komportable_at_maliwanag_na_ang_bahay_mas_energy_efficient_pa." data-name="Komportable at maliwanag na ang bahay, mas energy efficient pa." class="cls-1" d="M168.109,22.22h-2.555l-8.953,8.6,0-8.606h-1.933l0,16.383H156.6l0-5.453,3.107-2.968,6.026,8.423h2.37l-6.992-9.712Zm5.953,16.661c3.336,0,5.753-2.414,5.754-6.211s-2.415-6.213-5.751-6.214-5.753,2.415-5.754,6.211S170.725,38.88,174.062,38.881Zm0-1.657c-2.3,0-3.819-1.681-3.818-4.557s1.52-4.555,3.821-4.555,3.819,1.681,3.818,4.557S176.363,37.225,174.062,37.224Zm20.421-10.763a4.1,4.1,0,0,0-3.659,2.231,3.719,3.719,0,0,0-3.658-2.233,3.813,3.813,0,0,0-3.429,2.024V26.734h-1.749l0,11.873h1.841l0-6.489c0-2.853,1.588-4,3.038-4,1.542,0,2.485.783,2.484,2.624l0,7.869h1.841l0-6.489c0-2.853,1.543-4,3.038-4,1.565,0,2.485.783,2.485,2.624l0,7.869h1.841l0-8.054A3.773,3.773,0,0,0,194.483,26.461Zm12.647,0a4.668,4.668,0,0,0-4.074,2.116V26.739h-1.749l0,16.383h1.841V36.91a4.664,4.664,0,0,0,3.98,1.98c3.337,0,5.524-2.415,5.525-6.211S210.466,26.465,207.13,26.464ZM206.9,37.233c-2.3,0-3.819-1.681-3.819-4.557s1.52-4.556,3.821-4.555,3.82,1.589,3.819,4.465S209.2,37.234,206.9,37.233Zm13.128,1.66c3.336,0,5.753-2.415,5.754-6.211s-2.415-6.213-5.751-6.214-5.753,2.415-5.754,6.211S216.688,38.892,220.025,38.893Zm0-1.657c-2.3,0-3.819-1.681-3.818-4.557s1.519-4.556,3.82-4.555,3.82,1.681,3.819,4.557S222.326,37.237,220.025,37.237Zm13.5-10.673a4.148,4.148,0,0,0-3.821,2.277V26.747h-1.749l0,11.873h1.841l0-6.765c0-2.3,1.519-3.5,3.889-3.5h0.46V26.587C233.888,26.564,233.7,26.564,233.52,26.564Zm8.074,1.8V26.75h-2.439V23.39h-1.84v3.36h-1.956v1.611h1.956l0,7.869c0,1.818,1.127,2.462,2.968,2.463q0.552,0,1.311-.069V37.081H240.51c-1.058,0-1.357-.392-1.357-1.013l0-7.708h2.439Zm11.672,8.77a0.544,0.544,0,0,1-.644-0.575l0-6.627c0-2-1.173-3.452-4.463-3.453-3.475,0-4.695,1.633-4.834,3.933h1.841c0.116-1.772.967-2.347,2.992-2.346s2.669,0.622,2.669,1.865c0,1.058-.668,1.5-1.865,1.633l-1.7.184c-3.268.344-4.4,1.817-4.4,3.68,0,2.232,1.61,3.475,4.187,3.476a4.352,4.352,0,0,0,3.866-1.909,1.7,1.7,0,0,0,2,1.7,7.014,7.014,0,0,0,1.013-.069v-1.5h-0.667Zm-6.121.206c-1.634,0-2.37-.783-2.369-1.956,0-1.151.6-1.887,2.761-2.139l1.726-.207a3.062,3.062,0,0,0,1.565-.506v1.4A3.411,3.411,0,0,1,247.145,37.336ZM261.43,26.479a4.665,4.665,0,0,0-3.982,1.978l0-6.213h-1.841l0,16.383h1.749V36.787a4.668,4.668,0,0,0,4.072,2.118c3.337,0,5.523-2.415,5.524-6.211S264.766,26.48,261.43,26.479ZM261.2,37.248c-2.3,0-3.82-1.681-3.819-4.557s1.52-4.556,3.821-4.555,3.819,1.589,3.819,4.465S263.5,37.248,261.2,37.248Zm10.58,1.453a11.7,11.7,0,0,0,1.174-.069V37.09h-0.874a0.921,0.921,0,0,1-1.127-1.013l0-13.829h-1.841l0,13.99C269.108,38.055,270.12,38.7,271.777,38.7Zm12.784-6c0-3.405-1.908-6.213-5.452-6.214-3.29,0-5.477,2.484-5.478,6.211,0,3.843,2.277,6.213,5.521,6.214a4.953,4.953,0,0,0,5.109-3.887h-1.91A3.05,3.05,0,0,1,279.2,37.23c-2.071,0-3.474-1.221-3.657-3.89l9.02,0V32.7Zm-5.452-4.534c2.117,0,3.29,1.566,3.473,3.521l-7,0C275.887,29.336,277.245,28.163,279.109,28.164Zm20.837,8.98a0.544,0.544,0,0,1-.644-0.575l0-6.627c0-2-1.173-3.452-4.463-3.453-3.475,0-4.695,1.633-4.833,3.933h1.84c0.116-1.772.968-2.347,2.992-2.346s2.669,0.622,2.669,1.865c0,1.058-.668,1.5-1.864,1.633l-1.7.184c-3.267.344-4.395,1.817-4.4,3.68,0,2.232,1.61,3.475,4.187,3.476A4.351,4.351,0,0,0,297.6,37a1.7,1.7,0,0,0,2,1.7,7,7,0,0,0,1.012-.069v-1.5h-0.667Zm-6.121.205c-1.633,0-2.369-.783-2.369-1.956,0-1.151.6-1.887,2.762-2.139l1.726-.207a3.061,3.061,0,0,0,1.564-.506v1.4A3.411,3.411,0,0,1,293.825,37.349Zm13.341-8.97V26.768h-2.439V23.408h-1.84v3.359h-1.956v1.611h1.956l0,7.87c0,1.818,1.127,2.462,2.968,2.463q0.552,0,1.311-.069V37.1h-1.082c-1.058,0-1.357-.392-1.357-1.013l0-7.708h2.439ZM325.109,26.5a4.1,4.1,0,0,0-3.659,2.231,3.718,3.718,0,0,0-3.658-2.233,3.815,3.815,0,0,0-3.429,2.024V26.77h-1.749l0,11.873h1.84l0-6.489c0-2.853,1.589-4,3.039-4,1.541,0,2.484.783,2.484,2.624l0,7.869h1.841V32.156c0-2.853,1.543-4,3.039-4,1.565,0,2.485.783,2.484,2.624l0,7.869h1.841l0-8.054A3.774,3.774,0,0,0,325.109,26.5Zm16.568,10.658a0.544,0.544,0,0,1-.644-0.575V29.952c0-2-1.172-3.452-4.463-3.453-3.474,0-4.694,1.633-4.833,3.933h1.841c0.116-1.772.967-2.347,2.992-2.346s2.669,0.622,2.669,1.864c0,1.059-.668,1.5-1.865,1.633l-1.7.184c-3.268.344-4.4,1.817-4.4,3.68,0,2.232,1.609,3.475,4.187,3.476a4.352,4.352,0,0,0,3.866-1.909,1.7,1.7,0,0,0,2,1.7,7.024,7.024,0,0,0,1.013-.069v-1.5h-0.667Zm-6.121.206c-1.634,0-2.37-.783-2.37-1.957,0-1.151.6-1.887,2.762-2.139l1.726-.207a3.065,3.065,0,0,0,1.565-.506v1.4A3.411,3.411,0,0,1,335.556,37.36Zm11.016,1.36a11.717,11.717,0,0,0,1.174-.069V37.11h-0.874a0.922,0.922,0,0,1-1.128-1.013l0-13.829h-1.841l0,13.99C343.9,38.075,344.915,38.72,346.572,38.72ZM350.2,25.1a1.243,1.243,0,1,0-1.242-1.243A1.252,1.252,0,0,0,350.2,25.1Zm-0.924,13.553h1.841l0-11.873h-1.841Zm19-11.868L366.6,32.145c-0.437,1.426-.875,2.853-1.267,4.279-0.413-1.427-.85-2.854-1.287-4.28l-1.655-5.362h-1.933L358.8,32.143c-0.461,1.45-.875,2.876-1.267,4.326-0.414-1.45-.828-2.876-1.287-4.326l-1.679-5.362h-1.979l3.955,11.874h1.933l1.727-5.5c0.415-1.311.829-2.692,1.221-4.026,0.367,1.335.781,2.715,1.195,4.027l1.747,5.5h1.933l3.961-11.872h-1.979Zm12.9,10.381a0.544,0.544,0,0,1-.644-0.575l0-6.627c0-2-1.173-3.452-4.463-3.453-3.475,0-4.7,1.633-4.833,3.933h1.841c0.115-1.772.967-2.347,2.992-2.346s2.669,0.622,2.668,1.864c0,1.059-.667,1.5-1.864,1.633l-1.7.184c-3.267.344-4.4,1.817-4.4,3.68,0,2.232,1.61,3.475,4.187,3.476a4.35,4.35,0,0,0,3.866-1.909,1.7,1.7,0,0,0,2,1.7,7,7,0,0,0,1.012-.069v-1.5h-0.668Zm-6.12.206c-1.634,0-2.37-.783-2.37-1.957,0-1.151.6-1.887,2.762-2.139l1.726-.207a3.068,3.068,0,0,0,1.565-.506v1.4A3.41,3.41,0,0,1,375.061,37.371ZM389,26.514a4.373,4.373,0,0,0-3.728,2.047V26.789h-1.748l0,11.873h1.841l0-6.719c0-2.623,1.727-3.773,3.268-3.773,1.7,0,2.715.806,2.715,2.647l0,7.846h1.84l0-8.03C393.187,28.01,391.646,26.514,389,26.514Zm16.662,10.658a0.544,0.544,0,0,1-.644-0.575l0-6.627c0-2-1.173-3.452-4.463-3.453-3.475,0-4.695,1.633-4.833,3.933h1.841c0.115-1.772.967-2.347,2.991-2.346s2.669,0.622,2.669,1.865c0,1.058-.668,1.5-1.864,1.633l-1.7.184c-3.267.344-4.4,1.817-4.4,3.68,0,2.232,1.61,3.475,4.187,3.476a4.35,4.35,0,0,0,3.866-1.909,1.7,1.7,0,0,0,2,1.7,7,7,0,0,0,1.012-.069v-1.5h-0.668Zm-6.12.205c-1.634,0-2.37-.783-2.37-1.957,0-1.15.6-1.887,2.762-2.139l1.726-.207a3.061,3.061,0,0,0,1.564-.506v1.4A3.41,3.41,0,0,1,399.542,37.377ZM416.85,26.8v1.726a4.791,4.791,0,0,0-4.072-2c-3.337,0-5.523,2.415-5.524,6.211s2.184,6.213,5.521,6.214a4.8,4.8,0,0,0,3.981-1.886V38.21c0,2.462-1.312,3.681-3.682,3.681-1.864,0-2.991-.76-3.221-2.256H408.01c0.253,2.3,2.024,3.82,5.061,3.821,3.751,0,5.523-2.162,5.524-5.245l0-11.413H416.85ZM413,37.289c-2.3,0-3.819-1.773-3.818-4.557s1.52-4.556,3.821-4.555,3.819,1.681,3.818,4.557S415.305,37.289,413,37.289Zm17.322-10.764a4.373,4.373,0,0,0-3.728,2.047V26.8h-1.749l0,11.873h1.841l0-6.719c0-2.623,1.727-3.773,3.268-3.773,1.7,0,2.715.806,2.715,2.647l0,7.846h1.84l0-8.03C434.513,28.022,432.972,26.526,430.326,26.525Zm16.662,10.658a0.544,0.544,0,0,1-.644-0.575l0-6.627c0-2-1.173-3.452-4.463-3.453-3.475,0-4.695,1.633-4.833,3.933h1.84c0.116-1.772.967-2.347,2.992-2.346s2.669,0.622,2.669,1.864c0,1.058-.668,1.5-1.864,1.633l-1.7.184c-3.268.344-4.395,1.817-4.4,3.68,0,2.232,1.61,3.475,4.187,3.476a4.351,4.351,0,0,0,3.866-1.909,1.7,1.7,0,0,0,2,1.7,7,7,0,0,0,1.012-.069v-1.5h-0.667Zm-6.121.206c-1.633,0-2.369-.783-2.369-1.956,0-1.151.6-1.887,2.762-2.139l1.725-.207a3.062,3.062,0,0,0,1.565-.506v1.4A3.411,3.411,0,0,1,440.867,37.388Zm21.6-.2a0.544,0.544,0,0,1-.644-0.575V29.985c0-2-1.172-3.452-4.463-3.453-3.474,0-4.694,1.632-4.833,3.933h1.841c0.116-1.772.967-2.347,2.992-2.346s2.669,0.622,2.669,1.864c0,1.058-.668,1.5-1.865,1.633l-1.7.184c-3.268.344-4.4,1.817-4.4,3.68,0,2.232,1.609,3.475,4.187,3.476a4.353,4.353,0,0,0,3.866-1.909,1.7,1.7,0,0,0,2,1.7,7,7,0,0,0,1.013-.069v-1.5h-0.667Zm-6.121.206c-1.634,0-2.37-.783-2.369-1.956,0-1.151.6-1.887,2.761-2.139l1.726-.207a3.065,3.065,0,0,0,1.565-.506v1.4A3.411,3.411,0,0,1,456.346,37.393Zm13.939-10.857a4.375,4.375,0,0,0-3.728,2.047V26.811h-1.749l0,11.873h1.841V31.965c0-2.623,1.727-3.773,3.269-3.773,1.7,0,2.715.806,2.714,2.647l0,7.846h1.841l0-8.03C474.473,28.032,472.932,26.536,470.285,26.536Zm15.955,0.28v1.726a4.791,4.791,0,0,0-4.072-2c-3.337,0-5.523,2.415-5.524,6.211s2.184,6.213,5.52,6.214a4.8,4.8,0,0,0,3.982-1.886v1.151c0,2.462-1.312,3.681-3.682,3.681-1.864,0-2.991-.76-3.221-2.256H477.4c0.253,2.3,2.024,3.82,5.061,3.821,3.751,0,5.523-2.161,5.524-5.245l0-11.413H486.24Zm-3.846,10.492c-2.3,0-3.819-1.773-3.818-4.557S480.1,28.2,482.4,28.2s3.82,1.681,3.819,4.557S484.7,37.308,482.394,37.308Zm17.667-10.764a4.662,4.662,0,0,0-3.981,1.978V22.309h-1.84l0,16.383h1.749V36.851a4.668,4.668,0,0,0,4.073,2.118c3.336,0,5.523-2.415,5.524-6.211S503.4,26.545,500.061,26.544Zm-0.233,10.769c-2.3,0-3.819-1.681-3.819-4.557s1.52-4.556,3.821-4.555,3.82,1.589,3.819,4.465S502.129,37.313,499.828,37.312Zm17.61-.11a0.544,0.544,0,0,1-.644-0.575l0-6.627c0-2-1.172-3.452-4.463-3.453-3.474,0-4.694,1.632-4.833,3.933h1.841c0.115-1.772.967-2.347,2.992-2.346S515,28.757,515,30c0,1.059-.667,1.5-1.864,1.633l-1.7.184c-3.267.344-4.4,1.817-4.4,3.68,0,2.232,1.61,3.475,4.187,3.476a4.351,4.351,0,0,0,3.866-1.909,1.7,1.7,0,0,0,2,1.7,6.985,6.985,0,0,0,1.012-.069V37.2h-0.668Zm-6.12.205c-1.634,0-2.37-.783-2.37-1.957,0-1.15.6-1.887,2.762-2.139l1.726-.207A3.067,3.067,0,0,0,515,32.6V34A3.41,3.41,0,0,1,511.318,37.407Zm13.939-10.857a4.374,4.374,0,0,0-3.636,1.909l0-6.144h-1.841l0,16.383h1.841l0-6.719c0-2.623,1.727-3.773,3.268-3.773,1.7,0,2.715.806,2.715,2.647l0,7.846h1.841l0-8.03C529.445,28.047,527.9,26.551,525.257,26.551Zm16.662,10.658a0.544,0.544,0,0,1-.644-0.575l0-6.627c0-2-1.173-3.452-4.463-3.453-3.474,0-4.694,1.632-4.833,3.933h1.841c0.115-1.772.967-2.347,2.992-2.346s2.669,0.622,2.668,1.864c0,1.058-.667,1.5-1.864,1.633l-1.7.184c-3.267.344-4.395,1.817-4.4,3.681,0,2.232,1.61,3.475,4.187,3.476a4.35,4.35,0,0,0,3.866-1.909,1.7,1.7,0,0,0,2,1.7,6.985,6.985,0,0,0,1.012-.069v-1.5h-0.668Zm-6.12.205c-1.634,0-2.37-.783-2.37-1.956,0-1.151.6-1.887,2.762-2.139l1.726-.207a3.066,3.066,0,0,0,1.565-.506v1.4A3.41,3.41,0,0,1,535.8,37.414Zm15.5-10.58-1.682,4.924c-0.6,1.726-1.174,3.451-1.7,5.154-0.551-1.7-1.1-3.406-1.7-5.132l-1.678-4.948h-2.025l4.46,12.266c-0.138.368-.276,0.759-0.414,1.1a2.08,2.08,0,0,1-2.163,1.472h-1.082v1.542a9.178,9.178,0,0,0,1.1.069,3.587,3.587,0,0,0,3.866-2.714l5.02-13.736h-2Zm1.99,9.573v2.3H554.3v0.368c0,0.9-.23,1.472-0.851,1.564l-0.162.023v1.242l0.23-.023c1.358-.138,2.094-0.966,2.1-2.968V36.407h-2.324ZM252.384,54.477a4.1,4.1,0,0,0-3.659,2.231,3.718,3.718,0,0,0-3.658-2.233,3.814,3.814,0,0,0-3.429,2.024V54.75H239.89l0,11.873h1.841l0-6.489c0-2.853,1.589-4,3.038-4,1.542,0,2.485.783,2.485,2.624l0,7.87h1.84l0-6.489c0-2.853,1.543-4,3.039-4,1.564,0,2.484.783,2.484,2.624l0,7.869h1.841l0-8.053A3.775,3.775,0,0,0,252.384,54.477Zm16.567,10.658a0.544,0.544,0,0,1-.644-0.575l0-6.627c0-2-1.172-3.452-4.463-3.453-3.474,0-4.694,1.632-4.833,3.933h1.841c0.115-1.772.967-2.347,2.992-2.346s2.669,0.622,2.668,1.865c0,1.058-.667,1.5-1.864,1.633l-1.7.184c-3.267.344-4.395,1.817-4.4,3.68,0,2.232,1.61,3.475,4.187,3.476A4.351,4.351,0,0,0,266.6,65a1.7,1.7,0,0,0,2,1.7,7,7,0,0,0,1.012-.069v-1.5h-0.668Zm-6.12.205c-1.634,0-2.37-.783-2.37-1.956,0-1.151.6-1.887,2.762-2.139l1.726-.207a3.067,3.067,0,0,0,1.565-.506v1.4A3.41,3.41,0,0,1,262.831,65.34Zm12.718,1.568c2.923,0,4.718-1.287,4.718-3.542,0-1.933-1.172-2.923-4.094-3.5l-1.059-.207c-1.518-.3-2.393-0.714-2.392-1.841,0-1.1.9-1.749,2.485-1.748,1.818,0,2.9.507,2.991,2.348h1.841c-0.046-2.531-1.656-3.935-4.831-3.936-2.716,0-4.327,1.333-4.327,3.358,0,1.841,1.127,3.015,3.7,3.5l1.1,0.207c2.071,0.392,2.715.875,2.715,1.934,0,1.173-.852,1.841-2.854,1.84-2.094,0-2.968-.668-3.175-2.463h-1.864C270.7,65.642,272.535,66.908,275.549,66.908ZM295.954,60.7c0-3.405-1.908-6.213-5.451-6.214-3.291,0-5.477,2.484-5.478,6.211,0,3.843,2.276,6.213,5.52,6.214a4.953,4.953,0,0,0,5.11-3.887h-1.91a3.05,3.05,0,0,1-3.153,2.208c-2.071,0-3.474-1.22-3.658-3.89l9.02,0V60.7ZM290.5,56.167c2.117,0,3.29,1.566,3.474,3.522l-7,0C287.281,57.339,288.639,56.166,290.5,56.167Zm13.1-1.676a4.373,4.373,0,0,0-3.728,2.047V54.766h-1.749l0,11.873h1.841l0-6.719c0-2.623,1.726-3.773,3.268-3.773,1.7,0,2.715.806,2.715,2.647l0,7.846h1.84l0-8.031C307.791,55.987,306.25,54.491,303.6,54.491Zm17.248,6.217c0-3.406-1.908-6.213-5.452-6.214-3.29,0-5.477,2.484-5.478,6.211,0,3.843,2.276,6.213,5.521,6.214a4.953,4.953,0,0,0,5.109-3.887h-1.91a3.049,3.049,0,0,1-3.153,2.208c-2.071,0-3.474-1.221-3.657-3.89l9.02,0V60.708ZM315.4,56.173c2.117,0,3.29,1.566,3.473,3.521l-7,0C312.178,57.346,313.536,56.173,315.4,56.173Zm13.193-1.584a4.145,4.145,0,0,0-3.82,2.277V54.772h-1.748l0,11.873h1.841l0-6.765c0-2.3,1.52-3.5,3.89-3.5h0.46V54.613C328.961,54.589,328.777,54.589,328.593,54.589Zm11.152,0.187V56.5a4.791,4.791,0,0,0-4.072-2c-3.336,0-5.523,2.414-5.524,6.211s2.184,6.213,5.521,6.214a4.8,4.8,0,0,0,3.981-1.886v1.151c0,2.462-1.313,3.681-3.683,3.681-1.864,0-2.991-.76-3.221-2.256h-1.841c0.253,2.3,2.024,3.82,5.062,3.821,3.75,0,5.523-2.161,5.523-5.245l0-11.413h-1.748ZM335.9,65.268c-2.3,0-3.819-1.773-3.818-4.557s1.52-4.556,3.821-4.555,3.819,1.681,3.818,4.557S338.2,65.269,335.9,65.268ZM351.8,54.78L350.115,59.7c-0.6,1.725-1.175,3.451-1.7,5.154-0.552-1.7-1.1-3.406-1.7-5.132l-1.678-4.948h-2.025l4.461,12.266c-0.138.368-.277,0.759-0.415,1.1a2.08,2.08,0,0,1-2.163,1.472h-1.082v1.542a9.161,9.161,0,0,0,1.1.069,3.588,3.588,0,0,0,3.866-2.714L353.8,54.78h-2Zm17.341,5.941c0-3.405-1.908-6.213-5.452-6.214-3.29,0-5.477,2.484-5.478,6.211,0,3.843,2.277,6.213,5.521,6.214a4.953,4.953,0,0,0,5.109-3.887h-1.91a3.05,3.05,0,0,1-3.153,2.208c-2.07,0-3.474-1.221-3.657-3.89l9.02,0V60.721Zm-5.452-4.534c2.117,0,3.29,1.566,3.473,3.521l-7,0C360.463,57.359,361.821,56.186,363.685,56.187Zm11.657-4.346H376.4V50.276c-0.276-.023-0.828-0.046-1.173-0.046-2.347,0-3.314,1.242-3.315,3.336v1.219h-1.956V56.4h1.955l0,10.262h1.84l0-10.263h2.531V54.786h-2.531V53.52A1.461,1.461,0,0,1,375.342,51.841Zm7.6,0H384V50.278c-0.276-.023-0.829-0.046-1.174-0.046-2.347,0-3.314,1.242-3.314,3.335v1.22h-1.956V56.4h1.956l0,10.262h1.841l0-10.262h2.531V54.788h-2.531V53.522A1.46,1.46,0,0,1,382.946,51.843Zm3.86,1.267a1.243,1.243,0,1,0-1.243-1.243A1.251,1.251,0,0,0,386.806,53.109Zm-0.925,13.553h1.841l0-11.873h-1.84Zm9.428,0.279a4.9,4.9,0,0,0,5.109-4.348h-1.887a3.118,3.118,0,0,1-3.222,2.691c-1.979,0-3.566-1.451-3.565-4.557s1.543-4.556,3.568-4.555a3.091,3.091,0,0,1,3.2,2.647h1.91a4.811,4.811,0,0,0-5.107-4.3c-3.29,0-5.5,2.392-5.5,6.211S392.064,66.94,395.309,66.941Zm8.026-13.827a1.243,1.243,0,1,0-1.242-1.243A1.252,1.252,0,0,0,403.335,53.114Zm-0.924,13.553h1.841l0-11.873h-1.84Zm14.86-5.932c0-3.406-1.908-6.213-5.452-6.214-3.29,0-5.477,2.484-5.478,6.211,0,3.843,2.276,6.213,5.521,6.214a4.953,4.953,0,0,0,5.109-3.887h-1.91a3.05,3.05,0,0,1-3.153,2.208c-2.071,0-3.474-1.221-3.657-3.89l9.02,0V60.734ZM411.819,56.2c2.117,0,3.29,1.566,3.473,3.521l-6.995,0C408.6,57.372,409.955,56.2,411.819,56.2Zm13.1-1.676a4.374,4.374,0,0,0-3.728,2.047V54.8h-1.748l0,11.873h1.841l0-6.719c0-2.623,1.727-3.773,3.268-3.773,1.7,0,2.715.806,2.715,2.647l0,7.846h1.841l0-8.03C429.108,56.02,427.566,54.524,424.92,54.523Zm11.9,1.89V54.8h-2.439V51.443h-1.84V54.8h-1.956v1.611h1.956l0,7.869c0,1.818,1.127,2.462,2.968,2.463q0.552,0,1.311-.069V65.134h-1.082c-1.058,0-1.357-.392-1.357-1.013l0-7.708h2.439Zm11.27-1.884a4.668,4.668,0,0,0-4.073,2.116V54.8h-1.749l0,16.383H444.1l0-6.213a4.663,4.663,0,0,0,3.98,1.98c3.337,0,5.523-2.415,5.524-6.211S451.424,54.531,448.087,54.53ZM447.854,65.3c-2.3,0-3.819-1.681-3.818-4.557s1.52-4.556,3.821-4.555,3.819,1.589,3.818,4.465S450.155,65.3,447.854,65.3Zm17.611-.11a0.544,0.544,0,0,1-.644-0.575l0-6.627c0-2-1.173-3.452-4.463-3.453-3.475,0-4.695,1.633-4.833,3.933h1.84c0.116-1.772.967-2.347,2.992-2.346s2.669,0.622,2.669,1.864c0,1.058-.668,1.5-1.864,1.633l-1.7.184c-3.268.344-4.4,1.817-4.4,3.68,0,2.232,1.61,3.475,4.187,3.476a4.351,4.351,0,0,0,3.866-1.909,1.7,1.7,0,0,0,2,1.7,7,7,0,0,0,1.013-.069v-1.5h-0.667Zm-6.121.206c-1.633,0-2.369-.783-2.369-1.956,0-1.151.6-1.887,2.762-2.139l1.725-.207a3.062,3.062,0,0,0,1.565-.506v1.4A3.411,3.411,0,0,1,459.344,65.393Zm9.608,1.452a1.322,1.322,0,0,0,1.312-1.357,1.347,1.347,0,0,0-2.692,0A1.324,1.324,0,0,0,468.952,66.846Z"/>
</svg>
