<svg id="Frame_2" data-name="Frame 2" xmlns="http://www.w3.org/2000/svg" width="728" height="90" viewBox="0 0 728 90">
  <defs>
    <style>
      .cls-1 {
        fill: #fff;
        fill-rule: evenodd;
      }
    </style>
  </defs>
  <path id="Automate_temperature_light_and_appliances_sa_phone." data-name="Automate temperature, light  and appliances sa phone." class="cls-1" d="M237.575,38.593h2.047L233,22.215h-2.163L224.3,38.593h2.025l1.886-4.762h7.453Zm-8.673-6.51,0.069-.184c0.713-1.794,1.978-5.061,2.922-7.591,0.989,2.531,2.277,5.8,2.99,7.568l0.092,0.207H228.9Zm19.68-5.36v6.717c0,2.623-1.726,3.773-3.267,3.773-1.7,0-2.714-.805-2.714-2.645V26.723H240.76v8.028c0,2.622,1.542,4.118,4.187,4.118a4.375,4.375,0,0,0,3.727-2.047v1.771h1.748V26.723h-1.84Zm9.675,1.61v-1.61h-2.438V23.365h-1.841v3.359h-1.955v1.61h1.955V36.2c0,1.817,1.128,2.462,2.968,2.462q0.552,0,1.311-.069V37.052h-1.081c-1.058,0-1.357-.391-1.357-1.012V28.334h2.438Zm6.61,10.536c3.336,0,5.751-2.415,5.751-6.211s-2.415-6.211-5.751-6.211-5.751,2.415-5.751,6.211S261.531,38.87,264.867,38.87Zm0-1.656c-2.3,0-3.819-1.679-3.819-4.555s1.519-4.555,3.819-4.555,3.819,1.679,3.819,4.555S267.167,37.213,264.867,37.213Zm20.388-10.766a4.1,4.1,0,0,0-3.657,2.231,3.718,3.718,0,0,0-3.658-2.231,3.815,3.815,0,0,0-3.428,2.024V26.723h-1.748v11.87h1.84V32.106c0-2.852,1.588-4,3.037-4,1.541,0,2.484.782,2.484,2.622v7.867h1.841V32.106c0-2.852,1.541-4,3.036-4,1.565,0,2.485.782,2.485,2.622v7.867h1.84V30.542A3.773,3.773,0,0,0,285.255,26.447ZM301.8,37.1a0.544,0.544,0,0,1-.644-0.575V29.9c0-2-1.174-3.451-4.463-3.451-3.474,0-4.693,1.633-4.831,3.934h1.84c0.115-1.771.966-2.346,2.991-2.346s2.668,0.621,2.668,1.863c0,1.058-.667,1.5-1.863,1.633l-1.7.184c-3.267.345-4.394,1.817-4.394,3.681,0,2.231,1.61,3.474,4.187,3.474a4.35,4.35,0,0,0,3.864-1.909,1.7,1.7,0,0,0,2,1.7,6.984,6.984,0,0,0,1.012-.069V37.1H301.8Zm-6.119.207c-1.634,0-2.37-.782-2.37-1.955,0-1.15.6-1.886,2.761-2.139L297.8,33a3.062,3.062,0,0,0,1.564-.506v1.4A3.409,3.409,0,0,1,295.68,37.305Zm13.308-8.972v-1.61h-2.439V23.365h-1.84v3.359h-1.956v1.61h1.956V36.2c0,1.817,1.127,2.462,2.967,2.462q0.552,0,1.312-.069V37.052h-1.082c-1.058,0-1.357-.391-1.357-1.012V28.334h2.439Zm11.82,4.325c0-3.4-1.909-6.211-5.452-6.211-3.29,0-5.475,2.485-5.475,6.211,0,3.842,2.277,6.211,5.521,6.211a4.952,4.952,0,0,0,5.107-3.888H318.6a3.051,3.051,0,0,1-3.152,2.208c-2.07,0-3.474-1.219-3.658-3.888h9.018V32.658Zm-5.452-4.532c2.116,0,3.29,1.564,3.474,3.52h-6.994C312.135,29.3,313.493,28.127,315.356,28.127Zm16.33,0.207v-1.61h-2.439V23.365h-1.84v3.359h-1.955v1.61h1.955V36.2c0,1.817,1.127,2.462,2.968,2.462q0.552,0,1.311-.069V37.052h-1.081c-1.059,0-1.358-.391-1.358-1.012V28.334h2.439Zm11.82,4.325c0-3.4-1.909-6.211-5.452-6.211-3.289,0-5.475,2.485-5.475,6.211,0,3.842,2.278,6.211,5.521,6.211a4.951,4.951,0,0,0,5.107-3.888H341.3a3.05,3.05,0,0,1-3.152,2.208c-2.07,0-3.473-1.219-3.657-3.888h9.017V32.658Zm-5.452-4.532c2.117,0,3.29,1.564,3.474,3.52h-6.993C334.834,29.3,336.191,28.127,338.054,28.127Zm20.09-1.679a4.1,4.1,0,0,0-3.658,2.231,3.717,3.717,0,0,0-3.658-2.231,3.812,3.812,0,0,0-3.427,2.024V26.723h-1.749v11.87h1.841V32.106c0-2.852,1.587-4,3.036-4,1.542,0,2.485.782,2.485,2.622v7.867h1.84V32.106c0-2.852,1.541-4,3.037-4,1.564,0,2.484.782,2.484,2.622v7.867h1.84V30.542A3.773,3.773,0,0,0,358.144,26.447Zm12.623,0a4.668,4.668,0,0,0-4.072,2.116v-1.84h-1.748V43.1h1.84V36.891a4.665,4.665,0,0,0,3.98,1.978c3.336,0,5.521-2.415,5.521-6.211S374.1,26.447,370.767,26.447Zm-0.23,10.766c-2.3,0-3.819-1.679-3.819-4.555s1.519-4.555,3.819-4.555,3.819,1.587,3.819,4.463S372.837,37.213,370.537,37.213Zm18.274-4.555c0-3.4-1.909-6.211-5.452-6.211-3.289,0-5.475,2.485-5.475,6.211,0,3.842,2.278,6.211,5.521,6.211a4.951,4.951,0,0,0,5.107-3.888H386.6a3.049,3.049,0,0,1-3.152,2.208c-2.07,0-3.473-1.219-3.657-3.888h9.017V32.658Zm-5.452-4.532c2.117,0,3.29,1.564,3.474,3.52H379.84C380.139,29.3,381.5,28.127,383.359,28.127Zm13.166-1.587a4.145,4.145,0,0,0-3.819,2.277V26.723h-1.748v11.87h1.84V31.83c0-2.3,1.518-3.5,3.888-3.5h0.46V26.562C396.893,26.539,396.709,26.539,396.525,26.539ZM408.508,37.1a0.544,0.544,0,0,1-.644-0.575V29.9c0-2-1.173-3.451-4.463-3.451-3.473,0-4.693,1.633-4.831,3.934h1.841c0.115-1.771.966-2.346,2.99-2.346s2.669,0.621,2.669,1.863c0,1.058-.667,1.5-1.864,1.633l-1.7.184c-3.267.345-4.394,1.817-4.394,3.681,0,2.231,1.611,3.474,4.187,3.474a4.351,4.351,0,0,0,3.865-1.909,1.7,1.7,0,0,0,2,1.7,6.984,6.984,0,0,0,1.012-.069V37.1h-0.667Zm-6.119.207c-1.633,0-2.369-.782-2.369-1.955,0-1.15.6-1.886,2.76-2.139L404.505,33a3.062,3.062,0,0,0,1.565-.506v1.4A3.41,3.41,0,0,1,402.389,37.305ZM415.7,28.334v-1.61h-2.438V23.365h-1.841v3.359h-1.955v1.61h1.955V36.2c0,1.817,1.127,2.462,2.968,2.462q0.552,0,1.311-.069V37.052h-1.081c-1.058,0-1.357-.391-1.357-1.012V28.334H415.7Zm9.525-1.61v6.717c0,2.623-1.726,3.773-3.267,3.773-1.7,0-2.714-.805-2.714-2.645V26.723H417.4v8.028c0,2.622,1.541,4.118,4.187,4.118a4.375,4.375,0,0,0,3.727-2.047v1.771h1.748V26.723h-1.84Zm10.135-.184a4.147,4.147,0,0,0-3.819,2.277V26.723H429.79v11.87h1.84V31.83c0-2.3,1.519-3.5,3.888-3.5h0.46V26.562C435.725,26.539,435.541,26.539,435.357,26.539ZM447.8,32.658c0-3.4-1.909-6.211-5.452-6.211-3.289,0-5.475,2.485-5.475,6.211,0,3.842,2.278,6.211,5.521,6.211a4.951,4.951,0,0,0,5.107-3.888H445.59a3.049,3.049,0,0,1-3.152,2.208c-2.07,0-3.473-1.219-3.657-3.888H447.8V32.658Zm-5.452-4.532c2.117,0,3.29,1.564,3.474,3.52h-6.993C439.126,29.3,440.483,28.127,442.346,28.127Zm8.1,8.166a1.235,1.235,0,0,0-1.289,1.242,1.2,1.2,0,0,0,1.289,1.2h0.138a1.7,1.7,0,0,1-1.266,1.794l-0.161.046v1.219l0.23-.046c1.5-.3,2.577-1.311,2.577-3.5C451.96,36.983,451.385,36.293,450.442,36.293Zm9.982,2.37a11.665,11.665,0,0,0,1.173-.069V37.052h-0.874A0.922,0.922,0,0,1,459.6,36.04V22.215h-1.841V36.2C457.755,38.018,458.767,38.663,460.424,38.663Zm3.592-13.618a1.242,1.242,0,1,0-1.242-1.242A1.252,1.252,0,0,0,464.016,25.044ZM463.1,38.593h1.84V26.723H463.1v11.87Zm13.493-11.87v1.725a4.79,4.79,0,0,0-4.072-2c-3.335,0-5.521,2.415-5.521,6.211s2.186,6.211,5.521,6.211a4.8,4.8,0,0,0,3.98-1.886v1.15c0,2.461-1.311,3.681-3.681,3.681-1.863,0-2.99-.759-3.22-2.254h-1.84c0.253,2.3,2.024,3.819,5.06,3.819,3.75,0,5.521-2.162,5.521-5.245V26.723h-1.748Zm-3.842,10.49c-2.3,0-3.818-1.771-3.818-4.555s1.518-4.555,3.818-4.555,3.819,1.679,3.819,4.555S475.048,37.213,472.747,37.213Zm13.794-10.766a4.373,4.373,0,0,0-3.635,1.909V22.215h-1.84V38.593h1.84V31.876c0-2.623,1.725-3.773,3.266-3.773,1.7,0,2.715.805,2.715,2.645v7.844h1.84V30.565C490.727,27.943,489.186,26.447,486.541,26.447Zm11.87,1.886v-1.61h-2.439V23.365h-1.84v3.359h-1.955v1.61h1.955V36.2c0,1.817,1.127,2.462,2.967,2.462q0.552,0,1.312-.069V37.052h-1.082c-1.058,0-1.357-.391-1.357-1.012V28.334h2.439ZM248.516,65.1a0.544,0.544,0,0,1-.644-0.575V57.9c0-2-1.173-3.451-4.463-3.451-3.473,0-4.693,1.633-4.831,3.934h1.841c0.115-1.771.966-2.346,2.99-2.346s2.669,0.621,2.669,1.863c0,1.058-.668,1.5-1.864,1.633l-1.7.184c-3.267.345-4.394,1.817-4.394,3.681,0,2.231,1.61,3.474,4.187,3.474a4.353,4.353,0,0,0,3.865-1.909,1.7,1.7,0,0,0,2,1.7,6.984,6.984,0,0,0,1.012-.069V65.1h-0.667Zm-6.119.207c-1.633,0-2.369-.782-2.369-1.955,0-1.15.6-1.886,2.76-2.139L244.513,61a3.066,3.066,0,0,0,1.565-.506v1.4A3.41,3.41,0,0,1,242.4,65.305Zm13.908-10.858a4.372,4.372,0,0,0-3.726,2.047V54.723H250.83v11.87h1.841V59.876c0-2.623,1.725-3.773,3.266-3.773,1.7,0,2.715.805,2.715,2.645v7.844h1.84V58.565C260.492,55.943,258.951,54.447,256.305,54.447Zm15.834-4.233v6.211a4.662,4.662,0,0,0-3.98-1.978c-3.335,0-5.521,2.415-5.521,6.211s2.186,6.211,5.521,6.211a4.665,4.665,0,0,0,4.072-2.116v1.84h1.748V50.215h-1.84Zm-3.75,15c-2.3,0-3.818-1.587-3.818-4.463s1.518-4.647,3.818-4.647,3.819,1.679,3.819,4.555S270.69,65.213,268.389,65.213Zm21.552-.115a0.544,0.544,0,0,1-.644-0.575V57.9c0-2-1.174-3.451-4.463-3.451-3.474,0-4.693,1.633-4.831,3.934h1.84c0.115-1.771.967-2.346,2.991-2.346S287.5,56.656,287.5,57.9c0,1.058-.667,1.5-1.863,1.633l-1.7.184c-3.267.345-4.394,1.817-4.394,3.681,0,2.231,1.61,3.474,4.187,3.474a4.35,4.35,0,0,0,3.864-1.909,1.7,1.7,0,0,0,2,1.7,6.984,6.984,0,0,0,1.012-.069V65.1h-0.667Zm-6.119.207c-1.634,0-2.37-.782-2.37-1.955,0-1.15.6-1.886,2.761-2.139L285.938,61A3.062,3.062,0,0,0,287.5,60.5v1.4A3.409,3.409,0,0,1,283.822,65.305Zm14.253-10.858A4.668,4.668,0,0,0,294,56.564v-1.84h-1.748V71.1h1.84V64.891a4.665,4.665,0,0,0,3.98,1.978c3.336,0,5.521-2.415,5.521-6.211S301.411,54.447,298.075,54.447Zm-0.23,10.766c-2.3,0-3.819-1.679-3.819-4.555s1.519-4.555,3.819-4.555,3.819,1.587,3.819,4.463S300.145,65.213,297.845,65.213ZM311.6,54.447a4.665,4.665,0,0,0-4.072,2.116v-1.84h-1.748V71.1h1.84V64.891a4.662,4.662,0,0,0,3.98,1.978c3.335,0,5.521-2.415,5.521-6.211S314.932,54.447,311.6,54.447Zm-0.23,10.766c-2.3,0-3.819-1.679-3.819-4.555s1.518-4.555,3.819-4.555,3.818,1.587,3.818,4.463S313.667,65.213,311.367,65.213Zm10.554,1.449a11.665,11.665,0,0,0,1.173-.069V65.052H322.22a0.922,0.922,0,0,1-1.127-1.012V50.215h-1.841V64.2C319.252,66.018,320.265,66.663,321.921,66.663Zm3.592-13.618a1.242,1.242,0,1,0-1.242-1.242A1.252,1.252,0,0,0,325.513,53.044Zm-0.92,13.549h1.84V54.723h-1.84v11.87Zm14.243-1.5a0.544,0.544,0,0,1-.644-0.575V57.9c0-2-1.173-3.451-4.463-3.451-3.473,0-4.693,1.633-4.831,3.934h1.841c0.115-1.771.966-2.346,2.99-2.346S336.4,56.656,336.4,57.9c0,1.058-.667,1.5-1.864,1.633l-1.7.184c-3.266.345-4.394,1.817-4.394,3.681,0,2.231,1.611,3.474,4.187,3.474a4.351,4.351,0,0,0,3.865-1.909,1.7,1.7,0,0,0,2,1.7,6.984,6.984,0,0,0,1.012-.069V65.1h-0.667Zm-6.119.207c-1.633,0-2.369-.782-2.369-1.955,0-1.15.6-1.886,2.76-2.139L334.833,61A3.062,3.062,0,0,0,336.4,60.5v1.4A3.41,3.41,0,0,1,332.717,65.305Zm13.908-10.858a4.372,4.372,0,0,0-3.726,2.047V54.723h-1.748v11.87h1.84V59.876c0-2.623,1.725-3.773,3.266-3.773,1.7,0,2.715.805,2.715,2.645v7.844h1.84V58.565C350.812,55.943,349.271,54.447,346.625,54.447ZM358.456,66.87a4.9,4.9,0,0,0,5.107-4.348h-1.886a3.118,3.118,0,0,1-3.221,2.691c-1.978,0-3.565-1.449-3.565-4.555s1.541-4.555,3.565-4.555a3.09,3.09,0,0,1,3.2,2.645h1.909a4.81,4.81,0,0,0-5.107-4.3c-3.289,0-5.5,2.392-5.5,6.211S355.213,66.87,358.456,66.87Zm17.4-6.211c0-3.4-1.909-6.211-5.452-6.211-3.289,0-5.475,2.485-5.475,6.211,0,3.842,2.278,6.211,5.521,6.211a4.951,4.951,0,0,0,5.107-3.888h-1.909a3.049,3.049,0,0,1-3.152,2.208c-2.07,0-3.473-1.219-3.657-3.888h9.017V60.658ZM370.4,56.127c2.117,0,3.29,1.564,3.474,3.52h-6.993C367.18,57.3,368.537,56.127,370.4,56.127ZM382.185,66.87c2.922,0,4.716-1.288,4.716-3.543,0-1.932-1.173-2.922-4.1-3.5l-1.058-.207c-1.518-.3-2.392-0.713-2.392-1.84,0-1.1.9-1.748,2.484-1.748,1.818,0,2.9.506,2.991,2.346h1.84c-0.046-2.53-1.656-3.934-4.831-3.934-2.714,0-4.325,1.334-4.325,3.359,0,1.84,1.128,3.014,3.7,3.5l1.1,0.207c2.071,0.391,2.715.874,2.715,1.932,0,1.173-.851,1.84-2.853,1.84-2.093,0-2.967-.667-3.174-2.461h-1.864C377.331,65.6,379.172,66.87,382.185,66.87Zm14.237,0c2.921,0,4.716-1.288,4.716-3.543,0-1.932-1.173-2.922-4.095-3.5l-1.058-.207c-1.518-.3-2.393-0.713-2.393-1.84,0-1.1.9-1.748,2.485-1.748,1.817,0,2.9.506,2.99,2.346h1.841c-0.046-2.53-1.657-3.934-4.831-3.934-2.715,0-4.325,1.334-4.325,3.359,0,1.84,1.127,3.014,3.7,3.5l1.1,0.207c2.07,0.391,2.714.874,2.714,1.932,0,1.173-.851,1.84-2.852,1.84-2.093,0-2.968-.667-3.175-2.461h-1.863C391.568,65.6,393.408,66.87,396.422,66.87ZM412.907,65.1a0.544,0.544,0,0,1-.644-0.575V57.9c0-2-1.173-3.451-4.463-3.451-3.474,0-4.693,1.633-4.831,3.934h1.84c0.115-1.771.967-2.346,2.991-2.346s2.668,0.621,2.668,1.863c0,1.058-.667,1.5-1.863,1.633l-1.7.184c-3.267.345-4.394,1.817-4.394,3.681,0,2.231,1.61,3.474,4.187,3.474a4.35,4.35,0,0,0,3.864-1.909,1.7,1.7,0,0,0,2,1.7,6.984,6.984,0,0,0,1.012-.069V65.1h-0.667Zm-6.119.207c-1.633,0-2.37-.782-2.37-1.955,0-1.15.6-1.886,2.761-2.139L408.9,61a3.062,3.062,0,0,0,1.564-.506v1.4A3.409,3.409,0,0,1,406.788,65.305ZM424.5,54.447a4.666,4.666,0,0,0-4.072,2.116v-1.84h-1.748V71.1h1.84V64.891a4.663,4.663,0,0,0,3.98,1.978c3.335,0,5.521-2.415,5.521-6.211S427.833,54.447,424.5,54.447Zm-0.23,10.766c-2.3,0-3.819-1.679-3.819-4.555s1.518-4.555,3.819-4.555,3.818,1.587,3.818,4.463S426.568,65.213,424.268,65.213Zm13.406-10.766a4.372,4.372,0,0,0-3.634,1.909V50.215H432.2V66.593h1.841V59.876c0-2.623,1.725-3.773,3.266-3.773,1.7,0,2.715.805,2.715,2.645v7.844h1.84V58.565C441.861,55.943,440.32,54.447,437.674,54.447ZM449.719,66.87c3.336,0,5.751-2.415,5.751-6.211s-2.415-6.211-5.751-6.211-5.751,2.415-5.751,6.211S446.384,66.87,449.719,66.87Zm0-1.656c-2.3,0-3.818-1.679-3.818-4.555s1.518-4.555,3.818-4.555,3.819,1.679,3.819,4.555S452.02,65.213,449.719,65.213Zm13.372-10.766a4.372,4.372,0,0,0-3.726,2.047V54.723h-1.749v11.87h1.841V59.876c0-2.623,1.725-3.773,3.266-3.773,1.7,0,2.715.805,2.715,2.645v7.844h1.84V58.565C467.278,55.943,465.737,54.447,463.091,54.447Zm17.221,6.211c0-3.4-1.909-6.211-5.452-6.211-3.289,0-5.475,2.485-5.475,6.211,0,3.842,2.278,6.211,5.521,6.211a4.951,4.951,0,0,0,5.107-3.888H478.1a3.049,3.049,0,0,1-3.152,2.208c-2.07,0-3.473-1.219-3.657-3.888h9.017V60.658Zm-5.452-4.532c2.117,0,3.29,1.564,3.474,3.52h-6.993C471.64,57.3,473,56.127,474.86,56.127Zm8.307,10.628a1.321,1.321,0,0,0,1.311-1.357,1.347,1.347,0,0,0-2.691,0A1.323,1.323,0,0,0,483.167,66.755Z"/>
</svg>
