<svg xmlns="http://www.w3.org/2000/svg" width="728" height="90" viewBox="0 0 728 90">
  <defs>
    <style>
      .cls-1 {
        fill: #4b286d;
        fill-rule: evenodd;
      }
    </style>
  </defs>
  <path id="_" data-name="$" class="cls-1" d="M339.517,39.22c0-4.962-3.183-6.616-8.446-7.535l-1.1-.184V24.274c2.938,0.245,4.162,1.654,4.285,3.8h4.406c-0.245-4.472-3.182-7.228-8.691-7.534V16.923h-2.08v3.553c-6,.306-8.874,3.247-8.874,7.228,0,4.9,3.182,6.8,8.078,7.657l0.8,0.123v7.6c-3.06-.245-4.652-1.409-4.9-4.349h-4.529c0.183,4.594,3.06,7.718,9.425,8.086V50.43h2.08V46.877C335.906,46.693,339.517,44,339.517,39.22Zm-15.79-11.7c0-1.838,1.285-3.063,4.162-3.247v6.861C324.767,30.522,323.727,29.48,323.727,27.52Zm6.242,15.62v-7.29c3.917,0.735,4.835,1.715,4.835,3.675C334.8,41.548,333.458,42.957,329.969,43.14Z"/>
  <path id="_38_mo._" data-name="38/mo.*" class="cls-1" d="M375.722,45.919c4.956-2.737,8.289-7.1,8.289-13.343,0-10.691-8.2-16.507-19.483-16.507-12.305,0-19.825,7.27-19.91,18.132H351.8c0.341-8.211,5.725-11.632,12.732-11.632,7.434,0,12.22,3.678,12.22,10.178S372.3,43.1,364.1,43.1H360v5.987h4.529c8.545,0,13.843,4.79,13.843,12.145S373.073,73.2,364.955,73.2c-8.887,0-13.928-4.618-14.185-13.257h-7.092c-0.086,11.8,7.349,19.757,21.277,19.757,12.391,0,20.936-7.356,20.936-18.474C385.891,53.616,381.276,48.827,375.722,45.919Zm47.678-.257c5.127-2.224,8.8-6.5,8.8-12.915,0-10.862-8.8-16.678-19.568-16.678s-19.569,5.816-19.569,16.678c0,6.415,3.675,10.691,8.8,12.915-6.751,2.566-11.28,7.869-11.28,15.4,0,11.546,8.973,18.645,22.047,18.645s22.046-7.1,22.046-18.645C434.679,53.531,430.15,48.228,423.4,45.662ZM412.633,22.569c7.007,0,12.476,3.507,12.476,10.178s-5.469,10.178-12.476,10.178-12.476-3.507-12.476-10.178S405.626,22.569,412.633,22.569Zm0,50.633c-8.8,0-14.527-4.362-14.527-12.145s5.725-12.145,14.527-12.145,14.527,4.362,14.527,12.145S421.434,73.2,412.633,73.2Zm20.73,5.132h2.061l6.736-18.827H440.1Zm24.11-13.961a4.707,4.707,0,0,0-4.2,2.565,4.269,4.269,0,0,0-4.2-2.565,4.378,4.378,0,0,0-3.936,2.327V64.69h-2.008V78.334h2.114V70.877c0-3.279,1.823-4.6,3.487-4.6,1.77,0,2.853.9,2.853,3.014v9.043H453.7V70.877c0-3.279,1.771-4.6,3.488-4.6,1.8,0,2.853.9,2.853,3.014v9.043h2.113V69.079C462.149,66.435,460.643,64.373,457.473,64.373Zm13.795,14.279c3.83,0,6.6-2.776,6.6-7.139s-2.774-7.139-6.6-7.139-6.6,2.776-6.6,7.139S467.437,78.651,471.268,78.651Zm0-1.9c-2.642,0-4.386-1.93-4.386-5.236s1.744-5.236,4.386-5.236,4.385,1.93,4.385,5.236S473.909,76.748,471.268,76.748Zm8.847,1.772a1.518,1.518,0,0,0,1.506-1.56,1.547,1.547,0,0,0-3.091,0A1.521,1.521,0,0,0,480.115,78.519Zm1.956-11.008,1.152-1.591,1.153,1.591,0.606-.486-1.164-1.615,1.844-.595-0.255-.729-1.8.583V62.75h-0.776v1.919l-1.8-.583-0.254.729,1.844,0.595-1.165,1.615Z"/>
  <path id="From_just" data-name="From just" class="cls-1" d="M180.357,34.809V31.958H162.691v26.7h3.151V46.173h13.014v-2.85H165.842V34.809h14.515Zm10.8,4.2a6.758,6.758,0,0,0-6.226,3.713V39.31h-2.851V58.663h3V47.636c0-3.751,2.475-5.7,6.338-5.7h0.751V39.047C191.759,39.01,191.459,39.01,191.159,39.01Zm11.6,20.1c5.439,0,9.377-3.938,9.377-10.127S208.2,38.86,202.757,38.86s-9.376,3.938-9.376,10.127S197.319,59.113,202.757,59.113Zm0-2.7c-3.75,0-6.226-2.738-6.226-7.426s2.476-7.426,6.226-7.426,6.226,2.738,6.226,7.426S206.508,56.412,202.757,56.412ZM235.823,38.86a6.685,6.685,0,0,0-5.964,3.638A6.06,6.06,0,0,0,223.9,38.86a6.218,6.218,0,0,0-5.589,3.3V39.31h-2.85V58.663h3V48.086c0-4.651,2.588-6.526,4.951-6.526,2.513,0,4.051,1.275,4.051,4.276V58.663h3V48.086c0-4.651,2.513-6.526,4.951-6.526,2.55,0,4.051,1.275,4.051,4.276V58.663h3V45.536C242.461,41.785,240.323,38.86,235.823,38.86Zm19.758-2.288a2.025,2.025,0,1,0-2.025-2.025A2.041,2.041,0,0,0,255.581,36.572Zm-2.963,29.555c2.626,0,4.464-1.05,4.464-4.013V39.31h-3V61.851c0,1.013-.487,1.65-1.838,1.65h-1.237v2.588C251.606,66.127,252.018,66.127,252.618,66.127ZM273.947,39.31V50.261c0,4.276-2.813,6.151-5.326,6.151-2.776,0-4.426-1.313-4.426-4.313V39.31h-3V52.4c0,4.276,2.513,6.714,6.826,6.714a7.13,7.13,0,0,0,6.076-3.338v2.888h2.85V39.31h-3Zm14.26,19.8c4.763,0,7.689-2.1,7.689-5.776,0-3.151-1.913-4.763-6.676-5.7l-1.726-.338c-2.475-.488-3.9-1.163-3.9-3,0-1.8,1.462-2.85,4.05-2.85,2.963,0,4.726.825,4.876,3.826h3c-0.075-4.126-2.7-6.414-7.877-6.414-4.425,0-7.051,2.175-7.051,5.476,0,3,1.838,4.913,6.039,5.7l1.8,0.337c3.375,0.638,4.426,1.425,4.426,3.151,0,1.913-1.388,3-4.651,3-3.413,0-4.838-1.088-5.176-4.013h-3.038C280.293,57.05,283.294,59.113,288.207,59.113Zm19.117-17.178V39.31h-3.975V33.834h-3V39.31H297.16v2.625h3.188V54.762c0,2.963,1.838,4.013,4.839,4.013q0.9,0,2.137-.113V56.15h-1.762c-1.726,0-2.213-.638-2.213-1.65V41.935h3.975Z"/>
</svg>
