<svg xmlns="http://www.w3.org/2000/svg" width="728" height="90" viewBox="0 0 728 90">
  <defs>
    <style>
      .cls-1 {
        fill: #4b286d;
        fill-rule: evenodd;
      }
    </style>
  </defs>
  <path id="Dito_ka_na_sa_bagong_Optik_TV_." data-name="Dito ka na sa bagong Optik TV®." class="cls-1" d="M180.385,30.219h-7.036V51.171h7.036c6.3,0,10.232-3.914,10.232-10.476S186.688,30.219,180.385,30.219Zm0,18.716h-4.573V32.455h4.573c5.043,0,7.652,3.178,7.652,8.24S185.428,48.935,180.385,48.935Zm13.9-15.1a1.589,1.589,0,1,0-1.583-1.589A1.6,1.6,0,0,0,194.287,33.838Zm-1.173,17.333h2.345V35.987h-2.345V51.171Zm12-13.125v-2.06h-3.107v-4.3h-2.346v4.3h-2.492v2.06h2.492V48.111c0,2.325,1.437,3.149,3.782,3.149q0.7,0,1.671-.088V49.2h-1.378c-1.348,0-1.729-.5-1.729-1.295V38.047h3.107Zm8.112,13.478c4.251,0,7.329-3.09,7.329-7.946s-3.078-7.945-7.329-7.945-7.329,3.09-7.329,7.945S208.977,51.525,213.228,51.525Zm0-2.119c-2.932,0-4.867-2.148-4.867-5.827s1.935-5.827,4.867-5.827S218.1,39.9,218.1,43.579,216.16,49.406,213.228,49.406Zm26.121,1.766h2.726l-6.157-9.711,5.747-5.474h-3.108l-7.007,6.8V30.219h-2.345V51.171h2.345V45.551l2.7-2.531Zm16.5-1.913a0.7,0.7,0,0,1-.821-0.736V40.048c0-2.56-1.5-4.414-5.688-4.414-4.426,0-5.98,2.089-6.156,5.032h2.345c0.147-2.266,1.232-3,3.811-3s3.4,0.795,3.4,2.384c0,1.354-.85,1.913-2.374,2.089l-2.17.235c-4.163.441-5.6,2.325-5.6,4.709,0,2.855,2.053,4.444,5.336,4.444a5.539,5.539,0,0,0,4.926-2.443c0.117,1.442.879,2.178,2.55,2.178a8.892,8.892,0,0,0,1.29-.088V49.259h-0.85Zm-7.8.265c-2.082,0-3.02-1-3.02-2.5,0-1.471.762-2.413,3.518-2.737l2.2-.265a3.892,3.892,0,0,0,1.993-.648v1.8C252.737,48.17,250.3,49.523,248.047,49.523Zm23.54-13.89a5.568,5.568,0,0,0-4.749,2.619V35.987H264.61V51.171h2.345V42.578c0-3.355,2.2-4.826,4.163-4.826,2.17,0,3.46,1.03,3.46,3.384V51.171h2.345V40.9C276.923,37.546,274.959,35.633,271.587,35.633Zm20.941,13.625a0.7,0.7,0,0,1-.821-0.736V40.048c0-2.56-1.5-4.414-5.687-4.414-4.427,0-5.981,2.089-6.157,5.032h2.345c0.147-2.266,1.232-3,3.812-3s3.4,0.795,3.4,2.384c0,1.354-.85,1.913-2.374,2.089l-2.17.235c-4.163.441-5.6,2.325-5.6,4.709,0,2.855,2.052,4.444,5.335,4.444a5.539,5.539,0,0,0,4.926-2.443c0.117,1.442.879,2.178,2.55,2.178a8.892,8.892,0,0,0,1.29-.088V49.259h-0.85Zm-7.8.265c-2.082,0-3.02-1-3.02-2.5,0-1.471.762-2.413,3.518-2.737l2.2-.265a3.892,3.892,0,0,0,1.993-.648v1.8C289.42,48.17,286.987,49.523,284.73,49.523Zm21.9,2c3.723,0,6.01-1.648,6.01-4.532,0-2.472-1.5-3.737-5.219-4.473l-1.348-.265c-1.935-.383-3.049-0.912-3.049-2.354,0-1.412,1.143-2.236,3.166-2.236,2.316,0,3.694.647,3.811,3h2.346c-0.059-3.237-2.111-5.032-6.157-5.032-3.46,0-5.512,1.707-5.512,4.3,0,2.354,1.437,3.855,4.72,4.473l1.408,0.265c2.638,0.5,3.459,1.118,3.459,2.472,0,1.5-1.085,2.354-3.635,2.354-2.668,0-3.782-.853-4.046-3.149h-2.375C300.443,49.906,302.788,51.525,306.629,51.525ZM327.4,49.259a0.7,0.7,0,0,1-.821-0.736V40.048c0-2.56-1.5-4.414-5.688-4.414-4.427,0-5.981,2.089-6.157,5.032h2.346c0.146-2.266,1.231-3,3.811-3s3.4,0.795,3.4,2.384c0,1.354-.85,1.913-2.375,2.089l-2.169.235c-4.163.441-5.6,2.325-5.6,4.709,0,2.855,2.052,4.444,5.336,4.444a5.538,5.538,0,0,0,4.925-2.443c0.117,1.442.88,2.178,2.551,2.178a8.892,8.892,0,0,0,1.29-.088V49.259H327.4Zm-7.8.265c-2.081,0-3.02-1-3.02-2.5,0-1.471.763-2.413,3.518-2.737l2.2-.265a3.892,3.892,0,0,0,1.994-.648v1.8C324.3,48.17,321.862,49.523,319.6,49.523Zm24.684-13.89a5.4,5.4,0,0,0-4.691,2.325v-7.74H335.9V51.171h3.548V48.994a5.448,5.448,0,0,0,4.837,2.531c4.163,0,6.773-3.119,6.773-7.946S348.451,35.633,344.288,35.633Zm-0.879,12.831c-2.4,0-3.9-1.677-3.9-4.885s1.5-4.885,3.9-4.885,3.9,1.56,3.9,4.767S345.813,48.464,343.409,48.464ZM366.7,51.171a5.761,5.761,0,0,1-.616-2.884V40.195c0-2.737-1.788-4.561-6.3-4.561-4.72,0-6.6,1.972-6.8,5.179h3.636c0.146-1.854,1.026-2.413,3.137-2.413,2.14,0,2.756.706,2.756,1.883,0,1.118-.733,1.56-2.141,1.736l-2.286.206c-4.281.412-5.805,2.207-5.805,4.738,0,2.943,2.228,4.561,5.453,4.561a5.611,5.611,0,0,0,4.866-2.207A4.956,4.956,0,0,0,363,51.171H366.7Zm-8.092-2.3c-1.7,0-2.55-.795-2.55-2.06,0-1.207.674-1.942,2.726-2.178l1.994-.235a2.939,2.939,0,0,0,1.73-.618v1.383C362.5,47.817,360.568,48.876,358.6,48.876Zm20.956-12.889v2.089a5.374,5.374,0,0,0-4.779-2.442c-4.134,0-6.8,3.09-6.8,7.74,0,4.62,2.727,7.74,6.831,7.74a5.357,5.357,0,0,0,4.632-2.266v1.913c0,2.384-1.29,3.678-3.723,3.678-2.023,0-3.2-.824-3.372-2.443h-3.635c0.235,3.149,2.58,5.3,6.948,5.3,4.926,0,7.476-2.619,7.476-6.621V35.987h-3.576ZM375.63,48.052c-2.375,0-3.87-1.707-3.87-4.65s1.5-4.709,3.87-4.709c2.4,0,3.9,1.648,3.9,4.679C379.529,46.375,378.034,48.052,375.63,48.052Zm17.3,3.473c4.6,0,7.681-3.119,7.681-7.946s-3.079-7.945-7.681-7.945-7.711,3.119-7.711,7.945S388.324,51.525,392.927,51.525Zm0-3.061c-2.4,0-3.929-1.677-3.929-4.885s1.525-4.885,3.929-4.885c2.374,0,3.928,1.677,3.928,4.885S395.3,48.464,392.927,48.464Zm18.058-12.831a5.571,5.571,0,0,0-4.72,2.531V35.987h-3.576V51.171h3.694v-8.5c0-2.707,1.759-3.826,3.371-3.826,1.876,0,2.844.942,2.844,2.884v9.446h3.694V41.107C416.292,37.487,414.152,35.633,410.985,35.633ZM429.9,35.987v2.089a5.372,5.372,0,0,0-4.778-2.442c-4.134,0-6.8,3.09-6.8,7.74,0,4.62,2.727,7.74,6.831,7.74a5.357,5.357,0,0,0,4.632-2.266v1.913c0,2.384-1.29,3.678-3.723,3.678-2.023,0-3.2-.824-3.372-2.443h-3.635c0.234,3.149,2.58,5.3,6.948,5.3,4.926,0,7.476-2.619,7.476-6.621V35.987H429.9Zm-3.928,12.066c-2.375,0-3.87-1.707-3.87-4.65s1.5-4.709,3.87-4.709c2.4,0,3.9,1.648,3.9,4.679C429.871,46.375,428.376,48.052,425.972,48.052Zm26.883,3.59c6.244,0,10.407-4.355,10.407-10.947S459.1,29.748,452.855,29.748c-6.274,0-10.437,4.355-10.437,10.947S446.581,51.642,452.855,51.642Zm0-3.5c-3.812,0-6.3-2.825-6.3-7.445s2.492-7.445,6.3-7.445,6.3,2.825,6.3,7.445S456.666,48.14,452.855,48.14Zm21.072-12.507a5.448,5.448,0,0,0-4.837,2.531V35.987h-3.548V56.939h3.694V49.2a5.4,5.4,0,0,0,4.691,2.325c4.163,0,6.773-3.119,6.773-7.946S478.09,35.633,473.927,35.633Zm-0.879,12.831c-2.4,0-3.9-1.677-3.9-4.885s1.5-4.885,3.9-4.885,3.9,1.56,3.9,4.767S475.452,48.464,473.048,48.464Zm17.29-9.652V35.987h-2.99V31.572h-3.665v4.414h-2.345v2.825h2.345V47.4c0,2.8,1.525,3.884,4.72,3.884,0.587,0,1.261-.059,1.935-0.118V48.346h-1.26c-1.232,0-1.73-.324-1.73-1.324v-8.21h2.99Zm3.512-4.65a2.045,2.045,0,1,0-2.052-2.031A2.031,2.031,0,0,0,493.85,34.162ZM492,51.171H495.7V35.987H492V51.171Zm16.79,0h4.222l-6.069-9.446,5.717-5.739h-4.4l-6.157,6.3V30.219h-3.635V51.171h3.635V46.4l2.287-2.3Zm28.759-20.953H520.2v3.561h6.684V51.171h3.987V33.779h6.685V30.219Zm16.549,0-3.694,10.83c-0.675,2.06-1.378,4.3-1.965,6.533-0.615-2.236-1.319-4.473-1.993-6.533l-3.782-10.829h-4.222L546.1,51.171h4.632l7.476-20.953h-4.1Zm8.053-.048a3.067,3.067,0,1,0,3.147,3.072A3.078,3.078,0,0,0,562.154,30.17Zm0,5.464a2.4,2.4,0,1,1,2.444-2.391A2.372,2.372,0,0,1,562.154,35.634Zm1.271-1.71a0.666,0.666,0,0,0-.37-0.657,0.766,0.766,0,0,0,.444-0.731,0.956,0.956,0,0,0-1.135-.917h-1.432v3.172h0.716V33.615h0.666c0.284,0,.371.1,0.395,0.409l0.025,0.334a0.858,0.858,0,0,0,.111.434H563.6a0.731,0.731,0,0,1-.136-0.434Zm-1.777-.9v-0.78H562.3a0.394,0.394,0,1,1,.025.78h-0.679Zm3.391,18.416a2.385,2.385,0,1,0-2.462-2.413A2.376,2.376,0,0,0,565.039,51.436Z"/>
</svg>
