<svg id="Frame_3" data-name="Frame 3" xmlns="http://www.w3.org/2000/svg" width="728" height="90" viewBox="0 0 728 90">
  <defs>
    <style>
      .cls-1 {
        fill: #4b286d;
      }

      .cls-1, .cls-2 {
        fill-rule: evenodd;
      }

      .cls-2 {
        fill: #462b69;
      }
    </style>
  </defs>
  <path id="SmartHome_Security_Plans_from_15_mo._" data-name="SmartHome Security  Plans from  15/mo.*" class="cls-1" d="M242.876,40.741c5.132,0,8.012-2.491,8.012-6.272,0-3.091-1.74-5.012-6.662-6.092l-1.89-.42c-4.022-.9-5.012-1.921-5.012-3.961,0-2.011,1.591-3.3,4.682-3.3,4.261,0,5.551,1.65,5.761,4.411h2.581c-0.09-3.481-2.04-6.692-8.342-6.692-4.442,0-7.293,2.161-7.293,5.582,0,3.9,2.851,5.372,6.482,6.182l1.891,0.42c3.781,0.84,5.192,1.831,5.192,3.871,0,2.641-1.981,3.991-5.4,3.991-3.481,0-6.212-1.29-6.272-5.252h-2.611C234.053,38.55,237.774,40.741,242.876,40.741Zm27.065-16.325a5.348,5.348,0,0,0-4.771,2.911,4.849,4.849,0,0,0-4.772-2.911,4.974,4.974,0,0,0-4.471,2.641V24.776h-2.281V40.261h2.4V31.8c0-3.721,2.071-5.222,3.961-5.222,2.011,0,3.241,1.02,3.241,3.421V40.261h2.4V31.8c0-3.721,2.011-5.222,3.961-5.222,2.041,0,3.241,1.02,3.241,3.421V40.261h2.4v-10.5C275.253,26.757,273.543,24.416,269.941,24.416ZM291.528,38.31a0.71,0.71,0,0,1-.84-0.75V28.917c0-2.611-1.531-4.5-5.822-4.5-4.532,0-6.122,2.131-6.3,5.132h2.4c0.15-2.311,1.26-3.061,3.9-3.061s3.481,0.81,3.481,2.431c0,1.38-.87,1.951-2.431,2.131l-2.22.24c-4.262.45-5.732,2.371-5.732,4.8,0,2.911,2.1,4.531,5.461,4.531a5.676,5.676,0,0,0,5.042-2.491c0.12,1.471.9,2.221,2.611,2.221a9.128,9.128,0,0,0,1.32-.09V38.31h-0.87Zm-7.982.27c-2.131,0-3.091-1.02-3.091-2.551,0-1.5.78-2.461,3.6-2.791l2.25-.27a3.993,3.993,0,0,0,2.041-.66v1.831C288.347,37.2,285.856,38.58,283.546,38.58Zm18.27-14.045a5.406,5.406,0,0,0-4.981,2.971V24.776h-2.281V40.261h2.4V31.438c0-3,1.98-4.561,5.071-4.561h0.6V24.566C302.3,24.536,302.056,24.536,301.816,24.536Zm10.506,2.341v-2.1h-3.181V20.395h-2.4v4.381h-2.551v2.1h2.551V37.14c0,2.371,1.47,3.211,3.871,3.211q0.72,0,1.711-.09V38.25h-1.411c-1.38,0-1.77-.51-1.77-1.321V26.877h3.181Zm16.943-7.983v9.183H317.351V18.894H314.83V40.261h2.521V30.418h11.914v9.843h2.521V18.894h-2.521Zm13.053,21.727c4.352,0,7.5-3.151,7.5-8.1s-3.151-8.1-7.5-8.1-7.5,3.151-7.5,8.1S337.967,40.621,342.318,40.621Zm0-2.161c-3,0-4.981-2.191-4.981-5.942s1.98-5.942,4.981-5.942,4.982,2.191,4.982,5.942S345.319,38.46,342.318,38.46Zm26.6-14.044a5.35,5.35,0,0,0-4.772,2.911,4.848,4.848,0,0,0-4.771-2.911,4.976,4.976,0,0,0-4.472,2.641V24.776h-2.28V40.261h2.4V31.8c0-3.721,2.071-5.222,3.962-5.222,2.01,0,3.241,1.02,3.241,3.421V40.261h2.4V31.8c0-3.721,2.01-5.222,3.961-5.222,2.041,0,3.241,1.02,3.241,3.421V40.261h2.4v-10.5C374.231,26.757,372.52,24.416,368.919,24.416Zm22.352,8.1c0-4.441-2.491-8.1-7.112-8.1-4.292,0-7.143,3.241-7.143,8.1,0,5.012,2.971,8.1,7.2,8.1a6.46,6.46,0,0,0,6.662-5.072H388.39a3.978,3.978,0,0,1-4.111,2.881c-2.7,0-4.532-1.591-4.772-5.072h11.764v-0.84Zm-7.112-5.912c2.761,0,4.291,2.041,4.531,4.592h-9.123C379.957,28.137,381.728,26.607,384.159,26.607Zm22.5,14.135c5.131,0,8.012-2.491,8.012-6.272,0-3.091-1.74-5.012-6.662-6.092l-1.89-.42c-4.022-.9-5.012-1.921-5.012-3.961,0-2.011,1.59-3.3,4.681-3.3,4.262,0,5.552,1.65,5.762,4.411h2.581c-0.09-3.481-2.04-6.692-8.343-6.692-4.441,0-7.292,2.161-7.292,5.582,0,3.9,2.851,5.372,6.482,6.182l1.891,0.42c3.781,0.84,5.191,1.831,5.191,3.871,0,2.641-1.98,3.991-5.4,3.991-3.481,0-6.212-1.29-6.272-5.252h-2.611C397.836,38.55,401.557,40.741,406.659,40.741ZM430.8,32.518c0-4.441-2.49-8.1-7.112-8.1-4.291,0-7.142,3.241-7.142,8.1,0,5.012,2.971,8.1,7.2,8.1a6.46,6.46,0,0,0,6.662-5.072h-2.491a3.977,3.977,0,0,1-4.111,2.881c-2.7,0-4.531-1.591-4.771-5.072H430.8v-0.84Zm-7.112-5.912c2.761,0,4.292,2.041,4.532,4.592H419.1C419.491,28.137,421.261,26.607,423.692,26.607ZM440,40.621a6.387,6.387,0,0,0,6.662-5.672H444.2A4.067,4.067,0,0,1,440,38.46c-2.581,0-4.651-1.891-4.651-5.942s2.01-5.942,4.651-5.942a4.031,4.031,0,0,1,4.171,3.451h2.491A6.275,6.275,0,0,0,440,24.416c-4.291,0-7.172,3.121-7.172,8.1S435.766,40.621,440,40.621ZM459.36,24.776v8.763c0,3.421-2.251,4.922-4.261,4.922-2.221,0-3.541-1.05-3.541-3.451V24.776h-2.4V35.249c0,3.421,2.011,5.372,5.462,5.372a5.7,5.7,0,0,0,4.861-2.671v2.311h2.281V24.776h-2.4Zm13.229-.24a5.409,5.409,0,0,0-4.982,2.971V24.776h-2.28V40.261h2.4V31.438c0-3,1.981-4.561,5.072-4.561h0.6V24.566C473.069,24.536,472.829,24.536,472.589,24.536Zm4.225-1.951a1.621,1.621,0,1,0-1.621-1.62A1.633,1.633,0,0,0,476.814,22.585Zm-1.2,17.676h2.4V24.776h-2.4V40.261Zm12.572-13.384v-2.1H485V20.395h-2.4v4.381h-2.551v2.1H482.6V37.14c0,2.371,1.47,3.211,3.871,3.211q0.72,0,1.71-.09V38.25h-1.41c-1.381,0-1.771-.51-1.771-1.321V26.877h3.181Zm12.88-2.1L498.874,31.2c-0.78,2.251-1.53,4.5-2.22,6.722-0.721-2.221-1.441-4.441-2.221-6.692l-2.191-6.452H489.6l5.822,16c-0.18.48-.36,0.99-0.54,1.44a2.712,2.712,0,0,1-2.821,1.921h-1.41v2.011a11.969,11.969,0,0,0,1.44.09c2.461,0,4.051-.81,5.042-3.541l6.542-17.916h-2.611Zm-240.8,29.118h-8.883V75.261H253.9V67.038h6.362c4.742,0,7.083-2.731,7.083-6.572S265.008,53.894,260.266,53.894Zm0,10.863H253.9V56.175h6.362c3,0,4.472,1.59,4.472,4.291S263.267,64.757,260.266,64.757Zm12.925,10.593a15.252,15.252,0,0,0,1.531-.09V73.25h-1.14a1.2,1.2,0,0,1-1.471-1.32V53.894h-2.4V72.14C269.71,74.511,271.031,75.351,273.191,75.351Zm16.476-2.041a0.71,0.71,0,0,1-.84-0.75V63.917c0-2.611-1.53-4.5-5.822-4.5-4.531,0-6.122,2.131-6.3,5.132h2.4c0.15-2.311,1.26-3.061,3.9-3.061s3.481,0.81,3.481,2.431c0,1.381-.87,1.951-2.43,2.131l-2.221.24c-4.261.45-5.732,2.371-5.732,4.8,0,2.911,2.1,4.531,5.462,4.531a5.674,5.674,0,0,0,5.041-2.491c0.12,1.471.9,2.221,2.611,2.221a9.142,9.142,0,0,0,1.321-.09V73.31h-0.871Zm-7.982.27c-2.131,0-3.091-1.02-3.091-2.551,0-1.5.78-2.461,3.6-2.791l2.251-.27a3.993,3.993,0,0,0,2.04-.66v1.831C286.486,72.2,284,73.58,281.685,73.58Zm18.151-14.165a5.7,5.7,0,0,0-4.862,2.671V59.776h-2.281V75.261h2.4V66.5c0-3.421,2.251-4.922,4.261-4.922,2.221,0,3.542,1.05,3.542,3.451V75.261h2.4V64.787C305.3,61.366,303.287,59.416,299.836,59.416Zm14.558,16.205c3.811,0,6.152-1.68,6.152-4.621,0-2.521-1.531-3.811-5.342-4.561l-1.38-.27c-1.981-.39-3.121-0.93-3.121-2.4,0-1.44,1.17-2.281,3.241-2.281,2.37,0,3.781.66,3.9,3.061h2.4c-0.06-3.3-2.161-5.132-6.3-5.132-3.542,0-5.642,1.741-5.642,4.381,0,2.4,1.47,3.931,4.831,4.562l1.441,0.27c2.7,0.51,3.541,1.14,3.541,2.521,0,1.53-1.11,2.4-3.721,2.4-2.731,0-3.871-.87-4.142-3.211h-2.43C308.062,73.971,310.463,75.621,314.394,75.621Zm19.919-19.686h1.381V53.894c-0.36-.03-1.081-0.06-1.531-0.06-3.061,0-4.321,1.62-4.321,4.351v1.59h-2.551v2.1h2.551V75.261h2.4V61.877h3.3v-2.1h-3.3V58.125A1.905,1.905,0,0,1,334.313,55.935Zm10.8,3.6a5.408,5.408,0,0,0-4.982,2.971V59.776h-2.281V75.261h2.4V66.438c0-3,1.981-4.562,5.072-4.562h0.6V59.566C345.591,59.536,345.351,59.536,345.111,59.536Zm9.443,16.085c4.351,0,7.5-3.151,7.5-8.1s-3.152-8.1-7.5-8.1-7.5,3.151-7.5,8.1S350.2,75.621,354.554,75.621Zm0-2.161c-3,0-4.982-2.191-4.982-5.942s1.981-5.942,4.982-5.942,4.982,2.191,4.982,5.942S357.555,73.46,354.554,73.46Zm26.6-14.045a5.35,5.35,0,0,0-4.772,2.911,4.848,4.848,0,0,0-4.771-2.911,4.976,4.976,0,0,0-4.472,2.641V59.776h-2.28V75.261h2.4V66.8c0-3.721,2.071-5.222,3.962-5.222,2.01,0,3.241,1.02,3.241,3.421V75.261h2.4V66.8c0-3.721,2.01-5.222,3.961-5.222,2.04,0,3.241,1.02,3.241,3.421V75.261h2.4v-10.5C386.467,61.757,384.756,59.416,381.155,59.416Zm30.087-5.522H408.03c-0.66,3.061-2.52,3.9-5.281,4.081l-0.48.03v2.851h4.921v14.4h4.052V53.894Zm11.339,7.322a6.083,6.083,0,0,0-3.9,1.41l0.93-5.312h9.183V53.894H416.429l-1.98,12.454h3.721a4.162,4.162,0,1,1,3.751,6.122,3.8,3.8,0,0,1-4.021-3.3h-3.872c0.3,4.081,3.572,6.572,7.893,6.572,4.711,0,7.983-2.971,7.983-7.412C429.9,64.547,427.5,61.216,422.581,61.216ZM431.1,75.261h3.661l7.652-21.367H438.75Zm29.571-15.845a5.594,5.594,0,0,0-4.8,2.881,4.9,4.9,0,0,0-4.8-2.881A5.036,5.036,0,0,0,446.654,62V59.776h-3.661V75.261h3.781V66.738c0-2.911,1.591-4.051,3.181-4.051,1.8,0,2.7.96,2.7,2.941v9.633h3.751V66.738c0-2.911,1.561-4.051,3.211-4.051,1.8,0,2.671.96,2.671,2.941v9.633h3.781V65.028C466.07,61.607,464.12,59.416,460.669,59.416Zm15.638,16.205c4.711,0,7.862-3.181,7.862-8.1s-3.151-8.1-7.862-8.1-7.893,3.181-7.893,8.1S471.6,75.621,476.307,75.621Zm0-3.121c-2.461,0-4.021-1.71-4.021-4.982s1.56-4.982,4.021-4.982c2.431,0,4.021,1.71,4.021,4.982S478.738,72.5,476.307,72.5Zm11.824,3.031a2.432,2.432,0,1,0-2.521-2.461A2.428,2.428,0,0,0,488.131,75.531ZM489.1,62.647l1.1-1.489,1.1,1.489,0.86-.68-1.117-1.527,1.8-.578-0.359-1.027-1.733.552V57.526h-1.1v1.861l-1.72-.552-0.359,1.027,1.8,0.578-1.129,1.527Z"/>
  <path id="_" data-name="$" class="cls-2" d="M402,64.577c0-2.274-1.376-3.583-4.775-4.247l-0.466-.081V56.265a2.255,2.255,0,0,1,2.166,2.335h2.65c-0.1-2.456-1.517-4.227-4.816-4.549V52H395.3V54.01c-3.2.141-4.938,1.771-4.938,4.046,0,2.6,1.842,3.824,4.634,4.348l0.3,0.06v4.267a2.6,2.6,0,0,1-2.611-2.8H390c0.02,3.039,1.983,4.77,5.3,5.012V71h1.456V68.965C400.016,68.8,402,67.254,402,64.577Zm-8.842-6.6c0-.986.708-1.651,2.145-1.751v3.7C393.683,59.525,393.157,59,393.157,57.975Zm3.6,8.8V62.766c1.781,0.423,2.408.926,2.408,1.953C399.166,65.946,398.317,66.651,396.758,66.771Z"/>
</svg>
