<svg id="HING" xmlns="http://www.w3.org/2000/svg" width="728" height="90" viewBox="0 0 728 90">
  <defs>
    <style>
      .cls-1 {
        fill: #fffffe;
        fill-rule: evenodd;
      }
    </style>
  </defs>
  <path id="_" data-name="$" class="cls-1" d="M61.546,45.5c0-2.614-1.677-3.486-4.45-3.97l-0.58-.1V37.625c1.548,0.129,2.193.871,2.257,2h2.322c-0.129-2.356-1.677-3.808-4.579-3.97v-1.9h-1.1v1.872c-3.16.161-4.676,1.71-4.676,3.808,0,2.582,1.677,3.582,4.257,4.034l0.419,0.065v4c-1.612-.129-2.451-0.742-2.58-2.291H50.453c0.1,2.421,1.612,4.067,4.966,4.26v1.9h1.1V49.534C59.644,49.437,61.546,48.017,61.546,45.5Zm-8.32-6.164c0-.968.677-1.614,2.193-1.711V41.24C53.775,40.917,53.227,40.368,53.227,39.336Zm3.289,8.23v-3.84c2.064,0.387,2.547.9,2.547,1.936C59.063,46.726,58.354,47.469,56.516,47.565Z"/>
  <path id="_38_mo._" data-name="38/mo.*" class="cls-1" d="M72.039,16.891V15.856H65.628v9.7h1.143V21.019h4.723V19.983H66.771V16.891h5.268Zm3.844,1.526a2.452,2.452,0,0,0-2.26,1.349v-1.24H72.589v7.029h1.089v-4a2,2,0,0,1,2.3-2.071H76.25V18.43C76.1,18.417,75.992,18.417,75.883,18.417Zm4.136,7.3a3.367,3.367,0,0,0,3.4-3.678,3.413,3.413,0,1,0-6.806,0A3.367,3.367,0,0,0,80.019,25.718Zm0-.981c-1.361,0-2.26-.995-2.26-2.7s0.9-2.7,2.26-2.7,2.26,0.994,2.26,2.7S81.38,24.738,80.019,24.738Zm11.945-6.375A2.426,2.426,0,0,0,89.8,19.684a2.2,2.2,0,0,0-2.164-1.321,2.256,2.256,0,0,0-2.028,1.2V18.526H84.573v7.029h1.089V21.713c0-1.689.939-2.37,1.8-2.37a1.342,1.342,0,0,1,1.47,1.553v4.659h1.089V21.713c0-1.689.912-2.37,1.8-2.37a1.337,1.337,0,0,1,1.47,1.553v4.659h1.089V20.787A2.234,2.234,0,0,0,91.964,18.362Zm7.309-.831a0.736,0.736,0,1,0-.735-0.736A0.741,0.741,0,0,0,99.273,17.531ZM98.2,28.266a1.371,1.371,0,0,0,1.62-1.458V18.526H98.728v8.187a0.556,0.556,0,0,1-.667.6H97.612v0.94C97.83,28.266,97.98,28.266,98.2,28.266Zm7.682-9.74V22.5a2,2,0,0,1-1.933,2.234,1.409,1.409,0,0,1-1.606-1.567V18.526h-1.089V23.28a2.24,2.24,0,0,0,2.477,2.438,2.587,2.587,0,0,0,2.2-1.212v1.049h1.035V18.526H105.88ZM111,25.718c1.729,0,2.79-.763,2.79-2.1,0-1.144-.694-1.73-2.423-2.071l-0.626-.123c-0.9-.177-1.415-0.422-1.415-1.09S109.86,19.3,110.8,19.3c1.075,0,1.715.3,1.769,1.39h1.089c-0.027-1.5-.98-2.329-2.858-2.329-1.606,0-2.559.79-2.559,1.989,0,1.09.667,1.785,2.191,2.071l0.654,0.123c1.225,0.232,1.606.518,1.606,1.144,0,0.695-.5,1.09-1.688,1.09-1.239,0-1.756-.4-1.878-1.458h-1.1C108.131,24.969,109.22,25.718,111,25.718Zm6.887-6.239V18.526h-1.443V16.537h-1.089v1.989H114.2v0.954h1.157v4.659c0,1.076.667,1.458,1.756,1.458q0.327,0,.776-0.041V24.642h-0.64c-0.626,0-.8-0.232-0.8-0.6V19.479h1.443ZM80.712,49.18a7.746,7.746,0,0,0,4.367-7.03c0-5.633-4.322-8.7-10.266-8.7-6.484,0-10.446,3.83-10.491,9.553H68.1c0.18-4.326,3.017-6.128,6.709-6.128,3.917,0,6.439,1.938,6.439,5.362s-2.341,5.452-6.664,5.452H72.427v3.154h2.386c4.5,0,7.294,2.523,7.294,6.4s-2.792,6.309-7.069,6.309c-4.683,0-7.339-2.433-7.474-6.985H63.827C63.782,62.789,67.7,66.979,75.038,66.979c6.529,0,11.031-3.875,11.031-9.733C86.07,53.236,83.638,50.712,80.712,49.18Zm25.481-.135a7.15,7.15,0,0,0,4.638-6.8c0-5.723-4.638-8.787-10.311-8.787s-10.31,3.064-10.31,8.787a7.15,7.15,0,0,0,4.638,6.8C91.29,50.4,88.9,53.19,88.9,57.156c0,6.083,4.728,9.823,11.616,9.823s11.617-3.74,11.617-9.823C112.137,53.19,109.75,50.4,106.193,49.045ZM100.52,36.878c3.692,0,6.574,1.848,6.574,5.362S104.212,47.6,100.52,47.6s-6.573-1.848-6.573-5.362S96.828,36.878,100.52,36.878Zm0,26.676c-4.637,0-7.654-2.3-7.654-6.4s3.017-6.4,7.654-6.4,7.654,2.3,7.654,6.4S105.158,63.555,100.52,63.555Zm10.94,2.7h1.176l3.845-10.743h-1.176Zm13.81-7.967a2.688,2.688,0,0,0-2.4,1.463,2.436,2.436,0,0,0-2.4-1.463,2.5,2.5,0,0,0-2.246,1.328V58.473h-1.146v7.786h1.206V62c0-1.871,1.04-2.625,1.99-2.625a1.487,1.487,0,0,1,1.628,1.72v5.16h1.207V62c0-1.871,1.01-2.625,1.99-2.625a1.481,1.481,0,0,1,1.628,1.72v5.16h1.206V60.977A2.474,2.474,0,0,0,125.27,58.292Zm7.868,8.148a3.729,3.729,0,0,0,3.769-4.074,3.78,3.78,0,1,0-7.538,0A3.729,3.729,0,0,0,133.138,66.439Zm0-1.086c-1.508,0-2.5-1.1-2.5-2.988s1-2.988,2.5-2.988,2.5,1.1,2.5,2.988S134.645,65.353,133.138,65.353Zm5.446,1.011a0.866,0.866,0,0,0,.859-0.89,0.883,0.883,0,0,0-1.764,0A0.868,0.868,0,0,0,138.584,66.364Zm1.168-6.6,0.692-.954,0.691,0.954,0.364-.291-0.7-.969,1.107-.357-0.153-.437-1.078.35V56.908h-0.465v1.151l-1.078-.35-0.153.437,1.107,0.357-0.7.969Z"/>
</svg>
