<svg id="HING" xmlns="http://www.w3.org/2000/svg" width="728" height="90" viewBox="0 0 728 90">
  <defs>
    <style>
      .cls-1 {
        fill: #fff;
        fill-rule: evenodd;
      }
    </style>
  </defs>
  <path id="Learn_more" data-name="Learn more" class="cls-1" d="M653.263,67.654h-3.53V61.346h-0.947V68.5h4.477v-0.85Zm5.089-3.352a2.125,2.125,0,0,0-.891-0.847,2.518,2.518,0,0,0-1.091-.249,2.211,2.211,0,0,0-1.795.762,2.993,2.993,0,0,0-.637,1.987,2.78,2.78,0,0,0,.657,1.956,2.35,2.35,0,0,0,1.823.715,2.39,2.39,0,0,0,1.465-.435,2.205,2.205,0,0,0,.806-1.245l-0.9-.112a1.653,1.653,0,0,1-.523.8,1.332,1.332,0,0,1-.845.266,1.451,1.451,0,0,1-1.091-.454,2.014,2.014,0,0,1-.491-1.313h3.882A3.6,3.6,0,0,0,658.352,64.3Zm-3.467,1.111a1.738,1.738,0,0,1,.464-1.074,1.357,1.357,0,0,1,1.021-.415,1.5,1.5,0,0,1,.954.349,1.513,1.513,0,0,1,.491,1.14h-2.93Zm9.179,2.371q-0.04-.369-0.041-1.448V65.154a4.2,4.2,0,0,0-.1-1.006,1.134,1.134,0,0,0-.537-0.666,2.638,2.638,0,0,0-1.37-.276,2.819,2.819,0,0,0-1.611.4,1.747,1.747,0,0,0-.728,1.2l0.86,0.112a1.158,1.158,0,0,1,.451-0.781,1.658,1.658,0,0,1,.9-0.21,1.918,1.918,0,0,1,.708.107,0.823,0.823,0,0,1,.384.283,0.847,0.847,0,0,1,.144.339,4.425,4.425,0,0,1,.024.559,4.255,4.255,0,0,1-.757.181l-0.82.122a2.887,2.887,0,0,0-1.585.554A1.472,1.472,0,0,0,660,68.216a1.913,1.913,0,0,0,1.294.41,2.874,2.874,0,0,0,1.91-.762,1.971,1.971,0,0,0,.18.64h0.923A1.882,1.882,0,0,1,664.064,67.784Zm-1.416-.239a1.8,1.8,0,0,1-1.145.388,1.145,1.145,0,0,1-.771-0.232,0.744,0.744,0,0,1-.269-0.588,0.91,0.91,0,0,1,1-.842,9.361,9.361,0,0,0,1.685-.364v0.317A1.58,1.58,0,0,1,662.648,67.545Zm4.617-4.338a1.264,1.264,0,0,0-1.1.9h-0.019V63.323h-0.8V68.5h0.879v-2.72a2.506,2.506,0,0,1,.254-1.238,0.812,0.812,0,0,1,.747-0.442,1.269,1.269,0,0,1,.64.191l0.3-.811a1.716,1.716,0,0,0-.9-0.278h0Zm5.837,2.109a5.419,5.419,0,0,0-.059-0.9,1.416,1.416,0,0,0-.285-0.625,1.367,1.367,0,0,0-.628-0.439,2.341,2.341,0,0,0-.81-0.147,2.018,2.018,0,0,0-.945.212,1.823,1.823,0,0,0-.686.637h-0.02V63.323h-0.791V68.5h0.879V65.672a2.6,2.6,0,0,1,.147-0.981,1.074,1.074,0,0,1,.5-0.537,1.522,1.522,0,0,1,.74-0.191,1.047,1.047,0,0,1,.793.3,1.587,1.587,0,0,1,.286,1.094V68.5H673.1V65.316Zm10.572-.371a1.856,1.856,0,0,0-.4-1.3,1.568,1.568,0,0,0-1.208-.435,1.8,1.8,0,0,0-1.6.908,1.289,1.289,0,0,0-.535-0.681,1.764,1.764,0,0,0-.939-0.227,1.714,1.714,0,0,0-1.548.84h-0.02V63.323h-0.791V68.5h0.879v-2.69a2.177,2.177,0,0,1,.364-1.46,1.213,1.213,0,0,1,.93-0.391,0.881,0.881,0,0,1,.671.249,1.353,1.353,0,0,1,.237.923V68.5h0.879V65.5a1.567,1.567,0,0,1,.376-1.172,1.247,1.247,0,0,1,.894-0.361,0.876,0.876,0,0,1,.632.2,0.843,0.843,0,0,1,.251.454,3.315,3.315,0,0,1,.049.618V68.5h0.879V64.944Zm1.72-1.067a2.705,2.705,0,0,0-.7,2.039,2.64,2.64,0,0,0,.723,2.061,2.467,2.467,0,0,0,1.7.649,2.54,2.54,0,0,0,1.685-.632,2.7,2.7,0,0,0,.747-2.161,2.615,2.615,0,0,0-.691-1.943A2.559,2.559,0,0,0,685.394,63.878Zm0.637,3.525a2.2,2.2,0,0,1-.437-1.487,2.241,2.241,0,0,1,.429-1.492,1.385,1.385,0,0,1,1.1-.5,1.406,1.406,0,0,1,1.091.493,2.131,2.131,0,0,1,.442,1.465,2.5,2.5,0,0,1-.39,1.465,1.309,1.309,0,0,1-1.143.557A1.388,1.388,0,0,1,686.031,67.4Zm6.477-4.2a1.263,1.263,0,0,0-1.1.9H691.39V63.323h-0.8V68.5h0.879v-2.72a2.5,2.5,0,0,1,.254-1.238,0.812,0.812,0,0,1,.747-0.442,1.266,1.266,0,0,1,.639.191l0.3-.811a1.719,1.719,0,0,0-.9-0.278h0Zm5.576,1.1a2.125,2.125,0,0,0-.891-0.847,2.518,2.518,0,0,0-1.091-.249,2.211,2.211,0,0,0-1.795.762,2.993,2.993,0,0,0-.637,1.987,2.78,2.78,0,0,0,.657,1.956,2.35,2.35,0,0,0,1.823.715,2.39,2.39,0,0,0,1.465-.435,2.205,2.205,0,0,0,.806-1.245l-0.9-.112a1.653,1.653,0,0,1-.523.8,1.332,1.332,0,0,1-.845.266,1.451,1.451,0,0,1-1.091-.454,2.014,2.014,0,0,1-.491-1.313h3.882A3.6,3.6,0,0,0,698.084,64.3Zm-3.467,1.111a1.738,1.738,0,0,1,.464-1.074,1.357,1.357,0,0,1,1.021-.415,1.5,1.5,0,0,1,.954.349,1.513,1.513,0,0,1,.491,1.14h-2.93Z"/>
</svg>
