<svg id="HING" xmlns="http://www.w3.org/2000/svg" width="728" height="90" viewBox="0 0 728 90">
  <defs>
    <style>
      .cls-1 {
        fill: #4c286c;
        fill-rule: evenodd;
      }
    </style>
  </defs>
  <path class="cls-1" d="M51,36.988H55.01c0.09,1.2.827,1.49,1.959,1.49,1.169,0,1.673-.291,1.673-0.89,0-.564-0.431-0.855-1.816-1.055l-1.547-.218c-2.319-.327-3.974-1.6-3.974-4.071,0-2.036,1.06-4.235,5.448-4.235,3.346,0,5.395,1.273,5.629,4.271H58.624c-0.09-.782-0.5-1.236-1.726-1.236-1.115,0-1.547.327-1.547,0.836s0.432,0.764,1.2.872L58.1,32.972c3.2,0.454,4.64,1.69,4.64,4,0,2.781-2,4.58-5.844,4.58C52.977,41.55,51.125,39.7,51,36.988Zm19.257,4.253a2.86,2.86,0,0,1-.27-1.091A3.2,3.2,0,0,1,67,41.55c-1.96,0-3.417-.909-3.417-2.889,0-1.636.989-2.654,3.542-2.908l1.69-.164c0.755-.073,1.115-0.219,1.115-0.709s-0.36-.691-1.043-0.691a0.9,0.9,0,0,0-1.115.927H64.033c0.091-2.29,1.475-3.471,4.91-3.471,3.344,0,4.73,1.09,4.73,3v5.107a3.355,3.355,0,0,0,.341,1.49H70.256Zm-0.324-3.58V37.044a1.046,1.046,0,0,1-.809.381l-0.863.108a0.808,0.808,0,0,0-.881.818c0,0.564.377,0.836,1.1,0.836A1.326,1.326,0,0,0,69.932,37.662Zm15.318-5.8-3.47,9.378H77.41l-3.471-9.378h3.992l0.773,2.69c0.36,1.272.648,2.308,0.971,3.617,0.324-1.309.612-2.345,0.971-3.617l0.756-2.69H85.25ZM95.516,37.5H88.755a1.523,1.523,0,0,0,1.78,1.435,1.546,1.546,0,0,0,1.33-.509h3.489c-0.557,1.963-2.428,3.035-4.891,3.035-3.236,0-5.215-1.835-5.215-4.871,0-2.963,1.979-4.943,5.2-4.943,3.039,0,5.143,1.762,5.143,4.8A8.964,8.964,0,0,1,95.516,37.5Zm-6.708-1.964h3.183a1.4,1.4,0,0,0-1.6-1.381A1.425,1.425,0,0,0,88.808,35.534Zm14.85,0.673L102,37.77v3.472h-1.439V28.3H102v7.761l4.3-4.2h1.9l-3.525,3.38,3.777,6h-1.672Zm13.719,3.852v1.182a5.406,5.406,0,0,1-.792.054,1.336,1.336,0,0,1-1.565-1.344A3.387,3.387,0,0,1,112,41.46c-2.014,0-3.274-.982-3.274-2.744,0-1.473.882-2.636,3.436-2.908l1.33-.146c0.935-.108,1.457-0.454,1.457-1.29,0-.981-0.5-1.472-2.086-1.472s-2.248.454-2.338,1.854h-1.439c0.108-1.818,1.061-3.108,3.777-3.108,2.571,0,3.489,1.145,3.489,2.726v5.234a0.427,0.427,0,0,0,.5.454h0.522Zm-2.428-2.526V36.425a2.383,2.383,0,0,1-1.223.4l-1.349.164c-1.69.2-2.158,0.782-2.158,1.691,0,0.927.575,1.545,1.853,1.545A2.676,2.676,0,0,0,114.949,37.533Zm8.611-5.8v1.4H123.2c-1.852,0-3.039.944-3.039,2.762v5.344h-1.439V31.863h1.367v1.654a3.235,3.235,0,0,1,2.985-1.8A4.742,4.742,0,0,1,123.56,31.736Zm8.99,5.325H125.5c0.143,2.109,1.24,3.072,2.859,3.072a2.386,2.386,0,0,0,2.463-1.745h1.493a3.88,3.88,0,0,1-3.993,3.072c-2.535,0-4.316-1.872-4.316-4.907,0-2.944,1.709-4.907,4.28-4.907,2.77,0,4.263,2.217,4.263,4.907v0.509Zm-7.014-1.308H131a2.737,2.737,0,0,0-2.717-2.781C126.831,32.972,125.77,33.9,125.536,35.753Zm8.558-6.2a0.971,0.971,0,1,1,.971.982A0.984,0.984,0,0,1,134.094,29.555Zm0.251,2.309h1.439v9.378h-1.439V31.863ZM145.584,34.9v6.343h-1.439v-6.2a1.871,1.871,0,0,0-2.122-2.091,2.659,2.659,0,0,0-2.554,2.981v5.307H138.03V31.863H139.4v1.4a3.407,3.407,0,0,1,2.912-1.618A2.974,2.974,0,0,1,145.584,34.9Zm7.909-1.762v6.088c0,0.491.233,0.8,1.061,0.8H155.4v1.218c-0.4.037-.738,0.054-1.025,0.054-1.439,0-2.32-.509-2.32-1.945V33.136h-1.528V31.863h1.528V29.21h1.439v2.654H155.4v1.273h-1.906Zm11.543,6.924v1.182a5.392,5.392,0,0,1-.791.054,1.335,1.335,0,0,1-1.565-1.344,3.39,3.39,0,0,1-3.021,1.508c-2.014,0-3.273-.982-3.273-2.744,0-1.473.882-2.636,3.435-2.908l1.331-.146c0.935-.108,1.456-0.454,1.456-1.29,0-.981-0.5-1.472-2.086-1.472s-2.248.454-2.337,1.854h-1.439c0.107-1.818,1.061-3.108,3.776-3.108,2.572,0,3.489,1.145,3.489,2.726v5.234a0.428,0.428,0,0,0,.5.454h0.521Zm-2.428-2.526V36.425a2.372,2.372,0,0,1-1.222.4l-1.349.164c-1.691.2-2.159,0.782-2.159,1.691,0,0.927.576,1.545,1.852,1.545A2.677,2.677,0,0,0,162.608,37.533Zm11.975,2.526v1.182a5.392,5.392,0,0,1-.791.054,1.335,1.335,0,0,1-1.565-1.344,3.39,3.39,0,0,1-3.021,1.508c-2.014,0-3.273-.982-3.273-2.744,0-1.473.882-2.636,3.435-2.908l1.331-.146c0.935-.108,1.456-0.454,1.456-1.29,0-.981-0.5-1.472-2.086-1.472s-2.248.454-2.337,1.854h-1.439c0.107-1.818,1.061-3.108,3.776-3.108,2.572,0,3.489,1.145,3.489,2.726v5.234a0.428,0.428,0,0,0,.5.454h0.521Zm-2.428-2.526V36.425a2.372,2.372,0,0,1-1.222.4l-1.349.164c-1.691.2-2.159,0.782-2.159,1.691,0,0.927.576,1.545,1.852,1.545A2.677,2.677,0,0,0,172.155,37.533Zm10.824,2.436v1.273h-7.5V40.151l4.245-5.525c0.4-.509.791-1.017,1.2-1.526-0.665.037-1.313,0.037-1.978,0.037h-3.291V31.863h7.068v1.09l-4.245,5.525c-0.4.509-.791,1.018-1.205,1.527,0.666-.036,1.313-0.036,1.979-0.036h3.723Zm9.456,0.091v1.182a5.406,5.406,0,0,1-.792.054,1.336,1.336,0,0,1-1.565-1.344,3.388,3.388,0,0,1-3.02,1.508c-2.015,0-3.274-.982-3.274-2.744,0-1.473.882-2.636,3.435-2.908l1.331-.146c0.935-.108,1.456-0.454,1.456-1.29,0-.981-0.5-1.472-2.085-1.472s-2.248.454-2.338,1.854h-1.439c0.107-1.818,1.061-3.108,3.777-3.108,2.571,0,3.489,1.145,3.489,2.726v5.234a0.427,0.427,0,0,0,.5.454h0.522Zm-2.429-2.526V36.425a2.372,2.372,0,0,1-1.222.4l-1.349.164c-1.69.2-2.158,0.782-2.158,1.691,0,0.927.575,1.545,1.852,1.545A2.676,2.676,0,0,0,190.006,37.533ZM205.7,28.3V41.242h-1.367V39.788a3.636,3.636,0,0,1-3.183,1.672c-2.608,0-4.316-1.908-4.316-4.907s1.708-4.907,4.316-4.907a3.632,3.632,0,0,1,3.111,1.562V28.3H205.7Zm-1.385,8.252c0-2.272-1.187-3.6-2.985-3.6s-2.986,1.4-2.986,3.672,1.188,3.525,2.986,3.525S204.318,38.825,204.318,36.553Zm11.722,0.509h-7.049c0.143,2.109,1.24,3.072,2.859,3.072a2.386,2.386,0,0,0,2.463-1.745h1.493a3.88,3.88,0,0,1-3.993,3.072c-2.535,0-4.316-1.872-4.316-4.907,0-2.944,1.709-4.907,4.28-4.907,2.77,0,4.263,2.217,4.263,4.907v0.509Zm-7.014-1.308h5.468a2.737,2.737,0,0,0-2.717-2.781C210.321,32.972,209.26,33.9,209.026,35.753Zm16.83,4.307v1.182a5.406,5.406,0,0,1-.792.054,1.336,1.336,0,0,1-1.565-1.344,3.387,3.387,0,0,1-3.02,1.508c-2.014,0-3.274-.982-3.274-2.744,0-1.473.882-2.636,3.436-2.908l1.33-.146c0.935-.108,1.457-0.454,1.457-1.29,0-.981-0.5-1.472-2.086-1.472s-2.248.454-2.338,1.854h-1.439c0.108-1.818,1.061-3.108,3.777-3.108,2.571,0,3.489,1.145,3.489,2.726v5.234a0.427,0.427,0,0,0,.5.454h0.522Zm-2.428-2.526V36.425a2.383,2.383,0,0,1-1.223.4l-1.349.164c-1.69.2-2.158,0.782-2.158,1.691,0,0.927.575,1.545,1.853,1.545A2.676,2.676,0,0,0,223.428,37.533Zm3.683,1.818V28.3h1.439V39.224a0.724,0.724,0,0,0,.882.8h0.682v1.218a8.974,8.974,0,0,1-.916.054C227.9,41.3,227.111,40.787,227.111,39.351Zm3.686-1.09h1.456c0.162,1.418.846,1.945,2.483,1.945,1.564,0,2.229-.527,2.229-1.454,0-.836-0.5-1.218-2.121-1.527l-0.864-.164c-2.013-.381-2.895-1.308-2.895-2.762,0-1.6,1.259-2.654,3.381-2.654,2.482,0,3.74,1.108,3.776,3.108H236.8c-0.072-1.454-.916-1.854-2.337-1.854-1.241,0-1.942.509-1.942,1.381,0,0.891.683,1.218,1.87,1.454l0.827,0.164c2.284,0.454,3.2,1.236,3.2,2.763,0,1.78-1.4,2.8-3.687,2.8C232.38,41.46,230.942,40.46,230.8,38.261Zm15.749-2.053-1.654,1.562v3.472h-1.438V28.3h1.438v7.761l4.3-4.2H251.1l-3.525,3.38,3.776,6h-1.672Zm13.522,0.854h-7.049c0.143,2.109,1.241,3.072,2.859,3.072a2.387,2.387,0,0,0,2.464-1.745h1.492a3.879,3.879,0,0,1-3.992,3.072c-2.535,0-4.316-1.872-4.316-4.907,0-2.944,1.709-4.907,4.28-4.907,2.77,0,4.262,2.217,4.262,4.907v0.509Zm-7.014-1.308h5.468a2.736,2.736,0,0,0-2.716-2.781C254.349,32.972,253.288,33.9,253.054,35.753ZM264.7,38.261h1.456c0.162,1.418.846,1.945,2.483,1.945,1.564,0,2.229-.527,2.229-1.454,0-.836-0.5-1.218-2.121-1.527l-0.864-.164c-2.013-.381-2.9-1.308-2.9-2.762,0-1.6,1.259-2.654,3.38-2.654,2.483,0,3.741,1.108,3.777,3.108h-1.439c-0.072-1.454-.916-1.854-2.338-1.854-1.24,0-1.942.509-1.942,1.381,0,0.891.684,1.218,1.871,1.454l0.827,0.164c2.284,0.454,3.2,1.236,3.2,2.763,0,1.78-1.4,2.8-3.687,2.8C266.286,41.46,264.847,40.46,264.7,38.261Zm17.532,1.8v1.182a5.4,5.4,0,0,1-.792.054,1.335,1.335,0,0,1-1.564-1.344,3.39,3.39,0,0,1-3.021,1.508c-2.014,0-3.273-.982-3.273-2.744,0-1.473.882-2.636,3.435-2.908l1.331-.146c0.935-.108,1.456-0.454,1.456-1.29,0-.981-0.5-1.472-2.086-1.472s-2.248.454-2.338,1.854h-1.438c0.107-1.818,1.061-3.108,3.776-3.108,2.571,0,3.489,1.145,3.489,2.726v5.234a0.428,0.428,0,0,0,.5.454h0.521Zm-2.428-2.526V36.425a2.372,2.372,0,0,1-1.222.4l-1.349.164c-1.691.2-2.159,0.782-2.159,1.691,0,0.927.576,1.545,1.852,1.545A2.677,2.677,0,0,0,279.807,37.533Zm11.974,2.526v1.182a5.4,5.4,0,0,1-.792.054,1.335,1.335,0,0,1-1.564-1.344A3.389,3.389,0,0,1,286.4,41.46c-2.014,0-3.273-.982-3.273-2.744,0-1.473.882-2.636,3.435-2.908l1.33-.146c0.936-.108,1.458-0.454,1.458-1.29,0-.981-0.5-1.472-2.087-1.472s-2.248.454-2.338,1.854h-1.438c0.108-1.818,1.061-3.108,3.776-3.108,2.571,0,3.489,1.145,3.489,2.726v5.234a0.428,0.428,0,0,0,.5.454h0.521Zm-2.427-2.526V36.425a2.383,2.383,0,0,1-1.223.4l-1.349.164c-1.691.2-2.159,0.782-2.159,1.691,0,0.927.576,1.545,1.853,1.545A2.677,2.677,0,0,0,289.354,37.533Zm5.572-4.4v6.088c0,0.491.233,0.8,1.061,0.8h0.845v1.218c-0.395.037-.738,0.054-1.025,0.054-1.439,0-2.32-.509-2.32-1.945V33.136h-1.528V31.863h1.528V29.21h1.439v2.654h1.906v1.273h-1.906ZM306,34.9v6.343h-1.438v-6.2a1.871,1.871,0,0,0-2.123-2.091,2.658,2.658,0,0,0-2.553,2.981v5.307h-1.439V28.3h1.439v4.853a3.409,3.409,0,0,1,2.841-1.508A2.973,2.973,0,0,1,306,34.9ZM51.412,56.74c0-3,1.888-4.907,4.5-4.907s4.5,1.908,4.5,4.907-1.888,4.907-4.5,4.907S51.412,59.738,51.412,56.74Zm7.481,0c0-2.272-1.187-3.6-2.985-3.6s-2.986,1.327-2.986,3.6,1.187,3.6,2.986,3.6S58.894,59.012,58.894,56.74Zm10.859-1.654v6.343H68.314v-6.2a1.871,1.871,0,0,0-2.122-2.091,2.659,2.659,0,0,0-2.553,2.981v5.307H62.2V52.051h1.367v1.4a3.408,3.408,0,0,1,2.913-1.618A2.973,2.973,0,0,1,69.752,55.086ZM84.369,56.74c0,3-1.709,4.907-4.316,4.907a3.633,3.633,0,0,1-3.111-1.562v4.907H75.5V52.051h1.367V53.5a3.635,3.635,0,0,1,3.183-1.672C82.66,51.833,84.369,53.741,84.369,56.74Zm-1.511-.073c0-2.271-1.187-3.526-2.985-3.526s-2.986,1.327-2.986,3.6,1.187,3.6,2.986,3.6S82.858,58.939,82.858,56.667Zm10.859-1.581v6.343H92.279v-6.2a1.871,1.871,0,0,0-2.122-2.091A2.659,2.659,0,0,0,87.6,56.122v5.307H86.164V48.489H87.6v4.852a3.41,3.41,0,0,1,2.841-1.508A2.974,2.974,0,0,1,93.717,55.086Zm1.795,1.654c0-3,1.888-4.907,4.5-4.907s4.5,1.908,4.5,4.907-1.888,4.907-4.5,4.907S95.512,59.738,95.512,56.74Zm7.481,0c0-2.272-1.187-3.6-2.985-3.6s-2.985,1.327-2.985,3.6,1.187,3.6,2.985,3.6S102.993,59.012,102.993,56.74Zm10.86-1.654v6.343h-1.439v-6.2a1.871,1.871,0,0,0-2.122-2.091,2.659,2.659,0,0,0-2.554,2.981v5.307H106.3V52.051h1.367v1.4a3.408,3.408,0,0,1,2.912-1.618A2.974,2.974,0,0,1,113.853,55.086Zm10.337,2.163h-7.049c0.143,2.108,1.24,3.072,2.859,3.072a2.384,2.384,0,0,0,2.463-1.745h1.493a3.878,3.878,0,0,1-3.992,3.072c-2.535,0-4.316-1.872-4.316-4.907,0-2.944,1.708-4.907,4.279-4.907,2.771,0,4.263,2.217,4.263,4.907v0.509Zm-7.013-1.308h5.466a2.735,2.735,0,0,0-2.716-2.781C118.471,53.16,117.41,54.086,117.177,55.94Zm8.054,2.508h1.456c0.162,1.417.845,1.945,2.482,1.945,1.565,0,2.23-.527,2.23-1.454,0-.836-0.5-1.217-2.122-1.527l-0.864-.164c-2.013-.382-2.9-1.308-2.9-2.762,0-1.6,1.26-2.654,3.381-2.654,2.482,0,3.74,1.109,3.777,3.108h-1.439c-0.072-1.454-.917-1.854-2.338-1.854-1.241,0-1.942.509-1.942,1.381,0,0.891.684,1.218,1.871,1.454l0.827,0.164c2.283,0.454,3.2,1.236,3.2,2.763,0,1.781-1.4,2.8-3.687,2.8C126.814,61.647,125.375,60.647,125.231,58.448Zm10.985,2.708a2.46,2.46,0,0,1-2.014,2.763l-0.18.037V62.992l0.126-.036a1.344,1.344,0,0,0,.989-1.418h-0.108a0.942,0.942,0,0,1-1.007-.945,0.97,0.97,0,0,1,1.007-.982C135.767,59.611,136.216,60.156,136.216,61.156Zm13.809-12.667v12.94h-1.367V59.975a3.637,3.637,0,0,1-3.184,1.672c-2.607,0-4.316-1.908-4.316-4.907s1.709-4.907,4.316-4.907a3.634,3.634,0,0,1,3.112,1.563V48.489h1.439Zm-1.386,8.251c0-2.272-1.186-3.6-2.984-3.6s-2.986,1.4-2.986,3.672,1.187,3.526,2.986,3.526S148.639,59.012,148.639,56.74Zm11.741,3.508v1.181a5.392,5.392,0,0,1-.792.054,1.335,1.335,0,0,1-1.564-1.345A3.391,3.391,0,0,1,155,61.647c-2.014,0-3.273-.981-3.273-2.744,0-1.472.881-2.635,3.435-2.908l1.33-.145c0.936-.11,1.456-0.455,1.456-1.29,0-.982-0.5-1.473-2.085-1.473s-2.248.454-2.338,1.854h-1.439c0.108-1.818,1.062-3.108,3.777-3.108,2.571,0,3.489,1.145,3.489,2.727v5.234a0.427,0.427,0,0,0,.5.454h0.522Zm-2.429-2.526V56.613a2.374,2.374,0,0,1-1.222.4l-1.349.164c-1.69.2-2.158,0.781-2.158,1.69,0,0.928.575,1.546,1.852,1.546A2.676,2.676,0,0,0,157.951,57.722Zm5.574-4.4v6.088c0,0.491.233,0.8,1.061,0.8h0.845v1.217q-0.594.055-1.026,0.054c-1.438,0-2.319-.509-2.319-1.945V53.323h-1.528V52.051h1.528V49.4h1.439v2.653h1.906v1.273h-1.906Zm11.543,6.925v1.181a5.392,5.392,0,0,1-.792.054,1.335,1.335,0,0,1-1.564-1.345,3.39,3.39,0,0,1-3.021,1.508c-2.014,0-3.273-.981-3.273-2.744,0-1.472.881-2.635,3.435-2.908l1.33-.145c0.936-.11,1.458-0.455,1.458-1.29,0-.982-0.5-1.473-2.087-1.473s-2.248.454-2.338,1.854h-1.438c0.108-1.818,1.061-3.108,3.776-3.108,2.571,0,3.489,1.145,3.489,2.727v5.234a0.427,0.427,0,0,0,.5.454h0.522Zm-2.427-2.526V56.613a2.392,2.392,0,0,1-1.224.4l-1.349.164c-1.69.2-2.158,0.781-2.158,1.69,0,0.928.575,1.546,1.853,1.546A2.678,2.678,0,0,0,172.641,57.722Zm15.389,2.526v1.181a5.392,5.392,0,0,1-.792.054,1.336,1.336,0,0,1-1.565-1.345,3.388,3.388,0,0,1-3.02,1.508c-2.014,0-3.274-.981-3.274-2.744,0-1.472.882-2.635,3.436-2.908l1.33-.145c0.935-.11,1.456-0.455,1.456-1.29,0-.982-0.5-1.473-2.085-1.473s-2.248.454-2.338,1.854h-1.439c0.108-1.818,1.061-3.108,3.777-3.108,2.571,0,3.489,1.145,3.489,2.727v5.234a0.427,0.427,0,0,0,.5.454h0.522ZM185.6,57.722V56.613a2.374,2.374,0,0,1-1.222.4l-1.349.164c-1.69.2-2.158,0.781-2.158,1.69,0,0.928.575,1.546,1.852,1.546A2.676,2.676,0,0,0,185.6,57.722Zm11.328-2.636v6.343h-1.438v-6.2a1.871,1.871,0,0,0-2.123-2.091,2.659,2.659,0,0,0-2.553,2.981v5.307h-1.439V52.051h1.367v1.4a3.41,3.41,0,0,1,2.913-1.618A2.973,2.973,0,0,1,196.929,55.086Zm10.661-6.6v12.94h-1.366V59.975a3.638,3.638,0,0,1-3.184,1.672c-2.607,0-4.316-1.908-4.316-4.907s1.709-4.907,4.316-4.907a3.632,3.632,0,0,1,3.111,1.563V48.489h1.439Zm-1.385,8.251c0-2.272-1.187-3.6-2.985-3.6s-2.985,1.4-2.985,3.672,1.187,3.526,2.985,3.526S206.205,59.012,206.205,56.74Zm9.293-3.417v6.088c0,0.491.234,0.8,1.062,0.8H217.4v1.217c-0.4.037-.737,0.054-1.025,0.054-1.438,0-2.319-.509-2.319-1.945V53.323h-1.529V52.051h1.529V49.4H215.5v2.653H217.4v1.273H215.5Zm11.436,3.925h-7.049c0.143,2.108,1.24,3.072,2.858,3.072a2.386,2.386,0,0,0,2.464-1.745H226.7a3.878,3.878,0,0,1-3.993,3.072c-2.535,0-4.316-1.872-4.316-4.907,0-2.944,1.709-4.907,4.28-4.907,2.77,0,4.263,2.217,4.263,4.907v0.509Zm-7.013-1.308h5.466a2.736,2.736,0,0,0-2.716-2.781C221.215,53.16,220.154,54.086,219.921,55.94Zm8.359,0.8c0-3.017,1.726-4.907,4.3-4.907a3.772,3.772,0,0,1,3.992,3.4h-1.492a2.424,2.424,0,0,0-2.5-2.091c-1.583,0-2.787,1.145-2.787,3.6s1.24,3.6,2.787,3.6a2.445,2.445,0,0,0,2.518-2.126h1.474a3.839,3.839,0,0,1-3.992,3.434C230.042,61.647,228.28,59.757,228.28,56.74Zm17.459-1.654v6.343H244.3v-6.2a1.871,1.871,0,0,0-2.122-2.091,2.659,2.659,0,0,0-2.554,2.981v5.307h-1.438V48.489h1.438v4.852a3.411,3.411,0,0,1,2.842-1.508A2.974,2.974,0,0,1,245.739,55.086Zm1.976,5.4a1.053,1.053,0,0,1,2.1,0A1.052,1.052,0,1,1,247.715,60.484Z"/>
</svg>
