<svg xmlns="http://www.w3.org/2000/svg" viewBox="0 0 396.38 347.31"><defs><style>.cls-1{fill:#fff;fill-rule:evenodd}</style></defs><path class="cls-1" d="M393.91 13.8A14.29 14.29 0 0 0 381.13.9C378.48.63 115.55-23.32 80.7 195.05c-6 37.41-.34 70.84 15.48 96.78-49.76 25.48-86.75 33.8-87.58 34a10.87 10.87 0 0 0 2.26 21.5 10.28 10.28 0 0 0 2.26-.24c3.57-.75 43.89-9.75 96.83-37.24a107.37 107.37 0 0 0 17.32 14.8c19.88 13.56 44 20.32 69.33 20.32 27.13 0 55.67-7.75 81.88-23.17 41-24.09 134.23-102.33 115.43-308M264.02 297.19c-41.22 24.24-88.59 25.75-120.67 3.87a81.4 81.4 0 0 1-7.36-5.74 490.39 490.39 0 0 0 178.1-183.27 10.876 10.876 0 1 0-19-10.59c-49.12 88-116.76 143.1-174 176.68-12.91-20.28-17.25-47.2-12.23-78.59 12.75-79.93 61.21-132.84 144-157.28 39.36-11.62 77.69-13.86 101.4-13.86 4.65 0 8.74.09 12.16.21 8.68 125.68-29.21 225.52-102.4 268.57"/></svg>