<svg id="Frame_3" data-name="Frame 3" xmlns="http://www.w3.org/2000/svg" width="728" height="90" viewBox="0 0 728 90">
  <defs>
    <style>
      .cls-1 {
        fill: #3d791d;
        fill-rule: evenodd;
      }
    </style>
  </defs>
  <path id="了解更多" class="cls-1" d="M653.732,74.711l0.5,1.1,2.03-.027a0.921,0.921,0,0,0,.746-0.356,1.156,1.156,0,0,0,.262-0.712l0.014-6.1a11.945,11.945,0,0,0,3.771-3.055V64.644h-9.075v1.027l7.514,0.014a12.527,12.527,0,0,1-3.343,2.4V74.3a0.551,0.551,0,0,1-.069.274,0.235,0.235,0,0,1-.152.137h-2.2Zm14.842-6.547,0.442,0.6a4.058,4.058,0,0,0,1.678-1.335,4.985,4.985,0,0,0,.753-1.938h1.547q-0.193,1.041-.29,1.37a0.416,0.416,0,0,1-.512.383,4.945,4.945,0,0,1-.98-0.315l0.317,1.137q0.153,0.014.546,0.075a3.021,3.021,0,0,0,.615.048,0.949,0.949,0,0,0,.525-0.185,0.923,0.923,0,0,0,.331-0.431,11.459,11.459,0,0,0,.622-3.082h-5.235v1h1.5a2.592,2.592,0,0,1-.635,1.452,3.422,3.422,0,0,1-1.257.945V67.274H667.1a16.026,16.026,0,0,0,.718-2.205h-2.445a5.963,5.963,0,0,0,.166-0.849l-0.9-.356a8.228,8.228,0,0,1-2.293,4.315l0.87,0.589,0.36-.4v4.26a6.509,6.509,0,0,1-.194,1.034,4.743,4.743,0,0,1-.3.794,6.4,6.4,0,0,1-.718,1.034l0.787,0.712a6.3,6.3,0,0,0,1.465-3.233H667.5V74.6a0.407,0.407,0,0,1-.1.267,0.324,0.324,0,0,1-.263.116h-1.215L666.5,76h1.091a0.791,0.791,0,0,0,.718-0.37,1.7,1.7,0,0,0,.235-0.931ZM667.5,69.63h-0.967V68.246h0.953Zm-2.886,0V68.246h0.925V69.63H664.61Zm0.925,0.931V72h-0.912l-0.013-1.438h0.925Zm0.994-4.493a4.791,4.791,0,0,1-.227.582q-0.159.349-.311,0.61l-1.589.014A9.192,9.192,0,0,0,665,66.068h1.533ZM667.5,72l-0.953-.014-0.014-1.425H667.5V72Zm7.266,1.151v-1h-2.335V70.725h1.6l0.013-1h-1.616V68.3l-1.036.014-0.013,1.425-0.677-.014a4.543,4.543,0,0,0,.1-0.89l-0.953-.288a6.007,6.007,0,0,1-.421,1.911,3.813,3.813,0,0,1-.766,1.13l1.063,0.37a4.977,4.977,0,0,0,.7-1.233h0.966V72.15l-2.679.014V73.15h2.666l0.013,3.013h1.036V73.15h2.335Zm13.4,1.9q-1.286-.027-2.7-0.185a23.625,23.625,0,0,1-2.493-.4,6.676,6.676,0,0,1-1.685-.569,4.058,4.058,0,0,0,.58-1.034,5.146,5.146,0,0,0,.318-1.212h4.033V66.589h-3.84V65.575l5.346,0.014V64.616H675.933v0.973l5.414-.014v1.014h-3.964l-0.014,5.068h3.757a4.281,4.281,0,0,1-.283.9,3.732,3.732,0,0,1-.476.822,16.226,16.226,0,0,1-2.017-1.561l-0.8.534a9.39,9.39,0,0,0,2,1.753,12.036,12.036,0,0,1-2.079.774,18.814,18.814,0,0,1-1.941.431l0.622,0.918a9.764,9.764,0,0,0,3.964-1.3l0.428-.288a12.979,12.979,0,0,0,2.638.911,25.3,25.3,0,0,0,4.324.555ZM685.2,68.616h-2.818l0.014-1.055h2.8v1.055Zm-6.8-1.055,2.942,0.014v1.041h-2.942V67.561Zm6.81,2.027v1.082h-2.928l0.069-1.082h2.859Zm-6.81,0h2.915l-0.056,1.082-2.859-.014V69.589Zm13.426,3.424a25.6,25.6,0,0,0,2.8-1.356,11.053,11.053,0,0,0,1.568-1.109h3.536a5.766,5.766,0,0,1-.643.883,5.911,5.911,0,0,1-1.008.911,11.3,11.3,0,0,1-1.347.835,4.293,4.293,0,0,0-1.422-1.493l-1,.562a4.917,4.917,0,0,1,1.519,1.37,27.6,27.6,0,0,1-6.187,1.616l0.69,0.945a37.586,37.586,0,0,0,4.02-.9,17.182,17.182,0,0,0,2.437-.952,10.225,10.225,0,0,0,1.982-1.246,8.208,8.208,0,0,0,1.389-1.39,9.393,9.393,0,0,0,.821-1.26L701,69.506l-3.729-.014a6.3,6.3,0,0,0,.732-0.972l-0.815-.438a11.543,11.543,0,0,0,1.948-1.945V65.219h-3.895a10.11,10.11,0,0,0,1.008-1.1l-0.967-.507a10.653,10.653,0,0,1-5.332,3.315l0.912,0.849a14.773,14.773,0,0,0,3.025-1.52h3.8a12.963,12.963,0,0,1-1.284,1.068,12.248,12.248,0,0,1-1.464.877,5.54,5.54,0,0,0-.739-0.76,4.424,4.424,0,0,0-.808-0.6l-0.967.616a4.815,4.815,0,0,1,1.547,1.151,15.929,15.929,0,0,1-1.927.63q-1.291.356-2.383,0.6l0.663,0.918a27.929,27.929,0,0,0,4.061-1.226,16.9,16.9,0,0,0,2.583-1.267,9.7,9.7,0,0,1-2.465,2.212,17.654,17.654,0,0,1-3.474,1.651Z"/>
</svg>
