<svg id="Frame_3" data-name="Frame 3" xmlns="http://www.w3.org/2000/svg" width="728" height="90" viewBox="0 0 728 90">
  <defs>
    <style>
      .cls-1 {
        fill: #58595b;
        fill-rule: evenodd;
      }
    </style>
  </defs>
  <path id="_有若干条件_" data-name="*有若干条件。 " class="cls-1" d="M334.538,78.628a10.417,10.417,0,0,0-1.15.47l0.02-.11a8.493,8.493,0,0,0,.09-1.1h-0.7c0,0.127.026,0.5,0.08,1.11l0.01,0.11a3.116,3.116,0,0,0-.435-0.215c-0.17-.07-0.4-0.158-0.685-0.265l-0.23.7q0.54,0.13,1.2.27a4.057,4.057,0,0,0-.4.43l-0.35.42-0.06.07,0.57,0.42a8.913,8.913,0,0,0,.59-0.96l0.05-.09,0.06,0.1q0.4,0.67.61,0.95l0.58-.42-0.08-.1-0.34-.38-0.33-.36-0.09-.08c0.166-.02.37-0.057,0.61-0.11s0.443-.107.61-0.16Zm9.742,0.24v-0.73h-5.09q0.24-.82.33-1.24l-0.77-.17a13.826,13.826,0,0,1-.39,1.41h-2.38v0.73h2.1a6.669,6.669,0,0,1-1.025,1.815,13.086,13.086,0,0,1-1.685,1.785l0.7,0.46q0.909-.93,1.215-1.28a6.793,6.793,0,0,0,.475-0.6v4.77h0.79v-2.11h3.76V84.7a0.165,0.165,0,0,1-.05.12,0.177,0.177,0,0,1-.13.05,7.4,7.4,0,0,1-1.26-.05c0.06,0.153.176,0.41,0.35,0.77H341.8a4,4,0,0,0,.755-0.05,0.868,0.868,0,0,0,.355-0.25,0.683,0.683,0,0,0,.165-0.38V79.8h-4.53q0.129-.27.36-0.93h5.38Zm-1.97,2.47h-3.76v-0.81h3.76v0.81Zm0,1.64h-3.76v-0.91h3.76v0.91Zm11.76-4.02v-0.73h-2.08V76.9h-0.76v1.33h-2.85V76.9h-0.76v1.33h-2.06v0.73h2.06v1.1h0.76v-1.1h2.85v1.07h0.76v-1.07h2.08Zm-0.2,2.21v-0.73h-4.06a10.462,10.462,0,0,0,.43-1.06l-0.7-.3a7.511,7.511,0,0,1-.63,1.36h-3.06v0.73h2.62a6.378,6.378,0,0,1-1.005,1.04,16.43,16.43,0,0,1-1.985,1.37l0.56,0.58a17.381,17.381,0,0,0,1.71-1.18v2.84h0.76v-0.71h3.56v0.71h0.76v-3.59h-4.29a8.726,8.726,0,0,0,.83-1.06h4.5Zm-1.8,3.21h-3.56v-1.42h3.56v1.42Zm11.32-3.06v-0.76H359.8v-2.33h2.94v-0.76h-6.66v0.76h2.93v2.33H355.4v0.76h3.61v4.52h0.79v-4.52h3.59Zm10.363,0.14q-1.7-.5-2.534-0.825a11.442,11.442,0,0,1-1.326-.595,8.628,8.628,0,0,0,1.176-.985,3.86,3.86,0,0,0,.635-0.845v-0.62h-3.561c0.081-.153.131-0.25,0.151-0.29a1.018,1.018,0,0,0,.05-0.12l-0.64-.28a5.876,5.876,0,0,1-1.131,1.57,4.171,4.171,0,0,1-1.579,1.04l0.559,0.63a5.2,5.2,0,0,0,1.711-1.29,2.2,2.2,0,0,0,.4.475,6.532,6.532,0,0,0,.531.42c0.2,0.143.32,0.232,0.359,0.265a11.429,11.429,0,0,1-1.105.51,25.892,25.892,0,0,1-2.854.85l0.49,0.66q1.519-.4,2.614-0.805a7.053,7.053,0,0,0,1.555-.735,10.867,10.867,0,0,0,1.405.715q0.805,0.345,2.526.895Zm-0.209,3.18q-0.18-.16-0.425-0.345a6.383,6.383,0,0,0-.555-0.37,5.616,5.616,0,0,0-.66-0.335q-0.351-.15-0.875-0.335c-0.351-.123-0.539-0.188-0.566-0.195l-0.4.6a9.687,9.687,0,0,1,1.935.8,4.856,4.856,0,0,1,1.065.835Zm-1.061-1.91V82h-2.869v-0.61h-0.76V82h-3v0.73h3v2.15a0.219,0.219,0,0,1-.066.125,0.161,0.161,0,0,1-.114.055l-0.98-.05,0.289,0.8H369a0.516,0.516,0,0,0,.441-0.245,0.97,0.97,0,0,0,.17-0.565v-2.27h2.869Zm-4.689.29a6.085,6.085,0,0,1-1.32.905,7.294,7.294,0,0,1-1.7.585L365.3,85.2a9.688,9.688,0,0,0,1.61-.67,6.421,6.421,0,0,0,1.361-.99Zm3-4.7a5.635,5.635,0,0,1-1.581,1.29,5.733,5.733,0,0,1-1.519-1.29h3.1Zm13.059,3.97v-0.76h-2.76v-1.99h2.08v-0.76h-2.08V76.8H380.3v1.98h-1.1a4.721,4.721,0,0,0,.15-1.02l-0.69-.22a7.327,7.327,0,0,1-.425,1.745,6.365,6.365,0,0,1-.855,1.515l0.7,0.35a9.359,9.359,0,0,0,.87-1.61h1.35v1.99h-2.79v0.76h2.79v3.49h0.79v-3.49h2.76Zm-6.82-5.45a10.331,10.331,0,0,1-2.23,4.74l0.65,0.46,0.92-1.35v5.15h0.76v-6.58a12.277,12.277,0,0,0,.62-2.27Zm12.083,4.275a1.352,1.352,0,0,0-.235-0.555,1.192,1.192,0,0,0-.5-0.41,1.412,1.412,0,0,0-.65-0.11,1.161,1.161,0,0,0-.675.275,1.254,1.254,0,0,0-.425.605,1.3,1.3,0,0,0-.035.655,1.184,1.184,0,0,0,.265.575,1.324,1.324,0,0,0,.5.36,1.379,1.379,0,0,0,.615.1,1.19,1.19,0,0,0,.66-0.285,1.343,1.343,0,0,0,.43-0.6A1.222,1.222,0,0,0,389.116,81.113Zm-0.645.315a0.594,0.594,0,0,1-.17.34,0.656,0.656,0,0,1-.345.18,0.628,0.628,0,0,1-.385-0.04,0.692,0.692,0,0,1-.225-0.19,0.644,0.644,0,0,1-.135-0.27,0.611,0.611,0,0,1,.02-0.31,0.7,0.7,0,0,1,.15-0.27,0.6,0.6,0,0,1,.285-0.17,0.639,0.639,0,0,1,.335-0.01,0.677,0.677,0,0,1,.26.145A0.584,0.584,0,0,1,388.471,81.428Z"/>
</svg>
