<svg id="TEMPLATE" xmlns="http://www.w3.org/2000/svg" viewBox="0 0 600 500">
  <defs>
    <style>
      .cls-1 {
        fill: #6ebe44;
      }
      .cls-2 {
        fill: #6fbe44;
      }
      .cls-3 {
        fill: #4b286d;
      }
    </style>
  </defs>
  <g>
    <g>
      <path class="cls-3" d="M510.44,44.61h-10.03V25.8h-6.69v23.41h16.71v-4.59h.01Z"/>
      <path class="cls-3" d="M481.61,30.19v-4.39h-16.3v23.41h16.3v-4.81h-9.61v-5.22h7.73v-4.39h-7.73v-4.39l9.61-.21h0Z"/>
      <path class="cls-3" d="M564.15,34.58c-4.39-.84-6.06-1.05-6.06-2.92,0-1.67,2.3-2.3,3.55-2.3,2.09,0,4.39,.63,6.9,1.88l1.88-4.18c-2.51-1.25-6.06-2.09-9.2-2.09-6.27,0-10.24,2.51-10.45,7.31-.21,4.39,3.55,6.06,6.9,6.9,3.14,.84,6.48,1.25,6.48,3.14s-1.25,2.51-4.39,2.51c-2.72,0-5.43-.84-7.73-2.09l-1.25,4.39c2.92,1.25,6.06,2.09,9.4,2.09,4.39,0,7.53-.84,9.82-2.92,1.67-1.25,2.3-3.34,2.3-5.22-.84-3.14-2.92-5.43-8.15-6.48"/>
      <path class="cls-3" d="M533.23,25.6v17.13c-.21,1.25-1.47,2.3-3.76,2.3-1.47,0-2.72-.63-3.34-1.25-.42-.42-.42-1.25-.42-2.51v-15.46h-6.9v16.09c0,2.3,.42,3.34,1.25,4.39,1.67,2.09,5.01,3.14,9.4,3.14h.42c6.06,0,9.2-2.51,9.82-4.39,.42-1.05,.63-1.25,.63-3.76v-15.67h-7.11Z"/>
      <path class="cls-3" d="M456.11,30.4v-4.59h-20.69v4.39h6.9v18.81h6.69V30.41h7.1Z"/>
      <path class="cls-3" d="M438.56,19.32l-38.87,7.73v2.51h.21c25.49-6.27,38.66-9.82,38.87-9.82s.21-.21,.21-.21c0-.21-.21-.21-.42-.21"/>
    </g>
    <path class="cls-1" d="M406.17,21.41c.63-.42,.84-.21,.63,.42-.42,.84-1.67,4.59-11.28,12.96-2.51,2.09-4.39,3.34-7.73,5.43,5.64-8.78,14.42-16.09,18.39-18.81m1.05-2.92c-1.88,.21-5.43,2.92-7.11,4.39-7.53,6.69-13.17,12.54-17.56,19.02-8.57,4.39-19.65,9.4-30.51,12.96h-.21l-2.09,5.64,1.05-.42c6.9-2.51,18.39-7.53,29.05-12.96-.63,1.25-.84,2.92-.84,4.18,0,.84,.21,1.88,.63,2.72,.84,1.67,2.09,2.92,3.76,3.76,2.51,1.05,6.27,1.05,10.45-.21,10.65-3.14,23.2-12.96,26.12-15.26h.21c.21,0,.21-.21,0-.21,0,0-.21-.21-.42,0h-.21c-2.92,1.88-17.34,10.24-26.54,12.75-4.81,1.25-8.36,.63-9.61-1.25-.63-.84-.84-1.25-.84-2.51,0-1.88,.84-4.18,2.51-6.9,1.25-.84,2.92-1.88,4.39-2.51,9.2-5.22,19.65-15.04,19.85-21.1v-.21c0-.63-.21-1.05-.63-1.25-.42-.42-1.05-.63-1.47-.63"/>
    <path class="cls-3" d="M399.9,27.05l-40.55,8.78-1.67,4.18,42.42-10.24-.21-2.72h.01Z"/>
  </g>
  <g>
    <path class="cls-2" d="M510.66,62.16h2.72l-3.55,13.79h2.51v7.53h2.72v-1.88h4.39v-14h-4.59l1.05-5.43h3.55v-3.34h-9.82l1.05,3.34h-.02Zm4.59,8.36h1.88v7.73h-1.88v-7.73h0Z"/>
    <path class="cls-2" d="M532.39,62.16h1.88v-3.34h-12.96v3.34h1.88v6.06h-2.3v3.14h2.09v5.01l-1.47,7.11h3.55l1.88-7.11v-4.59h2.72v11.7h3.55v-11.92h2.51v-3.34h-2.51l-.84-6.06h-.01Zm-6.06,0h2.72v6.06h-2.72v-6.06Z"/>
    <polygon class="cls-2" points="571.46 73.03 569.59 73.44 569.59 58.82 566.24 58.82 566.24 62.16 560.18 62.16 560.18 65.3 566.24 65.3 566.24 68.43 560.18 68.43 560.18 71.57 566.24 71.57 566.24 74.49 559.97 75.11 559.97 78.67 566.24 77.63 566.24 83.48 569.59 83.48 569.59 77.21 571.46 76.38 571.46 73.03"/>
    <polygon class="cls-2" points="555.8 70.94 555.8 68.43 559.14 68.43 559.14 65.51 555.8 65.51 555.8 61.74 559.14 60.91 559.14 57.77 548.27 59.87 548.27 62.99 552.24 62.37 552.24 65.51 548.27 65.51 548.27 68.43 552.24 68.43 552.24 69.89 550.57 69.89 547.22 81.81 550.57 81.81 552.24 75.11 552.24 83.48 555.8 83.48 555.8 75.11 556.63 78.67 559.34 78.67 557.67 70.94 555.8 70.94"/>
  </g>
</svg>