<svg xmlns="http://www.w3.org/2000/svg" width="728" height="90" viewBox="0 0 728 90">
  <defs>
    <style>
      .cls-1 {
        fill: #4d4d4f;
        fill-rule: evenodd;
      }
    </style>
  </defs>
  <path id="_须签约两年_有若干条件_" data-name="*须签约两年。有若干条件。" class="cls-1" d="M295.973,75.8l1.007-1.5,1.007,1.5,0.708-.492-1.127-1.415,1.7-.54-0.312-.78-1.619.672,0.06-1.715h-0.852l0.06,1.715-1.619-.672-0.312.78,1.7,0.54-1.163,1.415Zm15.337-4.334V70.59h-6.576v0.876h2.916a4.806,4.806,0,0,1-.174.612,4.159,4.159,0,0,1-.234.552h-1.824v5.856h0.912v-4.98h3.6v4.632h0.912V72.63h-2.628a5.826,5.826,0,0,0,.348-1.164h2.748Zm0.276,8.676a6.074,6.074,0,0,0-1.11-1.242,14.209,14.209,0,0,0-1.566-1.134l-0.612.624a10.277,10.277,0,0,1,1.5,1.11,5.735,5.735,0,0,1,1.092,1.314Zm-7.8-9.756A9.636,9.636,0,0,1,302.43,72.2,7.768,7.768,0,0,1,300.7,73.59l0.672,0.672a9.87,9.87,0,0,0,3.108-3.348,6.559,6.559,0,0,0-.7-0.528h0Zm3.9,3.54q0.012,1.176-.024,1.914a7.053,7.053,0,0,1-.174,1.308,4.168,4.168,0,0,1-.318.918,3.854,3.854,0,0,1-3.312,1.836l0.588,0.9a4.9,4.9,0,0,0,3.216-1.764,3.76,3.76,0,0,0,.606-1.206,6.816,6.816,0,0,0,.258-1.35q0.06-.684.06-1.488v-0.9Zm-3.8-.324a9.258,9.258,0,0,1-1.368,1.746,7.314,7.314,0,0,1-1.716,1.3l0.684,0.7a8.125,8.125,0,0,0,1-.726,8.768,8.768,0,0,0,1.116-1.128,10.406,10.406,0,0,0,.978-1.374Zm0.468,2.7a10.769,10.769,0,0,1-1.584,1.962,7.863,7.863,0,0,1-1.956,1.422q0.324,0.348.7,0.708a8.836,8.836,0,0,0,1.95-1.53,11.7,11.7,0,0,0,1.6-2.058Zm19.313,0.42a14.669,14.669,0,0,1-2.778-1.224,7.794,7.794,0,0,1-2.082-1.74l0.288-.3-0.456-.276A4.914,4.914,0,0,0,319,72.72c0.139-.2.25-0.362,0.33-0.5h0.888a2.517,2.517,0,0,1,.432.45,10.6,10.6,0,0,1,.648,1.074l0.828-.384a6.387,6.387,0,0,0-.768-1.14h1.956v-0.8h-3.6a6.762,6.762,0,0,0,.312-0.876l-0.7-.4a8.009,8.009,0,0,1-.57,1.26,6.813,6.813,0,0,1-.69,1.038,3.418,3.418,0,0,1-.588.582l0.528,0.324a9.248,9.248,0,0,1-2.316,1.974,13.242,13.242,0,0,1-2.964,1.206l0.516,0.8a8.736,8.736,0,0,0,1.41-.486,9.991,9.991,0,0,0,1.3-.666v0.5h4.392l-0.012-.444a13.933,13.933,0,0,0,2.592,1.26Zm-5.568-4.56v-0.78l-2.664-.024c0.007-.024.066-0.142,0.174-0.354s0.2-.418.282-0.618l-0.744-.42a9.6,9.6,0,0,1-1,1.908,6.29,6.29,0,0,1-1.338,1.368l0.648,0.6a4.369,4.369,0,0,0,.894-0.75,4.969,4.969,0,0,0,.678-0.918h0.42a5.8,5.8,0,0,1,1.044,1.62l0.8-.42a5.024,5.024,0,0,0-.372-0.642,5.24,5.24,0,0,0-.42-0.546Zm0.816,6.588a3.83,3.83,0,0,0-.558-1.056,3.739,3.739,0,0,0-.8-0.8l-0.744.42a2.92,2.92,0,0,1,.834.906,5.135,5.135,0,0,1,.414,1Zm4.272,1.56V79.446H320.2a11.254,11.254,0,0,0,.636-0.966q0.4-.654.588-1.05l-0.888-.492a9.968,9.968,0,0,1-1.356,2.508h-6.192V80.31h10.2Zm-6.5-1.524a3.711,3.711,0,0,0-1.428-1.8l-0.756.432a3.355,3.355,0,0,1,.8.774,4.782,4.782,0,0,1,.582,1.1Zm-0.264-2.94a8.464,8.464,0,0,0,1.848-1.44,6.524,6.524,0,0,0,1.6,1.476Zm14.7-3.936a7.006,7.006,0,0,0,.288-1.644l-0.828-.216a9.625,9.625,0,0,1-.726,2.616,5.673,5.673,0,0,1-1.434,2.028l0.9,0.468a5.481,5.481,0,0,0,.822-1.038,9.238,9.238,0,0,0,.714-1.338h2.856q0,0.012-.006,1.158t-0.03,1.686l-0.048,1.02q-0.084,1.776-.156,2.208a3.678,3.678,0,0,1-.144.624,0.8,0.8,0,0,1-.246.288,0.638,0.638,0,0,1-.342.132,15.167,15.167,0,0,1-1.968-.312l0.276,1.044a11.936,11.936,0,0,0,1.4.174,3.576,3.576,0,0,0,.594-0.03,1.344,1.344,0,0,0,.78-0.432,1.693,1.693,0,0,0,.432-0.828,20.847,20.847,0,0,0,.294-3q0.078-1.9.078-4.608h-3.5Zm1.56,5.208a3.68,3.68,0,0,0-.324-0.792,4.015,4.015,0,0,0-.708-0.93,4.357,4.357,0,0,0-1.02-.774l-0.744.516a4.181,4.181,0,0,1,1.968,2.592Zm-3.768-.984-2.628.612a8.671,8.671,0,0,0,1.338-1.572A18.527,18.527,0,0,0,328.8,73.1l-0.84-.384a11.475,11.475,0,0,1-.8,1.428q-1.14.252-1.26,0.264,0.3-.528.858-1.71t0.882-1.938l-0.816-.372q-0.444,1.14-1.02,2.37a20.142,20.142,0,0,1-1,1.914l0.456,0.828q0.048-.012.234-0.072t0.6-.174q0.414-.114.474-0.126a13.3,13.3,0,0,1-1.716,1.992l0.432,0.8q1.344-.42,3.624-0.972V76.134ZM329.127,79V78.1q-1.992.708-4.284,1.4l0.456,0.828Zm17.291-7.416V70.71H336.23v0.876h3.408v1.536h-2.724V80.8h0.912V73.95h1.8a7.92,7.92,0,0,1-.186,1.452,6.253,6.253,0,0,1-.576,1.6,3.837,3.837,0,0,1-.942,1.218l0.684,0.6a4.478,4.478,0,0,0,.672-0.75,5.883,5.883,0,0,0,.642-1.122,6.037,6.037,0,0,0,.39-1.128,3.1,3.1,0,0,1,.816.924l0.636-.648a4.7,4.7,0,0,0-1.308-1.212l0.12-.936h1.692a7.046,7.046,0,0,1-.486,2.436,6.026,6.026,0,0,1-1.47,2.16l0.756,0.6a6.881,6.881,0,0,0,1.812-3.336,4,4,0,0,1,.654.7,5.279,5.279,0,0,1,.522.846l0.72-.66a4.868,4.868,0,0,0-.762-0.966,8.076,8.076,0,0,0-.99-0.81l0.084-.972h1.776v5.676a0.221,0.221,0,0,1-.2.24,7.2,7.2,0,0,1-1.14-.1l0.312,0.876a5.486,5.486,0,0,0,.99.042,1.1,1.1,0,0,0,.486-0.138,0.756,0.756,0,0,0,.42-0.708v-6.72h-2.592V71.586h3.264Zm-4.128,1.536h-1.74V71.586h1.74v1.536Zm15.425,4.308V76.554h-4.14V74.6h3.06V73.722h-3.06v-1.56h3.648V71.286H350.5q0.156-.516.186-0.672t0.042-.264l-0.768-.372a7.822,7.822,0,0,1-2.22,3.984l0.756,0.612a6.6,6.6,0,0,0,.8-0.918,10.133,10.133,0,0,0,.858-1.494h2.472v1.56h-3.18v2.832h-1.5V77.43h4.68v3.456h0.948V77.43h4.14Zm-5.088-.876h-2.268V74.6h2.268v1.956Zm11.357-1.35a1.618,1.618,0,0,0-.282-0.666,1.426,1.426,0,0,0-.6-0.492,1.694,1.694,0,0,0-.78-0.132,1.393,1.393,0,0,0-.81.33,1.508,1.508,0,0,0-.51.726,1.574,1.574,0,0,0-.042.786,1.432,1.432,0,0,0,.318.69,1.591,1.591,0,0,0,.606.432,1.658,1.658,0,0,0,.738.12,1.426,1.426,0,0,0,.792-0.342,1.605,1.605,0,0,0,.516-0.726A1.448,1.448,0,0,0,363.984,75.2Zm-0.774.378a0.711,0.711,0,0,1-.2.408,0.782,0.782,0,0,1-.414.216,0.754,0.754,0,0,1-.462-0.048,0.829,0.829,0,0,1-.27-0.228,0.772,0.772,0,0,1-.162-0.324,0.743,0.743,0,0,1,.024-0.372,0.853,0.853,0,0,1,.18-0.324,0.722,0.722,0,0,1,.342-0.2,0.768,0.768,0,0,1,.4-0.012,0.81,0.81,0,0,1,.312.174A0.7,0.7,0,0,1,363.21,75.582Zm14.357-3.072V71.634h-6.108q0.288-.984.4-1.488l-0.924-.2a16.591,16.591,0,0,1-.468,1.692h-2.856V72.51h2.52a8.008,8.008,0,0,1-1.23,2.178,15.679,15.679,0,0,1-2.022,2.142l0.84,0.552q1.091-1.116,1.458-1.536a8.1,8.1,0,0,0,.57-0.72V80.85h0.948V78.318H375.2v1.188a0.2,0.2,0,0,1-.06.144,0.212,0.212,0,0,1-.156.06,8.872,8.872,0,0,1-1.512-.06c0.072,0.184.211,0.492,0.42,0.924h0.69a4.786,4.786,0,0,0,.906-0.06,1.037,1.037,0,0,0,.426-0.3,0.822,0.822,0,0,0,.2-0.456V73.626h-5.436q0.154-.324.432-1.116h6.456ZM375.2,75.474h-4.512V74.5H375.2v0.972Zm0,1.968h-4.512V76.35H375.2v1.092Zm14.056-4.824V71.742h-2.5v-1.6h-0.912v1.6h-3.42v-1.6h-0.912v1.6h-2.472v0.876h2.472v1.32h0.912v-1.32h3.42V73.9h0.912V72.618h2.5Zm-0.24,2.652V74.394h-4.872a12.646,12.646,0,0,0,.516-1.272l-0.84-.36a9.069,9.069,0,0,1-.756,1.632H379.4V75.27h3.144a7.651,7.651,0,0,1-1.206,1.248,19.772,19.772,0,0,1-2.382,1.644l0.672,0.7a20.846,20.846,0,0,0,2.052-1.416V80.85h0.912V80h4.272V80.85h0.912V76.542h-5.148a10.546,10.546,0,0,0,1-1.272h5.4Zm-2.16,3.852h-4.272v-1.7h4.272v1.7Zm13.517-3.672V74.538h-4.308v-2.8H399.6V70.83H391.6v0.912h3.516v2.8h-4.332V75.45h4.332v5.424h0.948V75.45h4.308Zm12.383,0.168q-2.04-.6-3.042-0.99a13.7,13.7,0,0,1-1.59-.714,10.28,10.28,0,0,0,1.41-1.182,4.617,4.617,0,0,0,.762-1.014V70.974h-4.272q0.144-.276.18-0.348a1.1,1.1,0,0,0,.06-0.144l-0.768-.336a7.045,7.045,0,0,1-1.356,1.884,5.009,5.009,0,0,1-1.9,1.248l0.672,0.756a6.237,6.237,0,0,0,2.052-1.548,2.647,2.647,0,0,0,.48.57,7.647,7.647,0,0,0,.636.5q0.36,0.258.432,0.318a13.854,13.854,0,0,1-1.326.612,31.141,31.141,0,0,1-3.426,1.02l0.588,0.792q1.824-.48,3.138-0.966a8.482,8.482,0,0,0,1.866-.882,12.9,12.9,0,0,0,1.686.858q0.966,0.414,3.03,1.074Zm-0.252,3.816q-0.216-.192-0.51-0.414a7.44,7.44,0,0,0-.666-0.444,6.687,6.687,0,0,0-.792-0.4q-0.42-.18-1.05-0.4t-0.678-.234l-0.48.72a11.626,11.626,0,0,1,2.322.954,5.8,5.8,0,0,1,1.278,1Zm-1.272-2.292V76.266h-3.444V75.534h-0.912v0.732h-3.6v0.876h3.6v2.58a0.261,0.261,0,0,1-.078.15,0.2,0.2,0,0,1-.138.066l-1.176-.06,0.348,0.96h1.224a0.618,0.618,0,0,0,.528-0.294,1.16,1.16,0,0,0,.2-0.678V77.142h3.444Zm-5.628.348a7.271,7.271,0,0,1-1.584,1.086,8.745,8.745,0,0,1-2.04.7l0.636,0.828a11.677,11.677,0,0,0,1.932-.8,7.694,7.694,0,0,0,1.632-1.188Zm3.6-5.64a6.759,6.759,0,0,1-1.9,1.548,6.88,6.88,0,0,1-1.824-1.548h3.72Zm15.623,4.764V75.7h-3.312V73.314h2.5V72.4h-2.5V70.026H420.57V72.4h-1.32a5.665,5.665,0,0,0,.18-1.224l-0.828-.264a8.772,8.772,0,0,1-.51,2.094,7.582,7.582,0,0,1-1.026,1.818l0.84,0.42a11.227,11.227,0,0,0,1.044-1.932h1.62V75.7h-3.348v0.912h3.348V80.8h0.948V76.614h3.312Zm-8.184-6.54a12.385,12.385,0,0,1-2.676,5.688l0.78,0.552,1.1-1.62v6.18h0.912v-7.9a14.636,14.636,0,0,0,.744-2.724Zm14.387,5.13a1.618,1.618,0,0,0-.282-0.666,1.433,1.433,0,0,0-.6-0.492,1.694,1.694,0,0,0-.78-0.132,1.393,1.393,0,0,0-.81.33,1.508,1.508,0,0,0-.51.726,1.562,1.562,0,0,0-.042.786,1.423,1.423,0,0,0,.318.69,1.591,1.591,0,0,0,.606.432,1.653,1.653,0,0,0,.738.12,1.426,1.426,0,0,0,.792-0.342,1.613,1.613,0,0,0,.516-0.726A1.471,1.471,0,0,0,431.033,75.2Zm-0.774.378a0.711,0.711,0,0,1-.2.408,0.789,0.789,0,0,1-.414.216,0.754,0.754,0,0,1-.462-0.048,0.829,0.829,0,0,1-.27-0.228,0.772,0.772,0,0,1-.162-0.324,0.732,0.732,0,0,1,.024-0.372,0.853,0.853,0,0,1,.18-0.324,0.722,0.722,0,0,1,.342-0.2,0.768,0.768,0,0,1,.4-0.012,0.81,0.81,0,0,1,.312.174A0.7,0.7,0,0,1,430.259,75.582Z"/>
</svg>
