<svg id="Frame_1" data-name="Frame 1" xmlns="http://www.w3.org/2000/svg" width="728" height="90" viewBox="0 0 728 90">
  <defs>
    <style>
      .cls-1 {
        fill: #fff;
        fill-rule: evenodd;
      }
    </style>
  </defs>
  <path id="用更节能的方式_让家保持温暖明亮" data-name="用更节能的方式 让家保持温暖明亮" class="cls-1" d="M289.471,19.375l-17.316,0,0,11.57a17.1,17.1,0,0,1-.287,3.094,12.351,12.351,0,0,1-.858,2.834,16.556,16.556,0,0,1-2.419,3.639l1.663,1.249a15.743,15.743,0,0,0,2.784-4.315,18.345,18.345,0,0,0,1.015-4.576l5.72,0,0,6.214h1.976l0-6.214,5.668,0,0,5.59a0.443,0.443,0,0,1-.39.546,7.059,7.059,0,0,1-.975.039q-0.507-.013-1.781-0.065l0.624,2.028,2.964-.051a1.686,1.686,0,0,0,.715-0.325,2.12,2.12,0,0,0,.637-0.806,2.253,2.253,0,0,0,.26-0.975Zm-2.055,5.693-5.668,0v-3.8l5.668,0v3.8Zm0,5.9-5.668,0v-4l5.668,0v4Zm-7.642-5.9-5.642,0v-3.8l5.642,0v3.8Zm0,5.9-5.642,0v-4l5.642,0v4Zm36.77,8.538q-2.418-.053-5.083-0.352a44,44,0,0,1-4.693-.755,12.5,12.5,0,0,1-3.172-1.08,7.73,7.73,0,0,0,1.093-1.963,9.929,9.929,0,0,0,.6-2.3l7.592,0,0-9.646-7.2,0V21.564l10.036,0v-1.9l-22.178-.006v1.9l10.166,0v1.846l-7.462,0,0,9.646,7.072,0a8.343,8.343,0,0,1-.534,1.716,7.178,7.178,0,0,1-.9,1.56,30.689,30.689,0,0,1-3.8-2.965l-1.508,1.014a17.743,17.743,0,0,0,3.769,3.329,22.514,22.514,0,0,1-3.913,1.468,35.221,35.221,0,0,1-3.653.818l1.169,1.742a18.271,18.271,0,0,0,7.463-2.468l0.806-.546a24.271,24.271,0,0,0,4.966,1.73,47.235,47.235,0,0,0,8.137,1.055Zm-5.535-12.248h-5.33v-1.95h5.33v1.95Zm0,3.9-5.512,0,0.131-2,5.382,0v2Zm-7.305-3.9-5.486,0v-1.95l5.486,0v1.95Zm-0.026,1.9-0.105,2-5.356,0v-2Zm36.963-6.048V21.235l-6.4,0V18.269h-1.976v2.964H326.83V18.267h-1.976v2.964l-6.266,0L318.536,23.1l6.318,0v3.016h1.976V23.1h5.434v3.016h1.976V23.105Zm-20.619,3.478v1.872l6.474,0,0,12.9h1.976l0-12.9,7.254,0q-0.053.52-.13,2.3t-0.209,2.756a15.753,15.753,0,0,1-.312,1.7,0.635,0.635,0,0,1-.5.364,21.1,21.1,0,0,1-2.807-.729l0.545,2.158q2.859,0.625,3.692.131a2.378,2.378,0,0,0,.728-0.741,2.508,2.508,0,0,0,.39-0.949q0.209-1.508.379-4.173t0.222-4.693Zm43.818-2.25q-0.573,3.484-1.223,3.484H359.18a1.981,1.981,0,0,1-.923-0.208,0.6,0.6,0,0,1-.4-0.52v-1.9a28.125,28.125,0,0,0,4.486-1.78,16.008,16.008,0,0,0,2.873-1.884l-1.2-1.482a16.5,16.5,0,0,1-3.068,1.936,18.04,18.04,0,0,1-3.094,1.26V18.77h-1.976l0,9a2.057,2.057,0,0,0,.767,1.352,2.468,2.468,0,0,0,1.677.6h4.628a1.633,1.633,0,0,0,1.144-.533,3.177,3.177,0,0,0,.78-1.157,28.172,28.172,0,0,0,.859-2.964Zm-8.346,1.48a12.538,12.538,0,0,0-3.483-4.941l-1.742.962a16.466,16.466,0,0,1,1.611,1.717l-5.538.466a17.677,17.677,0,0,0,3.746-5.173l-1.794-.911a38.268,38.268,0,0,1-2.718,4.159,16.347,16.347,0,0,1-1.444,1.56,9.293,9.293,0,0,1-1.014.936l1.326,1.742q0.468-.052,2.717-0.35t3.64-.441q1.391-.142,2.353-0.194l0.468,1.248Zm8.655,9.83a12.687,12.687,0,0,1-.6,2.6,1.623,1.623,0,0,1-.365.572,0.8,0.8,0,0,1-.442.26h-4q-0.884,0-.884-0.65V36.008A21.661,21.661,0,0,0,361.8,34.8a15.9,15.9,0,0,0,3.667-2.092l-1.326-1.378a17.114,17.114,0,0,1-6.292,2.728V30.444h-1.976l0,8.32a1.972,1.972,0,0,0,.416,1.17,2.314,2.314,0,0,0,.975.806,2.631,2.631,0,0,0,1,.234h4.68a2.182,2.182,0,0,0,.988-0.234,1.775,1.775,0,0,0,.728-0.65,7.046,7.046,0,0,0,.741-1.521,17.514,17.514,0,0,0,.586-2.223ZM353.98,27.323l-9.386,0,0,13.988h1.976V36.135l5.434,0V38.58a0.775,0.775,0,0,1-.13.416,0.449,0.449,0,0,1-.312.234,6.59,6.59,0,0,1-1.664,0q-1.014-.1-1.066-0.1l0.728,2a17.952,17.952,0,0,0,2.808-.077,1.749,1.749,0,0,0,1.105-.689,2.263,2.263,0,0,0,.507-1.495ZM352,30.78l-5.434,0v-1.56l5.434,0v1.56Zm0,3.458-5.434,0v-1.56l5.434,0v1.56Zm34.161,0.087a19.4,19.4,0,0,0-1.533-3.25,22.83,22.83,0,0,0-2.261-3.095l-1.613,1.066a21.991,21.991,0,0,1,3.535,6.111Zm-3.481-11.831q0.1-.364.43-1.352t0.468-1.56q0.142-.572.221-1.014l-2.08-.469a24.347,24.347,0,0,1-3.9,10.009V22.883h-3.978a17.164,17.164,0,0,0,1.4-3.822l-1.872-.755a16.2,16.2,0,0,1-1.587,4.575H369.4l0,18.018h2.054V38.793h4.316v1.69h2.054l0-11.6,1.352,0.858a21.366,21.366,0,0,0,3.018-5.459h5.538q-0.106,4.576-.314,7.137t-0.547,4.381a16.513,16.513,0,0,1-.859,3.068,1,1,0,0,1-.988.468,19.314,19.314,0,0,1-3.926-1.093l0.337,2.184a25.637,25.637,0,0,0,3.419.807,4.561,4.561,0,0,0,1.209,0,2.043,2.043,0,0,0,1.222-.767,4.52,4.52,0,0,0,.781-1.391,25.926,25.926,0,0,0,.846-3.354q0.324-1.768.455-3.354t0.2-2.99q0.066-1.4.092-3.8T389.7,22.5Zm-6.918,7.3h-4.316l0-5.018h4.316Zm0,7.1h-4.316l0-5.2h4.316Zm39.6-12.651v-1.9l-9.516-.081,0.65-.442a6.819,6.819,0,0,0-1.611-2.171,13.972,13.972,0,0,0-2.262-1.756l-1.846,1.117a9.139,9.139,0,0,1,1.313.793,7.877,7.877,0,0,1,1.326,1.2,5.286,5.286,0,0,1,.9,1.339l-10.66,0v1.9l6.5,0q0,3.692-.158,5.3a14.427,14.427,0,0,1-1.21,4.849A9.5,9.5,0,0,1,396.3,37.6a12.986,12.986,0,0,1-3.927,2.157l1.352,1.872a13.367,13.367,0,0,0,3.458-1.9,10.229,10.229,0,0,0,2.2-2.248,13.471,13.471,0,0,0,1.119-1.911q0.351-.78.559-1.4t0.4-1.352q0.2-.728.508-2.184l7.644,0a35.435,35.435,0,0,1-.326,3.757,34.448,34.448,0,0,1-.69,3.653,1.171,1.171,0,0,1-1.4.858,26.813,26.813,0,0,1-4.368-1.223L403.218,40a31.375,31.375,0,0,0,3.8.794,8.681,8.681,0,0,0,1.2.065,1.08,1.08,0,0,0,.26-0.052,2.351,2.351,0,0,0,1.274-.637,2.741,2.741,0,0,0,.781-1.209,37.628,37.628,0,0,0,1.38-10.218l-9.776,0q0.157-2.7.158-4.5Zm23.387-2.672a8.091,8.091,0,0,0-4.419-2.653l-1.56,1.482a9.609,9.609,0,0,1,2.9,1.171,8.075,8.075,0,0,1,1.677,1.482Zm0.153,13.806a18.047,18.047,0,0,1-.443,3.224q-0.234.7-.572,0.6a7.8,7.8,0,0,1-2.106-2.523,20.592,20.592,0,0,1-1.585-3.627,27.425,27.425,0,0,1-1-4.03q-0.349-2.067-.48-3.887l7.28,0v-1.9l-7.488,0q-0.156-1.43-.311-5.018l-2.054.077q0.181,3.744.311,4.94l-12.168,0v1.9l12.35,0q0.441,3.588.974,6.071a23.1,23.1,0,0,0,1.584,4.784,15.915,15.915,0,0,0,2.742,4.148,4.95,4.95,0,0,0,1.378,1.105,2.191,2.191,0,0,0,1.027.273,1.587,1.587,0,0,0,.741-0.234,2.257,2.257,0,0,0,.624-0.6,18.386,18.386,0,0,0,1.2-4.446Zm-7.619,1.272-0.129-1.9-5.174,1.195V30.28h4.03v-1.9l-10.14,0v1.9h4.134l0,6.214-5.3,1.3,0.728,1.846ZM278.311,71.632V69.864l-7.982,0,0-9.75,6.656,0v-1.9l-6.656,0,0-8.424h-1.872l0,20.072-6.266,0v1.768ZM263.392,54a10.215,10.215,0,0,0-3.873-3.745l-1.534,1.066a7.834,7.834,0,0,1,2.066,1.639,8.792,8.792,0,0,1,1.6,2.288Zm2.752,13.209-0.051-2.054q-0.78.364-2.47,1.169t-2.393,1.117l0-11.206h-5.356v1.9h3.484l0,10.036a0.288,0.288,0,0,1-.156.234,2.189,2.189,0,0,1-.429.208q-0.273.1-.351,0.13l1.3,1.872Zm36.689-9.974V52.477l-8.788,0a9.017,9.017,0,0,0-1.559-2,9.259,9.259,0,0,0-1.742-1.379l-1.638,1.222a19.809,19.809,0,0,1,2.067,1.639,3.574,3.574,0,0,1,.4.52l-9.386,0v4.862h1.976V54.37l16.692,0v2.86h1.976Zm1.245,11.986a7.227,7.227,0,0,1-2.249-1.4,12.19,12.19,0,0,1-1.988-2.315,10.21,10.21,0,0,1-1.325-2.7,19,19,0,0,0,2.886-2.6L299.9,58.872a11.284,11.284,0,0,1-4.811,3.743,6.872,6.872,0,0,0-1.053-1.651A6.133,6.133,0,0,0,292.64,59.7q0.078-.052.612-0.351t1-.611a8.541,8.541,0,0,0,.884-0.676h4.784v-1.9l-14.664,0v1.9l6.526,0.028a26.855,26.855,0,0,1-9.465,2.935l1.352,1.716a22.68,22.68,0,0,0,7.046-2.052,7.846,7.846,0,0,1,1.3.884A17.186,17.186,0,0,1,289.6,63a18.338,18.338,0,0,1-3.446,1.26,37.351,37.351,0,0,1-4.329.87l1.378,1.69a19.6,19.6,0,0,0,5.265-1.273,24.169,24.169,0,0,0,4.616-2.495,10.879,10.879,0,0,1,.7,1.508,17.175,17.175,0,0,1-5.461,3.157,35.87,35.87,0,0,1-7.02,1.7l1.429,1.794a41.86,41.86,0,0,0,4.33-1.052,26.925,26.925,0,0,0,3.952-1.52,14.389,14.389,0,0,0,3.186-2.053,21.817,21.817,0,0,1-.105,3.484,1.136,1.136,0,0,1-.286.494,1.439,1.439,0,0,1-.469.364,8.709,8.709,0,0,1-1.9-.169,21.758,21.758,0,0,1-2.469-.664l0.805,2.314q3.354,0.625,4.55.183a2.244,2.244,0,0,0,1.157-.9,5.035,5.035,0,0,0,.612-2.249,15.046,15.046,0,0,0-.012-2.561,19.354,19.354,0,0,0-.377-2.561l1.248-.52a15.6,15.6,0,0,0,1.066,2.327,12.709,12.709,0,0,0,1.988,2.666,8.088,8.088,0,0,0,2.768,1.951Zm24.78,0.371a17.329,17.329,0,0,1-4.12-2.822,9.924,9.924,0,0,1-2.378-3.706h4.966v-1.9l-6.812,0v-2.08H325.4l0-8.4-11.986,0,0,8.4h5.122v2.08l-6.942,0v1.9l5.3,0a16.364,16.364,0,0,1-1.925,3.106,12.263,12.263,0,0,1-2.21,2.235,11.378,11.378,0,0,1-1.925,1.208l1.456,1.508a12.42,12.42,0,0,0,2.405-1.728,15.65,15.65,0,0,0,2.315-2.625,11.436,11.436,0,0,0,1.522-2.795l0,8.918h1.976l0.054-9.256a13.5,13.5,0,0,0,6.758,7.412ZM310.612,49.437a20.622,20.622,0,0,1-1.965,6.408,21.822,21.822,0,0,1-3.966,5.472l1.455,1.4,0.546-.546q0.39-.39,2.055-2.521l0,13.312h1.976l0-16.744a23.761,23.761,0,0,0,1-2.886,27.09,27.09,0,0,0,.69-3.094Zm12.816,7.751-8.034,0v-4.6l8.034,0v4.6ZM353.548,60v-1.9l-6.344,0V54.933h4.914v-1.9h-4.914v-3.64h-1.976v3.64h-5.044v1.9h5.044V58.1l-6.006,0V60Zm0.155,4.524v-1.9h-3.848V60.654H347.88v1.976l-9.126,0v1.9l9.126,0,0,5.876a0.691,0.691,0,0,1-.52.442,24.685,24.685,0,0,1-2.964-.131,15.953,15.953,0,0,0,.754,2.028h2.626a2.633,2.633,0,0,0,1.495-.637,2.155,2.155,0,0,0,.585-1.287l0-6.292H353.7Zm-8.087,3.846a16.745,16.745,0,0,0-4.7-3.121l-1.3,1.43a17.886,17.886,0,0,1,4.679,3.147Zm-6.107-11.91v-1.9h-3.146l0-5.174h-1.976l0,5.174h-3.562v1.9h3.562l0,5.486q-0.676.26-2.353,0.792t-1.859.584l1.3,1.638a15.129,15.129,0,0,0,1.508-.481,14.241,14.241,0,0,0,1.4-.585l0,6.266a0.722,0.722,0,0,1-.26.6,2.717,2.717,0,0,1-.845.143,11.218,11.218,0,0,1-1.157-.039q-0.676-.052-0.936-0.052l0.624,1.924h2.418a2.919,2.919,0,0,0,1.092-.208,1.491,1.491,0,0,0,.78-0.689,2.237,2.237,0,0,0,.26-1.079l0-7.488,2.99-1.117V60.053l-2.99,1.221v-4.81h3.146Zm36.713,4.69,0-10.01-12.22,0,0,10.01Zm-12.764-6.789a5.638,5.638,0,0,0-.936-1.222,8.948,8.948,0,0,0-1.65-1.313,14.179,14.179,0,0,0-1.963-1.054l-1.4,1.274a9.617,9.617,0,0,1,4.393,3.771Zm15.829,17.84v-1.9h-1.742l0-7.592-14.872,0,0,7.592h-1.69v1.9ZM362,59.409a11.783,11.783,0,0,0-2.288-2.12,9.15,9.15,0,0,0-2.677-1.314l-1.327,1.378a14.773,14.773,0,0,1,2.743,1.5,8.544,8.544,0,0,1,2.014,2.016Zm-1.795,2.418a25,25,0,0,1-1.691,5.316,15.222,15.222,0,0,1-2.758,4.484l1.924,1.04a14.824,14.824,0,0,0,2.523-4.315,28.062,28.062,0,0,0,1.692-5.693Zm14.042-6.7-8.268,0V53.04l8.268,0v2.08Zm0,4.134-8.268,0V57.018l8.268,0v2.236Zm1.323,11.05h-2.34V64.612h2.34v5.694Zm-4.316,0H368.94V64.611h2.314v5.694Zm-4.29,0H364.65V64.61h2.314V70.3Zm33.2-18.113a12.937,12.937,0,0,1-1.457,3.952l1.82,0.806a11.6,11.6,0,0,0,1.353-4.264Zm1.327-2.678a29.771,29.771,0,0,1-4.98,1.143,71.741,71.741,0,0,1-8.177.6l0.884,1.872a37.724,37.724,0,0,0,5.031-.324,51.084,51.084,0,0,0,5.4-.856,14.785,14.785,0,0,0,3.146-1Zm-3.668,6.681a9.621,9.621,0,0,0-1.949-3.329l-1.9.545a11.751,11.751,0,0,1,1.4,1.989,7.165,7.165,0,0,1,.572,1.5Zm6.21,14.692a17.763,17.763,0,0,1-3.211-.625,8.6,8.6,0,0,1-2.717-1.2,12.538,12.538,0,0,0,1.86-1.819,11.973,11.973,0,0,0,1.522-2.261V63.19l-8.216,0a3.755,3.755,0,0,0,.2-0.559,3.959,3.959,0,0,1,.169-0.507l9.568,0v-1.9l-9.334,0,0.39-1.17,7.982,0v-1.9l-9.984-.029,1.352-.676a6.82,6.82,0,0,0-1.144-1.872,6.315,6.315,0,0,0-1.507-1.378l-1.638.832a8.064,8.064,0,0,1,2.417,3.121h-1.794v1.9h2.392a4.974,4.974,0,0,1-.364,1.17h-2.99v1.9h2.522a10.7,10.7,0,0,1-1.079,2.548,14.221,14.221,0,0,1-3.212,3.9l1.9,1.014a19.712,19.712,0,0,0,3.121-4.159,16.721,16.721,0,0,0,1.2,1.9,13.4,13.4,0,0,0,1.378,1.664,19.406,19.406,0,0,1-6.215,2.026l1.065,1.82a17.232,17.232,0,0,0,3.641-1.013,21.472,21.472,0,0,0,3.068-1.585,16.75,16.75,0,0,0,6.473,2.5ZM388.308,67.4l0-15.7-6.24,0,0,18.044h1.976V67.4h4.264Zm10.947-2.311a12,12,0,0,1-1.47,1.755,8.723,8.723,0,0,1-1.313,1.079,6.692,6.692,0,0,1-1.1-1.209,18.267,18.267,0,0,1-1.13-1.625h5.018Zm-12.921-6.633h-2.288l0-4.862h2.288Zm0,7.046h-2.288l0-5.252h2.288Zm40.45-14.861-9.672,0,0,9.854a20.431,20.431,0,0,1-.482,5.057A8.482,8.482,0,0,1,415.1,68.64a14.853,14.853,0,0,1-2.939,2.69l1.456,1.456a13.422,13.422,0,0,0,2.978-2.716,11.688,11.688,0,0,0,1.691-2.846,10.164,10.164,0,0,0,.689-2.86l5.824,0v5.252a0.531,0.531,0,0,1-.195.39,0.926,0.926,0,0,1-.4.234,2.638,2.638,0,0,1-.793.052q-0.507-.026-2.067-0.157l0.649,2.028q0.7-.026,2.808.027a2.018,2.018,0,0,0,.988-0.455,2.762,2.762,0,0,0,.755-0.832,1.562,1.562,0,0,0,.234-0.689ZM414.948,66.5l0-14.274-7.93,0,0,14.976h1.976V65.558h3.978v0.936h1.976Zm9.857-10.059-5.72,0v-3.9l5.72,0v3.9Zm0,6.032-5.72,0V58.332l5.72,0v4.134ZM412.87,57.733H409V54.118h3.874v3.614Zm0.1,5.928H409V59.63h3.978v4.03Zm38.347-9.974v-1.9l-8.528,0a11.077,11.077,0,0,0-1.742-2.574l-2.21,1.039a4.3,4.3,0,0,1,1.716,1.534l-8.45,0v1.9Zm-3.486,5.979,0-5.174-12.22,0,0,5.174Zm4.419,5.669V60.447l-21.138-.006v4.888h1.976V62.34l17.186,0v2.99h1.976Zm-1.535,1.534a10.533,10.533,0,0,1-.273,1.963,2.094,2.094,0,0,1-.325.624,1.115,1.115,0,0,1-.429.325,1.726,1.726,0,0,1-.481.13h-3.094a0.425,0.425,0,0,1-.455-0.156,1.11,1.11,0,0,1-.039-0.26V63.357l-8.294,0v3.25a4.227,4.227,0,0,1-.69,1.807,2.445,2.445,0,0,1-1.313,1,13.109,13.109,0,0,1-5.1,1.273l0.962,2.028a20.862,20.862,0,0,0,5.148-1.637,5.034,5.034,0,0,0,2.042-1.7,5.287,5.287,0,0,0,.923-2.431v-1.69h4.342v4.758a1.651,1.651,0,0,0,.246.819,1.8,1.8,0,0,0,.819.7,2.686,2.686,0,0,0,1.17.273h4.16a1.976,1.976,0,0,0,1.014-.416,3.058,3.058,0,0,0,.728-0.9,8.5,8.5,0,0,0,.638-1.651q0.325-1.092.351-1.2Zm-4.859-9.1-8.268,0V56.387l8.268,0v1.378Z"/>
</svg>
