<svg xmlns="http://www.w3.org/2000/svg" width="728" height="90" viewBox="0 0 728 90">
  <defs>
    <style>
      .cls-1 {
        fill: #4b286d;
        fill-rule: evenodd;
      }
    </style>
  </defs>
  <path id="_直播电视" data-name=" + 直播电视" class="cls-1" d="M286.642,42.327h-7.709V34.618h-3.25v7.709h-7.751v3h7.751v7.709h3.25V45.328h7.709v-3Zm48.872,17.752V57.038H328.1V33.371h-9.291a18.648,18.648,0,0,0,1.041-2.833h13.667V27.5H320.556l0.333-2.542-3.375-.875a16.376,16.376,0,0,1-.375,3.417H301.931v3.042h14.541a17.537,17.537,0,0,1-1.208,2.833h-8.25V57.038h-7.542v3.042h36.042ZM324.931,39.454h-14.75V36.413h14.75v3.042Zm0,5.708h-14.75V42.2h14.75v2.958Zm0,5.875h-14.75v-3h14.75v3Zm0,6h-14.75V54.079h14.75v2.958Zm45.3-28.5A9.783,9.783,0,0,1,368.668,31a13.954,13.954,0,0,1-2.062,2.083l2.5,1.375a9.127,9.127,0,0,0,2.25-2.187,11.192,11.192,0,0,0,1.291-2.187Zm7.333,15.833a25.714,25.714,0,0,1-5.021-3.083,15.028,15.028,0,0,1-3.437-3.625h6.333V34.621H364.814V28.663a41.634,41.634,0,0,0,10.208-2.375l-2.583-2.167A48.167,48.167,0,0,1,363.231,26a99.749,99.749,0,0,1-11.5.75l1.458,2.917a19.92,19.92,0,0,1,2.125-.042L353.4,30.7a9.963,9.963,0,0,1,3.459,3.917h-5.75v3.042h7.541a14.973,14.973,0,0,1-3.937,3.958,22.9,22.9,0,0,1-5.521,2.875l1.875,2.708,2.875-1.5v15.75h3.167V58.788h12.75v2.667h2.958V45.288a12.8,12.8,0,0,0,2.5,1.583ZM351.814,42.5V39.2l-4.083,1.917V34.5h4.083V31.454h-4.083V24.288h-3.167v7.167h-5V34.5h5v7.958q-2.5,1.209-6.25,2.75l2.042,2.583q0.582-.25,1.271-0.562t1.687-.833q1-.521,1.25-0.646V57.079a1.51,1.51,0,0,1-.167.813,0.728,0.728,0,0,1-.541.479,6.086,6.086,0,0,1-1.584.125q-0.792-.041-2.208-0.167l1.167,3.167a13.929,13.929,0,0,0,4.333-.208,2.64,2.64,0,0,0,1.521-1.1,3.137,3.137,0,0,0,.646-1.854V44.538Zm9.833-7.875-3.458-.042,1.667-.708a17.132,17.132,0,0,0-1.5-2.417,13.665,13.665,0,0,0-1.792-2.042,44.86,44.86,0,0,0,5.083-.333v5.542Zm-5.791,9.833a15.655,15.655,0,0,0,5.791-5.958v5.458h3.167V37.663h0.833a17.182,17.182,0,0,0,6.209,6.833Zm14,5.75h-4.875V47.538h4.875V50.2Zm0,5.542h-4.875V53.079h4.875v2.667ZM361.814,50.2h-4.708V47.538h4.708V50.2Zm0,5.542h-4.708V53.079h4.708v2.667Zm51.717-4.792-0.167,3.25q-0.166,2.542-1.25,2.875H399.572a0.964,0.964,0,0,1-1.166-1V51.038h12.625V30.7H398.406V24.329h-3.167V30.7H382.906V51.038h12.333v4.792q0,4.125,3.417,4.125h13.666l1.209-.125q2.958-.292,2.958-7.458ZM407.864,39.2h-9.458V33.788h9.458V39.2Zm0,8.833h-9.458V42.246h9.458v5.792ZM395.239,39.2h-9.333V33.788h9.333V39.2Zm0,8.833h-9.333V42.246h9.333v5.792Zm57.383,1.792V26.246h-18V49.829h3.167V29.288h11.667V49.829h3.166ZM429.039,29.454a11.115,11.115,0,0,0-2.1-2.9,10.046,10.046,0,0,0-2.688-1.979L422,26.329a12.054,12.054,0,0,1,4.625,4.875ZM453.206,53.2l-0.584,3.208a0.745,0.745,0,0,1-.25.438,0.669,0.669,0,0,1-.458.188h-4.833a0.613,0.613,0,0,1-.459-0.229,0.706,0.706,0,0,1-.208-0.479V44.413H444.5l0.167-2.625V31.746h-3V41.2a31.949,31.949,0,0,1-.375,4.375,12.989,12.989,0,0,1-1.875,5.188,19.439,19.439,0,0,1-4.146,4.708,22.3,22.3,0,0,1-5.979,3.563l2.083,2.583a20.957,20.957,0,0,0,7.5-4.958,19.477,19.477,0,0,0,4.375-6.708v6.875a3.385,3.385,0,0,0,.813,2.333,2.982,2.982,0,0,0,2.354.917h6.458a2.184,2.184,0,0,0,1.438-.5,3.081,3.081,0,0,0,.917-1.437,15.471,15.471,0,0,0,.52-2.062q0.209-1.125.209-1.167Zm-19.125-4.542a16.316,16.316,0,0,0-1.563-3.187,12.111,12.111,0,0,0-2.187-2.729l-2.042,1.917a16.014,16.014,0,0,1,1.938,2.792,29.909,29.909,0,0,1,1.6,3.292Zm-14.5-16.917v3.042h9.375a16.732,16.732,0,0,1-2.542,5.479,21.273,21.273,0,0,1-4.1,4.479,28.281,28.281,0,0,1-4.1,2.833l1.875,2.625a43.327,43.327,0,0,0,4.541-3.333V61.663h3.167V43.371a27.161,27.161,0,0,0,5.042-11.625h-13.25Z"/>
</svg>
