<svg id="Frame_2" data-name="Frame 2" xmlns="http://www.w3.org/2000/svg" width="728" height="90" viewBox="0 0 728 90">
  <defs>
    <style>
      .cls-1 {
        fill: #fff;
        fill-rule: evenodd;
      }
    </style>
  </defs>
  <path id="通过手机自动化管理_室温_灯光和电器" data-name="通过手机自动化管理 室温、灯光和电器" class="cls-1" d="M273.1,24.077h-5.174l-0.546-.286a19.5,19.5,0,0,0,5.252-2.86V19.293h-14.4v1.794l10.764,0.078q-0.078.026-1.092,0.52a12.22,12.22,0,0,1-1.6.676q-0.585.182-.793,0.234a14.64,14.64,0,0,0-2.808-1.17l-1.482,1.534q1.535,0.468,3.276,1.118h-5.564V37.363H260.8V33.151h4.238v3.64h1.872v-3.64h4.212v2.132a0.5,0.5,0,0,1-.312.6,11.744,11.744,0,0,1-2.652.026l0.65,1.846q0.26-.026,1.17-0.013a7.835,7.835,0,0,0,1.352-.065,1.994,1.994,0,0,0,.728-0.26,2.222,2.222,0,0,0,.832-0.728,1.5,1.5,0,0,0,.208-0.754V24.077Zm-16.016-.884a14.944,14.944,0,0,0-1.833-2.743,14.409,14.409,0,0,0-1.833-1.859l-1.456,1.066a12.232,12.232,0,0,1,1.963,2.158,14.088,14.088,0,0,1,1.469,2.5Zm17.6,15.236-5.538.312q-0.572.026-1.508,0.039t-4.94-.143a8.1,8.1,0,0,1-3.107-.715,7.718,7.718,0,0,1-2.509-1.781V26.313h-5.434v1.794h3.458v8.06q-3.2,2.652-4.368,3.484l1.482,1.56q0.286-.234,1.664-1.469t2.262-1.885a9.167,9.167,0,0,0,2.015,1.716,7.108,7.108,0,0,0,2.184.741,16.214,16.214,0,0,0,2.977.247h10.582Zm-3.562-10.764h-4.212V25.871h4.212v1.794Zm0,3.692h-4.212V29.563h4.212v1.794Zm-6.084-3.692H260.8V25.871h4.238v1.794Zm0,3.692H260.8V29.563h4.238v1.794Zm34.494-6.526V23.037h-3.146V18.331h-1.976v4.706h-9.854v1.794h9.854v11.1a0.594,0.594,0,0,1-.26.286,19.72,19.72,0,0,1-2.652-.156l0.7,2.054h1.417a5.576,5.576,0,0,0,.741-0.052,6.187,6.187,0,0,0,.78-0.156,2.021,2.021,0,0,0,.832-0.767,3.15,3.15,0,0,0,.416-1V24.831h3.146Zm-15.86-1.482a17.15,17.15,0,0,0-4.108-4.6l-1.534,1.04a18.659,18.659,0,0,1,4.056,4.81Zm9,8.892a17.464,17.464,0,0,0-2.249-2.782,21.165,21.165,0,0,0-2.743-2.34l-1.508,1.3a19.789,19.789,0,0,1,4.966,5.044Zm7.358,6.11-2.652.182-4,.1-4.576-.1a6.324,6.324,0,0,1-2.158-.429,6.6,6.6,0,0,1-1.9-1.131,6.459,6.459,0,0,1-1.248-1.326v-8.97h-6.266v1.9h4.42v7.332a59.146,59.146,0,0,1-4.94,3.744l1.3,1.508q0.883-.65,2.691-2.119t1.885-1.521a7.908,7.908,0,0,0,2.743,2.054,8.461,8.461,0,0,0,3.419.754L299.3,40.405Zm23.192-5.044v-1.9h-9.568V27.457h7.436v-1.9h-7.436V21.711a36.077,36.077,0,0,0,8.424-2.054l-1.092-1.482a39.265,39.265,0,0,1-8.658,1.794,75.439,75.439,0,0,1-9.906.468l1.17,1.924q5.98-.156,8.086-0.416v3.614h-7.826v1.9h7.826v3.952h-9.984v1.9h9.984v5.46a0.834,0.834,0,0,1-.91.91q-0.677.026-3.276-.208l0.728,2.132h3.588q1.846,0,1.846-2.08V33.307h9.568Zm24.94,1.352q-0.027.156-.169,1.105t-0.286,1.56a3.969,3.969,0,0,1-.351.988,0.592,0.592,0,0,1-.494.377h-0.832q-0.468,0-.468-0.338V19.5h-8.008V32.917a7.549,7.549,0,0,1-1.04,3.848,15.133,15.133,0,0,1-2.912,3.51l1.768,1.456a13.99,13.99,0,0,0,3.055-4.069,10.1,10.1,0,0,0,1.105-4.485v-11.8h4.056v17.6a1.607,1.607,0,0,0,.221.806,1.352,1.352,0,0,0,.715.585,2.67,2.67,0,0,0,.988.2h1.768a1.885,1.885,0,0,0,1.118-.351,1.772,1.772,0,0,0,.676-0.9,30.3,30.3,0,0,0,.91-3.432ZM336.487,31.8a11.33,11.33,0,0,0-2.886-4.576l-0.806.494V25.143h3.588V23.271H332.8v-4.94h-2.054v4.94h-3.926v1.872h3.744a19.1,19.1,0,0,1-1.079,3.393,16.876,16.876,0,0,1-1.677,3.133,15.986,15.986,0,0,1-1.768,2.184l1.534,1.326a16.058,16.058,0,0,0,1.924-2.379,16.867,16.867,0,0,0,1.248-2.171V41.5H332.8l0.078-12.168a10.594,10.594,0,0,1,1.092,1.846,10.441,10.441,0,0,1,.65,1.794Zm33.6,9.776V21.893h-7.436a17.483,17.483,0,0,0,1.846-3.25l-1.846-.988a29.368,29.368,0,0,1-1.677,2.9q-0.612.871-1,1.339h-6.006V41.575h2.054V39.443h11.908v2.08Zm-2.158-14.69H356.023V23.791h11.908v3.094Zm0,5.2H356.023v-3.3h11.908v3.3Zm0,5.382H356.023V33.983h11.908v3.484ZM384.462,22.7V20.905h-9.256V22.7h9.256Zm5.98,1.56V18.2l-1.976.026v6.032h-2.73v1.794h2.73v2.054a15.57,15.57,0,0,1-.338,3.25,17.387,17.387,0,0,1-.845,2.847,4.585,4.585,0,0,1-.871,1.573,9.179,9.179,0,0,0-1.5-2.171,19.914,19.914,0,0,0-2.093-2.093l-1.43,1.014a9.817,9.817,0,0,1,1.3,1.274l-5.356,1.456a33.6,33.6,0,0,0,3.718-7.228h4.472v-1.9H374.192v1.9h4.68a23.773,23.773,0,0,1-1.963,4.485,12.256,12.256,0,0,1-2.4,3.419l1.352,1.976q2.886-1.04,7.956-2.444a8.076,8.076,0,0,1,1.17,1.794,7.893,7.893,0,0,1-1.6,1.378,15.271,15.271,0,0,1-1.859,1.092l1.508,1.664a13.563,13.563,0,0,0,3.991-3.029,12.513,12.513,0,0,0,2.574-4.745,25.687,25.687,0,0,0,.871-7.566h3.25q-0.183,3.406-.52,6.409t-0.65,4.875a4.747,4.747,0,0,0-.195.728,2.218,2.218,0,0,1-.273.767,0.77,0.77,0,0,1-.39.3,4.737,4.737,0,0,1-1.534-.052q-0.988-.156-1.378-0.208l0.624,2q0.182,0.026,1.04.13a5.722,5.722,0,0,0,1.352.039,3.246,3.246,0,0,0,.806-0.2,6.181,6.181,0,0,0,.663-0.364,2.757,2.757,0,0,0,.78-0.858,7.062,7.062,0,0,0,.663-2.522q0.312-2.366.624-5.941t0.494-6.9h-5.382Zm29.172,10.01a20.125,20.125,0,0,1-.832,3.588,0.98,0.98,0,0,1-.442.52,1.323,1.323,0,0,1-.7.208h-4.056a1.7,1.7,0,0,1-1.066-.286,0.937,0.937,0,0,1-.364-0.78V32.007a29.812,29.812,0,0,0,7.982-7.15l-1.716-1.17a33.354,33.354,0,0,1-2.847,3.172,27.252,27.252,0,0,1-3.419,2.782V18.981h-1.976V30.733a22.392,22.392,0,0,1-1.989,1.053q-1.08.507-3.055,1.313V25.585a42.009,42.009,0,0,0,2.392-6.266l-1.742-.832a44.416,44.416,0,0,1-1.924,4.823,24.165,24.165,0,0,1-2.223,3.77,18.3,18.3,0,0,1-2.9,3.133l1.794,1.352a10.259,10.259,0,0,0,1.339-1.248,17.191,17.191,0,0,0,1.235-1.508l0.052-.364v13.26h1.976V33.983L406.094,35a24.248,24.248,0,0,0,4.082-2v4.862a2.375,2.375,0,0,0,.52,1.482,2.745,2.745,0,0,0,1.209.936,3.554,3.554,0,0,0,1.235.26H418a4.192,4.192,0,0,0,1.261-.338,2.556,2.556,0,0,0,.819-0.624,8.283,8.283,0,0,0,.689-1.261A15.651,15.651,0,0,0,421.564,35ZM445.879,22V20.1h-7.1a7.424,7.424,0,0,0,.364-1.508l-1.742-.65a11.584,11.584,0,0,1-.949,2.652,10.19,10.19,0,0,1-1.625,2.288L436.363,24a8.215,8.215,0,0,0,1.56-2h1.716a8.412,8.412,0,0,1,1.69,2.47,10.486,10.486,0,0,0,1.768-.91A6.984,6.984,0,0,0,441.9,22h3.978Zm-0.546,7.644V24.753h-9.308c-0.018-.035-0.091-0.152-0.221-0.351s-0.265-.394-0.4-0.585-0.278-.381-0.416-0.572a5.26,5.26,0,0,0-.4-0.494c-0.13-.139-0.239-0.251-0.325-0.338l-1.872.6a8.382,8.382,0,0,1,1.482,1.742h-9.542v5.07H426.3V26.651h17.056v2.99h1.976ZM435.271,22.1V20.2h-6.734l0.65-1.4-1.69-.806a14.529,14.529,0,0,1-2.093,3.432,10.383,10.383,0,0,1-2.145,1.9l1.482,1.4a10.951,10.951,0,0,0,2.73-2.626h1.508a9.231,9.231,0,0,1,1.482,2.5l1.768-.962a9.651,9.651,0,0,1-.546-0.923q-0.312-.585-0.338-0.611h3.926Zm7.644,19.422V34.555H429.733V33.281h12.038V27.925H427.757V41.6h1.976V39.989h11.206v1.534h1.976Zm-3.12-10.14H429.733v-1.56H439.8v1.56Zm1.144,6.812H429.733V36.453h11.206V38.2Zm30.638,2.054v-1.9h-6.942V35.387h5.174v-1.9h-5.174V31.045h5.356V19.683H457.277V31.045h5.382v2.444h-5.2v1.9h5.2v2.964H455.8v1.9h15.782Zm-14.586-5.1V33.2l-3.172,1.274V29.251h2.574v-1.9h-2.574v-5.07h2.938v-1.9H448.7v1.9h3.146v5.07h-2.626v1.9h2.626v5.98q-2.912,1.092-3.926,1.378,0.416,0.416,1.053.975t0.663,0.585Zm11.1-13.572-0.052,2.73h-3.406v-2.73h3.458Zm-0.078,7.566h-3.38V26.209h3.38v2.938Zm-5.356-4.836h-3.406v-2.73h3.406v2.73Zm0,4.836h-3.406V26.209h3.406v2.938ZM289.385,57.669V51.637h-8.892a8.246,8.246,0,0,0-2.366-2.522l-1.9,1.066a10.954,10.954,0,0,1,2,1.456H268.9v6.188h1.976v-4.29h16.536v4.134h1.976Zm-1.248,4.914a13.3,13.3,0,0,0-2.184-2.392,12.535,12.535,0,0,0-2.626-1.872l-1.69,1.17,1.586,1.014-8.476.65a12.587,12.587,0,0,0,2.119-1.742,22.37,22.37,0,0,0,2.119-2.418h7.254V55.1H272.121v1.9h4.238a17.362,17.362,0,0,1-2.509,2.561,16.321,16.321,0,0,1-3.133,2.093l1.248,1.95q1.716-.286,6.6-0.78t5.447-.546q0.558-.052,1.157-0.13,0.1,0.13.481,0.533t0.559,0.624q0.181,0.221.286,0.351Zm1.638,8.892v-1.9h-9.568v-2.34H287.8v-1.9h-7.566l-0.052-2h-1.95v2h-7.618v1.9h7.618v2.34h-9.62v1.9h21.164ZM312.9,61.1V51.091h-12.22V61.1H312.9Zm-12.766-6.786a5.634,5.634,0,0,0-.936-1.222,8.981,8.981,0,0,0-1.651-1.313,14.151,14.151,0,0,0-1.963-1.053L294.182,52a9.616,9.616,0,0,1,4.394,3.77ZM315.97,72.151v-1.9h-1.742V62.661H299.356v7.592h-1.69v1.9h18.3ZM298.68,59.359a11.777,11.777,0,0,0-2.288-2.119,9.162,9.162,0,0,0-2.678-1.313l-1.326,1.378a14.8,14.8,0,0,1,2.743,1.5,8.564,8.564,0,0,1,2.015,2.015Zm-1.794,2.418a25,25,0,0,1-1.69,5.317,15.227,15.227,0,0,1-2.756,4.485l1.924,1.04a14.829,14.829,0,0,0,2.522-4.316,28.061,28.061,0,0,0,1.69-5.694Zm14.04-6.708h-8.268v-2.08h8.268v2.08Zm0,4.134h-8.268V56.967h8.268V59.2Zm1.326,11.05h-2.34V64.559h2.34v5.694Zm-4.316,0h-2.314V64.559h2.314v5.694Zm-4.29,0h-2.314V64.559h2.314v5.694Zm23.08-8.32a21.474,21.474,0,0,0-3.562-3.328l-1.456,1.456q0.416,0.364,1.157,1.131a15.518,15.518,0,0,1,1.274,1.482q0.533,0.715.741,1.053Zm29.648-8.762V51.2H341.788v1.976h6.526V69.837q0,1.092-.754,1.014-1.638-.156-3.068-0.182l0.624,2.106h3.328a1.875,1.875,0,0,0,.91-0.26,2.067,2.067,0,0,0,.793-0.871,2.567,2.567,0,0,0,.325-1.209V53.171h5.9Zm-21.814,1.69a8.735,8.735,0,0,1-.221,2.99,9.71,9.71,0,0,1-1.183,2.886l2.08,0.7a6.572,6.572,0,0,0,.884-2.067,12.9,12.9,0,0,0,.442-2.457,11.894,11.894,0,0,0,.026-1.716Zm8.918,13.39a10.782,10.782,0,0,0-4.264-4.056q0.129-1.378.13-4.94a11.148,11.148,0,0,0,3.38-3.068l-1.508-1.534q-0.911,1.3-1.235,1.69a3.408,3.408,0,0,1-.663.624v-7.1h-2.054v8.97q0,2.756-.156,4.784a13.2,13.2,0,0,1-1.144,4.693,11.29,11.29,0,0,1-2.7,3.549l1.872,1.534a14.611,14.611,0,0,0,2.535-3.354,11.674,11.674,0,0,0,1.287-3.64,5.09,5.09,0,0,1,1.69,1.443A8.741,8.741,0,0,1,341.71,69.6Zm33.7-17.03a13.145,13.145,0,0,1-2.314,3.627,26.187,26.187,0,0,1-2.028,2.041l1.586,1.248a23.55,23.55,0,0,0,2.639-2.86,16.951,16.951,0,0,0,1.833-3.016Zm2.587,15.067a9.586,9.586,0,0,0-1.1-.351,8.084,8.084,0,0,1-.208,1.95,5.412,5.412,0,0,1-.429,1.339,0.621,0.621,0,0,1-.4.351H373.7a0.5,0.5,0,0,1-.364-0.156,0.472,0.472,0,0,1-.156-0.338V61.127h6.63V59.151h-9.126V49.4h-1.976v9.75h-8.84l0.052,1.976h6.526a11.512,11.512,0,0,1-.832,4.628,7.211,7.211,0,0,1-2.522,2.9,16.974,16.974,0,0,1-4.836,2.119,11.552,11.552,0,0,1,.728,1.053q0.415,0.663.546,0.845A15.623,15.623,0,0,0,363.31,70.9a13.832,13.832,0,0,0,2.925-2.483,8.471,8.471,0,0,0,1.716-2.951,9.728,9.728,0,0,0,.4-2q0.143-1.248.169-2.34H371.2v8.528a1.714,1.714,0,0,0,.624,1.365,2.733,2.733,0,0,0,1.82.533h3.666a3.445,3.445,0,0,0,1.534-.26,1.81,1.81,0,0,0,.78-0.858,18.155,18.155,0,0,0,1.092-3.822Q380.431,66.535,379.768,66.288Zm-13.455-9.373a20.957,20.957,0,0,0-4.654-5.46l-1.794,1.092a12.258,12.258,0,0,1,2.769,2.535,15.39,15.39,0,0,1,1.963,3Zm38.974,14.378v-19.5h-8.112v19.5h1.976v-2.6h4.16v2.6h1.976Zm-8.372-6.422a9.757,9.757,0,0,0-1.2-2.093,12.939,12.939,0,0,0-1.625-1.9,8.488,8.488,0,0,0-1.313-1.053l-0.7.494V58.449h4.42v-1.9h-4.42V52.833a23.957,23.957,0,0,0,2.431-.871,12.051,12.051,0,0,0,1.651-.793l-1.2-1.482A18.3,18.3,0,0,1,390.35,51.3a43.408,43.408,0,0,1-5.733.754l0.806,1.794a16.3,16.3,0,0,0,1.716-.143q0.858-.117,1.768-0.247t1.2-.182v3.276h-5.07v1.9H390a15.322,15.322,0,0,1-2.47,4.55,22.606,22.606,0,0,1-4.108,4.134l1.82,1.326a29.458,29.458,0,0,0,2.275-2.262,20.914,20.914,0,0,0,1.7-2.106,10.451,10.451,0,0,0,.884-1.482V72.853h1.976V61.673a10.841,10.841,0,0,1,3.2,4.394Zm6.4,1.924h-4.16v-13.1h4.16V66.8Zm25.922-.572-0.1,2.028q-0.1,1.586-.78,1.794h-7.826a0.6,0.6,0,0,1-.728-0.624V66.275h7.878V53.587H419.8V49.609h-1.976v3.978h-7.7V66.275h7.7v2.99q0,2.574,2.132,2.574h8.528l0.754-.078q1.846-.182,1.846-4.654ZM425.7,58.891h-5.9v-3.38h5.9v3.38Zm0,5.512h-5.9V60.789h5.9V64.4Zm-7.878-5.512H412v-3.38h5.824v3.38Zm0,5.512H412V60.789h5.824V64.4Zm33.73-2.015a13.387,13.387,0,0,1-3.237-.793,4.977,4.977,0,0,1-1.625-.988h7.93v-1.9H450.8a8.807,8.807,0,0,0-1.768-1.586h4.68V50.675h-8.684v6.448l3.12,0.052-1.482.728q0.649,0.26,1.17.507a4.054,4.054,0,0,1,.572.3h-3.874a6.622,6.622,0,0,0,.416-1.924l-1.872-.39a6.569,6.569,0,0,1-.572,2.314h-9.1v1.9h7.514v0.1q-2.886,1.794-8.632,1.924l0.676,1.976a36.463,36.463,0,0,0,5.317-.728,10.579,10.579,0,0,0,3.133-1.274,7.829,7.829,0,0,0,2.184-2h0.546a5.367,5.367,0,0,0,1.2,1.378,6.6,6.6,0,0,0,1.612,1.092,20.312,20.312,0,0,0,3.5,1.027,21.675,21.675,0,0,0,4.459.559,11.006,11.006,0,0,0,.546-1.079q0.312-.689.416-0.923A28,28,0,0,1,451.549,62.388Zm-8.58-5.265V50.779h-8.71v6.344h8.71Zm10.5,15.678V64.689H445.1V72.8h1.976V71.189h4.342V72.8h2.054Zm-10.5,0V64.689h-8.476V72.8h2.054V71.293h4.368V72.8h2.054Zm8.684-17.576H447V52.677h4.654v2.548Zm-10.738,0h-4.68V52.677h4.68v2.548Zm10.5,14.092h-4.342v-2.73h4.342v2.73Zm-10.5,0h-4.368v-2.73h4.368v2.73Z"/>
</svg>
