<svg xmlns="http://www.w3.org/2000/svg" width="728" height="90" viewBox="0 0 728 90">
  <defs>
    <style>
      .cls-1 {
        fill: #4b286d;
        fill-rule: evenodd;
      }
    </style>
  </defs>
  <path id="_" data-name="$" class="cls-1" d="M346.517,35.22c0-4.962-3.183-6.616-8.446-7.535l-1.1-.184V20.274c2.938,0.245,4.162,1.654,4.285,3.8h4.406c-0.245-4.472-3.182-7.228-8.691-7.534V12.923h-2.08v3.553c-6,.306-8.874,3.247-8.874,7.228,0,4.9,3.182,6.8,8.078,7.657l0.8,0.122v7.6c-3.06-.245-4.652-1.409-4.9-4.349h-4.529c0.183,4.594,3.06,7.718,9.425,8.086V46.43h2.08V42.877C342.906,42.693,346.517,40,346.517,35.22Zm-15.79-11.7c0-1.838,1.285-3.063,4.162-3.247v6.861C331.767,26.522,330.727,25.48,330.727,23.52Zm6.242,15.62v-7.29c3.917,0.735,4.835,1.715,4.835,3.675C341.8,37.548,340.458,38.957,336.969,39.14Z"/>
  <path id="_38起_" data-name="38起*" class="cls-1" d="M382.033,42.919c4.956-2.737,8.289-7.1,8.289-13.342,0-10.691-8.2-16.507-19.483-16.507-12.305,0-19.825,7.27-19.91,18.132h7.178c0.342-8.211,5.725-11.632,12.732-11.632,7.434,0,12.22,3.678,12.22,10.178S378.615,40.1,370.412,40.1h-4.1v5.987h4.529c8.545,0,13.843,4.79,13.843,12.145S379.384,70.2,371.266,70.2c-8.887,0-13.928-4.618-14.185-13.257h-7.092C349.9,68.748,357.338,76.7,371.266,76.7c12.391,0,20.936-7.356,20.936-18.474C392.2,50.616,387.588,45.827,382.033,42.919Zm47.678-.257c5.127-2.224,8.8-6.5,8.8-12.915,0-10.862-8.8-16.678-19.568-16.678s-19.569,5.816-19.569,16.678c0,6.415,3.675,10.691,8.8,12.915-6.751,2.566-11.28,7.869-11.28,15.4C396.9,69.6,405.87,76.7,418.944,76.7s22.046-7.1,22.046-18.645C440.99,50.531,436.462,45.228,429.711,42.662ZM418.944,19.569c7.007,0,12.476,3.507,12.476,10.178s-5.469,10.178-12.476,10.178-12.476-3.507-12.476-10.178S411.937,19.569,418.944,19.569Zm0,50.633c-8.8,0-14.527-4.362-14.527-12.145s5.725-12.145,14.527-12.145,14.527,4.362,14.527,12.145S427.745,70.2,418.944,70.2Zm47.516-3.883q-0.344,1.665-.555,2.326-0.4,1.375-1.188,1.375h-3.408a0.7,0.7,0,0,1-.554-0.132,0.851,0.851,0,0,1-.08-0.423V63.6H464.9v1.586h2.007V55.268H457.77V57.2H464.9v4.468h-6.234v8.2a2.172,2.172,0,0,0,.251.978,1.84,1.84,0,0,0,.832.806,2.582,2.582,0,0,0,1.215.3h4.253a1.9,1.9,0,0,0,1.069-.344,2.754,2.754,0,0,0,.78-0.74,15.908,15.908,0,0,0,1.267-3.728Zm2.906,7.376q-1.4.106-3.632,0.159t-2.51.053h-0.356q-3.356,0-4.121-.026t-1.585-.119a13.392,13.392,0,0,1-1.6-.278,9.175,9.175,0,0,1-1.413-.449V68.54H457.3V66.61h-3.144V63.887h3.566v-1.93h-4.358V59h3.381v-1.93h-3.381v-3.78h-2.008v3.78h-3.882V59h3.882v2.961h-4.675v1.93h5.468v8.143a4,4,0,0,1-1.176-.846,8.587,8.587,0,0,1-1.043-1.216,31.509,31.509,0,0,0,.185-3.886l-1.981-.291a33.4,33.4,0,0,1-.4,5.129,10.951,10.951,0,0,1-2.4,5.155l1.743,1.216a19.066,19.066,0,0,0,1.585-2.538,10.084,10.084,0,0,0,.925-2.379,10.31,10.31,0,0,0,2.707,1.956,11.9,11.9,0,0,0,3.157,1.124,14.572,14.572,0,0,0,2.747.3l4.754,0.053h5.52Zm3.578-13.433,1.384-1.909,1.383,1.909,0.728-.583-1.4-1.939,2.214-.714-0.306-.874-2.155.7v-2.3h-0.932v2.3l-2.155-.7-0.306.874,2.213,0.714-1.4,1.939Z"/>
  <path id="每月仅" class="cls-1" d="M246.54,34.05V31.313H224.828a7.7,7.7,0,0,1,.431-0.919,7.7,7.7,0,0,0,.581-1.444l-2.737-.9a25.939,25.939,0,0,1-1.669,3.75,28.011,28.011,0,0,1-2.981,4.462,27.893,27.893,0,0,1-3.6,3.788l2.325,1.763a37.445,37.445,0,0,0,6.337-7.763H246.54Zm0.788,14.212V45.525h-3.9q0-.075.244-3.375t0.281-5.138H221.715q-0.562,5.625-.693,6.619t-0.282,1.894h-6v2.737h5.588q-0.638,3.9-1.875,8.962h20.362a3.952,3.952,0,0,1-.637,1.669,1.348,1.348,0,0,1-.975.469q-0.562.038-1.931,0a33.186,33.186,0,0,1-4.557-.638l1.013,2.888a39.106,39.106,0,0,0,4.912.413,18.235,18.235,0,0,0,2.063-.15,3.226,3.226,0,0,0,1.537-.713,4.061,4.061,0,0,0,1.107-1.612,13.062,13.062,0,0,0,.693-2.325h3.675V54.488h-3.337l0.862-6.225h4.088ZM240.84,39.75a57.846,57.846,0,0,1-.45,5.775H223.7q0.15-.862.375-3.019t0.3-2.756H240.84Zm-0.675,8.512q-0.338,2.888-.825,6.225h-17.1l1.088-6.225h3.937l-1.575,2.063a33.9,33.9,0,0,1,5.625,2.006,15.78,15.78,0,0,1,3.188,2.044l1.987-1.95a17.142,17.142,0,0,0-3.862-2.475,23.459,23.459,0,0,0-4.613-1.687h12.15Zm-3.412-4.913a11.464,11.464,0,0,0-3.375-2.081,22.686,22.686,0,0,0-5.063-1.331L226.365,42A20.3,20.3,0,0,1,231,43.275a14.987,14.987,0,0,1,3.731,2.137ZM275.821,30.3h-18.6V47.625a12.593,12.593,0,0,1-1.913,6.637,18.9,18.9,0,0,1-5.362,5.587l1.837,2.663a30.325,30.325,0,0,0,5.475-5.7,18.392,18.392,0,0,0,2.85-6.488h12.638v7.35a0.7,0.7,0,0,1-.3.544,1,1,0,0,1-.638.244l-4.837-.15,1.125,3h4.537a3.865,3.865,0,0,0,1.481-.319,2.66,2.66,0,0,0,1.238-1.05,2.723,2.723,0,0,0,.469-1.481V30.3Zm-3.075,8.625H260.183V33.038h12.563v5.888Zm0,8.663H260.183q0.075-.975.056-3t0.019-2.925h12.488v5.925Zm43.027,12a25.6,25.6,0,0,1-5.194-3.731,32.419,32.419,0,0,1-4.293-4.819q0.6-.824,1.462-2.306a36.722,36.722,0,0,0,2.044-4.387,40.12,40.12,0,0,0,1.781-5.306q0.6-2.4.731-3.244t0.169-1.106V32.175H294.136v2.7h2.737a38.092,38.092,0,0,0,5.85,16.237,32.589,32.589,0,0,1-5.119,4.725A32.93,32.93,0,0,1,291.7,59.4l1.725,2.4a29.827,29.827,0,0,0,6.206-3.712,35.549,35.549,0,0,0,4.782-4.65,34.5,34.5,0,0,0,4.406,4.762,26.747,26.747,0,0,0,5.344,3.788Zm-23.85-31.125q-3,7.987-4.613,11.137a27.424,27.424,0,0,1-3.056,4.894,18.947,18.947,0,0,1-2.719,2.756l2.025,2.025a16.492,16.492,0,0,0,2.344-2.344,28.334,28.334,0,0,0,2.644-3.506V61.8h2.7V37.838a72.35,72.35,0,0,0,3.037-8.062Zm17.55,6.413a33.431,33.431,0,0,1-1.106,5.212,30.649,30.649,0,0,1-1.875,4.95,27.794,27.794,0,0,1-2.007,3.525,32.447,32.447,0,0,1-3.449-7.388,30.006,30.006,0,0,1-1.238-6.3h9.675Z"/>
</svg>
