<svg xmlns="http://www.w3.org/2000/svg" width="728" height="90" viewBox="0 0 728 90">
  <defs>
    <style>
      .cls-1 {
        fill: #4b286d;
        fill-rule: evenodd;
      }
    </style>
  </defs>
  <path id="选用全新升级版Optik_TV_" data-name="选用全新升级版Optik TV®" class="cls-1" d="M215.973,27.6l-1.818,1.236a13.666,13.666,0,0,1,2.551,2.648,10.3,10.3,0,0,1,1.2,2.266,21.346,21.346,0,0,0,1.905-1.413,15.421,15.421,0,0,0-3.84-4.738h0Zm22.486,22.011a16.693,16.693,0,0,1-3.108.235H224.973a7.4,7.4,0,0,1-2.58-.353,7.964,7.964,0,0,0,2.463-1.677,9.114,9.114,0,0,0,1.715-2.384,11.118,11.118,0,0,0,.953-2.8,14.912,14.912,0,0,0,.293-2.913h2.052v7.239a1.442,1.442,0,0,0,.367.853,2.281,2.281,0,0,0,.791.677,1.688,1.688,0,0,0,.689.206h4.046a1.239,1.239,0,0,0,.762-0.338,3.049,3.049,0,0,0,.762-1.265,11.248,11.248,0,0,0,.557-2.281l-1.993-.883-0.323,2.148a0.541,0.541,0,0,1-.5.471h-2.4a0.792,0.792,0,0,1-.528-0.383V39.724h4.925V37.576h-6.889V33.633h4.691V31.485h-4.691V27.541h-2.228v3.943h-2.756a19,19,0,0,0,.352-2.943l-1.994-.618a20.5,20.5,0,0,1-.645,3.649,15.092,15.092,0,0,1-1.158,3.1,7.421,7.421,0,0,1-1.334,1.9l1.349,1h-0.733v2.148h4.661a13.641,13.641,0,0,1-.615,3.708,6.176,6.176,0,0,1-1.583,2.4,10.731,10.731,0,0,1-3.079,2.045l0.821,1.471a11.434,11.434,0,0,1-1.348-.706,3.572,3.572,0,0,1-1.085-.883V36.929H212.69v2.148h3.84v8.092a38.372,38.372,0,0,1-4.867,3.678l1.671,1.707,3.929-3.237a10.851,10.851,0,0,0,3.195,1.928,14.911,14.911,0,0,0,3.313.75H237.55ZM227.905,37.576h-5.336a10.374,10.374,0,0,0,2.052-3.943h3.284v3.943ZM264.351,28.1H244.826V41.2a19.453,19.453,0,0,1-.322,3.5,13.985,13.985,0,0,1-.968,3.207,18.72,18.72,0,0,1-2.726,4.12l1.876,1.412a17.813,17.813,0,0,0,3.137-4.885,20.765,20.765,0,0,0,1.143-5.179h6.45v7.033h2.228V43.373h6.391V49.7a0.5,0.5,0,0,1-.44.618,7.934,7.934,0,0,1-1.1.044q-0.571-.015-2.008-0.074l0.7,2.3,3.342-.059a1.9,1.9,0,0,0,.806-0.368,2.4,2.4,0,0,0,.718-0.912,2.559,2.559,0,0,0,.293-1.1V28.1Zm-2.316,6.445h-6.391v-4.3h6.391v4.3Zm0,6.68h-6.391V36.693h6.391v4.532Zm-8.619-6.68h-6.362v-4.3h6.362v4.3Zm0,6.68h-6.362V36.693h6.362v4.532Zm36-6.577a17.407,17.407,0,0,1-3.928-3.193,12.716,12.716,0,0,1-2.126-3.119l0.352-.588-4.192-1a31.214,31.214,0,0,1-3.269,4.65,19.591,19.591,0,0,1-3.709,3.266,24.436,24.436,0,0,1-5.013,2.56,10.209,10.209,0,0,1,2.433,3.8,10.1,10.1,0,0,0,1.906-.942v0.677h7.065V42.9H272.4v3.531h6.537v2.442h-9.909V52.5h23.952v-3.62h-10V46.434h6.244V42.9h-6.244V40.754h6.743V40.048a12.205,12.205,0,0,0,1.759.883,8.132,8.132,0,0,1,2.756-3.855A28.77,28.77,0,0,1,289.414,34.648Zm-13.207,2.428a13.669,13.669,0,0,0,2.492-2.1,21.249,21.249,0,0,0,2.228-2.693,26.836,26.836,0,0,0,2.213,2.6,17.36,17.36,0,0,0,2.565,2.251Zm46.484-1.442h-7.71v-3.3a36.288,36.288,0,0,0,3.972-.78,25.671,25.671,0,0,0,3.65-1.192l-2.931-3.178a32.236,32.236,0,0,1-8.531,2.207v9.593a20.283,20.283,0,0,1-1.1,7.474,11.6,11.6,0,0,1-3.3,4.532,14.143,14.143,0,0,1,3.4,2.472A14.4,14.4,0,0,0,313,49.582a17.376,17.376,0,0,0,1.466-4.5,30.606,30.606,0,0,0,.454-5.562h1.642V53.2h3.929V39.518h2.169Zm-12.078,3.443v-3.5h-2.4l1.055-2.06-1.759-.736h2.756V29.366h-4.046q-0.732-1.766-1.084-2.413l-4.017.53a8.6,8.6,0,0,1,.968,1.883h-5.16v3.414l2.668,0.059-1,.324a10.871,10.871,0,0,1,.645,1.6,6.061,6.061,0,0,1,.176.809h-2.727v3.5h5.131V40.2h-4.867v3.414h3.958a20,20,0,0,1-4.837,4.385,13.356,13.356,0,0,1,2.169,3.119l1.525-1.118a4.616,4.616,0,0,1,1.084,3.237,8.837,8.837,0,0,0,3.665-.809,2.485,2.485,0,0,0,1.173-2.369v-2.59a5.759,5.759,0,0,1,.542.4q0.308,0.25.748,0.692t0.586,0.559q0.44-.618,1.29-1.648t1.173-1.413a20.516,20.516,0,0,0-3.46-2.442h3.665V40.2h-4.574V39.077h4.955Zm-5.16-6.3a29.024,29.024,0,0,1-1.055,2.8h-1.232q-0.175-.677-0.85-2.8h3.137Zm-3.635,16.214a0.393,0.393,0,0,1-.367.383,3.761,3.761,0,0,1-1.1.029,7.635,7.635,0,0,0,.85-0.78q0.5-.515.616-0.6v0.971Zm49.346-8.387V36.84h-5.981V27.865H340.61a0.326,0.326,0,0,0-.323.25,0.236,0.236,0,0,0,.176.338,0.678,0.678,0,0,1,.366.309,0.9,0.9,0,0,1,.162.486V36.84h-4.984V32.014a19.084,19.084,0,0,0,3.987-2.089l-2.756-2.649a31.6,31.6,0,0,1-5.614,2.163,21.873,21.873,0,0,1-5.7.868,6.473,6.473,0,0,1,1.29,1.722,7.706,7.706,0,0,1,.762,2.016,26.7,26.7,0,0,0,4.134-.883V36.84h-6.89v3.767h6.89a11.689,11.689,0,0,1-.748,4.547,7.064,7.064,0,0,1-2.257,2.9,12,12,0,0,1-3.973,1.854,8.995,8.995,0,0,1,1.364,1.059,6.62,6.62,0,0,1,1.055,1.236,8.014,8.014,0,0,1,.6,1.089,16.881,16.881,0,0,0,2.873-1.648,10.938,10.938,0,0,0,3.122-3.1,10.633,10.633,0,0,0,1.393-3.487,25.329,25.329,0,0,0,.44-4.443h5.013V53.29h4.192V40.607h5.981Zm26.458,7.607a11.7,11.7,0,0,1-1.217-1.221,23.428,23.428,0,0,0,2.844-9.681l-0.88-.589h-2.052l1.788-7.622-1.114-.794H364v3.737h2.668a60.4,60.4,0,0,1-.557,8.151,38.511,38.511,0,0,1-1.524,6.974V45.786L353.626,48.7l1.173,4.032,8.765-3.149a9.771,9.771,0,0,1-1.524,1.707,8.7,8.7,0,0,1,1.627.942,9.332,9.332,0,0,1,1.481,1.295,21.138,21.138,0,0,0,2.081-2.913,5.559,5.559,0,0,1,1.539,1.148,5.374,5.374,0,0,1,1.1,1.56,21.015,21.015,0,0,0,2.316-1.56,19.882,19.882,0,0,0,1.934-1.677,24.291,24.291,0,0,0,3.929,3.443,14.256,14.256,0,0,1,2.462-3.208A28.358,28.358,0,0,1,377.622,48.214Zm-13.3-4.341V40.46l-4.163.677q0.762-1.059,1.861-2.972t1.862-3.413l-2.932-1.795-1.671,2.707-0.821-.441q1.173-1.736,2.2-3.62t1.5-2.972l-3.166-1.471q-0.851,2-1.759,3.693T355.8,33.339l-0.939-.5-1.7,3.384a26.7,26.7,0,0,1,4.251,2.707q-0.645,1.059-1.818,2.707l-2.022.236,0.938,4.3Zm9.41-11.8-1.026,4.65h-2.55a28.374,28.374,0,0,0,.088-4.65h3.488Zm1.5,8.151a11.2,11.2,0,0,1-1.319,3.884,9.951,9.951,0,0,1-1.114-1.883,9.591,9.591,0,0,1-.674-2h3.107Zm-5.8,8.755a12.023,12.023,0,0,1-1.818.9,34.062,34.062,0,0,0,1.876-6.444,13.112,13.112,0,0,0,1.994,3.884A12.784,12.784,0,0,1,369.428,48.979Zm37.675-.824a15.659,15.659,0,0,1-1.818-1.986,22.889,22.889,0,0,0,1.612-5.047,51.165,51.165,0,0,0,.821-6.165l-1.055-.794H398.63V31.749a36.492,36.492,0,0,0,5.761-.647,30.743,30.743,0,0,0,4.5-1.207L406.6,26.953a19.655,19.655,0,0,1-5.1,1.118q-2.961.294-6.655,0.324V39.283a22.6,22.6,0,0,1-.484,4.149,18.616,18.616,0,0,1-1.07,3.825V39.43h-5.365V36.752h6.509V33.28h-1.554v-6.15h-3.606a0.618,0.618,0,0,0-.44.206,0.349,0.349,0,0,0,.147.486,0.859,0.859,0,0,1,.322.338v5.12h-1.378V27.394h-3.957a0.547,0.547,0,0,0-.352.118,0.363,0.363,0,0,0-.147.294,0.485,0.485,0,0,0,.381.441,0.487,0.487,0,0,1,.382.441v9.417a36.253,36.253,0,0,1-1.818,12.389A5.987,5.987,0,0,1,386,52.466l0.175,0.206a36.247,36.247,0,0,0,1.789-9.681h1.847V50.2h1.641l-1.114,1.059a3.533,3.533,0,0,1,1.569.544A13.314,13.314,0,0,1,394,53.29a9.4,9.4,0,0,0,2.169-2.855,7.512,7.512,0,0,1,1.452,1.206,14.578,14.578,0,0,1,1.363,1.589,10.909,10.909,0,0,0,2.2-1.545,19.129,19.129,0,0,0,1.934-1.957,18.47,18.47,0,0,0,1.95,2.1,18.773,18.773,0,0,0,1.715,1.427,18.735,18.735,0,0,1,1.129-1.854,8.723,8.723,0,0,1,1.275-1.56A17.2,17.2,0,0,1,407.1,48.155ZM404,37.723a14.922,14.922,0,0,1-1.085,5.562,14.942,14.942,0,0,1-1.231-5.562H404ZM398.718,48.8a7.8,7.8,0,0,1-2.463,1.427,12.978,12.978,0,0,0,1.1-2.634,23.519,23.519,0,0,0,.806-3.693q0.292-2.059.381-3.884a16.657,16.657,0,0,0,.821,3.458,15.557,15.557,0,0,0,1.407,3.134A11.016,11.016,0,0,1,398.718,48.8Zm23.659,2.958c6.244,0,10.408-4.355,10.408-10.947s-4.164-10.947-10.408-10.947c-6.274,0-10.437,4.355-10.437,10.947S416.1,51.76,422.377,51.76Zm0-3.5c-3.811,0-6.3-2.825-6.3-7.445s2.492-7.445,6.3-7.445,6.3,2.825,6.3,7.445S426.188,48.258,422.377,48.258Zm21.072-12.507a5.448,5.448,0,0,0-4.837,2.531V36.1h-3.548V57.057h3.694v-7.74a5.405,5.405,0,0,0,4.691,2.325c4.163,0,6.773-3.119,6.773-7.946S447.612,35.751,443.449,35.751ZM442.57,48.582c-2.4,0-3.9-1.677-3.9-4.885s1.5-4.885,3.9-4.885,3.9,1.56,3.9,4.767S444.974,48.582,442.57,48.582Zm17.29-9.652V36.1h-2.99V31.69h-3.665V36.1H450.86v2.825h2.345v8.593c0,2.8,1.525,3.885,4.721,3.885,0.586,0,1.26-.059,1.934-0.118V48.464H458.6c-1.232,0-1.73-.324-1.73-1.324v-8.21h2.99Zm3.512-4.65a2.045,2.045,0,1,0-2.052-2.031A2.031,2.031,0,0,0,463.372,34.28Zm-1.847,17.009h3.694V36.1h-3.694V51.289Zm16.79,0h4.222l-6.069-9.446,5.717-5.738h-4.4l-6.157,6.3V30.336H468V51.289h3.635V46.522l2.287-2.3Zm28.759-20.953H489.718V33.9H496.4V51.289h3.988V33.9h6.684V30.336Zm16.549,0-3.694,10.83c-0.674,2.06-1.378,4.3-1.964,6.533-0.616-2.236-1.32-4.473-1.994-6.533l-3.782-10.83h-4.222l7.652,20.953h4.632l7.476-20.953h-4.1Zm8.053-.048a3.067,3.067,0,1,0,3.147,3.073A3.078,3.078,0,0,0,531.676,30.288Zm0,5.464a2.4,2.4,0,1,1,2.444-2.391A2.372,2.372,0,0,1,531.676,35.752Zm1.271-1.71a0.666,0.666,0,0,0-.37-0.657,0.766,0.766,0,0,0,.444-0.731,0.956,0.956,0,0,0-1.135-.917h-1.432v3.172h0.716V33.732h0.667c0.283,0,.37.1,0.394,0.409l0.025,0.334a0.868,0.868,0,0,0,.111.434h0.753a0.731,0.731,0,0,1-.136-0.434Zm-1.777-.9V32.357h0.654a0.394,0.394,0,1,1,.025.781H531.17Z"/>
</svg>
