<svg id="Frame_3" data-name="Frame 3" xmlns="http://www.w3.org/2000/svg" width="728" height="90" viewBox="0 0 728 90">
  <defs>
    <style>
      .cls-1 {
        fill: #4b286d;
      }

      .cls-1, .cls-2 {
        fill-rule: evenodd;
      }

      .cls-2 {
        fill: #462b69;
      }
    </style>
  </defs>
  <path id="智能家居安防_每月计划_15起_" data-name="智能家居安防 每月计划  15起*" class="cls-1" d="M302.305,21.146v-9.93h-9.93v9.93h9.93Zm-2.82,14.91V23.426l-16.74-.06a7.712,7.712,0,0,0,2.49-2.04,10.576,10.576,0,0,1,2.25.33,24.578,24.578,0,0,1,3.57,1.35l1.2-1.83A11.4,11.4,0,0,0,289.9,20.1a21.354,21.354,0,0,0-3.585-.78l0.24-.54h4.98v-2.19h-4.65a11.4,11.4,0,0,0,.15-2.64h3.51v-2.19h-6.93a6.113,6.113,0,0,0,.51-1.65l-2.19-.84a12.069,12.069,0,0,1-1.11,3.57,8.057,8.057,0,0,1-2.22,2.67l2.1,0.93a11.514,11.514,0,0,0,1.32-1.215,6.525,6.525,0,0,0,.96-1.275h1.8a10.033,10.033,0,0,1-.15,2.64h-5.88v2.19h5.31a4.774,4.774,0,0,1-1.08,1.62,7.2,7.2,0,0,1-2.16,1.455,12.4,12.4,0,0,1-2.97.945l1.08,2.25a13.773,13.773,0,0,0,2.145-.69,8.428,8.428,0,0,0,1.4-.69v12.54h2.28v-1.92h12.45v1.77h2.28Zm0.54-17.1h-5.37v-5.55h5.37v5.55Zm-2.82,8.82h-12.45v-2.16h12.45v2.16Zm0,4.32h-12.45v-2.13h12.45V32.1Zm32.61-15.9q-0.66,4.02-1.41,4.02h-3.96a2.285,2.285,0,0,1-1.065-.24,0.7,0.7,0,0,1-.465-0.6v-2.19a32.426,32.426,0,0,0,5.175-2.055,18.463,18.463,0,0,0,3.315-2.175l-1.38-1.71a19.063,19.063,0,0,1-3.54,2.235,20.8,20.8,0,0,1-3.57,1.455V9.775h-2.28v10.38a2.372,2.372,0,0,0,.885,1.56,2.848,2.848,0,0,0,1.935.69h5.34a1.883,1.883,0,0,0,1.32-.615,3.666,3.666,0,0,0,.9-1.335,32.473,32.473,0,0,0,.99-3.42Zm-9.63,1.71a14.46,14.46,0,0,0-4.02-5.7l-2.01,1.11a19.065,19.065,0,0,1,1.86,1.98l-6.39.54a20.4,20.4,0,0,0,4.32-5.97l-2.07-1.05a43.989,43.989,0,0,1-3.135,4.8,18.835,18.835,0,0,1-1.665,1.8,10.648,10.648,0,0,1-1.17,1.08l1.53,2.01q0.54-.06,3.135-0.405t4.2-.51q1.605-.165,2.715-0.225l0.54,1.44Zm9.99,11.34a14.589,14.589,0,0,1-.69,3,1.865,1.865,0,0,1-.42.66,0.921,0.921,0,0,1-.51.3h-4.62q-1.02,0-1.02-.75v-2.79a24.991,24.991,0,0,0,4.56-1.4,18.346,18.346,0,0,0,4.23-2.415l-1.53-1.59a19.745,19.745,0,0,1-7.26,3.15v-4.17h-2.28v9.6a2.272,2.272,0,0,0,.48,1.35,2.674,2.674,0,0,0,1.125.93,3.039,3.039,0,0,0,1.155.27h5.4a2.516,2.516,0,0,0,1.14-.27,2.044,2.044,0,0,0,.84-0.75,8.167,8.167,0,0,0,.855-1.755,20.3,20.3,0,0,0,.675-2.565Zm-11.73-9.6h-10.83v16.14h2.28v-5.97h6.27v2.82a0.9,0.9,0,0,1-.15.48,0.516,0.516,0,0,1-.36.27,7.6,7.6,0,0,1-1.92,0q-1.17-.119-1.23-0.12l0.84,2.31a20.7,20.7,0,0,0,3.24-.09,2.017,2.017,0,0,0,1.275-.8,2.612,2.612,0,0,0,.585-1.725V19.646Zm-2.28,3.99H309.9v-1.8h6.27v1.8Zm0,3.99H309.9v-1.8h6.27v1.8Zm44.175-9.45v-5.49H350.2a10.439,10.439,0,0,0-1.8-2.31,10.667,10.667,0,0,0-2.01-1.59L344.5,10.2a22.662,22.662,0,0,1,2.385,1.89,4.149,4.149,0,0,1,.465.6H336.52V18.3h2.28v-3.42h19.26v3.3h2.28Zm1.44,13.83a8.341,8.341,0,0,1-2.595-1.62,14.078,14.078,0,0,1-2.3-2.67,11.84,11.84,0,0,1-1.53-3.12,21.914,21.914,0,0,0,3.33-3l-1.74-1.53a13.013,13.013,0,0,1-5.55,4.32,7.9,7.9,0,0,0-1.215-1.905,7.08,7.08,0,0,0-1.605-1.455q0.09-.06.705-0.405t1.155-.7a9.771,9.771,0,0,0,1.02-.78h5.52v-2.19H340.06v2.19l7.53,0.03q-3.72,2.25-10.92,3.39l1.56,1.98a26.171,26.171,0,0,0,8.13-2.37,9.056,9.056,0,0,1,1.5,1.02,19.758,19.758,0,0,1-2.79,1.65,21.146,21.146,0,0,1-3.975,1.455,43.1,43.1,0,0,1-5,1l1.59,1.95a22.624,22.624,0,0,0,6.075-1.47,27.85,27.85,0,0,0,5.325-2.88,12.392,12.392,0,0,1,.81,1.74,19.833,19.833,0,0,1-6.3,3.645,41.4,41.4,0,0,1-8.1,1.965l1.65,2.07a48.3,48.3,0,0,0,5-1.215,31.045,31.045,0,0,0,4.56-1.755,16.582,16.582,0,0,0,3.675-2.37,25.008,25.008,0,0,1-.12,4.02,1.307,1.307,0,0,1-.33.57,1.646,1.646,0,0,1-.54.42,10.045,10.045,0,0,1-2.19-.2,25.093,25.093,0,0,1-2.85-.765l0.93,2.67q3.87,0.72,5.25.21a2.591,2.591,0,0,0,1.335-1.035,5.807,5.807,0,0,0,.7-2.595,17.208,17.208,0,0,0-.015-2.955,22.261,22.261,0,0,0-.435-2.955l1.44-.6a17.99,17.99,0,0,0,1.23,2.685,14.7,14.7,0,0,0,2.295,3.075,9.336,9.336,0,0,0,3.195,2.25Zm28.257-8.7v-2.19h-9.51v-3.09h-2.28v3.09H369.4v-3.33h19.14v-7.11h-21.42V23.4a37.825,37.825,0,0,1-.18,4.485,15.262,15.262,0,0,1-.54,2.46,13.411,13.411,0,0,1-1,2.355,12.714,12.714,0,0,1-1.575,2.28l1.98,1.35a14.334,14.334,0,0,0,2.535-4.3,18.375,18.375,0,0,0,.99-5.28q0.165-3.015.195-3.435h8.73v3.21h-7.17v9.57h2.28v-1.77h12.27v1.77h2.28v-9.57h-7.38v-3.21h9.51Zm-3.78-7.71H369.4v-2.73h16.86V15.6Zm-0.63,16.53h-12.27v-3.42h12.27v3.42Zm31.644-13.71v-5.49l-10.05-.09,0.87-.63a10.6,10.6,0,0,0-5.01-3.18l-1.83,1.53a14.671,14.671,0,0,1,2.955,1.26,6.476,6.476,0,0,1,1.455,1.11h-11.07V18.6h2.28v-3.48h18.12v3.3h2.28Zm0.57,4.53v-2.19h-13.38l1.98-3.72-2.07-1.02-2.49,4.74h-7.92v2.19h6.72a41.146,41.146,0,0,1-3.6,5.73q3.75,0.781,7.56,1.98-4.35,2.88-11.61,3.45l1.47,2.13a27.5,27.5,0,0,0,5.175-.975,22.934,22.934,0,0,0,4.485-1.785,26.169,26.169,0,0,0,3.27-2.04q3.84,1.62,5.19,2.28a18.882,18.882,0,0,1,2.34,1.335q0.99,0.675,1.35.975l1.47-1.98a27.755,27.755,0,0,0-3.3-1.98,54.686,54.686,0,0,0-5.22-2.25,11.772,11.772,0,0,0,1.83-2.475,29.609,29.609,0,0,0,1.92-4.395h4.83Zm-7.26,0a10.7,10.7,0,0,1-1.425,3.255,13.022,13.022,0,0,1-2.265,2.775q-2.73-.9-6-1.74l2.52-4.29h7.17Zm36.5-6.54v-2.19h-8.16l1.47-1.29a12.173,12.173,0,0,0-2.415-2.445,12.3,12.3,0,0,0-2.565-1.545l-1.68,1.62a15.01,15.01,0,0,1,2.85,1.83,12.585,12.585,0,0,1,1.77,1.83h-7.8v2.19h3.51q0.06,1.53-.135,4.425t-0.405,4.425a13.873,13.873,0,0,1-1.89,5.175,14.3,14.3,0,0,1-3.93,4.185l1.98,1.65,2.43-2.46q3.39-3.629,3.96-10.29h6.06a55.8,55.8,0,0,1-1.14,8.31,1.516,1.516,0,0,1-.99,1.35,9.583,9.583,0,0,1-2.01-.345q-1.02-.285-2.64-0.885l0.66,2.64q0.09,0.03.96,0.285t1.71,0.45a6.621,6.621,0,0,0,1.47.2,3.9,3.9,0,0,0,1.05-.12,3.04,3.04,0,0,0,2.01-2.49,41.049,41.049,0,0,0,.87-5.1q0.39-3.24.6-6.48h-8.43l0.18-4.92h10.65Zm-16.59,7.935a5.69,5.69,0,0,0-.705-2.235,16.4,16.4,0,0,0-1.875-2.64l2.46-6.81v-1.89H422v25.47h2.28V12.956H428l-2.76,7.08a8.646,8.646,0,0,1,2.91,4.05q0.45,1.71-.48,2.4a3.592,3.592,0,0,1-3.18-.36l0.54,2.52a5.1,5.1,0,0,0,1.4.255,5.562,5.562,0,0,0,1.395-.075,3.364,3.364,0,0,0,1.605-.855,3.482,3.482,0,0,0,1-1.545A8.98,8.98,0,0,0,430.492,24.341ZM291.47,46.646v-2.19H274.1a6.017,6.017,0,0,1,.344-0.735,6.2,6.2,0,0,0,.466-1.155l-2.19-.72a21.013,21.013,0,0,1-1.335,3A22.523,22.523,0,0,1,269,48.416a22.443,22.443,0,0,1-2.88,3.03l1.86,1.41a30.025,30.025,0,0,0,5.07-6.21h18.42Zm0.63,11.37v-2.19h-3.12q0-.06.195-2.7t0.225-4.11H271.61q-0.452,4.5-.555,5.295t-0.225,1.515h-4.8v2.19h4.47q-0.512,3.12-1.5,7.17h16.29a3.188,3.188,0,0,1-.51,1.335,1.082,1.082,0,0,1-.78.375c-0.3.02-.816,0.02-1.545,0a26.524,26.524,0,0,1-3.645-.51l0.81,2.31a31.292,31.292,0,0,0,3.93.33,14.627,14.627,0,0,0,1.65-.12,2.587,2.587,0,0,0,1.23-.57,3.255,3.255,0,0,0,.885-1.29,10.5,10.5,0,0,0,.554-1.86h2.941V63h-2.67l0.69-4.98h3.27Zm-5.19-6.81a46.049,46.049,0,0,1-.361,4.62H273.2q0.118-.69.3-2.415t0.24-2.2h13.17Zm-0.54,6.81q-0.27,2.31-.66,4.98H272.03l0.87-4.98h3.15l-1.26,1.65a27.113,27.113,0,0,1,4.5,1.6,12.646,12.646,0,0,1,2.55,1.635l1.59-1.56a13.762,13.762,0,0,0-3.09-1.98,18.811,18.811,0,0,0-3.69-1.35h9.72Zm-2.73-3.93a9.171,9.171,0,0,0-2.7-1.665,18.141,18.141,0,0,0-4.05-1.065l-1.56,1.65a16.242,16.242,0,0,1,3.705,1.02,12,12,0,0,1,2.985,1.71Zm31.472-10.44h-14.88v13.86a10.074,10.074,0,0,1-1.53,5.31,15.11,15.11,0,0,1-4.29,4.47l1.47,2.13a24.262,24.262,0,0,0,4.38-4.56,14.714,14.714,0,0,0,2.28-5.19h10.11v5.88a0.558,0.558,0,0,1-.24.435,0.794,0.794,0,0,1-.51.195l-3.87-.12,0.9,2.4h3.63a3.1,3.1,0,0,0,1.185-.255,2.123,2.123,0,0,0,.99-0.84,2.175,2.175,0,0,0,.375-1.185V43.646Zm-2.46,6.9H302.6v-4.71h10.05v4.71Zm0,6.93H302.6q0.06-.78.045-2.4t0.015-2.34h9.99v4.74Zm33.883-4.2v-2.19h-6.99v-8.91h-2.28v8.91h-6.99v2.19h6.99v15.84h2.28V53.276h6.99Zm-18.39-6.87a13.3,13.3,0,0,0-1.785-2.46,13.155,13.155,0,0,0-2.3-2.01l-1.62,1.38a13.933,13.933,0,0,1,3.81,4.53Zm3.66,18.93v-2.49l-4.5,2.46V50.336h-6.66v2.19h4.38V65.4a1.436,1.436,0,0,1-.18.75,2.9,2.9,0,0,1-.6.66l1.35,1.92Zm42.737-23.25h-2.28v23.88a0.681,0.681,0,0,1-.195.585,1.314,1.314,0,0,1-.5.2l-3.12-.09,0.81,2.31q0.3,0,1.35.03a8.925,8.925,0,0,0,1.59-.06,4.152,4.152,0,0,0,.9-0.24,2.283,2.283,0,0,0,1.44-2.28V42.086Zm-16.17,1.05q-0.39.39-1.68,1.41a11.09,11.09,0,0,1,4.35,4.35,7.9,7.9,0,0,0,.99-0.765q0.6-.525.84-0.7a12.409,12.409,0,0,0-4.5-4.29h0Zm10.65,19.56V45.716h-2.28V62.7h2.28Zm-4.56-.3q-0.21,1.11-.96,3.84a0.349,0.349,0,0,1-.27.225,0.71,0.71,0,0,1-.27-0.1,12.491,12.491,0,0,1-3.84-5.19,25.772,25.772,0,0,0,5.34-7.2l-1.8-1.32a32.357,32.357,0,0,1-2.04,3.285,25.587,25.587,0,0,1-2.4,2.955,34.81,34.81,0,0,1-1.47-6.75l8.91-1.32-0.3-2.22-8.85,1.35-0.27-4.32v-3.45h-2.37q-0.03,2.52.24,8.1l-4.23.63,0.3,2.16,4.23-.6a40.142,40.142,0,0,0,.75,4.11,34.718,34.718,0,0,0,1.14,3.93,27.146,27.146,0,0,1-7.32,4.05l1.77,1.89a20.9,20.9,0,0,0,2.64-1.245q1.32-.735,3.81-2.475a27.6,27.6,0,0,0,2.61,3.99,6.378,6.378,0,0,0,1.62,1.635,4.738,4.738,0,0,0,1.38.585,1.875,1.875,0,0,0,1.365-.06,2.113,2.113,0,0,0,.7-0.72,13.839,13.839,0,0,0,1.74-4.92Zm37.681-18.042h-3.424c-0.7,3.264-2.688,4.16-5.631,4.352l-0.512.032v3.04h5.247V67.136h4.32V44.354Zm12.067,7.807a6.488,6.488,0,0,0-4.16,1.5L411.042,48h9.791V44.354H407.65l-2.112,13.279h3.968a4.437,4.437,0,1,1,4,6.527,4.056,4.056,0,0,1-4.288-3.52h-4.127c0.319,4.352,3.807,7.007,8.415,7.007,5.023,0,8.511-3.168,8.511-7.9C422.017,55.713,419.457,52.161,414.21,52.161Zm22.546,12.695a4.485,4.485,0,0,1-2.1-.66v-3.84h3.93v-3.42h-3.93v-2.67h4.71V60a4.882,4.882,0,0,0,.285,1.74,2.521,2.521,0,0,0,.855,1.17,2.361,2.361,0,0,0,1.44.42h6.3a1.88,1.88,0,0,0,1.4-.6,4.7,4.7,0,0,0,.975-1.6,15.688,15.688,0,0,0,.69-2.445,13.033,13.033,0,0,1-3.33-1.5,7.265,7.265,0,0,1-.45,1.98,0.787,0.787,0,0,1-.54.57h-3.42a0.489,0.489,0,0,1-.4-0.225A0.864,0.864,0,0,1,443,58.976v-3.87h3.42v0.87h3.6V44.546h-10.47V48h6.87v3.57h-6.93v-0.81h-5.43v-2.07h4.41v-3.45h-4.41v-2.73h-3.12q-0.99,0-.99.39a0.517,0.517,0,0,0,.27.465,0.6,0.6,0,0,1,.27.555v1.32h-4.41v3.45h4.41v2.07h-5.73v3.51h6.27v8.07a4.446,4.446,0,0,1-.87-0.975,3.455,3.455,0,0,1-.54-1.125q0.15-1.77.24-4.53l-3.51-.39a45.106,45.106,0,0,1-.21,5.34,12.008,12.008,0,0,1-2.4,5.58,9.786,9.786,0,0,1,3.03,2.43,14.391,14.391,0,0,0,2.1-4.11,8.413,8.413,0,0,0,2.1,2.49q0.27,0.209.99,0.675a5.567,5.567,0,0,0,1.92.7,18.782,18.782,0,0,0,3.45.24h13.8q0.36-1.74.63-2.61t0.51-1.44a123.031,123.031,0,0,1-15.51.24h0Zm18.09-15,1.5-2.028,1.5,2.028,1.171-.927L457.5,46.846l2.448-.787-0.49-1.4-2.36.752V42.877h-1.5v2.535l-2.343-.752-0.49,1.4,2.448,0.787-1.539,2.081Z"/>
  <path id="_" data-name="$" class="cls-2" d="M392,55.577c0-2.274-1.376-3.583-4.775-4.247l-0.466-.081V47.265a2.255,2.255,0,0,1,2.166,2.335h2.65c-0.1-2.456-1.517-4.227-4.816-4.549V43H385.3V45.01c-3.2.141-4.938,1.771-4.938,4.046,0,2.6,1.842,3.824,4.634,4.348l0.3,0.06v4.267a2.6,2.6,0,0,1-2.611-2.8H380c0.02,3.039,1.983,4.77,5.3,5.012V62h1.456V59.965C390.016,59.8,392,58.254,392,55.577Zm-8.842-6.6c0-.986.708-1.651,2.145-1.751v3.7C383.683,50.525,383.157,50,383.157,48.975Zm3.6,8.8V53.766c1.781,0.423,2.408.926,2.408,1.953C389.166,56.946,388.317,57.651,386.758,57.771Z"/>
</svg>
