<svg id="sc" xmlns="http://www.w3.org/2000/svg" width="728" height="90" viewBox="0 0 728 90">
  <defs>
    <style>
      .cls-1 {
        fill: #fffffe;
        fill-rule: evenodd;
      }
    </style>
  </defs>
  <path id="_" data-name="$" class="cls-1" d="M70.187,46.58c0-2.614-1.677-3.486-4.45-3.97l-0.581-.1V38.705c1.548,0.129,2.193.871,2.257,2h2.322c-0.129-2.356-1.677-3.808-4.579-3.97v-1.9h-1.1V36.7c-3.16.161-4.676,1.71-4.676,3.808,0,2.582,1.677,3.582,4.257,4.034l0.419,0.065v4c-1.612-.129-2.451-0.742-2.58-2.291H59.094c0.1,2.421,1.612,4.067,4.966,4.26v1.9h1.1V50.614C68.285,50.517,70.187,49.1,70.187,46.58Zm-8.32-6.164c0-.968.677-1.614,2.193-1.711V42.32C62.416,42,61.868,41.448,61.868,40.416Zm3.289,8.23V44.8c2.064,0.387,2.547.9,2.547,1.936C67.7,47.806,66.995,48.549,65.157,48.645Z"/>
  <path id="_38起_" data-name="38起*" class="cls-1" d="M88.825,17.305V16.311H80.944a2.776,2.776,0,0,1,.156-0.334,2.82,2.82,0,0,0,.211-0.524l-0.994-.327a9.465,9.465,0,0,1-.606,1.362,10.181,10.181,0,0,1-1.082,1.621,10.133,10.133,0,0,1-1.307,1.376l0.844,0.64a13.6,13.6,0,0,0,2.3-2.82h8.357Zm0.286,5.163V21.474H87.7q0-.027.088-1.226t0.1-1.866H79.815q-0.2,2.043-.252,2.4t-0.1.688H77.283v0.994h2.028q-0.232,1.417-.681,3.256h7.391a1.439,1.439,0,0,1-.231.606,0.489,0.489,0,0,1-.354.17q-0.2.014-.7,0a12.022,12.022,0,0,1-1.654-.232l0.367,1.049a14.189,14.189,0,0,0,1.783.15,6.636,6.636,0,0,0,.749-0.055,1.171,1.171,0,0,0,.558-0.259,1.474,1.474,0,0,0,.4-0.586,4.75,4.75,0,0,0,.252-0.845h1.334V24.729H87.315l0.313-2.261h1.484Zm-2.355-3.092a21.024,21.024,0,0,1-.163,2.1H80.536q0.054-.313.136-1.1t0.109-1h5.975Zm-0.245,3.092q-0.123,1.049-.3,2.261H80.005L80.4,22.468h1.429l-0.572.749a12.311,12.311,0,0,1,2.042.729,5.73,5.73,0,0,1,1.157.742l0.721-.708a6.231,6.231,0,0,0-1.4-.9,8.518,8.518,0,0,0-1.674-.613h4.41Zm-1.239-1.785a4.16,4.16,0,0,0-1.225-.756,8.221,8.221,0,0,0-1.837-.484l-0.708.749a7.361,7.361,0,0,1,1.681.463,5.437,5.437,0,0,1,1.354.776Zm14.044-4.74H92.566v6.293a4.577,4.577,0,0,1-.694,2.411,6.86,6.86,0,0,1-1.946,2.03l0.667,0.967a11.018,11.018,0,0,0,1.987-2.071,6.687,6.687,0,0,0,1.034-2.357H98.2v2.67a0.253,0.253,0,0,1-.109.2,0.36,0.36,0,0,1-.231.089L96.1,26.119l0.408,1.09H98.16a1.4,1.4,0,0,0,.538-0.116,0.965,0.965,0,0,0,.449-0.381,0.989,0.989,0,0,0,.17-0.538V15.943ZM98.2,19.076h-4.56V16.938H98.2v2.139Zm0,3.147h-4.56q0.027-.354.02-1.09t0.007-1.062H98.2v2.152Zm15.489,4.359a9.29,9.29,0,0,1-1.885-1.355,11.759,11.759,0,0,1-1.558-1.75q0.217-.3.53-0.838a13.3,13.3,0,0,0,.742-1.594,14.515,14.515,0,0,0,.647-1.928q0.218-.872.265-1.178c0.032-.2.052-0.338,0.061-0.4V16.624h-6.655v0.981h0.993a13.839,13.839,0,0,0,2.124,5.9A11.863,11.863,0,0,1,107.1,25.22a11.985,11.985,0,0,1-2.144,1.294l0.626,0.872a10.85,10.85,0,0,0,2.253-1.349,12.916,12.916,0,0,0,1.735-1.689,12.607,12.607,0,0,0,1.6,1.73,9.721,9.721,0,0,0,1.94,1.376Zm-8.656-11.306q-1.091,2.9-1.675,4.046A9.965,9.965,0,0,1,102.25,21.1a6.846,6.846,0,0,1-.987,1L102,22.836a5.991,5.991,0,0,0,.851-0.851,10.414,10.414,0,0,0,.96-1.274v6.675h0.98v-8.7a26.315,26.315,0,0,0,1.1-2.929Zm6.37,2.329A12.2,12.2,0,0,1,111,19.5a11.063,11.063,0,0,1-.681,1.8,9.986,9.986,0,0,1-.728,1.281,11.8,11.8,0,0,1-1.252-2.684,10.9,10.9,0,0,1-.449-2.288H111.4ZM89.032,50.18A7.746,7.746,0,0,0,93.4,43.15c0-5.633-4.322-8.7-10.266-8.7-6.484,0-10.446,3.83-10.491,9.553h3.782c0.18-4.326,3.017-6.128,6.709-6.128,3.917,0,6.439,1.938,6.439,5.362s-2.341,5.452-6.664,5.452H80.747v3.154h2.386c4.5,0,7.294,2.523,7.294,6.4s-2.792,6.309-7.069,6.309c-4.683,0-7.339-2.433-7.474-6.985H72.148C72.1,63.789,76.02,67.979,83.359,67.979c6.529,0,11.031-3.875,11.031-9.733C94.39,54.236,91.959,51.712,89.032,50.18Zm25.482-.135a7.15,7.15,0,0,0,4.637-6.8c0-5.723-4.637-8.787-10.31-8.787S98.53,37.518,98.53,43.241a7.15,7.15,0,0,0,4.637,6.8c-3.557,1.352-5.943,4.146-5.943,8.111,0,6.083,4.728,9.823,11.617,9.823s11.616-3.74,11.616-9.823C120.457,54.19,118.071,51.4,114.514,50.045Zm-5.673-12.167c3.692,0,6.573,1.848,6.573,5.362s-2.881,5.362-6.573,5.362-6.574-1.848-6.574-5.362S105.148,37.878,108.841,37.878Zm0,26.676c-4.638,0-7.655-2.3-7.655-6.4s3.017-6.4,7.655-6.4,7.654,2.3,7.654,6.4S113.478,64.555,108.841,64.555Zm25.153,2.879,0.45-.95-3.11.075a17.786,17.786,0,0,1-2.592-.062,5.941,5.941,0,0,1-1.442-.35V64.008h1.511V63.121l-1.549.012,0.013-1.337,1.748,0.013v-0.9h-2.2l0.025-1.4h1.773l0.013-.913h-1.8l-0.012-1.787h-0.974l0.012,1.787h-1.811v0.913l1.8-.025,0.012,1.425h-2.186v0.9h2.648v3.875a2.813,2.813,0,0,1-.618-0.437,3.221,3.221,0,0,1-.506-0.562q0.063-.5.113-1.812l-0.975-.125a16.031,16.031,0,0,1-.174,2.4,7.287,7.287,0,0,1-1.1,2.438l0.8,0.55a7.745,7.745,0,0,0,.681-1.062,5.687,5.687,0,0,0,.493-1.213,6.069,6.069,0,0,0,4.072,1.575l2.26,0.037Zm-1.511-1.812a1.093,1.093,0,0,0,.462-0.175,1.361,1.361,0,0,0,.375-0.338,7.574,7.574,0,0,0,.6-1.763l-0.912-.387a8.163,8.163,0,0,1-.237,1.075,1.466,1.466,0,0,1-.212.513,0.492,0.492,0,0,1-.275.175h-1.8a0.261,0.261,0,0,1-.181-0.075,0.231,0.231,0,0,1-.081-0.175l-0.012-2.5h2.073l-0.013.5h0.962V57.746h-3.947v6.938a0.961,0.961,0,0,0,.113.444,0.829,0.829,0,0,0,.35.35,0.951,0.951,0,0,0,.462.131Zm-2.248-4.55V58.633h2.035v2.438h-2.035Zm5.2-.306,0.691-.954,0.692,0.954,0.364-.291-0.7-.969,1.107-.357-0.153-.437-1.078.35V57.908H135.89v1.151l-1.077-.35-0.153.437,1.107,0.357-0.7.969Z"/>
</svg>
