<svg id="HING" xmlns="http://www.w3.org/2000/svg" width="320" height="50" viewBox="0 0 320 50">
  <defs>
    <style>
      .cls-1 {
        fill: #4c286c;
        fill-rule: evenodd;
      }
    </style>
  </defs>
  <g id="txt1">
    <path class="cls-1" d="M17,26.257h4.919c0.11,1.429,1.015,1.775,2.4,1.775,1.434,0,2.051-.346,2.051-1.061,0-.671-0.53-1.017-2.228-1.255l-1.9-.26c-2.845-.39-4.875-1.905-4.875-4.849,0-2.425,1.3-5.044,6.683-5.044,4.1,0,6.618,1.515,6.9,5.087h-4.61c-0.11-.931-0.618-1.472-2.117-1.472-1.368,0-1.9.39-1.9,1s0.53,0.909,1.478,1.039l1.9,0.26c3.927,0.541,5.691,2.013,5.691,4.763,0,3.312-2.448,5.455-7.168,5.455C19.423,31.691,17.151,29.483,17,26.257Zm28.407-.52c0,3.529-1.853,5.845-4.875,5.845a3.781,3.781,0,0,1-3.375-1.71v5.866H32.566V20.153h4.456V21.82a3.752,3.752,0,0,1,3.507-1.927C43.551,19.892,45.4,22.209,45.4,25.737Zm-4.588-.021c0-1.559-.683-2.359-1.941-2.359s-1.919.8-1.919,2.359S37.618,28.1,38.875,28.1,40.816,27.274,40.816,25.716Zm14.246-5.672v4.048H54c-1.787,0-2.735.866-2.735,2.944v4.287H46.68V20.153h4.5v2.208a2.866,2.866,0,0,1,3.066-2.381A4.637,4.637,0,0,1,55.062,20.044ZM56.4,20.153h4.588v11.17H56.4V20.153Zm0.044-2.988a2.239,2.239,0,1,1,2.25,2.208A2.235,2.235,0,0,1,56.449,17.165ZM74.667,24.4v6.927H70.079V25.132a1.254,1.254,0,0,0-1.3-1.473,1.39,1.39,0,0,0-1.5,1.494v6.17H62.69V20.153h4.5v1.624h0.066a3.74,3.74,0,0,1,3.529-1.884C73.123,19.892,74.667,21.17,74.667,24.4ZM89,20.153V30.825c0,3.355-2.338,5.2-6.419,5.2-3.816,0-6.132-1.45-6.441-4.481h4.632c0.111,0.909.662,1.321,1.765,1.321a1.5,1.5,0,0,0,1.787-1.667V29.18a4.027,4.027,0,0,1-3.573,1.732c-2.956,0-4.808-2.187-4.808-5.52,0-3.312,1.853-5.5,4.808-5.5a4.024,4.024,0,0,1,3.662,1.862v-1.6H89Zm-4.61,5.217c0-1.516-.662-2.338-1.919-2.338s-1.941.823-1.941,2.338c0,1.558.684,2.381,1.941,2.381S84.392,26.928,84.392,25.37Z"/>
  </g>
</svg>
