<svg id="HING" xmlns="http://www.w3.org/2000/svg" width="320" height="50" viewBox="0 0 320 50">
  <defs>
    <style>
      .cls-1 {
        fill: #4c286c;
        fill-rule: evenodd;
      }
    </style>
  </defs>
  <g id="txt1">
    <path class="cls-1" d="M95,26.6h4.911c0.11,1.422,1.013,1.767,2.4,1.767,1.431,0,2.048-.344,2.048-1.056,0-.668-0.529-1.012-2.224-1.249l-1.894-.258c-2.84-.388-4.866-1.9-4.866-4.826,0-2.413,1.3-5.02,6.672-5.02,4.1,0,6.606,1.508,6.892,5.063h-4.6c-0.11-.926-0.617-1.465-2.114-1.465-1.365,0-1.894.388-1.894,0.991s0.529,0.9,1.476,1.034l1.893,0.258c3.92,0.539,5.681,2,5.681,4.74,0,3.3-2.444,5.429-7.156,5.429C97.418,32.009,95.15,29.812,95,26.6Zm23.58,5.042a3.3,3.3,0,0,1-.33-1.293,3.968,3.968,0,0,1-3.655,1.659c-2.4,0-4.184-1.077-4.184-3.426,0-1.939,1.211-3.146,4.338-3.447l2.07-.194c0.925-.087,1.365-0.259,1.365-0.84s-0.44-.819-1.277-0.819a1.1,1.1,0,0,0-1.365,1.1h-4.581c0.111-2.715,1.806-4.115,6.012-4.115,4.095,0,5.791,1.293,5.791,3.555v6.054a3.866,3.866,0,0,0,.418,1.767h-4.6Zm-0.4-4.244V26.666a1.3,1.3,0,0,1-.991.453l-1.057.129a0.974,0.974,0,0,0-1.079.969c0,0.668.462,0.991,1.343,0.991A1.6,1.6,0,0,0,118.179,27.4Zm6.3,0.84V16.3h4.58V27.334c0,0.926.352,0.991,0.969,0.991h0.616v3.318a15.214,15.214,0,0,1-1.783.107C125.729,31.75,124.474,30.717,124.474,28.239ZM143.915,27.2h-8.279c0.066,1.012.749,1.7,2.18,1.7a1.925,1.925,0,0,0,1.63-.6h4.272c-0.683,2.327-2.973,3.6-5.99,3.6-3.963,0-6.386-2.176-6.386-5.774,0-3.512,2.423-5.861,6.364-5.861,3.722,0,6.3,2.09,6.3,5.688A10.213,10.213,0,0,1,143.915,27.2ZM135.7,24.878h3.9a1.7,1.7,0,0,0-1.96-1.638A1.727,1.727,0,0,0,135.7,24.878Z"/>
  </g>
</svg>
