<svg id="HING" xmlns="http://www.w3.org/2000/svg" width="320" height="50" viewBox="0 0 320 50">
  <defs>
    <style>
      .cls-1 {
        fill: #4c286c;
        fill-rule: evenodd;
      }
    </style>
  </defs>
  <g id="txt1">
    <path class="cls-1" d="M296.714,32.981v4.9h-1.689l-1.078-1.74c-0.18-.289-0.338-0.55-0.482-0.819,0.022,0.578.029,1.135,0.029,1.761v0.8h-1.581v-4.9H293.6l1.057,1.741c0.158,0.261.33,0.591,0.5,0.922-0.021-.612-0.021-1.2-0.021-1.865v-0.8h1.581Zm0.46,2.449A2.714,2.714,0,1,1,299.884,38,2.49,2.49,0,0,1,297.174,35.43Zm3.738,0a1.046,1.046,0,1,0-2.057,0A1.047,1.047,0,1,0,300.912,35.43Zm9.042-2.449-1.351,4.9h-1.74l-0.337-1.493c-0.1-.427-0.187-0.853-0.266-1.273-0.086.42-.172,0.846-0.274,1.273l-0.337,1.493h-1.74l-1.351-4.9h1.66l0.288,1.451c0.115,0.578.223,1.163,0.331,1.727,0.1-.564.223-1.149,0.337-1.727l0.3-1.451h1.559l0.3,1.451c0.114,0.578.237,1.163,0.337,1.727,0.108-.564.217-1.149,0.331-1.727l0.288-1.451h1.66Z"/>
  </g>
</svg>
