<svg id="HING" xmlns="http://www.w3.org/2000/svg" width="320" height="50" viewBox="0 0 320 50">
  <defs>
    <style>
      .cls-1 {
        fill: #4c286c;
        fill-rule: evenodd;
      }
    </style>
  </defs>
  <path id="txt2" class="cls-1" d="M17,18.061H20.24c0.072,0.945.668,1.174,1.583,1.174,0.944,0,1.351-.229,1.351-0.7,0-.444-0.349-0.673-1.466-0.83l-1.249-.172c-1.873-.258-3.209-1.26-3.209-3.206,0-1.6.857-3.336,4.4-3.336,2.7,0,4.356,1,4.544,3.364H23.158c-0.072-.615-0.407-0.973-1.394-0.973-0.9,0-1.249.258-1.249,0.659s0.349,0.6.973,0.687L22.737,14.9c2.585,0.358,3.746,1.332,3.746,3.149,0,2.19-1.612,3.607-4.719,3.607C18.6,21.654,17.1,20.194,17,18.061ZM32.555,21.41a2.2,2.2,0,0,1-.218-0.858,2.611,2.611,0,0,1-2.41,1.1c-1.583,0-2.758-.716-2.758-2.277,0-1.287.8-2.09,2.86-2.29l1.364-.128c0.61-.058.9-0.172,0.9-0.558s-0.29-.544-0.842-0.544a0.725,0.725,0,0,0-.9.73H27.532c0.072-1.8,1.19-2.734,3.963-2.734,2.7,0,3.819.858,3.819,2.362v4.022a2.58,2.58,0,0,0,.276,1.174H32.555Zm-0.261-2.82V18.1a0.85,0.85,0,0,1-.653.3l-0.7.086a0.645,0.645,0,0,0-.711.644c0,0.444.3,0.659,0.885,0.659A1.058,1.058,0,0,0,32.294,18.591Zm12.373-4.566-2.8,7.386H38.336l-2.8-7.386h3.224l0.624,2.119c0.291,1,.522,1.818.783,2.849,0.262-1.031.494-1.847,0.784-2.849l0.609-2.119h3.108Zm8.293,4.437H47.5a1.221,1.221,0,0,0,1.437,1.131,1.262,1.262,0,0,0,1.075-.4h2.817c-0.451,1.547-1.96,2.39-3.95,2.39-2.613,0-4.211-1.446-4.211-3.836,0-2.333,1.6-3.893,4.2-3.893,2.454,0,4.152,1.389,4.152,3.779A6.877,6.877,0,0,1,52.959,18.461Zm-5.416-1.546h2.571a1.126,1.126,0,0,0-1.292-1.088A1.141,1.141,0,0,0,47.543,16.916Zm12,0.53L58.2,18.676V21.41H57.043V11.219H58.2v6.112l3.471-3.307h1.538l-2.845,2.663,3.049,4.723h-1.35ZM70.62,20.48V21.41a4.435,4.435,0,0,1-.639.043,1.069,1.069,0,0,1-1.263-1.06,2.759,2.759,0,0,1-2.44,1.188c-1.627,0-2.643-.772-2.643-2.161,0-1.159.712-2.075,2.773-2.29l1.075-.115A1.037,1.037,0,0,0,68.659,16c0-.772-0.406-1.159-1.684-1.159s-1.814.358-1.887,1.46H63.926c0.087-1.431.857-2.447,3.049-2.447,2.077,0,2.817.9,2.817,2.147v4.123a0.342,0.342,0,0,0,.407.358H70.62Zm-1.96-1.989V17.618a1.946,1.946,0,0,1-.987.314l-1.089.129c-1.365.157-1.743,0.615-1.743,1.331a1.235,1.235,0,0,0,1.5,1.217A2.14,2.14,0,0,0,68.659,18.49Zm6.959-4.566v1.1H75.327c-1.5,0-2.454.744-2.454,2.176V21.41H71.712V14.025h1.1v1.3a2.619,2.619,0,0,1,2.41-1.417C75.342,13.91,75.457,13.91,75.618,13.924Zm7.26,4.194H77.187c0.115,1.661,1,2.42,2.308,2.42a1.922,1.922,0,0,0,1.989-1.374h1.205a3.116,3.116,0,0,1-3.223,2.419c-2.047,0-3.484-1.475-3.484-3.864,0-2.319,1.379-3.865,3.455-3.865,2.236,0,3.441,1.746,3.441,3.865v0.4Zm-5.662-1.031h4.414A2.207,2.207,0,0,0,77.215,17.087Zm6.913-4.88a0.784,0.784,0,1,1,.783.772A0.784,0.784,0,0,1,84.129,12.207Zm0.2,1.818h1.161V21.41H84.332V14.025Zm9.075,2.39v5H92.246V16.53a1.493,1.493,0,0,0-1.714-1.646,2.115,2.115,0,0,0-2.062,2.347V21.41H87.309V14.025h1.1v1.1a2.768,2.768,0,0,1,2.351-1.274A2.373,2.373,0,0,1,93.407,16.415ZM99.8,15.026v4.8c0,0.386.189,0.63,0.857,0.63h0.682V21.41q-0.478.043-.828,0.043c-1.161,0-1.873-.4-1.873-1.531v-4.9H97.4v-1h1.234v-2.09H99.8v2.09h1.539v1H99.8Zm9.322,5.453V21.41a4.441,4.441,0,0,1-.639.043,1.069,1.069,0,0,1-1.263-1.06,2.758,2.758,0,0,1-2.439,1.188c-1.627,0-2.643-.772-2.643-2.161,0-1.159.712-2.075,2.773-2.29l1.075-.115A1.037,1.037,0,0,0,107.161,16c0-.772-0.406-1.159-1.685-1.159s-1.814.358-1.887,1.46h-1.161c0.087-1.431.856-2.447,3.048-2.447,2.077,0,2.817.9,2.817,2.147v4.123a0.342,0.342,0,0,0,.407.358h0.421Zm-1.96-1.989V17.618a1.948,1.948,0,0,1-.987.314l-1.089.129c-1.365.157-1.743,0.615-1.743,1.331a1.236,1.236,0,0,0,1.5,1.217A2.14,2.14,0,0,0,107.161,18.49Zm9.672,1.989V21.41a4.417,4.417,0,0,1-.638.043,1.069,1.069,0,0,1-1.263-1.06,2.76,2.76,0,0,1-2.44,1.188c-1.626,0-2.642-.772-2.642-2.161,0-1.159.712-2.075,2.773-2.29l1.075-.115A1.036,1.036,0,0,0,114.873,16c0-.772-0.406-1.159-1.684-1.159s-1.815.358-1.887,1.46H110.14c0.087-1.431.857-2.447,3.049-2.447,2.076,0,2.817.9,2.817,2.147v4.123a0.342,0.342,0,0,0,.407.358h0.42Zm-1.96-1.989V17.618a1.944,1.944,0,0,1-.987.314l-1.088.129c-1.366.157-1.743,0.615-1.743,1.331a1.235,1.235,0,0,0,1.495,1.217A2.14,2.14,0,0,0,114.873,18.49Zm8.743,1.918v1h-6.054V20.552l3.427-4.352c0.318-.4.638-0.8,0.972-1.2-0.537.029-1.059,0.029-1.6,0.029h-2.657v-1h5.706v0.859l-3.427,4.351c-0.319.4-.639,0.8-0.972,1.2,0.537-.029,1.06-0.029,1.6-0.029h3Zm7.639,0.071V21.41a4.441,4.441,0,0,1-.639.043,1.068,1.068,0,0,1-1.262-1.06,2.761,2.761,0,0,1-2.44,1.188c-1.627,0-2.643-.772-2.643-2.161,0-1.159.712-2.075,2.773-2.29l1.075-.115A1.037,1.037,0,0,0,129.295,16c0-.772-0.406-1.159-1.685-1.159s-1.814.358-1.886,1.46h-1.162c0.087-1.431.857-2.447,3.048-2.447,2.077,0,2.818.9,2.818,2.147v4.123a0.341,0.341,0,0,0,.406.358h0.421Zm-1.96-1.989V17.618a1.948,1.948,0,0,1-.987.314l-1.089.129c-1.365.157-1.743,0.615-1.743,1.331a1.236,1.236,0,0,0,1.5,1.217A2.14,2.14,0,0,0,129.295,18.49Zm12.677-7.271V21.41h-1.1V20.266a2.954,2.954,0,0,1-2.569,1.316c-2.105,0-3.485-1.5-3.485-3.864s1.38-3.865,3.485-3.865a2.957,2.957,0,0,1,2.511,1.23V11.219h1.161Zm-1.117,6.5c0-1.79-.958-2.834-2.411-2.834s-2.41,1.1-2.41,2.891,0.959,2.777,2.41,2.777S140.855,19.507,140.855,17.718Zm9.469,0.4h-5.691c0.115,1.661,1,2.42,2.308,2.42a1.922,1.922,0,0,0,1.989-1.374h1.2a3.116,3.116,0,0,1-3.223,2.419c-2.047,0-3.484-1.475-3.484-3.864,0-2.319,1.379-3.865,3.455-3.865,2.236,0,3.441,1.746,3.441,3.865v0.4Zm-5.663-1.031h4.415A2.208,2.208,0,0,0,144.661,17.087Zm13.593,3.393V21.41a4.441,4.441,0,0,1-.639.043,1.069,1.069,0,0,1-1.263-1.06,2.758,2.758,0,0,1-2.439,1.188c-1.627,0-2.643-.772-2.643-2.161,0-1.159.712-2.075,2.773-2.29l1.075-.115A1.036,1.036,0,0,0,156.293,16c0-.772-0.406-1.159-1.684-1.159s-1.814.358-1.887,1.46H151.56c0.087-1.431.857-2.447,3.049-2.447,2.077,0,2.817.9,2.817,2.147v4.123a0.342,0.342,0,0,0,.407.358h0.421Zm-1.961-1.989V17.618a1.941,1.941,0,0,1-.987.314l-1.088.129c-1.366.157-1.743,0.615-1.743,1.331a1.235,1.235,0,0,0,1.5,1.217A2.14,2.14,0,0,0,156.293,18.49Zm2.98,1.432v-8.7h1.161v8.6a0.578,0.578,0,0,0,.711.63H161.7V21.41a7.432,7.432,0,0,1-.742.043A1.41,1.41,0,0,1,159.273,19.922Zm2.976-.859h1.177c0.13,1.117.682,1.531,2,1.531,1.264,0,1.8-.415,1.8-1.145,0-.659-0.407-0.959-1.714-1.2l-0.7-.129c-1.627-.3-2.338-1.031-2.338-2.175,0-1.259,1.016-2.09,2.73-2.09,2,0,3.02.873,3.049,2.448H167.1c-0.057-1.145-.74-1.46-1.887-1.46-1,0-1.569.4-1.569,1.088s0.552,0.959,1.51,1.146l0.668,0.128c1.845,0.358,2.585.974,2.585,2.175,0,1.4-1.133,2.2-2.977,2.2C163.528,21.582,162.366,20.8,162.249,19.063Zm12.722-1.617-1.336,1.23V21.41h-1.161V11.219h1.161v6.112l3.471-3.307h1.538L175.8,16.687l3.049,4.723H177.5Zm10.92,0.672H180.2c0.116,1.661,1,2.42,2.309,2.42a1.921,1.921,0,0,0,1.988-1.374H185.7a3.116,3.116,0,0,1-3.223,2.419c-2.048,0-3.485-1.475-3.485-3.864,0-2.319,1.38-3.865,3.455-3.865,2.236,0,3.441,1.746,3.441,3.865v0.4Zm-5.662-1.031h4.414A2.207,2.207,0,0,0,180.229,17.087Zm9.411,1.976h1.177c0.13,1.117.682,1.531,2,1.531,1.264,0,1.8-.415,1.8-1.145,0-.659-0.407-0.959-1.714-1.2l-0.7-.129c-1.627-.3-2.338-1.031-2.338-2.175,0-1.259,1.017-2.09,2.73-2.09,2,0,3.02.873,3.049,2.448H194.49c-0.058-1.145-.74-1.46-1.887-1.46-1,0-1.569.4-1.569,1.088s0.552,0.959,1.511,1.146l0.668,0.128c1.843,0.358,2.584.974,2.584,2.175,0,1.4-1.133,2.2-2.977,2.2C190.919,21.582,189.757,20.8,189.64,19.063ZM203.8,20.48V21.41a4.441,4.441,0,0,1-.639.043,1.069,1.069,0,0,1-1.263-1.06,2.758,2.758,0,0,1-2.439,1.188c-1.627,0-2.643-.772-2.643-2.161,0-1.159.712-2.075,2.773-2.29l1.075-.115A1.037,1.037,0,0,0,201.839,16c0-.772-0.406-1.159-1.685-1.159s-1.814.358-1.886,1.46h-1.162c0.087-1.431.856-2.447,3.048-2.447,2.077,0,2.817.9,2.817,2.147v4.123a0.342,0.342,0,0,0,.407.358H203.8Zm-1.96-1.989V17.618a1.948,1.948,0,0,1-.987.314l-1.089.129c-1.365.157-1.743,0.615-1.743,1.331a1.236,1.236,0,0,0,1.5,1.217A2.14,2.14,0,0,0,201.839,18.49Zm9.672,1.989V21.41a4.441,4.441,0,0,1-.639.043,1.069,1.069,0,0,1-1.263-1.06,2.758,2.758,0,0,1-2.439,1.188c-1.627,0-2.643-.772-2.643-2.161,0-1.159.712-2.075,2.773-2.29l1.075-.115A1.036,1.036,0,0,0,209.55,16c0-.772-0.405-1.159-1.684-1.159s-1.814.358-1.887,1.46h-1.162c0.087-1.431.857-2.447,3.049-2.447,2.077,0,2.817.9,2.817,2.147v4.123a0.342,0.342,0,0,0,.407.358h0.421ZM209.55,18.49V17.618a1.941,1.941,0,0,1-.987.314l-1.088.129c-1.366.157-1.743,0.615-1.743,1.331a1.235,1.235,0,0,0,1.5,1.217A2.14,2.14,0,0,0,209.55,18.49Zm4.5-3.464v4.8c0,0.386.189,0.63,0.857,0.63h0.681V21.41c-0.319.029-.594,0.043-0.827,0.043-1.161,0-1.873-.4-1.873-1.531v-4.9h-1.234v-1h1.234v-2.09h1.162v2.09h1.538v1h-1.538ZM223,16.415v5h-1.161V16.53a1.493,1.493,0,0,0-1.714-1.646,2.115,2.115,0,0,0-2.062,2.347V21.41H216.9V11.219h1.161v3.822a2.771,2.771,0,0,1,2.294-1.188A2.373,2.373,0,0,1,223,16.415ZM17.337,33.516a3.637,3.637,0,1,1,7.259,0A3.637,3.637,0,1,1,17.337,33.516Zm6.04,0c0-1.789-.959-2.834-2.411-2.834s-2.41,1.045-2.41,2.834,0.959,2.834,2.41,2.834S23.377,35.306,23.377,33.516Zm8.772-1.3v5H30.987V32.328a1.493,1.493,0,0,0-1.714-1.646,2.115,2.115,0,0,0-2.062,2.348V37.21H26.051V29.823h1.1v1.1a2.768,2.768,0,0,1,2.351-1.274A2.373,2.373,0,0,1,32.148,32.215Zm11.807,1.3c0,2.363-1.38,3.865-3.485,3.865a2.958,2.958,0,0,1-2.512-1.231v3.864H36.8V29.823h1.1v1.146a2.956,2.956,0,0,1,2.57-1.317C42.575,29.651,43.956,31.155,43.956,33.516Zm-1.22-.057c0-1.79-.959-2.777-2.41-2.777s-2.41,1.045-2.41,2.834,0.958,2.834,2.41,2.834S42.736,35.248,42.736,33.459Zm8.772-1.245v5H50.347V32.328a1.493,1.493,0,0,0-1.714-1.646,2.115,2.115,0,0,0-2.062,2.348V37.21H45.41V27.018h1.161v3.822a2.772,2.772,0,0,1,2.294-1.188A2.373,2.373,0,0,1,51.508,32.215Zm1.455,1.3a3.637,3.637,0,1,1,7.259,0A3.637,3.637,0,1,1,52.962,33.516Zm6.04,0c0-1.789-.959-2.834-2.411-2.834s-2.41,1.045-2.41,2.834,0.959,2.834,2.41,2.834S59,35.306,59,33.516Zm8.772-1.3v5H66.613V32.328A1.493,1.493,0,0,0,64.9,30.682a2.115,2.115,0,0,0-2.062,2.348V37.21H61.676V29.823h1.1v1.1a2.768,2.768,0,0,1,2.351-1.274A2.373,2.373,0,0,1,67.774,32.215Zm8.35,1.7H70.434c0.115,1.661,1,2.42,2.308,2.42a1.923,1.923,0,0,0,1.989-1.374h1.2a3.117,3.117,0,0,1-3.223,2.419c-2.047,0-3.484-1.475-3.484-3.865,0-2.318,1.379-3.865,3.455-3.865,2.236,0,3.441,1.746,3.441,3.865v0.4Zm-5.662-1.031h4.414A2.207,2.207,0,0,0,70.462,32.887Zm6.507,1.976h1.177c0.13,1.116.682,1.531,2,1.531,1.264,0,1.8-.416,1.8-1.146,0-.658-0.407-0.958-1.714-1.2l-0.7-.129c-1.627-.3-2.338-1.031-2.338-2.175,0-1.26,1.016-2.091,2.73-2.091,2,0,3.02.874,3.049,2.448H81.818c-0.058-1.146-.741-1.461-1.887-1.461-1,0-1.569.4-1.569,1.089s0.552,0.959,1.51,1.145L80.541,33c1.844,0.358,2.584.973,2.584,2.176,0,1.4-1.133,2.2-2.977,2.2C78.247,37.381,77.085,36.594,76.969,34.863Zm8.874,2.132a1.947,1.947,0,0,1-1.627,2.177l-0.145.028V38.441l0.1-.029a1.061,1.061,0,0,0,.8-1.117H84.884a0.752,0.752,0,0,1-.813-0.744,0.773,0.773,0,0,1,.813-0.772A1.008,1.008,0,0,1,85.842,36.995Zm11.152-9.977V37.21h-1.1V36.064a2.956,2.956,0,0,1-2.57,1.317c-2.105,0-3.484-1.5-3.484-3.865s1.379-3.865,3.484-3.865a2.956,2.956,0,0,1,2.512,1.231V27.018h1.161Zm-1.117,6.5c0-1.789-.959-2.834-2.411-2.834s-2.41,1.1-2.41,2.892,0.959,2.776,2.41,2.776S95.877,35.306,95.877,33.516Zm9.483,2.763V37.21a4.441,4.441,0,0,1-.639.043,1.07,1.07,0,0,1-1.263-1.06,2.76,2.76,0,0,1-2.439,1.188c-1.627,0-2.643-.772-2.643-2.161,0-1.16.712-2.076,2.773-2.29l1.075-.115A1.037,1.037,0,0,0,103.4,31.8c0-.773-0.406-1.16-1.685-1.16S99.9,31,99.829,32.1H98.667c0.087-1.432.857-2.448,3.048-2.448,2.077,0,2.817.9,2.817,2.148v4.122a0.342,0.342,0,0,0,.407.358h0.421ZM103.4,34.29V33.416a1.947,1.947,0,0,1-.987.315l-1.089.129c-1.365.157-1.743,0.615-1.743,1.331a1.236,1.236,0,0,0,1.5,1.217A2.14,2.14,0,0,0,103.4,34.29Zm4.5-3.465v4.8c0,0.387.189,0.63,0.857,0.63h0.682V37.21q-0.478.043-.828,0.043c-1.161,0-1.873-.4-1.873-1.532v-4.9h-1.233v-1h1.233v-2.09H107.9v2.09h1.539v1H107.9Zm9.323,5.454V37.21a4.441,4.441,0,0,1-.639.043,1.069,1.069,0,0,1-1.263-1.06,2.76,2.76,0,0,1-2.439,1.188c-1.627,0-2.643-.772-2.643-2.161,0-1.16.712-2.076,2.773-2.29l1.075-.115a1.036,1.036,0,0,0,1.175-1.016c0-.773-0.405-1.16-1.684-1.16s-1.814.359-1.887,1.461h-1.162c0.087-1.432.857-2.448,3.049-2.448,2.077,0,2.817.9,2.817,2.148v4.122a0.342,0.342,0,0,0,.407.358h0.421Zm-1.961-1.989V33.416a1.94,1.94,0,0,1-.986.315l-1.089.129c-1.366.157-1.743,0.615-1.743,1.331a1.235,1.235,0,0,0,1.495,1.217A2.14,2.14,0,0,0,115.265,34.29ZM127.7,36.279V37.21a4.441,4.441,0,0,1-.639.043,1.069,1.069,0,0,1-1.263-1.06,2.76,2.76,0,0,1-2.439,1.188c-1.627,0-2.643-.772-2.643-2.161,0-1.16.712-2.076,2.773-2.29l1.075-.115a1.036,1.036,0,0,0,1.175-1.016c0-.773-0.405-1.16-1.684-1.16s-1.814.359-1.887,1.461H121c0.087-1.432.857-2.448,3.049-2.448,2.077,0,2.817.9,2.817,2.148v4.122a0.342,0.342,0,0,0,.407.358H127.7Zm-1.961-1.989V33.416a1.941,1.941,0,0,1-.987.315l-1.088.129c-1.366.157-1.743,0.615-1.743,1.331a1.235,1.235,0,0,0,1.495,1.217A2.14,2.14,0,0,0,125.736,34.29Zm9.15-2.075v5h-1.161V32.328a1.494,1.494,0,0,0-1.714-1.646,2.115,2.115,0,0,0-2.062,2.348V37.21h-1.161V29.823h1.1v1.1a2.766,2.766,0,0,1,2.351-1.274A2.373,2.373,0,0,1,134.886,32.215Zm8.612-5.2V37.21h-1.1V36.064a2.955,2.955,0,0,1-2.569,1.317c-2.1,0-3.485-1.5-3.485-3.865s1.38-3.865,3.485-3.865a2.955,2.955,0,0,1,2.511,1.231V27.018H143.5Zm-1.118,6.5c0-1.789-.958-2.834-2.411-2.834s-2.41,1.1-2.41,2.892,0.959,2.776,2.41,2.776S142.38,35.306,142.38,33.516Zm7.51-2.691v4.8c0,0.387.188,0.63,0.856,0.63h0.682V37.21q-0.478.043-.827,0.043c-1.161,0-1.874-.4-1.874-1.532v-4.9h-1.233v-1h1.233v-2.09h1.163v2.09h1.538v1H149.89Zm9.234,3.092h-5.691c0.116,1.661,1,2.42,2.309,2.42a1.922,1.922,0,0,0,1.988-1.374h1.205a3.117,3.117,0,0,1-3.223,2.419c-2.047,0-3.484-1.475-3.484-3.865,0-2.318,1.379-3.865,3.455-3.865,2.236,0,3.441,1.746,3.441,3.865v0.4Zm-5.662-1.031h4.414A2.207,2.207,0,0,0,153.462,32.887Zm6.755,0.63c0-2.376,1.393-3.865,3.469-3.865a3.024,3.024,0,0,1,3.224,2.677H165.7a1.943,1.943,0,0,0-2.018-1.646c-1.277,0-2.251.9-2.251,2.834s1,2.834,2.251,2.834a1.961,1.961,0,0,0,2.033-1.674h1.191a3.078,3.078,0,0,1-3.224,2.7C161.639,37.381,160.217,35.892,160.217,33.516Zm14.1-1.3v5h-1.161V32.328a1.494,1.494,0,0,0-1.714-1.646,2.115,2.115,0,0,0-2.062,2.348V37.21h-1.161V27.018h1.161v3.822a2.773,2.773,0,0,1,2.294-1.188A2.373,2.373,0,0,1,174.317,32.215Zm1.6,4.251a0.851,0.851,0,0,1,1.7,0A0.85,0.85,0,0,1,175.916,36.465Z"/>
</svg>
