<svg id="Frame_3" data-name="Frame 3" xmlns="http://www.w3.org/2000/svg" width="300" height="250" viewBox="0 0 300 250">
  <defs>
    <style>
      .cls-1 {
        fill: #468424;
        fill-rule: evenodd;
      }
    </style>
  </defs>
  <path id="Learn_more" data-name="Learn more" class="cls-1" d="M124.325,223.3v-7H123.4v7.831h4.861V223.3h-3.938Zm9.585-2c0-1.628-.913-2.97-2.606-2.97-1.573,0-2.618,1.188-2.618,2.97a2.652,2.652,0,0,0,2.64,2.969,2.367,2.367,0,0,0,2.441-1.859h-0.913a1.457,1.457,0,0,1-1.506,1.056,1.7,1.7,0,0,1-1.749-1.858h4.311V221.3Zm-2.606-2.167a1.664,1.664,0,0,1,1.66,1.683h-3.343A1.669,1.669,0,0,1,131.3,219.136Zm8.256,4.289a0.26,0.26,0,0,1-.308-0.275v-3.167c0-.957-0.561-1.65-2.134-1.65-1.661,0-2.244.781-2.309,1.881h0.879c0.055-.847.462-1.122,1.43-1.122s1.276,0.3,1.276.891a0.79,0.79,0,0,1-.891.781l-0.814.088c-1.562.165-2.1,0.868-2.1,1.759,0,1.067.769,1.661,2,1.661a2.08,2.08,0,0,0,1.848-.913,0.814,0.814,0,0,0,.957.814,3.347,3.347,0,0,0,.484-0.033v-0.715H139.56Zm-2.926.1a0.94,0.94,0,0,1-1.133-.935c0-.55.286-0.9,1.32-1.022l0.825-.1a1.464,1.464,0,0,0,.748-0.242v0.67A1.63,1.63,0,0,1,136.634,223.524Zm6.715-5.147a1.982,1.982,0,0,0-1.826,1.089v-1h-0.836v5.675h0.88v-3.233a1.617,1.617,0,0,1,1.859-1.672h0.219v-0.847C143.524,218.377,143.437,218.377,143.349,218.377Zm3.749-.044a2.088,2.088,0,0,0-1.781.979v-0.847h-0.836v5.675h0.88v-3.211a1.615,1.615,0,0,1,1.561-1.8,1.138,1.138,0,0,1,1.3,1.265v3.75h0.88V220.3A1.81,1.81,0,0,0,147.1,218.333Zm10.967,0a1.96,1.96,0,0,0-1.749,1.067,1.777,1.777,0,0,0-1.749-1.067,1.823,1.823,0,0,0-1.639.968v-0.836h-0.836v5.675h0.88v-3.1c0-1.364.759-1.914,1.452-1.914a1.084,1.084,0,0,1,1.188,1.254v3.761h0.88v-3.1c0-1.364.737-1.914,1.452-1.914a1.08,1.08,0,0,1,1.188,1.254v3.761h0.879v-3.849A1.8,1.8,0,0,0,158.065,218.333Zm5.737,5.939a2.978,2.978,0,1,0-2.75-2.969A2.719,2.719,0,0,0,163.8,224.272Zm0-.792c-1.1,0-1.826-.8-1.826-2.177s0.726-2.178,1.826-2.178,1.825,0.8,1.825,2.178S164.9,223.48,163.8,223.48Zm6.456-5.1a1.982,1.982,0,0,0-1.825,1.089v-1H167.6v5.675h0.88v-3.233a1.617,1.617,0,0,1,1.858-1.672h0.22v-0.847C170.434,218.377,170.346,218.377,170.258,218.377Zm5.972,2.926c0-1.628-.913-2.97-2.607-2.97-1.573,0-2.617,1.188-2.617,2.97a2.651,2.651,0,0,0,2.639,2.969,2.368,2.368,0,0,0,2.442-1.859h-0.913a1.458,1.458,0,0,1-1.507,1.056,1.7,1.7,0,0,1-1.749-1.858h4.312V221.3Zm-2.607-2.167a1.664,1.664,0,0,1,1.661,1.683H171.94A1.669,1.669,0,0,1,173.623,219.136Z"/>
</svg>
