<svg id="HING" xmlns="http://www.w3.org/2000/svg" width="300" height="250" viewBox="0 0 300 250">
  <defs>
    <style>
      .cls-1 {
        fill: #fff;
        fill-rule: evenodd;
      }
    </style>
  </defs>
  <path id="Sign_up" data-name="Sign up" class="cls-1" d="M232.8,234.621c2.052,0,2.864-1.021,2.864-2.208,0-1.156-.75-1.812-2.124-2.1l-1.3-.281c-0.927-.2-1.292-0.531-1.292-1.125,0-.781.625-1.229,1.688-1.229a1.6,1.6,0,0,1,1.874,1.448h0.927c-0.114-1.437-1.125-2.239-2.77-2.239-1.708,0-2.635.854-2.635,2.1,0,1.187.875,1.687,2.083,1.937l1.041,0.218c1.156,0.24,1.573.625,1.573,1.323,0,0.844-.625,1.364-1.9,1.364a1.822,1.822,0,0,1-2.135-1.77h-0.927C229.894,233.777,230.945,234.621,232.8,234.621Zm4.23-6.54h0.958V227.05h-0.958v1.031Zm0,6.384h0.958v-5.374h-0.958v5.374Zm6.374-5.374v0.833a1.922,1.922,0,0,0-1.739-.948,2.421,2.421,0,0,0-2.322,2.718c0,1.667.885,2.885,2.343,2.885a1.975,1.975,0,0,0,1.687-.9v0.7a1.335,1.335,0,0,1-1.562,1.573,1.158,1.158,0,0,1-1.365-.812h-0.937c0.146,1.093,1.021,1.572,2.271,1.572a2.2,2.2,0,0,0,2.52-2.426v-5.2h-0.9Zm-1.624,4.666c-0.927,0-1.479-.813-1.479-2.063,0-1.228.572-1.895,1.5-1.895,0.9,0,1.542.646,1.542,1.916S242.674,233.757,241.779,233.757Zm6.885-4.8a2.048,2.048,0,0,0-1.8.9v-0.76h-0.9v5.374h0.959v-2.989a1.475,1.475,0,0,1,1.53-1.687,0.978,0.978,0,0,1,1.073,1.135v3.541h0.958v-3.729A1.654,1.654,0,0,0,248.664,228.955Zm9.864,0.136v2.989A1.475,1.475,0,0,1,257,233.767a0.978,0.978,0,0,1-1.073-1.135v-3.541h-0.958v3.728a1.654,1.654,0,0,0,1.823,1.781,2.046,2.046,0,0,0,1.8-.9v0.761h0.9v-5.374h-0.958Zm5.219-.115a1.936,1.936,0,0,0-1.76.979v-0.864h-0.833v7.5h0.958v-2.78a1.958,1.958,0,0,0,1.593.77c1.458,0,2.354-1.26,2.354-2.926A2.377,2.377,0,0,0,263.747,228.976Zm-0.136,4.781c-0.895,0-1.551-.771-1.551-2.042s0.656-1.916,1.551-1.916c0.927,0,1.49.625,1.49,1.854C265.1,232.9,264.538,233.757,263.611,233.757Z"/>
</svg>
