<svg id="Frame_3" data-name="Frame 3" xmlns="http://www.w3.org/2000/svg" width="300" height="250" viewBox="0 0 300 250">
  <defs>
    <style>
      .cls-1 {
        fill: #462b69;
        fill-rule: evenodd;
      }
    </style>
  </defs>
  <path id="_15_mo._" data-name="15/mo.*" class="cls-1" d="M58.059,124.992H54.837c-0.662,3.077-2.529,3.921-5.3,4.1l-0.482.03v2.865h4.938v14.477h4.065V124.992Zm10.98,7.359a6.1,6.1,0,0,0-3.914,1.418l0.933-5.339h9.213v-3.438H62.866l-1.987,12.516h3.734a4.178,4.178,0,1,1,3.764,6.153,3.818,3.818,0,0,1-4.035-3.318H60.458c0.3,4.1,3.583,6.605,7.919,6.605,4.727,0,8.009-2.986,8.009-7.449C76.386,135.7,73.977,132.351,69.039,132.351Zm8.432,14.115H78.76l2.694-7.535H80.165Zm10.367-5.588a1.969,1.969,0,0,0-1.69,1.016,1.723,1.723,0,0,0-1.69-1.016,1.773,1.773,0,0,0-1.553.91v-0.783H81.615v5.461h1.331V143.46a1.2,1.2,0,0,1,1.12-1.429,0.878,0.878,0,0,1,.951,1.038v3.4h1.321V143.46a1.2,1.2,0,0,1,1.13-1.429,0.871,0.871,0,0,1,.94,1.038v3.4H89.74v-3.609A1.787,1.787,0,0,0,87.838,140.878Zm5.472,5.715a2.859,2.859,0,1,0-2.779-2.858A2.649,2.649,0,0,0,93.31,146.593Zm0-1.1c-0.866,0-1.416-.6-1.416-1.757s0.55-1.756,1.416-1.756,1.416,0.6,1.416,1.756S94.165,145.492,93.31,145.492Zm4.125,1.069a0.858,0.858,0,1,0-.887-0.868A0.856,0.856,0,0,0,97.435,146.561Zm1.639-4.551,0.53-.716,0.529,0.716,0.413-.327-0.536-.734,0.863-.278-0.173-.494-0.832.266v-0.9h-0.53v0.9l-0.825-.266-0.172.494,0.862,0.278-0.542.734Z"/>
  <path id="Plans_from" data-name="Plans from" class="cls-1" d="M49.8,112.73H46.772v7.116h1.07v-2.628H49.8A2.252,2.252,0,1,0,49.8,112.73Zm-0.02,3.548H47.842V113.67h1.939A1.306,1.306,0,1,1,49.781,116.278Zm3.3,3.568h1V112.73h-1v7.116Zm6.675-.769a0.239,0.239,0,0,1-.28-0.26v-2.729c0-.9-0.56-1.519-2.039-1.519-1.549,0-2.129.69-2.189,1.729h0.989c0.05-.7.39-0.929,1.2-0.929s1.059,0.259,1.059.739a0.673,0.673,0,0,1-.77.65l-0.76.08c-1.439.14-1.939,0.769-1.939,1.6a1.569,1.569,0,0,0,1.839,1.529,1.883,1.883,0,0,0,1.679-.819,0.824,0.824,0,0,0,1,.729,3.9,3.9,0,0,0,.49-0.03v-0.769h-0.28Zm-2.739.11a0.8,0.8,0,0,1-.959-0.78c0-.46.25-0.75,1.079-0.85l0.72-.08a1.209,1.209,0,0,0,.64-0.209v0.539A1.355,1.355,0,0,1,57.015,119.187Zm6.389-4.618a1.909,1.909,0,0,0-1.619.89v-0.77h-0.96v5.157h1v-2.908a1.337,1.337,0,0,1,1.3-1.489,0.961,0.961,0,0,1,1.089,1.079v3.318h1v-3.458A1.654,1.654,0,0,0,63.4,114.569Zm4.959,5.407c1.349,0,2.159-.57,2.159-1.579,0-.86-0.53-1.3-1.789-1.539l-0.54-.09c-0.61-.12-0.959-0.29-0.959-0.73s0.35-.689,1-0.689a0.97,0.97,0,0,1,1.209.949h0.97c-0.03-1.089-.71-1.729-2.179-1.729-1.269,0-1.989.59-1.989,1.5,0,0.84.53,1.339,1.639,1.539l0.53,0.1c0.85,0.15,1.1.35,1.1,0.76,0,0.46-.33.72-1.139,0.72a1.02,1.02,0,0,1-1.269-.98h-1C66.175,119.436,66.985,119.976,68.364,119.976Zm7-6.436h0.45v-0.81c-0.14-.01-0.4-0.03-0.57-0.03a1.362,1.362,0,0,0-1.549,1.519v0.47H72.865v0.82h0.829v4.337h1v-4.337h1.079v-0.82H74.694v-0.47A0.6,0.6,0,0,1,75.364,113.54Zm3.8,1.069a1.711,1.711,0,0,0-1.609,1v-0.919h-0.96v5.157h1v-2.8a1.4,1.4,0,0,1,1.609-1.479h0.25v-0.95C79.339,114.609,79.249,114.609,79.159,114.609Zm1.467,4.656a2.329,2.329,0,0,0,1.76.7,2.54,2.54,0,0,0,1.252-.317,2.131,2.131,0,0,0,.874-0.891,3.434,3.434,0,0,0,.3-1.575,2.666,2.666,0,0,0-.679-1.936,2.327,2.327,0,0,0-1.748-.7,2.414,2.414,0,0,0-1.631.577,2.671,2.671,0,0,0-.8,2.133A2.788,2.788,0,0,0,80.626,119.265Zm0.667-3.5a1.449,1.449,0,0,1,2.18,0,2.141,2.141,0,0,1,.437,1.457,2.263,2.263,0,0,1-.434,1.519,1.447,1.447,0,0,1-2.183,0A2.773,2.773,0,0,1,81.293,115.764Zm10.194-1.195a1.8,1.8,0,0,0-1.6.97,1.61,1.61,0,0,0-1.589-.97,1.654,1.654,0,0,0-1.489.89v-0.77H85.85v5.157h1v-2.828a1.322,1.322,0,0,1,1.209-1.569,0.915,0.915,0,0,1,1,1.069v3.328h1v-2.828a1.312,1.312,0,0,1,1.209-1.569,0.908,0.908,0,0,1,.989,1.069v3.328h1.01v-3.458A1.664,1.664,0,0,0,91.487,114.569Z"/>
  <path id="_" data-name="$" class="cls-1" d="M47.78,133.416c0-1.809-1.088-2.85-3.778-3.378l-0.368-.064v-3.169a1.789,1.789,0,0,1,1.713,1.857h2.1c-0.08-1.953-1.2-3.362-3.809-3.618v-1.633H42.482v1.6c-2.529.112-3.906,1.409-3.906,3.217,0,2.065,1.457,3.042,3.665,3.458l0.24,0.048v3.393a2.063,2.063,0,0,1-2.065-2.225H38.288c0.016,2.417,1.569,3.794,4.194,3.986v1.633h1.152v-1.617C46.211,136.777,47.78,135.544,47.78,133.416Zm-6.995-5.251c0-.784.56-1.312,1.7-1.392v2.945C41.2,129.4,40.785,128.982,40.785,128.165Zm2.849,7v-3.185c1.409,0.336,1.9.736,1.9,1.553C45.539,134.5,44.867,135.064,43.634,135.16Z"/>
</svg>
