<svg id="HING" xmlns="http://www.w3.org/2000/svg" width="300" height="250" viewBox="0 0 300 250">
  <defs>
    <style>
      .cls-1 {
        fill: #4d4d4f;
        fill-rule: evenodd;
      }
    </style>
  </defs>
  <path id="_On_a_2-year_term._Conditions_apply." data-name="*On a 2-year term. Conditions apply." class="cls-1" d="M115.924,228.879l0.7-1.042,0.7,1.042,0.492-.342-0.784-.983,1.184-.375L118,226.637l-1.125.467,0.041-1.192h-0.592l0.042,1.192-1.125-.467-0.217.542,1.184,0.375-0.809.983Zm5.971,3.107a3.106,3.106,0,1,0-2.8-3.107A2.831,2.831,0,0,0,121.9,231.986Zm0.009-.691c-1.184,0-2.018-.942-2.018-2.416a2.042,2.042,0,1,1,4.027,0C123.913,230.37,123.1,231.3,121.9,231.3Zm6.133-3.858a1.636,1.636,0,0,0-1.442.717v-0.609h-0.717v4.3h0.767v-2.392a1.18,1.18,0,0,1,1.225-1.349,0.782,0.782,0,0,1,.859.908v2.833H129.5v-2.983A1.324,1.324,0,0,0,128.037,227.437Zm8.921,3.841a0.309,0.309,0,0,1-.375-0.375v-2.116c0-.942-0.617-1.375-1.684-1.375a1.5,1.5,0,0,0-1.793,1.4h0.759a0.789,0.789,0,0,1,.975-0.767c0.667,0,.967.217,0.967,0.667V228.9a0.3,0.3,0,0,1-.308.325l-1.1.142a1.363,1.363,0,0,0-1.467,1.341,1.254,1.254,0,0,0,1.442,1.25,1.825,1.825,0,0,0,1.559-.741,0.642,0.642,0,0,0,.742.633h0.409v-0.567h-0.125Zm-2.443.084a0.708,0.708,0,0,1-.825-0.692,0.775,0.775,0,0,1,.833-0.742l1.284-.191v0.6A1.208,1.208,0,0,1,134.515,231.362Zm5.753,0.483h3.943v-0.7h-2.993c0.051-.45.3-0.708,1.159-1.25l0.742-.467a2.068,2.068,0,0,0,1.126-1.816,1.735,1.735,0,0,0-1.9-1.766,1.841,1.841,0,0,0-1.959,1.974v0.125h0.775v-0.091a1.123,1.123,0,0,1,1.167-1.317,1.038,1.038,0,0,1,1.142,1.108,1.383,1.383,0,0,1-.808,1.234l-1.034.641A2.657,2.657,0,0,0,140.268,231.845Zm4.754-1.733h2.335V229.42h-2.335v0.692Zm6.053-2.567-1.242,3.483-0.092-.516-1.117-2.967H147.79l1.734,4.258-0.2.525a0.666,0.666,0,0,1-.717.575h-0.4v0.642h0.475a1.1,1.1,0,0,0,1.184-.859l2-5.141h-0.792Zm5.187,2.05a1.91,1.91,0,0,0-1.967-2.15,1.994,1.994,0,0,0-2.026,2.233,2.03,2.03,0,0,0,2.043,2.267,1.889,1.889,0,0,0,1.917-1.4l-0.7-.083a1.162,1.162,0,0,1-1.192.858,1.264,1.264,0,0,1-1.3-1.442h3.226V229.6ZM154.3,228.07a1.225,1.225,0,0,1,1.242,1.258h-2.5A1.219,1.219,0,0,1,154.3,228.07Zm6.763,3.208a0.309,0.309,0,0,1-.376-0.375v-2.116c0-.942-0.616-1.375-1.684-1.375a1.5,1.5,0,0,0-1.792,1.4h0.759a0.789,0.789,0,0,1,.975-0.767c0.667,0,.967.217,0.967,0.667V228.9a0.3,0.3,0,0,1-.308.325l-1.1.142a1.363,1.363,0,0,0-1.467,1.341,1.254,1.254,0,0,0,1.442,1.25,1.825,1.825,0,0,0,1.559-.741,0.642,0.642,0,0,0,.742.633h0.409v-0.567h-0.125Zm-2.443.084a0.708,0.708,0,0,1-.825-0.692,0.775,0.775,0,0,1,.833-0.742l1.284-.191v0.6A1.208,1.208,0,0,1,158.623,231.362Zm5.49-3.933a1.488,1.488,0,0,0-1.4.983v-0.867H162v4.3h0.767V229.5A1.273,1.273,0,0,1,164,228.179c0.1,0,.184,0,0.276.008v-0.75A1.013,1.013,0,0,0,164.113,227.429Zm4.361,0.675,0.983,0.033v-0.592l-0.983.034v-1.35h-0.767v1.341l-0.642-.025v0.592l0.642-.033v2.783a0.826,0.826,0,0,0,.958.958h0.784V231.2h-0.558a0.342,0.342,0,0,1-.417-0.416V228.1Zm5.485,1.491a1.91,1.91,0,0,0-1.967-2.15,1.994,1.994,0,0,0-2.026,2.233,2.03,2.03,0,0,0,2.043,2.267,1.889,1.889,0,0,0,1.917-1.4l-0.7-.083a1.162,1.162,0,0,1-1.192.858,1.264,1.264,0,0,1-1.3-1.442h3.226V229.6ZM172,228.07a1.226,1.226,0,0,1,1.243,1.258h-2.5A1.218,1.218,0,0,1,172,228.07Zm5.095-.641a1.488,1.488,0,0,0-1.4.983v-0.867h-0.717v4.3h0.767V229.5a1.273,1.273,0,0,1,1.234-1.316c0.1,0,.183,0,0.275.008v-0.75A0.994,0.994,0,0,0,177.1,227.429Zm5.488,0.008a1.456,1.456,0,0,0-1.367.75,1.174,1.174,0,0,0-1.192-.75,1.43,1.43,0,0,0-1.309.742l0.033-.634h-0.734v4.3h0.767v-2.292c0-1.108.551-1.449,1.051-1.449a0.705,0.705,0,0,1,.742.8v2.941h0.767v-2.333c0-1.108.55-1.408,1.05-1.408a0.705,0.705,0,0,1,.742.8v2.941H183.9V228.9A1.234,1.234,0,0,0,182.583,227.437Zm3.093,4.533a0.509,0.509,0,1,0-.534-0.508A0.5,0.5,0,0,0,185.676,231.97Zm-65.39,10.016a2.427,2.427,0,0,0,2.509-2.3h-0.766a1.644,1.644,0,0,1-1.718,1.608c-1.209,0-1.917-.933-1.917-2.416s0.717-2.384,1.917-2.384a1.537,1.537,0,0,1,1.617,1.209h0.792a2.324,2.324,0,0,0-2.442-1.9c-1.634,0-2.676,1.258-2.676,3.075C117.6,240.678,118.619,241.986,120.286,241.986Zm5.4-.033a2.1,2.1,0,0,0,2.076-2.291,2.024,2.024,0,0,0-2.051-2.225A2.266,2.266,0,0,0,125.685,241.953Zm0-.641a1.655,1.655,0,0,1,0-3.233,1.346,1.346,0,0,1,1.309,1.583A1.4,1.4,0,0,1,125.685,241.312Zm5.239-3.875a1.637,1.637,0,0,0-1.442.717v-0.609h-0.717v4.3h0.767v-2.392a1.18,1.18,0,0,1,1.225-1.349,0.782,0.782,0,0,1,.859.908v2.833h0.767v-2.983A1.324,1.324,0,0,0,130.924,237.437Zm5.623-1.525v2.15a1.577,1.577,0,0,0-1.3-.608,1.937,1.937,0,0,0-1.859,2.174c0,1.334.709,2.308,1.876,2.308a1.571,1.571,0,0,0,1.384-.774v0.683h0.667v-5.933h-0.767Zm-1.209,5.366c-0.742,0-1.184-.65-1.184-1.65a1.26,1.26,0,0,1,1.2-1.516,1.291,1.291,0,0,1,1.233,1.533A1.4,1.4,0,0,1,135.338,241.278Zm3.652-4.466a0.481,0.481,0,0,0,.5-0.5,0.5,0.5,0,0,0-1.009,0A0.484,0.484,0,0,0,138.99,236.812Zm-0.384,5.033h0.767v-4.3h-0.767v4.3Zm3.079-3.741,0.983,0.033v-0.592l-0.983.034v-1.35h-0.767v1.341l-0.642-.025v0.592l0.642-.033v2.783a0.826,0.826,0,0,0,.958.958h0.784V241.2H142.1a0.342,0.342,0,0,1-.416-0.416V238.1Zm2.242-1.292a0.482,0.482,0,0,0,.5-0.5,0.5,0.5,0,0,0-1.009,0A0.483,0.483,0,0,0,143.927,236.812Zm-0.383,5.033h0.767v-4.3h-0.767v4.3Zm3.858,0.108a2.1,2.1,0,0,0,2.075-2.291,2.023,2.023,0,0,0-2.05-2.225A2.266,2.266,0,0,0,147.4,241.953Zm0-.641a1.655,1.655,0,0,1,0-3.233,1.345,1.345,0,0,1,1.308,1.583A1.4,1.4,0,0,1,147.4,241.312Zm5.239-3.875a1.636,1.636,0,0,0-1.442.717v-0.609h-0.717v4.3h0.767v-2.392a1.18,1.18,0,0,1,1.225-1.349,0.782,0.782,0,0,1,.859.908v2.833H154.1v-2.983A1.324,1.324,0,0,0,152.641,237.437Zm4.186,4.516c1.134,0,1.792-.516,1.792-1.358a1.259,1.259,0,0,0-1.258-1.217l-0.834-.183c-0.509-.108-0.667-0.3-0.667-0.575,0-.383.325-0.566,0.867-0.566a0.87,0.87,0,0,1,1.017.741H158.5a1.527,1.527,0,0,0-1.751-1.35c-1.059,0-1.6.492-1.6,1.242a1.194,1.194,0,0,0,1.193,1.166l0.867,0.184a0.661,0.661,0,0,1,.675.625c0,0.408-.325.675-1.026,0.675a0.922,0.922,0,0,1-1.092-.85h-0.733A1.549,1.549,0,0,0,156.827,241.953Zm8.879-.675a0.309,0.309,0,0,1-.375-0.375v-2.116c0-.942-0.617-1.375-1.684-1.375a1.5,1.5,0,0,0-1.792,1.4h0.758a0.789,0.789,0,0,1,.976-0.767c0.667,0,.967.217,0.967,0.667V238.9a0.3,0.3,0,0,1-.309.325l-1.1.142a1.363,1.363,0,0,0-1.467,1.341,1.254,1.254,0,0,0,1.442,1.25,1.827,1.827,0,0,0,1.559-.741,0.641,0.641,0,0,0,.742.633h0.408v-0.567h-0.125Zm-2.442.084a0.708,0.708,0,0,1-.826-0.692,0.776,0.776,0,0,1,.834-0.742l1.284-.191v0.6A1.208,1.208,0,0,1,163.264,241.362Zm5.448-3.908a1.549,1.549,0,0,0-1.409.783v-0.692h-0.667v6H167.4V241.32a1.567,1.567,0,0,0,1.276.616c1.167,0,1.884-1.008,1.884-2.341A1.9,1.9,0,0,0,168.712,237.454Zm-0.108,3.824a1.39,1.39,0,0,1-1.242-1.633,1.3,1.3,0,0,1,1.242-1.533A1.225,1.225,0,0,1,169.8,239.6C169.8,240.6,169.346,241.278,168.6,241.278Zm5.052-3.824a1.55,1.55,0,0,0-1.409.783v-0.692H171.58v6h0.767V241.32a1.568,1.568,0,0,0,1.276.616c1.167,0,1.884-1.008,1.884-2.341A1.9,1.9,0,0,0,173.656,237.454Zm-0.108,3.824a1.39,1.39,0,0,1-1.242-1.633,1.3,1.3,0,0,1,1.242-1.533,1.225,1.225,0,0,1,1.192,1.483C174.74,240.6,174.29,241.278,173.548,241.278Zm2.986,0.567H177.3v-5.933h-0.767v5.933Zm4.848-4.3-1.242,3.483-0.092-.516-1.117-2.967H178.1l1.734,4.258-0.2.525a0.666,0.666,0,0,1-.717.575h-0.4v0.642h0.475a1.1,1.1,0,0,0,1.184-.859l2-5.141h-0.792Zm1.582,4.425a0.509,0.509,0,1,0-.533-0.508A0.5,0.5,0,0,0,182.964,241.97Z"/>
</svg>
