<svg id="Frame_1" data-name="Frame 1" xmlns="http://www.w3.org/2000/svg" width="300" height="250" viewBox="0 0 300 250">
  <defs>
    <style>
      .cls-1 {
        fill: #fff;
        fill-rule: evenodd;
      }
    </style>
  </defs>
  <path id="Komportable_at_maliwanag_na_ang_bahay_mas_energy_efficient_pa." data-name="Komportable at maliwanag na ang bahay, mas energy efficient pa." class="cls-1" d="M36.806,60.471H34.919l-6.612,6.357V60.471H26.88v12.1h1.428V68.545L30.6,66.352l4.453,6.221h1.751L31.639,65.4Zm4.411,12.306c2.464,0,4.249-1.785,4.249-4.589S43.681,63.6,41.217,63.6s-4.249,1.785-4.249,4.589S38.752,72.777,41.217,72.777Zm0-1.224c-1.7,0-2.822-1.241-2.822-3.365s1.122-3.365,2.822-3.365,2.821,1.241,2.821,3.365S42.916,71.553,41.217,71.553ZM56.312,63.6a3.029,3.029,0,0,0-2.7,1.649,2.746,2.746,0,0,0-2.7-1.649,2.817,2.817,0,0,0-2.532,1.5V63.8H47.082v8.77h1.36V67.78c0-2.108,1.173-2.957,2.244-2.957a1.675,1.675,0,0,1,1.836,1.938v5.813h1.36V67.78c0-2.108,1.139-2.957,2.244-2.957A1.669,1.669,0,0,1,57.96,66.76v5.813h1.36V66.624A2.788,2.788,0,0,0,56.312,63.6Zm9.351,0a3.448,3.448,0,0,0-3.008,1.564V63.8H61.362V75.9h1.36V71.315a3.445,3.445,0,0,0,2.94,1.462c2.465,0,4.079-1.785,4.079-4.589S68.127,63.6,65.662,63.6Zm-0.17,7.954c-1.7,0-2.822-1.241-2.822-3.365s1.122-3.365,2.822-3.365,2.821,1.173,2.821,3.3S67.192,71.553,65.492,71.553ZM75.2,72.777c2.465,0,4.249-1.785,4.249-4.589S77.664,63.6,75.2,63.6s-4.249,1.785-4.249,4.589S72.735,72.777,75.2,72.777Zm0-1.224c-1.7,0-2.822-1.241-2.822-3.365S73.5,64.823,75.2,64.823s2.821,1.241,2.821,3.365S76.9,71.553,75.2,71.553Zm9.979-7.886a3.063,3.063,0,0,0-2.822,1.683V63.8H81.065v8.77h1.36v-5c0-1.7,1.122-2.583,2.873-2.583h0.34V63.684C85.45,63.667,85.314,63.667,85.178,63.667Zm5.972,1.326V63.8h-1.8V61.321h-1.36V63.8H86.544v1.19h1.445v5.813c0,1.343.833,1.819,2.192,1.819q0.408,0,.969-0.051V71.434h-0.8c-0.782,0-1-.289-1-0.748V64.993h1.8Zm8.632,6.476a0.4,0.4,0,0,1-.476-0.425V66.148c0-1.479-.867-2.55-3.3-2.55-2.567,0-3.467,1.207-3.569,2.906H93.8c0.085-1.309.714-1.734,2.21-1.734s1.972,0.459,1.972,1.377c0,0.782-.493,1.1-1.377,1.207l-1.258.136c-2.414.255-3.246,1.343-3.246,2.719,0,1.649,1.19,2.567,3.093,2.567a3.215,3.215,0,0,0,2.855-1.411,1.258,1.258,0,0,0,1.479,1.258,5.174,5.174,0,0,0,.748-0.051v-1.1H99.782Zm-4.521.153c-1.207,0-1.751-.578-1.751-1.445,0-.85.442-1.394,2.04-1.581l1.275-.153a2.262,2.262,0,0,0,1.156-.374v1.037A2.519,2.519,0,0,1,95.261,71.621ZM105.819,63.6a3.444,3.444,0,0,0-2.94,1.462V60.471h-1.36v12.1h1.292v-1.36a3.447,3.447,0,0,0,3.008,1.564c2.465,0,4.079-1.785,4.079-4.589S108.284,63.6,105.819,63.6Zm-0.17,7.954c-1.7,0-2.821-1.241-2.821-3.365s1.121-3.365,2.821-3.365,2.822,1.173,2.822,3.3S107.349,71.553,105.649,71.553Zm7.826,1.071a8.623,8.623,0,0,0,.866-0.051V71.434H113.7a0.681,0.681,0,0,1-.833-0.748V60.471H111.5V70.805C111.5,72.148,112.251,72.624,113.475,72.624Zm9.447-4.436c0-2.516-1.411-4.589-4.028-4.589-2.431,0-4.045,1.836-4.045,4.589,0,2.838,1.682,4.589,4.079,4.589A3.659,3.659,0,0,0,122.7,69.9H121.29a2.252,2.252,0,0,1-2.328,1.632c-1.53,0-2.567-.9-2.7-2.873h6.663V68.188Zm-4.028-3.348a2.571,2.571,0,0,1,2.566,2.6h-5.167C116.514,65.706,117.517,64.84,118.894,64.84Zm15.4,6.629a0.4,0.4,0,0,1-.476-0.425V66.148c0-1.479-.867-2.55-3.3-2.55-2.567,0-3.468,1.207-3.57,2.906h1.36c0.085-1.309.714-1.734,2.21-1.734s1.971,0.459,1.971,1.377c0,0.782-.493,1.1-1.376,1.207l-1.258.136c-2.414.255-3.247,1.343-3.247,2.719,0,1.649,1.19,2.567,3.094,2.567a3.214,3.214,0,0,0,2.855-1.411,1.258,1.258,0,0,0,1.479,1.258,5.173,5.173,0,0,0,.748-0.051v-1.1h-0.493Zm-4.521.153c-1.207,0-1.751-.578-1.751-1.445,0-.85.442-1.394,2.04-1.581l1.274-.153a2.263,2.263,0,0,0,1.156-.374v1.037A2.518,2.518,0,0,1,129.774,71.621Zm9.863-6.629V63.8h-1.8V61.321h-1.359V63.8h-1.445v1.19h1.445v5.813c0,1.343.832,1.819,2.192,1.819q0.408,0,.969-0.051V71.434h-0.8c-0.782,0-1-.289-1-0.748V64.993h1.8ZM152.9,63.6a3.03,3.03,0,0,0-2.7,1.649,2.746,2.746,0,0,0-2.7-1.649,2.818,2.818,0,0,0-2.533,1.5V63.8h-1.292v8.77h1.36V67.78c0-2.108,1.173-2.957,2.244-2.957A1.675,1.675,0,0,1,149.1,66.76v5.813h1.36V67.78c0-2.108,1.139-2.957,2.244-2.957a1.669,1.669,0,0,1,1.835,1.938v5.813h1.36V66.624A2.788,2.788,0,0,0,152.9,63.6Zm12.253,7.87a0.4,0.4,0,0,1-.476-0.425V66.148c0-1.479-.867-2.55-3.3-2.55-2.566,0-3.467,1.207-3.569,2.906h1.36c0.085-1.309.714-1.734,2.209-1.734s1.972,0.459,1.972,1.377c0,0.782-.493,1.1-1.377,1.207l-1.257.136c-2.414.255-3.247,1.343-3.247,2.719,0,1.649,1.19,2.567,3.094,2.567a3.215,3.215,0,0,0,2.855-1.411,1.258,1.258,0,0,0,1.479,1.258,5.173,5.173,0,0,0,.748-0.051v-1.1h-0.493Zm-4.521.153c-1.207,0-1.751-.578-1.751-1.445,0-.85.442-1.394,2.04-1.581l1.274-.153a2.263,2.263,0,0,0,1.156-.374v1.037A2.519,2.519,0,0,1,160.627,71.621Zm8.146,1a8.642,8.642,0,0,0,.867-0.051V71.434h-0.646a0.681,0.681,0,0,1-.833-0.748V60.471H166.8V70.805C166.8,72.148,167.549,72.624,168.773,72.624Zm2.681-10.062a0.918,0.918,0,1,0-.918-0.918A0.925,0.925,0,0,0,171.454,62.562Zm-0.68,10.011h1.36V63.8h-1.36v8.77Zm14.044-8.77-1.241,3.96c-0.323,1.054-.646,2.108-0.935,3.161-0.306-1.054-.629-2.108-0.952-3.161l-1.224-3.96h-1.427l-1.224,3.96c-0.34,1.071-.646,2.125-0.935,3.2-0.306-1.071-.612-2.125-0.952-3.2l-1.24-3.96h-1.462l2.923,8.77h1.428l1.275-4.062c0.306-.969.612-1.989,0.9-2.974,0.272,0.986.577,2.006,0.883,2.974l1.292,4.062h1.428l2.923-8.77h-1.461Zm9.547,7.666a0.4,0.4,0,0,1-.475-0.425V66.148c0-1.479-.867-2.55-3.3-2.55-2.566,0-3.467,1.207-3.569,2.906h1.36c0.085-1.309.713-1.734,2.209-1.734s1.972,0.459,1.972,1.377c0,0.782-.493,1.1-1.377,1.207l-1.258.136c-2.413.255-3.246,1.343-3.246,2.719,0,1.649,1.19,2.567,3.093,2.567a3.215,3.215,0,0,0,2.856-1.411,1.257,1.257,0,0,0,1.478,1.258,5.173,5.173,0,0,0,.748-0.051v-1.1h-0.493Zm-4.521.153c-1.206,0-1.75-.578-1.75-1.445,0-.85.442-1.394,2.039-1.581l1.275-.153a2.263,2.263,0,0,0,1.156-.374v1.037A2.519,2.519,0,0,1,189.844,71.621Zm10.3-8.022a3.232,3.232,0,0,0-2.754,1.513V63.8H196.1v8.77h1.36V67.61a2.5,2.5,0,0,1,2.414-2.787,1.759,1.759,0,0,1,2,1.955v5.8h1.36V66.641A2.8,2.8,0,0,0,200.148,63.6Zm12.319,7.87a0.4,0.4,0,0,1-.476-0.425V66.148c0-1.479-.867-2.55-3.3-2.55-2.567,0-3.468,1.207-3.57,2.906h1.36c0.085-1.309.714-1.734,2.21-1.734s1.971,0.459,1.971,1.377c0,0.782-.493,1.1-1.377,1.207l-1.257.136c-2.414.255-3.247,1.343-3.247,2.719,0,1.649,1.19,2.567,3.094,2.567a3.215,3.215,0,0,0,2.855-1.411,1.258,1.258,0,0,0,1.479,1.258,5.173,5.173,0,0,0,.748-0.051v-1.1h-0.493Zm-4.521.153c-1.207,0-1.751-.578-1.751-1.445,0-.85.442-1.394,2.04-1.581l1.274-.153a2.263,2.263,0,0,0,1.156-.374v1.037A2.519,2.519,0,0,1,207.946,71.621ZM220.737,63.8v1.275a3.539,3.539,0,0,0-3.008-1.479c-2.465,0-4.079,1.785-4.079,4.589s1.614,4.589,4.079,4.589a3.542,3.542,0,0,0,2.94-1.394v0.85a2.426,2.426,0,0,1-2.719,2.72c-1.377,0-2.21-.561-2.38-1.666h-1.359c0.187,1.7,1.495,2.822,3.739,2.822,2.77,0,4.079-1.6,4.079-3.875V63.8h-1.292Zm-2.838,7.75c-1.7,0-2.822-1.309-2.822-3.365s1.122-3.365,2.822-3.365,2.821,1.241,2.821,3.365S219.6,71.553,217.9,71.553ZM230.7,63.6a3.232,3.232,0,0,0-2.754,1.513V63.8h-1.292v8.77h1.36V67.61a2.5,2.5,0,0,1,2.414-2.787,1.759,1.759,0,0,1,2,1.955v5.8h1.36V66.641A2.8,2.8,0,0,0,230.7,63.6Zm12.319,7.87a0.4,0.4,0,0,1-.476-0.425V66.148c0-1.479-.867-2.55-3.3-2.55-2.567,0-3.468,1.207-3.57,2.906h1.36c0.085-1.309.714-1.734,2.21-1.734s1.971,0.459,1.971,1.377c0,0.782-.493,1.1-1.377,1.207l-1.257.136c-2.414.255-3.247,1.343-3.247,2.719,0,1.649,1.19,2.567,3.094,2.567a3.215,3.215,0,0,0,2.855-1.411,1.258,1.258,0,0,0,1.479,1.258,5.173,5.173,0,0,0,.748-0.051v-1.1h-0.493Zm-4.521.153c-1.207,0-1.751-.578-1.751-1.445,0-.85.442-1.394,2.04-1.581l1.274-.153a2.263,2.263,0,0,0,1.156-.374v1.037A2.519,2.519,0,0,1,238.5,71.621Zm15.962-.153a0.4,0.4,0,0,1-.476-0.425V66.148c0-1.479-.867-2.55-3.3-2.55-2.566,0-3.467,1.207-3.569,2.906h1.36c0.085-1.309.714-1.734,2.209-1.734s1.972,0.459,1.972,1.377c0,0.782-.493,1.1-1.377,1.207l-1.258.136c-2.413.255-3.246,1.343-3.246,2.719,0,1.649,1.19,2.567,3.093,2.567a3.215,3.215,0,0,0,2.856-1.411,1.258,1.258,0,0,0,1.479,1.258,5.159,5.159,0,0,0,.747-0.051v-1.1H254.46Zm-4.522.153c-1.206,0-1.75-.578-1.75-1.445,0-.85.442-1.394,2.039-1.581l1.275-.153a2.263,2.263,0,0,0,1.156-.374v1.037A2.519,2.519,0,0,1,249.938,71.621Zm10.3-8.022a3.232,3.232,0,0,0-2.754,1.513V63.8H256.2v8.77h1.359V67.61a2.5,2.5,0,0,1,2.414-2.787,1.758,1.758,0,0,1,2,1.955v5.8h1.36V66.641A2.8,2.8,0,0,0,260.242,63.6Zm11.8,0.2v1.275a3.54,3.54,0,0,0-3.008-1.479c-2.465,0-4.079,1.785-4.079,4.589s1.614,4.589,4.079,4.589a3.544,3.544,0,0,0,2.94-1.394v0.85a2.427,2.427,0,0,1-2.719,2.72c-1.377,0-2.21-.561-2.38-1.666h-1.36c0.187,1.7,1.5,2.822,3.74,2.822,2.77,0,4.079-1.6,4.079-3.875V63.8h-1.292Zm-2.838,7.75c-1.7,0-2.822-1.309-2.822-3.365s1.122-3.365,2.822-3.365,2.821,1.241,2.821,3.365S270.9,71.553,269.2,71.553ZM44.433,82.6a3.445,3.445,0,0,0-2.94,1.462V79.471h-1.36v12.1h1.292v-1.36a3.447,3.447,0,0,0,3.008,1.564c2.464,0,4.079-1.785,4.079-4.589S46.9,82.6,44.433,82.6Zm-0.17,7.954c-1.7,0-2.821-1.241-2.821-3.365s1.122-3.365,2.821-3.365,2.822,1.173,2.822,3.3S45.963,90.553,44.263,90.553Zm13.018-.085a0.4,0.4,0,0,1-.476-0.425V85.148c0-1.479-.867-2.55-3.3-2.55-2.567,0-3.467,1.207-3.569,2.906H51.3c0.085-1.309.714-1.734,2.21-1.734s1.972,0.459,1.972,1.377c0,0.782-.493,1.1-1.377,1.207l-1.258.136c-2.414.255-3.246,1.343-3.246,2.719,0,1.649,1.19,2.567,3.093,2.567a3.215,3.215,0,0,0,2.855-1.411,1.258,1.258,0,0,0,1.479,1.258,5.171,5.171,0,0,0,.748-0.051v-1.1H57.281Zm-4.521.153c-1.207,0-1.751-.578-1.751-1.445,0-.85.442-1.394,2.04-1.581l1.275-.153a2.262,2.262,0,0,0,1.156-.374v1.037A2.519,2.519,0,0,1,52.76,90.621Zm10.3-8.022a3.231,3.231,0,0,0-2.685,1.411V79.471h-1.36v12.1h1.36V86.61a2.5,2.5,0,0,1,2.414-2.787A1.759,1.759,0,0,1,64.8,85.777v5.8h1.36V85.641A2.8,2.8,0,0,0,63.063,82.6Zm12.319,7.87a0.4,0.4,0,0,1-.476-0.425V85.148c0-1.479-.867-2.55-3.3-2.55-2.567,0-3.467,1.207-3.569,2.906H69.4c0.085-1.309.714-1.734,2.21-1.734s1.972,0.459,1.972,1.377c0,0.782-.493,1.1-1.377,1.207l-1.258.136c-2.413.255-3.246,1.343-3.246,2.719,0,1.649,1.19,2.567,3.093,2.567a3.215,3.215,0,0,0,2.855-1.411,1.258,1.258,0,0,0,1.479,1.258,5.171,5.171,0,0,0,.748-0.051v-1.1H75.383Zm-4.521.153c-1.207,0-1.751-.578-1.751-1.445,0-.85.442-1.394,2.04-1.581l1.275-.153a2.262,2.262,0,0,0,1.156-.374v1.037A2.519,2.519,0,0,1,70.861,90.621ZM82.32,82.8L81.08,86.44c-0.442,1.275-.867,2.549-1.258,3.807-0.408-1.258-.816-2.515-1.258-3.79L77.323,82.8h-1.5l3.3,9.059c-0.1.272-.2,0.561-0.306,0.816a1.536,1.536,0,0,1-1.6,1.088h-0.8V94.9a6.779,6.779,0,0,0,.816.051,2.65,2.65,0,0,0,2.855-2.006L83.8,82.8H82.32ZM83.8,89.873v1.7h0.748v0.272A0.95,0.95,0,0,1,83.923,93l-0.119.017v0.918l0.17-.017c1-.1,1.547-0.714,1.547-2.193V89.873H83.8ZM99.119,82.6a3.029,3.029,0,0,0-2.7,1.649,2.746,2.746,0,0,0-2.7-1.649,2.817,2.817,0,0,0-2.532,1.5V82.8H89.889v8.77h1.36V86.78c0-2.108,1.173-2.957,2.244-2.957a1.675,1.675,0,0,1,1.836,1.938v5.813h1.36V86.78c0-2.108,1.139-2.957,2.243-2.957a1.669,1.669,0,0,1,1.835,1.938v5.813h1.36V85.624A2.788,2.788,0,0,0,99.119,82.6Zm12.252,7.87a0.4,0.4,0,0,1-.476-0.425V85.148c0-1.479-.867-2.55-3.3-2.55-2.567,0-3.468,1.207-3.57,2.906h1.36c0.085-1.309.714-1.734,2.21-1.734s1.971,0.459,1.971,1.377c0,0.782-.493,1.1-1.377,1.207l-1.257.136c-2.414.255-3.247,1.343-3.247,2.719,0,1.649,1.19,2.567,3.094,2.567a3.215,3.215,0,0,0,2.855-1.411,1.258,1.258,0,0,0,1.479,1.258,5.173,5.173,0,0,0,.748-0.051v-1.1h-0.493Zm-4.521.153c-1.207,0-1.751-.578-1.751-1.445,0-.85.442-1.394,2.04-1.581l1.274-.153a2.263,2.263,0,0,0,1.156-.374v1.037A2.519,2.519,0,0,1,106.85,90.621Zm9.4,1.156c2.159,0,3.484-.952,3.484-2.618,0-1.428-.867-2.159-3.025-2.584l-0.782-.153c-1.122-.221-1.768-0.527-1.768-1.36,0-.816.663-1.292,1.836-1.292,1.343,0,2.142.374,2.21,1.734h1.359c-0.034-1.87-1.223-2.906-3.569-2.906-2.006,0-3.195.986-3.195,2.481,0,1.36.832,2.227,2.736,2.584l0.816,0.153c1.53,0.289,2.006.646,2.006,1.428,0,0.867-.629,1.36-2.108,1.36-1.547,0-2.193-.493-2.346-1.819h-1.376C112.668,90.842,114.027,91.777,116.254,91.777Zm15.078-4.589c0-2.516-1.411-4.589-4.028-4.589-2.431,0-4.046,1.836-4.046,4.589,0,2.838,1.683,4.589,4.08,4.589a3.659,3.659,0,0,0,3.773-2.872H129.7a2.253,2.253,0,0,1-2.328,1.632c-1.53,0-2.567-.9-2.7-2.872h6.663V87.188ZM127.3,83.84a2.572,2.572,0,0,1,2.566,2.6H124.7C124.924,84.706,125.927,83.84,127.3,83.84Zm9.689-1.241a3.231,3.231,0,0,0-2.753,1.513V82.8h-1.292v8.77h1.36V86.61a2.5,2.5,0,0,1,2.413-2.787,1.759,1.759,0,0,1,2.006,1.955v5.8h1.36V85.641A2.8,2.8,0,0,0,136.993,82.6Zm12.753,4.589c0-2.516-1.411-4.589-4.028-4.589-2.431,0-4.045,1.836-4.045,4.589,0,2.838,1.682,4.589,4.079,4.589a3.659,3.659,0,0,0,3.773-2.872h-1.411a2.252,2.252,0,0,1-2.328,1.632c-1.53,0-2.567-.9-2.7-2.872h6.663V87.188Zm-4.028-3.348a2.572,2.572,0,0,1,2.566,2.6h-5.167C143.338,84.706,144.341,83.84,145.718,83.84Zm9.758-1.173a3.063,3.063,0,0,0-2.822,1.683V82.8h-1.292v8.77h1.36v-5c0-1.7,1.122-2.583,2.873-2.583h0.34V82.684C155.748,82.667,155.612,82.667,155.476,82.667ZM163.72,82.8v1.275a3.54,3.54,0,0,0-3.008-1.479c-2.465,0-4.08,1.785-4.08,4.589s1.615,4.589,4.08,4.589a3.544,3.544,0,0,0,2.94-1.394v0.85a2.427,2.427,0,0,1-2.719,2.72c-1.377,0-2.21-.561-2.38-1.666h-1.36c0.187,1.7,1.5,2.821,3.74,2.821,2.77,0,4.079-1.6,4.079-3.875V82.8H163.72Zm-2.838,7.75c-1.7,0-2.822-1.309-2.822-3.365s1.122-3.365,2.822-3.365,2.821,1.241,2.821,3.365S162.581,90.553,160.882,90.553Zm11.75-7.75-1.241,3.637c-0.442,1.275-.867,2.549-1.258,3.807-0.408-1.258-.816-2.515-1.258-3.79l-1.24-3.654h-1.5l3.3,9.059c-0.1.272-.2,0.561-0.306,0.816a1.536,1.536,0,0,1-1.6,1.088h-0.8V94.9a6.782,6.782,0,0,0,.816.051,2.65,2.65,0,0,0,2.855-2.006L174.11,82.8h-1.478Zm12.817,4.385c0-2.516-1.411-4.589-4.028-4.589-2.431,0-4.046,1.836-4.046,4.589,0,2.838,1.683,4.589,4.08,4.589a3.659,3.659,0,0,0,3.773-2.872h-1.411a2.253,2.253,0,0,1-2.328,1.632c-1.53,0-2.567-.9-2.7-2.872h6.663V87.188Zm-4.028-3.348a2.572,2.572,0,0,1,2.566,2.6H178.82C179.041,84.706,180.044,83.84,181.421,83.84Zm8.62-3.212h0.782V79.471c-0.2-.017-0.612-0.034-0.867-0.034a2.167,2.167,0,0,0-2.447,2.465v0.9h-1.445v1.19h1.445v7.58h1.359v-7.58h1.87V82.8h-1.87V81.868A1.079,1.079,0,0,1,190.041,80.627Zm5.624,0h0.782V79.471c-0.2-.017-0.612-0.034-0.867-0.034a2.168,2.168,0,0,0-2.448,2.465v0.9h-1.445v1.19h1.445v7.58h1.36v-7.58h1.87V82.8h-1.87V81.868A1.079,1.079,0,0,1,195.665,80.627Zm2.859,0.935a0.918,0.918,0,1,0-.917-0.918A0.925,0.925,0,0,0,198.524,81.562Zm-0.679,10.011H199.2V82.8h-1.359v8.77Zm6.971,0.2a3.618,3.618,0,0,0,3.773-3.212H207.2a2.3,2.3,0,0,1-2.379,1.989c-1.462,0-2.635-1.071-2.635-3.365s1.139-3.365,2.635-3.365a2.283,2.283,0,0,1,2.362,1.955h1.411a3.554,3.554,0,0,0-3.773-3.178c-2.431,0-4.063,1.768-4.063,4.589S202.419,91.777,204.816,91.777Zm5.935-10.215a0.918,0.918,0,1,0-.918-0.918A0.925,0.925,0,0,0,210.751,81.562Zm-0.68,10.011h1.36V82.8h-1.36v8.77Zm10.982-4.385c0-2.516-1.411-4.589-4.028-4.589-2.431,0-4.045,1.836-4.045,4.589,0,2.838,1.682,4.589,4.079,4.589a3.659,3.659,0,0,0,3.773-2.872h-1.411a2.252,2.252,0,0,1-2.328,1.632c-1.53,0-2.567-.9-2.7-2.872h6.663V87.188Zm-4.028-3.348a2.572,2.572,0,0,1,2.566,2.6h-5.167C214.645,84.706,215.648,83.84,217.025,83.84Zm9.69-1.241a3.232,3.232,0,0,0-2.754,1.513V82.8h-1.292v8.77h1.36V86.61a2.5,2.5,0,0,1,2.414-2.787,1.759,1.759,0,0,1,2,1.955v5.8h1.36V85.641A2.8,2.8,0,0,0,226.715,82.6Zm8.8,1.394V82.8h-1.8V80.321h-1.36V82.8h-1.445v1.19h1.445v5.813c0,1.343.833,1.819,2.193,1.819q0.408,0,.968-0.051V90.434h-0.8c-0.782,0-1-.289-1-0.748V83.993h1.8Zm8.33-1.394a3.445,3.445,0,0,0-3.008,1.564V82.8h-1.292V94.9h1.36V90.315a3.443,3.443,0,0,0,2.94,1.462c2.465,0,4.079-1.785,4.079-4.589S246.31,82.6,243.845,82.6Zm-0.17,7.954c-1.7,0-2.821-1.241-2.821-3.365s1.121-3.365,2.821-3.365S246.5,85,246.5,87.12,245.375,90.553,243.675,90.553Zm13.018-.085a0.4,0.4,0,0,1-.476-0.425V85.148c0-1.479-.867-2.55-3.3-2.55-2.567,0-3.468,1.207-3.57,2.906h1.36c0.085-1.309.714-1.734,2.21-1.734s1.971,0.459,1.971,1.377c0,0.782-.493,1.1-1.376,1.207l-1.258.136c-2.414.255-3.247,1.343-3.247,2.719,0,1.649,1.19,2.567,3.094,2.567a3.214,3.214,0,0,0,2.855-1.411,1.258,1.258,0,0,0,1.479,1.258,5.173,5.173,0,0,0,.748-0.051v-1.1h-0.493Zm-4.521.153c-1.207,0-1.751-.578-1.751-1.445,0-.85.442-1.394,2.04-1.581l1.275-.153a2.262,2.262,0,0,0,1.155-.374v1.037A2.518,2.518,0,0,1,252.172,90.621Zm7.108,1.071a0.976,0.976,0,0,0,.969-1,1,1,0,0,0-1.989,0A0.978,0.978,0,0,0,259.28,91.692Z"/>
</svg>
