<svg xmlns="http://www.w3.org/2000/svg" width="300" height="250" viewBox="0 0 300 250">
  <defs>
    <style>
      .cls-1 {
        fill: #fffffe;
        fill-rule: evenodd;
      }
    </style>
  </defs>
  <path id="TAG" class="cls-1" d="M88.8,64.159V60.993H69.169v29.67h3.5V76.786h14.46V73.619H72.669v-9.46H88.8Zm12.153,4.667a7.509,7.509,0,0,0-6.918,4.125V69.16H90.864v21.5H94.2V78.411c0-4.167,2.75-6.334,7.043-6.334h0.833V68.868C101.616,68.827,101.282,68.827,100.949,68.827Zm13.037,22.336c6.042,0,10.418-4.376,10.418-11.251S120.028,68.66,113.986,68.66s-10.418,4.376-10.418,11.251S107.943,91.163,113.986,91.163Zm0-3c-4.167,0-6.918-3.042-6.918-8.251s2.751-8.251,6.918-8.251S120.9,74.7,120.9,79.911,118.153,88.163,113.986,88.163Zm36.9-19.5a7.428,7.428,0,0,0-6.626,4.042,6.734,6.734,0,0,0-6.626-4.042,6.908,6.908,0,0,0-6.209,3.667V69.16h-3.167v21.5h3.334V78.911c0-5.167,2.875-7.251,5.5-7.251,2.792,0,4.5,1.417,4.5,4.751V90.663h3.334V78.911c0-5.167,2.792-7.251,5.5-7.251,2.833,0,4.5,1.417,4.5,4.751V90.663h3.334V76.078C158.259,71.911,155.884,68.66,150.883,68.66Zm22.372-2.542A2.25,2.25,0,1,0,171,63.868,2.268,2.268,0,0,0,173.255,66.118Zm-3.292,32.837c2.917,0,4.959-1.167,4.959-4.459V69.16h-3.334V94.2c0,1.125-.542,1.834-2.042,1.834h-1.375v2.875C168.838,98.955,169.3,98.955,169.963,98.955Zm23.856-29.8V81.328c0,4.751-3.126,6.834-5.918,6.834-3.083,0-4.917-1.459-4.917-4.792V69.16H179.65V83.7c0,4.751,2.792,7.459,7.584,7.459a7.921,7.921,0,0,0,6.751-3.709v3.209h3.167V69.16h-3.333Zm16,22c5.292,0,8.542-2.334,8.542-6.417,0-3.5-2.125-5.292-7.417-6.334l-1.917-.375c-2.75-.542-4.334-1.292-4.334-3.334,0-2,1.625-3.167,4.5-3.167,3.292,0,5.25.917,5.417,4.251h3.334c-0.084-4.584-3-7.126-8.751-7.126-4.918,0-7.835,2.417-7.835,6.084,0,3.334,2.042,5.459,6.709,6.334l2,0.375c3.75,0.708,4.917,1.584,4.917,3.5,0,2.125-1.542,3.334-5.167,3.334-3.792,0-5.376-1.209-5.751-4.459H200.7C201.029,88.871,204.363,91.163,209.822,91.163Zm21.4-19.086V69.16h-4.417V63.076h-3.334V69.16h-3.542v2.917h3.542V86.329c0,3.292,2.042,4.459,5.375,4.459q1,0,2.376-.125V87.871h-1.959c-1.917,0-2.458-.709-2.458-1.834V72.077h4.417ZM116.274,150.045c6.608-3.649,11.052-9.465,11.052-17.79,0-14.255-10.938-22.009-25.977-22.009-16.407,0-26.434,9.693-26.547,24.176h9.571c0.456-10.948,7.634-15.509,16.977-15.509,9.912,0,16.292,4.9,16.292,13.57s-5.924,13.8-16.862,13.8H95.31v7.983h6.039c11.393,0,18.457,6.386,18.457,16.193s-7.064,15.966-17.888,15.966c-11.849,0-18.571-6.159-18.913-17.676H73.548c-0.114,15.737,9.8,26.342,28.37,26.342,16.521,0,27.914-9.807,27.914-24.632C129.832,160.309,123.68,153.923,116.274,150.045Zm63.57-.342c6.836-2.965,11.736-8.667,11.736-17.22,0-14.483-11.736-22.237-26.092-22.237S139.4,118,139.4,132.483c0,8.553,4.9,14.255,11.735,17.22-9,3.421-15.039,10.492-15.039,20.527,0,15.4,11.963,24.86,29.4,24.86s29.4-9.465,29.4-24.86C194.884,160.2,188.845,153.124,179.844,149.7Zm-14.356-30.79c9.343,0,16.635,4.675,16.635,13.57s-7.292,13.571-16.635,13.571-16.634-4.676-16.634-13.571S156.146,118.913,165.488,118.913Zm0,67.511c-11.735,0-19.369-5.816-19.369-16.194s7.634-16.193,19.369-16.193,19.369,5.816,19.369,16.193S177.224,186.424,165.488,186.424Zm27.641,6.842h2.747l8.982-25.1h-2.747Zm32.147-18.615a6.276,6.276,0,0,0-5.6,3.42,5.691,5.691,0,0,0-5.6-3.42,5.838,5.838,0,0,0-5.248,3.1v-2.679h-2.677v18.192h2.818v-9.942c0-4.372,2.43-6.135,4.649-6.135,2.36,0,3.8,1.2,3.8,4.019v12.058h2.818v-9.942c0-4.372,2.36-6.135,4.649-6.135,2.395,0,3.8,1.2,3.8,4.019v12.058h2.818v-12.34C231.51,177.4,229.5,174.651,225.276,174.651Zm18.392,19.038c5.108,0,8.806-3.7,8.806-9.519s-3.7-9.519-8.806-9.519-8.806,3.7-8.806,9.519S238.561,193.689,243.668,193.689Zm0-2.538c-3.522,0-5.847-2.574-5.847-6.981s2.325-6.981,5.847-6.981,5.847,2.574,5.847,6.981S247.19,191.151,243.668,191.151Zm11.8,2.362a2.025,2.025,0,0,0,2.008-2.08,2.063,2.063,0,0,0-4.122,0A2.028,2.028,0,0,0,255.465,193.513Zm1.666-13.191,1.325-1.807,1.325,1.807,0.844-.67-1.339-1.836,2.125-.7-0.349-1.006-2.068.671v-2.215h-1.077v2.215l-2.067-.671-0.349,1.006,2.14,0.7-1.34,1.836ZM68.2,140.447c0-6.616-4.243-8.821-11.261-10.046l-1.469-.245v-9.638c3.917,0.327,5.549,2.206,5.712,5.064h5.875c-0.326-5.962-4.243-9.637-11.587-10.046v-4.818H52.7v4.737c-8,.408-11.832,4.328-11.832,9.637,0,6.534,4.243,9.066,10.771,10.21l1.061,0.163v10.128c-4.08-.327-6.2-1.879-6.528-5.8H40.129c0.245,6.125,4.08,10.291,12.567,10.781v4.818H55.47v-4.737C63.386,150.411,68.2,146.818,68.2,140.447Zm-21.053-15.6c0-2.45,1.714-4.084,5.549-4.329v9.148C48.534,128.849,47.147,127.461,47.147,124.847Zm8.323,20.827v-9.719c5.222,0.98,6.447,2.287,6.447,4.9C61.917,143.551,60.121,145.429,55.47,145.674Z"/>
</svg>
