<svg id="Frame_2" data-name="Frame 2" xmlns="http://www.w3.org/2000/svg" width="300" height="250" viewBox="0 0 300 250">
  <defs>
    <style>
      .cls-1 {
        fill: #fff;
        fill-rule: evenodd;
      }
    </style>
  </defs>
  <path id="Automate_temperature_light_and_appliances_sa_phone." data-name="Automate temperature, light and appliances sa phone." class="cls-1" d="M43.066,78.322h1.513l-4.9-12.108h-1.6L33.254,78.322h1.5l1.394-3.52h5.51Zm-6.411-4.812,0.051-.136c0.527-1.326,1.462-3.741,2.16-5.612,0.731,1.871,1.684,4.285,2.211,5.595l0.068,0.153H36.655ZM51.23,69.547v4.966A2.5,2.5,0,0,1,48.815,77.3a1.76,1.76,0,0,1-2.007-1.956v-5.8h-1.36v5.935a2.8,2.8,0,0,0,3.095,3.044A3.233,3.233,0,0,0,51.3,77.012v1.309H52.59V69.547H51.23Zm7.177,1.19v-1.19H56.6V67.064h-1.36v2.483H53.8v1.19h1.445v5.816c0,1.343.833,1.82,2.194,1.82q0.408,0,.969-0.051V77.182h-0.8c-0.782,0-1-.289-1-0.748v-5.7h1.8Zm4.914,7.788c2.466,0,4.251-1.786,4.251-4.591s-1.786-4.591-4.251-4.591-4.251,1.785-4.251,4.591S60.855,78.526,63.321,78.526Zm0-1.224c-1.7,0-2.823-1.241-2.823-3.367s1.122-3.367,2.823-3.367,2.823,1.241,2.823,3.367S65.022,77.3,63.321,77.3Zm15.1-7.958a3.031,3.031,0,0,0-2.7,1.65,2.748,2.748,0,0,0-2.7-1.65,2.819,2.819,0,0,0-2.534,1.5V69.547H69.183v8.775h1.36v-4.8c0-2.109,1.173-2.959,2.245-2.959a1.676,1.676,0,0,1,1.837,1.939v5.816h1.36v-4.8c0-2.109,1.139-2.959,2.245-2.959a1.67,1.67,0,0,1,1.837,1.939v5.816h1.36V72.37A2.789,2.789,0,0,0,78.417,69.343ZM90.67,77.216a0.4,0.4,0,0,1-.476-0.425v-4.9c0-1.48-.867-2.551-3.3-2.551-2.568,0-3.469,1.207-3.571,2.908h1.36c0.085-1.309.714-1.734,2.211-1.734s1.972,0.459,1.972,1.377c0,0.782-.493,1.105-1.377,1.207l-1.258.136c-2.415.255-3.248,1.343-3.248,2.721,0,1.649,1.19,2.568,3.095,2.568a3.216,3.216,0,0,0,2.857-1.412,1.258,1.258,0,0,0,1.479,1.258,5.175,5.175,0,0,0,.748-0.051V77.216H90.67Zm-4.523.153c-1.207,0-1.751-.578-1.751-1.445,0-.85.442-1.394,2.041-1.582l1.275-.153a2.265,2.265,0,0,0,1.156-.374v1.037A2.52,2.52,0,0,1,86.146,77.369Zm9.864-6.632v-1.19h-1.8V67.064h-1.36v2.483H91.4v1.19h1.445v5.816c0,1.343.833,1.82,2.194,1.82q0.408,0,.969-0.051V77.182h-0.8c-0.782,0-1-.289-1-0.748v-5.7h1.8Zm8.768,3.2c0-2.517-1.412-4.591-4.03-4.591-2.432,0-4.048,1.837-4.048,4.591,0,2.84,1.684,4.591,4.082,4.591a3.661,3.661,0,0,0,3.775-2.874h-1.412a2.254,2.254,0,0,1-2.329,1.632c-1.531,0-2.568-.9-2.7-2.874h6.666V73.934Zm-4.03-3.35a2.573,2.573,0,0,1,2.567,2.6H98.146C98.367,71.451,99.37,70.584,100.748,70.584Zm12.07,0.153v-1.19h-1.8V67.064h-1.36v2.483h-1.446v1.19h1.446v5.816c0,1.343.833,1.82,2.193,1.82q0.408,0,.97-0.051V77.182h-0.8c-0.782,0-1-.289-1-0.748v-5.7h1.8Zm8.767,3.2c0-2.517-1.411-4.591-4.03-4.591-2.432,0-4.047,1.837-4.047,4.591,0,2.84,1.683,4.591,4.081,4.591a3.66,3.66,0,0,0,3.775-2.874h-1.411a2.254,2.254,0,0,1-2.33,1.632c-1.53,0-2.568-.9-2.7-2.874h6.666V73.934Zm-4.03-3.35a2.573,2.573,0,0,1,2.568,2.6h-5.17C115.174,71.451,116.178,70.584,117.555,70.584Zm14.875-1.241a3.031,3.031,0,0,0-2.7,1.65,2.747,2.747,0,0,0-2.7-1.65,2.818,2.818,0,0,0-2.534,1.5V69.547H123.2v8.775h1.361v-4.8c0-2.109,1.173-2.959,2.244-2.959a1.676,1.676,0,0,1,1.837,1.939v5.816H130v-4.8c0-2.109,1.14-2.959,2.245-2.959a1.67,1.67,0,0,1,1.837,1.939v5.816h1.36V72.37A2.789,2.789,0,0,0,132.43,69.343Zm9.355,0a3.451,3.451,0,0,0-3.01,1.565v-1.36h-1.292V81.655h1.361V77.063a3.445,3.445,0,0,0,2.941,1.462c2.466,0,4.082-1.786,4.082-4.591S144.251,69.343,141.785,69.343Zm-0.17,7.958c-1.7,0-2.823-1.241-2.823-3.367s1.123-3.367,2.823-3.367,2.823,1.173,2.823,3.3S143.316,77.3,141.615,77.3Zm13.533-3.367c0-2.517-1.411-4.591-4.03-4.591-2.432,0-4.047,1.837-4.047,4.591,0,2.84,1.683,4.591,4.081,4.591a3.66,3.66,0,0,0,3.775-2.874h-1.411a2.254,2.254,0,0,1-2.33,1.632c-1.53,0-2.568-.9-2.7-2.874h6.666V73.934Zm-4.03-3.35a2.573,2.573,0,0,1,2.568,2.6h-5.17C148.737,71.451,149.741,70.584,151.118,70.584Zm9.757-1.173a3.064,3.064,0,0,0-2.823,1.684V69.547h-1.293v8.775h1.361v-5c0-1.7,1.122-2.585,2.874-2.585h0.34V69.428C161.147,69.411,161.011,69.411,160.875,69.411Zm8.886,7.805a0.4,0.4,0,0,1-.476-0.425v-4.9c0-1.48-.867-2.551-3.3-2.551-2.568,0-3.469,1.207-3.571,2.908h1.36c0.085-1.309.715-1.734,2.211-1.734s1.973,0.459,1.973,1.377c0,0.782-.494,1.105-1.378,1.207l-1.258.136c-2.415.255-3.248,1.343-3.248,2.721,0,1.649,1.19,2.568,3.095,2.568a3.218,3.218,0,0,0,2.857-1.412,1.258,1.258,0,0,0,1.479,1.258,5.173,5.173,0,0,0,.748-0.051V77.216h-0.493Zm-4.523.153c-1.208,0-1.752-.578-1.752-1.445,0-.85.442-1.394,2.041-1.582l1.275-.153a2.268,2.268,0,0,0,1.157-.374v1.037A2.521,2.521,0,0,1,165.238,77.369Zm9.864-6.632v-1.19h-1.8V67.064h-1.36v2.483h-1.446v1.19h1.446v5.816c0,1.343.833,1.82,2.193,1.82q0.408,0,.97-0.051V77.182h-0.8c-0.782,0-1-.289-1-0.748v-5.7h1.8Zm7.067-1.19v4.966a2.5,2.5,0,0,1-2.415,2.789,1.76,1.76,0,0,1-2.007-1.956v-5.8h-1.36v5.935a2.8,2.8,0,0,0,3.095,3.044,3.233,3.233,0,0,0,2.755-1.513v1.309h1.292V69.547h-1.36Zm7.517-.136a3.064,3.064,0,0,0-2.823,1.684V69.547H185.57v8.775h1.361v-5c0-1.7,1.122-2.585,2.874-2.585h0.34V69.428C189.958,69.411,189.822,69.411,189.686,69.411Zm9.226,4.523c0-2.517-1.411-4.591-4.03-4.591-2.432,0-4.047,1.837-4.047,4.591,0,2.84,1.683,4.591,4.081,4.591a3.66,3.66,0,0,0,3.775-2.874H197.28a2.254,2.254,0,0,1-2.33,1.632c-1.53,0-2.568-.9-2.7-2.874h6.666V73.934Zm-4.03-3.35a2.573,2.573,0,0,1,2.568,2.6h-5.17C192.5,71.451,193.505,70.584,194.882,70.584Zm6.01,6.037a0.912,0.912,0,0,0-.952.918,0.885,0.885,0,0,0,.952.884h0.1a1.258,1.258,0,0,1-.935,1.326l-0.119.034v0.9l0.17-.034a2.307,2.307,0,0,0,1.9-2.585A1.193,1.193,0,0,0,200.892,76.621Zm7.379,1.752a8.642,8.642,0,0,0,.867-0.051V77.182h-0.646a0.682,0.682,0,0,1-.834-0.748V66.214H206.3V76.553C206.3,77.9,207.046,78.373,208.271,78.373Zm2.682-10.067a0.918,0.918,0,1,0-.919-0.918A0.925,0.925,0,0,0,210.953,68.306Zm-0.68,10.016h1.36V69.547h-1.36v8.775Zm10-8.775v1.275a3.54,3.54,0,0,0-3.01-1.48c-2.465,0-4.081,1.785-4.081,4.591s1.616,4.591,4.081,4.591a3.545,3.545,0,0,0,2.942-1.394v0.85a2.428,2.428,0,0,1-2.721,2.721c-1.377,0-2.21-.561-2.38-1.666h-1.361c0.187,1.7,1.5,2.823,3.741,2.823,2.772,0,4.082-1.6,4.082-3.877V69.547h-1.293Zm-2.84,7.754c-1.7,0-2.822-1.309-2.822-3.367s1.122-3.367,2.822-3.367,2.823,1.241,2.823,3.367S219.133,77.3,217.432,77.3Zm10.221-7.958a3.232,3.232,0,0,0-2.687,1.411v-4.54h-1.36V78.322h1.36V73.356a2.5,2.5,0,0,1,2.415-2.789,1.76,1.76,0,0,1,2.006,1.956v5.8h1.361V72.387A2.8,2.8,0,0,0,227.653,69.343Zm8.8,1.394v-1.19h-1.8V67.064h-1.36v2.483h-1.446v1.19h1.446v5.816c0,1.343.833,1.82,2.193,1.82q0.408,0,.97-0.051V77.182h-0.8c-0.782,0-1-.289-1-0.748v-5.7h1.8Zm11.2,6.479a0.4,0.4,0,0,1-.476-0.425v-4.9c0-1.48-.867-2.551-3.3-2.551-2.568,0-3.469,1.207-3.571,2.908h1.36c0.085-1.309.715-1.734,2.211-1.734s1.973,0.459,1.973,1.377c0,0.782-.494,1.105-1.378,1.207l-1.258.136c-2.415.255-3.248,1.343-3.248,2.721,0,1.649,1.19,2.568,3.095,2.568a3.218,3.218,0,0,0,2.857-1.412,1.258,1.258,0,0,0,1.479,1.258,5.173,5.173,0,0,0,.748-0.051V77.216h-0.493Zm-4.523.153c-1.208,0-1.752-.578-1.752-1.445,0-.85.442-1.394,2.041-1.582l1.275-.153a2.268,2.268,0,0,0,1.157-.374v1.037A2.521,2.521,0,0,1,243.134,77.369Zm10.3-8.026a3.232,3.232,0,0,0-2.755,1.514V69.547h-1.292v8.775h1.36V73.356a2.5,2.5,0,0,1,2.415-2.789,1.76,1.76,0,0,1,2.006,1.956v5.8h1.361V72.387A2.8,2.8,0,0,0,253.438,69.343Zm11.729-3.129v4.591a3.447,3.447,0,0,0-2.942-1.462c-2.466,0-4.081,1.785-4.081,4.591s1.615,4.591,4.081,4.591a3.45,3.45,0,0,0,3.01-1.564v1.36h1.292V66.214h-1.36ZM262.4,77.3c-1.7,0-2.823-1.173-2.823-3.3s1.122-3.435,2.823-3.435,2.823,1.241,2.823,3.367S264.1,77.3,262.4,77.3ZM81.9,96.216a0.4,0.4,0,0,1-.476-0.425v-4.9c0-1.48-.867-2.551-3.3-2.551-2.568,0-3.469,1.207-3.571,2.908h1.36c0.085-1.309.714-1.734,2.211-1.734S80.1,89.975,80.1,90.894c0,0.782-.493,1.105-1.377,1.207l-1.258.136c-2.415.255-3.248,1.343-3.248,2.721,0,1.649,1.19,2.568,3.095,2.568a3.216,3.216,0,0,0,2.857-1.412,1.258,1.258,0,0,0,1.479,1.258,5.175,5.175,0,0,0,.748-0.051V96.216H81.9Zm-4.523.153c-1.207,0-1.751-.578-1.751-1.445,0-.85.442-1.394,2.041-1.582l1.275-.153a2.264,2.264,0,0,0,1.156-.374v1.037A2.52,2.52,0,0,1,77.378,96.369Zm10.559-8.026a3.449,3.449,0,0,0-3.01,1.565v-1.36H83.634v12.108h1.36V96.063a3.447,3.447,0,0,0,2.942,1.462c2.466,0,4.081-1.786,4.081-4.591S90.4,88.343,87.937,88.343ZM87.767,96.3c-1.7,0-2.823-1.241-2.823-3.367s1.122-3.367,2.823-3.367,2.823,1.173,2.823,3.3S89.467,96.3,87.767,96.3Zm10.192-7.958a3.449,3.449,0,0,0-3.01,1.565v-1.36H93.656v12.108h1.36V96.063a3.447,3.447,0,0,0,2.942,1.462c2.466,0,4.081-1.786,4.081-4.591S100.424,88.343,97.958,88.343ZM97.788,96.3c-1.7,0-2.823-1.241-2.823-3.367s1.122-3.367,2.823-3.367,2.823,1.173,2.823,3.3S99.489,96.3,97.788,96.3Zm7.826,1.071a8.642,8.642,0,0,0,.867-0.051V96.182h-0.646A0.681,0.681,0,0,1,105,95.434V85.214h-1.36V95.553C103.642,96.9,104.39,97.373,105.614,97.373ZM108.3,87.306a0.918,0.918,0,1,0-.918-0.918A0.925,0.925,0,0,0,108.3,87.306Zm-0.68,10.016h1.361V88.547h-1.361v8.775Zm10.552-1.105a0.4,0.4,0,0,1-.476-0.425v-4.9c0-1.48-.867-2.551-3.3-2.551-2.567,0-3.469,1.207-3.571,2.908h1.361c0.085-1.309.714-1.734,2.21-1.734s1.973,0.459,1.973,1.377c0,0.782-.493,1.105-1.377,1.207l-1.259.136c-2.415.255-3.248,1.343-3.248,2.721,0,1.649,1.191,2.568,3.095,2.568a3.217,3.217,0,0,0,2.857-1.412,1.258,1.258,0,0,0,1.479,1.258,5.187,5.187,0,0,0,.749-0.051V96.216h-0.494Zm-4.523.153c-1.207,0-1.751-.578-1.751-1.445,0-.85.442-1.394,2.04-1.582l1.276-.153a2.263,2.263,0,0,0,1.156-.374v1.037A2.52,2.52,0,0,1,113.645,96.369Zm10.3-8.026a3.234,3.234,0,0,0-2.755,1.514V88.547H119.9v8.775h1.36V92.356a2.5,2.5,0,0,1,2.415-2.789,1.76,1.76,0,0,1,2.007,1.956v5.8h1.36V91.387A2.8,2.8,0,0,0,123.949,88.343Zm8.77,9.183a3.619,3.619,0,0,0,3.775-3.214H135.1a2.3,2.3,0,0,1-2.381,1.99c-1.462,0-2.636-1.071-2.636-3.367s1.14-3.367,2.636-3.367a2.284,2.284,0,0,1,2.364,1.956h1.411a3.555,3.555,0,0,0-3.775-3.18c-2.432,0-4.064,1.769-4.064,4.591S130.322,97.526,132.719,97.526ZM145.6,92.934c0-2.517-1.411-4.591-4.03-4.591-2.432,0-4.047,1.837-4.047,4.591,0,2.84,1.683,4.591,4.081,4.591a3.661,3.661,0,0,0,3.775-2.874H143.97a2.254,2.254,0,0,1-2.329,1.632c-1.531,0-2.568-.9-2.7-2.874H145.6V92.934Zm-4.03-3.35a2.574,2.574,0,0,1,2.568,2.6h-5.17C139.192,90.451,140.2,89.584,141.573,89.584Zm8.736,7.941c2.16,0,3.486-.952,3.486-2.619,0-1.428-.867-2.16-3.027-2.585l-0.782-.153c-1.123-.221-1.769-0.527-1.769-1.36,0-.816.663-1.292,1.837-1.292,1.343,0,2.142.374,2.21,1.734h1.361c-0.034-1.871-1.225-2.908-3.571-2.908-2.007,0-3.2.986-3.2,2.483,0,1.36.833,2.228,2.738,2.585l0.816,0.153c1.53,0.289,2.006.646,2.006,1.428,0,0.867-.629,1.36-2.108,1.36-1.548,0-2.194-.493-2.347-1.819h-1.377C146.721,96.59,148.081,97.526,150.309,97.526Zm10.523,0c2.159,0,3.486-.952,3.486-2.619,0-1.428-.868-2.16-3.027-2.585l-0.782-.153c-1.123-.221-1.769-0.527-1.769-1.36,0-.816.663-1.292,1.837-1.292,1.343,0,2.142.374,2.21,1.734h1.361c-0.034-1.871-1.225-2.908-3.571-2.908-2.007,0-3.2.986-3.2,2.483,0,1.36.833,2.228,2.737,2.585l0.817,0.153c1.53,0.289,2.006.646,2.006,1.428,0,0.867-.629,1.36-2.108,1.36-1.548,0-2.194-.493-2.347-1.819h-1.378C157.244,96.59,158.6,97.526,160.832,97.526Zm12.208-1.309a0.4,0.4,0,0,1-.476-0.425v-4.9c0-1.48-.867-2.551-3.3-2.551-2.567,0-3.469,1.207-3.571,2.908h1.361c0.085-1.309.714-1.734,2.21-1.734s1.973,0.459,1.973,1.377c0,0.782-.493,1.105-1.378,1.207l-1.258.136c-2.415.255-3.248,1.343-3.248,2.721,0,1.649,1.19,2.568,3.095,2.568a3.217,3.217,0,0,0,2.857-1.412,1.258,1.258,0,0,0,1.479,1.258,5.187,5.187,0,0,0,.749-0.051V96.216H173.04Zm-4.523.153c-1.207,0-1.751-.578-1.751-1.445,0-.85.442-1.394,2.04-1.582l1.276-.153a2.263,2.263,0,0,0,1.156-.374v1.037A2.521,2.521,0,0,1,168.517,96.369Zm13.09-8.026a3.451,3.451,0,0,0-3.01,1.565v-1.36h-1.292v12.108h1.36V96.063a3.448,3.448,0,0,0,2.942,1.462c2.466,0,4.082-1.786,4.082-4.591S184.073,88.343,181.607,88.343Zm-0.17,7.958c-1.7,0-2.823-1.241-2.823-3.367s1.123-3.367,2.823-3.367,2.823,1.173,2.823,3.3S183.138,96.3,181.437,96.3Zm9.937-7.958a3.232,3.232,0,0,0-2.687,1.411v-4.54h-1.36V97.322h1.36V92.356a2.5,2.5,0,0,1,2.415-2.789,1.76,1.76,0,0,1,2.006,1.956v5.8h1.361V91.387A2.8,2.8,0,0,0,191.374,88.343Zm8.93,9.183c2.465,0,4.251-1.786,4.251-4.591s-1.786-4.591-4.251-4.591-4.252,1.785-4.252,4.591S197.838,97.526,200.3,97.526Zm0-1.224c-1.7,0-2.823-1.241-2.823-3.367s1.122-3.367,2.823-3.367,2.822,1.241,2.822,3.367S202,96.3,200.3,96.3Zm9.909-7.958a3.233,3.233,0,0,0-2.755,1.514V88.547h-1.292v8.775h1.36V92.356a2.5,2.5,0,0,1,2.415-2.789,1.76,1.76,0,0,1,2.006,1.956v5.8h1.361V91.387A2.8,2.8,0,0,0,210.213,88.343Zm12.756,4.591c0-2.517-1.411-4.591-4.03-4.591-2.432,0-4.047,1.837-4.047,4.591,0,2.84,1.683,4.591,4.081,4.591a3.661,3.661,0,0,0,3.775-2.874h-1.412a2.254,2.254,0,0,1-2.329,1.632c-1.531,0-2.568-.9-2.7-2.874h6.666V92.934Zm-4.03-3.35a2.573,2.573,0,0,1,2.567,2.6h-5.169C216.558,90.451,217.561,89.584,218.939,89.584Zm6.166,7.856a0.977,0.977,0,0,0,.97-1,1,1,0,0,0-1.99,0A0.978,0.978,0,0,0,225.105,97.441Z"/>
</svg>
