<svg id="HING_TAG" data-name="HING&amp;TAG" xmlns="http://www.w3.org/2000/svg" width="300" height="250" viewBox="0 0 300 250">
  <defs>
    <style>
      .cls-1 {
        fill: #4b286d;
        fill-rule: evenodd;
      }
    </style>
  </defs>
  <path id="Dito_ka_na_sa_bagong_Optik_TV_" data-name="Dito ka na sa bagong Optik TV®" class="cls-1" d="M28.843,54.14h-4.5V67.49h4.5c4.033,0,6.547-2.494,6.547-6.675S32.876,54.14,28.843,54.14Zm0,11.925H25.916v-10.5h2.926c3.227,0,4.9,2.025,4.9,5.25S32.069,66.065,28.843,66.065Zm9.174-9.619A1.013,1.013,0,1,0,37,55.434,1.021,1.021,0,0,0,38.016,56.447ZM37.266,67.49h1.5V57.815h-1.5V67.49Zm8.085-8.362V57.815H43.363V55.078h-1.5v2.737H40.267v1.312h1.594V65.54c0,1.481.919,2.006,2.42,2.006q0.45,0,1.069-.056V66.234H44.47c-0.863,0-1.107-.319-1.107-0.825V59.128h1.989Zm5.909,8.587c2.72,0,4.69-1.969,4.69-5.062s-1.97-5.062-4.69-5.062-4.69,1.969-4.69,5.062S48.54,67.715,51.26,67.715Zm0-1.35c-1.876,0-3.114-1.369-3.114-3.712s1.238-3.712,3.114-3.712,3.114,1.369,3.114,3.712S53.136,66.365,51.26,66.365ZM67.975,67.49h1.745L65.78,61.3l3.677-3.487H67.468l-4.483,4.331V54.14h-1.5V67.49h1.5V63.909L64.71,62.3Zm10.974-1.219a0.444,0.444,0,0,1-.525-0.469V60.4c0-1.631-.957-2.812-3.639-2.812-2.833,0-3.827,1.331-3.939,3.206h1.5c0.094-1.444.788-1.913,2.439-1.913s2.176,0.506,2.176,1.519c0,0.863-.544,1.219-1.519,1.331l-1.388.15c-2.664.281-3.583,1.481-3.583,3,0,1.819,1.313,2.831,3.414,2.831a3.548,3.548,0,0,0,3.151-1.556,1.388,1.388,0,0,0,1.632,1.387,5.711,5.711,0,0,0,.825-0.056V66.271H78.949Zm-4.99.169c-1.332,0-1.932-.638-1.932-1.594,0-.938.488-1.538,2.251-1.744l1.407-.169a2.5,2.5,0,0,0,1.276-.412v1.144A2.78,2.78,0,0,1,73.959,66.44Zm15.064-8.85a3.566,3.566,0,0,0-3.039,1.669V57.815H84.558V67.49h1.5V62.015a2.755,2.755,0,0,1,2.664-3.075A1.941,1.941,0,0,1,90.936,61.1V67.49h1.5V60.947A3.085,3.085,0,0,0,89.023,57.59ZM102.7,66.271a0.444,0.444,0,0,1-.525-0.469V60.4c0-1.631-.957-2.812-3.639-2.812-2.833,0-3.827,1.331-3.939,3.206h1.5c0.094-1.444.788-1.913,2.439-1.913s2.176,0.506,2.176,1.519c0,0.863-.544,1.219-1.52,1.331l-1.388.15c-2.664.281-3.583,1.481-3.583,3,0,1.819,1.313,2.831,3.414,2.831a3.55,3.55,0,0,0,3.152-1.556,1.388,1.388,0,0,0,1.632,1.387,5.71,5.71,0,0,0,.825-0.056V66.271H102.7Zm-4.99.169c-1.332,0-1.932-.638-1.932-1.594,0-.938.488-1.538,2.251-1.744l1.407-.169a2.5,2.5,0,0,0,1.276-.412v1.144A2.78,2.78,0,0,1,97.708,66.44Zm14.013,1.275c2.383,0,3.846-1.05,3.846-2.888,0-1.575-.957-2.381-3.339-2.85l-0.863-.169c-1.238-.244-1.951-0.581-1.951-1.5,0-.9.732-1.425,2.026-1.425,1.482,0,2.364.413,2.439,1.913h1.5c-0.037-2.062-1.35-3.206-3.939-3.206-2.214,0-3.527,1.087-3.527,2.737,0,1.5.919,2.456,3.021,2.85l0.9,0.169c1.688,0.319,2.214.712,2.214,1.575,0,0.956-.7,1.5-2.327,1.5-1.707,0-2.42-.544-2.588-2.006h-1.52C107.763,66.684,109.264,67.715,111.721,67.715Zm13.357-1.444a0.444,0.444,0,0,1-.525-0.469V60.4c0-1.631-.957-2.812-3.639-2.812-2.833,0-3.827,1.331-3.94,3.206h1.5c0.094-1.444.788-1.913,2.439-1.913s2.176,0.506,2.176,1.519c0,0.863-.544,1.219-1.52,1.331l-1.388.15c-2.664.281-3.583,1.481-3.583,3,0,1.819,1.313,2.831,3.414,2.831a3.55,3.55,0,0,0,3.152-1.556,1.387,1.387,0,0,0,1.632,1.387,5.71,5.71,0,0,0,.825-0.056V66.271h-0.544Zm-4.99.169c-1.332,0-1.932-.638-1.932-1.594,0-.938.488-1.538,2.251-1.744l1.407-.169a2.5,2.5,0,0,0,1.276-.412v1.144A2.78,2.78,0,0,1,120.088,66.44Zm15.8-8.85a3.462,3.462,0,0,0-3,1.481V54.14h-2.364V67.49h2.27V66.1a3.49,3.49,0,0,0,3.095,1.612c2.664,0,4.334-1.987,4.334-5.062S138.547,57.59,135.883,57.59Zm-0.562,8.175c-1.539,0-2.5-1.069-2.5-3.112s0.956-3.112,2.5-3.112,2.5,0.994,2.5,3.038S136.859,65.765,135.321,65.765ZM150.5,67.49a3.658,3.658,0,0,1-.394-1.838V60.5c0-1.744-1.144-2.906-4.033-2.906-3.021,0-4.221,1.256-4.352,3.3h2.326c0.094-1.181.656-1.538,2.007-1.538,1.369,0,1.763.45,1.763,1.2,0,0.713-.469.994-1.369,1.106l-1.463.131c-2.739.262-3.715,1.406-3.715,3.019,0,1.875,1.426,2.906,3.49,2.906a3.6,3.6,0,0,0,3.114-1.406,3.141,3.141,0,0,0,.262,1.181H150.5Zm-5.178-1.463c-1.088,0-1.632-.506-1.632-1.312,0-.769.432-1.237,1.745-1.387l1.276-.15a1.882,1.882,0,0,0,1.106-.394v0.881A2.272,2.272,0,0,1,145.319,66.028Zm13.657-8.212v1.331a3.443,3.443,0,0,0-3.058-1.556c-2.645,0-4.352,1.969-4.352,4.931,0,2.944,1.745,4.931,4.371,4.931a3.433,3.433,0,0,0,2.964-1.444v1.219a2.119,2.119,0,0,1-2.382,2.344c-1.3,0-2.045-.525-2.158-1.556h-2.326c0.15,2.006,1.651,3.375,4.446,3.375,3.152,0,4.784-1.669,4.784-4.219V57.815h-2.289ZM156.462,65.5c-1.519,0-2.476-1.088-2.476-2.962s0.957-3,2.476-3c1.539,0,2.5,1.05,2.5,2.981C158.957,64.434,158,65.5,156.462,65.5Zm11.312,2.212a4.7,4.7,0,0,0,4.915-5.062,4.926,4.926,0,1,0-9.848,0A4.711,4.711,0,0,0,167.774,67.715Zm0-1.95c-1.538,0-2.514-1.069-2.514-3.112s0.976-3.112,2.514-3.112c1.52,0,2.514,1.069,2.514,3.112S169.294,65.765,167.774,65.765Zm11.8-8.175a3.567,3.567,0,0,0-3.02,1.612V57.815h-2.289V67.49h2.364V62.072a2.178,2.178,0,0,1,2.157-2.437,1.616,1.616,0,0,1,1.82,1.837V67.49h2.363V61.078A3.152,3.152,0,0,0,179.574,57.59Zm12.381,0.225v1.331A3.443,3.443,0,0,0,188.9,57.59c-2.645,0-4.352,1.969-4.352,4.931,0,2.944,1.745,4.931,4.371,4.931a3.433,3.433,0,0,0,2.964-1.444v1.219a2.119,2.119,0,0,1-2.382,2.344c-1.295,0-2.045-.525-2.158-1.556h-2.326c0.15,2.006,1.651,3.375,4.446,3.375,3.152,0,4.784-1.669,4.784-4.219V57.815h-2.289ZM189.441,65.5c-1.519,0-2.476-1.088-2.476-2.962s0.957-3,2.476-3c1.539,0,2.5,1.05,2.5,2.981C191.936,64.434,190.98,65.5,189.441,65.5Zm17.2,2.287c4,0,6.659-2.775,6.659-6.975s-2.664-6.975-6.659-6.975c-4.015,0-6.679,2.775-6.679,6.975S202.629,67.79,206.644,67.79Zm0-2.231c-2.439,0-4.034-1.8-4.034-4.744s1.595-4.744,4.034-4.744,4.033,1.8,4.033,4.744S209.082,65.559,206.644,65.559Zm13.619-7.969a3.489,3.489,0,0,0-3.095,1.612V57.815H214.9v13.35h2.363V66.234a3.463,3.463,0,0,0,3,1.481c2.664,0,4.333-1.987,4.333-5.062S222.927,57.59,220.263,57.59ZM219.7,65.765c-1.538,0-2.495-1.069-2.495-3.112s0.957-3.112,2.495-3.112,2.5,0.994,2.5,3.038S221.238,65.765,219.7,65.765Zm11.518-6.15v-1.8h-1.913V55H226.96v2.813h-1.5v1.8h1.5V65.09c0,1.781.976,2.475,3.02,2.475,0.375,0,.807-0.038,1.238-0.075v-1.8h-0.806c-0.788,0-1.107-.206-1.107-0.844V59.615h1.913Zm2.664-2.962a1.3,1.3,0,1,0-1.313-1.294A1.3,1.3,0,0,0,233.882,56.653ZM232.7,67.49h2.364V57.815H232.7V67.49Zm10.974,0h2.7l-3.883-6.019,3.658-3.656h-2.814l-3.94,4.012V54.14h-2.326V67.49H239.4V64.453l1.464-1.462Zm18.4-13.35h-11.1v2.269h4.277V67.49H257.8V56.409h4.277V54.14Zm10.524,0-2.363,6.9c-0.432,1.313-.882,2.737-1.257,4.162-0.394-1.425-.845-2.85-1.276-4.162l-2.42-6.9h-2.7l4.9,13.35h2.964l4.783-13.35H272.6Zm4.718-.537a1.654,1.654,0,1,0,1.7,1.657A1.664,1.664,0,0,0,277.319,53.6Zm0,2.946a1.3,1.3,0,1,1,1.323-1.289A1.282,1.282,0,0,1,277.319,56.549Zm0.688-.922a0.36,0.36,0,0,0-.2-0.354,0.414,0.414,0,0,0,.241-0.394,0.517,0.517,0,0,0-.615-0.494h-0.775v1.71h0.388V55.46h0.36c0.154,0,.2.053,0.214,0.22l0.014,0.18a0.457,0.457,0,0,0,.06.234H278.1a0.4,0.4,0,0,1-.073-0.234Zm-0.962-.488V54.719H277.4a0.212,0.212,0,1,1,.013.421h-0.367Z"/>
</svg>
