<svg id="SC" xmlns="http://www.w3.org/2000/svg" width="728" height="90" viewBox="0 0 728 90">
  <defs>
    <style>
      .cls-1 {
        fill: #080;
        fill-rule: evenodd;
      }
    </style>
  </defs>
  <path class="cls-1" d="M660.608,61.361a8.818,8.818,0,0,1-2.766,2.189v4.371a0.841,0.841,0,0,1-.185.511,0.662,0.662,0,0,1-.539.255l-1.478.02-0.362-.785h1.6a0.183,0.183,0,0,0,.115-0.1,0.362,0.362,0,0,0,.056-0.2V63.167a9.122,9.122,0,0,0,2.424-1.738H654V60.712h6.607v0.649Zm10.449-.747c-0.026.308-.084,0.7-0.171,1.179a5.141,5.141,0,0,1-.281,1.061,0.754,0.754,0,0,1-.216.28,0.582,0.582,0,0,1-.358.142,2.252,2.252,0,0,1-.271,0,4.579,4.579,0,0,1-.623-0.1l-0.242-.815c0.121,0.033.256,0.075,0.407,0.128s0.257,0.085.317,0.1a0.9,0.9,0,0,0,.166,0,0.169,0.169,0,0,0,.111-0.039,0.746,0.746,0,0,0,.1-0.231,5.368,5.368,0,0,0,.211-1h-1.126a3.289,3.289,0,0,1-.307,1.012,2.745,2.745,0,0,1-.583.786,2.912,2.912,0,0,1-.88.55l-0.3-.432-0.03,4.773a0.869,0.869,0,0,1-.12.423,0.759,0.759,0,0,1-.312.314,0.81,0.81,0,0,1-.372.1h-0.483l-0.251-.707h0.6a0.68,0.68,0,0,0,.11-0.01c0.04-.007.061-0.069,0.061-0.187V66.693h-0.673v1.238h-0.766V66.693H664.1a4.823,4.823,0,0,1-.372,1.355,2.8,2.8,0,0,1-.684.963l-0.573-.511a4.775,4.775,0,0,0,.518-0.746,3.577,3.577,0,0,0,.216-0.565,4.639,4.639,0,0,0,.141-0.732V63.4l-0.242.284-0.614-.49a5.174,5.174,0,0,0,1.042-1.36,6.654,6.654,0,0,0,.589-1.675l0.673,0.265a4.969,4.969,0,0,1-.131.609h1.78a10.447,10.447,0,0,1-.522,1.561h1.055V63.05a3.669,3.669,0,0,0,.734-0.452,1.724,1.724,0,0,0,.428-0.52,2.24,2.24,0,0,0,.216-0.757h-1.106V60.613h3.811Zm-6.668,1.13a3.946,3.946,0,0,1-.412.854H665.1a3.98,3.98,0,0,0,.4-0.854h-1.117Zm0.382,1.561h-0.663v0.963h0.663V63.3Zm0,1.669h-0.663v1.012h0.663V64.974ZM666.21,63.3h-0.673v0.963h0.673V63.3Zm0,1.669h-0.673v1.012h0.673V64.974Zm3.59,1.856v2.151h-0.764V66.83H667.2V66.123h1.841v-1.04h-0.785a1.609,1.609,0,0,1-.226.486,2,2,0,0,1-.367.467l-0.553-.56a1.924,1.924,0,0,0,.513-0.815,2.9,2.9,0,0,0,.151-1.041l0.754,0.059a4.526,4.526,0,0,1-.07.7h0.583V63.393H669.8v0.982h1.166v0.707H669.8v1.04h1.69V66.83H669.8Zm11.385,2.092a18.722,18.722,0,0,1-3.148-.4,9.606,9.606,0,0,1-1.922-.654l-0.311.206a7.171,7.171,0,0,1-2.886.933l-0.453-.658a13.624,13.624,0,0,0,1.413-.309,8.831,8.831,0,0,0,1.514-.554,6.858,6.858,0,0,1-1.459-1.257l0.584-.384a11.659,11.659,0,0,0,1.469,1.12,2.709,2.709,0,0,0,.346-0.589,3.137,3.137,0,0,0,.207-0.648H673.8V62.087h2.886v-0.7h-3.932V60.673h8.578v0.717h-3.882v0.7h2.787v3.644H677.3a3.615,3.615,0,0,1-.232.869,2.941,2.941,0,0,1-.422.742,4.949,4.949,0,0,0,1.226.407,17.521,17.521,0,0,0,1.816.284q1.031,0.113,1.967.133Zm-4.5-6.118h-2.122V63.54h2.122V62.8Zm-2.122,1.453v0.757h2.072l0.04-.757h-2.112Zm4.948,0h-2.081l-0.051.757h2.132V64.257Zm0-1.453h-2.062V63.54h2.062V62.8ZM691,64.847a6.671,6.671,0,0,1-.6.9,5.791,5.791,0,0,1-1.015,1,7.655,7.655,0,0,1-1.449.893,12.6,12.6,0,0,1-1.774.683,28.008,28.008,0,0,1-2.927.648l-0.5-.678a20.36,20.36,0,0,0,4.505-1.159,3.58,3.58,0,0,0-1.107-.982l0.725-.4a3.1,3.1,0,0,1,1.036,1.071,8.211,8.211,0,0,0,.98-0.6,4.318,4.318,0,0,0,.735-0.653,4.246,4.246,0,0,0,.467-0.634H687.5a8.008,8.008,0,0,1-1.142.8,18.924,18.924,0,0,1-2.036.972l-0.584-.629a12.975,12.975,0,0,0,2.529-1.183,7.022,7.022,0,0,0,1.8-1.586,12.411,12.411,0,0,1-1.881.909,20.574,20.574,0,0,1-2.957.879l-0.483-.659q0.8-.176,1.735-0.431a11.659,11.659,0,0,0,1.4-.452,3.5,3.5,0,0,0-1.126-.825l0.7-.442a3.225,3.225,0,0,1,.589.427,3.982,3.982,0,0,1,.537.546,8.992,8.992,0,0,0,1.066-.629,9.476,9.476,0,0,0,.935-0.766H685.82a10.837,10.837,0,0,1-2.2,1.091l-0.664-.609a7.766,7.766,0,0,0,3.882-2.377l0.7,0.364a7.381,7.381,0,0,1-.734.785h2.836v0.658a7.133,7.133,0,0,1-.679.751,7.267,7.267,0,0,1-.739.643l0.593,0.314a4.66,4.66,0,0,1-.534.707H691v0.659Z"/>
</svg>
