<svg id="SC" xmlns="http://www.w3.org/2000/svg" width="728" height="90" viewBox="0 0 728 90">
  <defs>
    <style>
      .cls-1 {
        fill: #4c286c;
        fill-rule: evenodd;
      }
    </style>
  </defs>
  <g id="txt1">
    <path class="cls-1" d="M84.713,48.747q-0.323.393-1.133,1.554a23.479,23.479,0,0,0-1.709,2.984,35.19,35.19,0,0,1-4.35-2.788V61.006H72.559V59.791H64.145V60.97h-5.07V51q-1.078.786-1.834,1.287a17.53,17.53,0,0,1-1.654.965l-0.467.25A25.877,25.877,0,0,0,51.991,49a22.845,22.845,0,0,0,6.832-3.789h-6.4V40.92h9.6l0.431-.715H56.27V36.1h7.624l0.18-.715h-9.53V31.092h10.32a15.165,15.165,0,0,0,.18-2.109l4.962,0.393-0.144,1.715H82.088V35.38H69.143l-0.18.715H80.29V40.2h-12.8l-0.359.715H84.21v4.289H78.277q1.474,1.038,3.2,2.02A20.421,20.421,0,0,0,84.713,48.747ZM71.768,45.208H64.936l-0.862.929H72.6Zm0.792,4.968H64.145v0.858h8.414V50.176Zm0,4.754H64.145v0.858h8.414V54.93Zm35.48,5.325V57.967H96.389v2.359H91.534V30.52H113V60.255h-4.963Zm0-24.982H96.389v6.5h11.651v-6.5Zm0,11.079H96.389v6.826h11.651V46.352Z"/>
  </g>
</svg>
