<svg id="SC" xmlns="http://www.w3.org/2000/svg" width="728" height="90" viewBox="0 0 728 90">
  <defs>
    <style>
      .cls-1 {
        fill: #4c286c;
        fill-rule: evenodd;
      }
    </style>
  </defs>
  <g id="txt1">
    <path class="cls-1" d="M153.521,52.184q-0.216,3.714-.359,4.405a7.735,7.735,0,0,1-.287,1.074,4.752,4.752,0,0,1-.287.637,5,5,0,0,1-1.365,1.638,2.979,2.979,0,0,1-1.8.546h-4.094a2.809,2.809,0,0,1-1.849-.71,3.823,3.823,0,0,1-1.185-1.693,5.568,5.568,0,0,1-.342-1.82V40.533H140.63A34.112,34.112,0,0,1,138.4,53.021a18.382,18.382,0,0,1-6.284,7.973,10.046,10.046,0,0,0-2.729-3.277v3.095H124.4l0.036-14.527q-0.431.62-.521,0.746a6.3,6.3,0,0,1-.916.71,18.894,18.894,0,0,0-1.346-2.494,22.034,22.034,0,0,0-1.669-2.385,26.44,26.44,0,0,0,4.524-6.645,40.7,40.7,0,0,0,3.231-8.21l4.669,1.529a61.708,61.708,0,0,1-3.017,8.956V56.407a21.774,21.774,0,0,0,2.441-2.349,12.792,12.792,0,0,0,1.688-2.385,16.983,16.983,0,0,0,1.2-3,40.018,40.018,0,0,0,1.023-6.827V40.533H130.9V35.618h4.92V30.193a0.567,0.567,0,0,0-.323-0.528,0.566,0.566,0,0,1-.342-0.4,1.363,1.363,0,0,1,.054-0.273l0.216-.182h5.314v6.808l5.458,0.036a13.948,13.948,0,0,0-1.4-2.33A13.9,13.9,0,0,0,143,31.176l3.77-2.076a22.765,22.765,0,0,1,3.951,5.17q-0.218.109-1.15,0.565a10.452,10.452,0,0,0-1.293.71l4.022,0.073v4.915h-5.566V54.659a0.811,0.811,0,0,0,.611.892,1.41,1.41,0,0,0,1.077-.091,0.835,0.835,0,0,0,.5-0.51,20.931,20.931,0,0,0,.432-4.041A24.114,24.114,0,0,0,153.521,52.184Zm10.772-.728a23.128,23.128,0,0,1-1.652,5.534,13.084,13.084,0,0,1-2.083,3.2,10.637,10.637,0,0,0-1.812-1.42,18.9,18.9,0,0,0-2.137-1.2,12.226,12.226,0,0,0,1.9-2.621,18.812,18.812,0,0,0,1.616-4.369ZM174.922,34.38v0.8h9.551v9.648l1.077-.145a20.049,20.049,0,0,1,2.8,5.607,18.046,18.046,0,0,0-4.309,1.019,7.214,7.214,0,0,0-.718-1.529l-8.187.145a17.615,17.615,0,0,1,1.418,1.566,15.763,15.763,0,0,1,1.239,1.711q-0.108.037-1.58,0.856a20.6,20.6,0,0,0-2.154,1.329q-0.144-.219-0.718-1.147t-1.2-1.748a11.043,11.043,0,0,0-1.455-1.547l2.155-.874-14.363.364-0.789-4.224H170.11l-0.036-.8h-9.48V35.181h9.48v-0.8H156.752v-3.9h13.322V29.72l-0.251-.4a0.3,0.3,0,0,1-.054-0.309,0.309,0.309,0,0,1,.162-0.237h4.991v1.711h13.465v3.9H174.922ZM189,56.407a7.045,7.045,0,0,0-1.257.655,15.961,15.961,0,0,0-2.477,2.33,38.713,38.713,0,0,0-3.232-3.968,6.135,6.135,0,0,1-1.634,3.768,4.9,4.9,0,0,1-3.464,1.183h-8.008a5,5,0,0,1-1.633-.291,2.647,2.647,0,0,1-1.348-1.019,2.76,2.76,0,0,1-.5-1.6v-5.5a0.727,0.727,0,0,0-.089-0.292,1.119,1.119,0,0,0-.2-0.291q-0.431-.254-0.215-0.492a0.737,0.737,0,0,1,.574-0.236h4.524V54.8a1.361,1.361,0,0,0,.233.91,1.006,1.006,0,0,0,.772.255h5.315q1.4,0,1.651-2.476A11.087,11.087,0,0,0,182,55.388a17.245,17.245,0,0,0-2.622-2.33l3.59-2.185a23.036,23.036,0,0,1,2.784,2.148A28.084,28.084,0,0,1,189,56.407ZM170.074,38.094h-4.847V39h4.847v-0.91Zm0,3.532h-4.847V42.5h4.847V41.625Zm9.8-3.532h-4.955V39h4.955v-0.91Zm0,3.532h-4.955V42.5h4.955V41.625Zm1.579,3.786h-6.534v0.947h7.109Z"/>
  </g>
</svg>
