<svg id="SC" xmlns="http://www.w3.org/2000/svg" width="728" height="90" viewBox="0 0 728 90">
  <defs>
    <style>
      .cls-1 {
        fill: #4c286c;
        fill-rule: evenodd;
      }
    </style>
  </defs>
  <g id="txt1">
    <path class="cls-1" d="M489.561,49.652l-0.63-1.936,1.834-.294V44.77h-1.491V43.059h1.491V41.277h-1.776V39.523h5.1v1.754H492.67v1.782h1.147V44.77H492.67V47l1.563-.295v1.8Zm12.51-1.613a7.9,7.9,0,0,1-.473,2.1,1.066,1.066,0,0,1-.9.582,10.851,10.851,0,0,1-2.407.042,1.115,1.115,0,0,1-.494-0.182,0.94,0.94,0,0,1-.352-0.561,4.585,4.585,0,0,1-.129-1.108,5.826,5.826,0,0,1-1.361,1.1,14.5,14.5,0,0,1-2.135.975,5.466,5.466,0,0,0-.48-0.982,4.236,4.236,0,0,0-.638-0.815,9.59,9.59,0,0,0,1.82-.589,5.128,5.128,0,0,0,1.354-.849,2.642,2.642,0,0,0,.753-1.116,5.1,5.1,0,0,0,.214-1.613V41.248h1.806v4.069h0.315V48.46a0.577,0.577,0,0,0,.065.266,0.554,0.554,0,0,0,.48.127,1.226,1.226,0,0,0,.372,0,0.361,0.361,0,0,0,.237-0.112,0.863,0.863,0,0,0,.121-0.252,6.153,6.153,0,0,0,.144-1.178A3.53,3.53,0,0,0,502.071,48.039Zm-2.809-1.192V40.8H496.2v6.047h-1.82V38.92h6.72v7.927h-1.834Zm16.692,0.561a11.105,11.105,0,0,1-.207,1.473,2.586,2.586,0,0,1-.372.883,1.5,1.5,0,0,1-.724.547,3.092,3.092,0,0,1-.817.168q-0.544.057-1.8,0.057h-5.416a1.668,1.668,0,0,1-.667-0.162,1.548,1.548,0,0,1-.638-0.554,1.453,1.453,0,0,1-.272-0.842v-6.5a0.263,0.263,0,0,0-.178-0.176,0.228,0.228,0,0,1-.165-0.217,0.32,0.32,0,0,1,.029-0.126,0.3,0.3,0,0,1,.272-0.071h1.992v1.333h5.072V40.954h-7.752v-1.88h9.671v6.762h-1.919V45.079h-5.072v3.269q0,0.407.573,0.406h4.656a7.109,7.109,0,0,0,.881-0.041,1.008,1.008,0,0,0,.5-0.2,1.512,1.512,0,0,0,.322-0.351,13.1,13.1,0,0,0,.258-1.544A5.361,5.361,0,0,0,515.954,47.408Z"/>
  </g>
</svg>
