<svg id="SC" xmlns="http://www.w3.org/2000/svg" width="728" height="90" viewBox="0 0 728 90">
  <defs>
    <style>
      .cls-1 {
        fill: #4c286c;
        fill-rule: evenodd;
      }
    </style>
  </defs>
  <g id="txt1">
    <path class="cls-1" d="M526.937,50.238V51H525.02V44.13l-0.219.247v1.094l-1.273.437v3.485a1.441,1.441,0,0,1-.556,1.2,5.53,5.53,0,0,1-1.917.349,3.009,3.009,0,0,0-.746-1.982q0.1,0,.4.015c0.2,0.01.357,0.012,0.468,0.007a1.752,1.752,0,0,0,.3-0.036,0.249,0.249,0,0,0,.153-0.1,0.233,0.233,0,0,0,.066-0.138V46.535l-1.317.409-0.41-2.173,1.727-.379v-2.04H520.06V40.543H521.7V38.6a0.235,0.235,0,0,0-.125-0.125,0.215,0.215,0,0,1-.124-0.167,0.228,0.228,0,0,1,.058-0.1,0.315,0.315,0,0,1,.249-0.074h1.771v2.406h1.39v0.511a15.66,15.66,0,0,0,1.288-3.047l1.96,0.394a11.4,11.4,0,0,1-.505,1.1q-0.358.707-.461,0.926h1.288a12.1,12.1,0,0,0,.776-2.377l1.989,0.511c-0.038.087-.122,0.3-0.248,0.627s-0.23.588-.308,0.772-0.151.341-.219,0.467h2.385v1.895H530.3v0.845h2.327V44.96H530.3v0.846h2.327v1.808H530.3v0.773h2.649v1.851h-6.014Zm-3.409-7.886v0.466l0.5-.466h-0.5Zm0.556,1.4a2.267,2.267,0,0,0-.556-0.466v0.641Zm4.316-1.414h-1.463v0.845H528.4V42.337Zm0,2.624h-1.463v0.846H528.4V44.96Zm0,2.654h-1.463v0.773H528.4V47.614Zm16.564,3.368V50.3H537.34v0.656H535.5v-5.6a0.168,0.168,0,0,0-.139-0.139,0.175,0.175,0,0,1-.139-0.168c0-.116.1-0.175,0.307-0.175h1.8v3.674h2.78V44.086h-2.37v0.467h-1.888V39.275a0.2,0.2,0,0,0-.146-0.125,0.2,0.2,0,0,1-.146-0.167,0.13,0.13,0,0,1,.08-0.117,0.373,0.373,0,0,1,.183-0.044h1.917v3.455h2.37V38.633a0.173,0.173,0,0,0-.052-0.116,0.216,0.216,0,0,0-.109-0.074,0.144,0.144,0,0,1-.147-0.131A0.165,0.165,0,0,1,540,38.152h2.122v4.126H544.6V39.3a0.2,0.2,0,0,0-.147-0.138,0.192,0.192,0,0,1-.145-0.153c0-.106.087-0.16,0.263-0.16h2v5.714H544.6V44.086h-2.473v4.476h2.839V45.311a0.193,0.193,0,0,0-.139-0.1,0.183,0.183,0,0,1-.139-0.161c0-.106.088-0.16,0.263-0.16h2v6.094h-1.99Z"/>
  </g>
</svg>
