<svg id="SC" xmlns="http://www.w3.org/2000/svg" width="728" height="90" viewBox="0 0 728 90">
  <defs>
    <style>
      .cls-1 {
        fill: #4c286c;
        fill-rule: evenodd;
      }
    </style>
  </defs>
  <g id="txt1">
    <path class="cls-1" d="M491.542,49.652l-0.63-1.936,1.835-.294V44.77h-1.491V43.059h1.491V41.277H490.97V39.523h5.1v1.754h-1.418v1.782H495.8V44.77h-1.146V47l1.562-.295v1.8Zm12.51-1.613a7.9,7.9,0,0,1-.473,2.1,1.066,1.066,0,0,1-.9.582,10.851,10.851,0,0,1-2.407.042,1.115,1.115,0,0,1-.494-0.182,0.939,0.939,0,0,1-.351-0.561,4.528,4.528,0,0,1-.13-1.108,5.821,5.821,0,0,1-1.36,1.1,14.573,14.573,0,0,1-2.136.975,5.4,5.4,0,0,0-.48-0.982,4.2,4.2,0,0,0-.638-0.815A9.624,9.624,0,0,0,496.5,48.6a5.138,5.138,0,0,0,1.353-.849,2.642,2.642,0,0,0,.753-1.116,5.1,5.1,0,0,0,.214-1.613V41.248h1.806v4.069h0.316V48.46a0.576,0.576,0,0,0,.064.266,0.555,0.555,0,0,0,.48.127,1.226,1.226,0,0,0,.372,0,0.361,0.361,0,0,0,.237-0.112,0.863,0.863,0,0,0,.121-0.252,6.069,6.069,0,0,0,.144-1.178A3.534,3.534,0,0,0,504.052,48.039Zm-2.808-1.192V40.8h-3.067v6.047h-1.82V38.92h6.72v7.927h-1.833Zm16.692,0.561a11.245,11.245,0,0,1-.208,1.473,2.586,2.586,0,0,1-.372.883,1.5,1.5,0,0,1-.724.547,3.082,3.082,0,0,1-.816.168q-0.545.057-1.806,0.057h-5.416a1.676,1.676,0,0,1-.667-0.162,1.539,1.539,0,0,1-.637-0.554,1.447,1.447,0,0,1-.273-0.842v-6.5a0.26,0.26,0,0,0-.178-0.176,0.228,0.228,0,0,1-.165-0.217,0.339,0.339,0,0,1,.029-0.126,0.3,0.3,0,0,1,.272-0.071h1.992v1.333h5.072V40.954h-7.752v-1.88h9.671v6.762h-1.919V45.079h-5.072v3.269q0,0.407.573,0.406H514.2a7.109,7.109,0,0,0,.881-0.041,1.008,1.008,0,0,0,.5-0.2,1.49,1.49,0,0,0,.322-0.351,12.7,12.7,0,0,0,.258-1.544A5.366,5.366,0,0,0,517.936,47.408Z"/>
  </g>
</svg>
