<svg id="SC" xmlns="http://www.w3.org/2000/svg" width="728" height="90" viewBox="0 0 728 90">
  <defs>
    <style>
      .cls-1 {
        fill: #4c286c;
        fill-rule: evenodd;
      }
    </style>
  </defs>
  <path id="txt2" class="cls-1" d="M60.989,36.921v4.818a1.346,1.346,0,0,1-1.419,1.612H56.813L56.253,41.7q2,0.182,2.517.161a0.644,0.644,0,0,0,.7-0.706V36.921H51.8V35.45H59.47V32.386H53.456V30.915H59.47v-2.8q-1.619.2-6.214,0.322l-0.9-1.491a57.47,57.47,0,0,0,7.612-.363,29.929,29.929,0,0,0,6.654-1.391l0.839,1.149a27.534,27.534,0,0,1-6.473,1.593v2.983H66.7v1.471H60.989V35.45h7.352v1.471H60.989Zm16.663-.262a8.045,8.045,0,0,0-.5-1.391,8.205,8.205,0,0,0-.839-1.431l-0.059,9.433H74.675V34.846a13.028,13.028,0,0,1-.959,1.683,12.409,12.409,0,0,1-1.479,1.844l-1.178-1.029a12.3,12.3,0,0,0,1.359-1.693,13.19,13.19,0,0,0,1.289-2.429,14.826,14.826,0,0,0,.828-2.63H71.658V29.141h3.017v-3.83h1.579v3.83h2.757v1.452H76.254v1.995l0.62-.383a8.8,8.8,0,0,1,2.218,3.547ZM89.46,38.918a23.616,23.616,0,0,1-.7,2.66,1.369,1.369,0,0,1-.519.7,1.442,1.442,0,0,1-.859.272H86.023a2.045,2.045,0,0,1-.759-0.151,1.047,1.047,0,0,1-.549-0.454,1.262,1.262,0,0,1-.17-0.625V27.669H81.428v9.152A7.889,7.889,0,0,1,80.58,40.3a10.852,10.852,0,0,1-2.348,3.154l-1.358-1.129A11.69,11.69,0,0,0,79.11,39.6a5.891,5.891,0,0,0,.8-2.983v-10.4h6.153V40.832q0,0.263.36,0.263h0.639a0.457,0.457,0,0,0,.38-0.292,3.068,3.068,0,0,0,.269-0.767q0.11-.472.22-1.209c0.073-.491.117-0.777,0.13-0.857Zm11.049-2.6q-0.16-.261-0.57-0.817a12.018,12.018,0,0,0-.978-1.149q-0.569-.594-0.89-0.877l1.119-1.129a16.489,16.489,0,0,1,2.737,2.581Zm13.366-1.956a5.307,5.307,0,0,0-1.348-1.784,5.9,5.9,0,0,0-1.988-1.139L111.7,30.33a5.317,5.317,0,0,1,1.918,1.179,7.773,7.773,0,0,1,1.5,1.905Zm1.8,1.25q-0.2,1.048-.56,2.329a12.237,12.237,0,0,1-.949,2.4,10.4,10.4,0,0,1-1.089,1.723q-0.5.6-.858,0.968l-1.319-.988a9.1,9.1,0,0,0,2.257-3.074,14.063,14.063,0,0,0,1.139-3.941Zm-1-5.886a4.884,4.884,0,0,0-3.117-2.479l1.119-1.089a6.073,6.073,0,0,1,3.177,2.46Zm4.456,4.9q0,0.161.01,1.2t-0.04,1.915a8.485,8.485,0,0,1-.26,1.673,6.151,6.151,0,0,1-.6,1.481,5.663,5.663,0,0,1-1.1,1.341,6.639,6.639,0,0,1-1.869,1.158l-1.1-1.31a6.852,6.852,0,0,0,1.458-.756,4.308,4.308,0,0,0,1.189-1.219,4.485,4.485,0,0,0,.659-1.662,11.339,11.339,0,0,0,.15-2.2q-0.02-1.28,0-1.622h1.5Zm2.6-5.685a16.265,16.265,0,0,1-1.319,2.268,6.576,6.576,0,0,1-1.2,1.26l5.494-.544a4.916,4.916,0,0,0-1.719-.907l1.479-1.008a8.6,8.6,0,0,1,1.928,1.522,7.688,7.688,0,0,1,1.449,2.046l-1.339.906a5.777,5.777,0,0,0-.72-1.27q-2.356.2-4.924,0.524t-3.987.605l-1-1.35a8.481,8.481,0,0,0,2.408-1.593,7.134,7.134,0,0,0,1.769-2.46h-4.116V27.468h5.115a4.934,4.934,0,0,0-2.179-1.531l1.279-.927a4.161,4.161,0,0,1,1.4.856,6.2,6.2,0,0,1,1.139,1.381l-0.32.181,5.595,0.04v1.471h-6.234Zm-1.019,14.05V34.563h1.518v8.426h-1.518ZM128.8,38.9a10.706,10.706,0,0,1-.42,2.439,1.946,1.946,0,0,1-.509.807,1.321,1.321,0,0,1-.81.4,3.6,3.6,0,0,1-2.167-.283,1.483,1.483,0,0,1-.689-1.37v-6.33h1.518v6.087a0.409,0.409,0,0,0,.07.3,0.651,0.651,0,0,0,.3.2,1,1,0,0,0,.519.031,0.426,0.426,0,0,0,.369-0.212,3.142,3.142,0,0,0,.25-1.038,14.658,14.658,0,0,0,.13-1.562Zm1.9,3.689V41.114h8.132V40.53h-6.393V39.22h6.393V38.7h-5.674v-5.12h12.907V38.7h-5.714V39.22h6.473v1.31h-6.473v0.585h8.192v1.471H130.7Zm0.759-9.474V31.8h16.264v1.311H131.457Zm2.278-1.774V26.077H145.4v5.261H133.735Zm5.095,5.3h-4.176l0.02,0.745h4.156V36.64Zm-4.156-1.754v0.625h4.156l0.02-.625h-4.176Zm9.211-7.418h-8.632v0.646h8.632V27.468Zm0,1.814h-8.632v0.746h8.632V29.282Zm0.66,5.6h-4.2l0.019,0.625h4.177V34.886Zm0,1.754h-4.2v0.745h4.2V36.64ZM167.3,43.311a18.116,18.116,0,0,1-6.174-3.164,14.8,14.8,0,0,1-5.894,3.164l-0.979-1.35A15.286,15.286,0,0,0,159.97,39.1a15.378,15.378,0,0,1-2.139-2.731,18.393,18.393,0,0,1-1.538-3.235,19.929,19.929,0,0,1-1.139,6.309,15.623,15.623,0,0,1-2.537,3.931q-0.321-.162-0.949-0.544t-0.67-.4a9.931,9.931,0,0,0,3.077-5.039q0.14-.624.29-1.673t0.269-3.305q0.141-2.56.08-4.354h-2.677V26.521h12.728v1.33q-0.979,1.472-2.6,3.629h3.956a10.651,10.651,0,0,1-1.259,4.172,17.025,17.025,0,0,1-2.537,3.387,16.872,16.872,0,0,0,5.914,2.822Zm-7.273-10.36V31.62q1.719-2.178,2.637-3.568h-6.253v0.927q0.24,0.848.639,2.016a33.082,33.082,0,0,0,1.4,3.266,12.186,12.186,0,0,0,.889,1.572,18.4,18.4,0,0,0,1.848,2.177,13.657,13.657,0,0,0,1.848-2.389,10.683,10.683,0,0,0,1.249-2.67h-4.256Zm28.412,5.986q0,3.468-1.418,3.608l-0.58.061h-6.554q-1.637,0-1.638-2V38.293h-5.914V28.456h5.914V25.371h1.519v3.085h6.054v9.837H179.77v2.439a0.464,0.464,0,0,0,.559.484h6.015a1.413,1.413,0,0,0,.6-1.392l0.08-1.572Zm-10.19-8.99h-4.475v2.621h4.475V29.947Zm0,4.092h-4.475v2.8h4.475v-2.8Zm6.055-4.092H179.77v2.621h4.536V29.947Zm0,4.092H179.77v2.8h4.536v-2.8Zm16.082,0.785v6.733a1.7,1.7,0,0,1-.938,1.391,2.31,2.31,0,0,1-.98.2q-0.718.04-2.2,0L195.134,41.7h2.937a0.7,0.7,0,0,0,.59-0.272,1.08,1.08,0,0,0,.209-0.676V34.825h-7.652V33.354h7.652V31.338a24.175,24.175,0,0,0,2.038-1.522,15.636,15.636,0,0,0,2.1-2.046h-9.331V26.3h11.509v1.129a20.256,20.256,0,0,1-2.247,2.56,18.567,18.567,0,0,1-2.549,2.1v1.27h7.273v1.471h-7.273Zm17.263-7.3V29.6h2.6V43.332h-1.578V41.86h-6.034v1.471h-1.518V29.6h2.717V27.529H210.4V26.057h10.21v1.471h-2.958Zm1.02,8.667h-1.179a1.434,1.434,0,0,1-.669-0.3,1.561,1.561,0,0,1-.51-0.625,1.677,1.677,0,0,1-.16-0.665V31.137h-0.779a16.557,16.557,0,0,1-.39,3.084,6.831,6.831,0,0,1-.679,1.7,12.01,12.01,0,0,1-.829,1.239l-0.839-.483v0.846h6.034V36.2Zm-6.034-5.059v4.6a7.211,7.211,0,0,0,.819-1.673,10.713,10.713,0,0,0,.38-2.922h-1.2ZM218.73,39h-6.093v1.391h6.093V39Zm-2.577-11.469h-0.8v2.136h0.8V27.529Zm2.518,3.608h-1.079v3.406a0.528,0.528,0,0,0,.1.141,0.548,0.548,0,0,0,.191.111,0.943,0.943,0,0,0,.28.06,2.342,2.342,0,0,0,.309,0c0.106-.007.173-0.01,0.2-0.01V31.137Zm9.351,7.881a11.187,11.187,0,0,1-.64,2.741,2.509,2.509,0,0,1-.639.917,1.587,1.587,0,0,1-.759.413h-2.917a1.488,1.488,0,0,1-.72-0.212,1.7,1.7,0,0,1-.639-0.665,1.724,1.724,0,0,1-.26-0.856V32.286h3.7V27.529h-4.115V26.057h5.634v8.385h-1.519V33.757h-2.117v7.459q0,0.483.759,0.483h1.658q0.659,0,1.059-3.185Zm7.791-13.526a24.74,24.74,0,0,1-1.239,4.576V43.332h-1.518V32.951l-1.838,2.721-1.3-.928a20.878,20.878,0,0,0,4.456-9.554Zm6.674,10.684v7.034h-1.579V36.176h-5.574V34.644h5.574V30.633h-2.7a19.015,19.015,0,0,1-1.739,3.245l-1.4-.706a12.738,12.738,0,0,0,1.709-3.054,14.81,14.81,0,0,0,.849-3.517l1.379,0.443a9.583,9.583,0,0,1-.3,2.056h2.2V25.109h1.579V29.1h4.155v1.533h-4.155v4.011H248v1.533h-5.514ZM68.5,60.107a9.97,9.97,0,0,1-1.478-.564,10.884,10.884,0,0,1-1.8-1.029v7.278H63.566v-1.23H56.873v1.29H55.294v-7.64a12.782,12.782,0,0,1-1.569,1.008,11.753,11.753,0,0,1-1.688.787L51,58.777q0.878-.384,1.918-0.958a16.994,16.994,0,0,0,1.808-1.139,7.673,7.673,0,0,0,1.149-.988H52.057V54.221h5.094a6.972,6.972,0,0,0,.76-1.129H54.734V51.621h3.837a8.31,8.31,0,0,0,.42-0.948H53.356V49.2H59.31a12.274,12.274,0,0,0,.26-1.573l1.459,0.323a10.392,10.392,0,0,1-.181,1.25H67v1.471H60.529l-0.3.948H65.7v1.471H59.61l-0.6,1.129h9.33v1.471H64.325a9.567,9.567,0,0,0,5,3.044Zm-5.055-3.043a7.434,7.434,0,0,1-1.079-1.371l-4.376.021a15.384,15.384,0,0,1-1.22,1.351h6.674Zm0.12,1.471H56.873v1.431h6.694V58.535Zm0,2.9H56.873V63.09h6.694V61.437Zm20.579,3.628V63.11H76.294v2.035H74.715v-15.7H85.724V65.065H84.145Zm0-14.15H76.294V55.43h7.852V50.916Zm0,5.986H76.294v4.737h7.852V56.9ZM97.772,59a2.637,2.637,0,0,1-.62,1.21,2.37,2.37,0,0,1-1.079.766,3.759,3.759,0,0,1-1.938.06l-0.36-1.672q0.958,0.2,1.169.231a1.5,1.5,0,0,0,.39.01,1.09,1.09,0,0,0,.319-0.081,1.056,1.056,0,0,0,.22-0.12,1.324,1.324,0,0,0,.41-0.636,2.081,2.081,0,0,0,.011-1.1A5.906,5.906,0,0,0,94.255,54.6q1.358-3.185,1.758-4.494H93.535v15.7l-1.518.04V48.6h5.615v1.491l-1.679,4.253a7.655,7.655,0,0,1,1.289,1.573,4.045,4.045,0,0,1,.57,1.562A4.873,4.873,0,0,1,97.772,59Zm9.93,6.753a7.918,7.918,0,0,1-2.957-2.1,9.821,9.821,0,0,1-2-3.085,12.585,12.585,0,0,1-.72-3.245H99.949v6.108q0.441-.223,1.738-0.746t1.319-.525V63.7L98.73,65.59q-0.039-.021-0.509-0.393t-0.749-.615a2.18,2.18,0,0,0,.679-0.525,1.306,1.306,0,0,0,.28-0.887V48.637H106.9v8.688h-3.377a15.4,15.4,0,0,0,.29,1.613,7.176,7.176,0,0,0,.49,1.289l2.9-2.58,1.139,1.048c-0.214.2-.542,0.5-0.989,0.9s-1.249,1.025-2.408,1.885a6.191,6.191,0,0,0,1.529,1.744,8.357,8.357,0,0,0,2.148,1.26ZM105.384,50.11H99.949v2.076h5.435V50.11Zm-5.435,3.547v2.218l5.375-.04,0.039-2.177H99.949ZM128,64.763h-4.516a14.157,14.157,0,0,1-3.846-.222,8.179,8.179,0,0,1-3.387-1.35l-1.4-1.15a10.644,10.644,0,0,1-3.058,3.81,8.726,8.726,0,0,1-.669-0.665c-0.273-.3-0.462-0.5-0.569-0.6a8.921,8.921,0,0,0,1.229-.937,6.942,6.942,0,0,0,1.218-1.452,5.8,5.8,0,0,0,.77-1.743,17.965,17.965,0,0,0,.379-3.568h1.559a22.388,22.388,0,0,1-.34,3.568,9.8,9.8,0,0,0,1.189,1.118,7.666,7.666,0,0,0,1.369.917,4.4,4.4,0,0,0,1.039.4v-7.6h-5.1l0.04-1.471H125.6V55.29h-5.115l-0.06,2.983h6.234v1.471h-6.174v3.407l2.558,0.081h5.733Zm-1.8-10.7,0.039-2.519H113.376v2.4h-1.518V50.069h7.712a9.354,9.354,0,0,0-2.437-1.794l1.358-.786a10.851,10.851,0,0,1,1.5,1,14.123,14.123,0,0,1,1.379,1.2l-0.479.323,6.873,0.061v3.99H126.2Zm10.488-5.886q-0.279,1.09-.569,2.036t-0.91,2.479V65.711H133.7V55.773q-0.04.061-.759,1.048a11.588,11.588,0,0,1-1.179,1.431l-1.3-.968a18.547,18.547,0,0,0,2.938-4.434,21.8,21.8,0,0,0,1.878-5.282ZM148.5,62.183a7.853,7.853,0,0,1-.63,2.278,1.066,1.066,0,0,1-.909.685h-4.116a1.18,1.18,0,0,1-1.359-1.31V57.285a12.768,12.768,0,0,1-2.8,6.551,9.428,9.428,0,0,1-2.4,1.956l-1.018-1.21a9.254,9.254,0,0,0,2.907-2.781,12.949,12.949,0,0,0,1.748-4.455,14.969,14.969,0,0,0,.25-1.523q0.109-.917.13-1.6h-4.316V52.749h4.4v-5h1.518v5h6.354v1.471h-6.394l-0.06.786h1.259v8.285a0.418,0.418,0,0,0,.09.273,0.3,0.3,0,0,0,.249.11h2.858a0.568,0.568,0,0,0,.309-0.07,0.989,0.989,0,0,0,.25-0.434,12.27,12.27,0,0,0,.2-2.137Zm-3-9.555a7.271,7.271,0,0,0-.989-1.3,14.928,14.928,0,0,0-1.889-1.623l1.139-.988a11.074,11.074,0,0,1,1.549,1.321,16.22,16.22,0,0,1,1.428,1.643Zm10.089,8.749a6.663,6.663,0,0,1-1.708,1.733,8.551,8.551,0,0,1-2.267,1.169l-1.179-1.23a7.943,7.943,0,0,0,4.075-2.52Q155.373,61.176,155.593,61.377Zm4.756-10.845v0.7h5.314v6.068h-0.419a8.235,8.235,0,0,1,2.718,2.479l-1.34.887A8.683,8.683,0,0,0,165.7,59.5q-2.776.121-6.373,0.121,0.1,0.061.53,0.312t0.8,0.515a4.317,4.317,0,0,1,.7.624,6.542,6.542,0,0,1,.519.636q0.19,0.272.25,0.372l-1.3.888a6.717,6.717,0,0,0-2.917-2.56l1.039-.706q-3.915.04-7.212,0.141l-0.82-1.552q1.359,0.021,7.912-.04V57.305h-5.275V51.237h5.275v-0.7h-7.792V49.081h7.792V47.448h1.519v1.633h7.812v1.452h-7.812Zm-1.519,2.156h-3.756v0.766h3.756V52.689Zm0,2.217h-3.756v0.947h3.756V54.907Zm5.475,7.236q-0.041.161-.129,0.635c-0.061.316-.117,0.564-0.171,0.746a3.623,3.623,0,0,1-.21.544,1.814,1.814,0,0,1-.349.493,1.566,1.566,0,0,1-.5.344,5.783,5.783,0,0,1-2.038.141h-3.216a1.764,1.764,0,0,1-.919-0.4,2.3,2.3,0,0,1-.64-0.806,4.852,4.852,0,0,1-.14-1.169V60.489h1.579v2.52a0.684,0.684,0,0,0,.17.343,0.728,0.728,0,0,0,.329.241h3.936a1.1,1.1,0,0,0,.27-0.141,0.681,0.681,0,0,0,.24-0.333,4.35,4.35,0,0,0,.18-0.786,5.727,5.727,0,0,1,.169-0.8A13.022,13.022,0,0,1,164.305,62.143Zm-0.22-9.454h-3.736v0.766h3.736V52.689Zm0,2.217h-3.736v0.947h3.736V54.907Zm-0.22,3.2a5.668,5.668,0,0,1-.978-0.464l0.5-.3-3.037-.04v0.866ZM167.5,64.7a8.657,8.657,0,0,0-3.636-3.145L165,60.691a8.46,8.46,0,0,1,2.288,1.371,7.95,7.95,0,0,1,1.469,1.714Zm8.872-16.489a34.645,34.645,0,0,1-1.778,5.16V65.852h-1.518v-9.7a22.071,22.071,0,0,1-1.639,1.915l-1.4-.887a20.17,20.17,0,0,0,4.915-9.515ZM187.8,56.4a10.49,10.49,0,0,1-2.588-1.814,18.974,18.974,0,0,1-2.2-2.369,22.747,22.747,0,0,1-1.369-1.945,15.415,15.415,0,0,1-2.148,3.024,15.907,15.907,0,0,1-2.147,2.036,12.405,12.405,0,0,1-1.6,1.028l-1.079-1.25a11.273,11.273,0,0,0,4-3.074,17.336,17.336,0,0,0,2.757-4.605l1.319,0.745-0.24.585a17.327,17.327,0,0,0,2.8,3.729A12.4,12.4,0,0,0,189,55.128Zm-7.812,2.46a9.7,9.7,0,0,1-.24,2.277,5.988,5.988,0,0,1-.879,1.935,11.56,11.56,0,0,1-3.057,2.923l-1.139-1.271a7.088,7.088,0,0,0,2.068-1.541,6.509,6.509,0,0,0,1.348-1.936,4.231,4.231,0,0,0,.38-1.562v-5h1.519v4.173Zm3.436,6.934V54.684h1.519V65.792h-1.519Z"/>
</svg>
