<svg id="Frame_3" data-name="Frame 3" xmlns="http://www.w3.org/2000/svg" width="728" height="90" viewBox="0 0 728 90">
  <defs>
    <style>
      .cls-1 {
        fill: #fff;
        fill-rule: evenodd;
      }
    </style>
  </defs>
  <path id="Learn_more" data-name="Learn more" class="cls-1" d="M647.309,60.309V52.473h-1.043v8.772h5.491V60.309h-4.448Zm10.827-2.242c0-1.824-1.031-3.327-2.944-3.327-1.777,0-2.957,1.331-2.957,3.327,0,2.058,1.23,3.327,2.982,3.327a2.67,2.67,0,0,0,2.758-2.082h-1.031a1.647,1.647,0,0,1-1.7,1.183,1.908,1.908,0,0,1-1.975-2.082h4.87V58.067Zm-2.944-2.427a1.872,1.872,0,0,1,1.876,1.885h-3.777A1.877,1.877,0,0,1,655.192,55.64Zm9.326,4.805a0.293,0.293,0,0,1-.348-0.308V56.588c0-1.072-.634-1.848-2.41-1.848-1.876,0-2.535.875-2.609,2.107h0.994c0.062-.949.522-1.257,1.615-1.257s1.441,0.333,1.441,1a0.889,0.889,0,0,1-1.006.875l-0.92.1c-1.764.185-2.373,0.973-2.373,1.971,0,1.2.87,1.86,2.262,1.86a2.357,2.357,0,0,0,2.087-1.023,0.916,0.916,0,0,0,1.081.912,3.807,3.807,0,0,0,.546-0.037v-0.8h-0.36Zm-3.305.111a1.058,1.058,0,0,1-1.279-1.047c0-.616.323-1.01,1.49-1.146l0.932-.111a1.664,1.664,0,0,0,.845-0.271v0.752A1.835,1.835,0,0,1,661.213,60.556ZM668.8,54.79a2.241,2.241,0,0,0-2.063,1.22V54.888h-0.944v6.358h0.994V57.623a1.821,1.821,0,0,1,2.1-1.873h0.248V54.8C669,54.79,668.9,54.79,668.8,54.79Zm4.235-.049a2.365,2.365,0,0,0-2.012,1.1V54.888h-0.945v6.358h0.994v-3.6a1.816,1.816,0,0,1,1.764-2.021,1.281,1.281,0,0,1,1.467,1.417v4.2h0.993v-4.3A2.035,2.035,0,0,0,673.033,54.74Zm12.388,0a2.218,2.218,0,0,0-1.976,1.2,2.007,2.007,0,0,0-1.975-1.2,2.062,2.062,0,0,0-1.851,1.084V54.888h-0.944v6.358h0.994V57.771c0-1.528.857-2.144,1.639-2.144a1.219,1.219,0,0,1,1.342,1.4v4.214h0.994V57.771c0-1.528.833-2.144,1.64-2.144a1.215,1.215,0,0,1,1.342,1.4v4.214h0.994V56.933A2.029,2.029,0,0,0,685.421,54.74Zm6.48,6.653a3.334,3.334,0,1,0-3.106-3.327A3.057,3.057,0,0,0,691.9,61.393Zm0-.887c-1.242,0-2.062-.9-2.062-2.44s0.82-2.44,2.062-2.44,2.063,0.9,2.063,2.44S693.144,60.506,691.9,60.506ZM699.2,54.79a2.242,2.242,0,0,0-2.063,1.22V54.888h-0.944v6.358h0.994V57.623a1.821,1.821,0,0,1,2.1-1.873h0.248V54.8C699.394,54.79,699.294,54.79,699.2,54.79Zm6.745,3.277c0-1.824-1.031-3.327-2.944-3.327-1.777,0-2.957,1.331-2.957,3.327,0,2.058,1.23,3.327,2.982,3.327a2.67,2.67,0,0,0,2.758-2.082h-1.032a1.645,1.645,0,0,1-1.7,1.183,1.908,1.908,0,0,1-1.975-2.082h4.87V58.067ZM703,55.64a1.872,1.872,0,0,1,1.876,1.885H701.1A1.877,1.877,0,0,1,703,55.64Z"/>
</svg>
