<svg xmlns="http://www.w3.org/2000/svg" width="728" height="90" viewBox="0 0 728 90">
  <defs>
    <style>
      .cls-1 {
        fill: #248700;
        fill-rule: evenodd;
      }
    </style>
  </defs>
  <path id="Sign_up" data-name="Sign up" class="cls-1" d="M642.278,63.939c2.432,0,3.395-1.225,3.395-2.65,0-1.388-.889-2.175-2.518-2.525l-1.544-.338c-1.1-.237-1.531-0.638-1.531-1.35,0-.938.741-1.475,2-1.475,1.345,0,2.123.6,2.222,1.738h1.1c-0.136-1.725-1.334-2.688-3.284-2.688-2.025,0-3.124,1.025-3.124,2.525,0,1.425,1.037,2.025,2.469,2.325l1.235,0.262c1.37,0.288,1.864.75,1.864,1.588,0,1.013-.741,1.638-2.247,1.638s-2.407-.638-2.531-2.125h-1.1C638.833,62.926,640.08,63.939,642.278,63.939Zm5.053-7.851h1.136V54.85h-1.136v1.238Zm0,7.663h1.136V57.3h-1.136v6.451Zm7.488-6.451v1a2.273,2.273,0,0,0-2.062-1.138c-1.617,0-2.753,1.313-2.753,3.263,0,2,1.049,3.463,2.778,3.463a2.334,2.334,0,0,0,2-1.075v0.838a1.592,1.592,0,0,1-1.852,1.888,1.371,1.371,0,0,1-1.617-.975H650.2c0.172,1.313,1.209,1.888,2.691,1.888,1.8,0,2.988-.838,2.988-2.913V57.3h-1.062Zm-1.926,5.6c-1.1,0-1.753-.975-1.753-2.475,0-1.475.679-2.275,1.778-2.275,1.062,0,1.827.775,1.827,2.3S653.955,62.9,652.893,62.9Zm8.045-5.763a2.419,2.419,0,0,0-2.136,1.075V57.3H657.74v6.451h1.136V60.163a1.76,1.76,0,0,1,1.815-2.025,1.168,1.168,0,0,1,1.272,1.363v4.25H663.1V59.275A1.973,1.973,0,0,0,660.938,57.138Zm11.69,0.163v3.588a1.76,1.76,0,0,1-1.815,2.025,1.167,1.167,0,0,1-1.271-1.363V57.3h-1.136v4.476a1.972,1.972,0,0,0,2.16,2.138,2.417,2.417,0,0,0,2.136-1.075v0.913h1.062V57.3h-1.136Zm6.07-.138a2.291,2.291,0,0,0-2.087,1.175V57.3h-0.987v9h1.135V62.963a2.314,2.314,0,0,0,1.889.925c1.729,0,2.791-1.513,2.791-3.513C681.439,58.425,680.315,57.163,678.7,57.163ZM678.537,62.9c-1.062,0-1.839-.925-1.839-2.45s0.777-2.3,1.839-2.3c1.1,0,1.766.75,1.766,2.225C680.3,61.876,679.636,62.9,678.537,62.9Z"/>
</svg>
