<svg id="Frame_3" data-name="Frame 3" xmlns="http://www.w3.org/2000/svg" width="728" height="90" viewBox="0 0 728 90">
  <defs>
    <style>
      .cls-1 {
        fill: #58595b;
        fill-rule: evenodd;
      }
    </style>
  </defs>
  <path id="_Conditions_apply._" data-name="*Conditions apply. " class="cls-1" d="M644.522,80.6l0.819-1.116L646.16,80.6l0.523-.414-0.829-1.134,1.315-.432L646.953,78l-1.279.414V77.042h-0.666v1.368L643.73,78l-0.216.621,1.323,0.432-0.828,1.134Zm6.226,3a2.714,2.714,0,0,0,2.845-2.512h-0.964a1.822,1.822,0,0,1-1.881,1.656c-1.225,0-2.026-.927-2.026-2.494s0.8-2.494,2.026-2.494a1.766,1.766,0,0,1,1.836,1.413h0.973a2.679,2.679,0,0,0-2.809-2.269c-1.774,0-3.025,1.278-3.025,3.349S648.983,83.6,650.748,83.6Zm4.117-.667a2.1,2.1,0,0,0,1.584.628,2.29,2.29,0,0,0,1.127-.286,1.914,1.914,0,0,0,.787-0.8,3.09,3.09,0,0,0,.27-1.417,2.4,2.4,0,0,0-.611-1.742,2.094,2.094,0,0,0-1.573-.631,2.172,2.172,0,0,0-1.468.519,2.407,2.407,0,0,0-.721,1.92A2.509,2.509,0,0,0,654.865,82.929Zm0.6-3.151a1.3,1.3,0,0,1,1.962,0,1.93,1.93,0,0,1,.393,1.312,2.033,2.033,0,0,1-.391,1.367,1.3,1.3,0,0,1-1.964,0A2.491,2.491,0,0,1,655.465,79.778Zm6.46-1.08a1.72,1.72,0,0,0-1.458.8V78.807H659.6v4.645h0.9v-2.62a1.2,1.2,0,0,1,1.17-1.341,0.866,0.866,0,0,1,.981.972v2.989h0.9V80.337A1.491,1.491,0,0,0,661.925,78.7Zm6.174-1.656v2.395a1.766,1.766,0,0,0-1.5-.738,2.453,2.453,0,0,0,0,4.861,1.776,1.776,0,0,0,1.54-.792v0.684H669v-6.41h-0.9Zm-1.333,5.744a1.372,1.372,0,0,1-1.359-1.62,1.435,1.435,0,0,1,1.359-1.692A1.689,1.689,0,0,1,666.766,82.786Zm3.363-4.636h0.918V77.186h-0.918v0.963Zm0.009,5.3h0.9V78.807h-0.9v4.645Zm4.185-3.907V78.807h-0.936V77.474h-0.9v1.332H671.74v0.738h0.747v2.872a1.031,1.031,0,0,0,1.287,1.062c0.162,0,.351-0.009.549-0.027v-0.72h-0.4c-0.4,0-.531-0.126-0.531-0.4V79.545h0.936Zm0.783-1.4h0.918V77.186h-0.918v0.963Zm0.009,5.3h0.9V78.807h-0.9v4.645Zm2.409-.523a2.1,2.1,0,0,0,1.584.628,2.3,2.3,0,0,0,1.128-.286,1.912,1.912,0,0,0,.786-0.8,3.09,3.09,0,0,0,.27-1.417,2.4,2.4,0,0,0-.61-1.742,2.1,2.1,0,0,0-1.574-.631,2.169,2.169,0,0,0-1.467.519,2.4,2.4,0,0,0-.721,1.92A2.509,2.509,0,0,0,677.524,82.929Zm0.6-3.151a1.3,1.3,0,0,1,1.962,0,1.93,1.93,0,0,1,.393,1.312,2.033,2.033,0,0,1-.391,1.367,1.3,1.3,0,0,1-1.964,0A2.5,2.5,0,0,1,678.124,79.778Zm6.461-1.08a1.72,1.72,0,0,0-1.459.8V78.807h-0.864v4.645h0.9v-2.62a1.2,1.2,0,0,1,1.171-1.341,0.866,0.866,0,0,1,.981.972v2.989h0.9V80.337A1.49,1.49,0,0,0,684.585,78.7Zm4.5,4.87c1.215,0,1.944-.513,1.944-1.422,0-.774-0.477-1.17-1.611-1.386l-0.486-.081c-0.55-.108-0.865-0.261-0.865-0.657s0.315-.621.9-0.621a0.874,0.874,0,0,1,1.089.855h0.873c-0.027-.981-0.639-1.557-1.962-1.557-1.144,0-1.792.531-1.792,1.35,0,0.756.477,1.206,1.477,1.386l0.477,0.09c0.765,0.135.99,0.315,0.99,0.684,0,0.414-.3.648-1.026,0.648a0.919,0.919,0,0,1-1.144-.882h-0.9C687.109,83.083,687.838,83.569,689.081,83.569Zm8.061-.81a0.215,0.215,0,0,1-.252-0.234V80.067c0-.81-0.5-1.368-1.837-1.368-1.395,0-1.918.621-1.972,1.557h0.892c0.045-.63.351-0.837,1.08-0.837s0.954,0.234.954,0.666a0.606,0.606,0,0,1-.693.585l-0.684.072c-1.3.126-1.747,0.693-1.747,1.44a1.414,1.414,0,0,0,1.657,1.377,1.7,1.7,0,0,0,1.512-.738,0.743,0.743,0,0,0,.9.657,3.517,3.517,0,0,0,.441-0.027V82.759h-0.252Zm-2.467.1a0.717,0.717,0,0,1-.864-0.7c0-.414.225-0.675,0.972-0.765l0.648-.072a1.089,1.089,0,0,0,.576-0.189v0.486A1.22,1.22,0,0,1,694.675,82.858Zm5.877-4.159a1.752,1.752,0,0,0-1.548.81v-0.7h-0.865v6.41h0.9V82.8a1.761,1.761,0,0,0,1.512.756A2.453,2.453,0,0,0,700.552,78.7Zm-0.171,4.087a1.689,1.689,0,0,1,0-3.313,1.372,1.372,0,0,1,1.359,1.62A1.435,1.435,0,0,1,700.381,82.786Zm5.632-4.087a1.752,1.752,0,0,0-1.548.81v-0.7H703.6v6.41h0.9V82.8a1.761,1.761,0,0,0,1.512.756A2.453,2.453,0,0,0,706.013,78.7Zm-0.171,4.087a1.689,1.689,0,0,1,0-3.313,1.372,1.372,0,0,1,1.36,1.62A1.436,1.436,0,0,1,705.842,82.786Zm3.228,0.666h0.9v-6.41h-0.9v6.41Zm5.012-4.645-0.54,1.593c-0.243.738-.477,1.485-0.7,2.224-0.216-.738-0.45-1.485-0.693-2.224l-0.54-1.593h-0.981l1.719,4.771c-0.045.117-.09,0.243-0.126,0.351a0.767,0.767,0,0,1-.81.558h-0.45v0.729a3.749,3.749,0,0,0,.468.027,1.549,1.549,0,0,0,1.72-1.206l1.89-5.231h-0.954Zm1.117,4.645h1.089V82.381H715.2v1.071Z"/>
</svg>
