<svg xmlns="http://www.w3.org/2000/svg" width="728" height="90" viewBox="0 0 728 90">
  <defs>
    <style>
      .cls-1 {
        fill: #4d4d4f;
        fill-rule: evenodd;
      }
    </style>
  </defs>
  <path id="_On_a_2-year_term._Conditions_apply." data-name="*On a 2-year term. Conditions apply." class="cls-1" d="M510.983,75.8l1.007-1.5L513,75.8l0.707-.492-1.127-1.415,1.7-.54-0.312-.78-1.619.672,0.06-1.715h-0.852l0.06,1.715L510,72.574l-0.312.78,1.7,0.54-1.164,1.415Zm8.758,4.473c2.4,0,4.042-1.835,4.042-4.473,0-2.591-1.643-4.426-4.042-4.426s-4.029,1.835-4.029,4.426C515.712,78.415,517.355,80.274,519.741,80.274Zm0.012-1c-1.7,0-2.9-1.355-2.9-3.478,0-2.1,1.2-3.43,2.9-3.43s2.891,1.331,2.891,3.43C522.644,77.948,521.468,79.279,519.753,79.279Zm8.965-5.553a2.358,2.358,0,0,0-2.075,1.031V73.882h-1.032V80.07h1.1V76.628a1.7,1.7,0,0,1,1.763-1.943,1.126,1.126,0,0,1,1.235,1.307V80.07h1.1V75.777A1.905,1.905,0,0,0,528.718,73.726Zm12.838,5.529a0.444,0.444,0,0,1-.539-0.54V75.669c0-1.355-.888-1.979-2.423-1.979-1.6,0-2.471.648-2.579,2.015h1.092a1.134,1.134,0,0,1,1.4-1.1c0.959,0,1.391.312,1.391,0.96v0.264a0.428,0.428,0,0,1-.444.468l-1.583.2c-1.5.192-2.111,0.911-2.111,1.931a1.8,1.8,0,0,0,2.075,1.8,2.625,2.625,0,0,0,2.243-1.067,0.923,0.923,0,0,0,1.067.912h0.588V79.255h-0.18Zm-3.514.12a1.018,1.018,0,0,1-1.187-1,1.115,1.115,0,0,1,1.2-1.067l1.847-.276V77.9A1.738,1.738,0,0,1,538.042,79.375Zm8.281,0.7H552V79.063H547.69c0.072-.648.432-1.019,1.667-1.8l1.068-.672a2.98,2.98,0,0,0,1.619-2.615,2.5,2.5,0,0,0-2.735-2.543,2.65,2.65,0,0,0-2.818,2.842v0.18h1.115V74.326a1.615,1.615,0,0,1,1.679-1.9,1.494,1.494,0,0,1,1.643,1.6,1.99,1.99,0,0,1-1.163,1.775l-1.487.923A3.823,3.823,0,0,0,546.323,80.07Zm7.008-2.495h3.358v-1h-3.358v1Zm8.857-3.694L560.4,78.9l-0.132-.744-1.607-4.27h-1.2l2.494,6.129-0.287.756a0.959,0.959,0,0,1-1.032.828h-0.576v0.923h0.684a1.585,1.585,0,0,0,1.7-1.235l2.879-7.4h-1.14Zm7.607,2.95c0-1.931-1.091-3.094-2.83-3.094-1.847,0-2.914,1.319-2.914,3.214s1.091,3.262,2.938,3.262a2.718,2.718,0,0,0,2.758-2.015l-1.007-.12a1.671,1.671,0,0,1-1.715,1.235,1.819,1.819,0,0,1-1.871-2.075h4.641V76.832Zm-2.818-2.195a1.764,1.764,0,0,1,1.787,1.811h-3.6A1.753,1.753,0,0,1,566.977,74.637Zm9.862,4.618a0.444,0.444,0,0,1-.539-0.54V75.669c0-1.355-.888-1.979-2.423-1.979-1.595,0-2.471.648-2.579,2.015h1.092a1.134,1.134,0,0,1,1.4-1.1c0.959,0,1.391.312,1.391,0.96v0.264a0.428,0.428,0,0,1-.444.468l-1.583.2c-1.5.192-2.111,0.911-2.111,1.931a1.8,1.8,0,0,0,2.075,1.8,2.625,2.625,0,0,0,2.243-1.067,0.923,0.923,0,0,0,1.067.912h0.588V79.255h-0.18Zm-3.514.12a1.018,1.018,0,0,1-1.187-1,1.115,1.115,0,0,1,1.2-1.067l1.847-.276V77.9A1.738,1.738,0,0,1,573.325,79.375Zm8.03-5.661a2.142,2.142,0,0,0-2.015,1.415V73.882h-1.031V80.07h1.1V76.688a1.833,1.833,0,0,1,1.775-1.895c0.144,0,.264,0,0.4.012V73.726A1.378,1.378,0,0,0,581.355,73.714Zm6.277,0.971,1.415,0.048V73.882l-1.415.048V71.987h-1.1v1.931l-0.923-.036v0.852l0.923-.048v4.006a1.189,1.189,0,0,0,1.379,1.379h1.128V79.147h-0.8a0.492,0.492,0,0,1-.6-0.6V74.685Zm8.031,2.147c0-1.931-1.091-3.094-2.83-3.094-1.847,0-2.915,1.319-2.915,3.214s1.092,3.262,2.939,3.262a2.718,2.718,0,0,0,2.758-2.015l-1.007-.12a1.671,1.671,0,0,1-1.715,1.235,1.819,1.819,0,0,1-1.871-2.075h4.641V76.832Zm-2.818-2.195a1.764,1.764,0,0,1,1.787,1.811h-3.6A1.753,1.753,0,0,1,592.845,74.637Zm7.464-.923a2.141,2.141,0,0,0-2.015,1.415V73.882h-1.032V80.07h1.1V76.688a1.833,1.833,0,0,1,1.775-1.895c0.144,0,.264,0,0.395.012V73.726A1.366,1.366,0,0,0,600.309,73.714Zm8.026,0.012a2.1,2.1,0,0,0-1.967,1.079,1.69,1.69,0,0,0-1.715-1.079,2.057,2.057,0,0,0-1.883,1.067l0.048-.912h-1.056V80.07h1.1v-3.3c0-1.6.791-2.087,1.511-2.087a1.015,1.015,0,0,1,1.067,1.151V80.07h1.1V76.712c0-1.6.791-2.027,1.511-2.027a1.015,1.015,0,0,1,1.067,1.151V80.07h1.1V75.825C610.23,74.385,609.546,73.726,608.335,73.726Zm4.595,6.524a0.732,0.732,0,1,0-.767-0.732A0.722,0.722,0,0,0,612.93,80.25Zm9.718,0.024a3.494,3.494,0,0,0,3.61-3.31h-1.1a2.364,2.364,0,0,1-2.471,2.315c-1.739,0-2.758-1.343-2.758-3.478s1.031-3.43,2.758-3.43a2.213,2.213,0,0,1,2.327,1.739h1.139a3.345,3.345,0,0,0-3.514-2.734c-2.35,0-3.85,1.811-3.85,4.426C618.786,78.391,620.25,80.274,622.648,80.274Zm7.9-.048a3.027,3.027,0,0,0,2.986-3.3,2.912,2.912,0,0,0-2.95-3.2A3.261,3.261,0,0,0,630.551,80.226Zm0-.924c-1.164,0-1.871-.924-1.871-2.327s0.7-2.327,1.871-2.327c1.2,0,1.883.876,1.883,2.279S631.75,79.3,630.551,79.3Zm7.672-5.577a2.359,2.359,0,0,0-2.075,1.031V73.882h-1.031V80.07h1.1V76.628a1.7,1.7,0,0,1,1.763-1.943,1.127,1.127,0,0,1,1.236,1.307V80.07h1.1V75.777A1.9,1.9,0,0,0,638.223,73.726Zm8.224-2.195v3.094a2.267,2.267,0,0,0-1.871-.876c-1.571,0-2.674,1.259-2.674,3.13,0,1.919,1.019,3.322,2.7,3.322a2.259,2.259,0,0,0,1.991-1.115V80.07h0.96V71.531h-1.1Zm-1.739,7.724c-1.067,0-1.7-.936-1.7-2.375,0-1.415.66-2.183,1.727-2.183,1.032,0,1.775.744,1.775,2.207S645.74,79.255,644.708,79.255Zm5.395-6.428a0.693,0.693,0,0,0,.72-0.72,0.726,0.726,0,0,0-1.451,0A0.7,0.7,0,0,0,650.1,72.826Zm-0.551,7.244h1.1V73.882h-1.1V80.07Zm4.571-5.385,1.415,0.048V73.882l-1.415.048V71.987h-1.1v1.931l-0.923-.036v0.852l0.923-.048v4.006a1.189,1.189,0,0,0,1.38,1.379h1.127V79.147h-0.8a0.493,0.493,0,0,1-.6-0.6V74.685Zm3.366-1.859a0.693,0.693,0,0,0,.72-0.72,0.726,0.726,0,0,0-1.451,0A0.7,0.7,0,0,0,657.489,72.826Zm-0.551,7.244h1.1V73.882h-1.1V80.07Zm5.688,0.156a3.027,3.027,0,0,0,2.987-3.3,2.912,2.912,0,0,0-2.951-3.2A3.261,3.261,0,0,0,662.626,80.226Zm0-.924c-1.163,0-1.87-.924-1.87-2.327s0.7-2.327,1.87-2.327c1.2,0,1.883.876,1.883,2.279S663.826,79.3,662.626,79.3Zm7.673-5.577a2.358,2.358,0,0,0-2.075,1.031V73.882h-1.031V80.07h1.1V76.628a1.7,1.7,0,0,1,1.763-1.943,1.126,1.126,0,0,1,1.235,1.307V80.07h1.1V75.777A1.905,1.905,0,0,0,670.3,73.726Zm6.156,6.5c1.631,0,2.579-.744,2.579-1.955,0-.9-0.528-1.463-1.811-1.751l-1.2-.264c-0.732-.156-0.96-0.432-0.96-0.828,0-.552.468-0.816,1.247-0.816a1.254,1.254,0,0,1,1.464,1.067h1.091c-0.156-1.331-1.115-1.943-2.519-1.943-1.523,0-2.3.708-2.3,1.787,0,0.876.515,1.427,1.715,1.679l1.247,0.264a0.951,0.951,0,0,1,.971.9c0,0.588-.467.972-1.475,0.972a1.327,1.327,0,0,1-1.571-1.223h-1.055C674.021,79.531,674.9,80.226,676.455,80.226Zm12.778-.971a0.444,0.444,0,0,1-.539-0.54V75.669c0-1.355-.888-1.979-2.423-1.979-1.595,0-2.471.648-2.579,2.015h1.092a1.134,1.134,0,0,1,1.4-1.1c0.959,0,1.391.312,1.391,0.96v0.264a0.428,0.428,0,0,1-.444.468l-1.583.2c-1.5.192-2.111,0.911-2.111,1.931a1.8,1.8,0,0,0,2.075,1.8,2.625,2.625,0,0,0,2.243-1.067,0.923,0.923,0,0,0,1.067.912h0.588V79.255h-0.18Zm-3.514.12a1.018,1.018,0,0,1-1.187-1,1.115,1.115,0,0,1,1.2-1.067l1.847-.276V77.9A1.738,1.738,0,0,1,685.719,79.375Zm7.97-5.625a2.229,2.229,0,0,0-2.027,1.127v-1H690.7v8.635h1.1v-3.2a2.256,2.256,0,0,0,1.835.888c1.679,0,2.71-1.451,2.71-3.37C696.351,74.961,695.26,73.75,693.689,73.75Zm-0.156,5.505c-1.031,0-1.787-.888-1.787-2.351S692.5,74.7,693.533,74.7c1.067,0,1.715.72,1.715,2.135C695.248,78.271,694.6,79.255,693.533,79.255Zm7.4-5.505a2.229,2.229,0,0,0-2.027,1.127v-1h-0.959v8.635h1.1v-3.2a2.256,2.256,0,0,0,1.835.888c1.679,0,2.71-1.451,2.71-3.37C703.6,74.961,702.508,73.75,700.937,73.75Zm-0.156,5.505c-1.031,0-1.787-.888-1.787-2.351s0.756-2.207,1.787-2.207c1.067,0,1.715.72,1.715,2.135C702.5,78.271,701.848,79.255,700.781,79.255Zm4.428,0.816h1.1V71.531h-1.1V80.07Zm7.108-6.189L710.53,78.9l-0.132-.744-1.607-4.27h-1.2l2.494,6.129-0.288.756a0.957,0.957,0,0,1-1.031.828h-0.576v0.923h0.684a1.585,1.585,0,0,0,1.7-1.235l2.878-7.4h-1.139Zm2.458,6.369a0.732,0.732,0,1,0-.767-0.732A0.722,0.722,0,0,0,714.775,80.25Z"/>
</svg>
