<svg id="HING" xmlns="http://www.w3.org/2000/svg" width="728" height="90" viewBox="0 0 728 90">
  <defs>
    <style>
      .cls-1 {
        fill: #4b286d;
        fill-rule: evenodd;
      }
    </style>
  </defs>
  <path id="_Live_TV" data-name=" + Live TV" class="cls-1" d="M295.6,41.327h-7.709V33.618h-3.251v7.709h-7.751v3h7.751v7.709h3.251V44.328H295.6v-3ZM311.808,54.5v-26.5h-3.5v29.67h18.419V54.5H311.808ZM331.32,33.118a2.25,2.25,0,1,0-2.251-2.25A2.268,2.268,0,0,0,331.32,33.118Zm-1.667,24.545h3.334V36.16h-3.334v21.5Zm22.71-21.5L348.821,45.7c-1,2.709-2.126,5.667-3.042,8.376-0.917-2.709-2.042-5.626-3.042-8.334l-3.543-9.584h-3.625l8.418,21.5h3.5l8.46-21.5h-3.584Zm24.079,10.751c0-6.167-3.459-11.251-9.876-11.251-5.959,0-9.918,4.5-9.918,11.251,0,6.959,4.126,11.251,10,11.251A8.969,8.969,0,0,0,375.9,51.12h-3.458a5.524,5.524,0,0,1-5.709,4c-3.751,0-6.293-2.209-6.626-7.043h16.335V46.911ZM366.566,38.7c3.834,0,5.959,2.834,6.292,6.376H360.19C360.732,40.827,363.191,38.7,366.566,38.7Zm44.293-10.71H387.064V31.16h10.085v26.5h3.625V31.16h10.085V27.993Zm24.474,0-6.751,18.794c-0.916,2.542-1.792,5.042-2.542,7.376-0.75-2.334-1.625-4.834-2.542-7.376l-6.875-18.794h-3.709l11.168,29.67H428l11-29.67h-3.667Z"/>
</svg>
