<svg id="Frame_1" data-name="Frame 1" xmlns="http://www.w3.org/2000/svg" width="728" height="90" viewBox="0 0 728 90">
  <defs>
    <style>
      .cls-1 {
        fill: #fff;
        fill-rule: evenodd;
      }
    </style>
  </defs>
  <path id="Apne_ghar_ko_rakhein_cozy_aur_bright_with_more_energy_efficienc" data-name="Apne ghar ko rakhein cozy aur bright with more energy efficienc" class="cls-1" d="M189.835,38.606h2.048l-6.622-16.385H183.1L176.558,38.6h2.025l1.888-4.763,7.456,0Zm-8.673-6.514,0.069-.184c0.714-1.795,1.981-5.062,2.925-7.593,0.988,2.531,2.276,5.8,2.989,7.571l0.092,0.207Zm18.17-5.633a4.668,4.668,0,0,0-4.073,2.116V26.734h-1.749l0,16.383h1.841l0-6.213a4.663,4.663,0,0,0,3.98,1.98c3.337,0,5.523-2.415,5.524-6.211S202.669,26.46,199.332,26.459ZM199.1,37.228c-2.3,0-3.819-1.681-3.818-4.557s1.52-4.556,3.821-4.555,3.819,1.589,3.818,4.465S201.4,37.229,199.1,37.228Zm13.438-10.765a4.376,4.376,0,0,0-3.729,2.047V26.738H207.06l0,11.873H208.9V31.892c0-2.623,1.727-3.773,3.269-3.773,1.7,0,2.715.806,2.714,2.647l0,7.846h1.841l0-8.031C216.724,27.96,215.183,26.464,212.537,26.463Zm17.248,6.217c0-3.406-1.909-6.213-5.452-6.214-3.291,0-5.477,2.484-5.478,6.211,0,3.843,2.276,6.213,5.52,6.214A4.953,4.953,0,0,0,229.485,35h-1.91a3.05,3.05,0,0,1-3.153,2.208c-2.071,0-3.474-1.22-3.658-3.89l9.02,0V32.68Zm-5.453-4.535c2.117,0,3.29,1.566,3.474,3.521l-7,0C221.111,29.319,222.469,28.145,224.332,28.146Zm20.15-1.4v1.726a4.792,4.792,0,0,0-4.072-2c-3.337,0-5.523,2.415-5.525,6.211s2.185,6.213,5.521,6.214a4.8,4.8,0,0,0,3.981-1.886v1.151c0,2.462-1.312,3.681-3.682,3.681-1.864,0-2.992-.76-3.221-2.256h-1.841c0.252,2.3,2.024,3.82,5.061,3.821,3.751,0,5.523-2.162,5.524-5.245l0-11.413h-1.749Zm-3.845,10.491c-2.3,0-3.819-1.773-3.819-4.557s1.52-4.556,3.821-4.555,3.819,1.681,3.819,4.557S242.938,37.24,240.637,37.239ZM254.46,26.474a4.375,4.375,0,0,0-3.636,1.909l0-6.144h-1.841l0,16.383h1.841V31.9c0-2.623,1.727-3.773,3.269-3.773,1.7,0,2.715.806,2.714,2.647l0,7.847h1.841l0-8.03C258.648,27.971,257.107,26.475,254.46,26.474Zm16.663,10.658a0.544,0.544,0,0,1-.644-0.575V29.93c0-2-1.172-3.452-4.463-3.453-3.474,0-4.694,1.632-4.833,3.933h1.841c0.116-1.772.967-2.347,2.992-2.346s2.669,0.622,2.669,1.864c0,1.058-.668,1.5-1.865,1.633l-1.7.184c-3.268.344-4.4,1.817-4.4,3.68,0,2.232,1.609,3.475,4.187,3.476a4.353,4.353,0,0,0,3.866-1.909,1.7,1.7,0,0,0,2,1.7,7.009,7.009,0,0,0,1.013-.069v-1.5h-0.667ZM265,37.338c-1.634,0-2.37-.783-2.369-1.956,0-1.151.6-1.887,2.761-2.139l1.726-.207a3.064,3.064,0,0,0,1.565-.506v1.4A3.411,3.411,0,0,1,265,37.338Zm14.031-10.765a4.147,4.147,0,0,0-3.82,2.277V26.756h-1.749l0,11.873H275.3V31.864c0-2.3,1.52-3.5,3.89-3.5h0.46V26.6C279.4,26.573,279.217,26.573,279.033,26.573Zm14.028,12.061h2.14l-4.83-7.595,4.511-4.279h-2.439l-5.5,5.314,0-9.825H285.1l0,16.383h1.841V34.237l2.118-1.978Zm8.145,0.278c3.336,0,5.753-2.415,5.754-6.211s-2.414-6.213-5.751-6.214-5.753,2.415-5.754,6.211S297.87,38.911,301.206,38.912Zm0-1.657c-2.3,0-3.819-1.681-3.818-4.557s1.52-4.556,3.821-4.555,3.819,1.681,3.818,4.557S303.507,37.256,301.206,37.256Zm17-10.672a4.145,4.145,0,0,0-3.82,2.277V26.767h-1.748l0,11.873h1.841l0-6.765c0-2.3,1.52-3.5,3.89-3.5h0.46V26.607C318.574,26.584,318.39,26.584,318.206,26.584Zm12.012,10.565a0.544,0.544,0,0,1-.644-0.576V29.946c0-2-1.172-3.452-4.463-3.453-3.474,0-4.694,1.633-4.833,3.933h1.841c0.115-1.772.967-2.347,2.992-2.346s2.669,0.622,2.669,1.865c0,1.058-.668,1.5-1.865,1.633l-1.7.184c-3.267.344-4.4,1.817-4.4,3.68,0,2.232,1.609,3.475,4.186,3.476a4.353,4.353,0,0,0,3.867-1.909,1.7,1.7,0,0,0,2,1.7,7.038,7.038,0,0,0,1.013-.069v-1.5h-0.667Zm-6.121.205c-1.634,0-2.37-.783-2.37-1.956,0-1.151.6-1.887,2.762-2.139l1.726-.207a3.064,3.064,0,0,0,1.565-.506v1.4A3.409,3.409,0,0,1,324.1,37.354Zm16.421,1.293h2.14l-4.83-7.595,4.511-4.279H339.9l-5.5,5.314,0-9.825h-1.841l0,16.383h1.84l0-4.395,2.117-1.978ZM349.651,26.5a4.376,4.376,0,0,0-3.636,1.909l0-6.144h-1.841l0,16.383h1.84l0-6.719c0-2.623,1.727-3.773,3.269-3.773,1.7,0,2.715.806,2.714,2.647l0,7.846h1.841l0-8.03C353.839,28,352.3,26.5,349.651,26.5ZM366.9,32.717c0-3.405-1.908-6.213-5.451-6.214-3.291,0-5.478,2.484-5.479,6.211,0,3.843,2.277,6.213,5.521,6.214a4.952,4.952,0,0,0,5.109-3.887H364.69a3.051,3.051,0,0,1-3.153,2.208c-2.071,0-3.475-1.221-3.658-3.89l9.02,0V32.717Zm-5.452-4.534c2.117,0,3.29,1.566,3.474,3.521l-7,0C358.225,29.356,359.583,28.182,361.447,28.183Zm8.482-3.081a1.243,1.243,0,1,0-1.243-1.243A1.252,1.252,0,0,0,369.929,25.1ZM369,38.655h1.841l0-11.873h-1.84Zm10.039-12.147a4.373,4.373,0,0,0-3.728,2.047V26.783h-1.749l0,11.873H375.4l0-6.719c0-2.623,1.726-3.773,3.268-3.773,1.7,0,2.715.806,2.715,2.647l0,7.846h1.841l0-8.03C383.23,28,381.689,26.509,379.043,26.508Zm15.36,12.43a4.9,4.9,0,0,0,5.109-4.347h-1.887a3.118,3.118,0,0,1-3.222,2.691c-1.979,0-3.566-1.451-3.565-4.557s1.543-4.555,3.568-4.555a3.091,3.091,0,0,1,3.2,2.647h1.91a4.811,4.811,0,0,0-5.107-4.3c-3.29,0-5.5,2.392-5.5,6.211S391.158,38.937,394.4,38.938Zm12.236,0c3.336,0,5.753-2.415,5.754-6.211s-2.414-6.213-5.751-6.214-5.753,2.415-5.754,6.211S403.3,38.94,406.639,38.941Zm0-1.657c-2.3,0-3.819-1.681-3.818-4.557s1.52-4.556,3.821-4.555,3.819,1.681,3.818,4.557S408.94,37.285,406.639,37.284Zm11.518-.227c-0.851,0-1.68,0-2.531.045,0.529-.644,1.036-1.288,1.542-1.932l5.432-6.994V26.8l-9.043,0V28.4h4.211c0.852,0,1.68,0,2.531-.045-0.529.644-1.035,1.288-1.542,1.932l-5.432,6.994v1.381l9.6,0V37.058h-4.763ZM432.778,26.8L431.1,31.722c-0.6,1.726-1.175,3.451-1.7,5.154-0.552-1.7-1.1-3.406-1.7-5.132L426.013,26.8h-2.025l4.461,12.266c-0.139.368-.277,0.759-0.415,1.1a2.08,2.08,0,0,1-2.163,1.472h-1.082V43.18a9.178,9.178,0,0,0,1.1.069,3.589,3.589,0,0,0,3.867-2.714L434.78,26.8h-2Zm16.695,10.382a0.544,0.544,0,0,1-.644-0.575l0-6.627c0-2-1.173-3.452-4.463-3.453-3.474,0-4.694,1.632-4.833,3.933h1.841c0.115-1.772.967-2.347,2.992-2.346s2.669,0.622,2.668,1.864c0,1.059-.667,1.5-1.864,1.633l-1.7.184c-3.267.344-4.395,1.817-4.4,3.68,0,2.232,1.61,3.475,4.187,3.476a4.35,4.35,0,0,0,3.866-1.909,1.7,1.7,0,0,0,2,1.7,7,7,0,0,0,1.012-.069v-1.5h-0.668Zm-6.12.206c-1.634,0-2.37-.783-2.37-1.956,0-1.151.6-1.887,2.762-2.139l1.726-.207a3.068,3.068,0,0,0,1.565-.506v1.4A3.41,3.41,0,0,1,443.353,37.386Zm16.13-10.58,0,6.719c0,2.623-1.727,3.773-3.269,3.773-1.7,0-2.715-.806-2.714-2.647l0-7.846h-1.841l0,8.031c0,2.623,1.541,4.119,4.187,4.12a4.375,4.375,0,0,0,3.728-2.047v1.772h1.749l0-11.873h-1.84Zm10.162-.181a4.146,4.146,0,0,0-3.82,2.277V26.808h-1.748l0,11.873h1.841l0-6.765c0-2.3,1.52-3.5,3.89-3.5h0.46V26.648C470.013,26.625,469.829,26.625,469.645,26.625Zm11.891-.089a4.662,4.662,0,0,0-3.981,1.978V22.3h-1.841l0,16.383h1.749V36.843a4.668,4.668,0,0,0,4.072,2.118c3.337,0,5.523-2.415,5.524-6.211S484.872,26.537,481.536,26.536ZM481.3,37.3c-2.3,0-3.819-1.681-3.819-4.557s1.52-4.556,3.821-4.555,3.819,1.589,3.819,4.465S483.6,37.3,481.3,37.3Zm13.529-10.673a4.145,4.145,0,0,0-3.82,2.277V26.814h-1.749l0,11.873H491.1l0-6.765c0-2.3,1.519-3.5,3.889-3.5h0.461V26.655C495.2,26.631,495.016,26.631,494.832,26.631Zm3.259-1.495a1.243,1.243,0,1,0-1.242-1.243A1.252,1.252,0,0,0,498.091,25.137Zm-0.924,13.553h1.841l0-11.873h-1.84ZM510.694,26.82v1.726a4.791,4.791,0,0,0-4.072-2c-3.336,0-5.523,2.415-5.524,6.211s2.184,6.213,5.521,6.214a4.8,4.8,0,0,0,3.981-1.886v1.151c0,2.462-1.313,3.681-3.683,3.681-1.864,0-2.991-.76-3.221-2.256h-1.841c0.253,2.3,2.024,3.82,5.062,3.821,3.75,0,5.523-2.161,5.523-5.245l0-11.413h-1.749Zm-3.846,10.491c-2.3,0-3.819-1.773-3.818-4.557s1.52-4.556,3.821-4.555,3.819,1.681,3.818,4.557S509.149,37.312,506.848,37.311Zm13.824-10.765a4.373,4.373,0,0,0-3.636,1.909V22.311H515.2l0,16.383h1.841l0-6.719c0-2.623,1.727-3.773,3.268-3.773,1.7,0,2.715.806,2.715,2.647l0,7.846h1.84l0-8.03C524.859,28.043,523.318,26.547,520.672,26.546Zm11.9,1.89V26.826H530.13V23.466h-1.84v3.359h-1.956v1.611h1.956l0,7.87c0,1.818,1.127,2.462,2.968,2.463q0.552,0,1.311-.069V37.157h-1.082c-1.058,0-1.357-.391-1.357-1.013l0-7.708h2.439ZM233.5,54.745l-1.681,5.361c-0.438,1.426-.876,2.853-1.267,4.279-0.414-1.427-.851-2.853-1.288-4.28l-1.655-5.362h-1.933L224.015,60.1c-0.46,1.45-.875,2.876-1.267,4.326-0.413-1.45-.827-2.876-1.287-4.326l-1.678-5.362H217.8l3.954,11.874h1.933l1.727-5.5c0.415-1.312.83-2.692,1.221-4.026,0.368,1.335.782,2.715,1.2,4.027l1.747,5.5h1.933l3.961-11.872H233.5Zm4.422-1.678a1.243,1.243,0,1,0-1.242-1.243A1.253,1.253,0,0,0,237.919,53.066ZM237,66.619h1.841l0-11.873H237Zm9.662-10.26V54.748h-2.439V51.388h-1.841v3.36h-1.956v1.611h1.956l0,7.869c0,1.818,1.127,2.462,2.968,2.463q0.552,0,1.312-.069V65.08h-1.081c-1.059,0-1.358-.392-1.358-1.013l0-7.708h2.439Zm7.262-1.885a4.373,4.373,0,0,0-3.636,1.909V50.239h-1.84l0,16.383h1.841l0-6.719c0-2.623,1.727-3.773,3.268-3.773,1.7,0,2.715.806,2.715,2.647l0,7.846h1.84l0-8.03C258.106,55.971,256.565,54.475,253.919,54.474Zm22.934,0.006a4.1,4.1,0,0,0-3.66,2.231,3.718,3.718,0,0,0-3.658-2.233,3.815,3.815,0,0,0-3.429,2.024V54.754h-1.749l0,11.873H266.2V60.138c0-2.853,1.589-4,3.039-4,1.541,0,2.485.783,2.484,2.624l0,7.869h1.841l0-6.489c0-2.853,1.542-4,3.038-4,1.565,0,2.485.783,2.484,2.624l0,7.869h1.841l0-8.054A3.773,3.773,0,0,0,276.853,54.48Zm11.976,12.429c3.336,0,5.753-2.415,5.754-6.211s-2.414-6.213-5.751-6.214-5.753,2.415-5.754,6.211S285.492,66.908,288.829,66.909Zm0-1.657c-2.3,0-3.819-1.681-3.818-4.557s1.52-4.556,3.821-4.555,3.819,1.681,3.818,4.557S291.13,65.253,288.829,65.252Zm13.5-10.673a4.145,4.145,0,0,0-3.82,2.277V54.762h-1.748l0,11.873h1.841l0-6.765c0-2.3,1.52-3.5,3.89-3.5h0.46V54.6C302.692,54.579,302.508,54.579,302.324,54.579ZM314.8,60.7c0-3.405-1.908-6.213-5.452-6.214-3.29,0-5.477,2.484-5.478,6.211,0,3.843,2.277,6.213,5.521,6.214a4.952,4.952,0,0,0,5.109-3.887h-1.909a3.051,3.051,0,0,1-3.153,2.208c-2.071,0-3.475-1.221-3.658-3.89l9.02,0V60.7Zm-5.452-4.535c2.117,0,3.29,1.566,3.474,3.522l-7,0C306.123,57.342,307.481,56.168,309.345,56.169Zm21.483,4.539c0-3.405-1.908-6.213-5.452-6.214-3.29,0-5.477,2.484-5.478,6.211,0,3.843,2.276,6.213,5.521,6.214a4.953,4.953,0,0,0,5.109-3.887h-1.91a3.049,3.049,0,0,1-3.153,2.208c-2.071,0-3.474-1.22-3.657-3.89l9.02,0V60.708Zm-5.452-4.534c2.117,0,3.29,1.566,3.473,3.521l-7,0C322.154,57.346,323.512,56.173,325.376,56.173Zm13.1-1.676a4.374,4.374,0,0,0-3.728,2.047V54.772H333l0,11.873h1.841l0-6.719c0-2.623,1.727-3.773,3.269-3.773,1.7,0,2.715.806,2.714,2.647l0,7.846h1.841l0-8.031C342.665,55.994,341.123,54.5,338.477,54.5Zm17.248,6.217c0-3.405-1.908-6.213-5.452-6.214-3.29,0-5.477,2.484-5.478,6.211,0,3.843,2.277,6.213,5.521,6.214a4.952,4.952,0,0,0,5.109-3.887h-1.909a3.051,3.051,0,0,1-3.153,2.208c-2.071,0-3.475-1.221-3.658-3.89l9.02,0V60.714Zm-5.452-4.534c2.117,0,3.29,1.566,3.474,3.521l-7,0C347.051,57.353,348.409,56.179,350.273,56.18ZM363.466,54.6a4.147,4.147,0,0,0-3.82,2.277V54.779H357.9l0,11.873h1.841V59.887c0-2.3,1.52-3.5,3.89-3.5h0.46V54.619C363.835,54.6,363.651,54.6,363.466,54.6Zm11.152,0.187v1.726a4.793,4.793,0,0,0-4.073-2c-3.336,0-5.523,2.415-5.524,6.211s2.185,6.213,5.521,6.214a4.8,4.8,0,0,0,3.981-1.886V66.2c0,2.462-1.313,3.681-3.683,3.681-1.863,0-2.991-.76-3.22-2.256h-1.841c0.252,2.3,2.024,3.82,5.061,3.821,3.751,0,5.523-2.162,5.524-5.245l0-11.413h-1.749Zm-3.845,10.492c-2.3,0-3.82-1.773-3.819-4.557s1.52-4.556,3.821-4.555,3.819,1.681,3.818,4.557S373.074,65.275,370.773,65.274Zm15.9-10.488-1.681,4.924c-0.6,1.726-1.174,3.451-1.7,5.154-0.552-1.7-1.1-3.406-1.7-5.132L379.9,54.784H377.88l4.46,12.266c-0.138.368-.276,0.759-0.414,1.1a2.081,2.081,0,0,1-2.164,1.472h-1.081v1.542a9.207,9.207,0,0,0,1.105.069,3.587,3.587,0,0,0,3.866-2.714l5.02-13.736h-2Zm17.341,5.941c0-3.406-1.908-6.213-5.451-6.214-3.291,0-5.477,2.484-5.478,6.211,0,3.843,2.276,6.213,5.52,6.214a4.953,4.953,0,0,0,5.11-3.887H401.8a3.05,3.05,0,0,1-3.153,2.208c-2.071,0-3.474-1.22-3.658-3.89l9.02,0V60.727Zm-5.452-4.534c2.117,0,3.29,1.566,3.474,3.521l-7,0C395.337,57.366,396.7,56.193,398.558,56.193Zm11.658-4.346h1.058V50.283c-0.277-.023-0.829-0.046-1.174-0.046-2.347,0-3.314,1.242-3.314,3.336v1.22H404.83V56.4h1.956l0,10.262h1.841l0-10.262h2.531V54.793h-2.531V53.527A1.462,1.462,0,0,1,410.216,51.847Zm4.163,1.727v1.219h-1.955V56.4h1.956l0,10.262h1.841l0-10.262h2.531V54.795h-2.531V53.529a1.46,1.46,0,0,1,1.588-1.679h1.058V50.285c-0.276-.023-0.829-0.046-1.174-0.046C415.346,50.238,414.379,51.48,414.379,53.574Zm7.133-.458a1.243,1.243,0,1,0-1.242-1.243A1.252,1.252,0,0,0,421.512,53.116Zm-0.924,13.553h1.841l0-11.873h-1.841Zm9.447,0.279a4.9,4.9,0,0,0,5.11-4.348h-1.887a3.119,3.119,0,0,1-3.222,2.691c-1.979,0-3.567-1.451-3.566-4.557s1.543-4.556,3.568-4.555a3.092,3.092,0,0,1,3.2,2.647h1.91a4.812,4.812,0,0,0-5.107-4.3c-3.291,0-5.5,2.392-5.5,6.211S426.791,66.946,430.035,66.947Zm8.027-13.827a1.243,1.243,0,1,0-1.242-1.243A1.252,1.252,0,0,0,438.062,53.12Zm-0.924,13.553h1.841l0-11.873h-1.841ZM452,60.74c0-3.406-1.908-6.213-5.452-6.214-3.29,0-5.477,2.484-5.478,6.211,0,3.843,2.277,6.213,5.521,6.214a4.952,4.952,0,0,0,5.109-3.887h-1.909a3.051,3.051,0,0,1-3.153,2.208c-2.071,0-3.475-1.221-3.658-3.89l9.02,0V60.74Zm-5.452-4.535c2.117,0,3.29,1.566,3.474,3.522l-7,0C443.323,57.379,444.681,56.205,446.545,56.206Zm13.1-1.676a4.375,4.375,0,0,0-3.728,2.047V54.8H454.17l0,11.873h1.841V59.959c0-2.623,1.727-3.773,3.269-3.773,1.7,0,2.715.806,2.714,2.647l0,7.846h1.841l0-8.03C463.834,56.027,462.293,54.531,459.646,54.53ZM471.5,66.958a4.9,4.9,0,0,0,5.109-4.347h-1.887A3.119,3.119,0,0,1,471.5,65.3c-1.979,0-3.566-1.451-3.565-4.557s1.543-4.556,3.567-4.555a3.092,3.092,0,0,1,3.2,2.647h1.91a4.812,4.812,0,0,0-5.107-4.3c-3.291,0-5.5,2.392-5.5,6.211S468.257,66.958,471.5,66.958Zm14.434-12.145-1.681,4.924c-0.6,1.726-1.174,3.451-1.7,5.154-0.552-1.7-1.1-3.406-1.7-5.132l-1.678-4.948h-2.025l4.461,12.265c-0.138.368-.276,0.759-0.415,1.1a2.079,2.079,0,0,1-2.163,1.472h-1.081v1.542a9.181,9.181,0,0,0,1.105.069,3.588,3.588,0,0,0,3.866-2.714l5.02-13.736h-2Zm3.37,12.035a1.322,1.322,0,0,0,1.312-1.357,1.347,1.347,0,0,0-2.692,0A1.324,1.324,0,0,0,489.306,66.848Z"/>
</svg>
