<svg id="Frame_2" data-name="Frame 2" xmlns="http://www.w3.org/2000/svg" width="728" height="90" viewBox="0 0 728 90">
  <defs>
    <style>
      .cls-1 {
        fill: #fff;
        fill-rule: evenodd;
      }
    </style>
  </defs>
  <path id="Apne_phone_se_temperature_light_and_appliances_ko_automate_ka" data-name="Apne phone se temperature, light  and appliances ko automate ka" class="cls-1" d="M212.26,38.593h2.047l-6.625-16.379H205.52l-6.533,16.379h2.024l1.886-4.762h7.454Zm-8.673-6.51,0.069-.184c0.713-1.794,1.979-5.061,2.922-7.591,0.989,2.531,2.277,5.8,2.99,7.568l0.092,0.207h-6.073Zm18.141-5.636a4.667,4.667,0,0,0-4.072,2.116v-1.84h-1.748V43.1h1.84V36.891a4.663,4.663,0,0,0,3.98,1.978c3.335,0,5.521-2.415,5.521-6.211S225.063,26.447,221.728,26.447ZM221.5,37.213c-2.3,0-3.819-1.679-3.819-4.555S219.2,28.1,221.5,28.1s3.818,1.587,3.818,4.463S223.8,37.213,221.5,37.213ZM234.9,26.447a4.372,4.372,0,0,0-3.726,2.047V26.723h-1.749v11.87h1.841V31.876c0-2.623,1.725-3.773,3.266-3.773,1.7,0,2.715.805,2.715,2.645v7.844h1.84V30.565C239.091,27.943,237.55,26.447,234.9,26.447Zm17.221,6.211c0-3.4-1.909-6.211-5.452-6.211-3.289,0-5.475,2.485-5.475,6.211,0,3.842,2.278,6.211,5.521,6.211a4.951,4.951,0,0,0,5.107-3.888h-1.909a3.049,3.049,0,0,1-3.152,2.208c-2.07,0-3.473-1.219-3.657-3.888h9.017V32.658Zm-5.452-4.532c2.117,0,3.29,1.564,3.474,3.52h-6.993C243.453,29.3,244.81,28.127,246.673,28.127Zm16.951-1.679a4.668,4.668,0,0,0-4.072,2.116v-1.84H257.8V43.1h1.84V36.891a4.665,4.665,0,0,0,3.98,1.978c3.336,0,5.521-2.415,5.521-6.211S266.96,26.447,263.624,26.447Zm-0.23,10.766c-2.3,0-3.819-1.679-3.819-4.555s1.519-4.555,3.819-4.555,3.819,1.587,3.819,4.463S265.7,37.213,263.394,37.213ZM276.8,26.447a4.373,4.373,0,0,0-3.635,1.909V22.215h-1.84V38.593h1.84V31.876c0-2.623,1.725-3.773,3.267-3.773,1.7,0,2.714.805,2.714,2.645v7.844h1.84V30.565C280.987,27.943,279.446,26.447,276.8,26.447ZM288.846,38.87c3.335,0,5.751-2.415,5.751-6.211s-2.416-6.211-5.751-6.211-5.751,2.415-5.751,6.211S285.51,38.87,288.846,38.87Zm0-1.656c-2.3,0-3.819-1.679-3.819-4.555s1.518-4.555,3.819-4.555,3.818,1.679,3.818,4.555S291.146,37.213,288.846,37.213Zm13.372-10.766a4.373,4.373,0,0,0-3.727,2.047V26.723h-1.748v11.87h1.84V31.876c0-2.623,1.725-3.773,3.267-3.773,1.7,0,2.714.805,2.714,2.645v7.844h1.84V30.565C306.4,27.943,304.863,26.447,302.218,26.447Zm17.22,6.211c0-3.4-1.909-6.211-5.451-6.211-3.29,0-5.475,2.485-5.475,6.211,0,3.842,2.277,6.211,5.521,6.211a4.951,4.951,0,0,0,5.106-3.888H317.23a3.049,3.049,0,0,1-3.151,2.208c-2.071,0-3.474-1.219-3.658-3.888h9.017V32.658Zm-5.451-4.532c2.116,0,3.289,1.564,3.473,3.52h-6.993C310.766,29.3,312.123,28.127,313.987,28.127ZM329.3,38.87c2.922,0,4.716-1.288,4.716-3.543,0-1.932-1.173-2.922-4.095-3.5l-1.058-.207c-1.518-.3-2.392-0.713-2.392-1.84,0-1.1.9-1.748,2.484-1.748,1.817,0,2.9.506,2.991,2.346h1.84c-0.046-2.53-1.656-3.934-4.831-3.934-2.714,0-4.325,1.334-4.325,3.359,0,1.84,1.128,3.014,3.7,3.5l1.1,0.207c2.071,0.391,2.715.874,2.715,1.932,0,1.173-.852,1.84-2.853,1.84-2.093,0-2.967-.667-3.174-2.461h-1.864C324.45,37.6,326.291,38.87,329.3,38.87Zm17.019-6.211c0-3.4-1.91-6.211-5.452-6.211-3.29,0-5.475,2.485-5.475,6.211,0,3.842,2.277,6.211,5.521,6.211a4.952,4.952,0,0,0,5.107-3.888h-1.91a3.049,3.049,0,0,1-3.151,2.208c-2.07,0-3.474-1.219-3.658-3.888h9.018V32.658Zm-5.452-4.532c2.116,0,3.289,1.564,3.473,3.52h-6.993C337.65,29.3,339.008,28.127,340.871,28.127Zm16.33,0.207v-1.61h-2.439V23.365h-1.84v3.359h-1.955v1.61h1.955V36.2c0,1.817,1.127,2.462,2.967,2.462q0.552,0,1.312-.069V37.052h-1.082c-1.058,0-1.357-.391-1.357-1.012V28.334H357.2Zm11.82,4.325c0-3.4-1.909-6.211-5.452-6.211-3.29,0-5.475,2.485-5.475,6.211,0,3.842,2.277,6.211,5.521,6.211a4.951,4.951,0,0,0,5.107-3.888h-1.909a3.05,3.05,0,0,1-3.152,2.208c-2.07,0-3.474-1.219-3.658-3.888h9.018V32.658Zm-5.452-4.532c2.116,0,3.29,1.564,3.474,3.52h-6.994C360.348,29.3,361.706,28.127,363.569,28.127Zm20.09-1.679A4.1,4.1,0,0,0,380,28.679a3.717,3.717,0,0,0-3.658-2.231,3.812,3.812,0,0,0-3.427,2.024V26.723h-1.749v11.87h1.841V32.106c0-2.852,1.587-4,3.036-4,1.541,0,2.485.782,2.485,2.622v7.867h1.84V32.106c0-2.852,1.541-4,3.036-4,1.565,0,2.485.782,2.485,2.622v7.867h1.84V30.542A3.773,3.773,0,0,0,383.659,26.447Zm12.623,0a4.667,4.667,0,0,0-4.072,2.116v-1.84h-1.748V43.1h1.84V36.891a4.663,4.663,0,0,0,3.98,1.978c3.336,0,5.521-2.415,5.521-6.211S399.618,26.447,396.282,26.447Zm-0.23,10.766c-2.3,0-3.819-1.679-3.819-4.555s1.519-4.555,3.819-4.555,3.819,1.587,3.819,4.463S398.352,37.213,396.052,37.213Zm18.274-4.555c0-3.4-1.909-6.211-5.452-6.211-3.289,0-5.475,2.485-5.475,6.211,0,3.842,2.278,6.211,5.521,6.211a4.951,4.951,0,0,0,5.107-3.888h-1.909a3.049,3.049,0,0,1-3.152,2.208c-2.07,0-3.473-1.219-3.657-3.888h9.017V32.658Zm-5.452-4.532c2.117,0,3.29,1.564,3.474,3.52h-6.993C405.654,29.3,407.011,28.127,408.874,28.127Zm13.165-1.587a4.144,4.144,0,0,0-3.818,2.277V26.723h-1.748v11.87h1.84V31.83c0-2.3,1.518-3.5,3.888-3.5h0.46V26.562C422.408,26.539,422.224,26.539,422.039,26.539ZM434.023,37.1a0.544,0.544,0,0,1-.644-0.575V29.9c0-2-1.173-3.451-4.463-3.451-3.474,0-4.693,1.633-4.831,3.934h1.841c0.115-1.771.966-2.346,2.99-2.346s2.669,0.621,2.669,1.863c0,1.058-.668,1.5-1.864,1.633l-1.7.184c-3.267.345-4.394,1.817-4.394,3.681,0,2.231,1.61,3.474,4.187,3.474a4.353,4.353,0,0,0,3.865-1.909,1.7,1.7,0,0,0,2,1.7,6.984,6.984,0,0,0,1.012-.069V37.1h-0.667Zm-6.119.207c-1.633,0-2.37-.782-2.37-1.955,0-1.15.6-1.886,2.761-2.139L430.02,33a3.069,3.069,0,0,0,1.565-.506v1.4A3.41,3.41,0,0,1,427.9,37.305Zm13.308-8.972v-1.61h-2.439V23.365h-1.84v3.359h-1.955v1.61h1.955V36.2c0,1.817,1.127,2.462,2.968,2.462q0.552,0,1.311-.069V37.052h-1.081c-1.058,0-1.358-.391-1.358-1.012V28.334h2.439Zm9.524-1.61v6.717c0,2.623-1.725,3.773-3.266,3.773-1.7,0-2.715-.805-2.715-2.645V26.723h-1.84v8.028c0,2.622,1.541,4.118,4.187,4.118a4.372,4.372,0,0,0,3.726-2.047v1.771h1.749V26.723h-1.841Zm10.136-.184a4.146,4.146,0,0,0-3.819,2.277V26.723h-1.748v11.87h1.84V31.83c0-2.3,1.519-3.5,3.888-3.5h0.46V26.562C461.24,26.539,461.056,26.539,460.872,26.539Zm12.441,6.119c0-3.4-1.909-6.211-5.452-6.211-3.289,0-5.475,2.485-5.475,6.211,0,3.842,2.278,6.211,5.521,6.211a4.951,4.951,0,0,0,5.107-3.888h-1.909a3.049,3.049,0,0,1-3.152,2.208c-2.07,0-3.473-1.219-3.657-3.888h9.017V32.658Zm-5.452-4.532c2.117,0,3.29,1.564,3.474,3.52h-6.993C464.641,29.3,466,28.127,467.861,28.127Zm7.895,8.166a1.234,1.234,0,0,0-1.288,1.242,1.2,1.2,0,0,0,1.288,1.2H475.9a1.7,1.7,0,0,1-1.266,1.794l-0.161.046v1.219l0.23-.046c1.5-.3,2.577-1.311,2.577-3.5C477.275,36.983,476.7,36.293,475.756,36.293Zm9.982,2.37a11.683,11.683,0,0,0,1.174-.069V37.052h-0.874a0.922,0.922,0,0,1-1.128-1.012V22.215h-1.84V36.2C483.07,38.018,484.082,38.663,485.738,38.663Zm3.593-13.618a1.242,1.242,0,1,0-1.243-1.242A1.252,1.252,0,0,0,489.331,25.044Zm-0.92,13.549h1.84V26.723h-1.84v11.87ZM501.9,26.723v1.725a4.791,4.791,0,0,0-4.072-2c-3.335,0-5.521,2.415-5.521,6.211s2.186,6.211,5.521,6.211a4.8,4.8,0,0,0,3.98-1.886v1.15c0,2.461-1.311,3.681-3.681,3.681-1.863,0-2.99-.759-3.22-2.254H493.07c0.253,2.3,2.025,3.819,5.061,3.819,3.75,0,5.521-2.162,5.521-5.245V26.723H501.9Zm-3.842,10.49c-2.3,0-3.819-1.771-3.819-4.555s1.519-4.555,3.819-4.555,3.819,1.679,3.819,4.555S500.363,37.213,498.062,37.213Zm13.793-10.766a4.372,4.372,0,0,0-3.634,1.909V22.215H506.38V38.593h1.841V31.876c0-2.623,1.725-3.773,3.266-3.773,1.7,0,2.715.805,2.715,2.645v7.844h1.84V30.565C516.042,27.943,514.5,26.447,511.855,26.447Zm11.87,1.886v-1.61h-2.438V23.365h-1.84v3.359h-1.956v1.61h1.956V36.2c0,1.817,1.127,2.462,2.967,2.462q0.552,0,1.311-.069V37.052h-1.081c-1.058,0-1.357-.391-1.357-1.012V28.334h2.438ZM200.685,65.1a0.544,0.544,0,0,1-.644-0.575V57.9c0-2-1.174-3.451-4.463-3.451-3.474,0-4.693,1.633-4.831,3.934h1.84c0.115-1.771.967-2.346,2.991-2.346s2.668,0.621,2.668,1.863c0,1.058-.667,1.5-1.863,1.633l-1.7.184c-3.267.345-4.394,1.817-4.394,3.681,0,2.231,1.61,3.474,4.187,3.474a4.35,4.35,0,0,0,3.864-1.909,1.7,1.7,0,0,0,2,1.7,6.984,6.984,0,0,0,1.012-.069V65.1h-0.667Zm-6.119.207c-1.634,0-2.37-.782-2.37-1.955,0-1.15.6-1.886,2.761-2.139L196.682,61a3.062,3.062,0,0,0,1.564-.506v1.4A3.409,3.409,0,0,1,194.566,65.305Zm13.908-10.858a4.375,4.375,0,0,0-3.727,2.047V54.723H203v11.87h1.84V59.876c0-2.623,1.726-3.773,3.267-3.773,1.7,0,2.714.805,2.714,2.645v7.844h1.841V58.565C212.661,55.943,211.12,54.447,208.474,54.447Zm15.834-4.233v6.211a4.663,4.663,0,0,0-3.98-1.978c-3.336,0-5.521,2.415-5.521,6.211s2.185,6.211,5.521,6.211a4.666,4.666,0,0,0,4.072-2.116v1.84h1.748V50.215h-1.84Zm-3.75,15c-2.3,0-3.819-1.587-3.819-4.463s1.519-4.647,3.819-4.647,3.819,1.679,3.819,4.555S222.858,65.213,220.558,65.213ZM242.11,65.1a0.544,0.544,0,0,1-.645-0.575V57.9c0-2-1.173-3.451-4.462-3.451-3.474,0-4.693,1.633-4.831,3.934h1.84c0.115-1.771.966-2.346,2.991-2.346s2.668,0.621,2.668,1.863c0,1.058-.667,1.5-1.863,1.633l-1.7.184c-3.266.345-4.393,1.817-4.393,3.681,0,2.231,1.61,3.474,4.186,3.474a4.35,4.35,0,0,0,3.865-1.909,1.7,1.7,0,0,0,2,1.7,6.988,6.988,0,0,0,1.013-.069V65.1H242.11Zm-6.12.207c-1.633,0-2.369-.782-2.369-1.955,0-1.15.6-1.886,2.761-2.139L238.107,61a3.062,3.062,0,0,0,1.564-.506v1.4A3.409,3.409,0,0,1,235.99,65.305Zm14.254-10.858a4.666,4.666,0,0,0-4.072,2.116v-1.84h-1.748V71.1h1.84V64.891a4.663,4.663,0,0,0,3.98,1.978c3.335,0,5.521-2.415,5.521-6.211S253.579,54.447,250.244,54.447Zm-0.23,10.766c-2.3,0-3.819-1.679-3.819-4.555s1.518-4.555,3.819-4.555,3.819,1.587,3.819,4.463S252.314,65.213,250.014,65.213Zm13.752-10.766a4.665,4.665,0,0,0-4.072,2.116v-1.84h-1.748V71.1h1.84V64.891a4.662,4.662,0,0,0,3.98,1.978c3.335,0,5.52-2.415,5.52-6.211S267.1,54.447,263.766,54.447Zm-0.231,10.766c-2.3,0-3.818-1.679-3.818-4.555s1.518-4.555,3.818-4.555,3.819,1.587,3.819,4.463S265.836,65.213,263.535,65.213Zm10.555,1.449a11.665,11.665,0,0,0,1.173-.069V65.052h-0.874a0.922,0.922,0,0,1-1.128-1.012V50.215h-1.84V64.2C271.421,66.018,272.433,66.663,274.09,66.663Zm3.592-13.618A1.242,1.242,0,1,0,276.44,51.8,1.252,1.252,0,0,0,277.682,53.044Zm-0.92,13.549h1.84V54.723h-1.84v11.87Zm14.243-1.5a0.544,0.544,0,0,1-.644-0.575V57.9c0-2-1.173-3.451-4.463-3.451-3.474,0-4.693,1.633-4.831,3.934h1.841c0.115-1.771.966-2.346,2.99-2.346s2.669,0.621,2.669,1.863c0,1.058-.668,1.5-1.864,1.633l-1.7.184c-3.267.345-4.394,1.817-4.394,3.681,0,2.231,1.61,3.474,4.187,3.474a4.353,4.353,0,0,0,3.865-1.909,1.7,1.7,0,0,0,2,1.7,6.984,6.984,0,0,0,1.012-.069V65.1h-0.667Zm-6.119.207c-1.633,0-2.37-.782-2.37-1.955,0-1.15.6-1.886,2.761-2.139L287,61a3.069,3.069,0,0,0,1.565-.506v1.4A3.41,3.41,0,0,1,284.886,65.305Zm13.908-10.858a4.372,4.372,0,0,0-3.726,2.047V54.723h-1.749v11.87h1.841V59.876c0-2.623,1.725-3.773,3.266-3.773,1.7,0,2.715.805,2.715,2.645v7.844h1.84V58.565C302.981,55.943,301.44,54.447,298.794,54.447ZM310.625,66.87a4.9,4.9,0,0,0,5.107-4.348h-1.886a3.118,3.118,0,0,1-3.221,2.691c-1.978,0-3.565-1.449-3.565-4.555S308.6,56.1,310.625,56.1a3.091,3.091,0,0,1,3.2,2.645h1.909a4.81,4.81,0,0,0-5.107-4.3c-3.289,0-5.5,2.392-5.5,6.211S307.382,66.87,310.625,66.87Zm17.4-6.211c0-3.4-1.909-6.211-5.452-6.211-3.29,0-5.475,2.485-5.475,6.211,0,3.842,2.277,6.211,5.521,6.211a4.952,4.952,0,0,0,5.107-3.888h-1.909a3.051,3.051,0,0,1-3.152,2.208c-2.07,0-3.474-1.219-3.658-3.888h9.018V60.658Zm-5.452-4.532c2.116,0,3.29,1.564,3.474,3.52h-6.994C319.348,57.3,320.706,56.127,322.569,56.127ZM334.354,66.87c2.922,0,4.716-1.288,4.716-3.543,0-1.932-1.173-2.922-4.095-3.5l-1.058-.207c-1.518-.3-2.392-0.713-2.392-1.84,0-1.1.9-1.748,2.484-1.748,1.817,0,2.9.506,2.99,2.346h1.841c-0.046-2.53-1.656-3.934-4.831-3.934-2.715,0-4.325,1.334-4.325,3.359,0,1.84,1.127,3.014,3.7,3.5l1.1,0.207c2.07,0.391,2.715.874,2.715,1.932,0,1.173-.852,1.84-2.853,1.84-2.093,0-2.967-.667-3.175-2.461h-1.863C329.5,65.6,331.34,66.87,334.354,66.87Zm18.009-.276h2.14L349.672,59l4.509-4.279h-2.439l-5.5,5.314V50.215H344.4V66.593h1.84V62.2l2.117-1.978Zm8.114,0.276c3.336,0,5.751-2.415,5.751-6.211s-2.415-6.211-5.751-6.211-5.751,2.415-5.751,6.211S357.142,66.87,360.477,66.87Zm0-1.656c-2.3,0-3.818-1.679-3.818-4.555s1.518-4.555,3.818-4.555,3.819,1.679,3.819,4.555S362.778,65.213,360.477,65.213Zm21.138-.115a0.545,0.545,0,0,1-.645-0.575V57.9c0-2-1.173-3.451-4.462-3.451-3.474,0-4.693,1.633-4.831,3.934h1.84c0.115-1.771.966-2.346,2.991-2.346s2.668,0.621,2.668,1.863c0,1.058-.667,1.5-1.863,1.633l-1.7.184c-3.267.345-4.394,1.817-4.394,3.681,0,2.231,1.61,3.474,4.186,3.474a4.35,4.35,0,0,0,3.865-1.909,1.7,1.7,0,0,0,2,1.7,6.984,6.984,0,0,0,1.012-.069V65.1h-0.667Zm-6.119.207c-1.634,0-2.37-.782-2.37-1.955,0-1.15.6-1.886,2.761-2.139L377.612,61a3.062,3.062,0,0,0,1.564-.506v1.4A3.409,3.409,0,0,1,375.5,65.305Zm16.1-10.582v6.717c0,2.623-1.726,3.773-3.267,3.773-1.7,0-2.714-.805-2.714-2.645V54.723H383.77v8.028c0,2.622,1.541,4.118,4.187,4.118a4.375,4.375,0,0,0,3.727-2.047v1.771h1.748V54.723h-1.84Zm9.675,1.61v-1.61h-2.438V51.365h-1.841v3.359h-1.955v1.61h1.955V64.2c0,1.817,1.127,2.462,2.968,2.462q0.552,0,1.311-.069V65.052h-1.081c-1.058,0-1.357-.391-1.357-1.012V56.334h2.438Zm6.61,10.536c3.336,0,5.751-2.415,5.751-6.211s-2.415-6.211-5.751-6.211-5.751,2.415-5.751,6.211S404.541,66.87,407.877,66.87Zm0-1.656c-2.3,0-3.819-1.679-3.819-4.555s1.519-4.555,3.819-4.555,3.819,1.679,3.819,4.555S410.177,65.213,407.877,65.213Zm20.388-10.766a4.1,4.1,0,0,0-3.657,2.231,3.718,3.718,0,0,0-3.658-2.231,3.815,3.815,0,0,0-3.428,2.024V54.723h-1.748v11.87h1.84V60.106c0-2.852,1.588-4,3.037-4,1.541,0,2.484.782,2.484,2.623v7.867h1.841V60.106c0-2.852,1.541-4,3.036-4,1.565,0,2.485.782,2.485,2.623v7.867h1.84V58.542A3.773,3.773,0,0,0,428.265,54.447ZM444.809,65.1a0.544,0.544,0,0,1-.644-0.575V57.9c0-2-1.174-3.451-4.463-3.451-3.474,0-4.693,1.633-4.831,3.934h1.84c0.115-1.771.966-2.346,2.991-2.346s2.668,0.621,2.668,1.863c0,1.058-.667,1.5-1.863,1.633l-1.7.184c-3.267.345-4.394,1.817-4.394,3.681,0,2.231,1.61,3.474,4.187,3.474a4.35,4.35,0,0,0,3.864-1.909,1.7,1.7,0,0,0,2,1.7,6.984,6.984,0,0,0,1.012-.069V65.1h-0.667Zm-6.119.207c-1.634,0-2.37-.782-2.37-1.955,0-1.15.6-1.886,2.761-2.139L440.806,61a3.062,3.062,0,0,0,1.564-.506v1.4A3.409,3.409,0,0,1,438.69,65.305ZM452,56.334v-1.61h-2.439V51.365h-1.84v3.359h-1.956v1.61h1.956V64.2c0,1.817,1.127,2.462,2.967,2.462q0.552,0,1.312-.069V65.052h-1.082c-1.058,0-1.357-.391-1.357-1.012V56.334H452Zm11.82,4.325c0-3.4-1.909-6.211-5.452-6.211-3.29,0-5.475,2.485-5.475,6.211,0,3.842,2.277,6.211,5.521,6.211a4.952,4.952,0,0,0,5.107-3.888h-1.91a3.049,3.049,0,0,1-3.151,2.208c-2.07,0-3.474-1.219-3.658-3.888h9.018V60.658Zm-5.452-4.532c2.116,0,3.29,1.564,3.474,3.52h-6.994C455.145,57.3,456.5,56.127,458.366,56.127Zm19.09,10.467h2.14L474.765,59l4.509-4.279h-2.439l-5.5,5.314V50.215H469.5V66.593h1.84V62.2l2.116-1.978Zm13.159-1.5a0.544,0.544,0,0,1-.644-0.575V57.9c0-2-1.174-3.451-4.463-3.451-3.474,0-4.693,1.633-4.831,3.934h1.84c0.115-1.771.966-2.346,2.991-2.346s2.668,0.621,2.668,1.863c0,1.058-.667,1.5-1.863,1.633l-1.7.184c-3.267.345-4.394,1.817-4.394,3.681,0,2.231,1.61,3.474,4.187,3.474a4.35,4.35,0,0,0,3.864-1.909,1.7,1.7,0,0,0,2,1.7,6.984,6.984,0,0,0,1.012-.069V65.1h-0.667Zm-6.119.207c-1.634,0-2.37-.782-2.37-1.955,0-1.15.6-1.886,2.761-2.139L486.612,61a3.062,3.062,0,0,0,1.564-.506v1.4A3.409,3.409,0,0,1,484.5,65.305Zm14-10.766a4.146,4.146,0,0,0-3.819,2.277V54.723h-1.748v11.87h1.84V59.83c0-2.3,1.519-3.5,3.888-3.5h0.46V54.562C498.864,54.539,498.68,54.539,498.5,54.539Zm12.441,6.119c0-3.4-1.909-6.211-5.452-6.211-3.289,0-5.475,2.485-5.475,6.211,0,3.842,2.278,6.211,5.521,6.211a4.951,4.951,0,0,0,5.107-3.888h-1.909a3.049,3.049,0,0,1-3.152,2.208c-2.07,0-3.473-1.219-3.657-3.888h9.017V60.658Zm-5.452-4.532c2.117,0,3.29,1.564,3.474,3.52h-6.993C502.265,57.3,503.622,56.127,505.485,56.127Zm8.454-3.083A1.242,1.242,0,1,0,512.7,51.8,1.252,1.252,0,0,0,513.939,53.044Zm-0.92,13.549h1.841V54.723h-1.841v11.87Zm10.006-12.146a4.372,4.372,0,0,0-3.726,2.047V54.723H517.55v11.87h1.841V59.876c0-2.623,1.725-3.773,3.266-3.773,1.7,0,2.715.805,2.715,2.645v7.844h1.84V58.565C527.212,55.943,525.671,54.447,523.025,54.447ZM531,66.755A1.322,1.322,0,0,0,532.31,65.4a1.347,1.347,0,0,0-2.692,0A1.323,1.323,0,0,0,531,66.755Z"/>
</svg>
