<svg xmlns="http://www.w3.org/2000/svg" width="728" height="90" viewBox="0 0 728 90">
  <defs>
    <style>
      .cls-1 {
        fill: #4b286d;
        fill-rule: evenodd;
      }
    </style>
  </defs>
  <path id="Laayein_naya_Optik_TV_." data-name="Laayein naya Optik TV®." class="cls-1" d="M191.322,54.113V30.262h-3.153v26.7H204.76v-2.85H191.322Zm32.089,0.413a0.888,0.888,0,0,1-1.051-.937v-10.8c0-3.263-1.914-5.625-7.282-5.625-5.668,0-7.657,2.662-7.883,6.413h3c0.188-2.888,1.577-3.825,4.88-3.825s4.354,1.013,4.354,3.038c0,1.725-1.088,2.438-3.04,2.663l-2.778.3c-5.33.563-7.169,2.963-7.169,6,0,3.638,2.627,5.663,6.831,5.663a7.1,7.1,0,0,0,6.307-3.113c0.15,1.838,1.126,2.775,3.265,2.775a11.439,11.439,0,0,0,1.652-.113V54.525h-1.089Zm-9.984.337c-2.666,0-3.867-1.275-3.867-3.188,0-1.875.976-3.075,4.5-3.488l2.815-.337a5,5,0,0,0,2.552-.825v2.288C219.432,53.138,216.317,54.863,213.427,54.863Zm29.506-.337a0.888,0.888,0,0,1-1.051-.937v-10.8c0-3.263-1.914-5.625-7.282-5.625-5.668,0-7.657,2.662-7.882,6.413h3c0.188-2.888,1.577-3.825,4.88-3.825s4.354,1.013,4.354,3.038c0,1.725-1.088,2.438-3.04,2.663l-2.778.3c-5.33.563-7.169,2.963-7.169,6,0,3.638,2.627,5.663,6.831,5.663a7.1,7.1,0,0,0,6.307-3.113c0.15,1.838,1.126,2.775,3.265,2.775a11.439,11.439,0,0,0,1.652-.113V54.525h-1.089Zm-9.984.337c-2.665,0-3.867-1.275-3.867-3.188,0-1.875.976-3.075,4.5-3.488l2.815-.337a5,5,0,0,0,2.552-.825v2.288C238.954,53.138,235.839,54.863,232.949,54.863ZM257.8,37.612l-2.74,8.025c-0.976,2.813-1.914,5.625-2.778,8.4-0.9-2.775-1.8-5.55-2.777-8.363l-2.741-8.063h-3.3L250.74,57.6c-0.225.6-.45,1.238-0.675,1.8a3.393,3.393,0,0,1-3.529,2.4h-1.764v2.513a14.987,14.987,0,0,0,1.8.112c3.078,0,5.067-1.013,6.306-4.425l8.183-22.388H257.8Zm21.448,9.675c0-5.55-3.116-10.125-8.9-10.125-5.367,0-8.933,4.05-8.933,10.125,0,6.263,3.716,10.125,9.009,10.125a8.079,8.079,0,0,0,8.333-6.338h-3.116a4.974,4.974,0,0,1-5.142,3.6c-3.379,0-5.668-1.987-5.969-6.338h14.715v-1.05Zm-8.9-7.388c3.454,0,5.368,2.55,5.669,5.738H264.605C265.093,41.812,267.308,39.9,270.348,39.9Zm13.457-5.025a2.025,2.025,0,1,0-2.027-2.025A2.042,2.042,0,0,0,283.805,34.875Zm-1.5,22.088h3V37.612h-3V56.963Zm15.991-19.8a7.136,7.136,0,0,0-6.081,3.338V37.612H289.36V56.963h3V46.012c0-4.275,2.815-6.15,5.33-6.15,2.778,0,4.429,1.313,4.429,4.313V56.963h3V43.875C305.125,39.6,302.61,37.162,298.294,37.162Zm29.126,0a7.14,7.14,0,0,0-6.043,3.225V37.612H316.8V56.963h4.73V46.125c0-3.45,2.252-4.875,4.317-4.875,2.4,0,3.641,1.2,3.641,3.675V56.963h4.73V44.137C334.215,39.525,331.474,37.162,327.42,37.162Zm27.773,19.8a7.315,7.315,0,0,1-.788-3.675V42.975c0-3.488-2.29-5.813-8.071-5.813-6.043,0-8.446,2.512-8.708,6.6h4.654c0.188-2.363,1.314-3.075,4.017-3.075,2.74,0,3.528.9,3.528,2.4,0,1.425-.938,1.988-2.74,2.212l-2.928.263c-5.48.525-7.432,2.813-7.432,6.038,0,3.75,2.853,5.813,6.982,5.813,2.852,0,4.954-1.013,6.231-2.813a6.3,6.3,0,0,0,.525,2.363h4.73Zm-10.36-2.925c-2.177,0-3.266-1.012-3.266-2.625,0-1.538.863-2.475,3.491-2.775l2.552-.3a3.767,3.767,0,0,0,2.215-.788v1.763C349.825,52.688,347.348,54.038,344.833,54.038Zm24.942-16.425L368.2,42.487c-1.051,3.413-2.1,6.938-3.115,10.763-0.976-3.788-2.027-7.425-3.078-10.8l-1.577-4.838h-5.105l5.631,15.9a12.985,12.985,0,0,1,.9,3.9,2.892,2.892,0,0,1-3.191,3.113h-1.8v3.713a15.468,15.468,0,0,0,2.065.112c4.692,0,6.794-1.5,8.333-5.813l7.47-20.926h-4.955Zm23.271,19.351a7.326,7.326,0,0,1-.788-3.675V42.975c0-3.488-2.29-5.813-8.07-5.813-6.044,0-8.446,2.512-8.709,6.6h4.655c0.188-2.363,1.314-3.075,4.016-3.075,2.74,0,3.529.9,3.529,2.4,0,1.425-.939,1.988-2.74,2.212l-2.928.263c-5.481.525-7.433,2.813-7.433,6.038,0,3.75,2.853,5.813,6.982,5.813,2.853,0,4.955-1.013,6.231-2.813a6.3,6.3,0,0,0,.526,2.363h4.729Zm-10.36-2.925c-2.177,0-3.265-1.012-3.265-2.625,0-1.538.863-2.475,3.491-2.775l2.552-.3a3.767,3.767,0,0,0,2.215-.788v1.763C387.679,52.688,385.2,54.038,382.686,54.038Zm34.157,3.525c8,0,13.325-5.55,13.325-13.95s-5.33-13.95-13.325-13.95c-8.033,0-13.363,5.55-13.363,13.95S408.81,57.563,416.843,57.563Zm0-4.463c-4.88,0-8.071-3.6-8.071-9.488s3.191-9.488,8.071-9.488,8.07,3.6,8.07,9.488S421.723,53.1,416.843,53.1Zm26.98-15.938a6.986,6.986,0,0,0-6.194,3.225V37.612h-4.542v26.7h4.73V54.45a6.929,6.929,0,0,0,6.006,2.963c5.33,0,8.671-3.975,8.671-10.125S449.153,37.162,443.823,37.162ZM442.7,53.513c-3.078,0-4.993-2.138-4.993-6.225s1.915-6.225,4.993-6.225,4.992,1.988,4.992,6.075S445.775,53.513,442.7,53.513Zm22.138-12.3v-3.6h-3.829V31.987h-4.692v5.625h-3v3.6h3v10.95c0,3.563,1.952,4.95,6.044,4.95,0.75,0,1.614-.075,2.477-0.15v-3.6h-1.614c-1.577,0-2.215-.413-2.215-1.688V41.212h3.829Zm4.5-5.925A2.606,2.606,0,1,0,466.7,32.7,2.594,2.594,0,0,0,469.331,35.287Zm-2.365,21.676h4.73V37.612h-4.73V56.963Zm21.5,0h5.4L486.1,44.925l7.32-7.313h-5.631l-7.882,8.025V30.262H475.25v26.7h4.655V50.888l2.928-2.925Zm36.822-26.7H503.063V34.8h8.558V56.963h5.105V34.8h8.559V30.262Zm21.188,0-4.729,13.8c-0.864,2.625-1.765,5.475-2.515,8.325-0.789-2.85-1.69-5.7-2.553-8.325l-4.842-13.8h-5.4l9.8,26.7h5.931l9.571-26.7h-5.255Zm10.311-.061a3.909,3.909,0,1,0,4.03,3.915A3.932,3.932,0,0,0,556.784,30.2Zm0,6.962a3.064,3.064,0,1,1,3.129-3.047A3.029,3.029,0,0,1,556.784,37.163Zm1.628-2.179a0.851,0.851,0,0,0-.474-0.837,0.977,0.977,0,0,0,.569-0.931,1.223,1.223,0,0,0-1.454-1.168H555.22v4.042h0.916v-1.5h0.854c0.363,0,.474.126,0.5,0.521l0.032,0.426a1.094,1.094,0,0,0,.142.553h0.964a0.918,0.918,0,0,1-.174-0.553Zm-2.276-1.152V32.837h0.838a0.5,0.5,0,1,1,.031.995h-0.869ZM557.767,57.3a3.04,3.04,0,1,0-3.153-3.075A3.035,3.035,0,0,0,557.767,57.3Z"/>
</svg>
