<svg id="SC" xmlns="http://www.w3.org/2000/svg" width="300" height="600" viewBox="0 0 300 600">
  <defs>
    <style>
      .cls-1 {
        fill: #080;
        fill-rule: evenodd;
      }
    </style>
  </defs>
  <path class="cls-1" d="M69.608,543.141a8.829,8.829,0,0,1-2.766,2.19V549.7a0.84,0.84,0,0,1-.186.51,0.663,0.663,0,0,1-.538.255l-1.479.02-0.362-.785h1.6a0.187,0.187,0,0,0,.115-0.1,0.36,0.36,0,0,0,.056-0.2v-4.459a9.108,9.108,0,0,0,2.424-1.738H63v-0.718h6.607v0.649Zm10.449-.747q-0.04.462-.171,1.179a5.1,5.1,0,0,1-.281,1.061,0.744,0.744,0,0,1-.216.279,0.583,0.583,0,0,1-.358.143,2.37,2.37,0,0,1-.271,0,4.392,4.392,0,0,1-.623-0.1l-0.241-.815c0.12,0.034.256,0.076,0.406,0.128s0.257,0.085.318,0.1a0.934,0.934,0,0,0,.165,0,0.166,0.166,0,0,0,.111-0.039,0.755,0.755,0,0,0,.095-0.231,5.327,5.327,0,0,0,.211-1H78.076a3.3,3.3,0,0,1-.307,1.012,2.748,2.748,0,0,1-.583.786,2.889,2.889,0,0,1-.879.55l-0.3-.432-0.03,4.772a0.867,0.867,0,0,1-.12.423,0.76,0.76,0,0,1-.312.314,0.809,0.809,0,0,1-.372.1H74.687l-0.251-.707h0.6a0.754,0.754,0,0,0,.111-0.009c0.04-.007.061-0.069,0.061-0.187v-1.248H74.537v1.238H73.772v-1.238H73.1a4.8,4.8,0,0,1-.372,1.355,2.783,2.783,0,0,1-.684.963l-0.573-.51a4.81,4.81,0,0,0,.518-0.746,3.544,3.544,0,0,0,.216-0.565,4.518,4.518,0,0,0,.141-0.732v-3.054l-0.241.284-0.614-.491a5.172,5.172,0,0,0,1.042-1.359,6.662,6.662,0,0,0,.588-1.675l0.673,0.265a4.722,4.722,0,0,1-.131.609h1.781a10.536,10.536,0,0,1-.523,1.561h1.055v0.453a3.672,3.672,0,0,0,.734-0.453,1.72,1.72,0,0,0,.428-0.52,2.258,2.258,0,0,0,.216-0.757H76.246v-0.707h3.811Zm-6.668,1.13a3.9,3.9,0,0,1-.412.854H74.1a4,4,0,0,0,.4-0.854H73.389Zm0.382,1.561H73.108v0.963h0.664v-0.963Zm0,1.669H73.108v1.012h0.664v-1.012Zm1.439-1.669H74.537v0.963H75.21v-0.963Zm0,1.669H74.537v1.012H75.21v-1.012Zm3.591,1.857v2.151H78.036v-2.151H76.2V547.9h1.841v-1.041H77.252a1.634,1.634,0,0,1-.227.486,2.03,2.03,0,0,1-.367.467l-0.553-.561a1.923,1.923,0,0,0,.513-0.815,2.865,2.865,0,0,0,.15-1.041l0.754,0.059a4.451,4.451,0,0,1-.07.7h0.583v-0.982H78.8v0.982h1.166v0.707H78.8V547.9h1.69v0.707H78.8ZM90.185,550.7a18.816,18.816,0,0,1-3.148-.4,9.576,9.576,0,0,1-1.921-.654l-0.312.206a7.149,7.149,0,0,1-2.886.933l-0.452-.658a13.776,13.776,0,0,0,1.413-.309,8.909,8.909,0,0,0,1.514-.555,6.826,6.826,0,0,1-1.459-1.257l0.583-.383a11.625,11.625,0,0,0,1.469,1.119,2.694,2.694,0,0,0,.347-0.589,3.144,3.144,0,0,0,.206-0.648H82.8v-3.643h2.886v-0.7H81.757v-0.717h8.579v0.717H86.454v0.7H89.24v3.643H86.3a3.664,3.664,0,0,1-.232.87,2.948,2.948,0,0,1-.422.741,4.942,4.942,0,0,0,1.227.408,17.523,17.523,0,0,0,1.816.284c0.687,0.076,1.343.119,1.966,0.133Zm-4.5-6.119H83.568v0.737h2.122v-0.737Zm-2.122,1.454v0.757H85.64l0.04-.757H83.568Zm4.948,0H86.434l-0.051.757h2.132v-0.757Zm0-1.454H86.454v0.737h2.062v-0.737ZM100,546.628a6.748,6.748,0,0,1-.6.9,5.775,5.775,0,0,1-1.015,1,7.684,7.684,0,0,1-1.448.893,12.511,12.511,0,0,1-1.775.683,27.684,27.684,0,0,1-2.927.648l-0.5-.677a20.352,20.352,0,0,0,4.505-1.16,3.576,3.576,0,0,0-1.106-.982l0.724-.4a3.1,3.1,0,0,1,1.036,1.071,8.181,8.181,0,0,0,.98-0.6,4.3,4.3,0,0,0,.735-0.653,4.157,4.157,0,0,0,.467-0.634H96.5a7.967,7.967,0,0,1-1.141.8,18.884,18.884,0,0,1-2.037.973l-0.583-.629a13,13,0,0,0,2.529-1.184,6.993,6.993,0,0,0,1.8-1.586,12.366,12.366,0,0,1-1.88.909,20.6,20.6,0,0,1-2.957.879l-0.483-.659q0.795-.176,1.735-0.431a11.851,11.851,0,0,0,1.4-.452,3.508,3.508,0,0,0-1.127-.825l0.7-.442a3.224,3.224,0,0,1,.588.427,3.939,3.939,0,0,1,.537.546,9.083,9.083,0,0,0,1.066-.629,9.45,9.45,0,0,0,.935-0.767H94.82a10.771,10.771,0,0,1-2.2,1.091l-0.664-.609a7.765,7.765,0,0,0,3.882-2.377l0.7,0.364a7.381,7.381,0,0,1-.734.785h2.836v0.659a7.1,7.1,0,0,1-.679.751,7.258,7.258,0,0,1-.739.643l0.593,0.314a4.674,4.674,0,0,1-.534.707H100v0.659Z"/>
</svg>
