<svg id="SC" xmlns="http://www.w3.org/2000/svg" width="300" height="600" viewBox="0 0 300 600">
  <defs>
    <style>
      .cls-1 {
        fill: #4c286c;
        fill-rule: evenodd;
      }
    </style>
  </defs>
  <g id="txt1">
    <path class="cls-1" d="M109.093,136.93q-0.555.678-1.942,2.672a40.288,40.288,0,0,0-2.928,5.127,60.222,60.222,0,0,1-7.46-4.79v18.053H88.256V155.9H73.83v2.026H65.138V140.8q-1.85,1.351-3.144,2.21a30.023,30.023,0,0,1-2.836,1.658l-0.8.43a44.459,44.459,0,0,0-5.364-7.737,39.142,39.142,0,0,0,11.713-6.509H53.733v-7.368h16.46l0.739-1.228h-10.6v-7.061H73.4l0.308-1.228H57.37V106.6H75.063a26.382,26.382,0,0,0,.308-3.622l8.507,0.675L83.632,106.6h20.961v7.369H82.4l-0.308,1.228H101.51v7.061H79.564l-0.617,1.228H108.23v7.368H98.058q2.527,1.782,5.487,3.47A34.942,34.942,0,0,0,109.093,136.93ZM86.9,130.851H75.186l-1.479,1.6H88.318Zm1.356,8.536H73.83v1.473H88.256v-1.473Zm0,8.166H73.83v1.474H88.256v-1.474Zm64.238,9.149v-3.93H132.52v4.053H124.2v-51.21H161V156.7h-8.508Zm0-42.92H132.52v11.175h19.974V113.782Zm0,19.034H132.52v11.728h19.974V132.816Z"/>
  </g>
</svg>
