<svg id="SC" xmlns="http://www.w3.org/2000/svg" width="300" height="600" viewBox="0 0 300 600">
  <defs>
    <style>
      .cls-1 {
        fill: #4c286c;
        fill-rule: evenodd;
      }
    </style>
  </defs>
  <g id="txt1">
    <path class="cls-1" d="M55.919,264.941l-0.933-2.895,2.715-.44v-3.965H55.5v-2.558H57.7v-2.664H55.071V249.8h7.554v2.623h-2.1v2.664h1.7v2.558h-1.7v3.336l2.313-.441v2.685Zm18.523-2.412a11.83,11.83,0,0,1-.7,3.135,1.574,1.574,0,0,1-1.336.871,15.981,15.981,0,0,1-3.565.063,1.642,1.642,0,0,1-.732-0.273,1.407,1.407,0,0,1-.52-0.839,6.929,6.929,0,0,1-.191-1.657,8.625,8.625,0,0,1-2.015,1.647,21.4,21.4,0,0,1-3.162,1.457,8.285,8.285,0,0,0-.711-1.468,6.371,6.371,0,0,0-.944-1.216,14.051,14.051,0,0,0,2.695-.881,7.592,7.592,0,0,0,2-1.269,3.943,3.943,0,0,0,1.114-1.668,7.679,7.679,0,0,0,.318-2.412v-5.642h2.673v6.083h0.467v4.7a0.866,0.866,0,0,0,.1.4,0.821,0.821,0,0,0,.711.188,1.758,1.758,0,0,0,.552,0,0.532,0.532,0,0,0,.35-0.167,1.367,1.367,0,0,0,.18-0.378,9.3,9.3,0,0,0,.212-1.762A5.191,5.191,0,0,0,74.442,262.529Zm-4.159-1.783v-9.041h-4.54v9.041H63.049V248.9H73v11.851H70.283ZM95,261.585a17.078,17.078,0,0,1-.308,2.2,3.9,3.9,0,0,1-.552,1.322,2.232,2.232,0,0,1-1.072.818,4.557,4.557,0,0,1-1.21.252q-0.806.082-2.673,0.084h-8.02a2.464,2.464,0,0,1-.987-0.242,2.282,2.282,0,0,1-.945-0.828,2.183,2.183,0,0,1-.4-1.258v-9.712a0.387,0.387,0,0,0-.265-0.263,0.343,0.343,0,0,1-.244-0.325,0.506,0.506,0,0,1,.043-0.189,0.45,0.45,0,0,1,.4-0.1H81.72v1.993H89.23v-3.4H77.752v-2.811H92.074v10.11H89.23V258.1H81.72v4.887q0,0.609.849,0.608h6.9a10.241,10.241,0,0,0,1.3-.062,1.479,1.479,0,0,0,.743-0.294,2.243,2.243,0,0,0,.478-0.524,19.685,19.685,0,0,0,.382-2.308A7.886,7.886,0,0,0,95,261.585Z"/>
  </g>
</svg>
