<svg id="SC" xmlns="http://www.w3.org/2000/svg" width="300" height="600" viewBox="0 0 300 600">
  <defs>
    <style>
      .cls-1 {
        fill: #4c286c;
        fill-rule: evenodd;
      }
    </style>
  </defs>
  <g id="txt1">
    <path class="cls-1" d="M60.916,264.934l-0.933-2.894L62.7,261.6v-3.965H60.492v-2.558H62.7v-2.664H60.067V249.79h7.553v2.622h-2.1v2.664h1.7v2.558h-1.7v3.336l2.313-.441v2.685Zm18.523-2.412a11.835,11.835,0,0,1-.7,3.135,1.574,1.574,0,0,1-1.337.871,15.98,15.98,0,0,1-3.565.063,1.641,1.641,0,0,1-.732-0.273,1.407,1.407,0,0,1-.52-0.839,6.922,6.922,0,0,1-.191-1.657,8.624,8.624,0,0,1-2.016,1.647,21.4,21.4,0,0,1-3.162,1.457,8.333,8.333,0,0,0-.711-1.468,6.375,6.375,0,0,0-.944-1.216,14.051,14.051,0,0,0,2.695-.881,7.594,7.594,0,0,0,2-1.269,3.931,3.931,0,0,0,1.114-1.668,7.68,7.68,0,0,0,.318-2.412V252.37h2.673v6.083h0.467v4.7a0.865,0.865,0,0,0,.1.4,0.821,0.821,0,0,0,.711.188,1.758,1.758,0,0,0,.552,0,0.531,0.531,0,0,0,.35-0.167,1.37,1.37,0,0,0,.18-0.378,9.308,9.308,0,0,0,.212-1.762A5.191,5.191,0,0,0,79.439,262.522Zm-4.159-1.783V251.7H70.74v9.041H68.045V248.888H78v11.851H75.28ZM100,261.578a17.081,17.081,0,0,1-.308,2.2,3.9,3.9,0,0,1-.552,1.322,2.232,2.232,0,0,1-1.071.818,4.558,4.558,0,0,1-1.21.252q-0.807.082-2.673,0.084h-8.02a2.461,2.461,0,0,1-.987-0.241,2.292,2.292,0,0,1-.945-0.829,2.18,2.18,0,0,1-.4-1.258v-9.712a0.387,0.387,0,0,0-.265-0.263,0.343,0.343,0,0,1-.244-0.325,0.5,0.5,0,0,1,.043-0.188,0.45,0.45,0,0,1,.4-0.1h2.949v1.992h7.511v-3.4H82.749v-2.81H97.07v10.11H94.227V258.1H86.716v4.887c0,0.407.283,0.609,0.849,0.609h6.9a10.207,10.207,0,0,0,1.3-.063,1.471,1.471,0,0,0,.743-0.294,2.243,2.243,0,0,0,.478-0.524,19.706,19.706,0,0,0,.382-2.308A7.885,7.885,0,0,0,100,261.578Z"/>
  </g>
</svg>
