<svg id="SC" xmlns="http://www.w3.org/2000/svg" width="300" height="600" viewBox="0 0 300 600">
  <defs>
    <style>
      .cls-1 {
        fill: #4c286c;
        fill-rule: evenodd;
      }
    </style>
  </defs>
  <g id="txt1">
    <path class="cls-1" d="M108.05,265.893V267h-2.772V256.956l-0.317.362v1.6l-1.841.64v5.1a2.117,2.117,0,0,1-.8,1.749,7.91,7.91,0,0,1-2.773.512,4.426,4.426,0,0,0-1.079-2.9q0.148,0,.582.022c0.289,0.013.514,0.017,0.677,0.009a2.439,2.439,0,0,0,.434-0.052,0.363,0.363,0,0,0,.222-0.139,0.343,0.343,0,0,0,.095-0.2v-3.179l-1.9.6-0.592-3.178,2.5-.554v-2.987H98.1v-2.645h2.37v-2.837a0.339,0.339,0,0,0-.179-0.181,0.314,0.314,0,0,1-.18-0.245,0.325,0.325,0,0,1,.085-0.149,0.451,0.451,0,0,1,.359-0.107h2.561v3.519h2.01v0.747A23.025,23.025,0,0,0,106.992,248l2.836,0.576a17.008,17.008,0,0,1-.73,1.61q-0.519,1.035-.667,1.355h1.863a17.92,17.92,0,0,0,1.121-3.477l2.878,0.747q-0.085.192-.36,0.916c-0.183.485-.332,0.861-0.444,1.131s-0.219.5-.318,0.683h3.45v2.773h-3.7v1.237h3.365v2.623h-3.365v1.238h3.365v2.644h-3.365v1.131h3.83v2.709h-8.7Zm-4.93-11.54v0.683l0.719-.683H103.12Zm0.8,2.048a3.344,3.344,0,0,0-.8-0.683v0.939Zm6.242-2.069H108.05v1.237h2.116v-1.237Zm0,3.839H108.05v1.238h2.116v-1.238Zm0,3.882H108.05v1.131h2.116v-1.131Zm23.955,4.928v-1H123.1v0.959H120.43v-8.191a0.241,0.241,0,0,0-.2-0.2,0.258,0.258,0,0,1-.2-0.246c0-.17.148-0.256,0.444-0.256h2.6v5.375h4.02v-6.526h-3.428v0.682h-2.729v-7.721a0.293,0.293,0,0,0-.212-0.182,0.286,0.286,0,0,1-.211-0.245,0.189,0.189,0,0,1,.116-0.17,0.535,0.535,0,0,1,.264-0.065h2.772v5.056H127.1v-5.333a0.259,0.259,0,0,0-.074-0.17,0.313,0.313,0,0,0-.158-0.107,0.209,0.209,0,0,1-.212-0.192,0.239,0.239,0,0,1,.3-0.235h3.068v6.037h3.576V249.9a0.284,0.284,0,0,0-.211-0.2,0.283,0.283,0,0,1-.212-0.224c0-.156.127-0.235,0.381-0.235h2.9V257.6h-2.857v-0.7h-3.576v6.548h4.105v-4.756a0.284,0.284,0,0,0-.2-0.15,0.265,0.265,0,0,1-.2-0.235q0-.234.381-0.234H137v8.916h-2.878Z"/>
  </g>
</svg>
