<svg id="SC" xmlns="http://www.w3.org/2000/svg" width="300" height="600" viewBox="0 0 300 600">
  <defs>
    <style>
      .cls-1 {
        fill: #4c286c;
        fill-rule: evenodd;
      }
    </style>
  </defs>
  <path id="txt2" class="cls-1" d="M47.056,112.77l-0.865-2.724,2.516-.414V105.9H46.662V103.5h2.045v-2.507H46.27V98.522h7v2.466H51.321V103.5h1.573V105.9H51.321v3.138l2.142-.414v2.526Zm17.158-2.27a11.284,11.284,0,0,1-.648,2.951,1.464,1.464,0,0,1-1.239.819,14.649,14.649,0,0,1-3.3.059,1.514,1.514,0,0,1-.677-0.257,1.331,1.331,0,0,1-.482-0.789,6.632,6.632,0,0,1-.177-1.559,8.04,8.04,0,0,1-1.867,1.549,19.858,19.858,0,0,1-2.928,1.371,7.885,7.885,0,0,0-.659-1.381,5.982,5.982,0,0,0-.875-1.145,12.909,12.909,0,0,0,2.5-.828,7.022,7.022,0,0,0,1.857-1.194,3.7,3.7,0,0,0,1.032-1.569,7.314,7.314,0,0,0,.295-2.27v-5.308h2.477v5.723h0.432v4.42a0.832,0.832,0,0,0,.088.375,0.752,0.752,0,0,0,.659.178,1.616,1.616,0,0,0,.51,0,0.488,0.488,0,0,0,.325-0.158,1.3,1.3,0,0,0,.167-0.355,8.981,8.981,0,0,0,.2-1.658A4.762,4.762,0,0,0,64.213,110.5Zm-3.851-1.677v-8.5H56.155v8.5h-2.5V97.673h9.218v11.15H60.362Zm22.9,0.789a16.11,16.11,0,0,1-.285,2.072,3.7,3.7,0,0,1-.51,1.243,2.068,2.068,0,0,1-.993.77,4.114,4.114,0,0,1-1.121.237q-0.747.078-2.476,0.079h-7.43a2.243,2.243,0,0,1-.914-0.227,2.112,2.112,0,0,1-.875-0.78,2.067,2.067,0,0,1-.374-1.184v-9.137a0.362,0.362,0,0,0-.246-0.246,0.321,0.321,0,0,1-.225-0.306,0.487,0.487,0,0,1,.039-0.178,0.417,0.417,0,0,1,.374-0.1h2.732v1.874h6.957v-3.2H67.28V97.89H80.547V107.4H77.913v-1.066H70.956v4.6q0,0.572.786,0.572h6.387a9.423,9.423,0,0,0,1.209-.059,1.369,1.369,0,0,0,.688-0.277,2.091,2.091,0,0,0,.442-0.493,18.911,18.911,0,0,0,.353-2.171A7.275,7.275,0,0,0,83.259,109.612Zm11.812,3.947v1.026H92.5V105.29l-0.295.336v1.48l-1.71.592v4.716a1.954,1.954,0,0,1-.747,1.619,7.377,7.377,0,0,1-2.575.473,4.093,4.093,0,0,0-1-2.684c0.091,0,.271.007,0.54,0.02s0.478,0.017.63,0.01a2.313,2.313,0,0,0,.4-0.049,0.332,0.332,0,0,0,.206-0.129,0.321,0.321,0,0,0,.089-0.187v-2.94l-1.77.552-0.549-2.94,2.319-.514v-2.762h-2.2v-2.447h2.2V97.811a0.315,0.315,0,0,0-.167-0.168,0.293,0.293,0,0,1-.168-0.227,0.3,0.3,0,0,1,.079-0.138,0.419,0.419,0,0,1,.334-0.1h2.379v3.256h1.867v0.691A21.3,21.3,0,0,0,94.089,97l2.633,0.533a15.533,15.533,0,0,1-.678,1.49q-0.482.957-.619,1.253h1.73A16.519,16.519,0,0,0,98.2,97.062l2.673,0.69q-0.079.178-.334,0.849t-0.413,1.046q-0.158.376-.294,0.632h3.2v2.566h-3.44v1.144h3.126v2.427H99.591v1.145h3.126v2.447H99.591v1.046h3.558v2.506H95.071Zm-4.58-10.676v0.631l0.668-.631H90.492Zm0.747,1.894a3.085,3.085,0,0,0-.747-0.631v0.868Zm5.8-1.914H95.071v1.145h1.965v-1.145Zm0,3.552H95.071v1.145h1.965v-1.145Zm0,3.592H95.071v1.046h1.965v-1.046Zm22.249,4.559v-0.928h-10.24v0.888h-2.476v-7.578a0.224,0.224,0,0,0-.186-0.187,0.24,0.24,0,0,1-.188-0.227q0-.237.413-0.237h2.418v4.973h3.734v-6.039h-3.184v0.631h-2.535V98.719a0.272,0.272,0,0,0-.2-0.168,0.268,0.268,0,0,1-.2-0.227,0.176,0.176,0,0,1,.109-0.158A0.5,0.5,0,0,1,107,98.107h2.574v4.677h3.184V97.851a0.242,0.242,0,0,0-.069-0.158,0.3,0.3,0,0,0-.147-0.1,0.194,0.194,0,0,1-.2-0.178,0.222,0.222,0,0,1,.276-0.217h2.85v5.585h3.321V98.758a0.262,0.262,0,0,0-.2-0.188,0.26,0.26,0,0,1-.2-0.207c0-.145.118-0.217,0.354-0.217h2.692v7.736h-2.653v-0.652h-3.321v6.059h3.812v-4.4a0.26,0.26,0,0,0-.186-0.138,0.247,0.247,0,0,1-.187-0.217c0-.145.118-0.217,0.354-0.217h2.693v8.249h-2.674Zm-58.293,43.42v7.2q0,2.407-2.129,2.408H54.725l-0.84-2.469q3,0.271,3.777.241a0.964,0.964,0,0,0,1.05-1.053v-6.322H47.2v-2.2H58.714v-4.575H49.688v-2.2h9.026v-4.185q-2.429.3-9.325,0.481l-1.35-2.227a86.833,86.833,0,0,0,11.425-.542,45.142,45.142,0,0,0,9.984-2.078l1.26,1.717a41.5,41.5,0,0,1-9.716,2.378v4.456h8.576v2.2H60.992v4.575H72.026v2.2H60.992Zm25.157-.392a12.053,12.053,0,0,0-.75-2.078,12.245,12.245,0,0,0-1.259-2.137l-0.09,14.09H81.681V154.884a19.381,19.381,0,0,1-1.439,2.514,18.533,18.533,0,0,1-2.219,2.755l-1.769-1.535a18.548,18.548,0,0,0,2.039-2.529,19.556,19.556,0,0,0,1.934-3.628,22.073,22.073,0,0,0,1.244-3.929H77.153v-2.168h4.528v-5.72H84.05v5.72h4.138v2.168H84.05v2.981l0.929-.572a13.109,13.109,0,0,1,3.328,5.3Zm17.721,3.372a34.984,34.984,0,0,1-1.049,3.974,2.041,2.041,0,0,1-.78,1.038,2.163,2.163,0,0,1-1.289.407H98.712a3.061,3.061,0,0,1-1.139-.226,1.567,1.567,0,0,1-.825-0.677,1.876,1.876,0,0,1-.255-0.934V144.167H91.816v13.668a11.734,11.734,0,0,1-1.275,5.193,16.2,16.2,0,0,1-3.523,4.712l-2.039-1.687a17.459,17.459,0,0,0,3.359-4.064,8.764,8.764,0,0,0,1.2-4.455V142h9.235v21.827q0,0.391.54,0.391h0.96a0.682,0.682,0,0,0,.569-0.436,4.584,4.584,0,0,0,.405-1.144q0.164-.708.33-1.806t0.2-1.28Zm16.732-3.884q-0.24-.39-0.855-1.219a17.786,17.786,0,0,0-1.469-1.716q-0.855-.888-1.334-1.31l1.678-1.686a24.8,24.8,0,0,1,4.109,3.854Zm20.209-2.92a7.956,7.956,0,0,0-2.024-2.665,8.911,8.911,0,0,0-2.983-1.7l1.739-1.655a7.961,7.961,0,0,1,2.879,1.761,11.694,11.694,0,0,1,2.248,2.845Zm2.7,1.866q-0.3,1.566-.84,3.477a18.164,18.164,0,0,1-1.425,3.583,15.371,15.371,0,0,1-1.634,2.574q-0.749.9-1.289,1.445l-1.978-1.475a13.61,13.61,0,0,0,3.388-4.591,21.01,21.01,0,0,0,1.709-5.886Zm-1.5-8.791a7.331,7.331,0,0,0-4.678-3.7l1.679-1.625a9.109,9.109,0,0,1,4.767,3.672Zm6.685,7.316q0,0.242.016,1.791t-0.06,2.861a12.52,12.52,0,0,1-.39,2.5,9.12,9.12,0,0,1-.9,2.213,8.454,8.454,0,0,1-1.648,2,9.979,9.979,0,0,1-2.8,1.731l-1.649-1.957a10.258,10.258,0,0,0,2.188-1.129,6.427,6.427,0,0,0,1.784-1.821,6.67,6.67,0,0,0,.99-2.484,16.756,16.756,0,0,0,.225-3.281q-0.03-1.911,0-2.424H148.7Zm3.9-8.49a24.334,24.334,0,0,1-1.98,3.387,9.8,9.8,0,0,1-1.8,1.882l8.245-.813a7.382,7.382,0,0,0-2.579-1.355l2.22-1.5a12.913,12.913,0,0,1,2.893,2.273,11.526,11.526,0,0,1,2.174,3.056l-2.009,1.354a8.668,8.668,0,0,0-1.08-1.9q-3.538.3-7.39,0.783t-5.982.9l-1.5-2.017a12.753,12.753,0,0,0,3.614-2.379,10.677,10.677,0,0,0,2.654-3.673H143.9v-2.2h7.677a7.4,7.4,0,0,0-3.269-2.287l1.919-1.385a6.255,6.255,0,0,1,2.1,1.279,9.277,9.277,0,0,1,1.709,2.062l-0.48.271,8.4,0.06v2.2h-9.355Zm-1.53,20.984V154.463h2.279v12.584h-2.279Zm12.144-6.111a15.925,15.925,0,0,1-.629,3.643,2.92,2.92,0,0,1-.765,1.2,1.979,1.979,0,0,1-1.215.6,5.431,5.431,0,0,1-3.253-.422,2.215,2.215,0,0,1-1.034-2.047v-9.453h2.279v9.092a0.607,0.607,0,0,0,.1.452,0.982,0.982,0,0,0,.449.3,1.515,1.515,0,0,0,.78.045,0.639,0.639,0,0,0,.554-0.316,4.694,4.694,0,0,0,.375-1.551,21.789,21.789,0,0,0,.195-2.333Zm3,5.509v-2.2h12.2v-0.873h-9.594v-1.957h9.594v-0.783h-8.516v-7.646h19.371v7.646h-8.576v0.783H190.4v1.957h-9.715v0.873h12.294v2.2H166.207Zm1.139-14.15v-1.957h24.407v1.957H167.346Zm3.418-2.649v-7.858h17.511v7.858H170.764Zm7.646,7.918h-6.267l0.03,1.114h6.237v-1.114Zm-6.237-2.619v0.933h6.237l0.031-.933h-6.268ZM186,143.865H173.043v0.964H186v-0.964Zm0,2.71H173.043v1.114H186v-1.114Zm0.99,8.37h-6.3l0.03,0.933h6.267v-0.933Zm0,2.619h-6.3v1.114h6.3v-1.114Zm34.3,9.965a27.23,27.23,0,0,1-9.265-4.727,22.27,22.27,0,0,1-8.845,4.727l-1.47-2.017a22.98,22.98,0,0,0,8.575-4.275,22.97,22.97,0,0,1-3.208-4.08,27.3,27.3,0,0,1-2.308-4.832q-0.422,6.534-1.709,9.424a23.39,23.39,0,0,1-3.809,5.87q-0.48-.242-1.424-0.813t-1-.6a14.836,14.836,0,0,0,4.617-7.526q0.21-.933.435-2.5t0.405-4.937q0.209-3.823.12-6.5h-4.019v-2.288h19.1v1.987q-1.47,2.2-3.9,5.419h5.938a15.887,15.887,0,0,1-1.889,6.232,25.38,25.38,0,0,1-3.809,5.058,25.359,25.359,0,0,0,8.876,4.214Zm-10.915-15.475v-1.986q2.58-3.252,3.958-5.329h-9.385v1.384q0.36,1.266.96,3.011a49.309,49.309,0,0,0,2.1,4.877,18.222,18.222,0,0,0,1.334,2.349,27.548,27.548,0,0,0,2.773,3.251,20.5,20.5,0,0,0,2.774-3.567,15.959,15.959,0,0,0,1.874-3.99h-6.387ZM73.256,193.108q0,5.18-2.129,5.389l-0.87.09H60.423q-2.46,0-2.459-2.98v-3.462H49.089V177.453h8.875v-4.606h2.278v4.606h9.086v14.692H60.242v3.643a0.7,0.7,0,0,0,.84.723h9.025q0.78-.242.9-2.078l0.12-2.348ZM57.964,179.681H51.247V183.6h6.717v-3.914Zm0,6.111H51.247v4.185h6.717v-4.185Zm9.085-6.111H60.242V183.6h6.807v-3.914Zm0,6.111H60.242v4.185h6.807v-4.185Zm24.287,1.174v10.056a2.545,2.545,0,0,1-1.409,2.078,3.468,3.468,0,0,1-1.469.3q-1.079.06-3.3,0l-1.709-2.168h4.408a1.053,1.053,0,0,0,.884-0.407,1.592,1.592,0,0,0,.314-1.008v-8.852H77.574v-2.2H89.057v-3.01a36.343,36.343,0,0,0,3.059-2.274,23.333,23.333,0,0,0,3.148-3.056h-14v-2.2H98.532v1.686a30.216,30.216,0,0,1-3.373,3.824,27.95,27.95,0,0,1-3.823,3.13v1.9H102.25v2.2H91.336Zm26.057-10.9v3.1h3.9v20.5h-2.369v-2.2h-9.055v2.2h-2.279v-20.5h4.078v-3.1h-5.157v-2.2H121.83v2.2h-4.437Zm1.528,12.945h-1.769a2.145,2.145,0,0,1-1-.451,2.341,2.341,0,0,1-.765-0.934,2.472,2.472,0,0,1-.239-0.994v-5.177h-1.17a24.864,24.864,0,0,1-.584,4.606,10.25,10.25,0,0,1-1.02,2.544,18.016,18.016,0,0,1-1.245,1.851l-1.259-.722V191h9.055v-1.987Zm-9.055-7.556v6.864a10.771,10.771,0,0,0,1.23-2.5,15.927,15.927,0,0,0,.569-4.365h-1.8Zm9.146,11.74h-9.146v2.078h9.146V193.2Zm-3.868-17.129h-1.2v3.191h1.2v-3.191Zm3.777,5.389H117.3v5.087a0.8,0.8,0,0,0,.149.211,0.816,0.816,0,0,0,.285.165,1.4,1.4,0,0,0,.42.091,3.591,3.591,0,0,0,.464,0c0.161-.01.26-0.015,0.3-0.015v-5.539Zm14.033,11.771a16.626,16.626,0,0,1-.96,4.094,3.729,3.729,0,0,1-.959,1.37,2.4,2.4,0,0,1-1.139.618h-4.378a2.229,2.229,0,0,1-1.079-.317,2.9,2.9,0,0,1-1.349-2.272V183.174h5.547v-7.105h-6.178v-2.2h8.456V186.4h-2.278v-1.024h-3.179v11.14q0,0.721,1.14.722h2.489q0.987,0,1.589-4.757Zm11.844-20.2a36.894,36.894,0,0,1-1.859,6.833v19.81H140.66v-15.5l-2.759,4.065-1.949-1.385a31.135,31.135,0,0,0,6.687-14.271Zm10.014,15.956v10.507h-2.368V188.984h-8.365V186.7h8.365v-5.991H148.4a28.3,28.3,0,0,1-2.608,4.847l-2.1-1.054a19.049,19.049,0,0,0,2.564-4.561,22.059,22.059,0,0,0,1.274-5.254l2.069,0.663a14.143,14.143,0,0,1-.45,3.071h3.3v-5.961h2.368v5.961h6.237v2.288h-6.237V186.7h8.276v2.288h-8.276ZM72.266,223.2a15.181,15.181,0,0,1-2.219-.842,16.326,16.326,0,0,1-2.7-1.536v10.868H64.86v-1.836H54.815v1.926H52.446v-11.41a19,19,0,0,1-2.353,1.5,17.685,17.685,0,0,1-2.534,1.175L46,221.218q1.319-.571,2.879-1.431a25.448,25.448,0,0,0,2.713-1.7,11.579,11.579,0,0,0,1.724-1.476H47.589v-2.2h7.645a10.51,10.51,0,0,0,1.14-1.687H51.607v-2.2h5.757a12.071,12.071,0,0,0,.63-1.415H49.538v-2.2h8.936a18.194,18.194,0,0,0,.389-2.35l2.189,0.483a15.586,15.586,0,0,1-.27,1.867h9.235v2.2H60.3l-0.45,1.415h8.215v2.2H58.923l-0.9,1.687h14v2.2H66q2.069,2.831,7.5,4.546Zm-7.586-4.546a11.074,11.074,0,0,1-1.619-2.047l-6.567.03a22.57,22.57,0,0,1-1.829,2.017H64.68Zm0.18,2.2H54.815v2.138H64.86v-2.138Zm0,4.336H54.815v2.469H64.86v-2.469Zm31.034,5.418v-2.92H84.11v3.041H81.741V207.278H98.262V230.61H95.893Zm0-21.134H84.11v6.744H95.893v-6.744Zm0,8.942H84.11v7.075H95.893v-7.075Zm20.6,3.13a3.927,3.927,0,0,1-.93,1.807,3.55,3.55,0,0,1-1.619,1.144,5.68,5.68,0,0,1-2.908.09l-0.54-2.5q1.439,0.3,1.754.347a2.366,2.366,0,0,0,.584.015,1.729,1.729,0,0,0,.811-0.3,1.98,1.98,0,0,0,.613-0.949,3.081,3.081,0,0,0,.016-1.64,8.808,8.808,0,0,0-3.059-4.577q2.04-4.755,2.639-6.713h-3.718v23.453l-2.278.059v-25.77h8.425v2.228l-2.518,6.352a11.453,11.453,0,0,1,1.933,2.348,6.042,6.042,0,0,1,.855,2.334A7.227,7.227,0,0,1,116.493,221.548Zm14.9,10.086a11.889,11.889,0,0,1-4.438-3.131,14.67,14.67,0,0,1-3-4.606,18.862,18.862,0,0,1-1.079-4.847h-3.118v9.122q0.66-.33,2.608-1.114t1.98-.783v2.288l-6.417,2.83c-0.041-.02-0.3-0.215-0.765-0.587s-0.844-.677-1.124-0.918a3.307,3.307,0,0,0,1.02-.783,1.95,1.95,0,0,0,.419-1.325V206.074H130.2V219.05h-5.067a22.193,22.193,0,0,0,.435,2.408,10.4,10.4,0,0,0,.735,1.927l4.347-3.854,1.709,1.566q-0.48.451-1.484,1.34t-3.612,2.815a9.253,9.253,0,0,0,2.293,2.6,12.534,12.534,0,0,0,3.223,1.881Zm-3.479-23.362h-8.155v3.1h8.155v-3.1Zm-8.155,5.3v3.311l8.066-.06,0.06-3.251h-8.126Zm42.248,16.588h-6.777a21.3,21.3,0,0,1-5.771-.332,12.261,12.261,0,0,1-5.083-2.017l-2.1-1.716a15.914,15.914,0,0,1-4.588,5.69,12.626,12.626,0,0,1-1-.993q-0.615-.661-0.854-0.9a13.379,13.379,0,0,0,1.844-1.4,10.376,10.376,0,0,0,1.829-2.167,8.673,8.673,0,0,0,1.154-2.6,26.721,26.721,0,0,0,.57-5.328h2.338a33.351,33.351,0,0,1-.509,5.328,14.861,14.861,0,0,0,1.784,1.671,11.413,11.413,0,0,0,2.054,1.37,6.608,6.608,0,0,0,1.559.6v-11.35H140.81l0.06-2.2h17.541v2.2h-7.677l-0.089,4.456H160v2.2h-9.266v5.089l3.839,0.12h8.6Zm-2.7-15.986,0.061-3.764H140.06v3.583h-2.279v-5.781h11.574a14.053,14.053,0,0,0-3.658-2.679l2.039-1.174a16.325,16.325,0,0,1,2.249,1.49,21.217,21.217,0,0,1,2.069,1.792l-0.719.481,10.314,0.09v5.962H159.31Zm15.892-8.791q-0.42,1.626-.855,3.041t-1.363,3.7v19.449H170.7V216.731q-0.06.091-1.139,1.566a17.267,17.267,0,0,1-1.769,2.138l-1.949-1.446a27.688,27.688,0,0,0,4.407-6.623,32.383,32.383,0,0,0,2.819-7.888Zm17.72,20.923a11.646,11.646,0,0,1-.944,3.4,1.6,1.6,0,0,1-1.364,1.023h-6.177a1.767,1.767,0,0,1-2.039-1.957v-9.785a19.034,19.034,0,0,1-4.2,9.785,14.128,14.128,0,0,1-3.6,2.92l-1.529-1.806a13.826,13.826,0,0,0,4.363-4.154,19.289,19.289,0,0,0,2.624-6.654,22.4,22.4,0,0,0,.375-2.273q0.163-1.369.194-2.393h-6.476v-2.2h6.6V204.75h2.279v7.466h9.535v2.2h-9.6l-0.089,1.174h1.889v12.373a0.624,0.624,0,0,0,.135.407,0.458,0.458,0,0,0,.375.165h4.288a0.864,0.864,0,0,0,.464-0.1,1.484,1.484,0,0,0,.375-0.648,18.249,18.249,0,0,0,.3-3.191Zm-4.5-14.27a10.839,10.839,0,0,0-1.484-1.942,22.559,22.559,0,0,0-2.833-2.423l1.709-1.476a16.787,16.787,0,0,1,2.324,1.972,24.643,24.643,0,0,1,2.143,2.454ZM203.717,225.1a10.006,10.006,0,0,1-2.564,2.589,12.855,12.855,0,0,1-3.4,1.746l-1.769-1.836a11.94,11.94,0,0,0,6.117-3.764Q203.386,224.8,203.717,225.1Zm7.136-16.2v1.054h7.976v9.062H218.2a12.317,12.317,0,0,1,4.078,3.7l-2.009,1.324a13.133,13.133,0,0,0-1.379-1.746q-4.168.18-9.565,0.181c0.1,0.06.365,0.216,0.794,0.467s0.83,0.506,1.2.767a6.509,6.509,0,0,1,1.049.934,9.782,9.782,0,0,1,.78.948c0.189,0.271.315,0.456,0.375,0.557l-1.949,1.324a10.082,10.082,0,0,0-4.378-3.823l1.56-1.053q-5.878.06-10.825,0.21L196.7,220.5q2.039,0.03,11.873-.06V219.02h-7.916v-9.062h7.916V208.9H196.88v-2.168h11.694V204.3h2.279v2.438h11.724V208.9H210.853Zm-2.279,3.221h-5.636v1.144h5.636v-1.144Zm0,3.312h-5.636v1.415h5.636v-1.415Zm8.217,10.808q-0.061.242-.2,0.948c-0.089.472-.175,0.844-0.254,1.114a5.46,5.46,0,0,1-.316.814,2.7,2.7,0,0,1-.524.737,2.37,2.37,0,0,1-.749.511,8.669,8.669,0,0,1-3.059.211h-4.828a2.66,2.66,0,0,1-1.379-.6,3.452,3.452,0,0,1-.96-1.2,7.248,7.248,0,0,1-.209-1.747v-3.25h2.369v3.763a1.015,1.015,0,0,0,.254.512,1.128,1.128,0,0,0,.5.361h5.907a1.736,1.736,0,0,0,.4-0.211,1.007,1.007,0,0,0,.36-0.5,6.6,6.6,0,0,0,.271-1.174,8.608,8.608,0,0,1,.255-1.19A20,20,0,0,1,216.791,226.245Zm-0.33-14.12h-5.608v1.144h5.608v-1.144Zm0,3.312h-5.608v1.415h5.608v-1.415Zm-0.33,4.787a8.562,8.562,0,0,1-1.47-.693l0.749-.451-4.557-.06v1.294Zm5.457,9.844a13.005,13.005,0,0,0-5.457-4.7l1.709-1.294a12.682,12.682,0,0,1,3.433,2.047,11.869,11.869,0,0,1,2.2,2.559Zm13.463-24.626a51.608,51.608,0,0,1-2.669,7.707v18.635H230.1V217.3a32.675,32.675,0,0,1-2.459,2.859l-2.1-1.324a30.079,30.079,0,0,0,7.376-14.21ZM252.2,217.665a15.7,15.7,0,0,1-3.883-2.709,28.538,28.538,0,0,1-3.3-3.538,35.206,35.206,0,0,1-2.054-2.905,23.022,23.022,0,0,1-3.223,4.516,23.738,23.738,0,0,1-3.224,3.04,18.494,18.494,0,0,1-2.4,1.536l-1.619-1.867a16.918,16.918,0,0,0,6-4.591,26.007,26.007,0,0,0,4.137-6.879l1.98,1.114-0.36.873a25.916,25.916,0,0,0,4.2,5.569A18.6,18.6,0,0,0,254,215.768Zm-11.725,3.672a14.488,14.488,0,0,1-.359,3.4,8.935,8.935,0,0,1-1.319,2.89A17.288,17.288,0,0,1,234.211,232l-1.709-1.9a10.626,10.626,0,0,0,3.1-2.3,9.759,9.759,0,0,0,2.024-2.89,6.293,6.293,0,0,0,.57-2.334v-7.466h2.278v6.231Zm5.158,10.357V215.106h2.279v16.588h-2.279Z"/>
</svg>
