<svg xmlns="http://www.w3.org/2000/svg" width="300" height="50" viewBox="0 0 300 50">
  <defs>
    <style>
      .cls-1 {
        fill: #fff;
        fill-rule: evenodd;
      }
    </style>
  </defs>
  <path id="_On_a_2-year_term._Conditions_apply." data-name="*On a 2-year term. Conditions apply." class="cls-1" d="M48.854,43.7l0.525-.781L49.9,43.7l0.369-.256L49.685,42.7l0.888-.281-0.163-.406-0.844.35,0.031-.894H49.154l0.031,0.894-0.844-.35-0.163.406L49.066,42.7l-0.607.738Zm4.421,2.331a2.33,2.33,0,1,0-2.1-2.331A2.124,2.124,0,0,0,53.275,46.029Zm0.006-.519A1.59,1.59,0,0,1,51.768,43.7a1.532,1.532,0,1,1,3.021,0A1.576,1.576,0,0,1,53.281,45.51Zm4.554-2.894a1.23,1.23,0,0,0-1.082.538V42.7H56.215v3.225H56.79V44.129a0.886,0.886,0,0,1,.919-1.013,0.587,0.587,0,0,1,.644.681v2.125h0.575V43.685A0.993,0.993,0,0,0,57.835,42.616ZM64.525,45.5a0.232,0.232,0,0,1-.281-0.281V43.628A1.036,1.036,0,0,0,62.981,42.6a1.125,1.125,0,0,0-1.345,1.05h0.569a0.592,0.592,0,0,1,.732-0.575c0.5,0,.726.163,0.726,0.5V43.71a0.223,0.223,0,0,1-.231.244l-0.825.106a1.023,1.023,0,0,0-1.1,1.006A0.941,0.941,0,0,0,62.587,46a1.369,1.369,0,0,0,1.17-.556,0.481,0.481,0,0,0,.557.475h0.306V45.5H64.525Zm-1.832.063a0.531,0.531,0,0,1-.619-0.519,0.581,0.581,0,0,1,.625-0.556l0.963-.144v0.45A0.906,0.906,0,0,1,62.693,45.56Zm4.314,0.363h2.958V45.4H67.721a1.354,1.354,0,0,1,.869-0.938l0.557-.35a1.553,1.553,0,0,0,.844-1.363,1.3,1.3,0,0,0-1.426-1.325A1.382,1.382,0,0,0,67.1,42.9V43h0.582V42.928a0.842,0.842,0,0,1,.876-0.988,0.779,0.779,0,0,1,.857.831,1.037,1.037,0,0,1-.607.925l-0.775.481A1.992,1.992,0,0,0,67.008,45.922Zm3.509-1.3h1.751V44.1H70.517v0.519ZM75.006,42.7L74.074,45.31l-0.069-.388L73.167,42.7H72.542l1.3,3.194-0.15.394a0.5,0.5,0,0,1-.538.431h-0.3V47.2h0.357a0.826,0.826,0,0,0,.888-0.644L75.6,42.7H75.006Zm3.841,1.538a1.433,1.433,0,0,0-1.476-1.613,1.5,1.5,0,0,0-1.52,1.675A1.523,1.523,0,0,0,77.384,46a1.418,1.418,0,0,0,1.438-1.05L78.3,44.885a0.871,0.871,0,0,1-.894.644,0.948,0.948,0,0,1-.976-1.081h2.42V44.235Zm-1.47-1.144a0.919,0.919,0,0,1,.932.944H76.433A0.914,0.914,0,0,1,77.377,43.091ZM82.4,45.5a0.232,0.232,0,0,1-.281-0.281V43.628A1.036,1.036,0,0,0,80.859,42.6a1.125,1.125,0,0,0-1.345,1.05h0.569a0.592,0.592,0,0,1,.732-0.575c0.5,0,.725.163,0.725,0.5V43.71a0.223,0.223,0,0,1-.231.244l-0.825.106a1.023,1.023,0,0,0-1.1,1.006A0.941,0.941,0,0,0,80.465,46a1.369,1.369,0,0,0,1.169-.556,0.481,0.481,0,0,0,.556.475H82.5V45.5H82.4Zm-1.832.063a0.531,0.531,0,0,1-.619-0.519,0.581,0.581,0,0,1,.625-0.556l0.963-.144v0.45A0.906,0.906,0,0,1,80.571,45.56Zm4.073-2.95a1.117,1.117,0,0,0-1.051.738V42.7H83.056v3.225h0.575V44.16a0.956,0.956,0,0,1,.926-0.988c0.075,0,.138,0,0.206.006V42.616A0.714,0.714,0,0,0,84.645,42.61Zm3.27,0.506,0.738,0.025V42.7l-0.738.025V41.709H87.34v1.006L86.858,42.7v0.444l0.482-.025V45.2a0.62,0.62,0,0,0,.719.719h0.588V45.441H88.228a0.257,0.257,0,0,1-.313-0.312V43.116Zm4.067,1.119a1.433,1.433,0,0,0-1.476-1.613,1.5,1.5,0,0,0-1.52,1.675A1.523,1.523,0,0,0,90.519,46a1.418,1.418,0,0,0,1.438-1.05l-0.525-.062a0.871,0.871,0,0,1-.894.644,0.948,0.948,0,0,1-.976-1.081h2.42V44.235Zm-1.47-1.144a0.919,0.919,0,0,1,.932.944H89.568A0.914,0.914,0,0,1,90.513,43.091Zm3.776-.481a1.117,1.117,0,0,0-1.051.738V42.7H92.7v3.225h0.575V44.16a0.956,0.956,0,0,1,.926-0.988c0.075,0,.137,0,0.206.006V42.616A0.712,0.712,0,0,0,94.289,42.61Zm4.073,0.006a1.093,1.093,0,0,0-1.026.563,0.881,0.881,0,0,0-.894-0.563,1.074,1.074,0,0,0-.982.556l0.025-.475h-0.55v3.225H95.51V44.2a0.876,0.876,0,0,1,.788-1.088,0.529,0.529,0,0,1,.557.6v2.207H97.43v-1.75c0-.831.413-1.056,0.788-1.056a0.529,0.529,0,0,1,.557.6v2.207H99.35V43.71A0.926,0.926,0,0,0,98.362,42.616Zm2.271,3.4a0.382,0.382,0,1,0-.4-0.381A0.376,0.376,0,0,0,100.633,46.016Zm5.065,0.013A1.822,1.822,0,0,0,107.58,44.3h-0.575a1.233,1.233,0,0,1-1.288,1.206c-0.907,0-1.439-.7-1.439-1.813s0.538-1.788,1.439-1.788a1.154,1.154,0,0,1,1.213.906h0.594a1.745,1.745,0,0,0-1.832-1.425,2.051,2.051,0,0,0-2.008,2.307A2.07,2.07,0,0,0,105.7,46.029Zm4-.025a1.578,1.578,0,0,0,1.557-1.719,1.518,1.518,0,0,0-1.539-1.669A1.7,1.7,0,0,0,109.7,46Zm0-.481a1.241,1.241,0,0,1,0-2.425,1.009,1.009,0,0,1,.981,1.188A1.053,1.053,0,0,1,109.7,45.522Zm3.884-2.907a1.23,1.23,0,0,0-1.082.538V42.7h-0.538v3.225h0.576V44.129a0.885,0.885,0,0,1,.919-1.013,0.587,0.587,0,0,1,.644.681v2.125h0.575V43.685A0.993,0.993,0,0,0,113.586,42.616Zm4.172-1.144v1.613a1.182,1.182,0,0,0-.975-0.456,1.453,1.453,0,0,0-1.395,1.631,1.508,1.508,0,0,0,1.407,1.731,1.178,1.178,0,0,0,1.038-.581v0.513h0.5V41.472h-0.576ZM116.851,45.5a1.025,1.025,0,0,1-.888-1.238,0.945,0.945,0,0,1,.9-1.138,0.969,0.969,0,0,1,.925,1.15A1.047,1.047,0,0,1,116.851,45.5Zm2.692-3.35a0.361,0.361,0,0,0,.375-0.375,0.379,0.379,0,0,0-.757,0A0.363,0.363,0,0,0,119.543,42.147Zm-0.288,3.775h0.575V42.7h-0.575v3.225Zm2.261-2.807,0.738,0.025V42.7l-0.738.025V41.709h-0.575v1.006l-0.482-.019v0.444l0.482-.025V45.2a0.62,0.62,0,0,0,.719.719h0.588V45.441h-0.419a0.257,0.257,0,0,1-.313-0.312V43.116Zm1.635-.969a0.361,0.361,0,0,0,.375-0.375,0.379,0.379,0,0,0-.757,0A0.363,0.363,0,0,0,123.151,42.147Zm-0.288,3.775h0.575V42.7h-0.575v3.225ZM125.708,46a1.579,1.579,0,0,0,1.558-1.719,1.518,1.518,0,0,0-1.539-1.669A1.7,1.7,0,0,0,125.708,46Zm0-.481a1.242,1.242,0,0,1,0-2.425,1.009,1.009,0,0,1,.982,1.188A1.053,1.053,0,0,1,125.708,45.522Zm3.885-2.907a1.23,1.23,0,0,0-1.082.538V42.7h-0.538v3.225h0.575V44.129a0.886,0.886,0,0,1,.92-1.013,0.587,0.587,0,0,1,.644.681v2.125h0.575V43.685A0.993,0.993,0,0,0,129.593,42.616ZM132.687,46a1.113,1.113,0,0,0,1.345-1.019,0.945,0.945,0,0,0-.944-0.913l-0.626-.138c-0.381-.081-0.5-0.225-0.5-0.431,0-.288.244-0.425,0.65-0.425a0.653,0.653,0,0,1,.763.556h0.569a1.144,1.144,0,0,0-1.313-1.013,0.991,0.991,0,0,0-1.2.931,0.9,0.9,0,0,0,.895.875l0.65,0.138a0.5,0.5,0,0,1,.507.469c0,0.306-.244.506-0.77,0.506a0.691,0.691,0,0,1-.819-0.638h-0.55A1.162,1.162,0,0,0,132.687,46Zm6.66-.506a0.232,0.232,0,0,1-.281-0.281V43.628A1.036,1.036,0,0,0,137.8,42.6a1.125,1.125,0,0,0-1.344,1.05h0.569a0.592,0.592,0,0,1,.732-0.575c0.5,0,.725.163,0.725,0.5V43.71a0.223,0.223,0,0,1-.231.244l-0.826.106a1.022,1.022,0,0,0-1.1,1.006,0.94,0.94,0,0,0,1.081.938,1.369,1.369,0,0,0,1.17-.556,0.481,0.481,0,0,0,.557.475h0.306V45.5h-0.094Zm-1.832.063a0.531,0.531,0,0,1-.619-0.519,0.581,0.581,0,0,1,.625-0.556l0.963-.144v0.45A0.906,0.906,0,0,1,137.515,45.56Zm4.042-2.932a1.164,1.164,0,0,0-1.057.588V42.7H140v4.5h0.575V45.529a1.176,1.176,0,0,0,.957.463,1.535,1.535,0,0,0,1.413-1.757A1.427,1.427,0,0,0,141.557,42.628ZM141.476,45.5a1.043,1.043,0,0,1-.932-1.225,0.973,0.973,0,0,1,.932-1.15,0.919,0.919,0,0,1,.894,1.113A1.053,1.053,0,0,1,141.476,45.5Zm3.745-2.869a1.161,1.161,0,0,0-1.057.588V42.7h-0.5v4.5h0.576V45.529a1.176,1.176,0,0,0,.957.463,1.535,1.535,0,0,0,1.413-1.757A1.427,1.427,0,0,0,145.221,42.628ZM145.139,45.5a1.043,1.043,0,0,1-.932-1.225,0.973,0.973,0,0,1,.932-1.15,0.92,0.92,0,0,1,.895,1.113A1.053,1.053,0,0,1,145.139,45.5Zm2.194,0.425h0.576V41.472h-0.576v4.451Zm3.591-3.225-0.932,2.613-0.068-.388L149.086,42.7H148.46l1.3,3.194-0.15.394a0.5,0.5,0,0,1-.538.431h-0.3V47.2h0.356a0.825,0.825,0,0,0,.888-0.644l1.5-3.857h-0.594Zm1.125,3.319a0.382,0.382,0,1,0-.4-0.381A0.376,0.376,0,0,0,152.049,46.016Z"/>
</svg>
