<svg xmlns="http://www.w3.org/2000/svg" width="300" height="50" viewBox="0 0 300 50">
  <defs>
    <style>
      .cls-1 {
        fill: #fffffe;
        fill-rule: evenodd;
      }
    </style>
  </defs>
  <path id="_" data-name="$" class="cls-1" d="M97.154,16c0-2.354-1.492-3.138-3.959-3.574l-0.516-.087V8.907c1.377,0.116,1.951.785,2.008,1.8h2.066c-0.115-2.121-1.492-3.429-4.074-3.574V5.42H91.7V7.106c-2.812.145-4.16,1.54-4.16,3.429,0,2.325,1.492,3.226,3.787,3.632L91.7,14.225v3.6c-1.434-.116-2.18-0.668-2.3-2.063H87.285c0.086,2.179,1.435,3.661,4.418,3.836v1.714h0.975V19.63C95.461,19.543,97.154,18.264,97.154,16Zm-7.4-5.55c0-.872.6-1.453,1.951-1.54v3.255C90.24,11.871,89.752,11.377,89.752,10.447Zm2.926,7.41V14.4c1.836,0.349,2.267.814,2.267,1.744C94.945,17.1,94.314,17.77,92.678,17.857Z"/>
  <path id="From_just" data-name="From just" class="cls-1" d="M115.6,19.713a7.083,7.083,0,0,0,3.975-6.425c0-5.149-3.934-7.949-9.343-7.949-5.9,0-9.507,3.5-9.548,8.732h3.442c0.164-3.954,2.746-5.6,6.106-5.6,3.565,0,5.86,1.771,5.86,4.9s-2.131,4.984-6.065,4.984h-1.967v2.883h2.172c4.1,0,6.638,2.307,6.638,5.849s-2.54,5.766-6.433,5.766c-4.262,0-6.679-2.224-6.8-6.384h-3.4c-0.041,5.684,3.524,9.514,10.2,9.514,5.941,0,10.039-3.542,10.039-8.9C120.472,23.42,118.259,21.113,115.6,19.713Zm22.863-.124a6.535,6.535,0,0,0,4.22-6.219c0-5.231-4.22-8.032-9.383-8.032s-9.384,2.8-9.384,8.032a6.535,6.535,0,0,0,4.221,6.219c-3.238,1.236-5.409,3.789-5.409,7.414,0,5.56,4.3,8.979,10.572,8.979S143.868,32.564,143.868,27C143.868,23.379,141.7,20.825,138.459,19.589ZM133.3,8.469c3.36,0,5.982,1.689,5.982,4.9s-2.622,4.9-5.982,4.9-5.983-1.689-5.983-4.9S129.936,8.469,133.3,8.469Zm0,24.383c-4.221,0-6.966-2.1-6.966-5.849s2.745-5.849,6.966-5.849,6.966,2.1,6.966,5.849S137.516,32.852,133.3,32.852Zm9.94,2.471h0.988l3.231-9.066h-0.988ZM154.8,28.6a2.255,2.255,0,0,0-2.014,1.235,2.047,2.047,0,0,0-2.015-1.235,2.1,2.1,0,0,0-1.887,1.12V28.753h-0.963v6.57h1.013V31.732c0-1.579.875-2.216,1.673-2.216a1.252,1.252,0,0,1,1.368,1.452v4.355h1.013V31.732c0-1.579.849-2.216,1.672-2.216a1.248,1.248,0,0,1,1.369,1.452v4.355h1.013V30.866A2.083,2.083,0,0,0,154.8,28.6Zm6.615,6.876a3.142,3.142,0,0,0,3.167-3.438,3.178,3.178,0,1,0-6.334,0A3.141,3.141,0,0,0,161.413,35.476Zm0-.917c-1.267,0-2.1-.93-2.1-2.521s0.836-2.521,2.1-2.521,2.1,0.93,2.1,2.521S162.679,34.559,161.413,34.559Zm4.242,0.853a0.729,0.729,0,0,0,.722-0.751,0.742,0.742,0,0,0-1.482,0A0.731,0.731,0,0,0,165.655,35.412Zm0.853-4.78,0.5-.689,0.5,0.689,0.261-.21-0.5-.7,0.8-.258-0.11-.316-0.775.253V28.57h-0.335V29.4l-0.775-.253-0.11.316,0.8,0.258-0.5.7ZM26.563,16.12V14.9h-7.53V26.332h1.343V20.985h5.548v-1.22H20.376V16.12h6.187Zm4.7,1.8a2.88,2.88,0,0,0-2.654,1.59V18.047H27.4v8.285h1.279v-4.72c0-1.605,1.055-2.44,2.7-2.44H31.7V17.935C31.522,17.919,31.394,17.919,31.266,17.919Zm5.041,8.606c2.318,0,4-1.686,4-4.335s-1.679-4.335-4-4.335-4,1.686-4,4.335S33.989,26.524,36.308,26.524Zm0-1.156c-1.6,0-2.654-1.172-2.654-3.179s1.055-3.179,2.654-3.179,2.654,1.172,2.654,3.179S37.906,25.368,36.308,25.368ZM50.5,17.854a2.848,2.848,0,0,0-2.542,1.557,2.583,2.583,0,0,0-2.542-1.557,2.649,2.649,0,0,0-2.382,1.413v-1.22H41.818v8.285H43.1V21.8c0-1.991,1.1-2.794,2.11-2.794a1.58,1.58,0,0,1,1.727,1.83v5.491h1.279V21.8c0-1.991,1.071-2.794,2.11-2.794a1.573,1.573,0,0,1,1.727,1.83v5.491h1.279v-5.62A2.628,2.628,0,0,0,50.5,17.854Zm8.582-.979a0.867,0.867,0,1,0-.863-0.867A0.872,0.872,0,0,0,59.081,16.875ZM57.818,29.527a1.612,1.612,0,0,0,1.9-1.718V18.047H58.441V27.7a0.654,0.654,0,0,1-.783.706H57.13v1.108C57.386,29.527,57.562,29.527,57.818,29.527Zm9.187-11.48v4.688a2.354,2.354,0,0,1-2.27,2.633,1.658,1.658,0,0,1-1.886-1.846V18.047H61.569v5.6a2.636,2.636,0,0,0,2.91,2.874,3.036,3.036,0,0,0,2.59-1.429v1.236h1.215V18.047H67.005Zm6.174,8.477c2.03,0,3.278-.9,3.278-2.473,0-1.349-.815-2.039-2.846-2.44l-0.736-.145c-1.055-.209-1.663-0.5-1.663-1.284,0-.771.624-1.22,1.727-1.22,1.263,0,2.014.353,2.078,1.638H76.3c-0.032-1.766-1.151-2.745-3.357-2.745-1.886,0-3.006.931-3.006,2.344,0,1.284.783,2.1,2.574,2.44l0.767,0.145c1.439,0.273,1.887.61,1.887,1.349,0,0.819-.592,1.284-1.983,1.284-1.455,0-2.062-.466-2.206-1.718h-1.3C69.806,25.641,71.085,26.524,73.179,26.524Zm8.245-7.353V18.047H79.729V15.7H78.45v2.344H77.091v1.124H78.45v5.491c0,1.268.783,1.718,2.062,1.718q0.384,0,.911-0.048V25.256H80.673c-0.735,0-.943-0.273-0.943-0.707V19.171h1.695Z"/>
</svg>
