<svg xmlns="http://www.w3.org/2000/svg" width="300" height="50" viewBox="0 0 300 50">
  <defs>
    <style>
      .cls-1 {
        fill: #fffffe;
        fill-rule: evenodd;
      }
    </style>
  </defs>
  <path id="Dito_ka_na_sa_bagong_Optik_TV_." data-name="Dito ka na sa  bagong Optik TV®." class="cls-1" d="M57.918,7.02H53.741V19.482h4.178c3.742,0,6.075-2.328,6.075-6.231S61.661,7.02,57.918,7.02Zm0,11.131H55.2v-9.8h2.715c2.994,0,4.543,1.89,4.543,4.9S60.912,18.152,57.918,18.152Zm8.255-8.978a0.945,0.945,0,1,0-.94-0.945A0.95,0.95,0,0,0,66.173,9.173Zm-0.7,10.309h1.393V10.451H65.476v9.031ZM72.6,11.676V10.451H70.758V7.9H69.365v2.555h-1.48v1.225h1.48v5.986c0,1.383.853,1.873,2.246,1.873q0.418,0,.992-0.052V18.309H71.785c-0.8,0-1.027-.3-1.027-0.77V11.676H72.6Zm4.816,8.016c2.524,0,4.352-1.838,4.352-4.725s-1.828-4.725-4.352-4.725-4.352,1.838-4.352,4.726S74.9,19.692,77.419,19.692Zm0-1.26c-1.741,0-2.89-1.278-2.89-3.465s1.149-3.465,2.89-3.465,2.889,1.278,2.889,3.465S79.16,18.432,77.419,18.432Zm15.509,1.05h1.619l-3.655-5.776L94.3,10.451H92.459L88.3,14.494V7.02H86.906V19.482H88.3V16.139l1.6-1.505Zm9.8-1.138a0.413,0.413,0,0,1-.488-0.438v-5.04c0-1.523-.888-2.625-3.377-2.625-2.628,0-3.551,1.243-3.656,2.993H96.6c0.087-1.348.731-1.785,2.263-1.785s2.019,0.473,2.019,1.418c0,0.8-.5,1.138-1.41,1.243l-1.288.14c-2.472.263-3.325,1.383-3.325,2.8,0,1.7,1.219,2.643,3.168,2.643a3.287,3.287,0,0,0,2.924-1.453,1.29,1.29,0,0,0,1.514,1.3,5.258,5.258,0,0,0,.766-0.052V18.344h-0.5Zm-4.631.157c-1.236,0-1.793-.6-1.793-1.488,0-.875.453-1.435,2.089-1.628l1.305-.158a2.3,2.3,0,0,0,1.183-.385v1.068A2.585,2.585,0,0,1,98.093,18.5Zm13.978-8.261a3.306,3.306,0,0,0-2.82,1.558V10.451h-1.323v9.031h1.393v-5.11a2.565,2.565,0,0,1,2.471-2.87,1.806,1.806,0,0,1,2.054,2.013v5.968h1.393V13.374A2.871,2.871,0,0,0,112.071,10.241Zm12.434,8.1a0.413,0.413,0,0,1-.488-0.438v-5.04c0-1.523-.887-2.625-3.377-2.625-2.628,0-3.551,1.243-3.655,2.993h1.392c0.088-1.348.732-1.785,2.263-1.785s2.02,0.473,2.02,1.418c0,0.8-.5,1.138-1.41,1.243l-1.288.14c-2.472.263-3.325,1.383-3.325,2.8,0,1.7,1.218,2.643,3.168,2.643a3.285,3.285,0,0,0,2.924-1.453,1.291,1.291,0,0,0,1.515,1.3,5.278,5.278,0,0,0,.766-0.052V18.344h-0.505Zm-4.631.157c-1.235,0-1.792-.6-1.792-1.488,0-.875.452-1.435,2.088-1.628l1.306-.158a2.312,2.312,0,0,0,1.184-.385v1.068A2.586,2.586,0,0,1,119.874,18.5Zm13,1.19c2.211,0,3.569-.98,3.569-2.7,0-1.47-.888-2.223-3.1-2.66l-0.8-.158c-1.149-.227-1.811-0.543-1.811-1.4,0-.84.679-1.33,1.88-1.33,1.375,0,2.194.385,2.263,1.785h1.393c-0.035-1.925-1.254-2.993-3.656-2.993-2.054,0-3.272,1.015-3.272,2.555,0,1.4.853,2.293,2.8,2.66l0.836,0.157c1.566,0.3,2.054.665,2.054,1.47,0,0.893-.644,1.4-2.159,1.4-1.584,0-2.245-.508-2.4-1.873h-1.41C129.2,18.729,130.6,19.692,132.877,19.692Zm12.335-1.348a0.412,0.412,0,0,1-.487-0.438v-5.04c0-1.523-.888-2.625-3.377-2.625-2.629,0-3.551,1.243-3.656,2.993h1.393c0.087-1.348.731-1.785,2.263-1.785s2.019,0.473,2.019,1.418c0,0.8-.5,1.138-1.41,1.243l-1.288.14c-2.472.263-3.325,1.383-3.325,2.8,0,1.7,1.218,2.643,3.168,2.643a3.285,3.285,0,0,0,2.924-1.453,1.291,1.291,0,0,0,1.515,1.3,5.278,5.278,0,0,0,.766-0.052V18.344h-0.505Zm-4.63.157c-1.236,0-1.793-.6-1.793-1.488,0-.875.452-1.435,2.089-1.628l1.305-.158a2.312,2.312,0,0,0,1.184-.385v1.068A2.585,2.585,0,0,1,140.582,18.5ZM36.214,31.074a3.207,3.207,0,0,0-2.785,1.383v-4.6H31.235V40.315h2.106v-1.3a3.234,3.234,0,0,0,2.872,1.505c2.472,0,4.021-1.855,4.021-4.726S38.685,31.074,36.214,31.074ZM35.691,38.7c-1.427,0-2.315-1-2.315-2.905s0.888-2.905,2.315-2.905,2.315,0.928,2.315,2.835S37.119,38.7,35.691,38.7Zm13.826,1.61a3.434,3.434,0,0,1-.366-1.715V33.787c0-1.628-1.062-2.713-3.742-2.713-2.8,0-3.917,1.173-4.038,3.08H43.53c0.087-1.1.609-1.435,1.862-1.435,1.271,0,1.636.42,1.636,1.12,0,0.665-.435.928-1.271,1.033l-1.358.123c-2.541.245-3.447,1.313-3.447,2.818,0,1.75,1.323,2.713,3.238,2.713a3.33,3.33,0,0,0,2.889-1.313,2.954,2.954,0,0,0,.244,1.1h2.193Zm-4.8-1.365A1.256,1.256,0,0,1,43.2,37.725c0-.718.4-1.155,1.619-1.3L46,36.29a1.74,1.74,0,0,0,1.027-.367v0.823A2.113,2.113,0,0,1,44.713,38.95Zm12.442-7.666v1.243a3.189,3.189,0,0,0-2.837-1.453c-2.454,0-4.038,1.838-4.038,4.6,0,2.748,1.619,4.6,4.056,4.6a3.179,3.179,0,0,0,2.75-1.348V40.07a1.973,1.973,0,0,1-2.211,2.188c-1.2,0-1.9-.49-2-1.453H50.715c0.139,1.873,1.532,3.15,4.125,3.15,2.924,0,4.439-1.558,4.439-3.938V31.284H57.156ZM54.823,38.46c-1.41,0-2.3-1.015-2.3-2.765s0.888-2.8,2.3-2.8c1.427,0,2.315.98,2.315,2.783C57.138,37.462,56.251,38.46,54.823,38.46Zm10.27,2.065A4.372,4.372,0,0,0,69.654,35.8a4.572,4.572,0,1,0-9.139,0A4.385,4.385,0,0,0,65.093,40.525Zm0-1.82c-1.427,0-2.332-1-2.332-2.905s0.905-2.905,2.332-2.905c1.41,0,2.333,1,2.333,2.905S66.5,38.7,65.093,38.7Zm10.723-7.631a3.306,3.306,0,0,0-2.8,1.505v-1.3H70.89v9.031h2.193V35.257a2.028,2.028,0,0,1,2-2.275A1.5,1.5,0,0,1,76.773,34.7v5.618h2.193V34.329A2.934,2.934,0,0,0,75.816,31.074Zm11.231,0.21v1.243a3.189,3.189,0,0,0-2.837-1.453c-2.454,0-4.038,1.838-4.038,4.6,0,2.748,1.619,4.6,4.056,4.6a3.179,3.179,0,0,0,2.75-1.348V40.07a1.973,1.973,0,0,1-2.211,2.188c-1.2,0-1.9-.49-2-1.453H80.606c0.139,1.873,1.532,3.15,4.126,3.15,2.924,0,4.439-1.558,4.439-3.938V31.284H87.047ZM84.714,38.46c-1.41,0-2.3-1.015-2.3-2.765s0.888-2.8,2.3-2.8c1.427,0,2.315.98,2.315,2.783C87.03,37.462,86.142,38.46,84.714,38.46ZM100.676,40.6c3.708,0,6.18-2.59,6.18-6.511s-2.472-6.511-6.18-6.511c-3.725,0-6.2,2.59-6.2,6.511S96.951,40.6,100.676,40.6Zm0-2.083c-2.263,0-3.742-1.68-3.742-4.428s1.48-4.428,3.742-4.428,3.743,1.68,3.743,4.428S102.939,38.512,100.676,38.512Zm12.513-7.438a3.236,3.236,0,0,0-2.873,1.505v-1.3H108.21V43.745H110.4v-4.6a3.208,3.208,0,0,0,2.786,1.383c2.471,0,4.021-1.855,4.021-4.726S115.66,31.074,113.189,31.074ZM112.666,38.7c-1.427,0-2.315-1-2.315-2.905s0.888-2.905,2.315-2.905,2.315,0.928,2.315,2.835S114.094,38.7,112.666,38.7Zm10.267-5.741v-1.68h-1.776V28.659h-2.175v2.625h-1.393v1.68h1.393v5.111c0,1.663.905,2.31,2.8,2.31,0.348,0,.749-0.035,1.149-0.07v-1.68h-0.749c-0.731,0-1.027-.193-1.027-0.788V32.964h1.776Zm2.085-2.765a1.216,1.216,0,1,0-1.218-1.208A1.206,1.206,0,0,0,125.018,30.2Zm-1.1,10.116h2.193V31.284h-2.193v9.031Zm9.968,0H136.4l-3.6-5.618,3.394-3.413h-2.611l-3.655,3.745V27.854h-2.159V40.315h2.159V37.48l1.357-1.365Zm17.076-12.461h-10.3v2.118h3.968V40.315H147V29.972h3.968V27.854Zm9.827,0L158.6,34.294c-0.4,1.225-.818,2.555-1.166,3.885-0.365-1.33-.783-2.66-1.184-3.885L154,27.854H151.5l4.544,12.461h2.75l4.439-12.461h-2.437Zm4.591-.2A1.579,1.579,0,1,0,167,29.236,1.583,1.583,0,0,0,165.384,27.654Zm0,2.812a1.237,1.237,0,1,1,1.256-1.231A1.219,1.219,0,0,1,165.384,30.467Zm0.653-.88a0.344,0.344,0,0,0-.19-0.338,0.4,0.4,0,0,0,.228-0.376,0.492,0.492,0,0,0-.583-0.472h-0.736v1.633h0.368V29.427h0.342c0.146,0,.191.051,0.2,0.21l0.013,0.172a0.441,0.441,0,0,0,.057.223h0.387a0.38,0.38,0,0,1-.07-0.223Zm-0.913-.466v-0.4h0.336a0.2,0.2,0,1,1,.013.4h-0.349Zm0.94,11.352a1.418,1.418,0,1,0-1.462-1.435A1.412,1.412,0,0,0,166.064,40.473Z"/>
</svg>
