<svg id="txt1" xmlns="http://www.w3.org/2000/svg" width="300" height="250" viewBox="0 0 300 250">
  <defs>
    <style>
      .cls-1 {
        fill: #4c286c;
        fill-rule: evenodd;
      }
    </style>
  </defs>
  <path class="cls-1" d="M56,95.927H49.535a4.952,4.952,0,0,1-.393-2.015l-0.084-1.987c-0.084-1.9-.672-2.491-2.548-2.491H44.328v6.493H38V76h9.827c5.991,0,7.671,2.743,7.671,5.85a4.632,4.632,0,0,1-3,4.758c1.847,0.7,2.632,2.071,2.8,4.366l0.224,2.939A4.15,4.15,0,0,0,56,95.927ZM49.031,82.856c0-1.371-.757-1.987-2.184-1.987H44.328v3.974h2.519C48.275,84.844,49.031,84.228,49.031,82.856ZM67.285,95.927a4.373,4.373,0,0,1-.42-1.68c-0.784,1.344-2.351,2.155-4.647,2.155-3.052,0-5.32-1.4-5.32-4.45,0-2.519,1.54-4.086,5.515-4.478l2.633-.252c1.176-.112,1.735-0.336,1.735-1.091s-0.559-1.063-1.624-1.063c-1.12,0-1.651.336-1.735,1.427H57.6c0.14-3.526,2.3-5.346,7.643-5.346,5.208,0,7.364,1.679,7.364,4.618v7.865a5.1,5.1,0,0,0,.532,2.295H67.285Zm-0.5-5.514V89.462a1.632,1.632,0,0,1-1.26.588l-1.344.168a1.251,1.251,0,0,0-1.372,1.259c0,0.868.588,1.287,1.708,1.287A2.053,2.053,0,0,0,66.781,90.413Zm23.211-3.442v8.956H84.169v-8c0-1.147-.5-1.9-1.651-1.9a1.78,1.78,0,0,0-1.9,1.931v7.977H74.789V81.485H80.5v2.1h0.084a4.728,4.728,0,0,1,4.48-2.435C88.033,81.149,89.992,82.8,89.992,86.971Zm18.2-5.485v13.8c0,4.338-2.967,6.717-8.147,6.717-4.844,0-7.783-1.875-8.176-5.793h5.88c0.14,1.176.84,1.707,2.239,1.707,1.568,0,2.268-.672,2.268-2.155v-2.6a5.081,5.081,0,0,1-4.536,2.239c-3.752,0-6.1-2.827-6.1-7.137,0-4.282,2.352-7.109,6.1-7.109a5.084,5.084,0,0,1,4.648,2.407V81.485h5.823Zm-5.851,6.745c0-1.959-.84-3.023-2.436-3.023s-2.464,1.063-2.464,3.023c0,2.015.868,3.079,2.464,3.079S102.339,90.245,102.339,88.23Zm30.741,0.476c0,4.562-2.351,7.557-6.187,7.557a4.748,4.748,0,0,1-4.452-2.491v2.155h-5.656V76h5.824v7.361a4.778,4.778,0,0,1,4.284-2.211C130.729,81.149,133.08,84.144,133.08,88.706Zm-5.824-.028c0-2.015-.867-3.05-2.463-3.05s-2.436,1.035-2.436,3.05,0.84,3.079,2.436,3.079S127.256,90.693,127.256,88.678ZM144.5,95.927a4.4,4.4,0,0,1-.42-1.68c-0.784,1.344-2.351,2.155-4.647,2.155-3.052,0-5.32-1.4-5.32-4.45,0-2.519,1.54-4.086,5.515-4.478l2.633-.252c1.176-.112,1.735-0.336,1.735-1.091s-0.559-1.063-1.624-1.063c-1.12,0-1.651.336-1.735,1.427h-5.824c0.14-3.526,2.3-5.346,7.643-5.346,5.208,0,7.364,1.679,7.364,4.618v7.865a5.106,5.106,0,0,0,.532,2.295H144.5ZM144,90.413V89.462a1.63,1.63,0,0,1-1.259.588l-1.344.168a1.251,1.251,0,0,0-1.372,1.259c0,0.868.588,1.287,1.708,1.287A2.053,2.053,0,0,0,144,90.413Zm18.646-9.068v5.234H161.3c-2.268,0-3.472,1.12-3.472,3.807v5.542h-5.823V81.485h5.711V84.34a3.652,3.652,0,0,1,3.892-3.079A5.708,5.708,0,0,1,162.646,81.345Zm0.869,9.936h5.543c0.112,1.007.7,1.427,2.044,1.427,1.148,0,1.764-.28,1.764-0.84,0-.476-0.308-0.728-1.232-0.867l-2.828-.392c-3.3-.448-5.123-1.959-5.123-4.618,0-3.219,2.575-4.842,7.167-4.842,5.376,0,7.028,2.3,7.2,4.926H172.81c-0.084-.98-0.616-1.371-1.96-1.371-1.147,0-1.652.252-1.652,0.784,0,0.448.308,0.728,1.232,0.867l2.828,0.392c3.78,0.532,5.235,2.127,5.235,4.562,0,3.3-2.8,5.094-7.587,5.094S163.766,94.612,163.515,91.281Zm31.778-1.12H184.765c0.084,1.315.952,2.211,2.772,2.211a2.421,2.421,0,0,0,2.072-.783h5.432c-0.868,3.023-3.78,4.674-7.616,4.674-5.04,0-8.12-2.827-8.12-7.5,0-4.562,3.08-7.613,8.093-7.613,4.731,0,8.007,2.715,8.007,7.389A13.81,13.81,0,0,1,195.293,90.161Zm-10.444-3.023h4.956a2.18,2.18,0,0,0-2.491-2.127A2.211,2.211,0,0,0,184.849,87.139ZM204,94.247c0,4.03-1.708,6.942-6.271,7.221l-0.5.028V98.53l0.588-.028c1.483-.056,2.155-0.784,2.351-2.3H200.08a3.255,3.255,0,0,1-3.471-3.33,3.332,3.332,0,0,1,3.416-3.443C202.712,89.434,204,91.505,204,94.247Z"/>
</svg>
