<svg id="txt1" xmlns="http://www.w3.org/2000/svg" width="300" height="250" viewBox="0 0 300 250">
  <defs>
    <style>
      .cls-1 {
        fill: #4c286c;
        fill-rule: evenodd;
      }
    </style>
  </defs>
  <path class="cls-1" d="M47.4,126.476a4.508,4.508,0,0,1-.42-1.707c-0.785,1.365-2.354,2.19-4.652,2.19-3.056,0-5.325-1.422-5.325-4.524,0-2.561,1.541-4.155,5.521-4.553l2.635-.256c1.177-.114,1.737-0.342,1.737-1.11s-0.56-1.081-1.626-1.081c-1.121,0-1.653.341-1.737,1.451H37.7c0.14-3.585,2.3-5.435,7.651-5.435,5.213,0,7.371,1.707,7.371,4.7v8a5.261,5.261,0,0,0,.533,2.334H47.4Zm-0.5-5.606V119.9a1.625,1.625,0,0,1-1.261.6l-1.345.171a1.261,1.261,0,0,0-1.373,1.28c0,0.882.588,1.309,1.71,1.309A2.073,2.073,0,0,0,46.894,120.87Zm23.094-9.077v14.683H64.27v-2.134H64.186a4.717,4.717,0,0,1-4.485,2.475c-2.971,0-4.932-1.679-4.932-5.919v-9.1H60.6v8.137c0,1.167.5,1.936,1.654,1.936a1.8,1.8,0,0,0,1.905-1.963v-8.11h5.83ZM82.8,111.65v5.322H81.45c-2.27,0-3.475,1.137-3.475,3.869v5.635h-5.83V111.793h5.717v2.9a3.669,3.669,0,0,1,3.9-3.13A5.65,5.65,0,0,1,82.8,111.65Zm23.933-5.435v20.261h-5.66v-2.192a4.74,4.74,0,0,1-4.456,2.533c-3.84,0-6.194-3.045-6.194-7.683s2.355-7.683,6.194-7.683A4.764,4.764,0,0,1,100.9,113.7v-7.484h5.828Zm-5.576,12.947c0-2.048-.841-3.13-2.439-3.13s-2.466,1.082-2.466,3.13,0.869,3.1,2.466,3.1S101.152,121.212,101.152,119.162Zm23.205,1.452H113.819c0.084,1.337.953,2.248,2.775,2.248a2.4,2.4,0,0,0,2.074-.8h5.437c-0.869,3.073-3.784,4.752-7.623,4.752-5.045,0-8.128-2.874-8.128-7.626,0-4.638,3.083-7.74,8.1-7.74,4.736,0,8.015,2.76,8.015,7.513A14.271,14.271,0,0,1,124.357,120.614ZM113.9,117.54h4.961a2.194,2.194,0,0,0-2.494-2.162A2.225,2.225,0,0,0,113.9,117.54Zm21.861,8.936a4.5,4.5,0,0,1-.42-1.707c-0.785,1.365-2.354,2.19-4.652,2.19-3.055,0-5.325-1.422-5.325-4.524,0-2.561,1.541-4.155,5.52-4.553l2.636-.256c1.177-.114,1.737-0.342,1.737-1.11s-0.56-1.081-1.626-1.081c-1.121,0-1.653.341-1.737,1.451h-5.829c0.139-3.585,2.3-5.435,7.65-5.435,5.213,0,7.371,1.707,7.371,4.7v8a5.256,5.256,0,0,0,.533,2.334h-5.858Zm-0.5-5.606V119.9a1.625,1.625,0,0,1-1.261.6l-1.345.171a1.262,1.262,0,0,0-1.374,1.28c0,0.882.589,1.309,1.71,1.309A2.073,2.073,0,0,0,135.26,120.87Zm8.015,1.11V106.215h5.83v14.57c0,1.224.448,1.309,1.233,1.309h0.784v4.382a18.768,18.768,0,0,1-2.27.141C144.872,126.617,143.275,125.252,143.275,121.98Zm8.576-.228H157.4c0.113,1.025.7,1.451,2.046,1.451,1.15,0,1.765-.284,1.765-0.853,0-.484-0.308-0.74-1.232-0.882l-2.831-.4c-3.307-.455-5.129-1.992-5.129-4.7,0-3.272,2.579-4.922,7.175-4.922,5.381,0,7.035,2.334,7.2,5.009h-5.241c-0.084-1-.617-1.395-1.962-1.395-1.149,0-1.654.256-1.654,0.8,0,0.455.309,0.74,1.234,0.882l2.83,0.4c3.784,0.539,5.241,2.162,5.241,4.637,0,3.358-2.8,5.179-7.595,5.179S152.1,125.138,151.851,121.752Zm39.1-2.618c0,4.638-2.354,7.683-6.193,7.683a4.739,4.739,0,0,1-4.457-2.533v2.192h-5.661V106.215h5.83V113.7a4.763,4.763,0,0,1,4.288-2.248C188.593,111.451,190.947,114.5,190.947,119.134Zm-5.83-.028c0-2.049-.868-3.1-2.466-3.1s-2.438,1.053-2.438,3.1,0.841,3.13,2.438,3.13S185.117,121.154,185.117,119.106Zm22.674-1.736v9.106h-5.83v-8.139c0-1.167-.5-1.935-1.653-1.935a1.8,1.8,0,0,0-1.906,1.964v8.11h-5.83V106.215h5.83v7.655a4.752,4.752,0,0,1,4.456-2.419C205.829,111.451,207.791,113.13,207.791,117.37Zm2.157-5.577h5.83v14.683h-5.83V111.793Zm0.057-3.927a2.845,2.845,0,1,1,2.858,2.9A2.886,2.886,0,0,1,210.005,107.866Zm7.931,15.451a3.549,3.549,0,0,1,3.56-3.5,3.515,3.515,0,0,1,0,7.029A3.537,3.537,0,0,1,217.936,123.317Z"/>
</svg>
