<svg id="txt1" xmlns="http://www.w3.org/2000/svg" width="300" height="250" viewBox="0 0 300 250">
  <defs>
    <style>
      .cls-1 {
        fill: #4c286c;
        fill-rule: evenodd;
      }
    </style>
  </defs>
  <path class="cls-1" d="M37,143.961h2.669a1.045,1.045,0,0,0,1.3.99c0.778,0,1.113-.193,1.113-0.592,0-.373-0.288-0.567-1.209-0.7l-1.029-.145c-1.544-.217-2.645-1.062-2.645-2.7,0-1.352.706-2.811,3.627-2.811,2.226,0,3.59.844,3.746,2.834h-2.5a0.92,0.92,0,0,0-1.149-.82c-0.742,0-1.029.217-1.029,0.555s0.287,0.507.8,0.58l1.029,0.144c2.13,0.3,3.088,1.122,3.088,2.655,0,1.845-1.328,3.04-3.89,3.04C38.315,146.99,37.082,145.759,37,143.961Zm15.994-2.7c0,1.858-1.233,3.065-3.339,3.065H48.205v2.46H45.5V138.2h4.153C51.76,138.2,52.992,139.4,52.992,141.259Zm-2.777,0a0.791,0.791,0,0,0-.921-0.82H48.205v1.64h1.089A0.791,0.791,0,0,0,50.215,141.259Zm11.218,5.525H58.669a2.148,2.148,0,0,1-.168-0.868l-0.035-.856a0.905,0.905,0,0,0-1.089-1.074H56.443v2.8H53.738V138.2h4.2c2.561,0,3.279,1.182,3.279,2.522a2,2,0,0,1-1.28,2.05,1.877,1.877,0,0,1,1.2,1.882l0.1,1.267A1.8,1.8,0,0,0,61.434,146.784Zm-2.98-5.633a0.789,0.789,0,0,0-.934-0.857H56.443v1.713H57.52A0.79,0.79,0,0,0,58.454,141.151Zm3.667-2.956h2.7v8.589h-2.7V138.2Zm11.718,0v8.589H71.027l-1.8-3.052c-0.3-.507-0.563-0.965-0.8-1.436,0.036,1.014.048,1.991,0.048,3.089v1.4H65.844V138.2h2.813l1.759,3.052c0.263,0.459.55,1.037,0.826,1.617-0.036-1.074-.036-2.1-0.036-3.27v-1.4h2.633Zm9.412,3.583v5.006H81.5l-0.191-.916A3.118,3.118,0,0,1,78.7,146.99c-2.633,0-4.093-1.967-4.093-4.525A4.172,4.172,0,0,1,79.05,138c2.31,0,3.914,1.255,4.189,3.161H80.475a1.336,1.336,0,0,0-1.376-.845c-0.91,0-1.688.531-1.688,2.195,0,1.473.61,2.184,1.7,2.184a1.429,1.429,0,0,0,1.52-1.025H79.123v-1.894h4.129Zm3.322,2.183h2.669a1.045,1.045,0,0,0,1.3.99c0.778,0,1.113-.193,1.113-0.592,0-.373-0.287-0.567-1.209-0.7l-1.029-.145c-1.544-.217-2.645-1.062-2.645-2.7,0-1.352.706-2.811,3.627-2.811,2.226,0,3.59.844,3.746,2.834h-2.5a0.92,0.92,0,0,0-1.149-.82c-0.742,0-1.029.217-1.029,0.555s0.287,0.507.8,0.58l1.029,0.144c2.13,0.3,3.088,1.122,3.088,2.655,0,1.845-1.328,3.04-3.89,3.04C87.89,146.99,86.657,145.759,86.573,143.961Zm13.84,1.7H97.349l-0.335,1.121h-2.7l2.884-8.589h3.3l3.051,8.589h-2.8Zm-0.6-1.991-0.587-1.979c-0.12-.422-0.251-0.857-0.359-1.279l-0.359,1.279-0.586,1.979h1.891Zm10.477,0.772v2.34h-6.367V138.2h2.7v6.249h3.662Zm3.427-3.909v0.845h3.961v2.256h-3.961v0.808H118v2.34h-6.99V138.2H118v2.34h-4.285Z"/>
</svg>
