<svg id="txt1" xmlns="http://www.w3.org/2000/svg" width="300" height="250" viewBox="0 0 300 250">
  <defs>
    <style>
      .cls-1 {
        fill: #4c286c;
        fill-rule: evenodd;
      }
    </style>
  </defs>
  <path class="cls-1" d="M37,157.49A4.263,4.263,0,0,1,41.546,153a4.494,4.494,0,1,1,0,8.988A4.26,4.26,0,0,1,37,157.49Zm6.268,0c0-1.533-.711-2.172-1.724-2.172s-1.724.639-1.724,2.172,0.711,2.183,1.724,2.183S43.269,159.034,43.269,157.49Zm11.65-4.3v8.589H52.087l-1.808-3.052c-0.3-.506-0.567-0.965-0.808-1.436,0.036,1.014.048,1.991,0.048,3.089v1.4H46.867V153.2H49.7l1.772,3.052c0.265,0.459.555,1.037,0.832,1.617-0.036-1.074-.036-2.1-0.036-3.27v-1.4H54.92Zm11.856,0v8.589H63.943l-1.808-3.052c-0.3-.506-0.567-0.965-0.808-1.436,0.036,1.014.048,1.991,0.048,3.089v1.4H58.723V153.2h2.833l1.772,3.052c0.266,0.459.555,1.037,0.832,1.617-0.036-1.074-.036-2.1-0.036-3.27v-1.4h2.652Zm0.777,4.3a4.545,4.545,0,1,1,4.545,4.5A4.263,4.263,0,0,1,67.553,157.49Zm6.268,0c0-1.533-.711-2.172-1.724-2.172s-1.724.639-1.724,2.172,0.712,2.183,1.724,2.183S73.821,159.034,73.821,157.49Zm15.17-4.3-2.266,8.589H83.807l-0.567-2.617c-0.168-.748-0.313-1.5-0.446-2.232-0.145.736-.29,1.484-0.458,2.232l-0.566,2.617H78.853L76.587,153.2h2.785l0.482,2.545c0.193,1.014.374,2.04,0.555,3.029,0.169-.989.374-2.015,0.567-3.029l0.506-2.545H84.1L84.6,155.74c0.193,1.014.4,2.04,0.566,3.029,0.181-.989.362-2.015,0.555-3.029l0.483-2.545h2.785Z"/>
</svg>
