<svg xmlns="http://www.w3.org/2000/svg" width="300" height="250" viewBox="0 0 300 250">
  <defs>
    <style>
      .cls-1 {
        fill: #4c286c;
        fill-rule: evenodd;
      }
    </style>
  </defs>
  <path id="txt2" class="cls-1" d="M37.589,82.081A3.881,3.881,0,0,1,41.727,78a4.09,4.09,0,1,1,0,8.179A3.878,3.878,0,0,1,37.589,82.081Zm5.708,0c0-1.395-.648-1.976-1.57-1.976s-1.57.582-1.57,1.976,0.648,1.987,1.57,1.987S43.3,83.487,43.3,82.081Zm10.6-3.908V85.99H51.32l-1.647-2.777c-0.275-.461-0.516-0.879-0.736-1.307,0.033,0.922.044,1.811,0.044,2.81V85.99H46.567V78.173h2.579l1.614,2.777c0.242,0.417.5,0.944,0.757,1.471-0.032-.977-0.032-1.91-0.032-2.975V78.173H53.9Zm10.79,0V85.99H62.11l-1.647-2.777c-0.275-.461-0.516-0.879-0.736-1.307,0.033,0.922.044,1.811,0.044,2.81V85.99H57.357V78.173h2.579l1.614,2.777c0.242,0.417.5,0.944,0.757,1.471-0.032-.977-0.032-1.91-0.032-2.975V78.173h2.415Zm0.7,3.908a4.139,4.139,0,1,1,4.138,4.095A3.881,3.881,0,0,1,65.391,82.081Zm5.708,0c0-1.395-.648-1.976-1.57-1.976s-1.57.582-1.57,1.976,0.648,1.987,1.57,1.987S71.1,83.487,71.1,82.081Zm13.809-3.908L82.844,85.99H80.188l-0.516-2.382c-0.153-.681-0.286-1.361-0.406-2.031-0.131.67-.263,1.351-0.417,2.031L78.332,85.99H75.676l-2.064-7.816h2.535l0.44,2.316c0.175,0.922.34,1.855,0.5,2.755,0.154-.9.34-1.834,0.515-2.755l0.461-2.316h2.382l0.461,2.316c0.176,0.922.362,1.855,0.516,2.755,0.165-.9.329-1.834,0.5-2.755l0.439-2.316h2.535ZM37,104.091h3.782c0.086,1.119.781,1.391,1.85,1.391,1.1,0,1.578-.272,1.578-0.831,0-.526-0.407-0.8-1.714-0.984l-1.458-.2c-2.189-.3-3.749-1.492-3.749-3.8,0-1.9,1-3.952,5.139-3.952,3.154,0,5.089,1.187,5.309,3.986H44.188c-0.085-.729-0.474-1.153-1.628-1.153-1.051,0-1.459.306-1.459,0.781s0.407,0.712,1.136.814l1.459,0.2c3.02,0.425,4.376,1.578,4.376,3.732,0,2.595-1.883,4.275-5.512,4.275C38.863,108.349,37.116,106.618,37,104.091Zm18.166,3.969a2.635,2.635,0,0,1-.254-1.018,3.035,3.035,0,0,1-2.816,1.307c-1.848,0-3.222-.849-3.222-2.7,0-1.527.932-2.477,3.341-2.714l1.594-.153c0.712-.068,1.051-0.2,1.051-0.662s-0.339-.644-0.983-0.644a0.85,0.85,0,0,0-1.051.865H49.294c0.085-2.137,1.391-3.24,4.63-3.24,3.155,0,4.461,1.018,4.461,2.8v4.766a3.087,3.087,0,0,0,.323,1.391H55.163Zm-0.306-3.341v-0.577a0.988,0.988,0,0,1-.763.356l-0.814.1a0.757,0.757,0,0,0-.831.763c0,0.526.356,0.78,1.035,0.78A1.244,1.244,0,0,0,54.857,104.719ZM69.31,99.308l-3.274,8.752H61.915l-3.274-8.752h3.765l0.73,2.51c0.339,1.187.61,2.154,0.916,3.376,0.305-1.222.577-2.189,0.916-3.376l0.712-2.51h3.63ZM79,104.566H72.618a1.432,1.432,0,0,0,1.679,1.34,1.464,1.464,0,0,0,1.255-.475h3.291c-0.525,1.832-2.29,2.833-4.613,2.833-3.053,0-4.919-1.713-4.919-4.546,0-2.765,1.866-4.614,4.9-4.614,2.867,0,4.852,1.646,4.852,4.478A8.428,8.428,0,0,1,79,104.566Zm-6.327-1.832h3a1.321,1.321,0,0,0-1.509-1.289A1.339,1.339,0,0,0,72.669,102.734Zm14.011,0.628-1.56,1.458v3.24H83.763V95.983H85.12v7.243l4.054-3.918h1.8l-3.325,3.155,3.563,5.6H89.632Zm12.943,3.595v1.1a5.159,5.159,0,0,1-.746.051,1.256,1.256,0,0,1-1.476-1.255,3.207,3.207,0,0,1-2.849,1.408c-1.9,0-3.087-.916-3.087-2.562,0-1.374.831-2.459,3.24-2.714l1.255-.135c0.882-.1,1.374-0.424,1.374-1.2,0-.917-0.476-1.375-1.967-1.375s-2.12.424-2.205,1.731H91.8c0.1-1.7,1-2.9,3.563-2.9,2.425,0,3.29,1.069,3.29,2.545v4.885a0.4,0.4,0,0,0,.476.423h0.492Zm-2.29-2.357v-1.035a2.277,2.277,0,0,1-1.154.374l-1.272.152c-1.6.187-2.036,0.729-2.036,1.577,0,0.866.543,1.442,1.747,1.442A2.514,2.514,0,0,0,97.334,104.6Zm8.124-5.411V100.5h-0.339c-1.747,0-2.866.882-2.866,2.578v4.987H100.9V99.308h1.289v1.543A3.059,3.059,0,0,1,105,99.172,4.581,4.581,0,0,1,105.458,99.189Zm8.481,4.97H107.29c0.136,1.967,1.171,2.866,2.7,2.866a2.248,2.248,0,0,0,2.323-1.628h1.408a3.652,3.652,0,0,1-3.766,2.867c-2.392,0-4.071-1.747-4.071-4.58,0-2.748,1.612-4.58,4.037-4.58,2.612,0,4.02,2.069,4.02,4.58v0.475Zm-6.615-1.221h5.156a2.567,2.567,0,0,0-2.561-2.6C108.545,100.342,107.545,101.208,107.324,102.938Zm8.076-5.784a0.916,0.916,0,1,1,.916.916A0.922,0.922,0,0,1,115.4,97.154Zm0.236,2.154h1.358v8.752h-1.358V99.308Zm10.6,2.832v5.92H124.88v-5.784a1.755,1.755,0,0,0-2-1.951,2.491,2.491,0,0,0-2.409,2.782v4.953h-1.357V99.308H120.4v1.306a3.225,3.225,0,0,1,2.748-1.51A2.79,2.79,0,0,1,126.237,102.14Zm9.992-2.951V100.5H135.89c-1.747,0-2.867.882-2.867,2.578v4.987h-1.357V99.308h1.289v1.543a3.057,3.057,0,0,1,2.816-1.679C135.906,99.172,136.042,99.172,136.229,99.189Zm8.413,7.768v1.1a5.154,5.154,0,0,1-.746.051,1.256,1.256,0,0,1-1.477-1.255,3.206,3.206,0,0,1-2.849,1.408c-1.9,0-3.087-.916-3.087-2.562,0-1.374.831-2.459,3.24-2.714l1.255-.135c0.882-.1,1.374-0.424,1.374-1.2,0-.917-0.475-1.375-1.967-1.375s-2.121.424-2.2,1.731h-1.358c0.1-1.7,1-2.9,3.563-2.9,2.425,0,3.289,1.069,3.289,2.545v4.885a0.4,0.4,0,0,0,.476.423h0.492Zm-2.29-2.357v-1.035a2.277,2.277,0,0,1-1.154.374l-1.271.152c-1.595.187-2.036,0.729-2.036,1.577,0,0.866.543,1.442,1.747,1.442A2.514,2.514,0,0,0,142.352,104.6Zm10.687-2.46v5.92h-1.357v-5.784a1.755,1.755,0,0,0-2-1.951,2.491,2.491,0,0,0-2.409,2.782v4.953h-1.357V99.308H147.2v1.306a3.225,3.225,0,0,1,2.748-1.51A2.79,2.79,0,0,1,153.039,102.14ZM163.1,99.308v8.413c0,2.273-1.306,3.867-4.07,3.867-2.24,0-3.545-1.12-3.731-2.816h1.356c0.169,1.1,1,1.663,2.375,1.663a2.421,2.421,0,0,0,2.713-2.714v-0.848a3.536,3.536,0,0,1-2.934,1.391c-2.459,0-4.071-1.782-4.071-4.58s1.612-4.58,4.071-4.58a3.534,3.534,0,0,1,3,1.476V99.308H163.1Zm-1.306,4.376c0-2.12-1.12-3.359-2.815-3.359s-2.816,1.306-2.816,3.359,1.119,3.358,2.816,3.358S161.791,105.8,161.791,103.684Zm11.06,0.475H166.2c0.136,1.967,1.171,2.866,2.7,2.866a2.248,2.248,0,0,0,2.324-1.628h1.408a3.652,3.652,0,0,1-3.766,2.867c-2.392,0-4.071-1.747-4.071-4.58,0-2.748,1.612-4.58,4.037-4.58,2.612,0,4.02,2.069,4.02,4.58v0.475Zm-6.615-1.221h5.156a2.567,2.567,0,0,0-2.561-2.6C167.457,100.342,166.457,101.208,166.236,102.938Zm15.944,1.221h-6.649c0.136,1.967,1.171,2.866,2.7,2.866a2.248,2.248,0,0,0,2.323-1.628h1.408a3.651,3.651,0,0,1-3.765,2.867c-2.393,0-4.072-1.747-4.072-4.58,0-2.748,1.612-4.58,4.037-4.58,2.612,0,4.02,2.069,4.02,4.58v0.475Zm-6.614-1.221h5.155a2.567,2.567,0,0,0-2.561-2.6C176.787,100.342,175.786,101.208,175.566,102.938Zm15.435-.8v5.92h-1.357v-5.784a1.755,1.755,0,0,0-2-1.951,2.491,2.491,0,0,0-2.409,2.782v4.953h-1.358V99.308h1.29v1.306a3.223,3.223,0,0,1,2.747-1.51A2.79,2.79,0,0,1,191,102.14ZM45.748,114.9v12.076H44.46v-1.356a3.442,3.442,0,0,1-3,1.56c-2.459,0-4.071-1.781-4.071-4.58s1.612-4.579,4.071-4.579a3.437,3.437,0,0,1,2.934,1.458V114.9h1.356Zm-1.306,7.7c0-2.12-1.12-3.358-2.815-3.358s-2.816,1.306-2.816,3.426,1.12,3.291,2.816,3.291S44.443,124.716,44.443,122.6Zm11.06,0.475H48.854c0.135,1.968,1.17,2.866,2.7,2.866a2.247,2.247,0,0,0,2.323-1.628h1.408a3.65,3.65,0,0,1-3.765,2.867c-2.392,0-4.071-1.747-4.071-4.58,0-2.748,1.612-4.579,4.037-4.579,2.611,0,4.02,2.069,4.02,4.579v0.475Zm-6.614-1.222h5.156a2.567,2.567,0,0,0-2.561-2.595C50.109,119.254,49.108,120.12,48.888,121.849Zm15.876,4.021v1.1a5.161,5.161,0,0,1-.746.051,1.256,1.256,0,0,1-1.476-1.255,3.207,3.207,0,0,1-2.849,1.408c-1.9,0-3.087-.916-3.087-2.561,0-1.374.831-2.459,3.24-2.714l1.255-.136c0.882-.1,1.374-0.424,1.374-1.2,0-.916-0.476-1.373-1.967-1.373s-2.12.424-2.205,1.73H56.945c0.1-1.7,1-2.9,3.563-2.9,2.425,0,3.29,1.068,3.29,2.543v4.885a0.4,0.4,0,0,0,.475.425h0.492Zm-2.29-2.358v-1.035a2.249,2.249,0,0,1-1.154.373L60.049,123c-1.6.186-2.036,0.729-2.036,1.578s0.543,1.441,1.747,1.441A2.513,2.513,0,0,0,62.475,123.512Zm3.478,1.7V114.9H67.31V125.09a0.679,0.679,0,0,0,.831.746h0.644v1.136a8.6,8.6,0,0,1-.864.051C66.7,127.023,65.952,126.548,65.952,125.209Zm3.478-1.019H70.8c0.153,1.324.8,1.816,2.341,1.816,1.476,0,2.1-.492,2.1-1.358,0-.779-0.475-1.136-2-1.424l-0.815-.153c-1.9-.356-2.73-1.222-2.73-2.578,0-1.493,1.187-2.476,3.188-2.476,2.341,0,3.528,1.034,3.562,2.9H75.1c-0.068-1.358-.865-1.73-2.205-1.73-1.17,0-1.832.475-1.832,1.289,0,0.831.645,1.137,1.765,1.357l0.779,0.153c2.154,0.424,3.02,1.153,3.02,2.577,0,1.663-1.323,2.613-3.478,2.613C70.923,127.176,69.566,126.243,69.43,124.19Zm14.859-1.917-1.56,1.459v3.24H81.372V114.9h1.357v7.242l4.054-3.918h1.8l-3.325,3.155,3.563,5.6H87.241Zm12.755,0.8H90.4c0.135,1.968,1.17,2.866,2.7,2.866a2.247,2.247,0,0,0,2.323-1.628h1.408a3.65,3.65,0,0,1-3.765,2.867c-2.392,0-4.071-1.747-4.071-4.58,0-2.748,1.612-4.579,4.037-4.579,2.612,0,4.02,2.069,4.02,4.579v0.475Zm-6.614-1.222h5.156a2.567,2.567,0,0,0-2.561-2.595C91.651,119.254,90.65,120.12,90.43,121.849Zm10.991,2.341H102.8c0.153,1.324.8,1.816,2.341,1.816,1.476,0,2.1-.492,2.1-1.358,0-.779-0.476-1.136-2-1.424l-0.814-.153c-1.9-.356-2.731-1.222-2.731-2.578,0-1.493,1.187-2.476,3.189-2.476,2.34,0,3.528,1.034,3.562,2.9h-1.357c-0.069-1.358-.866-1.73-2.2-1.73-1.171,0-1.832.475-1.832,1.289,0,0.831.645,1.137,1.764,1.357l0.78,0.153c2.154,0.424,3.02,1.153,3.02,2.577,0,1.663-1.324,2.613-3.478,2.613C102.914,127.176,101.558,126.243,101.421,124.19Zm16.538,1.68v1.1a5.154,5.154,0,0,1-.746.051,1.255,1.255,0,0,1-1.476-1.255,3.208,3.208,0,0,1-2.85,1.408c-1.9,0-3.087-.916-3.087-2.561,0-1.374.832-2.459,3.24-2.714l1.256-.136c0.881-.1,1.373-0.424,1.373-1.2,0-.916-0.475-1.373-1.967-1.373s-2.12.424-2.2,1.73H110.14c0.1-1.7,1-2.9,3.562-2.9,2.425,0,3.29,1.068,3.29,2.543v4.885a0.4,0.4,0,0,0,.475.425h0.492Zm-2.29-2.358v-1.035a2.245,2.245,0,0,1-1.153.373l-1.272.153c-1.595.186-2.036,0.729-2.036,1.578s0.543,1.441,1.748,1.441A2.513,2.513,0,0,0,115.669,123.512Zm11.3,2.358v1.1a5.154,5.154,0,0,1-.746.051,1.256,1.256,0,0,1-1.477-1.255,3.206,3.206,0,0,1-2.849,1.408c-1.9,0-3.087-.916-3.087-2.561,0-1.374.831-2.459,3.24-2.714l1.255-.136c0.882-.1,1.374-0.424,1.374-1.2,0-.916-0.475-1.373-1.967-1.373s-2.121.424-2.2,1.73h-1.358c0.1-1.7,1-2.9,3.563-2.9,2.425,0,3.289,1.068,3.289,2.543v4.885a0.4,0.4,0,0,0,.476.425h0.492Zm-2.29-2.358v-1.035a2.249,2.249,0,0,1-1.154.373l-1.271.153c-1.595.186-2.036,0.729-2.036,1.578s0.543,1.441,1.747,1.441A2.513,2.513,0,0,0,124.677,123.512Zm5.258-4.105v5.683c0,0.458.22,0.746,1,.746h0.8v1.136q-0.559.051-.967,0.051c-1.356,0-2.187-.475-2.187-1.814v-5.8h-1.443V118.22h1.443v-2.477h1.356v2.477h1.8v1.187h-1.8Zm10.449,1.645v5.92h-1.358v-5.784a1.754,1.754,0,0,0-2-1.95,2.491,2.491,0,0,0-2.409,2.781v4.953H133.26V114.9h1.357v4.528a3.225,3.225,0,0,1,2.68-1.407A2.79,2.79,0,0,1,140.384,121.052Zm5.005,1.544c0-2.8,1.781-4.579,4.24-4.579s4.24,1.78,4.24,4.579-1.78,4.58-4.24,4.58S145.389,125.4,145.389,122.6Zm7.055,0c0-2.12-1.119-3.358-2.815-3.358s-2.816,1.238-2.816,3.358,1.12,3.359,2.816,3.359S152.444,124.716,152.444,122.6Zm10.246-1.544v5.92h-1.357v-5.784a1.754,1.754,0,0,0-2-1.95,2.491,2.491,0,0,0-2.409,2.781v4.953h-1.358V118.22h1.29v1.306a3.223,3.223,0,0,1,2.747-1.509A2.79,2.79,0,0,1,162.69,121.052ZM46.173,141.509c0,2.8-1.612,4.58-4.071,4.58a3.438,3.438,0,0,1-2.934-1.459v4.58H37.811V137.132H39.1v1.358a3.44,3.44,0,0,1,3-1.56C44.562,136.93,46.173,138.71,46.173,141.509Zm-1.425-.068c0-2.12-1.12-3.29-2.816-3.29s-2.815,1.237-2.815,3.358,1.119,3.359,2.815,3.359S44.749,143.561,44.749,141.441Zm10.245-1.476v5.92H53.637V140.1a1.755,1.755,0,0,0-2-1.95,2.49,2.49,0,0,0-2.409,2.781v4.953H47.87V133.808h1.357v4.529a3.224,3.224,0,0,1,2.68-1.407A2.79,2.79,0,0,1,54.994,139.965Zm1.7,1.544c0-2.8,1.781-4.579,4.241-4.579s4.24,1.78,4.24,4.579-1.78,4.58-4.24,4.58S56.69,144.307,56.69,141.509Zm7.056,0c0-2.121-1.12-3.358-2.815-3.358s-2.816,1.237-2.816,3.358,1.12,3.359,2.816,3.359S63.746,143.629,63.746,141.509Zm10.246-1.544v5.92H72.635V140.1a1.754,1.754,0,0,0-2-1.95,2.49,2.49,0,0,0-2.409,2.781v4.953H66.868v-8.753h1.289v1.307a3.225,3.225,0,0,1,2.748-1.509A2.79,2.79,0,0,1,73.992,139.965Zm9.753,2.019H77.1c0.135,1.968,1.17,2.866,2.7,2.866a2.247,2.247,0,0,0,2.323-1.628h1.408a3.65,3.65,0,0,1-3.765,2.867c-2.392,0-4.071-1.747-4.071-4.58,0-2.748,1.612-4.579,4.037-4.579,2.611,0,4.019,2.068,4.019,4.579v0.475Zm-6.614-1.222h5.156a2.567,2.567,0,0,0-2.561-2.595C78.352,138.167,77.351,139.033,77.131,140.762Zm7.6,2.341H86.1c0.153,1.323.8,1.815,2.341,1.815,1.476,0,2.1-.492,2.1-1.357,0-.78-0.475-1.136-2-1.425l-0.815-.152c-1.9-.356-2.73-1.222-2.73-2.578,0-1.493,1.187-2.476,3.188-2.476,2.341,0,3.528,1.034,3.563,2.9H90.4c-0.068-1.358-.865-1.73-2.205-1.73-1.17,0-1.832.475-1.832,1.288,0,0.831.645,1.137,1.765,1.358L88.9,140.9c2.154,0.424,3.02,1.152,3.02,2.577,0,1.663-1.323,2.613-3.478,2.613C86.223,146.089,84.867,145.156,84.73,143.1Zm10.364,2.528a2.3,2.3,0,0,1-1.9,2.578l-0.17.033v-0.9l0.119-.034a1.255,1.255,0,0,0,.932-1.324h-0.1a0.883,0.883,0,0,1-.95-0.881,0.911,0.911,0,0,1,.95-0.917A1.191,1.191,0,0,1,95.094,145.631Zm13.028-11.823v12.077h-1.29v-1.356a3.443,3.443,0,0,1-3,1.56c-2.459,0-4.071-1.782-4.071-4.58s1.612-4.579,4.071-4.579a3.439,3.439,0,0,1,2.934,1.457v-4.579h1.358Zm-1.307,7.7c0-2.121-1.12-3.358-2.815-3.358s-2.816,1.3-2.816,3.426,1.119,3.291,2.816,3.291S106.815,143.629,106.815,141.509Zm11.077,3.274v1.1a5.154,5.154,0,0,1-.746.051,1.256,1.256,0,0,1-1.477-1.255,3.206,3.206,0,0,1-2.849,1.408c-1.9,0-3.087-.916-3.087-2.561,0-1.374.831-2.46,3.24-2.714l1.255-.137c0.882-.1,1.374-0.423,1.374-1.2,0-.916-0.475-1.373-1.967-1.373s-2.121.424-2.2,1.73h-1.358c0.1-1.7,1-2.9,3.563-2.9,2.425,0,3.289,1.068,3.289,2.543v4.885a0.4,0.4,0,0,0,.476.425h0.492Zm-2.29-2.358V141.39a2.268,2.268,0,0,1-1.154.373l-1.271.153c-1.6.186-2.036,0.729-2.036,1.578,0,0.864.543,1.441,1.747,1.441A2.514,2.514,0,0,0,115.6,142.425Zm5.258-4.105V144c0,0.458.22,0.747,1,.747h0.8v1.136q-0.559.051-.967,0.051c-1.356,0-2.187-.475-2.187-1.815v-5.8h-1.442v-1.188H119.5v-2.476h1.356v2.476h1.8v1.188h-1.8Zm10.89,6.463v1.1a5.154,5.154,0,0,1-.746.051,1.255,1.255,0,0,1-1.476-1.255,3.206,3.206,0,0,1-2.849,1.408c-1.9,0-3.087-.916-3.087-2.561,0-1.374.831-2.46,3.239-2.714l1.256-.137c0.881-.1,1.374-0.423,1.374-1.2,0-.916-0.476-1.373-1.968-1.373s-2.12.424-2.2,1.73h-1.357c0.1-1.7,1-2.9,3.562-2.9,2.426,0,3.29,1.068,3.29,2.543v4.885a0.4,0.4,0,0,0,.475.425h0.492Zm-2.289-2.358V141.39a2.272,2.272,0,0,1-1.154.373l-1.272.153c-1.595.186-2.035,0.729-2.035,1.578,0,0.864.542,1.441,1.747,1.441A2.514,2.514,0,0,0,129.461,142.425Zm14.519,2.358v1.1a5.154,5.154,0,0,1-.746.051,1.255,1.255,0,0,1-1.476-1.255,3.206,3.206,0,0,1-2.849,1.408c-1.9,0-3.087-.916-3.087-2.561,0-1.374.831-2.46,3.24-2.714l1.255-.137c0.881-.1,1.374-0.423,1.374-1.2,0-.916-0.476-1.373-1.968-1.373s-2.12.424-2.205,1.73h-1.357c0.1-1.7,1-2.9,3.562-2.9,2.426,0,3.29,1.068,3.29,2.543v4.885a0.4,0.4,0,0,0,.475.425h0.492Zm-2.289-2.358V141.39a2.268,2.268,0,0,1-1.154.373l-1.272.153c-1.595.186-2.035,0.729-2.035,1.578,0,0.864.542,1.441,1.747,1.441A2.514,2.514,0,0,0,141.691,142.425Zm10.686-2.46v5.92H151.02V140.1a1.755,1.755,0,0,0-2-1.95,2.491,2.491,0,0,0-2.409,2.781v4.953h-1.357v-8.753h1.289v1.307a3.225,3.225,0,0,1,2.748-1.509A2.79,2.79,0,0,1,152.377,139.965Zm10.059-6.157v12.077h-1.289v-1.356a3.445,3.445,0,0,1-3,1.56c-2.46,0-4.071-1.782-4.071-4.58s1.611-4.579,4.071-4.579a3.44,3.44,0,0,1,2.934,1.457v-4.579h1.357Zm-1.307,7.7c0-2.121-1.119-3.358-2.815-3.358s-2.816,1.3-2.816,3.426,1.12,3.291,2.816,3.291S161.129,143.629,161.129,141.509ZM39.846,157.233v5.682c0,0.458.22,0.747,1,.747h0.8V164.8c-0.373.034-.695,0.05-0.967,0.05-1.356,0-2.188-.474-2.188-1.814v-5.8H37.048v-1.188H38.49v-2.476h1.357v2.476h1.8v1.188h-1.8ZM50.634,160.9H43.986c0.135,1.968,1.17,2.866,2.7,2.866a2.247,2.247,0,0,0,2.323-1.628h1.408A3.651,3.651,0,0,1,46.649,165c-2.392,0-4.071-1.748-4.071-4.581,0-2.748,1.612-4.579,4.037-4.579,2.611,0,4.02,2.069,4.02,4.579V160.9Zm-6.614-1.222h5.156a2.567,2.567,0,0,0-2.561-2.595C45.241,157.08,44.24,157.945,44.02,159.675Zm7.887,0.746c0-2.815,1.628-4.579,4.054-4.579a3.546,3.546,0,0,1,3.765,3.171H58.319a2.279,2.279,0,0,0-2.358-1.95c-1.492,0-2.629,1.068-2.629,3.358s1.17,3.359,2.629,3.359a2.3,2.3,0,0,0,2.375-1.984h1.391A3.61,3.61,0,0,1,55.96,165C53.569,165,51.907,163.238,51.907,160.421Zm16.471-1.543v5.92H67.02v-5.785a1.755,1.755,0,0,0-2-1.95,2.491,2.491,0,0,0-2.409,2.782V164.8H61.254V152.721h1.357v4.529a3.225,3.225,0,0,1,2.68-1.408A2.79,2.79,0,0,1,68.378,158.878Zm1.866,5.038a0.993,0.993,0,0,1,1.985,0A0.992,0.992,0,1,1,70.244,163.916Z"/>
</svg>
