<svg id="SC" xmlns="http://www.w3.org/2000/svg" width="320" height="50" viewBox="0 0 320 50">
  <defs>
    <style>
      .cls-1 {
        fill: #4c286c;
        fill-rule: evenodd;
      }
    </style>
  </defs>
  <g id="txt1">
    <path class="cls-1" d="M85.407,29.656q-0.132,2.251-.219,2.67a4.63,4.63,0,0,1-.175.651,2.839,2.839,0,0,1-.175.386,3.014,3.014,0,0,1-.831.993,1.818,1.818,0,0,1-1.093.331H80.423a1.718,1.718,0,0,1-1.126-.43,2.318,2.318,0,0,1-.721-1.026,3.361,3.361,0,0,1-.208-1.1V22.595H77.56A20.6,20.6,0,0,1,76.2,30.164,11.151,11.151,0,0,1,72.379,35a6.09,6.09,0,0,0-1.661-1.986v1.876H67.679L67.7,26.081c-0.175.251-.28,0.4-0.317,0.453a3.8,3.8,0,0,1-.557.43,11.429,11.429,0,0,0-.82-1.512,13.33,13.33,0,0,0-1.016-1.445,16,16,0,0,0,2.754-4.027A24.617,24.617,0,0,0,69.712,15l2.842,0.927a37.181,37.181,0,0,1-1.836,5.428V32.216A13.351,13.351,0,0,0,72.2,30.793a7.77,7.77,0,0,0,1.027-1.445,10.3,10.3,0,0,0,.733-1.821,24.163,24.163,0,0,0,.623-4.138V22.595H71.635V19.615H74.63V16.327a0.343,0.343,0,0,0-.2-0.32,0.34,0.34,0,0,1-.208-0.242,0.785,0.785,0,0,1,.032-0.165l0.131-.11h3.236v4.127l3.322,0.022a8.486,8.486,0,0,0-.852-1.413A8.444,8.444,0,0,0,79,16.923l2.3-1.258A13.783,13.783,0,0,1,83.7,18.8q-0.131.066-.7,0.342a6.345,6.345,0,0,0-.787.431l2.449,0.044v2.979H81.275v8.562a0.491,0.491,0,0,0,.372.541,0.864,0.864,0,0,0,.656-0.055,0.51,0.51,0,0,0,.306-0.309,12.654,12.654,0,0,0,.263-2.45A14.793,14.793,0,0,0,85.407,29.656Zm6.557-.441a13.98,13.98,0,0,1-1.005,3.355,7.951,7.951,0,0,1-1.268,1.942,6.463,6.463,0,0,0-1.1-.861,11.338,11.338,0,0,0-1.3-.728,7.413,7.413,0,0,0,1.159-1.589,11.365,11.365,0,0,0,.984-2.648Zm6.47-10.35V19.35h5.814V25.2l0.656-.088a12.128,12.128,0,0,1,1.7,3.4,10.994,10.994,0,0,0-2.623.618,4.4,4.4,0,0,0-.437-0.927l-4.984.088a10.685,10.685,0,0,1,.864.949,9.749,9.749,0,0,1,.755,1.037q-0.067.022-.962,0.519a12.536,12.536,0,0,0-1.311.805q-0.088-.132-0.437-0.7T96.74,29.844a6.679,6.679,0,0,0-.885-0.937l1.312-.53-8.744.221-0.481-2.56h7.563l-0.022-.485h-5.77v-6.2h5.77V18.865H87.374V16.5h8.109V16.04L95.331,15.8A0.182,0.182,0,0,1,95.3,15.61a0.19,0.19,0,0,1,.1-0.143h3.038V16.5h8.2v2.361h-8.2ZM107,32.216a4.293,4.293,0,0,0-.765.4,9.7,9.7,0,0,0-1.508,1.413,23.566,23.566,0,0,0-1.967-2.406,3.716,3.716,0,0,1-1,2.284,2.987,2.987,0,0,1-2.109.717H94.784a3.055,3.055,0,0,1-.995-0.176,1.609,1.609,0,0,1-.82-0.618,1.666,1.666,0,0,1-.306-0.971V29.524a0.435,0.435,0,0,0-.054-0.176,0.688,0.688,0,0,0-.12-0.177q-0.263-.154-0.131-0.3a0.452,0.452,0,0,1,.35-0.144h2.754v2.516a0.82,0.82,0,0,0,.142.552,0.614,0.614,0,0,0,.47.154h3.235q0.853,0,1.006-1.5a6.749,6.749,0,0,0,2.426,1.148,10.5,10.5,0,0,0-1.6-1.412l2.186-1.324a14.019,14.019,0,0,1,1.694,1.3A16.989,16.989,0,0,1,107,32.216Zm-11.52-11.1H92.533v0.552h2.951V21.116Zm0,2.14H92.533v0.53h2.951v-0.53Zm5.968-2.14H98.435v0.552h3.016V21.116Zm0,2.14H98.435v0.53h3.016v-0.53Zm0.962,2.3H98.435v0.574h4.328Z"/>
  </g>
</svg>
