<svg id="SC" xmlns="http://www.w3.org/2000/svg" width="320" height="50" viewBox="0 0 320 50">
  <defs>
    <style>
      .cls-1 {
        fill: #4c286c;
        fill-rule: evenodd;
      }
    </style>
  </defs>
  <g id="txt1">
    <path class="cls-1" d="M41.241,27.336q-0.2.246-.7,0.97a14.556,14.556,0,0,0-1.057,1.861,21.647,21.647,0,0,1-2.693-1.739v6.554H33.719V34.224H28.512V34.96H25.374v-6.22q-0.667.49-1.135,0.8a10.877,10.877,0,0,1-1.023.6l-0.289.156a16.155,16.155,0,0,0-1.936-2.809,14.109,14.109,0,0,0,4.228-2.363H21.258V22.454H27.2l0.267-.446H23.639V19.445h4.718L28.468,19h-5.9V16.324h6.387a9.618,9.618,0,0,0,.111-1.315l3.071,0.245-0.089,1.07h7.566V19H31.605l-0.111.446H38.5v2.563H30.582l-0.222.446H40.93v2.675H37.258q0.912,0.647,1.981,1.26A12.627,12.627,0,0,0,41.241,27.336ZM33.23,25.129H29l-0.534.58h5.274Zm0.489,3.1H28.512v0.535h5.207V28.228Zm0,2.965H28.512v0.535h5.207V31.193ZM55.9,34.514V33.087H48.686v1.471h-3V15.967H58.967V34.514H55.9Zm0-15.582H48.686v4.057H55.9V18.932Zm0,6.91H48.686V30.1H55.9V25.843Z"/>
  </g>
</svg>
