<svg id="SC" xmlns="http://www.w3.org/2000/svg" width="320" height="50" viewBox="0 0 320 50">
  <defs>
    <style>
      .cls-1 {
        fill: #4c286c;
        fill-rule: evenodd;
      }
    </style>
  </defs>
  <g id="txt1">
    <path class="cls-1" d="M296.6,38.549v0.405h-0.993V35.289l-0.114.132v0.584l-0.66.233V38.1a0.776,0.776,0,0,1-.288.638,2.783,2.783,0,0,1-.993.187,1.637,1.637,0,0,0-.387-1.058c0.035,0,.105,0,0.209.008s0.184,0.006.242,0a0.84,0.84,0,0,0,.155-0.02,0.126,0.126,0,0,0,.08-0.05,0.125,0.125,0,0,0,.034-0.074V36.573l-0.682.218-0.212-1.159,0.894-.2V34.34h-0.849V33.376h0.849V32.341a0.12,0.12,0,0,0-.065-0.066,0.082,0.082,0,0,1-.033-0.144,0.16,0.16,0,0,1,.129-0.039h0.917v1.284h0.721v0.272a8.471,8.471,0,0,0,.667-1.626l1.016,0.21a6.091,6.091,0,0,1-.262.587c-0.124.251-.2,0.416-0.238,0.494H297.4a6.6,6.6,0,0,0,.4-1.268l1.032,0.272c-0.021.047-.063,0.159-0.129,0.335s-0.119.314-.16,0.412a2.646,2.646,0,0,1-.114.249h1.237v1.011h-1.327v0.451h1.2v0.957h-1.2v0.451h1.2v0.965h-1.2v0.413h1.372v0.988H296.6Zm-1.767-4.209V34.59l0.258-.249h-0.258Zm0.289,0.747a1.2,1.2,0,0,0-.289-0.249v0.342Zm2.236-.755H296.6v0.451h0.758V34.333Zm0,1.4H296.6v0.451h0.758V35.733Zm0,1.416H296.6v0.413h0.758V37.149Zm8.585,1.8V38.58h-3.95v0.35h-0.956V35.943a0.089,0.089,0,0,0-.072-0.074,0.1,0.1,0,0,1-.073-0.09c0-.062.053-0.093,0.16-0.093h0.933v1.961h1.441V35.266H302.2v0.249H301.22V32.7a0.108,0.108,0,0,0-.076-0.066,0.1,0.1,0,0,1-.076-0.089,0.07,0.07,0,0,1,.042-0.062,0.186,0.186,0,0,1,.094-0.023H302.2V34.3h1.229V32.356a0.1,0.1,0,0,0-.027-0.062,0.111,0.111,0,0,0-.057-0.039,0.075,0.075,0,0,1-.076-0.07,0.086,0.086,0,0,1,.107-0.085h1.1v2.2h1.282V32.714a0.1,0.1,0,0,0-.076-0.074,0.1,0.1,0,0,1-.076-0.082c0-.057.046-0.086,0.136-0.086h1.04v3.05h-1.024V35.266h-1.282v2.389h1.471V35.919a0.1,0.1,0,0,0-.072-0.054,0.1,0.1,0,0,1-.072-0.086c0-.057.046-0.085,0.137-0.085h1.039v3.252h-1.032Z"/>
  </g>
</svg>
