<svg id="SC" xmlns="http://www.w3.org/2000/svg" width="320" height="50" viewBox="0 0 320 50">
  <defs>
    <style>
      .cls-1 {
        fill: #4c286c;
        fill-rule: evenodd;
      }
    </style>
  </defs>
  <g id="txt1">
    <path class="cls-1" d="M278.284,38.3l-0.327-.981,0.952-.149V35.831h-0.774V34.964h0.774v-0.9h-0.922V33.173h2.647v0.888H279.9v0.9h0.594v0.867H279.9v1.13l0.811-.149v0.91Zm6.492-.817a3.937,3.937,0,0,1-.246,1.063,0.553,0.553,0,0,1-.469.295,5.762,5.762,0,0,1-1.248.021,0.586,0.586,0,0,1-.257-0.092,0.478,0.478,0,0,1-.183-0.284,2.32,2.32,0,0,1-.066-0.562,3,3,0,0,1-.707.558,7.6,7.6,0,0,1-1.108.494,2.7,2.7,0,0,0-.249-0.5,2.1,2.1,0,0,0-.331-0.412,5.082,5.082,0,0,0,.945-0.3,2.68,2.68,0,0,0,.7-0.43,1.341,1.341,0,0,0,.39-0.565,2.53,2.53,0,0,0,.112-0.817V34.047H283v2.061h0.163V37.7a0.2,0.2,0,0,0,.283.2,0.65,0.65,0,0,0,.193,0,0.187,0.187,0,0,0,.122-0.057,0.465,0.465,0,0,0,.064-0.128,3.05,3.05,0,0,0,.074-0.6A1.851,1.851,0,0,0,284.776,37.486Zm-1.458-.6V33.819h-1.591v3.063h-0.944V32.867h3.487v4.015h-0.952Zm8.662,0.285a5.331,5.331,0,0,1-.108.746,1.266,1.266,0,0,1-.193.447,0.777,0.777,0,0,1-.375.277,1.659,1.659,0,0,1-.424.085c-0.188.019-.5,0.029-0.937,0.029h-2.81a0.88,0.88,0,0,1-.346-0.082,0.8,0.8,0,0,1-.331-0.281,0.717,0.717,0,0,1-.142-0.426v-3.29a0.134,0.134,0,0,0-.093-0.089,0.118,0.118,0,0,1-.085-0.11,0.169,0.169,0,0,1,.015-0.064,0.162,0.162,0,0,1,.141-0.035h1.034v0.675h2.632V33.9h-4.023V32.945h5.019v3.425h-1V35.987h-2.632v1.656q0,0.206.3,0.206h2.417a3.681,3.681,0,0,0,.457-0.021,0.54,0.54,0,0,0,.261-0.1,0.8,0.8,0,0,0,.167-0.178,6.63,6.63,0,0,0,.134-0.782A2.811,2.811,0,0,0,291.98,37.167Z"/>
  </g>
</svg>
