<svg id="SC" xmlns="http://www.w3.org/2000/svg" width="320" height="50" viewBox="0 0 320 50">
  <defs>
    <style>
      .cls-1 {
        fill: #4c286c;
        fill-rule: evenodd;
      }
    </style>
  </defs>
  <g id="txt1">
    <path class="cls-1" d="M278.331,38.218L278,37.147l0.963-.163V35.517H278.18V34.57h0.783V33.585H278.03v-0.97h2.679v0.97h-0.746V34.57h0.6v0.947h-0.6v1.234l0.821-.163v0.994Zm6.567-.892a4.556,4.556,0,0,1-.248,1.16,0.558,0.558,0,0,1-.474.322,5.412,5.412,0,0,1-1.264.023,0.562,0.562,0,0,1-.259-0.1,0.523,0.523,0,0,1-.185-0.31,2.688,2.688,0,0,1-.067-0.613,3.1,3.1,0,0,1-.715.609,7.488,7.488,0,0,1-1.121.539,3.078,3.078,0,0,0-.252-0.543,2.315,2.315,0,0,0-.335-0.45,4.862,4.862,0,0,0,.956-0.326,2.7,2.7,0,0,0,.711-0.47,1.465,1.465,0,0,0,.394-0.617,2.928,2.928,0,0,0,.114-0.892V33.569H283.1V35.82h0.165v1.738a0.341,0.341,0,0,0,.034.148,0.281,0.281,0,0,0,.252.07,0.607,0.607,0,0,0,.195,0,0.184,0.184,0,0,0,.124-0.062,0.524,0.524,0,0,0,.065-0.14,3.686,3.686,0,0,0,.075-0.652A1.8,1.8,0,0,0,284.9,37.325Zm-1.474-.66V33.321h-1.61v3.345h-0.955V32.281h3.528v4.384h-0.963Zm8.763,0.311a6.472,6.472,0,0,1-.109.815,1.452,1.452,0,0,1-.195.489,0.8,0.8,0,0,1-.38.3,1.566,1.566,0,0,1-.429.093q-0.285.031-.948,0.031h-2.843a0.838,0.838,0,0,1-.35-0.089,0.822,0.822,0,0,1-.335-0.307,0.833,0.833,0,0,1-.143-0.465V34.252a0.141,0.141,0,0,0-.094-0.1,0.129,0.129,0,0,1-.087-0.12,0.2,0.2,0,0,1,.016-0.07,0.154,0.154,0,0,1,.142-0.039h1.046v0.737h2.663V33.406h-4.07v-1.04h5.079v3.74h-1.009V35.688h-2.663V37.5c0,0.15.1,0.225,0.3,0.225h2.445a3.486,3.486,0,0,0,.463-0.023,0.517,0.517,0,0,0,.263-0.109,0.8,0.8,0,0,0,.169-0.194,7.572,7.572,0,0,0,.136-0.854A2.75,2.75,0,0,0,292.187,36.976Zm4.522,1.552v0.4h-0"/>
  </g>
</svg>
