<svg id="SC" xmlns="http://www.w3.org/2000/svg" width="320" height="50" viewBox="0 0 320 50">
  <defs>
    <style>
      .cls-1 {
        fill: #4c286c;
        fill-rule: evenodd;
      }
    </style>
  </defs>
  <path id="txt2" class="cls-1" d="M23.013,18.563v3.862a1.079,1.079,0,0,1-1.137,1.292H19.664l-0.449-1.325q1.6,0.145,2.02.129a0.516,0.516,0,0,0,.561-0.565V18.563H15.643v-1.18H21.8V14.926H16.973v-1.18H21.8V11.5q-1.3.161-4.983,0.258l-0.722-1.2a46.114,46.114,0,0,0,6.106-.291,24,24,0,0,0,5.336-1.116l0.673,0.921a22.1,22.1,0,0,1-5.192,1.277v2.391H27.6v1.18H23.013v2.457h5.9v1.18h-5.9Zm13.364-.21a6.506,6.506,0,0,0-.4-1.116A6.617,6.617,0,0,0,35.3,16.09l-0.048,7.563H33.99V16.9a10.4,10.4,0,0,1-.769,1.349,9.994,9.994,0,0,1-1.186,1.48L31.09,18.9a9.946,9.946,0,0,0,1.09-1.357A10.565,10.565,0,0,0,33.213,15.6a12,12,0,0,0,.665-2.109H31.57V12.325h2.42V9.255h1.267v3.07h2.211v1.163H35.256v1.6l0.5-.307a7.047,7.047,0,0,1,1.779,2.844Zm9.47,1.81a18.794,18.794,0,0,1-.56,2.133,1.106,1.106,0,0,1-.417.557,1.158,1.158,0,0,1-.689.218h-1.09a1.631,1.631,0,0,1-.608-0.121,0.837,0.837,0,0,1-.441-0.364,1,1,0,0,1-.136-0.5V11.146h-2.5v7.336a6.318,6.318,0,0,1-.681,2.787A8.693,8.693,0,0,1,36.842,23.8l-1.09-.9a9.362,9.362,0,0,0,1.795-2.182,4.721,4.721,0,0,0,.642-2.392V9.982h4.935V21.7c0,0.14.1,0.21,0.288,0.21h0.513a0.366,0.366,0,0,0,.305-0.234,2.451,2.451,0,0,0,.216-0.614q0.088-.379.176-0.969c0.059-.393.094-0.622,0.1-0.686Zm8.862-2.085c-0.086-.139-0.239-0.358-0.457-0.654a9.629,9.629,0,0,0-.785-0.921c-0.3-.317-0.543-0.552-0.713-0.7l0.9-.9a13.237,13.237,0,0,1,2.2,2.068ZM65.428,16.51a4.273,4.273,0,0,0-1.081-1.43,4.773,4.773,0,0,0-1.6-.913l0.93-.889a4.253,4.253,0,0,1,1.538.946,6.222,6.222,0,0,1,1.2,1.527Zm1.443,1q-0.16.84-.449,1.866a9.766,9.766,0,0,1-.761,1.923,8.31,8.31,0,0,1-.873,1.382c-0.267.323-.5,0.582-0.689,0.775l-1.058-.792A7.3,7.3,0,0,0,64.852,20.2a11.344,11.344,0,0,0,.913-3.159Zm-0.8-4.718a3.918,3.918,0,0,0-2.5-1.987l0.9-.873a4.873,4.873,0,0,1,2.549,1.972Zm3.573,3.926q0,0.13.009,0.962t-0.032,1.535a6.706,6.706,0,0,1-.208,1.341,4.96,4.96,0,0,1-.481,1.189,4.536,4.536,0,0,1-.881,1.074,5.312,5.312,0,0,1-1.5.929L65.669,22.7a5.477,5.477,0,0,0,1.17-.606,3.465,3.465,0,0,0,.954-0.977,3.593,3.593,0,0,0,.529-1.333,9.175,9.175,0,0,0,.12-1.761q-0.016-1.027,0-1.3h1.2Zm2.083-4.557a13.082,13.082,0,0,1-1.057,1.818,5.255,5.255,0,0,1-.962,1.01l4.407-.436a3.969,3.969,0,0,0-1.378-.728l1.185-.808a6.9,6.9,0,0,1,1.546,1.22,6.176,6.176,0,0,1,1.162,1.64l-1.074.727a4.692,4.692,0,0,0-.577-1.018q-1.891.163-3.949,0.42t-3.2.485l-0.8-1.083a6.821,6.821,0,0,0,1.931-1.276,5.729,5.729,0,0,0,1.418-1.972h-3.3v-1.18h4.1a3.946,3.946,0,0,0-1.747-1.228l1.026-.744a3.354,3.354,0,0,1,1.122.686,4.979,4.979,0,0,1,.913,1.108l-0.256.145,4.486,0.033v1.18h-5ZM70.909,23.426V16.672h1.218v6.754H70.909Zm6.489-3.28a8.525,8.525,0,0,1-.336,1.956,1.553,1.553,0,0,1-.409.646,1.054,1.054,0,0,1-.648.323,2.9,2.9,0,0,1-1.739-.226,1.191,1.191,0,0,1-.553-1.1V16.672h1.218v4.88a0.328,0.328,0,0,0,.057.243,0.531,0.531,0,0,0,.24.162,0.815,0.815,0,0,0,.417.024,0.338,0.338,0,0,0,.3-0.17,2.52,2.52,0,0,0,.2-0.832,11.787,11.787,0,0,0,.1-1.251ZM78.921,23.1v-1.18h6.521V21.455H80.315V20.4h5.128v-0.42H80.892v-4.1H91.243v4.1H86.66V20.4h5.192v1.05H86.66v0.468h6.57V23.1H78.921Zm0.608-7.6v-1.05H92.573v1.05H79.529Zm1.827-1.422V9.868h9.358v4.217H81.356Zm4.086,4.25H82.094l0.016,0.6h3.333v-0.6ZM82.109,16.93v0.5h3.333l0.016-.5H82.109ZM89.5,10.984H82.574V11.5H89.5V10.984Zm0,1.454H82.574v0.6H89.5v-0.6Zm0.529,4.492H86.66l0.017,0.5h3.349v-0.5Zm0,1.406H86.66v0.6h3.365v-0.6Zm18.251,5.35a14.555,14.555,0,0,1-4.951-2.538A11.884,11.884,0,0,1,98.6,23.685L97.812,22.6a12.249,12.249,0,0,0,4.583-2.295,12.372,12.372,0,0,1-1.714-2.19,14.652,14.652,0,0,1-1.233-2.593,16.043,16.043,0,0,1-.913,5.058A12.56,12.56,0,0,1,96.5,23.734c-0.171-.087-0.424-0.232-0.761-0.437s-0.515-.313-0.537-0.323a7.972,7.972,0,0,0,2.468-4.04q0.111-.5.233-1.341t0.216-2.65q0.111-2.052.064-3.49H96.034V10.225h10.207v1.066q-0.784,1.18-2.083,2.908h3.173a8.546,8.546,0,0,1-1.01,3.345,13.615,13.615,0,0,1-2.034,2.714,13.506,13.506,0,0,0,4.742,2.263Zm-5.833-8.307V14.313q1.38-1.746,2.116-2.86H99.544V12.2q0.192,0.678.513,1.616a26.65,26.65,0,0,0,1.122,2.618,9.775,9.775,0,0,0,.713,1.26,14.919,14.919,0,0,0,1.482,1.746,10.99,10.99,0,0,0,1.482-1.915,8.555,8.555,0,0,0,1-2.141h-3.414Zm22.786,4.8q0,2.78-1.137,2.893l-0.465.048h-5.256q-1.314,0-1.314-1.6V19.661h-4.742V11.776h4.742V9.3h1.219v2.473h4.855v7.885h-4.855v1.955a0.372,0.372,0,0,0,.448.389h4.823a1.129,1.129,0,0,0,.481-1.116l0.064-1.261Zm-8.172-7.207h-3.589v2.1h3.589v-2.1Zm0,3.28h-3.589V18.5h3.589V16.252Zm4.856-3.28h-3.637v2.1h3.637v-2.1Zm0,3.28h-3.637V18.5h3.637V16.252Zm12.9,0.63v5.4a1.373,1.373,0,0,1-.753,1.116,1.845,1.845,0,0,1-.785.162q-0.578.031-1.763,0L130.6,22.392h2.355a0.564,0.564,0,0,0,.473-0.218,0.863,0.863,0,0,0,.168-0.541V16.882h-6.137V15.7H133.6V14.086a19.457,19.457,0,0,0,1.635-1.219,12.6,12.6,0,0,0,1.682-1.64h-7.483V10.046h9.23v0.905a16.2,16.2,0,0,1-1.8,2.053,14.961,14.961,0,0,1-2.043,1.681V15.7h5.833v1.18h-5.833Zm13.845-5.85V12.7h2.083v11h-1.266v-1.18h-4.84V23.7h-1.217v-11H145.6V11.032h-2.756V9.853h8.188v1.18h-2.371Zm0.817,6.948H148.53a1.154,1.154,0,0,1-.537-0.243,1.242,1.242,0,0,1-.409-0.5,1.319,1.319,0,0,1-.128-0.532V13.925h-0.625a13.25,13.25,0,0,1-.313,2.472,5.472,5.472,0,0,1-.545,1.366,9.435,9.435,0,0,1-.665.993l-0.673-.388v0.678h4.84V17.981Zm-4.84-4.056v3.684a5.819,5.819,0,0,0,.658-1.341,8.575,8.575,0,0,0,.3-2.342h-0.962Zm4.888,6.3h-4.888v1.115h4.888V20.226Zm-2.067-9.194h-0.642v1.713h0.642V11.032Zm2.019,2.893h-0.866v2.731a0.49,0.49,0,0,0,.08.112,0.438,0.438,0,0,0,.153.089,0.752,0.752,0,0,0,.224.049,2.093,2.093,0,0,0,.248,0c0.086-.006.139-0.009,0.161-0.009V13.925Zm7.5,6.318a8.981,8.981,0,0,1-.512,2.2,2,2,0,0,1-.514.735,1.263,1.263,0,0,1-.608.331H153a1.187,1.187,0,0,1-.577-0.17,1.356,1.356,0,0,1-.512-0.533,1.379,1.379,0,0,1-.208-0.687V14.846h2.964V11.032h-3.3V9.853h4.52v6.722h-1.218V16.026h-1.7V22q0,0.387.609,0.387h1.33q0.529,0,.849-2.553ZM163.224,9.4a19.9,19.9,0,0,1-.994,3.668V23.7h-1.218V15.379l-1.474,2.182-1.042-.744a16.735,16.735,0,0,0,3.574-7.659Zm5.351,8.565V23.6h-1.266V17.965h-4.471V16.736h4.471V13.521h-2.162a15.2,15.2,0,0,1-1.395,2.6l-1.122-.566A10.178,10.178,0,0,0,164,13.109a11.918,11.918,0,0,0,.682-2.82l1.105,0.356a7.706,7.706,0,0,1-.24,1.648h1.762v-3.2h1.266v3.2h3.334v1.228h-3.334v3.215H173v1.229h-4.423ZM29.039,37.274a8.11,8.11,0,0,1-1.186-.452A8.754,8.754,0,0,1,26.411,36v5.834h-1.33V40.846H19.712V41.88H18.447V35.755a10.343,10.343,0,0,1-1.258.808,9.313,9.313,0,0,1-1.355.63L15,36.208q0.706-.306,1.539-0.767a13.644,13.644,0,0,0,1.45-.913,6.194,6.194,0,0,0,.921-0.792h-3.06v-1.18h4.086a5.646,5.646,0,0,0,.608-0.905H18v-1.18h3.077a6.5,6.5,0,0,0,.336-0.759H16.893v-1.18h4.775a9.8,9.8,0,0,0,.208-1.26l1.17,0.258a8.454,8.454,0,0,1-.144,1h4.935v1.18H22.644l-0.24.759H26.8v1.18H21.908l-0.481.905h7.484v1.18H25.689a7.671,7.671,0,0,0,4.006,2.44Zm-4.054-2.44a5.9,5.9,0,0,1-.866-1.1l-3.509.017a12.159,12.159,0,0,1-.978,1.082h5.353Zm0.1,1.179H19.712v1.148h5.368V36.014Zm0,2.328H19.712v1.325h5.368V38.341Zm16.5,2.909V39.683h-6.3v1.631H34.022V28.726h8.83V41.25H41.585Zm0-11.344h-6.3v3.62h6.3v-3.62Zm0,4.8h-6.3v3.8h6.3V34.7Zm10.928,1.681a2.1,2.1,0,0,1-.5.97,1.906,1.906,0,0,1-.866.614,3.027,3.027,0,0,1-1.554.048l-0.289-1.341c0.514,0.108.825,0.17,0.938,0.185a1.2,1.2,0,0,0,.312.009,0.88,0.88,0,0,0,.256-0.065,0.87,0.87,0,0,0,.177-0.1,1.06,1.06,0,0,0,.328-0.509,1.672,1.672,0,0,0,.009-0.881,4.733,4.733,0,0,0-1.635-2.457q1.09-2.552,1.41-3.6H49.117V41.848L47.9,41.88V28.048h4.5v1.2l-1.346,3.41a6.136,6.136,0,0,1,1.034,1.26,3.272,3.272,0,0,1,.457,1.253A3.921,3.921,0,0,1,52.513,36.386ZM60.477,41.8a6.359,6.359,0,0,1-2.372-1.681,7.857,7.857,0,0,1-1.6-2.473,10.111,10.111,0,0,1-.577-2.6H54.26v4.9q0.352-.177,1.394-0.6c0.694-.279,1.047-0.42,1.058-0.42v1.229l-3.43,1.519q-0.032-.016-0.408-0.316t-0.6-.492a1.78,1.78,0,0,0,.545-0.42,1.049,1.049,0,0,0,.225-0.711V28.08h6.794v6.964H57.129a11.87,11.87,0,0,0,.232,1.293,5.669,5.669,0,0,0,.393,1.035L60.076,35.3l0.913,0.84q-0.257.243-.793,0.719t-1.931,1.511a4.973,4.973,0,0,0,1.225,1.4,6.742,6.742,0,0,0,1.723,1.01ZM58.618,29.26H54.26v1.664h4.358V29.26ZM54.26,32.1v1.778l4.31-.033L58.6,32.1H54.26Zm22.5,8.9H73.136a11.379,11.379,0,0,1-3.085-.177,6.564,6.564,0,0,1-2.716-1.083l-1.122-.921a8.54,8.54,0,0,1-2.451,3.054,6.643,6.643,0,0,1-.537-0.534q-0.329-.355-0.457-0.484a7.23,7.23,0,0,0,.985-0.751,5.572,5.572,0,0,0,.978-1.164,4.692,4.692,0,0,0,.617-1.4,14.527,14.527,0,0,0,.3-2.86H66.9a17.926,17.926,0,0,1-.273,2.86,7.921,7.921,0,0,0,.954.9,6.231,6.231,0,0,0,1.1.736,3.545,3.545,0,0,0,.833.322V33.413H65.428l0.032-1.181h9.374v1.181h-4.1L70.684,35.8h5v1.18H70.733v2.731l2.051,0.065h4.6Zm-1.443-8.581,0.032-2.02H65.028V32.33H63.81v-3.1H70a7.5,7.5,0,0,0-1.955-1.438l1.09-.63a8.676,8.676,0,0,1,1.2.8,11.23,11.23,0,0,1,1.105.962l-0.384.258,5.512,0.048v3.2h-1.25Zm8.413-4.718q-0.224.873-.457,1.631t-0.729,1.988V41.767H81.324V33.8c-0.021.032-.224,0.313-0.608,0.84a9.247,9.247,0,0,1-.946,1.147l-1.042-.775a14.891,14.891,0,0,0,2.356-3.555,17.5,17.5,0,0,0,1.506-4.234ZM93.2,38.939a6.268,6.268,0,0,1-.5,1.826,0.856,0.856,0,0,1-.73.549h-3.3a0.946,0.946,0,0,1-1.09-1.05V35.013a10.231,10.231,0,0,1-2.244,5.251,7.573,7.573,0,0,1-1.923,1.568l-0.817-.97a7.42,7.42,0,0,0,2.332-2.23,10.389,10.389,0,0,0,1.4-3.571,11.907,11.907,0,0,0,.2-1.22q0.088-.735.1-1.285H83.167v-1.18h3.526V27.369H87.91v4.007h5.1v1.18H87.878l-0.048.63h1.009v6.642a0.335,0.335,0,0,0,.072.218,0.243,0.243,0,0,0,.2.089H91.4a0.462,0.462,0,0,0,.248-0.056,0.8,0.8,0,0,0,.2-0.347,9.919,9.919,0,0,0,.159-1.713Zm-2.4-7.66A5.769,5.769,0,0,0,90,30.237a11.952,11.952,0,0,0-1.514-1.3l0.913-.792A8.894,8.894,0,0,1,90.643,29.2a13.157,13.157,0,0,1,1.145,1.318Zm8.092,7.013a5.352,5.352,0,0,1-1.37,1.391,6.89,6.89,0,0,1-1.818.937l-0.946-.986a6.369,6.369,0,0,0,3.269-2.02Q98.71,38.131,98.886,38.292ZM102.7,29.6v0.565h4.262v4.864h-0.337a6.591,6.591,0,0,1,2.179,1.987l-1.073.711a7.119,7.119,0,0,0-.738-0.937q-2.226.1-5.111,0.1c0.053,0.032.2,0.116,0.424,0.25s0.444,0.272.641,0.412a3.432,3.432,0,0,1,.561.5,5.116,5.116,0,0,1,.417.509c0.1,0.145.168,0.245,0.2,0.3l-1.042.711a5.4,5.4,0,0,0-2.339-2.052l0.833-.565q-3.141.032-5.785,0.112L95.137,35.82q1.09,0.016,6.346-.033V35.029h-4.23V30.164h4.23V29.6H95.233V28.435h6.249V27.126H102.7v1.309h6.265V29.6H102.7Zm-1.219,1.729H98.47v0.614h3.012V31.328Zm0,1.777H98.47v0.759h3.012V33.105Zm4.391,5.8q-0.032.13-.1,0.509c-0.048.254-.094,0.453-0.136,0.6a2.913,2.913,0,0,1-.169.437,1.445,1.445,0,0,1-.28.4,1.3,1.3,0,0,1-.4.275,4.632,4.632,0,0,1-1.634.112h-2.58a1.415,1.415,0,0,1-.737-0.322,1.858,1.858,0,0,1-.513-0.647,3.9,3.9,0,0,1-.112-0.937V37.582h1.266V39.6a0.537,0.537,0,0,0,.136.274,0.592,0.592,0,0,0,.265.194h3.156a0.923,0.923,0,0,0,.217-0.113,0.552,0.552,0,0,0,.192-0.266,3.607,3.607,0,0,0,.144-0.63,4.559,4.559,0,0,1,.136-0.638A10.227,10.227,0,0,1,105.873,38.907ZM105.7,31.328h-3v0.614h3V31.328Zm0,1.777h-3v0.759h3V33.105Zm-0.176,2.569a4.439,4.439,0,0,1-.785-0.372l0.4-.242-2.435-.032v0.694Zm2.917,5.285a6.957,6.957,0,0,0-2.917-2.521l0.914-.7a6.79,6.79,0,0,1,1.834,1.1,6.369,6.369,0,0,1,1.178,1.373Zm7.114-13.219a27.647,27.647,0,0,1-1.426,4.137v10h-1.218V34.107a17.935,17.935,0,0,1-1.313,1.536l-1.122-.711a16.164,16.164,0,0,0,3.941-7.628Zm9.166,6.562a8.417,8.417,0,0,1-2.075-1.455,15.3,15.3,0,0,1-1.763-1.9,18.555,18.555,0,0,1-1.1-1.559,12.332,12.332,0,0,1-1.723,2.423,12.665,12.665,0,0,1-1.723,1.632,9.72,9.72,0,0,1-1.282.825l-0.865-1a9.044,9.044,0,0,0,3.205-2.465,13.977,13.977,0,0,0,2.212-3.692l1.057,0.6-0.193.468a13.944,13.944,0,0,0,2.244,2.989,9.982,9.982,0,0,0,2.964,2.117Zm-6.265,1.971a7.787,7.787,0,0,1-.193,1.827,4.792,4.792,0,0,1-.7,1.551,9.255,9.255,0,0,1-2.451,2.343l-0.914-1.018a5.674,5.674,0,0,0,1.659-1.236,5.224,5.224,0,0,0,1.081-1.551,3.39,3.39,0,0,0,.3-1.253V32.928h1.218v3.344Zm2.756,5.56v-8.9h1.217v8.9h-1.217Z"/>
</svg>
