<svg xmlns="http://www.w3.org/2000/svg" width="728" height="90" viewBox="0 0 728 90">
  <defs>
    <style>
      .cls-1 {
        fill: #fff;
        fill-rule: evenodd;
      }
    </style>
  </defs>
  <path id="立即登记_" data-name="立即登记 " class="cls-1" d="M646.916,65.539V64.626l-4.259-.025,0.654-.475a4.731,4.731,0,0,0-2.086-1.838l-0.79.65a4.07,4.07,0,0,1,2.012,1.688h-4.469v0.912h8.938Zm0.592,7.1V71.726H643.4a11.737,11.737,0,0,0,1.043-1.869,12.435,12.435,0,0,0,.71-2q0.246-.969.358-1.706l-0.939-.4a13.878,13.878,0,0,1-.79,3.231,11.249,11.249,0,0,1-1.481,2.744h-4.876v0.912h10.085Zm-5.641-1.675a10.038,10.038,0,0,0-.642-2.844,7.2,7.2,0,0,0-1.383-2.394l-0.864.425a5.43,5.43,0,0,1,.908,1.344,10.476,10.476,0,0,1,.666,1.788,11.714,11.714,0,0,1,.377,1.969Zm17.116-7.825h-3.951V73.714h0.939V64.051h2.073v6.075a0.459,0.459,0,0,1-.209.475,2.741,2.741,0,0,1-.655.044l-0.493-.006,0.246,0.925h0.581a3.262,3.262,0,0,0,.777-0.075,1.274,1.274,0,0,0,.494-0.362,0.817,0.817,0,0,0,.2-0.538v-7.45Zm-4.92,7.706a9.962,9.962,0,0,0-1.216-1.544l-0.814.438q0.543,0.588.777,0.9l-2.2,1.038,0.025-2.862h3.506V63.026h-4.469v8.587a0.662,0.662,0,0,1-.13.462,1.113,1.113,0,0,1-.339.238l0.827,0.712q1.567-.862,3.308-1.625a8.518,8.518,0,0,1,.753,1.475q0.123-.038.84-0.363A7.919,7.919,0,0,0,654.063,70.845Zm-0.858-5.419h-2.592V63.939h2.592v1.488Zm0,2.475h-2.592l0.025-1.562h2.567V67.9Zm18.421-.087a8.244,8.244,0,0,1-2.407-1.638,6.541,6.541,0,0,0,1.481-1.65l-0.7-.537A7.026,7.026,0,0,1,668.6,65.5a0.214,0.214,0,0,1-.087-0.075q-0.049-.062-0.37-0.487a4.864,4.864,0,0,0,.71-0.681,10.367,10.367,0,0,0,.685-0.881q-0.531-.437-0.716-0.562a6.025,6.025,0,0,1-1.111,1.313,11.915,11.915,0,0,1-.766-1.788l-0.79.387a11.3,11.3,0,0,0,.685,1.7,6.582,6.582,0,0,0,.809,1.375h-2.975a4.689,4.689,0,0,0,1.074-2.725h-4.345v0.913h3.209a3.981,3.981,0,0,1-.444.925,4.555,4.555,0,0,1-.642.8,5.851,5.851,0,0,0-.7-0.731,3.892,3.892,0,0,0-.648-0.481l-0.629.637a7.127,7.127,0,0,1,1,.8,3.229,3.229,0,0,1,.3.375,9.4,9.4,0,0,1-2.333,1.412l0.654,0.75a9.771,9.771,0,0,0,3.062-2.162l0.012,0.4h3.74l0.025-.537a6.692,6.692,0,0,0,1.29,1.319,11.8,11.8,0,0,0,1.734,1.094Zm-0.506,5.15V72.051h-3.358a4.786,4.786,0,0,0,.654-0.963l-0.8-.462a4.544,4.544,0,0,1-1.074,1.425H665.5a5.513,5.513,0,0,0-1.025-1.463h4.667V67.626h-6.1v2.962l1.26,0.025-0.741.362a8.485,8.485,0,0,1,.778.75,2.463,2.463,0,0,1,.234.325h-3.518v0.912H671.12Zm-2.914-3.287h-4.221V68.539h4.221v1.138Zm13.8,0.688a7.454,7.454,0,0,1-.185,1.438,0.582,0.582,0,0,1-.173.275,0.409,0.409,0,0,1-.272.15h-2.95a0.418,0.418,0,0,1-.3-0.112,0.394,0.394,0,0,1-.118-0.3V67.976h3.025v0.688h0.975V63.239h-5.395v0.912h4.42v2.913h-4v4.887a1.072,1.072,0,0,0,.395.85,1.3,1.3,0,0,0,.864.337h3.148a1.22,1.22,0,0,0,1-.55,1.861,1.861,0,0,0,.272-0.562,6.377,6.377,0,0,0,.246-1.275Zm-6.543-6.15a5.281,5.281,0,0,0-1.654-1.837l-0.679.55a5.707,5.707,0,0,1,1.556,1.888Zm1.284,7.713V70.889l-1.568.913v-5.95H672.5v0.912h1.74v5.063a0.789,0.789,0,0,1-.321.6l0.556,0.8Z"/>
</svg>
