<svg id="Frame_3" data-name="Frame 3" xmlns="http://www.w3.org/2000/svg" width="728" height="90" viewBox="0 0 728 90">
  <defs>
    <style>
      .cls-1 {
        fill: #58595b;
        fill-rule: evenodd;
      }
    </style>
  </defs>
  <path id="_有若干條件_" data-name="*有若干條件。" class="cls-1" d="M334.205,78.566a9.351,9.351,0,0,0-1.035.423l0.018-.1a7.79,7.79,0,0,0,.081-0.99h-0.63c0,0.114.023,0.447,0.072,1L332.72,79a2.809,2.809,0,0,0-.392-0.194c-0.153-.063-0.359-0.142-0.616-0.239l-0.207.63q0.486,0.117,1.08.243a3.605,3.605,0,0,0-.36.387l-0.315.378-0.054.063,0.513,0.378a7.979,7.979,0,0,0,.531-0.864l0.045-.081L333,79.79c0.239,0.4.423,0.687,0.549,0.855l0.522-.378L334,80.177l-0.306-.342-0.3-.324-0.081-.072c0.149-.018.333-0.051,0.549-0.1s0.4-.1.549-0.144Zm1.41,3.87q0.819-.837,1.093-1.152a5.975,5.975,0,0,0,.428-0.54v4.293h0.711V83.129l3.393,0.009v0.891a0.147,0.147,0,0,1-.05.1,0.164,0.164,0,0,1-.121.05,6.652,6.652,0,0,1-1.134-.045q0.081,0.207.315,0.693h0.517a3.6,3.6,0,0,0,.68-0.045,0.777,0.777,0,0,0,.319-0.225,0.607,0.607,0,0,0,.149-0.342v-4.6h-4.077q0.117-.243.324-0.837L343,78.773V78.125h-4.581q0.216-.738.3-1.116l-0.693-.153q-0.18.747-.248,0.959c-0.045.141-.079,0.242-0.1,0.3h-2.142v0.657l1.89,0.009a5.989,5.989,0,0,1-.923,1.633,11.754,11.754,0,0,1-1.516,1.607Zm5.607-2.16v0.738l-3.375-.009V80.276h3.375Zm-3.393,1.386,3.4,0.009v0.81h-3.4V81.662Zm8.9-1.809v-0.99h1.206V78.206h-1.206V77.018h-0.675V78.2l-1.863.009,0.009,0.648,1.854,0.009v0.99h0.675Zm-2.1,3.69a15.649,15.649,0,0,0,1.539-1.062v2.556h0.684v-0.63l3.195-.009,0.009,0.63h0.675l0.009-3.222h-3.861a7.914,7.914,0,0,0,.747-0.954l4.05-.009V80.195H348.03a9.482,9.482,0,0,0,.387-0.954l-0.63-.27a6.8,6.8,0,0,1-.567,1.224h-2.754v0.648h2.358a5.926,5.926,0,0,1-.909.945,14.092,14.092,0,0,1-1.782,1.233Zm5.355-3.717V78.854h1.863l0.009-.648h-1.881v-1.2h-0.675v1.2h-1.179v0.657h1.188v0.963h0.675ZM346.86,83.75V82.463h3.2v1.278Zm9.5-2.763v4.068h0.711V80.987l3.231-.009V80.3l-3.231-.009V78.206h2.646l-0.009-.684H353.72v0.684h2.637l0.009,2.1h-3.258v0.675Zm8.034-.387,0.306,0.513q0.422-.09.819-0.216a5.14,5.14,0,0,0,.729-0.293c0.221-.111.477-0.253,0.765-0.427a3.487,3.487,0,0,0,.549.364,4.093,4.093,0,0,0,.787.324q0.454,0.14.986,0.248l0.315-.657a4.115,4.115,0,0,1-2.079-.684,3.481,3.481,0,0,0,.49-0.455,3.372,3.372,0,0,0,.387-0.513,2.938,2.938,0,0,0,.221-0.437h0.612V77.7h-2.691l0.225-.585-0.594-.216a7.105,7.105,0,0,1-.509,1.094,5.272,5.272,0,0,1-.643.913,3.788,3.788,0,0,1-.6.558l0.612,0.414a6.675,6.675,0,0,0,.891-1.026,4.583,4.583,0,0,0,.549.864,6.75,6.75,0,0,1-2.142.792V78.476h-0.666V83.2h0.666Zm3.6-2.241a7.637,7.637,0,0,1-.5.617,5.575,5.575,0,0,1-.4.392,3.151,3.151,0,0,1-.621-1Zm-4.77,1.152a22.308,22.308,0,0,0,.63-2.349l-0.6-.234q-0.235,1-.423,1.6a9.934,9.934,0,0,1-.486,1.237,8.913,8.913,0,0,1-.891,1.445L362,81.626c0.047-.054.109-0.13,0.184-0.23s0.15-.206.225-0.32,0.115-.174.122-0.18l-0.009,4.167h0.693Zm6.624,4.428a4.315,4.315,0,0,1-1.9-1.908l1.233-.009-0.009-.657h-1.818l-0.009-.873H366.65v0.873h-1.791l-0.009.666h1.188a3.442,3.442,0,0,1-.518.765,4.754,4.754,0,0,1-.706.666,6.181,6.181,0,0,1-.657.441l0.45,0.576a7.938,7.938,0,0,0,1.3-1.138,3.813,3.813,0,0,0,.747-1.1v2.8h0.693l0.018-2.745a4.3,4.3,0,0,0,1.953,2.133Zm1.2-2.3q0.576-.828.819-1.215v4.635l0.693-.009V79.133a10.978,10.978,0,0,0,.558-2.043l-0.648-.135a9.29,9.29,0,0,1-2.007,4.266Zm4.365,0.225L375.406,85h0.72l0.009-3.141,2.475-.009V81.167l-2.475.009V79.385L378,79.394V78.71l-1.863-.009V76.928l-0.72-.009L375.406,78.7l-0.981.009a4.281,4.281,0,0,0,.135-0.927l-0.621-.2a6.58,6.58,0,0,1-.383,1.571,5.683,5.683,0,0,1-.769,1.364l0.63,0.315a8.422,8.422,0,0,0,.783-1.449l1.215,0.009-0.009,1.782h-2.5l-0.009.684h2.52Zm8-1.058a1.212,1.212,0,0,0-.211-0.5,1.069,1.069,0,0,0-.45-0.369,1.27,1.27,0,0,0-.585-0.1,1.046,1.046,0,0,0-.608.248,1.129,1.129,0,0,0-.382.544,1.18,1.18,0,0,0-.032.59,1.075,1.075,0,0,0,.239.517,1.192,1.192,0,0,0,.454.324,1.245,1.245,0,0,0,.554.09,1.069,1.069,0,0,0,.594-0.257,1.2,1.2,0,0,0,.387-0.544A1.086,1.086,0,0,0,383.411,80.8Zm-0.58.284a0.533,0.533,0,0,1-.153.306,0.587,0.587,0,0,1-.311.162,0.564,0.564,0,0,1-.346-0.036,0.624,0.624,0,0,1-.2-0.171A0.578,0.578,0,0,1,381.7,81.1a0.557,0.557,0,0,1,.018-0.279,0.64,0.64,0,0,1,.135-0.243,0.54,0.54,0,0,1,.256-0.153,0.577,0.577,0,0,1,.3-0.009,0.607,0.607,0,0,1,.234.13A0.526,0.526,0,0,1,382.831,81.086Z"/>
</svg>
