<svg xmlns="http://www.w3.org/2000/svg" width="728" height="90" viewBox="0 0 728 90">
  <defs>
    <style>
      .cls-1 {
        fill: #4d4d4f;
        fill-rule: evenodd;
      }
    </style>
  </defs>
  <path id="_須簽約兩年_有若干條件_" data-name="*須簽約兩年。有若干條件。" class="cls-1" d="M296.218,75.8l1.008-1.5,1.007,1.5,0.708-.492-1.127-1.415,1.7-.54-0.312-.78-1.619.672,0.06-1.715h-0.852l0.06,1.715-1.619-.672-0.312.78,1.7,0.54-1.163,1.415ZM310.9,78.582V72.426h-2.28a4.973,4.973,0,0,0,.456-0.876h2.676V70.674H305.13l0.012,0.876h2.94a3.773,3.773,0,0,1-.54.876l-1.98.024,0.012,6.132H310.9Zm-4.428-3.552,3.5-.012v0.876h-3.5V75.03Zm3.5-1.7L310,74.118l-3.528.012V73.314Zm0,3.456v0.912h-3.5V76.77Zm-8.112-2.88a11.888,11.888,0,0,0,3.228-3.072l-0.636-.564a16.107,16.107,0,0,1-1.518,1.656,9.914,9.914,0,0,1-1.722,1.32Zm-0.1,3.168a7.933,7.933,0,0,0,1.83-1.242,13.417,13.417,0,0,0,1.65-1.77l-0.264-.246a2.906,2.906,0,0,0-.4-0.318,9.448,9.448,0,0,1-3.468,2.916Zm2.988-.252a9.848,9.848,0,0,1-1.662,1.92,8.494,8.494,0,0,1-2.07,1.38l0.66,0.672a7.947,7.947,0,0,0,2.04-1.416,11.584,11.584,0,0,0,1.7-2Zm7.008,3.408a6.145,6.145,0,0,0-1.314-.924,10.415,10.415,0,0,0-1.554-.648c-0.192.264-.353,0.5-0.48,0.72a7.762,7.762,0,0,1,2.76,1.548Zm-4.416-1.512a7.839,7.839,0,0,1-2.964,1.32l0.528,0.792a8.516,8.516,0,0,0,2.976-1.464Zm10.768-6.828a7.985,7.985,0,0,1-2.178,2.064,14.838,14.838,0,0,1-3.51,1.6l0.792,0.72,1.248-.54-0.012,2.508h1.3a1.952,1.952,0,0,1-.864,1.152,4.093,4.093,0,0,1-1.572.672l0.456,0.792a5.731,5.731,0,0,0,1.3-.51,3.467,3.467,0,0,0,1-.822,5.567,5.567,0,0,1,.99.486q0.426,0.27.57,0.378l0.516-.72a5.946,5.946,0,0,0-1.656-.876,2.538,2.538,0,0,0,.132-0.54h1.224V75.618l-3.1-.024q0.42-.192.918-0.45a7.552,7.552,0,0,0,.81-0.474l0.012,0.5,3.492-.012v-0.5a13.194,13.194,0,0,0,1.716.948h-3.108v2.6l1.344,0.012a1.937,1.937,0,0,1-.114.372,2.121,2.121,0,0,1-.384.564,2.5,2.5,0,0,1-.726.564,4.252,4.252,0,0,1-.756.324l0.492,0.744a4.606,4.606,0,0,0,1.128-.564,5.021,5.021,0,0,0,.828-0.792,5.79,5.79,0,0,1,2.3,1.272l0.576-.72a7.711,7.711,0,0,0-2.628-1.356,1.143,1.143,0,0,0,.1-0.408h1.176V75.7q0.876,0.4,1.3.552l0.552-.792a18.966,18.966,0,0,1-2.1-.882,9.741,9.741,0,0,1-1.62-1,8.555,8.555,0,0,1-1.2-1.116l0.528,0.276,0.5-.636,0.576-.012a5.712,5.712,0,0,1,.948,1.5,9,9,0,0,0,.852-0.384,4.731,4.731,0,0,0-.756-1.1h1.872V71.25h-3.108a3.828,3.828,0,0,0,.276-1.08l-0.816-.192a3.8,3.8,0,0,1-1.068,2.16Zm-1.056,1.1a5.724,5.724,0,0,0-.576-0.888H317.9v-0.84h-2.568a5.411,5.411,0,0,0,.216-1.032l-0.8-.144a4.489,4.489,0,0,1-.24.978,4.4,4.4,0,0,1-.606,1.116,9.657,9.657,0,0,1-.99,1.146l0.864,0.4a9.292,9.292,0,0,0,1.188-1.632h0.48a4.866,4.866,0,0,1,.78,1.332Zm2.4,3.456h1.6l-0.012.936h-1.6Zm-4.128.012h1.644l0.012,0.936-1.656.012V76.458Zm1.632-2.148a7.917,7.917,0,0,0,1.26-1.14l0.318,0.312q0.306,0.3.582,0.54a2.086,2.086,0,0,0,.432.312Zm14.027,6.3a11.557,11.557,0,0,0,1.368.162,5.637,5.637,0,0,0,.624-0.018,1.333,1.333,0,0,0,.48-0.168,1.315,1.315,0,0,0,.462-0.444,1.844,1.844,0,0,0,.27-0.648,19.739,19.739,0,0,0,.276-2.718q0.084-1.746.084-4.89h-3.4a13.509,13.509,0,0,0,.312-1.656L330.621,70a8.668,8.668,0,0,1-.744,2.64,5.338,5.338,0,0,1-1.416,2.016l0.912,0.516a8.76,8.76,0,0,0,1.512-2.412l2.8-.012q-0.012,2.52-.132,4.386a12.345,12.345,0,0,1-.276,2.322,0.705,0.705,0,0,1-.24.276,0.657,0.657,0,0,1-.336.132,13.262,13.262,0,0,1-1.992-.3Zm-3.156-5.232q0.072,0.108.252,0.336a2.943,2.943,0,0,1,.24.336l-1.68.2a10.074,10.074,0,0,0,1.374-1.584,12.1,12.1,0,0,0,1.062-2.04l-0.816-.42a7.986,7.986,0,0,1-.516,1.092q-0.072.012-.672,0.1t-0.816.1a7.292,7.292,0,0,0,.954-1.218,10.2,10.2,0,0,0,.81-1.53l-0.8-.456a8.249,8.249,0,0,1-2.46,3.5l0.444,0.756a9.319,9.319,0,0,1,1.026-.2q0.69-.108,1.014-0.132a7.04,7.04,0,0,1-.882,1.188,12.488,12.488,0,0,1-1.242,1.152l0.576,0.768q0.84-.2,2.928-0.48,0.012,0.036.072,0.186a1.479,1.479,0,0,1,.084.282,0.9,0.9,0,0,1,.012.252l0.864-.324a4.019,4.019,0,0,0-1.056-2.136Zm4.788,1.692a3.018,3.018,0,0,0-.492-1.056,4.9,4.9,0,0,0-.768-0.858,4.128,4.128,0,0,0-.8-0.558l-0.732.516a4.6,4.6,0,0,1,1.29,1.146,3.083,3.083,0,0,1,.666,1.41Zm-2.976,2.784a4.779,4.779,0,0,0-.948-2.388l-0.84.18a4.606,4.606,0,0,1,.912,2.5Zm-4.152.888a5.51,5.51,0,0,0,.612-1.362,8.6,8.6,0,0,0,.288-1.554l-0.828-.216a5.7,5.7,0,0,1-.264,1.536,4.9,4.9,0,0,1-.7,1.344Zm2.3-.54a5.184,5.184,0,0,0-.4-2.58l-0.84.108a5.549,5.549,0,0,1,.378,1.26,3.686,3.686,0,0,1-.042,1.332Zm14.471-1.524a7.254,7.254,0,0,0,.738-0.774,4.732,4.732,0,0,0,.618-1.122,5.031,5.031,0,0,0,.48,1.176,4.387,4.387,0,0,0,.576.744l0.336-.276v1.116a0.268,0.268,0,0,1-.126.246,0.431,0.431,0,0,1-.27.066l-1.1-.048,0.408,0.876h0.36q0.276,0,.48-0.018a2.27,2.27,0,0,0,.384-0.066,1.121,1.121,0,0,0,.552-0.384,0.986,0.986,0,0,0,.216-0.624V72.678h-4.008V71.55h4.86V70.674H336.056v0.864H341V72.69l-4-.012v8.208h0.924V78.342L338.3,78.69a5.152,5.152,0,0,0,.756-0.936,5.868,5.868,0,0,0,.5-0.948,4.03,4.03,0,0,0,1.1,1.968l0.336-.36-0.012,1.9H341.9V78.33ZM341.9,73.554h3.108l-0.024,4.092a6.558,6.558,0,0,1-1.02-3.348h-1.692v0.84h0.972a4.685,4.685,0,0,1-.264,1.02,4.485,4.485,0,0,1-.5,1.02,2.255,2.255,0,0,1-.576.612V73.554ZM341,77.718a2.637,2.637,0,0,1-.5-0.786,7.178,7.178,0,0,1-.408-1.242,6.9,6.9,0,0,1-.2-1.356h-1.728v0.828h1a4.045,4.045,0,0,1-.276,1.038,4.61,4.61,0,0,1-.48.912,3.821,3.821,0,0,1-.48.582v-4.14H341v4.164Zm8.975-7.74a7.822,7.822,0,0,1-2.22,3.984l0.756,0.612a5.825,5.825,0,0,0,.918-1.086,12.708,12.708,0,0,0,.738-1.314h2.472V73.71l-3.192.012v2.832l-1.488-.012v0.9h4.68v3.444h0.948V77.43l4.14,0.012V76.554h-4.14V74.61h3.06V73.722h-3.06l-0.012-1.536,3.66-.024V71.286h-6.72q0.156-.516.186-0.672t0.042-.264Zm2.664,4.632-0.012,1.944h-2.256V74.61h2.268ZM364,75.2a1.618,1.618,0,0,0-.282-0.666,1.433,1.433,0,0,0-.6-0.492,1.694,1.694,0,0,0-.78-0.132,1.393,1.393,0,0,0-.81.33,1.508,1.508,0,0,0-.51.726,1.562,1.562,0,0,0-.042.786,1.423,1.423,0,0,0,.318.69,1.591,1.591,0,0,0,.606.432,1.653,1.653,0,0,0,.738.12,1.426,1.426,0,0,0,.792-0.342,1.613,1.613,0,0,0,.516-0.726A1.471,1.471,0,0,0,364,75.2Zm-0.774.378a0.711,0.711,0,0,1-.2.408,0.789,0.789,0,0,1-.414.216,0.754,0.754,0,0,1-.462-0.048,0.829,0.829,0,0,1-.27-0.228,0.772,0.772,0,0,1-.162-0.324,0.732,0.732,0,0,1,.024-0.372,0.853,0.853,0,0,1,.18-0.324,0.722,0.722,0,0,1,.342-0.2,0.768,0.768,0,0,1,.4-0.012,0.81,0.81,0,0,1,.312.174A0.7,0.7,0,0,1,363.222,75.582Zm4.5,1.8q1.092-1.116,1.458-1.536a7.915,7.915,0,0,0,.57-0.72V80.85H370.7V78.306l4.524,0.012v1.188a0.2,0.2,0,0,1-.066.138,0.22,0.22,0,0,1-.162.066,8.872,8.872,0,0,1-1.512-.06q0.108,0.276.42,0.924h0.69a4.779,4.779,0,0,0,.906-0.06,1.037,1.037,0,0,0,.426-0.3,0.808,0.808,0,0,0,.2-0.456V73.626H370.69q0.156-.324.432-1.116l6.456-.012V71.634H371.47q0.288-.984.4-1.488l-0.924-.2q-0.24,1-.33,1.278t-0.138.4h-2.856V72.5l2.52,0.012a7.982,7.982,0,0,1-1.23,2.178,15.679,15.679,0,0,1-2.022,2.142ZM375.2,74.5v0.984l-4.5-.012V74.5h4.5Zm-4.524,1.848,4.536,0.012v1.08h-4.536V76.35Zm11.759-2.412v-1.32h1.608V71.742h-1.608V70.158h-0.9V71.73l-2.484.012,0.012,0.864,2.472,0.012v1.32h0.9Zm-2.8,4.92a20.846,20.846,0,0,0,2.052-1.416V80.85h0.912V80.01l4.26-.012,0.012,0.84h0.9l0.012-4.3h-5.148a10.546,10.546,0,0,0,1-1.272l5.4-.012V74.394h-4.872a12.646,12.646,0,0,0,.516-1.272l-0.84-.36a9.069,9.069,0,0,1-.756,1.632h-3.672v0.864h3.144a7.893,7.893,0,0,1-1.212,1.26,18.793,18.793,0,0,1-2.376,1.644Zm7.14-4.956v-1.3h2.484l0.012-.864h-2.508v-1.6h-0.9v1.6H384.3v0.876h1.584V73.9h0.9Zm-4.176,5.232V77.418h4.272v1.7Zm12.533-3.684v5.424h0.948V75.45l4.308-.012v-0.9l-4.308-.012V71.742h3.528L399.6,70.83h-7.98v0.912h3.516l0.012,2.8h-4.344v0.9Zm10.6-.516,0.408,0.684q0.564-.12,1.092-0.288a6.72,6.72,0,0,0,.972-0.39q0.444-.222,1.02-0.57a4.717,4.717,0,0,0,.732.486,5.488,5.488,0,0,0,1.05.432q0.606,0.186,1.314.33l0.42-.876a5.486,5.486,0,0,1-2.772-.912,4.567,4.567,0,0,0,.654-0.606,4.5,4.5,0,0,0,.516-0.684,3.777,3.777,0,0,0,.294-0.582h0.816V71.07h-3.588l0.3-.78L408.169,70a9.337,9.337,0,0,1-.678,1.458,6.956,6.956,0,0,1-.858,1.218,5,5,0,0,1-.8.744l0.816,0.552a8.891,8.891,0,0,0,1.188-1.368,6.182,6.182,0,0,0,.732,1.152,8.989,8.989,0,0,1-2.856,1.056V72.1h-0.888v6.3h0.888Zm4.8-2.988a9.879,9.879,0,0,1-.66.822,7.434,7.434,0,0,1-.54.522,4.25,4.25,0,0,1-.828-1.332Zm-6.36,1.536a29.108,29.108,0,0,0,.84-3.132l-0.8-.312q-0.312,1.332-.564,2.136a13.239,13.239,0,0,1-.648,1.65,11.884,11.884,0,0,1-1.188,1.926l0.732,0.552q0.1-.108.246-0.306t0.3-.426q0.15-.228.162-0.24l-0.012,5.556h0.924Zm8.832,5.9a5.76,5.76,0,0,1-2.532-2.544l1.644-.012-0.012-.876h-2.424l-0.012-1.164h-0.924v1.164h-2.388l-0.012.888h1.584a4.541,4.541,0,0,1-.69,1.02,6.275,6.275,0,0,1-.942.888,7.965,7.965,0,0,1-.876.588l0.6,0.768a10.471,10.471,0,0,0,1.728-1.518,5.057,5.057,0,0,0,1-1.47V80.85h0.924l0.024-3.66a5.744,5.744,0,0,0,2.6,2.844Zm1.5-3.072q0.766-1.1,1.092-1.62v6.18l0.924-.012V72.978a14.636,14.636,0,0,0,.744-2.724l-0.864-.18a12.385,12.385,0,0,1-2.676,5.688Zm5.82,0.3L420.312,80.8h0.96l0.012-4.188,3.3-.012V75.69l-3.3.012V73.314l2.484,0.012V72.414l-2.484-.012V70.038l-0.96-.012L420.312,72.4,419,72.414a5.709,5.709,0,0,0,.18-1.236l-0.828-.264a8.772,8.772,0,0,1-.51,2.094,7.651,7.651,0,0,1-1.026,1.818l0.84,0.42a11.227,11.227,0,0,0,1.044-1.932l1.62,0.012L420.312,75.7h-3.336l-0.012.912h3.36Zm10.462-1.41a1.618,1.618,0,0,0-.282-0.666,1.426,1.426,0,0,0-.6-0.492,1.694,1.694,0,0,0-.78-0.132,1.393,1.393,0,0,0-.81.33,1.508,1.508,0,0,0-.51.726,1.574,1.574,0,0,0-.042.786,1.432,1.432,0,0,0,.318.69,1.591,1.591,0,0,0,.606.432,1.658,1.658,0,0,0,.738.12,1.426,1.426,0,0,0,.792-0.342,1.605,1.605,0,0,0,.516-0.726A1.448,1.448,0,0,0,430.786,75.2Zm-0.774.378a0.711,0.711,0,0,1-.2.408,0.782,0.782,0,0,1-.414.216,0.754,0.754,0,0,1-.462-0.048,0.829,0.829,0,0,1-.27-0.228,0.772,0.772,0,0,1-.162-0.324,0.743,0.743,0,0,1,.024-0.372,0.853,0.853,0,0,1,.18-0.324,0.722,0.722,0,0,1,.342-0.2,0.768,0.768,0,0,1,.4-0.012,0.81,0.81,0,0,1,.312.174A0.7,0.7,0,0,1,430.012,75.582Z"/>
</svg>
