<svg xmlns="http://www.w3.org/2000/svg" width="728" height="90" viewBox="0 0 728 90">
  <defs>
    <style>
      .cls-1 {
        fill: #4b286d;
        fill-rule: evenodd;
      }
    </style>
  </defs>
  <path id="_直播電視" data-name=" + 直播電視" class="cls-1" d="M287.18,42.327h-7.709V34.618H276.22v7.709h-7.751v3h7.751v7.709h3.251V45.328h7.709v-3Zm19.08-8.956V56.954h-6.25l0.042,3L335.635,60l-0.042-3.042H329.26V33.371H318.927a17.726,17.726,0,0,0,1.041-2.792l14.209-.042v-3l-13.5-.042,0.333-2.542-3.375-.875a16.643,16.643,0,0,1-.375,3.458H301.135v3h15.458a17.537,17.537,0,0,1-1.208,2.833H306.26Zm3.167,8.333h16.666v3.083H309.427V41.7Zm0,8.75V47.621h16.666l0.042,2.875ZM326.093,36.5v2.417l-16.708.042v-2.5ZM309.385,53.454h16.708v3.5H309.385v-3.5Zm42.292-18.792v2.958h7.541a14.014,14.014,0,0,1-1.9,2.292,17.355,17.355,0,0,1-3.313,2.542,22.939,22.939,0,0,1-4.25,2.042l1.875,2.708,2.917-1.5,0.041,15.75h3.084V58.746h12.75v2.708h2.958V44.538L356.468,44.5a15.378,15.378,0,0,0,3.271-2.75,13.987,13.987,0,0,0,2.438-3.25v5.458L365.343,44l0.042-6.375H376.01V34.663H365.385v-6a54.965,54.965,0,0,0,9.542-2.083l-1.917-2.458a46.728,46.728,0,0,1-9.646,1.792q-6.145.625-12.437,0.667l1.791,3.042q0.166,0,1.417-.021t1.708,0.021L353.968,30.7a9.989,9.989,0,0,1,2.125,1.9,11.4,11.4,0,0,1,1.334,2.063h-5.75ZM365.51,47.5l4.917,0.042V50.2H365.51V47.5Zm-3.083,8.292h-4.75V53.121h4.75v2.667Zm0-8.25V50.2h-4.792V47.5Zm7.958,5.583,0.042,2.667h-4.959l0.042-2.667h4.875Zm-29.458-5.333q0.582-.25,1.271-0.562t1.687-.833q1-.521,1.25-0.646V57.079a1.51,1.51,0,0,1-.167.813,0.728,0.728,0,0,1-.541.479,8.02,8.02,0,0,1-1.917.042q-1.291-.083-1.875-0.083Q341.05,59.62,341.8,61.5h1.541q1.125,0,1.75-.042a4.823,4.823,0,0,0,1.042-.167,2.783,2.783,0,0,0,1.5-1.125,3.106,3.106,0,0,0,.625-1.833L348.3,44.538l4.125-2.083-0.084-3.25L348.3,41.121V34.454h4.125V31.5H348.3l-0.042-7.208h-3.125V31.5l-4.958.042-0.042,2.917h5l0.042,8q-2.292,1.125-6.292,2.75Zm17.958-13.208,1.542-.708a17.132,17.132,0,0,0-1.5-2.417,13.665,13.665,0,0,0-1.792-2.042q1.041-.041,2.833-0.187t2.209-.146v5.583Zm10.333-.25a11.906,11.906,0,0,0,3.5-4.625L370.8,28.538a8.267,8.267,0,0,1-1.521,2.417,17.948,17.948,0,0,1-2.1,2.125ZM377.343,44a19.853,19.853,0,0,0-9.833-6l-1.958,2.292a16.871,16.871,0,0,1,4.062,1.542,18.251,18.251,0,0,1,3.5,2.333,17.557,17.557,0,0,1,2.229,2.25Zm21.9,10.667L411.66,54.7V42.746L383.743,42.7v12l12.375-.042-0.041,1.792a5.965,5.965,0,0,0,.229,1.583,2.564,2.564,0,0,0,.979,1.4,3.255,3.255,0,0,0,2,.563h12.708a3.1,3.1,0,0,0,2.584-1.437q1.041-1.437,1.75-5.854l-3-1q-0.375,2.625-.625,3.708a2.914,2.914,0,0,1-.563,1.063,1.184,1.184,0,0,1-.937.479H400.66a1.628,1.628,0,0,1-1.083-.292,0.905,0.905,0,0,1-.334-0.708V54.663Zm0-7.417V45.788l9.292-.083-0.042,1.542h-9.25Zm-12.375,4.417V49.954h9.25l-0.041,1.708h-9.209Zm9.209-5.917,0.041,1.5h-9.25V45.788Zm12.416,5.917h-9.25V49.954L408.535,50ZM396.118,33.579l-0.041,8.375h3.166V33.621l11.792-.042v3.667L414.2,37.2l-0.042-6.667H399.243v-1.5H412.2l0.041-3H383.118v3h12.959v1.5H380.993l0.042,7,3.125-.042V33.579h11.958Zm4.375,4,9.834-.042v-2.75h-9.875Zm-5.666-2.792h-9.709v2.75h9.709v-2.75Zm5.666,3.958v2.708h9.834l-0.042-2.708h-9.792Zm-15.375,0,0.042,2.708h9.667l0.041-2.708h-9.75Zm61.967,8.625,4.583-.042V25.871l-17.416.042V47.454l3.958-.042a11.388,11.388,0,0,1-1.417,5.521,8.409,8.409,0,0,1-4,3.771,19.127,19.127,0,0,1-4.5,1.625l1.75,2.833a11.949,11.949,0,0,0,2.23-.708q1.062-.459,2.395-1.125a10.741,10.741,0,0,0,2.9-2.167,11.981,11.981,0,0,0,2.063-2.917,15.97,15.97,0,0,0,1.229-3.4,14.647,14.647,0,0,0,.437-3.437l2.667,0.042-0.042,9.25a3.3,3.3,0,0,0,1.271,1.917,3.88,3.88,0,0,0,2.063.875h4.166a3.53,3.53,0,0,0,2.917-1.542,12.421,12.421,0,0,0,.979-2.458q0.4-1.375.771-3.333a32.213,32.213,0,0,0-3-1.333,18.1,18.1,0,0,1-.75,4.542,1.591,1.591,0,0,1-.479.688,1.389,1.389,0,0,1-.813.354h-2.791a1.178,1.178,0,0,1-.771-0.354,1.064,1.064,0,0,1-.4-0.812V47.371ZM437.5,34.954h10.875V38l-10.875.042V34.954Zm10.875-6.083v3.083l-10.959-.042v-3Zm-10.834,15.5V41.079l10.917,0.042v3.25H437.543Zm-8.666-14.833a28.412,28.412,0,0,0-4.625-6.042l-2.334,2.042q1.167,1.375,2.438,3.167t1.812,2.708Zm-8.334,18.833a26.052,26.052,0,0,0,2.25-1.5,14.237,14.237,0,0,0,1.917-1.625V61.538l3-.042V45.371q1.709,0.834,3.667,4.083,0.833-.583,2.541-2.042a18.433,18.433,0,0,0-2.395-2.75,17.451,17.451,0,0,0-2.855-2.25l-0.875.833-0.041-1.625a19.392,19.392,0,0,0,2.812-4.646,17.457,17.457,0,0,0,1.354-5.437l-12.083.042,0.083,3h8.459a18.837,18.837,0,0,1-3.709,6.125,32,32,0,0,1-6.125,5.458Z"/>
</svg>
