<svg id="Frame_1" data-name="Frame 1" xmlns="http://www.w3.org/2000/svg" width="728" height="90" viewBox="0 0 728 90">
  <defs>
    <style>
      .cls-1 {
        fill: #fff;
        fill-rule: evenodd;
      }
    </style>
  </defs>
  <path id="用更節能的方式_讓家保持溫暖明亮" data-name="用更節能的方式 讓家保持溫暖明亮" class="cls-1" d="M272.1,19.371l0,11.57a17.4,17.4,0,0,1-.287,3.107,12.7,12.7,0,0,1-.833,2.821,16.52,16.52,0,0,1-2.419,3.639l1.664,1.249a17.251,17.251,0,0,0,2.627-3.938,16.51,16.51,0,0,0,1.171-4.927l5.694,0v6.188h2.028V32.893l5.668,0v5.564a0.628,0.628,0,0,1-.1.377,0.432,0.432,0,0,1-.312.169,7.075,7.075,0,0,1-.975.039q-0.507-.013-1.781-0.065l0.623,2.028,2.964-.051a1.683,1.683,0,0,0,.715-0.325,2.11,2.11,0,0,0,.637-0.806,2.256,2.256,0,0,0,.261-0.975l0-19.474Zm7.617,1.926v3.77l-5.59,0V21.3Zm7.643,5.67-0.027,4-5.59,0,0.027-4ZM281.741,21.3l5.616,0v3.744l-5.59.024Zm-7.619,5.666,5.59,0v4l-5.59,0v-4Zm42.384,12.544q-2.418-.053-5.083-0.352a43.937,43.937,0,0,1-4.692-.755,12.49,12.49,0,0,1-3.172-1.08,7.759,7.759,0,0,0,1.092-1.963,9.88,9.88,0,0,0,.6-2.3l7.592,0,0-9.62-7.228,0V21.512l10.062,0.029V19.694L293.5,19.688v1.846l10.192-.023v1.924l-7.462,0-0.029,9.62,7.072,0a8.222,8.222,0,0,1-.534,1.716,7.1,7.1,0,0,1-.9,1.56,30.692,30.692,0,0,1-3.8-2.965l-1.508,1.014a17.719,17.719,0,0,0,3.769,3.329,22.516,22.516,0,0,1-3.914,1.468,35.141,35.141,0,0,1-3.653.818l1.17,1.742a18.266,18.266,0,0,0,7.462-2.468l0.806-.546a24.287,24.287,0,0,0,4.966,1.73,47.251,47.251,0,0,0,8.138,1.055Zm-5.56-12.222-5.3,0,0.026-2h5.278v2ZM298.154,25.28l5.538,0.027v1.976l-5.538,0v-2Zm12.817,3.852v2.054l-5.512,0,0.131-2.054Zm-12.818,0,5.486,0-0.105,2.054-5.382-.027V29.128Zm22.606,12.408q0.78-.442,7.515-2.806,0.26,0.442.728,1.326t0.545,1.04q0.676-.312,1.769-0.961a21.789,21.789,0,0,0-2.079-3.407,11.491,11.491,0,0,0-1.872-1.9l-1.742.962a8.008,8.008,0,0,1,1.559,1.508l-4.966,1.637V34.568l7.592,0,0-8.892-9.568,0,0.022,12.818a1.7,1.7,0,0,1-.312,1.1,2.169,2.169,0,0,1-.754.585Zm7.076-14.012,0.026,1.586-5.668-.028v-1.56Zm0,3.406v1.794l-5.616,0V30.928Zm2.446-8.553,0.027-1.872-6.994.024q0.025-.052.156-0.442t0.234-.728q0.1-.337.156-0.546l-1.793-.677a11.516,11.516,0,0,1-3.9,6.525l1.533,1.3a12.181,12.181,0,0,0,1.756-1.82,8.9,8.9,0,0,0,1.183-1.768h1.9a12.876,12.876,0,0,1,1.768,2.964l0.39-.169q0.207-.091,1.352-0.715a9.57,9.57,0,0,0-1.378-2.08h3.614Zm11.154-.075V20.455l-7.67-.028q0.26-.884.442-1.768l-1.767-.651a11.283,11.283,0,0,1-1.34,3.471,9.226,9.226,0,0,1-2.51,2.742l1.664,1.326a9.834,9.834,0,0,0,2.7-3.249h2.262a11.476,11.476,0,0,1,1.638,2.913A4.456,4.456,0,0,0,337.365,25c0.182-.087.411-0.212,0.689-0.377s0.468-.273.572-0.325a14.439,14.439,0,0,0-1.3-2h4.108Zm-3.641,5.147,0.024,7.514a0.7,0.7,0,0,1-.195.494,0.589,0.589,0,0,1-.507.182l-2.886-.157,0.857,2.028q0.39-.026,1.625,0a5.549,5.549,0,0,0,1.677-.13,3.093,3.093,0,0,0,.9-0.6,1.5,1.5,0,0,0,.39-0.741,3.546,3.546,0,0,0,.091-0.689l0-9.75-8.19-.028,0,15.99h1.976l-0.022-14.118h4.264Zm16.437-.1-9.386,0,0,14.2,1.976,0.027q-0.024-2.938,0-5.434h5.408V38.58a0.841,0.841,0,0,1-.117.416,0.413,0.413,0,0,1-.3.234,6.593,6.593,0,0,1-1.443,0q-0.9-.078-1.287-0.1l0.728,2a17.949,17.949,0,0,0,2.808-.077,1.619,1.619,0,0,0,1.157-.611,3.25,3.25,0,0,0,.455-1.313ZM346.845,30.8l-0.025-1.586h5.408v1.56Zm-0.026,1.872,5.434,0-0.027,1.586h-5.408V32.677Zm1.72-14.741q-1.587,2.7-2.133,3.457a15.381,15.381,0,0,1-1.053,1.313,9.921,9.921,0,0,1-.976.949,2.559,2.559,0,0,1-.546.481,6.082,6.082,0,0,0-.572.455l1.43,1.742q0.468-.052,2.717-0.35t3.64-.441q1.391-.142,2.353-0.194,0.468,1.04.532,1.235c0.044,0.13.082,0.256,0.117,0.377a8.545,8.545,0,0,0,1.119-.442c0.45-.208.7-0.32,0.754-0.338a16.1,16.1,0,0,0-1.56-2.925,11.445,11.445,0,0,0-2.105-2.379l-1.742.962a16.576,16.576,0,0,1,1.611,1.716l-5.538.466a13.153,13.153,0,0,0,1.9-2.183,26.5,26.5,0,0,0,1.847-2.989Zm15.546,5.906q-0.573,3.51-1.223,3.51H359.43a1.836,1.836,0,0,1-.9-0.221,0.632,0.632,0,0,1-.4-0.533V24.7a25.46,25.46,0,0,0,4.472-1.767,16.669,16.669,0,0,0,2.861-1.9l-1.2-1.482a16.679,16.679,0,0,1-3.055,1.936,17.708,17.708,0,0,1-3.081,1.26l-0.025-4.5-1.95.026L356.18,27.3a2.043,2.043,0,0,0,.741,1.339,2.4,2.4,0,0,0,1.651.586H363.2a1.633,1.633,0,0,0,1.144-.533,3.175,3.175,0,0,0,.78-1.157,28.169,28.169,0,0,0,.859-2.964ZM356.1,29.949l0,8.32a1.972,1.972,0,0,0,.416,1.17,2.292,2.292,0,0,0,.988.806,2.725,2.725,0,0,0,1.014.234l4.706-.025a2.962,2.962,0,0,0,.936-0.273,2.055,2.055,0,0,0,.754-0.585,4.212,4.212,0,0,0,.494-0.871,9.811,9.811,0,0,0,.482-1.56q0.246-1.027.351-1.313l-1.846-.7a11.36,11.36,0,0,1-.625,2.73,1.142,1.142,0,0,1-.78.728h-4a1.069,1.069,0,0,1-.715-0.2,0.592,0.592,0,0,1-.221-0.455l0.027-2.444a21.975,21.975,0,0,0,3.965-1.208,15.806,15.806,0,0,0,3.68-2.092L364.4,30.835a14.6,14.6,0,0,1-3.068,1.689,21.3,21.3,0,0,1-3.25,1.039l-0.025-3.64ZM382.076,18.1a22.929,22.929,0,0,1-3.929,9.931l0.028-5.122H374.2a16.534,16.534,0,0,0,1.4-3.848l-1.872-.755a15.83,15.83,0,0,1-1.587,4.6h-2.392l0,17.992H371.8V38.793l4.368-.025q0,0.131-.027.871a9.575,9.575,0,0,0,.026,1.261l2-.025,0-11.986,1.352,0.858a21,21,0,0,0,3.017-5.433l5.538,0a82.322,82.322,0,0,1-.861,11.492,16.443,16.443,0,0,1-.858,3.068,0.964,0.964,0,0,1-.989.468,19.3,19.3,0,0,1-3.925-1.093l0.337,2.184a25.637,25.637,0,0,0,3.419.807,4.561,4.561,0,0,0,1.209,0,2.307,2.307,0,0,0,1.092-.65,3.77,3.77,0,0,0,.911-1.534,23.919,23.919,0,0,0,.91-3.7q0.314-1.911.43-3.523t0.17-2.977q0.052-1.365.079-3.562t0.053-2.795l-7.02,0q0.1-.364.429-1.352t0.469-1.56q0.142-.572.221-1.014Zm-5.982,6.654v5.07l-4.316-.027-0.025-5.044h4.342ZM371.8,36.9l0-5.2,4.316-.025,0.024,5.252Zm14.717-2.57a19.476,19.476,0,0,0-1.533-3.25,22.837,22.837,0,0,0-2.262-3.095l-1.612,1.066a22.774,22.774,0,0,1,3.535,6.111Zm15.645-5.586q0.157-2.7.158-4.472l13.078-.023V22.321l-9.516-.055,0.65-.442a6.819,6.819,0,0,0-1.611-2.171A13.972,13.972,0,0,0,402.66,17.9l-1.846,1.117a9.1,9.1,0,0,1,2.2,1.522,5.688,5.688,0,0,1,1.338,1.781l-10.66,0v1.924l6.5,0q0,3.692-.158,5.3a14.427,14.427,0,0,1-1.21,4.849,9.5,9.5,0,0,1-2.484,3.21,12.986,12.986,0,0,1-3.927,2.157l1.352,1.872a13.39,13.39,0,0,0,3.459-1.9,10.4,10.4,0,0,0,2.2-2.235,13.774,13.774,0,0,0,1.2-2.067,13.5,13.5,0,0,0,.7-1.924q0.273-.975.69-2.847l7.644,0a35,35,0,0,1-.326,3.744,34.592,34.592,0,0,1-.69,3.64,1.171,1.171,0,0,1-1.4.858,26.813,26.813,0,0,1-4.368-1.223L403.252,40a31.334,31.334,0,0,0,3.8.794,8.681,8.681,0,0,0,1.2.065,1.08,1.08,0,0,0,.26-0.052,2.351,2.351,0,0,0,1.274-.637,2.741,2.741,0,0,0,.781-1.209,37.735,37.735,0,0,0,1.38-10.244Zm16.161-5.508v1.924l12.35,0a58.085,58.085,0,0,0,1.195,7.007,20.258,20.258,0,0,0,1.7,4.511,16.879,16.879,0,0,0,2.4,3.459,4.95,4.95,0,0,0,1.378,1.105,2.191,2.191,0,0,0,1.027.273,1.586,1.586,0,0,0,.741-0.234,2.257,2.257,0,0,0,.624-0.6,18.384,18.384,0,0,0,1.2-4.446l-2-.858A18.047,18.047,0,0,1,438.5,38.6q-0.234.7-.572,0.6a7.8,7.8,0,0,1-2.106-2.523,19.626,19.626,0,0,1-1.507-3.367,30.555,30.555,0,0,1-.974-3.705,36.359,36.359,0,0,1-.584-4.446l7.28,0V23.238l-7.488-.028q-0.156-1.43-.311-4.992l-2.054.077q0.182,3.692.311,4.914Zm20.462-1.658a8.091,8.091,0,0,0-4.419-2.653l-1.56,1.482a9.612,9.612,0,0,1,2.9,1.171,8.075,8.075,0,0,1,1.677,1.482ZM431.32,36.652l-0.129-1.9-5.148,1.195-0.025-5.642h4.03V28.383l-10.166,0,0.025,1.9,4.134,0.027,0,6.188-5.3,1.3,0.728,1.846ZM263.989,70.2a20.278,20.278,0,0,0,2.626-.883V70.8a0.456,0.456,0,0,1-.195.143q-0.142.065-.767,0.3l0.988,1.56q1.3-.52,5.226-1.611l-0.051-1.742q-1.014.208-3.276,0.805V68.146a8.207,8.207,0,0,0,1.665-1.612h0.624a9.674,9.674,0,0,0,.935,2.08,7.21,7.21,0,0,0,2.664,2.692,12.457,12.457,0,0,0,3.861,1.47l0.832-1.716a8.406,8.406,0,0,1-1.794-.377,10.077,10.077,0,0,1-2.157-1.054,11.09,11.09,0,0,0,2.6-2.027l-1.195-1.092h1.69l-0.026-1.742h-3.8V63.753h2.73V62.012h-2.73V61.179h3.51V59.464h-3.484V58.371H277.3V53.978l-6.006,0v4.446l1.352-.026-0.027,1.066h-3.744a5.5,5.5,0,0,1,0-1.066h1.274v-4.42l-5.98,0v4.42h2.886v1.066h-3.484l0.026,1.716h3.484v0.806l-2.652.025v1.716h2.652v1.04h-3.666v1.768l4.42,0.053a11.568,11.568,0,0,1-4.915,2.053V63.7l-5.9,0,0,8.606h1.872V70.509h2.184v1.768h1.846l0.053-3.354Zm8.659-6.446-0.026,1.014h-3.64V63.752h3.666Zm-0.025-2.574v0.832h-3.744V61.178h3.744Zm3.8,5.3a10.945,10.945,0,0,1-2.575,2.053,5.635,5.635,0,0,1-.572-0.949,9.367,9.367,0,0,1-.493-1.105h3.64Zm-15.392-1.018v3.276h-2.132l0.027-3.276h2.106Zm14.484-8.706h-2.418v-1.2h2.418v1.2Zm-9.593-1.2h2.47V56.81h-2.47V55.561Zm-2.73-2.445-2.834-.053,0.988-.416a14.646,14.646,0,0,0-1.026-1.9,9.126,9.126,0,0,0-1.209-1.56l-1.742.936a8.6,8.6,0,0,1,1.352,1.638,9.7,9.7,0,0,1,.649,1.352h-3.588l0.026,1.82,7.93,0V53.194l14.716,0.03V51.4l-6.734,0a15.008,15.008,0,0,0-1.924-2.237L268,50.1q1.273,1.067,1.352,1.157c0.052,0.061.095,0.108,0.13,0.143l-6.266-.028Zm0.155,3.3-6.552,0v1.846l6.552-.024v-1.82Zm0,3.458-6.552,0V61.72l6.552,0V59.876ZM302.874,52.5l-8.788,0a9.69,9.69,0,0,0-1.573-2.028,8.943,8.943,0,0,0-1.728-1.379l-1.639,1.222a19.265,19.265,0,0,1,2.041,1.639,3.919,3.919,0,0,1,.429.546l-9.386,0,0,4.836h2l-0.025-2.99,16.666,0v2.886h2Zm1.243,16.718a7.211,7.211,0,0,1-2.248-1.4A12.155,12.155,0,0,1,299.88,65.5a10.27,10.27,0,0,1-1.325-2.7,19.008,19.008,0,0,0,2.887-2.6l-1.508-1.326a11.279,11.279,0,0,1-4.811,3.743,6.872,6.872,0,0,0-1.053-1.651,6.13,6.13,0,0,0-1.39-1.261,18.561,18.561,0,0,0,2.5-1.663h4.784V56.194l-14.664,0-0.027,1.872,6.552,0.028a26.848,26.848,0,0,1-9.465,2.935l1.352,1.716a22.694,22.694,0,0,0,7.047-2.052,7.875,7.875,0,0,1,1.3.884A17.081,17.081,0,0,1,289.637,63a18.327,18.327,0,0,1-3.445,1.26,37.391,37.391,0,0,1-4.33.87l1.378,1.69a19.6,19.6,0,0,0,5.265-1.273,24.139,24.139,0,0,0,4.616-2.495,10.649,10.649,0,0,1,.7,1.508,17.183,17.183,0,0,1-5.46,3.158,35.913,35.913,0,0,1-7.021,1.7l1.43,1.794a41.9,41.9,0,0,0,4.329-1.052,26.881,26.881,0,0,0,3.952-1.52,14.363,14.363,0,0,0,3.186-2.053,21.7,21.7,0,0,1-.105,3.484,1.136,1.136,0,0,1-.286.494,1.426,1.426,0,0,1-.468.364,8.7,8.7,0,0,1-1.9-.169,21.712,21.712,0,0,1-2.47-.664l0.8,2.314q3.354,0.625,4.55.183a2.25,2.25,0,0,0,1.158-.9,5.036,5.036,0,0,0,.611-2.249,14.943,14.943,0,0,0-.012-2.561,19.522,19.522,0,0,0-.376-2.561l1.248-.52a15.577,15.577,0,0,0,1.065,2.327,12.741,12.741,0,0,0,1.988,2.666,8.091,8.091,0,0,0,2.769,1.951Zm6.534-19.784a20.624,20.624,0,0,1-1.965,6.408,21.823,21.823,0,0,1-3.966,5.472l1.456,1.4,0.546-.546q0.39-.39,2.054-2.521l0,13.312h1.95l0-16.744a27.091,27.091,0,0,0,1.015-2.9,24.712,24.712,0,0,0,.7-3.081Zm16.714,13.628v-1.9l-6.812,0v-2.08h4.888l0-8.372-11.986,0,0,8.372,5.148-.025v2.106l-6.968,0v1.9h5.3a16.36,16.36,0,0,1-1.924,3.106A12.3,12.3,0,0,1,312.8,68.4a11.414,11.414,0,0,1-1.924,1.208l1.455,1.508a13.188,13.188,0,0,0,2.38-1.715,15.89,15.89,0,0,0,2.327-2.6,11.773,11.773,0,0,0,1.561-2.782l-0.028,8.866h1.976l0.054-9.2a13.648,13.648,0,0,0,6.758,7.36l1.535-1.456a17.313,17.313,0,0,1-4.121-2.822,9.937,9.937,0,0,1-2.378-3.706h4.966Zm-3.9-5.877-8.034,0-0.025-4.6,8.086,0Zm8.381,15.576h2.418a2.209,2.209,0,0,0,1.56-.507,1.941,1.941,0,0,0,.546-1.495l0.028-7.488,2.991-1.117V60.053l-2.99,1.221V56.438h3.146l-0.025-1.846H336.4V49.418h-2l0.025,5.174h-3.562v1.846h3.562v5.512q-0.677.26-2.353,0.792t-1.86.584l1.3,1.638a15.047,15.047,0,0,0,1.508-.481,14.241,14.241,0,0,0,1.4-.585v6.266a0.725,0.725,0,0,1-.261.6,2.717,2.717,0,0,1-.845.143,11.218,11.218,0,0,1-1.157-.039q-0.677-.052-0.936-0.052Zm15.964-.022a2.633,2.633,0,0,0,1.5-.637,2.144,2.144,0,0,0,.585-1.287l0-6.318h3.848V62.657h-3.822v-2h-1.976l-0.026,2-9.126,0V64.5l9.126,0,0,5.9a0.691,0.691,0,0,1-.52.442,24.685,24.685,0,0,1-2.964-.131,13.652,13.652,0,0,0,.754,2Zm-0.566-23.348h-2V53.06h-5.018L340.2,54.9h5.044V58.13l-5.98,0V60l14.326-.022V58.133l-6.344.024V54.933l4.914-.025V53.062h-4.914V49.395Zm-1.591,18.98a16.743,16.743,0,0,0-4.7-3.121l-1.3,1.43a17.905,17.905,0,0,1,4.68,3.147ZM364.208,61.1l12.272,0-0.023-10.036-12.246,0Zm10.271-3.559a17.45,17.45,0,0,0-3.327-2.341,7.113,7.113,0,0,0,.286-2l-1.066-.234h4.082Zm-8.267-4.578h3.25a5.1,5.1,0,0,1-.781,2.977,4.594,4.594,0,0,1-2.47,1.546V52.962Zm8.24,6.242-8.268,0V58.084l1.169,1.066a8.383,8.383,0,0,0,3.043-2.131,7.15,7.15,0,0,1,2.833,2.159l1.223-1.04V59.2Zm5.041,12.949V70.23h-1.742l0-7.566-14.9,0,0,7.566h-1.638l-0.026,1.924Zm-7.982-1.926h-2.392l0-5.668h2.392Zm4.212,0h-2.314l-0.024-5.668H375.7Zm-10.814-5.671h2.314l0,5.668h-2.314Zm-1.245-10.27a5.472,5.472,0,0,0-.949-1.222,9.392,9.392,0,0,0-1.664-1.313,14.9,14.9,0,0,0-1.936-1.053l-1.405,1.274a9.571,9.571,0,0,1,4.393,3.771Zm-1.458,5.1a9.916,9.916,0,0,0-4.965-3.459l-1.3,1.352A17.6,17.6,0,0,1,358,58.342a9.332,9.332,0,0,1,1.611,1.222,11.446,11.446,0,0,1,1.118,1.222Zm-4.293,13.233a15.093,15.093,0,0,0,2.51-4.328,28.316,28.316,0,0,0,1.679-5.681l-1.69-.833a26.323,26.323,0,0,1-1.692,5.343,14.959,14.959,0,0,1-2.757,4.484ZM388.438,67.4l0.03-15.7-6.266,0,0,18.044h1.976V67.4h4.264Zm-1.947-8.919h-2.34l0.027-4.888h2.314v4.888Zm-0.028,7.046h-2.288V60.247h2.288v5.278Zm17.7,5.361a17.773,17.773,0,0,1-3.211-.625,8.6,8.6,0,0,1-2.716-1.2,12.544,12.544,0,0,0,1.859-1.82,11.882,11.882,0,0,0,1.522-2.262V63.19l-8.216,0a2.715,2.715,0,0,0,.2-0.559,3.891,3.891,0,0,1,.169-0.533l9.568,0V60.252l-9.334,0,0.39-1.2,7.982,0V57.184l-9.984-.055,1.352-.676a6.812,6.812,0,0,0-1.143-1.872,6.334,6.334,0,0,0-1.508-1.379l-1.638.832a8.079,8.079,0,0,1,2.417,3.147h-1.794v1.872h2.392a4.868,4.868,0,0,1-.364,1.2h-2.99v1.846h2.522a11.446,11.446,0,0,1-1.626,3.458,13.6,13.6,0,0,1-2.666,3.015l1.9,1.014a19.778,19.778,0,0,0,3.121-4.159,16.694,16.694,0,0,0,1.195,1.9,13.4,13.4,0,0,0,1.378,1.664,19.406,19.406,0,0,1-6.215,2.026l1.066,1.82a17.239,17.239,0,0,0,3.64-1.013,21.483,21.483,0,0,0,3.068-1.585,16.755,16.755,0,0,0,6.474,2.5Zm-4.782-5.8a11.941,11.941,0,0,1-1.47,1.755A8.723,8.723,0,0,1,396.6,67.92a6.722,6.722,0,0,1-1.1-1.209,18.253,18.253,0,0,1-1.13-1.625h5.018Zm2.24-15.573a29.79,29.79,0,0,1-4.979,1.143,71.764,71.764,0,0,1-8.177.6l0.883,1.872a37.744,37.744,0,0,0,5.031-.324,50.989,50.989,0,0,0,5.4-.856,14.817,14.817,0,0,0,3.147-1Zm-0.964,7.436a11.581,11.581,0,0,0,1.353-4.264l-1.716-.495a12.936,12.936,0,0,1-1.457,3.952Zm-2.7-.755a9.6,9.6,0,0,0-1.949-3.328l-1.9.545a11.692,11.692,0,0,1,1.4,1.989,7.112,7.112,0,0,1,.572,1.5ZM414,72.787a13.444,13.444,0,0,0,2.978-2.716,11.648,11.648,0,0,0,1.69-2.846,10.132,10.132,0,0,0,.69-2.86l5.8,0.028,0.025,5.252a0.552,0.552,0,0,1-.195.377,0.7,0.7,0,0,1-.4.221,2.635,2.635,0,0,1-.793.052q-0.507-.026-2.067-0.157l0.65,2.028q0.7-.026,2.808.027a2.622,2.622,0,0,0,1.3-.728,1.7,1.7,0,0,0,.676-1.17l0.032-19.656-9.672,0-0.029,9.854a21.709,21.709,0,0,1-.5,5.057,8.337,8.337,0,0,1-1.509,3.094,14.91,14.91,0,0,1-2.939,2.69Zm11.21-16.325-5.746-.028v-3.9l5.746,0v3.926Zm-0.026,1.872,0.025,4.108-5.72.024V58.332Zm-17.757-6.167,0,15.028,1.976-.025-0.025-1.612h3.978V67.2h1.9L415.3,52.221Zm1.924,1.925,3.9,0.027v3.614l-3.874.025Zm4,5.565v4.03h-3.978v-4.03h3.978Zm21.8,0.864,13.754,0V54.8l-13.754,0v5.72Zm11.779-3.715v1.742l-9.75.023V56.777Zm-14.691,4.858,0,4.732h1.976V63.64l15.678,0v2.678h1.924l0.028-4.654Zm18.952,5.205a9.834,9.834,0,0,1-.533,2.249,0.92,0.92,0,0,1-.586.689h-3.692a0.585,0.585,0,0,1-.675-0.65l-0.025-4.29-1.924.026,0.024,5.252a1.366,1.366,0,0,0,.559.988,2.422,2.422,0,0,0,1.287.6h4.758a1.839,1.839,0,0,0,1.456-.624,4.53,4.53,0,0,0,.859-1.911q0.312-1.287.416-1.573Zm0.472-13.208V51.685l-8.528,0a9.985,9.985,0,0,0-1.767-2.548l-2.184,1.039a7.351,7.351,0,0,1,1.663,1.482l-8.4,0v2ZM438.5,64.811a5.845,5.845,0,0,1-1.821,3.848,10.591,10.591,0,0,1-6.111,2l0.936,2a13.812,13.812,0,0,0,5.746-2,6.449,6.449,0,0,0,2.2-2.378,7.9,7.9,0,0,0,.95-3.237Z"/>
</svg>
