<svg id="Frame_2" data-name="Frame 2" xmlns="http://www.w3.org/2000/svg" width="728" height="90" viewBox="0 0 728 90">
  <defs>
    <style>
      .cls-1 {
        fill: #fff;
        fill-rule: evenodd;
      }
    </style>
  </defs>
  <path id="透過手機自動化管理_室溫_電燈和電器" data-name="透過手機自動化管理 室溫、電燈和電器" class="cls-1" d="M256.986,22.543a11.75,11.75,0,0,0-3.406-4.368l-1.638,1.248a8.373,8.373,0,0,1,3.406,4.342Zm3.38,8.372h2a6.769,6.769,0,0,1-.949,3.913,5.175,5.175,0,0,1-3.081,2.015l0.546,0.962a7.231,7.231,0,0,1-2.47-1.248,14.27,14.27,0,0,0,1.352-5.564h-3.432a20.43,20.43,0,0,0,1.9-2.262,13.2,13.2,0,0,0,1.534-2.548V24.441l-6.656.026,0.026,1.872h4.446a14.6,14.6,0,0,1-3.926,4.654l0.026,1.872,4.03,0.026a10.027,10.027,0,0,1-.7,2.249,10.759,10.759,0,0,1-1.7,2.665,13.364,13.364,0,0,1-2.665,2.418l1.482,1.508a15.471,15.471,0,0,0,1.807-1.716,21.147,21.147,0,0,0,1.6-1.95,12.411,12.411,0,0,0,7.618,2.418l10.218,0.026,0.962-2.158-4.316.26-6.214.026a18.053,18.053,0,0,1-1.989-.117,8.25,8.25,0,0,1-1.6-.3,6.516,6.516,0,0,0,2.626-2.015,6.327,6.327,0,0,0,1.027-2.431,15.327,15.327,0,0,0,.247-2.86h3.38l-0.858,2.912,3.276-.026q-0.025.13-.117,0.546t-0.208.78a5.182,5.182,0,0,1-.3.728,0.9,0.9,0,0,1-.858.416,14.464,14.464,0,0,1-3.146-.832l0.208,2.028,2.21,0.52q2.081,0.494,2.938-.806a13.266,13.266,0,0,0,1.534-5.252h-2.99l0.858-2.912H266.58l0.052-3.328a5.928,5.928,0,0,0,2.314,2.444,15.011,15.011,0,0,0,3.874,1.846l1.3-1.69A13.875,13.875,0,0,1,270.3,26.7a5.761,5.761,0,0,1-1.794-1.742h4.342v-1.9l-6.266.026,0.026-1.872a24.562,24.562,0,0,0,5.642-1.534L271.1,18.227a31.383,31.383,0,0,1-3.276.845,35.039,35.039,0,0,1-4.329.6q-2.4.2-5.239,0.221l0.91,1.872,5.434-.26v1.586h-6.24l-0.026,1.9h4.368a7.605,7.605,0,0,1-2.418,1.976,14.054,14.054,0,0,1-3.51,1.326l1.56,1.664a14.736,14.736,0,0,0,2.028-.78v1.742Zm4.238-1.9-3.952-.052a12.018,12.018,0,0,0,1.859-1.092,8.3,8.3,0,0,0,1.378-1.2,4.508,4.508,0,0,0,.715-1.014v3.354Zm28.7,8.632a10.957,10.957,0,0,0,3.3-.26,2.034,2.034,0,0,0,1.014-.832,2.293,2.293,0,0,0,.234-1.04l0.026-8.97-1.56.026V19.4h-11.31l-0.026,7.2h-1.4V37.857h1.95l0.026-9.412h10.348v6.734a0.826,0.826,0,0,1-.1.416,0.375,0.375,0,0,1-.26.208,15.17,15.17,0,0,1-2.99.052Zm-3.8-11.076h-2.548v-5.3h7.384l0.026,1.586h-4.862v3.718Zm1.9-1.976,2.938-.026v2H291.41V24.6Zm2.626,10.5V29.693h-6.682v5.2L287.38,35.1h6.656Zm-1.846-3.64v1.846h-3.12V31.461h3.12ZM277.448,19.267a9.161,9.161,0,0,1,1.625,1.82,22.782,22.782,0,0,1,1.261,2.132q0.364-.208.936-0.585c0.381-.251.607-0.4,0.676-0.455q-0.287-.546-0.832-1.43a10.082,10.082,0,0,0-1.144-1.534,9.677,9.677,0,0,0-.988-0.962Zm0.182,22.412a17.73,17.73,0,0,0,1.612-1.612,17.9,17.9,0,0,0,1.352-1.69,10.631,10.631,0,0,0,7.02,2.106l11.154-.078,0.858-2.028q-0.234,0-1.976.091t-2.548.117l-4.186.052a43.319,43.319,0,0,1-4.862-.1,11.955,11.955,0,0,1-2.132-.429,6.82,6.82,0,0,1-1.5-.663,6.422,6.422,0,0,1-1.027-.754,19.4,19.4,0,0,0,1.326-5.59h-3.25a26.206,26.206,0,0,0,1.664-2.3,25.615,25.615,0,0,0,1.534-2.587V24.467h-6.058v1.794h3.874a22.392,22.392,0,0,1-1.833,2.873,17.989,17.989,0,0,1-1.755,2.041v1.742l3.744-.026a10.562,10.562,0,0,1-.91,2.99,11.863,11.863,0,0,1-1.651,2.639,15.578,15.578,0,0,1-1.807,1.859Zm33.845-16.12h-7.8l0.026,1.9h7.8l-0.026,3.978h-9.958l0.026,1.872h9.932v5.46a0.9,0.9,0,0,1-.221.676,1.029,1.029,0,0,1-.663.234q-0.677.026-3.276-.208l0.728,2.132h3.588q1.845,0,1.846-2.08V33.307h9.568v-1.9l-9.542.026V27.457h7.41v-1.9H313.5V21.711a34.815,34.815,0,0,0,8.4-2.054l-1.092-1.482a39.29,39.29,0,0,1-8.658,1.794,75.439,75.439,0,0,1-9.906.468l1.17,1.924q5.928-.156,8.06-0.416v3.614Zm28.176-3.8-1.456-.78q-0.339.806-.884,1.82l-1.456.26a23.314,23.314,0,0,0,2.106-3.536l-1.69-.962a23.062,23.062,0,0,1-2.756,4.888h-2.184V18.435h-1.95v5.018l-2.938-.026v1.82h2.86a24.439,24.439,0,0,1-3.848,9.256l1.794,0.962a29.663,29.663,0,0,0,2.132-4.212V41.6h1.95V28.939a20.178,20.178,0,0,1,1.534,2.652l1.4-1.092a15.377,15.377,0,0,0-2.444-3.588l-0.494.468V25.247h2.132V23.869l0.65,1.326,2.158-.494a23.486,23.486,0,0,1-2.834,3.77l0.78,1.4,3.822-.572,0.468,1.4,1.612-.494,0.13,1.482H337.1V30.213h-1.924V31.7h-3.016v1.82H335.1a9.406,9.406,0,0,1-.676,2.535A7.738,7.738,0,0,1,333.1,38.2a9.262,9.262,0,0,1-1.586,1.456l1.43,1.482a10.5,10.5,0,0,0,3.51-4.81,10.791,10.791,0,0,1,2.938,1.924l1.066-1.508A14.01,14.01,0,0,0,336.9,34.5l0.156-.988h3.484a12.875,12.875,0,0,0,1.2,3.822,17.072,17.072,0,0,1-6.058,1.95l0.962,1.768a22.952,22.952,0,0,0,3.315-.936,22.175,22.175,0,0,0,2.847-1.274,11.444,11.444,0,0,0,2.366,1.924,2.875,2.875,0,0,0,1.95.468,1.977,1.977,0,0,0,1.4-1.222,18.588,18.588,0,0,0,.988-3.3l-1.9-.78-0.546,2.782a0.539,0.539,0,0,1-.338.429,0.8,0.8,0,0,1-.624-0.091,6.484,6.484,0,0,1-.858-0.585,6.636,6.636,0,0,1-.754-0.689A34.432,34.432,0,0,0,347.893,35l-1.3-1.248a26.113,26.113,0,0,1-3.146,2.522,14.18,14.18,0,0,1-.962-2.756h6.266V31.7h-1.924l0.312-.39a15.428,15.428,0,0,0-1.508-1.3q-0.7-.52-1.014-0.728l2.288-.312a6.644,6.644,0,0,1,.39,1.43l1.69-.624a14.214,14.214,0,0,0-1.612-4.212l-1.456.676,0.468,1.04-1.768.26a25.315,25.315,0,0,0,3.952-5.746l-1.534-.884q-0.936,1.586-1.118,1.846l-1.664.208a21.428,21.428,0,0,0,2.288-3.458l-1.664-1.092a19.8,19.8,0,0,1-1.4,2.639q-0.936,1.521-1.768,2.639l0.91,1.482,2.184-.52a19.985,19.985,0,0,1-2.808,3.484l0.728,1.56,1.248-.234-0.988.858a15.518,15.518,0,0,1,1.846,1.378h-2.652q-0.651-7.566-.65-13.234l-1.976-.026Zm0.338,7.8q-0.208-.754-0.6-1.794A18.867,18.867,0,0,0,338.637,26l-1.586.7,0.52,0.936-1.742.234a26.149,26.149,0,0,0,3.848-5.8q0,3.172.312,7.488h0Zm22.485-11.908a25.2,25.2,0,0,1-2.678,4.212l-6.032.026V41.575h2.08V39.443h11.908v2.08l2.132,0.052,0.026-19.708h-7.436a18.233,18.233,0,0,0,1.846-3.224Zm5.278,11.154v3.25H355.844V28.835Zm0.026-4.992-0.026,3.042H355.844V23.817h11.934Zm-11.934,13.65V34.035l11.908-.026-0.026,3.458H355.844Zm36.485-13.052V18.2h-1.976v6.214h-2.444v1.872h2.5a36.611,36.611,0,0,1-.585,7.371,13.442,13.442,0,0,1-1.625,4.355l-5.408.416V36.9h5.018V34.971L382.787,35V33.749h4.472v-8.5h-4.472V24.1h5.72v-1.9h-5.72V21.139a30.779,30.779,0,0,0,5.408-1.17L387,18.513a19.175,19.175,0,0,1-3.328.689q-2.053.273-4.511,0.442t-4.563.143l1.04,1.794q1.273-.026,5.2-0.26v0.884H374.7v1.9h6.136v1.144h-4.524v8.5h4.524V35h-5.122v1.9h5.122v1.69q-3.042.26-6.786,0.468L375.039,41l11.882-1.3a5.353,5.353,0,0,1-.728.806l1.742,1.092a15.53,15.53,0,0,0,2.392-3.575,18.746,18.746,0,0,0,1.508-4.719,38.422,38.422,0,0,0,.52-7.02h2.08a75.216,75.216,0,0,1-.377,7.618,32.645,32.645,0,0,1-.793,4.472,0.735,0.735,0,0,1-.884.52,19.023,19.023,0,0,1-2.106-.26l0.442,2.106q1.4,0.156,1.872.182a2.693,2.693,0,0,0,1.716-.442,2.524,2.524,0,0,0,.858-1.56,40.8,40.8,0,0,0,.845-6.123q0.248-3.5.3-8.385h-3.978Zm-7.072,2.7V28.5h-2.47V27.145ZM378.263,28.5V27.119h2.574V28.5h-2.574Zm6.994,1.872v1.482h-2.47V30.369h2.47Zm-6.994,1.482V30.369l2.574-.026v1.508h-2.574Zm25.382,9.8h2V25.533a50.169,50.169,0,0,0,2.444-6.24l-1.846-.858a31.843,31.843,0,0,1-3.081,7.072,20.463,20.463,0,0,1-4.043,4.836l1.9,1.17a20.064,20.064,0,0,0,1.521-1.651q0.741-.9,1.1-1.443V41.653Zm8.84-22.75h-1.95V37.831A2.53,2.53,0,0,0,411,39.326a2.484,2.484,0,0,0,1.144.923,3.5,3.5,0,0,0,1.248.26h5.174a2.366,2.366,0,0,0,1.183-.273,3.574,3.574,0,0,0,.9-0.741,6.059,6.059,0,0,0,.91-1.976q0.285-1.092.546-2.574l-1.95-.728a21.623,21.623,0,0,1-.832,3.588,0.98,0.98,0,0,1-.442.52,1.323,1.323,0,0,1-.7.208h-4.42a1.072,1.072,0,0,1-1.274-1.144v-7.02a22.266,22.266,0,0,0,8.84-5.434l-1.768-1.066a18.733,18.733,0,0,1-3.484,2.7,16.025,16.025,0,0,1-3.588,1.768V18.9Zm17.893,21.086h11.154v1.534h2V34.581H430.352v-1.3l12.038-.026-0.026-5.3H428.376L428.35,41.6H430.4Zm-5.434-10.244,1.95,0.026,0.026-3.146h17.056v3.016l1.976,0.026V24.779h-9.308a6.909,6.909,0,0,0-.377-0.585q-0.378-.559-0.767-1.053a8.882,8.882,0,0,0-.624-0.728l-1.872.6a10.871,10.871,0,0,1,.923.988,5.708,5.708,0,0,1,.559.78h-9.542v4.966Zm0.416-5.018a10.951,10.951,0,0,0,2.73-2.626H429.6a9.231,9.231,0,0,1,1.482,2.5l1.768-.962a9.651,9.651,0,0,1-.546-0.923q-0.312-.585-0.338-0.611l3.926-.026V20.229h-6.734l0.65-1.43-1.69-.806a14.529,14.529,0,0,1-2.093,3.432,10.383,10.383,0,0,1-2.145,1.9ZM446.5,21.971V20.125h-7.1a6.91,6.91,0,0,0,.364-1.534l-1.742-.65a11.584,11.584,0,0,1-.949,2.652,10.19,10.19,0,0,1-1.625,2.288L436.982,24a8.215,8.215,0,0,0,1.56-2h1.716a8.412,8.412,0,0,1,1.69,2.47,10.486,10.486,0,0,0,1.768-.91,6.947,6.947,0,0,0-1.2-1.586H446.5ZM430.352,29.8h10.036l0.026,1.612H430.352V29.8Zm11.18,6.63v1.742L430.4,38.2l-0.026-1.716ZM457.9,19.683V31.019h5.382l-0.026,2.5h-5.174v1.872h5.2l-0.026,2.99h-6.838v1.846H472.2V38.377h-6.942v-2.99h5.174V33.515h-5.122v-2.5h5.278l0.052-11.31Zm1.976,4.654V21.555l3.406,0.026-0.026,2.756h-3.38Zm8.762,1.9v2.938l-3.354-.026V26.209Zm-3.328-4.68,3.406,0.026-0.052,2.782h-3.328Zm-2.028,4.6-0.026,3.016h-3.38v-2.99Zm-5.668,9V33.2q-0.677.26-1.781,0.715t-1.365.559V29.225h2.548V27.379l-2.548.026,0.026-5.148h2.886V20.411l-8.06-.026v1.9l3.12-.026-0.026,5.148-2.574-.026-0.026,1.846h2.652v6.006q-2.911,1.092-3.926,1.378,0.416,0.416,1.053.975t0.663,0.585Zm-167.5,22.516,0.026-6.032h-8.892a8.246,8.246,0,0,0-2.366-2.522l-1.9,1.066a10.954,10.954,0,0,1,2,1.456h-9.36v6.188h2.028v-4.29h16.51v4.134h1.95Zm-1.222,4.914a13.3,13.3,0,0,0-2.184-2.392,12.509,12.509,0,0,0-2.626-1.872l-1.69,1.17,1.586,1.014-8.476.65a12.547,12.547,0,0,0,2.119-1.742,22.262,22.262,0,0,0,2.119-2.418h7.254V55.121L272.845,55.1l0.026,1.9h4.238a17.312,17.312,0,0,1-2.509,2.561,16.321,16.321,0,0,1-3.133,2.093l1.248,1.95q1.716-.286,6.6-0.78t5.447-.546q0.56-.052,1.157-0.13c0.069,0.087.23,0.264,0.481,0.533s0.438,0.477.559,0.624,0.217,0.264.286,0.351Zm1.638,8.866V69.577l-9.542.026V67.211l7.566,0.026v-1.9h-7.566l-0.052-2h-1.976v1.976l-7.592.026v1.872l7.592,0.026v2.34h-9.594v1.9Zm11.123-10.4H313.92l-0.026-10.036H301.648V61.049Zm10.27-3.562a17.421,17.421,0,0,0-3.328-2.34,7.114,7.114,0,0,0,.286-2l-1.066-.234h4.082Zm-8.268-4.576h3.25a5.1,5.1,0,0,1-.78,2.977,4.6,4.6,0,0,1-2.47,1.547V52.911Zm8.242,6.24h-8.268V58.033l1.17,1.066a8.376,8.376,0,0,0,3.042-2.132,7.149,7.149,0,0,1,2.834,2.158l1.222-1.04v1.066ZM316.936,72.1V70.175h-1.742V62.609H300.3v7.566h-1.638L298.632,72.1h18.3Zm-7.982-1.924h-2.392V64.507h2.392v5.668Zm4.212,0h-2.314l-0.026-5.668h2.314ZM302.35,64.507h2.314v5.668H302.35V64.507ZM301.1,54.237a5.469,5.469,0,0,0-.949-1.222,9.386,9.386,0,0,0-1.664-1.313,14.894,14.894,0,0,0-1.937-1.053l-1.4,1.274a9.575,9.575,0,0,1,4.394,3.77Zm-1.456,5.1a9.919,9.919,0,0,0-4.966-3.458l-1.3,1.352a17.571,17.571,0,0,1,2.054,1.066,9.373,9.373,0,0,1,1.612,1.222,11.426,11.426,0,0,1,1.118,1.222Zm-4.29,13.234a15.076,15.076,0,0,0,2.509-4.329,28.317,28.317,0,0,0,1.677-5.681l-1.69-.832a26.252,26.252,0,0,1-1.69,5.343,14.966,14.966,0,0,1-2.756,4.485ZM327.4,61.933a21.4,21.4,0,0,0-3.562-3.328l-1.456,1.456q0.417,0.364,1.157,1.131a15.375,15.375,0,0,1,1.274,1.482q0.534,0.715.741,1.053Zm17.878,6.6,7.748,0.026V61.1l-17.42-.026v7.488l7.722-.026L343.3,69.655a3.742,3.742,0,0,0,.143.988,1.6,1.6,0,0,0,.611.871,2.031,2.031,0,0,0,1.248.351h7.93a1.933,1.933,0,0,0,1.612-.9,9.54,9.54,0,0,0,1.092-3.653l-1.872-.624q-0.234,1.638-.39,2.314a1.8,1.8,0,0,1-.351.663,0.74,0.74,0,0,1-.585.3H346.16a1.018,1.018,0,0,1-.676-0.182,0.565,0.565,0,0,1-.208-0.442V68.537Zm0-4.628V63l5.8-.052-0.026.962h-5.772Zm-7.722,2.756V65.6h5.772L343.3,66.665h-5.746Zm5.746-3.692,0.026,0.936h-5.772V63Zm7.748,3.692h-5.772V65.6l5.8,0.026Zm-7.722-11.284L343.3,60.607h1.976v-5.2l7.358-.026v2.288l1.976-.026-0.026-4.16h-9.308V52.547h8.086l0.026-1.872H335.214v1.872H343.3v0.936h-9.412l0.026,4.368,1.95-.026V55.381h7.462Zm2.73,2.5,6.136-.026V56.135H346.03Zm-3.536-1.742h-6.058v1.716h6.058V56.135Zm3.536,2.47V60.3h6.136l-0.026-1.69h-6.11Zm-9.594,0,0.026,1.69h6.032l0.026-1.69h-6.084Zm28.808,11.18-0.026,1.846h15.184V69.785l-5.226-.026a10.4,10.4,0,0,0,1.56-3.12l-1.56-.546h2.262l-0.026-5.772h-9.23v5.772l2.054,0.052-1.716.65a5.664,5.664,0,0,1,1.378,1.3,6.815,6.815,0,0,1,.988,1.69H365.27Zm4.888-7.566h5.33V64.2h-5.33V62.219Zm1.2,7.514,1.326-.624a6.734,6.734,0,0,0-2.236-3.016h4.524a10.889,10.889,0,0,1-1.976,3.692Zm-9.932-19.916,0.052,8.112-0.13,5.668a11.533,11.533,0,0,1-3.8,8.372l1.586,1.274a14.228,14.228,0,0,0,3.822-6.89,5.951,5.951,0,0,1,1.677,1.248,6.8,6.8,0,0,1,1.339,1.924,16.862,16.862,0,0,0,1.69-1.17,14.958,14.958,0,0,0-2.093-2.431,9.488,9.488,0,0,0-2.353-1.651q0.156-1.118.182-5.174a11.163,11.163,0,0,0,3.432-2.938l-0.507-.507a7.1,7.1,0,0,0-.611-0.559q-0.234-.182-0.312-0.234a13.177,13.177,0,0,1-1.027,1.3,4.934,4.934,0,0,1-.975.884q-0.1-3.874-.026-7.228h-1.95Zm20.1,10.062a9.231,9.231,0,0,1-2.158-1.443,18.579,18.579,0,0,1-1.9-1.833,8.881,8.881,0,0,0,2.7-2.548q-0.053-.052-0.52-0.468a6.115,6.115,0,0,0-.806-0.624,8.252,8.252,0,0,1-2.288,2.288,3.186,3.186,0,0,1-.624-1.066,12.174,12.174,0,0,0,2.808-2.834q-0.181-.13-0.624-0.52a6.279,6.279,0,0,0-.728-0.572,8.81,8.81,0,0,1-2.21,2.34,24.275,24.275,0,0,1-1.066-3.328,5.492,5.492,0,0,0-.923.312c-0.373.156-.628,0.26-0.767,0.312a20.61,20.61,0,0,0,2.886,6.864h-4.888a7.307,7.307,0,0,0,.936-1.794,11.268,11.268,0,0,0,.65-2.34,12.65,12.65,0,0,0,.182-1.924h-7.02v1.924h4.862a10.3,10.3,0,0,1-.442,1.391q-0.338.9-.572,1.365a5.119,5.119,0,0,0-.845-1.1,17.848,17.848,0,0,0-1.339-1.183l-1.456,1.222A6.666,6.666,0,0,1,368,56.863a8.837,8.837,0,0,1-1.43,1.417,17.316,17.316,0,0,1-2.73,1.7l1.586,1.508a17.484,17.484,0,0,0,3.848-3.25l0.026,0.416h6.968l0.052-.442a10.851,10.851,0,0,0,1.924,1.911,14.1,14.1,0,0,0,1.976,1.313Zm-22.126,1.3a8.888,8.888,0,0,0,.884-2.093,11,11,0,0,0,.442-2.236,8.085,8.085,0,0,0,0-1.6l-1.9-.442a9.487,9.487,0,0,1-1.43,5.876Zm36.551,3.692a9.8,9.8,0,0,0-1.2-2.093,13,13,0,0,0-1.625-1.9,8.536,8.536,0,0,0-1.313-1.053l-0.7.494v-1.9l4.394,0.026,0.026-1.9-4.42.026V52.833a24.044,24.044,0,0,0,2.431-.871,12.051,12.051,0,0,0,1.651-.793L394,49.687A18.31,18.31,0,0,1,389.38,51.3a43.454,43.454,0,0,1-5.733.754l0.806,1.794a16.3,16.3,0,0,0,1.716-.143q0.858-.117,1.768-0.247t1.2-.182v3.3l-5.07-.026v1.9h4.966a15.345,15.345,0,0,1-2.47,4.55,22.637,22.637,0,0,1-4.108,4.134l1.82,1.326a29.637,29.637,0,0,0,2.275-2.262,20.914,20.914,0,0,0,1.7-2.106,10.548,10.548,0,0,0,.884-1.482V72.853h1.976V61.673a10.859,10.859,0,0,1,3.2,4.394Zm8.372-13.078h-8.112l0.026,19.526h1.95v-2.6h4.16v2.574l1.976-.026V51.793Zm-6.136,1.9h4.16V66.8h-4.16v-13.1Zm21.237,14.846,7.748,0.026V61.1l-17.42-.026v7.488l7.722-.026-0.026,1.118a3.7,3.7,0,0,0,.143.988,1.6,1.6,0,0,0,.611.871,2.031,2.031,0,0,0,1.248.351h7.93a1.934,1.934,0,0,0,1.612-.9,9.54,9.54,0,0,0,1.092-3.653l-1.872-.624q-0.234,1.638-.39,2.314a1.831,1.831,0,0,1-.351.663,0.74,0.74,0,0,1-.585.3H420.3a1.016,1.016,0,0,1-.676-0.182,0.565,0.565,0,0,1-.208-0.442V68.537Zm0-4.628V63l5.8-.052-0.026.962h-5.772ZM411.7,66.665V65.6h5.772l-0.026,1.066H411.7Zm5.746-3.692,0.026,0.936H411.7V63Zm7.748,3.692h-5.772V65.6l5.8,0.026Zm-7.722-11.284-0.026,5.226h1.976v-5.2l7.358-.026v2.288l1.976-.026-0.026-4.16h-9.308V52.547H427.5l0.026-1.872H409.356v1.872h8.086v0.936H408.03l0.026,4.368,1.95-.026V55.381h7.462Zm2.73,2.5,6.136-.026V56.135h-6.162Zm-3.536-1.742H410.6v1.716h6.058V56.135Zm3.536,2.47V60.3h6.136l-0.026-1.69H420.2Zm-9.594,0,0.026,1.69h6.032l0.026-1.69H410.6Zm31.616-1.456v-6.37h-8.736v6.37h8.736Zm-2.054-1.924h-4.654V52.7h4.654v2.522Zm4.082,1.9,3.146,0.052-1.482.728q0.858,0.338,1.742.78H443.78a6.592,6.592,0,0,0,.416-1.9l-1.872-.39a6.591,6.591,0,0,1-.572,2.314l-9.1.026v1.924l7.566,0.052q-2.886,1.794-8.684,1.924l0.676,1.976a36.463,36.463,0,0,0,5.317-.728,10.59,10.59,0,0,0,3.133-1.274,7.829,7.829,0,0,0,2.184-2h0.546a5.367,5.367,0,0,0,1.2,1.378,6.6,6.6,0,0,0,1.612,1.092,20.312,20.312,0,0,0,3.5,1.027,21.675,21.675,0,0,0,4.459.559,11.006,11.006,0,0,0,.546-1.079q0.312-.689.416-0.923a27.991,27.991,0,0,1-4.316-.273,13.387,13.387,0,0,1-3.237-.793,4.965,4.965,0,0,1-1.625-.988h7.93V58.683h-3.822a8.516,8.516,0,0,0-1.768-1.56h4.68V50.675l-8.71.026v6.422Zm2-1.924V52.651H450.9V55.2H446.25ZM452.7,72.8l0.026-8.164-8.4.026L444.3,72.8h2.08V71.189h4.264L450.67,72.8H452.7Zm-2.028-6.214v2.7h-4.342v-2.7h4.342ZM435.8,71.293h4.368V72.8h2.054V64.715l-8.476-.026v8.164H435.8v-1.56Zm0-1.95v-2.73h4.342v2.73H435.8Z"/>
</svg>
