<svg xmlns="http://www.w3.org/2000/svg" width="728" height="90" viewBox="0 0 728 90">
  <defs>
    <style>
      .cls-1 {
        fill: #4b286d;
        fill-rule: evenodd;
      }
    </style>
  </defs>
  <path id="_" data-name="$" class="cls-1" d="M346.517,36.22c0-4.962-3.183-6.616-8.446-7.535l-1.1-.184V21.274c2.938,0.245,4.162,1.654,4.285,3.8h4.406c-0.245-4.472-3.182-7.228-8.691-7.534V13.923h-2.08v3.553c-6,.306-8.874,3.247-8.874,7.228,0,4.9,3.182,6.8,8.078,7.657l0.8,0.123v7.6c-3.06-.245-4.652-1.409-4.9-4.349h-4.529c0.183,4.594,3.06,7.718,9.425,8.086V47.43h2.08V43.877C342.906,43.693,346.517,41,346.517,36.22Zm-15.79-11.7c0-1.838,1.285-3.063,4.162-3.247v6.861C331.767,27.522,330.727,26.48,330.727,24.52Zm6.242,15.62v-7.29c3.917,0.735,4.835,1.715,4.835,3.675C341.8,38.548,340.458,39.957,336.969,40.14Z"/>
  <path id="_38起_" data-name="38起*" class="cls-1" d="M382.033,42.919c4.956-2.737,8.289-7.1,8.289-13.342,0-10.691-8.2-16.507-19.483-16.507-12.305,0-19.825,7.27-19.91,18.132h7.178c0.342-8.211,5.725-11.632,12.732-11.632,7.434,0,12.22,3.678,12.22,10.178S378.615,40.1,370.412,40.1h-4.1v5.987h4.529c8.545,0,13.843,4.79,13.843,12.145S379.384,70.2,371.266,70.2c-8.887,0-13.928-4.618-14.185-13.257h-7.092C349.9,68.748,357.338,76.7,371.266,76.7c12.391,0,20.936-7.356,20.936-18.474C392.2,50.616,387.588,45.827,382.033,42.919Zm47.678-.257c5.127-2.224,8.8-6.5,8.8-12.915,0-10.862-8.8-16.678-19.568-16.678s-19.569,5.816-19.569,16.678c0,6.415,3.675,10.691,8.8,12.915-6.751,2.566-11.28,7.869-11.28,15.4C396.9,69.6,405.87,76.7,418.944,76.7s22.046-7.1,22.046-18.645C440.99,50.531,436.462,45.228,429.711,42.662ZM418.944,19.569c7.007,0,12.476,3.507,12.476,10.178s-5.469,10.178-12.476,10.178-12.476-3.507-12.476-10.178S411.937,19.569,418.944,19.569Zm0,50.633c-8.8,0-14.527-4.362-14.527-12.145s5.725-12.145,14.527-12.145,14.527,4.362,14.527,12.145S427.745,70.2,418.944,70.2Zm50,5.5,0.951-2.009-6.577.159a37.619,37.619,0,0,1-5.481-.132,12.587,12.587,0,0,1-3.051-.74V68.46h3.2V66.583l-3.275.026,0.026-2.829,3.7,0.026V61.9h-4.648l0.052-2.961h3.751l0.026-1.93h-3.8l-0.026-3.781h-2.061l0.027,3.781h-3.83v1.93l3.8-.053,0.027,3.014h-4.623v1.9h5.6V72a5.989,5.989,0,0,1-1.308-.925,6.761,6.761,0,0,1-1.069-1.19q0.132-1.057.237-3.833l-2.06-.264a33.682,33.682,0,0,1-.37,5.076,15.42,15.42,0,0,1-2.324,5.155l1.69,1.163a16.324,16.324,0,0,0,1.44-2.247A12.025,12.025,0,0,0,450,72.373a12.836,12.836,0,0,0,8.611,3.331l4.781,0.079Zm-3.2-3.834a2.317,2.317,0,0,0,.977-0.37,2.858,2.858,0,0,0,.793-0.714,15.908,15.908,0,0,0,1.267-3.728l-1.928-.82a17.06,17.06,0,0,1-.5,2.274,3.078,3.078,0,0,1-.449,1.084,1.034,1.034,0,0,1-.581.37h-3.8a0.55,0.55,0,0,1-.383-0.159,0.487,0.487,0,0,1-.172-0.37l-0.026-5.288h4.384L465.3,65.209h2.034V55.215h-8.347V69.888a2.027,2.027,0,0,0,.238.939,1.76,1.76,0,0,0,.739.74,2.017,2.017,0,0,0,.978.278Zm-4.755-9.623V57.092H465.3v5.155h-4.306Zm11.952-1.986,1.384-1.909,1.383,1.909,0.728-.583-1.4-1.939,2.214-.714-0.306-.874-2.155.7v-2.3h-0.932v2.3l-2.155-.7-0.306.874,2.213,0.714-1.4,1.939Z"/>
  <path id="每月僅" class="cls-1" d="M221.864,37.013q-0.639,6.412-.769,7.313t-0.206,1.238l-5.963-.038-0.037,2.737h5.587q-0.638,3.9-1.875,8.962h20.363a3.963,3.963,0,0,1-.638,1.669,1.348,1.348,0,0,1-.975.469q-0.562.038-1.931,0a33.157,33.157,0,0,1-4.556-.638l1.012,2.888a39.1,39.1,0,0,0,4.913.413,18.233,18.233,0,0,0,2.062-.15,3.229,3.229,0,0,0,1.538-.713A4.06,4.06,0,0,0,241.5,59.55a13.144,13.144,0,0,0,.694-2.325H245.9l-0.037-2.737-3.338.038,0.863-6.263h4.087V45.525h-3.9q0-.075.244-3.375t0.281-5.138H221.864Zm1.987,8.513q0.15-.862.375-3t0.3-2.738l16.463-.037a57.868,57.868,0,0,1-.45,5.813Zm16.463,2.7q-0.338,3.038-.825,6.263l-17.1.038,1.087-6.263h3.938l-1.575,2.063a33.9,33.9,0,0,1,5.625,2.006,15.771,15.771,0,0,1,3.187,2.044l1.988-1.95A17.319,17.319,0,0,0,232.8,49.95a24.6,24.6,0,0,0-4.631-1.725h12.15ZM236.9,43.35a11.464,11.464,0,0,0-3.375-2.081,22.676,22.676,0,0,0-5.062-1.331L226.514,42a20.308,20.308,0,0,1,4.631,1.275,14.987,14.987,0,0,1,3.731,2.137Zm9.788-9.3v-2.7H224.976a8.254,8.254,0,0,1,.431-0.937,8.287,8.287,0,0,0,.582-1.463l-2.738-.9a25.939,25.939,0,0,1-1.669,3.75,28.011,28.011,0,0,1-2.981,4.462A27.893,27.893,0,0,1,215,40.05l2.325,1.763a37.487,37.487,0,0,0,6.338-7.763h23.025Zm26.28,16.313-0.038,7.313a0.7,0.7,0,0,1-.3.544,0.992,0.992,0,0,1-.637.244l-4.838-.15,1.125,3,4.538-.038a3.872,3.872,0,0,0,1.481-.319,2.8,2.8,0,0,0,1.256-1.031,2.56,2.56,0,0,0,.488-1.462L276.006,30.3H257.331l0.038,17.325a12.655,12.655,0,0,1-1.894,6.656,18.755,18.755,0,0,1-5.344,5.569l1.838,2.663a41.677,41.677,0,0,0,3.356-3.094,19.9,19.9,0,0,0,3.019-4.031,18.491,18.491,0,0,0,1.95-5.025h12.675ZM260.406,38.888v-5.85l12.525,0.038v5.813H260.406ZM272.931,41.7l0.038,5.888h-12.6q0.073-.975.056-3t0.019-2.925Zm29.006-1.65-8.85-.038v7.575h8.85v1.688h-8.85V51.9h8.85v1.612h-7.762l0.037,2.587,7.838-.075v2.063l-11.025-.038V60.6l25.65-.037-0.038-2.55-11.775.075V56.025l7.725,0.038-0.037-2.588-7.688-.037V51.825l8.813,0.038V49.275h-8.888l-0.037-1.687h8.925l0.037-7.538-8.962-.038V38.438l4.912-.038V34.013h6.113V31.425h-6.113l-0.037-2.887h-2.85l-0.038,2.85h-6.9V28.575h-2.962v2.85l-4.575-.038-0.038,2.625h4.575v4.313l5.063,0.038Zm8.85,2.587-0.075,2.325-5.962-.038V42.6ZM295.975,42.6H301.9V45l-5.888.037Zm3.862-6.825,0.038-1.763h6.862v1.763h-6.9ZM284.575,47.25a40.879,40.879,0,0,0,2.925-3.937V62.288h2.962l-0.037-25.425q0.148-.525.994-3.169a41.251,41.251,0,0,0,1.143-4.144L289.9,28.163a60.934,60.934,0,0,1-2.044,7.275,31.508,31.508,0,0,1-2.681,5.813,30.441,30.441,0,0,1-3.113,4.313Z"/>
</svg>
