<svg id="Frame_3" data-name="Frame 3" xmlns="http://www.w3.org/2000/svg" width="728" height="90" viewBox="0 0 728 90">
  <defs>
    <style>
      .cls-1 {
        fill: #4b286d;
      }

      .cls-1, .cls-2 {
        fill-rule: evenodd;
      }

      .cls-2 {
        fill: #462b69;
      }
    </style>
  </defs>
  <path id="智能家居安防_每月計劃_15起_" data-name="智能家居安防 每月計劃  15起*" class="cls-1" d="M278.772,16.556l-0.03,2.22h5.34A4.774,4.774,0,0,1,283,20.4a7.2,7.2,0,0,1-2.16,1.455,12.4,12.4,0,0,1-2.97.945l1.08,2.25a13.773,13.773,0,0,0,2.145-.69,8.428,8.428,0,0,0,1.4-.69v12.51l2.25,0.03v-1.92h12.45v1.77h2.34l-0.03-12.63-16.74-.06a7.712,7.712,0,0,0,2.49-2.04,10.576,10.576,0,0,1,2.25.33,24.578,24.578,0,0,1,3.57,1.35l1.2-1.83a11.4,11.4,0,0,0-2.355-1.08,21.354,21.354,0,0,0-3.585-.78l0.24-.57h4.98v-2.16l-4.65-.03a10.906,10.906,0,0,0,.15-2.58l3.51-.03v-2.16l-6.93-.03a6.113,6.113,0,0,0,.51-1.65l-2.19-.84a12.069,12.069,0,0,1-1.11,3.57,8.057,8.057,0,0,1-2.22,2.67l2.1,0.93a11.514,11.514,0,0,0,1.32-1.215,6.525,6.525,0,0,0,.96-1.275h1.8a10.033,10.033,0,0,1-.15,2.64Zm18.42,11.22h-12.45v-2.19l12.45,0.03v2.16Zm-0.03,4.32h-12.42v-2.13h12.45Zm5.16-10.95v-9.93h-9.93v9.93h9.93Zm-2.28-2.16h-5.4l0.03-5.58h5.37v5.58Zm18.687,0.69H307.9v16.38l2.28,0.03q-0.03-3.39,0-6.27h6.24v2.82a0.97,0.97,0,0,1-.135.48,0.475,0.475,0,0,1-.345.27,7.61,7.61,0,0,1-1.665,0q-1.035-.09-1.485-0.12l0.84,2.31a20.7,20.7,0,0,0,3.24-.09,1.866,1.866,0,0,0,1.335-.7,3.732,3.732,0,0,0,.525-1.515V19.676Zm-8.52,3.99-0.03-1.83h6.24v1.8Zm-0.03,2.16h6.27l-0.03,1.83h-6.24v-1.83Zm1.98-17.01q-1.83,3.121-2.46,3.99a17.748,17.748,0,0,1-1.215,1.515,11.321,11.321,0,0,1-1.125,1.1,2.975,2.975,0,0,1-.63.555,7.016,7.016,0,0,0-.66.525l1.65,2.01q0.54-.06,3.135-0.405t4.2-.51q1.605-.165,2.715-0.225,0.54,1.2.615,1.425t0.135,0.435a9.877,9.877,0,0,0,1.29-.51q0.78-.36.87-0.39a18.562,18.562,0,0,0-1.8-3.375,13.239,13.239,0,0,0-2.43-2.745l-2.01,1.11a19.065,19.065,0,0,1,1.86,1.98l-6.39.54a15.184,15.184,0,0,0,2.19-2.52,30.486,30.486,0,0,0,2.13-3.45Zm17.94,6.81q-0.66,4.05-1.41,4.05h-3.96a2.115,2.115,0,0,1-1.035-.255,0.729,0.729,0,0,1-.465-0.615v-2.19a29.382,29.382,0,0,0,5.16-2.04,19.247,19.247,0,0,0,3.3-2.19l-1.38-1.71a19.251,19.251,0,0,1-3.525,2.235,20.4,20.4,0,0,1-3.555,1.455l-0.03-5.19-2.25.03,0.03,10.41a2.357,2.357,0,0,0,.855,1.545,2.775,2.775,0,0,0,1.9.675h5.34a1.883,1.883,0,0,0,1.32-.615,3.666,3.666,0,0,0,.9-1.335,32.473,32.473,0,0,0,.99-3.42Zm-9.21,7.05v9.6a2.272,2.272,0,0,0,.48,1.35,2.649,2.649,0,0,0,1.14.93,3.149,3.149,0,0,0,1.17.27l5.43-.03a3.417,3.417,0,0,0,1.08-.315,2.367,2.367,0,0,0,.87-0.675,4.84,4.84,0,0,0,.57-1,11.3,11.3,0,0,0,.555-1.8q0.285-1.185.4-1.515l-2.13-.81a13.161,13.161,0,0,1-.72,3.15,1.319,1.319,0,0,1-.9.84h-4.62a1.233,1.233,0,0,1-.825-0.225,0.681,0.681,0,0,1-.255-0.525l0.03-2.82a25.38,25.38,0,0,0,4.575-1.395,18.241,18.241,0,0,0,4.245-2.415l-1.53-1.59a16.847,16.847,0,0,1-3.54,1.95,24.553,24.553,0,0,1-3.75,1.2l-0.03-4.2Zm39.435-9.96h-10.14a11.138,11.138,0,0,0-1.815-2.34,10.314,10.314,0,0,0-2-1.59l-1.89,1.41a22.155,22.155,0,0,1,2.355,1.89,4.395,4.395,0,0,1,.5.63H336.5V18.3h2.31l-0.03-3.45h19.23v3.33h2.31v-5.46Zm1.44,19.29a8.341,8.341,0,0,1-2.6-1.62,14.078,14.078,0,0,1-2.295-2.67,11.84,11.84,0,0,1-1.53-3.12,21.914,21.914,0,0,0,3.33-3l-1.74-1.53a13.013,13.013,0,0,1-5.55,4.32,7.9,7.9,0,0,0-1.215-1.905,7.08,7.08,0,0,0-1.6-1.455,21.5,21.5,0,0,0,2.88-1.92h5.52v-2.13h-16.92l-0.03,2.16,7.56,0.03q-3.72,2.25-10.92,3.39l1.56,1.98a26.171,26.171,0,0,0,8.13-2.37,9.056,9.056,0,0,1,1.5,1.02,19.758,19.758,0,0,1-2.79,1.65,21.146,21.146,0,0,1-3.975,1.455,43.1,43.1,0,0,1-5,1l1.59,1.95a22.624,22.624,0,0,0,6.075-1.47,27.85,27.85,0,0,0,5.325-2.88,12.392,12.392,0,0,1,.81,1.74,19.833,19.833,0,0,1-6.3,3.645,41.4,41.4,0,0,1-8.1,1.965l1.65,2.07a48.3,48.3,0,0,0,5-1.215,31.045,31.045,0,0,0,4.56-1.755,16.582,16.582,0,0,0,3.675-2.37,25.008,25.008,0,0,1-.12,4.02,1.307,1.307,0,0,1-.33.57,1.646,1.646,0,0,1-.54.42,10.045,10.045,0,0,1-2.19-.2,25.093,25.093,0,0,1-2.85-.765l0.93,2.67q3.87,0.72,5.25.21a2.591,2.591,0,0,0,1.335-1.035,5.807,5.807,0,0,0,.7-2.595,17.208,17.208,0,0,0-.015-2.955,22.261,22.261,0,0,0-.435-2.955l1.44-.6a17.99,17.99,0,0,0,1.23,2.685,14.7,14.7,0,0,0,2.3,3.075,9.336,9.336,0,0,0,3.195,2.25Zm4.017,4.32a14.282,14.282,0,0,0,2.535-4.32,18.547,18.547,0,0,0,.99-5.295q0.165-3.015.195-3.435l8.73,0.03,0.03,3.21h-7.2l0.03,9.6,2.22-.03,0.03-1.77h12.27v1.77h2.28v-9.6l-7.38.03-0.03-3.21h9.54v-2.19l-9.54.03,0.03-3.12h-2.25l-0.03,3.09h-8.85l0.03-3.33h19.11v-7.11H367.1V23.4a37.825,37.825,0,0,1-.18,4.485,15.262,15.262,0,0,1-.54,2.46,13.411,13.411,0,0,1-1,2.355,12.714,12.714,0,0,1-1.575,2.28Zm3.6-23.46h16.86l0.03,2.76-16.89-.03v-2.73Zm3.93,19.29,0.03-3.45,12.3-.03-0.03,3.48h-12.3Zm43.944-13.74-0.03-5.52-10.02-.06,0.87-.63a10.6,10.6,0,0,0-5.01-3.18l-1.83,1.53a10.573,10.573,0,0,1,4.41,2.34h-11.07v5.7h2.25v-3.45h18.15v3.27h2.28Zm0.51,15.63a27.755,27.755,0,0,0-3.3-1.98,54.686,54.686,0,0,0-5.22-2.25,11.772,11.772,0,0,0,1.83-2.475A29.609,29.609,0,0,0,413,22.946l4.83-.03v-2.16h-13.38l1.98-3.72-2.07-1.02-2.49,4.74h-7.92v2.19l6.72-.03a39,39,0,0,1-3.6,5.76q3.75,0.781,7.56,1.98-4.35,2.88-11.61,3.45l1.47,2.13a27.5,27.5,0,0,0,5.175-.975,22.934,22.934,0,0,0,4.485-1.785,26.169,26.169,0,0,0,3.27-2.04q3.84,1.62,5.19,2.28a18.882,18.882,0,0,1,2.34,1.335q0.99,0.675,1.35.975ZM403.4,22.916l7.17,0.03A10.7,10.7,0,0,1,409.14,26.2a13.022,13.022,0,0,1-2.265,2.775q-2.73-.9-6-1.74Zm26.961-10.26v-1.89h-8.37l0.03,25.47h2.25V12.956h3.72l-2.76,7.08a8.833,8.833,0,0,1,2.91,4.05,2.751,2.751,0,0,1,.09,1.53,1.552,1.552,0,0,1-.57.87q-1.2.57-3.3-.51l0.66,2.67a5.1,5.1,0,0,0,1.395.255,5.562,5.562,0,0,0,1.395-.075,3.364,3.364,0,0,0,1.605-.855,3.482,3.482,0,0,0,1-1.545,8.98,8.98,0,0,0,.06-2.085,5.69,5.69,0,0,0-.7-2.235,16.4,16.4,0,0,0-1.875-2.64Zm5.82,8.67q0.09-.84.135-2.58t0.105-2.34h10.65v-2.19h-8.16l1.56-1.38a16.066,16.066,0,0,0-2.58-2.34,12.049,12.049,0,0,0-2.58-1.5l-1.59,1.56a9.89,9.89,0,0,1,4.98,3.66h-8.16v2.19h3.51q0.06,1.53-.135,4.425t-0.405,4.425a13.873,13.873,0,0,1-1.89,5.175,14.3,14.3,0,0,1-3.93,4.185l1.98,1.65,2.43-2.46a13.642,13.642,0,0,0,2.775-4.665,21.93,21.93,0,0,0,1.185-5.595l6.06-.03q-0.33,4.29-.57,5.835t-0.48,2.5a1.516,1.516,0,0,1-.99,1.35,9.5,9.5,0,0,1-2.04-.36q-1.05-.3-2.7-0.9l0.66,2.64q0.09,0.03.96,0.285t1.71,0.45a6.621,6.621,0,0,0,1.47.2,3.9,3.9,0,0,0,1.05-.12q1.41-.36,2.01-2.49a41.049,41.049,0,0,0,.87-5.1q0.39-3.24.6-6.48h-8.49Zm-164.3,27.69q-0.512,5.13-.615,5.85t-0.165.99l-4.77-.03-0.03,2.19h4.47q-0.512,3.12-1.5,7.17h16.29a3.188,3.188,0,0,1-.51,1.335,1.082,1.082,0,0,1-.78.375c-0.3.02-.816,0.02-1.545,0a26.524,26.524,0,0,1-3.645-.51l0.81,2.31a31.292,31.292,0,0,0,3.93.33,14.627,14.627,0,0,0,1.65-.12,2.587,2.587,0,0,0,1.23-.57,3.255,3.255,0,0,0,.885-1.29,10.585,10.585,0,0,0,.555-1.86h2.97L291.071,63l-2.67.03,0.69-5.01h3.27v-2.19h-3.12q0-.06.195-2.7t0.225-4.11h-17.79Zm1.59,6.81q0.119-.69.3-2.4t0.24-2.19l13.17-.03a46.3,46.3,0,0,1-.36,4.65Zm13.17,2.16q-0.27,2.43-.66,5.01l-13.68.03,0.87-5.01h3.15l-1.26,1.65a27.113,27.113,0,0,1,4.5,1.6,12.646,12.646,0,0,1,2.55,1.635l1.59-1.56a13.849,13.849,0,0,0-3.075-1.98,19.674,19.674,0,0,0-3.7-1.38h9.72Zm-2.73-3.9a9.171,9.171,0,0,0-2.7-1.665,18.141,18.141,0,0,0-4.05-1.065l-1.56,1.65a16.242,16.242,0,0,1,3.7,1.02,12,12,0,0,1,2.985,1.71Zm7.83-7.44v-2.16h-17.37a6.357,6.357,0,0,1,.345-0.75,6.67,6.67,0,0,0,.465-1.17l-2.19-.72a21.013,21.013,0,0,1-1.335,3,22.523,22.523,0,0,1-2.385,3.57,22.443,22.443,0,0,1-2.88,3.03l1.86,1.41a30.025,30.025,0,0,0,5.07-6.21h18.42ZM312.974,59.7l-0.03,5.85a0.561,0.561,0,0,1-.24.435,0.8,0.8,0,0,1-.51.195l-3.87-.12,0.9,2.4,3.63-.03a3.1,3.1,0,0,0,1.185-.255,2.251,2.251,0,0,0,1-.825,2.055,2.055,0,0,0,.39-1.17l-0.03-22.53h-14.94l0.03,13.86a10.13,10.13,0,0,1-1.515,5.325,15.024,15.024,0,0,1-4.275,4.455l1.47,2.13a33.477,33.477,0,0,0,2.685-2.475,15.954,15.954,0,0,0,2.415-3.225,14.807,14.807,0,0,0,1.56-4.02h10.14Zm-10.05-9.18v-4.68l10.02,0.03v4.65h-10.02Zm10.02,2.25,0.03,4.71h-10.08q0.058-.78.045-2.4t0.015-2.34Zm7.785-6.33v2.19h12.36v-2.19l-5.04-.06,0.48-.27a9.356,9.356,0,0,0-3.27-4.38l-1.86,1.29a13.561,13.561,0,0,1,1.695,1.755,8.3,8.3,0,0,1,1,1.665h-5.37Zm17.52,22.62h2.28V53.216l7.02-.03v-2.16h-6.99l-0.03-8.91-2.28-.03,0.03,8.94h-6.27v2.16l6.24,0.03v15.84Zm-7.02-.57v-9.84l-8.43.03v9.84l2.25-.03v-1.44h3.9l0.03,1.44h2.25Zm-2.28-3.63h-3.9v-4.02l3.9-.03v4.05Zm2.91-14.61h-9.75v2.22l9.75-.03v-2.19Zm-9.69,6.18h9.63v-2.19h-9.66Zm44.466,9.36v-7.35h-14.28v7.35h14.28Zm-2.25-5.46V61.2h-3.81v-0.87h3.81Zm-5.94.87h-3.81v-0.87h3.81V61.2Zm5.94,1.77v0.84l-3.78.03-0.03-.87h3.81Zm-9.72,0h3.81l0.03,0.87h-3.87Zm13.92-7.38-8.04.03v-0.9h6.33v-1.83l-6.33-.03v-0.72l6.03,0.03v-3h1.98v-1.98h-1.98v-2.82l-6.03-.03v-2.01h-2.28v2.04H352.6v1.95l5.67-.03v0.9l-7.89-.03v2.01h7.89v1.05h-5.64v1.95l5.64-.03-0.03.75h-6.18v1.83h6.21v0.9h-8.52v1.86h18.84v-1.89Zm-4.29-8.43-3.75.03-0.03-.9h3.78v0.87Zm-3.75,2.01h3.75v1.05l-3.75-.03v-1.02Zm12.18-6.72v23.49a0.822,0.822,0,0,1-.2.555,0.758,0.758,0,0,1-.525.255,7.971,7.971,0,0,1-1.725.015c-0.891-.05-1.365-0.075-1.425-0.075l0.81,2.34q0.508-.03,1.95-0.03a4.679,4.679,0,0,0,2.16-.39,2.718,2.718,0,0,0,.81-0.765,1.86,1.86,0,0,0,.42-1.125V42.446h-2.28Zm-3.66,20.37,2.25-.03,0.03-17.49h-2.28v17.52Zm-18.3,6.3,17.91-1.08v-1.89l-19.08.9Zm51.12-24.762h-3.424c-0.7,3.264-2.688,4.16-5.631,4.352l-0.512.032v3.04h5.247V67.136h4.32V44.354Zm12.067,7.807a6.488,6.488,0,0,0-4.16,1.5L410.784,48h9.791V44.354H407.392L405.28,57.632h3.968a4.437,4.437,0,1,1,4,6.527,4.056,4.056,0,0,1-4.288-3.52h-4.127c0.319,4.352,3.807,7.007,8.415,7.007,5.023,0,8.511-3.168,8.511-7.9C421.759,55.713,419.2,52.161,413.952,52.161Zm35.716,3.365V44.966h-10.65v5.79h-4.83v-2.07h4.41v-3.45h-4.41v-2.73h-3.12q-0.96,0-.96.39a0.513,0.513,0,0,0,.285.465,0.537,0.537,0,0,1,.255.555l-0.03,1.32h-5.07v3.45h5.1v2.07h-6.24v3.51h6.63l-0.06,8.04a7.469,7.469,0,0,0-.555-0.69,7.826,7.826,0,0,1-.69-0.9,2.229,2.229,0,0,1-.285-0.6q0.15-1.77.24-4.53l-3.51-.39a45.106,45.106,0,0,1-.21,5.34,11.755,11.755,0,0,1-2.22,5.58,5.034,5.034,0,0,1,1.335.825q0.615,0.524,1.515,1.425l0.18,0.18a17.326,17.326,0,0,0,1.35-2.19,8.705,8.705,0,0,0,.39-0.96l0.27-.96a8.39,8.39,0,0,0,2.19,2.61q0.27,0.209.99,0.675a5.567,5.567,0,0,0,1.92.7,18.782,18.782,0,0,0,3.45.24h12.63a14.284,14.284,0,0,1,1.14-4.05l-4.74.24h-9.6a4.8,4.8,0,0,1-1.68-.165,1.041,1.041,0,0,1-.42-0.375v-3.96h3.93l0.03-3.45-3.96.03v-2.67h4.35v6.36l0.06,0.93a2.35,2.35,0,0,0,.75,1.5,2.152,2.152,0,0,0,1.56.69h6.18l0.57-.06a2.992,2.992,0,0,0,1.35-.735,3.616,3.616,0,0,0,.93-1.515,13.578,13.578,0,0,0,.54-2.34,16.864,16.864,0,0,1-1.89-.63l-1.44-.87-0.09.99a2.644,2.644,0,0,1-.285,1.245,0.716,0.716,0,0,1-.615.315h-3.42a0.573,0.573,0,0,1-.405-0.2,0.635,0.635,0,0,1-.195-0.465l0.03-3.96h3.48V56.4l3.51,0.03Zm-3.6-3.54h-3.42v-3.57h3.42v3.57Zm8.487-2.132,1.5-2.028,1.5,2.028,1.171-.927-1.521-2.081,2.448-.787-0.49-1.4-2.36.752V42.877h-1.5v2.535l-2.343-.752-0.49,1.4,2.448,0.787-1.539,2.081Z"/>
  <path id="_" data-name="$" class="cls-2" d="M391.22,55.506c0-2.147-1.292-3.381-4.484-4.008l-0.437-.076V47.66a2.123,2.123,0,0,1,2.033,2.2h2.489c-0.1-2.318-1.425-3.989-4.522-4.293V43.633h-1.367v1.9c-3,.133-4.636,1.672-4.636,3.818,0,2.451,1.729,3.609,4.351,4.1l0.285,0.057v4.027a2.449,2.449,0,0,1-2.451-2.641h-2.527c0.019,2.869,1.862,4.5,4.978,4.73v1.938H386.3V59.647C389.358,59.5,391.22,58.032,391.22,55.506Zm-8.3-6.231c0-.931.665-1.558,2.014-1.653v3.5C383.412,50.737,382.918,50.244,382.918,49.275Zm3.381,8.3V53.8c1.672,0.4,2.261.874,2.261,1.843C388.56,56.8,387.762,57.462,386.3,57.576Z"/>
</svg>
