<svg xmlns="http://www.w3.org/2000/svg" width="728" height="90" viewBox="0 0 728 90">
  <defs>
    <style>
      .cls-1 {
        fill: #4b286d;
        fill-rule: evenodd;
      }
    </style>
  </defs>
  <path id="選用全新升級版Optik_TV_" data-name="選用全新升級版Optik TV®" class="cls-1" d="M233.8,33.78v-5.5h-7.271v7.357a1.818,1.818,0,0,0,.587,1.4,2.188,2.188,0,0,0,1.553.544h4.1a2.657,2.657,0,0,0,1.407-.883,6.54,6.54,0,0,0,1.2-2.236Zm-2.082-2.06-3.107-.029V30.308h3.107V31.72Zm-3.107,2.089,4.778-.029q-0.5,1.825-.967,1.825h-3.108a0.623,0.623,0,0,1-.7-0.706V33.809Zm-4.134.088q-0.059.177-.234,0.78a2.494,2.494,0,0,1-.323.78,0.538,0.538,0,0,1-.322.206h-2.815a0.9,0.9,0,0,1-.483-0.118,0.361,0.361,0,0,1-.191-0.324V33.839H225.3l-0.029-5.532-7.3-.029V36.1a1.349,1.349,0,0,0,.6,1.1,2.374,2.374,0,0,0,1.48.456l3.9-.029a1.558,1.558,0,0,0,.895-0.353,3.141,3.141,0,0,0,.879-1.118,6.418,6.418,0,0,0,.572-1.56Zm-1.319-3.561v1.442h-3.049l-0.029-1.442h3.078ZM218.848,41.4h2.991l0.029,2.06h-4.1v2.031h17.648l-0.029-2.06-4.515.029-0.029-2.06H233.8v-2.03h-2.99V37.929h-2.141v1.442l-4.6-.029-0.03-1.413h-2.2v1.442h-3.02Zm5.189,0H228.7l-0.03,2.06h-4.6Zm-7.886-9.858a8.053,8.053,0,0,0-1.3-2,14.931,14.931,0,0,0-2.741-2.3l-1.642,1.295a8.474,8.474,0,0,1,3.928,4.179Zm19.32,20.6,0.938-2.3q-2.786.206-3.254,0.235t-0.792.029l-10.583.147a9.663,9.663,0,0,1-2.844-.338,19.774,19.774,0,0,1-3.107-1.251,23.5,23.5,0,0,0,1.378-7.151l-3.255-.029a18.713,18.713,0,0,0,1.847-2.707A11.759,11.759,0,0,0,217,35.9V34.074h-6.713V36.1h4.427q-0.645,2.3-3.753,5.562V43.55l3.987-.029a20.4,20.4,0,0,1-.791,3.3,9.081,9.081,0,0,1-1.613,2.869,13.133,13.133,0,0,1-2.609,2.428L211.49,53.7a19.365,19.365,0,0,0,3.371-3.443,16.713,16.713,0,0,0,3.855,1.663,11.327,11.327,0,0,0,2.917.338ZM227.2,47.228a14.411,14.411,0,0,1,3.239,1.059,8.535,8.535,0,0,1,2.595,1.766l1.377-1.648a9.952,9.952,0,0,0-2.711-1.736,17.381,17.381,0,0,0-3.328-1Zm-7.8,2.648a10.279,10.279,0,0,0,3.093-.883,18.734,18.734,0,0,0,3-1.795l-1.29-1.5a10.231,10.231,0,0,1-2.653,1.442,16.169,16.169,0,0,1-3.269.912Zm23.2-21.776V41.2a19.7,19.7,0,0,1-.323,3.517,14.427,14.427,0,0,1-.938,3.193,18.73,18.73,0,0,1-2.727,4.12l1.877,1.412a19.554,19.554,0,0,0,2.961-4.458,18.751,18.751,0,0,0,1.319-5.576h6.42v7h2.287v-7h6.391v6.3a0.711,0.711,0,0,1-.117.427,0.487,0.487,0,0,1-.352.191,7.941,7.941,0,0,1-1.1.044q-0.573-.015-2.009-0.074l0.7,2.3,3.342-.059a1.892,1.892,0,0,0,.806-0.368,2.4,2.4,0,0,0,.719-0.912,2.559,2.559,0,0,0,.293-1.1V28.1H242.607Zm8.589,2.178v4.267h-6.3V30.278h6.3Zm8.619,6.415-0.029,4.532h-6.3l0.029-4.532h6.3Zm-6.332-6.415h6.332v4.238l-6.3.029Zm-8.59,6.415h6.3v4.532h-6.3V36.693Zm44.265,3.531a7.943,7.943,0,0,1,2.727-3.708A30.6,30.6,0,0,1,288.4,34.9a20.862,20.862,0,0,1-3.5-2.325,14.734,14.734,0,0,1-2.521-2.59,13.6,13.6,0,0,1-1.481-2.472H269.252v3.62h4.515a20.226,20.226,0,0,1-8.3,5.679,10.248,10.248,0,0,1,1.3,1.766,11.076,11.076,0,0,1,.836,1.883q0.615-.265.864-0.383t0.543-.28q0.293-.161.5-0.279V40.2h6.89v2.148h-6.362V45.9h6.362v2.943h-9.733V52.5l23.951-.029V48.847h-10V45.9h6.245V42.343h-6.245V40.2h6.743V39.489ZM274,36.517a21,21,0,0,0,2.506-2.3,21.725,21.725,0,0,0,2.067-2.5,27.09,27.09,0,0,0,2.155,2.575,22.451,22.451,0,0,0,2.418,2.281Zm32.978-3.325-1.554-.412h2.4V29.366h-4.046q-0.732-1.766-1.084-2.413l-4.017.53a8.6,8.6,0,0,1,.968,1.883h-5.16v3.414l2.639,0.059-1.027.118a10.069,10.069,0,0,1,.88,2.619h-2.727v3.5h5.131V40.2H294.52v3.414h3.958a21.439,21.439,0,0,1-2.55,2.678,16.014,16.014,0,0,1-2.053,1.53,5.368,5.368,0,0,1,2.023,3.266l0.352-.235q2.2-1.854,2.6-2.266t0.542-.559v5.062h3.84v-5.5a9.52,9.52,0,0,0,2.111,1.5l0.469,0.265a6.047,6.047,0,0,1,.821-1.883,4.6,4.6,0,0,1,1.026-1.089,11.3,11.3,0,0,1-1.348,2.531,9.631,9.631,0,0,1-1.994,2.089,6.359,6.359,0,0,1,3.43,2.3l1.2-1.236a16.066,16.066,0,0,0,1.964-3.3,17.449,17.449,0,0,0,1.129-3.811,33.945,33.945,0,0,0,.454-5.429h1.642L314.162,53.2h3.929l-0.029-13.684h2.169l0.029-3.884h-7.71v-3.3a36.288,36.288,0,0,0,3.972-.78,25.671,25.671,0,0,0,3.65-1.192l-2.931-3.178A32.226,32.226,0,0,1,308.71,29.4v8.357L308.534,42.2a12.116,12.116,0,0,1-.763,3.737l-0.351-.147a12.227,12.227,0,0,1-2.17-1.089,7.846,7.846,0,0,1-1.29-1.089H307.8V40.166l-4.574.029V39.077h4.955v-3.5h-2.4Zm-3.958-.412a20.126,20.126,0,0,1-1.055,2.8h-1.232q-0.176-.677-0.85-2.8h3.137Zm26.734,7.828a11.689,11.689,0,0,1-.748,4.547,7.064,7.064,0,0,1-2.257,2.9,12.006,12.006,0,0,1-3.972,1.854A9.5,9.5,0,0,1,325.8,53.29a16.881,16.881,0,0,0,2.873-1.648,11.854,11.854,0,0,0,2.873-2.8,9.582,9.582,0,0,0,1.554-3.6,26.485,26.485,0,0,0,.528-4.635h5.013V53.29l4.192-.03V40.607h5.981V36.84h-5.981V27.306h-4.192a0.443,0.443,0,0,0-.528.471,0.6,0.6,0,0,0,.264.427,0.683,0.683,0,0,1,.264.544V36.84h-4.984V32.6q0.264-.059,1.187-0.25t1.715-.4a8.629,8.629,0,0,0,1.378-.471l-3.049-3.237A33.483,33.483,0,0,1,323.57,30.19a16.4,16.4,0,0,1,2.052,3.531,24.74,24.74,0,0,0,2.507-.221q1.45-.191,1.627-0.221V36.84h-6.889v3.767h6.889ZM359.07,53.349V41.784l0.762-.059,0.2,1.089a9.1,9.1,0,0,1,3.254-.706,28.08,28.08,0,0,0-1.554-5.679l-2.961.324q1.876-2.384,3.43-4.708h1.935q-0.087,3.649-.219,6.047a41.12,41.12,0,0,1-.484,4.5,30.043,30.043,0,0,1-.792,3.575,13.567,13.567,0,0,1-.264-1.427q-0.087-.691-0.2-1.9l-2.873.235a30.729,30.729,0,0,0,.616,5.827,5.405,5.405,0,0,0,.571-0.176,4.544,4.544,0,0,1,.689-0.191,2.89,2.89,0,0,1,.469-0.044,10.211,10.211,0,0,1-.952,1.486,9.645,9.645,0,0,1-1.188,1.31,5.97,5.97,0,0,1,1.188.5,5.386,5.386,0,0,1,1.158.824,4.384,4.384,0,0,1,.762.912,7.39,7.39,0,0,0,.821-0.912q0.381-.5.791-1.133t0.528-.809a5.423,5.423,0,0,1,1.51,1.118,5.252,5.252,0,0,1,1.07,1.53,20.92,20.92,0,0,0,2.316-1.56,20.024,20.024,0,0,0,1.935-1.677,24.293,24.293,0,0,0,3.928,3.443,9.06,9.06,0,0,1,.85-1.957,8.812,8.812,0,0,1,1.261-1.78,17.593,17.593,0,0,1-3.753-2.8,23.428,23.428,0,0,0,2.844-9.681l-0.879-.589h-2.052l1.788-7.8-1.114-.618H361.737v3.325l-2.491-1.148-1.994,2.972-0.645-.5q1.759-2.884,2.609-4.385l-3.107-1.442a29.5,29.5,0,0,1-2.023,3.855l-0.821-.736-2.14,2.766a29.781,29.781,0,0,1,3.958,3.413q-0.441.618-1.877,2.266l-2.169-.059,0.762,3.8,3.606-.294,0.029,11.212h3.636Zm11.111-16.626H367.63l0.088-4.65h3.489Zm2.521,3.5a11.224,11.224,0,0,1-1.319,3.884,9.819,9.819,0,0,1-1.789-3.884H372.7Zm-13.486-1.707-1.993.118,1.524-1.8Zm-6.948,4.355A31.734,31.734,0,0,1,351.3,50.2a8.585,8.585,0,0,1,3.137.912A29.73,29.73,0,0,0,355,47.3a35.115,35.115,0,0,0,.117-4.017Zm14.116,3.958a29.024,29.024,0,0,0,.689-3.369,13.832,13.832,0,0,0,1.876,3.855,12.484,12.484,0,0,1-2.008,1.633,11.951,11.951,0,0,1-1.774.868A25.731,25.731,0,0,0,366.384,46.831ZM401.4,37.753q-0.088,1.942-.161,2.56a7.623,7.623,0,0,1-.323,1.4,6.344,6.344,0,0,1-.777,1.574,8.034,8.034,0,0,1-.894-2.487A16.766,16.766,0,0,1,399,37.753h2.4ZM395.947,48.8a7.8,7.8,0,0,1-2.463,1.427,15.233,15.233,0,0,0,1.466-3.943,35.06,35.06,0,0,0,.88-6.209,21.617,21.617,0,0,0,.557,2.56,17.312,17.312,0,0,0,.821,2.384A14.884,14.884,0,0,0,398,46.61,11.016,11.016,0,0,1,395.947,48.8Zm-7.271,1.4-1.114,1.059a3.533,3.533,0,0,1,1.569.544,13.314,13.314,0,0,1,2.1,1.486,5.823,5.823,0,0,0,.967-1.045q0.441-.6,1.056-1.6a12.27,12.27,0,0,1,1.568,1.162,8.468,8.468,0,0,1,1.393,1.427,9.979,9.979,0,0,0,1.964-1.4q0.967-.868,2.023-1.986a24.576,24.576,0,0,0,1.876,1.913,12.99,12.99,0,0,0,1.935,1.5,6.438,6.438,0,0,1,1.011-1.824,11.49,11.49,0,0,1,1.393-1.589,9.556,9.556,0,0,1-2.1-1.633,20.568,20.568,0,0,1-1.8-2.045,22.942,22.942,0,0,0,1.612-5.047,51.165,51.165,0,0,0,.821-6.165l-1.055-.794h-8.033V31.749a36.492,36.492,0,0,0,5.761-.647,30.743,30.743,0,0,0,4.5-1.207l-2.287-2.943a19.655,19.655,0,0,1-5.1,1.118q-2.961.294-6.655,0.324V39.283a24.449,24.449,0,0,1-.454,4.267,14.305,14.305,0,0,1-1.1,3.767V39.43h-5.365V36.752h6.509V33.28h-1.554v-6.15h-3.606a0.616,0.616,0,0,0-.44.206,0.349,0.349,0,0,0,.147.486,0.859,0.859,0,0,1,.322.338v5.12h-1.378V27.394H381.2a0.545,0.545,0,0,0-.352.118,0.363,0.363,0,0,0-.147.294,0.485,0.485,0,0,0,.381.441,0.487,0.487,0,0,1,.382.441v9.417a41.876,41.876,0,0,1-1.29,10.947,8.114,8.114,0,0,1-.528,1.442,5.987,5.987,0,0,1,3.577,1.972l0.175,0.206a36.247,36.247,0,0,0,1.789-9.681h1.847V50.2h1.641Zm32.1,1.56c6.245,0,10.408-4.355,10.408-10.947s-4.163-10.947-10.408-10.947c-6.273,0-10.437,4.355-10.437,10.947S414.505,51.76,420.778,51.76Zm0-3.5c-3.811,0-6.3-2.825-6.3-7.445s2.492-7.445,6.3-7.445,6.3,2.825,6.3,7.445S424.59,48.258,420.778,48.258Zm21.073-12.507a5.451,5.451,0,0,0-4.838,2.531V36.1h-3.547V57.057h3.694v-7.74a5.4,5.4,0,0,0,4.691,2.325c4.163,0,6.772-3.119,6.772-7.946S446.014,35.751,441.851,35.751Zm-0.88,12.831c-2.4,0-3.9-1.677-3.9-4.885s1.5-4.885,3.9-4.885,3.9,1.56,3.9,4.767S443.375,48.582,440.971,48.582Zm17.291-9.652V36.1h-2.99V31.69h-3.665V36.1h-2.345v2.825h2.345v8.593c0,2.8,1.525,3.885,4.72,3.885,0.587,0,1.261-.059,1.935-0.118V48.464H457c-1.231,0-1.729-.324-1.729-1.324v-8.21h2.99Zm3.512-4.65a2.045,2.045,0,1,0-2.053-2.031A2.031,2.031,0,0,0,461.774,34.28Zm-1.847,17.009h3.694V36.1h-3.694V51.289Zm16.789,0h4.222l-6.069-9.446,5.717-5.738h-4.4l-6.157,6.3V30.336H466.4V51.289h3.635V46.522l2.287-2.3Zm28.76-20.953H488.12V33.9H494.8V51.289h3.987V33.9h6.685V30.336Zm16.549,0-3.694,10.83c-0.675,2.06-1.378,4.3-1.965,6.533-0.615-2.236-1.319-4.473-1.993-6.533l-3.782-10.83h-4.222l7.652,20.953h4.632l7.476-20.953h-4.1Zm8.053-.048a3.067,3.067,0,1,0,3.147,3.073A3.078,3.078,0,0,0,530.078,30.288Zm0,5.464a2.4,2.4,0,1,1,2.444-2.391A2.371,2.371,0,0,1,530.078,35.752Zm1.271-1.71a0.667,0.667,0,0,0-.37-0.657,0.768,0.768,0,0,0,.444-0.731,0.956,0.956,0,0,0-1.135-.917h-1.432v3.172h0.716V33.732h0.666c0.284,0,.37.1,0.395,0.409l0.025,0.334a0.858,0.858,0,0,0,.111.434h0.753a0.718,0.718,0,0,1-.136-0.434Zm-1.777-.9V32.357h0.654a0.394,0.394,0,1,1,.025.781h-0.679Z"/>
</svg>
