<svg xmlns="http://www.w3.org/2000/svg" width="728" height="90" viewBox="0 0 728 90">
  <defs>
    <style>
      .cls-1 {
        fill: #fffffe;
        fill-rule: evenodd;
      }
    </style>
  </defs>
  <path id="_" data-name="$" class="cls-1" d="M70.187,46.58c0-2.614-1.677-3.486-4.45-3.97l-0.581-.1V38.705c1.548,0.129,2.193.871,2.257,2h2.322c-0.129-2.356-1.677-3.808-4.579-3.97v-1.9h-1.1V36.7c-3.16.161-4.676,1.71-4.676,3.808,0,2.582,1.677,3.582,4.257,4.034l0.419,0.065v4c-1.612-.129-2.451-0.742-2.58-2.291H59.094c0.1,2.421,1.612,4.067,4.966,4.26v1.9h1.1V50.614C68.285,50.517,70.187,49.1,70.187,46.58Zm-8.32-6.164c0-.968.677-1.614,2.193-1.711V42.32C62.416,42,61.868,41.448,61.868,40.416Zm3.289,8.23V44.8c2.064,0.387,2.547.9,2.547,1.936C67.7,47.806,66.995,48.549,65.157,48.645Z"/>
  <path id="每月僅_" data-name="每月僅 " class="cls-1" d="M79.872,18.381q-0.232,2.33-.279,2.656t-0.075.45l-2.164-.014-0.014.994h2.028q-0.232,1.417-.68,3.256h7.391a1.439,1.439,0,0,1-.231.606,0.489,0.489,0,0,1-.354.17q-0.2.014-.7,0a12.025,12.025,0,0,1-1.654-.232l0.368,1.049a14.191,14.191,0,0,0,1.783.15,6.634,6.634,0,0,0,.749-0.055,1.171,1.171,0,0,0,.558-0.259,1.474,1.474,0,0,0,.4-0.586,4.75,4.75,0,0,0,.252-0.845H88.6l-0.014-.994-1.211.014,0.313-2.275h1.484V21.474H87.753q0-.027.088-1.226t0.1-1.866H79.872Zm0.721,3.092q0.054-.313.136-1.09t0.109-.994l5.975-.014a21.04,21.04,0,0,1-.163,2.111Zm5.975,0.981q-0.123,1.1-.3,2.275l-6.207.014,0.395-2.275h1.429l-0.572.749a12.307,12.307,0,0,1,2.042.729,5.728,5.728,0,0,1,1.157.742l0.721-.708a6.279,6.279,0,0,0-1.4-.9,8.915,8.915,0,0,0-1.681-.627h4.41ZM85.33,20.684a4.161,4.161,0,0,0-1.225-.756,8.221,8.221,0,0,0-1.838-.484l-0.708.749a7.358,7.358,0,0,1,1.681.463,5.434,5.434,0,0,1,1.354.776Zm3.552-3.378V16.325H81a2.931,2.931,0,0,1,.157-0.341,3,3,0,0,0,.211-0.531l-0.994-.327a9.465,9.465,0,0,1-.606,1.362,10.181,10.181,0,0,1-1.082,1.621,10.14,10.14,0,0,1-1.307,1.376l0.844,0.64a13.61,13.61,0,0,0,2.3-2.82h8.357Zm9.4,5.926-0.014,2.656a0.253,0.253,0,0,1-.109.2,0.36,0.36,0,0,1-.231.089l-1.756-.055,0.408,1.09,1.647-.014a1.4,1.4,0,0,0,.538-0.116,1.017,1.017,0,0,0,.456-0.375,0.931,0.931,0,0,0,.177-0.531l-0.014-10.23H92.609l0.014,6.293a4.6,4.6,0,0,1-.687,2.418A6.809,6.809,0,0,1,90,26.677l0.667,0.967a15.084,15.084,0,0,0,1.218-1.124,7.215,7.215,0,0,0,1.1-1.464,6.7,6.7,0,0,0,.708-1.825h4.6Zm-4.56-4.168V16.938l4.546,0.014v2.111H93.725Zm4.546,1.022,0.014,2.139H93.712q0.027-.354.02-1.09t0.007-1.062Zm10.394-.6-3.212-.014v2.752h3.212v0.613h-3.212V23.79h3.212v0.586h-2.818l0.014,0.94,2.845-.027v0.749l-4-.014V26.95l9.31-.014L114,26.01l-4.274.027V25.288l2.8,0.014-0.014-.94-2.79-.014V23.762l3.2,0.014v-0.94H109.7l-0.013-.613h3.239l0.014-2.738-3.253-.014V18.9l1.783-.014V17.292h2.219v-0.94h-2.219L111.455,15.3h-1.034l-0.014,1.035h-2.5V15.316h-1.076v1.035l-1.66-.014-0.014.954h1.661v1.567l1.837,0.014Zm3.212,0.94-0.027.845-2.164-.014V20.411Zm-5.376-.014h2.15v0.872l-2.137.014Zm1.4-2.479,0.013-.64h2.491v0.64h-2.5Zm-5.54,4.168a15.012,15.012,0,0,0,1.062-1.43v6.893H104.5l-0.014-9.236q0.055-.191.361-1.151a15.117,15.117,0,0,0,.415-1.505l-0.966-.5a22.137,22.137,0,0,1-.742,2.643,11.447,11.447,0,0,1-.973,2.111,11.077,11.077,0,0,1-1.13,1.567Z"/>
  <path id="_38起_" data-name="38起*" class="cls-1" d="M89.032,50.18A7.746,7.746,0,0,0,93.4,43.15c0-5.633-4.322-8.7-10.266-8.7-6.484,0-10.446,3.83-10.491,9.553h3.782c0.18-4.326,3.017-6.128,6.709-6.128,3.917,0,6.439,1.938,6.439,5.362s-2.341,5.452-6.664,5.452H80.747v3.154h2.386c4.5,0,7.294,2.523,7.294,6.4s-2.792,6.309-7.069,6.309c-4.683,0-7.339-2.433-7.474-6.985H72.148C72.1,63.789,76.02,67.979,83.359,67.979c6.529,0,11.031-3.875,11.031-9.733C94.39,54.236,91.959,51.712,89.032,50.18Zm25.482-.135a7.15,7.15,0,0,0,4.637-6.8c0-5.723-4.637-8.787-10.31-8.787S98.53,37.518,98.53,43.241a7.15,7.15,0,0,0,4.637,6.8c-3.557,1.352-5.943,4.146-5.943,8.111,0,6.083,4.728,9.823,11.617,9.823s11.616-3.74,11.616-9.823C120.457,54.19,118.071,51.4,114.514,50.045Zm-5.673-12.167c3.692,0,6.573,1.848,6.573,5.362s-2.881,5.362-6.573,5.362-6.574-1.848-6.574-5.362S105.148,37.878,108.841,37.878Zm0,26.676c-4.638,0-7.655-2.3-7.655-6.4s3.017-6.4,7.655-6.4,7.654,2.3,7.654,6.4S113.478,64.555,108.841,64.555Zm25.153,2.879,0.45-.95-3.11.075a17.786,17.786,0,0,1-2.592-.062,5.941,5.941,0,0,1-1.442-.35V64.008h1.511V63.121l-1.549.012,0.013-1.337,1.748,0.013v-0.9h-2.2l0.025-1.4h1.773l0.013-.913h-1.8l-0.012-1.787h-0.974l0.012,1.787h-1.811v0.913l1.8-.025,0.012,1.425h-2.186v0.9h2.648v3.875a2.813,2.813,0,0,1-.618-0.437,3.221,3.221,0,0,1-.506-0.562q0.063-.5.113-1.812l-0.975-.125a16.031,16.031,0,0,1-.174,2.4,7.287,7.287,0,0,1-1.1,2.438l0.8,0.55a7.745,7.745,0,0,0,.681-1.062,5.687,5.687,0,0,0,.493-1.213,6.069,6.069,0,0,0,4.072,1.575l2.26,0.037Zm-1.511-1.812a1.093,1.093,0,0,0,.462-0.175,1.361,1.361,0,0,0,.375-0.338,7.574,7.574,0,0,0,.6-1.763l-0.912-.387a8.163,8.163,0,0,1-.237,1.075,1.466,1.466,0,0,1-.212.513,0.492,0.492,0,0,1-.275.175h-1.8a0.261,0.261,0,0,1-.181-0.075,0.231,0.231,0,0,1-.081-0.175l-0.012-2.5h2.073l-0.013.5h0.962V57.746h-3.947v6.938a0.961,0.961,0,0,0,.113.444,0.829,0.829,0,0,0,.35.35,0.951,0.951,0,0,0,.462.131Zm-2.248-4.55V58.633h2.035v2.438h-2.035Zm5.2-.306,0.691-.954,0.692,0.954,0.364-.291-0.7-.969,1.107-.357-0.153-.437-1.078.35V57.908H135.89v1.151l-1.077-.35-0.153.437,1.107,0.357-0.7.969Z"/>
</svg>
