<svg xmlns="http://www.w3.org/2000/svg" width="300" height="50" viewBox="0 0 300 50">
  <defs>
    <style>
      .cls-1 {
        fill: #fffffe;
        fill-rule: evenodd;
      }
    </style>
  </defs>
  <path id="_Live_TV" data-name="+  Live TV" class="cls-1" d="M106.483,23.682H103.42V20.62h-1.292v3.062h-3.08v1.192h3.08v3.062h1.292V24.873h3.063V23.682Zm9.672,5.23V18.385h-1.391V30.17h7.319V28.912h-5.928Zm7.774-8.491a0.894,0.894,0,1,0-.895-0.894A0.9,0.9,0,0,0,123.929,20.421Zm-0.663,9.749h1.325v-8.54h-1.325v8.54Zm9.043-8.54L130.9,25.42c-0.4,1.076-.845,2.251-1.209,3.327-0.364-1.076-.811-2.234-1.209-3.31l-1.407-3.807h-1.441l3.345,8.54h1.391l3.362-8.54h-1.425ZM141.9,25.9c0-2.45-1.375-4.469-3.925-4.469-2.368,0-3.941,1.788-3.941,4.469,0,2.764,1.64,4.469,3.975,4.469a3.565,3.565,0,0,0,3.676-2.8h-1.375a2.195,2.195,0,0,1-2.268,1.589c-1.491,0-2.5-.877-2.633-2.8H141.9V25.9Zm-3.925-3.261a2.505,2.505,0,0,1,2.5,2.532h-5.034C135.66,23.483,136.637,22.639,137.978,22.639Zm17.6-4.254h-9.455v1.258h4.007V30.17h1.44V19.643h4.008V18.385Zm9.742,0-2.682,7.465c-0.364,1.01-.712,2-1.01,2.93-0.3-.927-0.646-1.92-1.01-2.93l-2.732-7.465h-1.474l4.438,11.785h1.556l4.372-11.785h-1.458Z"/>
</svg>
