<svg xmlns="http://www.w3.org/2000/svg" width="300" height="50" viewBox="0 0 300 50">
  <defs>
    <style>
      .cls-1 {
        fill: #fffffe;
        fill-rule: evenodd;
      }
    </style>
  </defs>
  <path id="_" data-name="$" class="cls-1" d="M81.154,16c0-2.354-1.492-3.138-3.959-3.574l-0.516-.087V8.907c1.377,0.116,1.951.785,2.008,1.8h2.066c-0.115-2.121-1.492-3.429-4.074-3.574V5.42H75.7V7.106c-2.812.145-4.16,1.54-4.16,3.429,0,2.325,1.492,3.226,3.787,3.632L75.7,14.225v3.6c-1.434-.116-2.18-0.668-2.3-2.063H71.285c0.086,2.179,1.435,3.661,4.418,3.836v1.714h0.975V19.63C79.461,19.543,81.154,18.264,81.154,16Zm-7.4-5.55c0-.872.6-1.453,1.951-1.54v3.255C74.24,11.871,73.752,11.377,73.752,10.447Zm2.926,7.41V14.4c1.836,0.349,2.267.814,2.267,1.744C78.945,17.1,78.314,17.77,76.678,17.857Z"/>
  <path id="_38_mo._se" data-name="38/mo.* se" class="cls-1" d="M47,26.781c2.673,0,4.173-1.313,4.173-3.306,0-1.629-.907-2.641-3.47-3.211l-0.985-.221c-2.094-.475-2.61-1.012-2.61-2.088,0-1.06.828-1.74,2.438-1.74,2.219,0,2.891.87,3,2.325H50.9c-0.047-1.835-1.063-3.527-4.345-3.527-2.313,0-3.8,1.139-3.8,2.942,0,2.056,1.485,2.831,3.376,3.258l0.985,0.221c1.969,0.443,2.7.965,2.7,2.04,0,1.392-1.032,2.1-2.813,2.1-1.813,0-3.235-.68-3.267-2.768h-1.36C42.409,25.627,44.347,26.781,47,26.781Zm6.253-9.569a0.854,0.854,0,1,0-.844-0.854A0.856,0.856,0,0,0,53.257,17.213Zm-0.625,9.316h1.25V18.367h-1.25v8.161Zm6.883-8.288a2.813,2.813,0,0,0-2.594,1.566V18.367H55.732v8.161h1.25v-4.65c0-1.582,1.031-2.4,2.641-2.4h0.313V18.257A4.209,4.209,0,0,0,59.514,18.241Zm4.916-1.9h0.719V15.267c-0.188-.016-0.563-0.032-0.8-0.032A2.006,2.006,0,0,0,62.1,17.529v0.838H60.772v1.107H62.1v7.054h1.25V19.474H65.07V18.367H63.351V17.5A1,1,0,0,1,64.43,16.343Zm33.924,4.666a6.983,6.983,0,0,0,3.885-6.329c0-5.072-3.845-7.831-9.133-7.831-5.768,0-9.294,3.449-9.334,8.6h3.365c0.16-3.895,2.684-5.518,5.969-5.518,3.485,0,5.728,1.745,5.728,4.828s-2.083,4.909-5.929,4.909H90.983v2.84h2.123c4.006,0,6.49,2.272,6.49,5.761s-2.484,5.68-6.289,5.68c-4.166,0-6.529-2.191-6.65-6.289H83.332c-0.04,5.6,3.445,9.372,9.975,9.372,5.809,0,9.815-3.489,9.815-8.764C103.121,24.66,100.958,22.388,98.354,21.008Zm22.35-.122a6.435,6.435,0,0,0,4.126-6.127c0-5.153-4.126-7.912-9.173-7.912s-9.173,2.759-9.173,7.912a6.435,6.435,0,0,0,4.126,6.127,7.611,7.611,0,0,0-5.288,7.3c0,5.477,4.206,8.845,10.335,8.845s10.335-3.368,10.335-8.845A7.611,7.611,0,0,0,120.7,20.887ZM115.657,9.932c3.285,0,5.849,1.663,5.849,4.828s-2.564,4.828-5.849,4.828-5.849-1.663-5.849-4.828S112.372,9.932,115.657,9.932Zm0,24.019c-4.126,0-6.81-2.069-6.81-5.761s2.684-5.761,6.81-5.761,6.81,2.069,6.81,5.761S119.783,33.951,115.657,33.951Zm9.718,2.434h0.966l3.158-8.931h-0.966Zm11.3-6.623a2.2,2.2,0,0,0-1.969,1.217,2,2,0,0,0-1.97-1.217,2.05,2.05,0,0,0-1.845,1.1V29.913h-0.941v6.472h0.991V32.848c0-1.555.854-2.183,1.634-2.183a1.229,1.229,0,0,1,1.338,1.43v4.29h0.991V32.848c0-1.555.829-2.183,1.634-2.183a1.224,1.224,0,0,1,1.338,1.43v4.29h0.991V32A2.045,2.045,0,0,0,136.678,29.763Zm6.466,6.774a3.084,3.084,0,0,0,3.1-3.387,3.108,3.108,0,1,0-6.192,0A3.084,3.084,0,0,0,143.144,36.536Zm0-.9c-1.238,0-2.056-.916-2.056-2.484s0.818-2.484,2.056-2.484,2.056,0.916,2.056,2.484S144.383,35.633,143.144,35.633Zm4.148,0.84a0.716,0.716,0,0,0,.706-0.74,0.725,0.725,0,0,0-1.449,0A0.717,0.717,0,0,0,147.292,36.473Zm0.833-4.709,0.487-.679,0.486,0.679,0.256-.207-0.492-.689,0.778-.254-0.107-.311-0.758.249V29.733h-0.327v0.819L147.69,30.3l-0.107.311,0.778,0.254-0.492.689Zm7.158,4.771c1.573,0,2.539-.7,2.539-1.932,0-1.054-.632-1.593-2.205-1.907l-0.569-.113c-0.818-.163-1.288-0.389-1.288-1s0.483-.953,1.337-0.953c0.978,0,1.561.276,1.61,1.279H157.7c-0.025-1.38-.892-2.145-2.6-2.145-1.461,0-2.328.728-2.328,1.831,0,1,.607,1.643,1.994,1.907l0.594,0.113c1.115,0.213,1.462.477,1.462,1.054,0,0.64-.459,1-1.536,1-1.127,0-1.6-.364-1.709-1.342h-1C152.67,35.846,153.661,36.536,155.283,36.536Zm9.194-3.387c0-1.856-1.028-3.387-2.935-3.387-1.771,0-2.947,1.355-2.947,3.387,0,2.095,1.226,3.387,2.972,3.387a2.672,2.672,0,0,0,2.749-2.12h-1.028a1.643,1.643,0,0,1-1.7,1.2c-1.115,0-1.87-.665-1.969-2.12h4.854V33.149Zm-2.935-2.471a1.886,1.886,0,0,1,1.87,1.919h-3.765A1.89,1.89,0,0,1,161.542,30.678Z"/>
</svg>
