<svg xmlns="http://www.w3.org/2000/svg" width="300" height="50" viewBox="0 0 300 50">
  <defs>
    <style>
      .cls-1 {
        fill: #fffffe;
        fill-rule: evenodd;
      }
    </style>
  </defs>
  <path id="Laayein_naya_Optik_TV_." data-name="Laayein naya Optik TV®." class="cls-1" d="M19.056,29.781v-10.6h-1.4V31.047h7.37V29.781h-5.97Zm14.255,0.183a0.394,0.394,0,0,1-.467-0.417v-4.8c0-1.45-.85-2.5-3.235-2.5-2.518,0-3.4,1.183-3.5,2.85h1.334c0.083-1.283.7-1.7,2.168-1.7s1.934,0.45,1.934,1.35c0,0.767-.483,1.083-1.351,1.183l-1.234.133c-2.368.25-3.185,1.317-3.185,2.667,0,1.617,1.167,2.517,3.035,2.517a3.154,3.154,0,0,0,2.8-1.383A1.234,1.234,0,0,0,33.062,31.1a5.082,5.082,0,0,0,.734-0.05V29.964H33.312Zm-4.436.15c-1.184,0-1.718-.567-1.718-1.417,0-.833.433-1.367,2-1.55L30.41,27a2.22,2.22,0,0,0,1.134-.367v1.017A2.471,2.471,0,0,1,28.876,30.114Zm13.108-.15a0.394,0.394,0,0,1-.467-0.417v-4.8c0-1.45-.85-2.5-3.235-2.5-2.518,0-3.4,1.183-3.5,2.85h1.334c0.083-1.283.7-1.7,2.168-1.7s1.934,0.45,1.934,1.35c0,0.767-.484,1.083-1.351,1.183l-1.234.133c-2.368.25-3.185,1.317-3.185,2.667,0,1.617,1.167,2.517,3.035,2.517a3.154,3.154,0,0,0,2.8-1.383A1.234,1.234,0,0,0,41.734,31.1a5.082,5.082,0,0,0,.734-0.05V29.964H41.984Zm-4.436.15c-1.184,0-1.717-.567-1.717-1.417,0-.833.434-1.367,2-1.55L39.083,27a2.221,2.221,0,0,0,1.134-.367v1.017A2.471,2.471,0,0,1,37.549,30.114Zm11.039-7.666L47.37,26.014c-0.434,1.25-.85,2.5-1.234,3.733-0.4-1.233-.8-2.467-1.234-3.717l-1.217-3.583H42.218l3.235,8.883c-0.1.267-.2,0.55-0.3,0.8A1.507,1.507,0,0,1,43.585,33.2H42.8v1.117a6.663,6.663,0,0,0,.8.05A2.6,2.6,0,0,0,46.4,32.4l3.635-9.95H48.588Zm9.528,4.3c0-2.467-1.384-4.5-3.952-4.5-2.384,0-3.969,1.8-3.969,4.5,0,2.783,1.651,4.5,4,4.5a3.589,3.589,0,0,0,3.7-2.817H56.515a2.21,2.21,0,0,1-2.284,1.6c-1.5,0-2.518-.883-2.651-2.817h6.537V26.747Zm-3.952-3.283a2.522,2.522,0,0,1,2.518,2.55H51.612C51.829,24.314,52.813,23.464,54.164,23.464Zm5.978-2.233a0.9,0.9,0,1,0-.9-0.9A0.907,0.907,0,0,0,60.142,21.231Zm-0.667,9.817h1.334v-8.6H59.475v8.6Zm7.1-8.8a3.17,3.17,0,0,0-2.7,1.483V22.448H62.61v8.6h1.334V26.181a2.449,2.449,0,0,1,2.368-2.733,1.725,1.725,0,0,1,1.968,1.917v5.683h1.334V25.231A2.743,2.743,0,0,0,66.578,22.248Zm12.94,0a3.171,3.171,0,0,0-2.685,1.433V22.448H74.8v8.6h2.1V26.231a1.936,1.936,0,0,1,1.918-2.167A1.437,1.437,0,0,1,80.435,25.7v5.35h2.1v-5.7A2.8,2.8,0,0,0,79.518,22.248Zm12.338,8.8a3.255,3.255,0,0,1-.35-1.633V24.831c0-1.55-1.017-2.583-3.585-2.583-2.685,0-3.752,1.117-3.869,2.933H86.12c0.083-1.05.584-1.367,1.784-1.367,1.217,0,1.567.4,1.567,1.067,0,0.633-.417.883-1.217,0.983l-1.3.117c-2.435.233-3.3,1.25-3.3,2.683,0,1.667,1.267,2.583,3.1,2.583A3.2,3.2,0,0,0,89.521,30a2.8,2.8,0,0,0,.234,1.05h2.1Zm-4.6-1.3A1.2,1.2,0,0,1,85.8,28.581c0-.683.383-1.1,1.551-1.233l1.134-.133a1.673,1.673,0,0,0,.984-0.35v0.783A2.019,2.019,0,0,1,87.254,29.747Zm11.08-7.3-0.7,2.167C97.167,26.131,96.7,27.7,96.25,29.4c-0.434-1.683-.9-3.3-1.367-4.8l-0.7-2.15H91.914l2.5,7.066a5.768,5.768,0,0,1,.4,1.733A1.285,1.285,0,0,1,93.4,32.631H92.6v1.65a6.869,6.869,0,0,0,.917.05c2.084,0,3.018-.667,3.7-2.583l3.318-9.3h-2.2Zm10.338,8.6a3.26,3.26,0,0,1-.35-1.633V24.831c0-1.55-1.017-2.583-3.585-2.583-2.685,0-3.752,1.117-3.869,2.933h2.068c0.084-1.05.584-1.367,1.784-1.367,1.218,0,1.568.4,1.568,1.067,0,0.633-.417.883-1.217,0.983l-1.3.117c-2.435.233-3.3,1.25-3.3,2.683,0,1.667,1.268,2.583,3.1,2.583A3.2,3.2,0,0,0,106.338,30a2.8,2.8,0,0,0,.233,1.05h2.1Zm-4.6-1.3a1.2,1.2,0,0,1-1.451-1.167c0-.683.384-1.1,1.551-1.233l1.134-.133a1.675,1.675,0,0,0,.984-0.35v0.783A2.019,2.019,0,0,1,104.07,29.747Zm15.174,1.567c3.552,0,5.92-2.467,5.92-6.2s-2.368-6.2-5.92-6.2c-3.568,0-5.936,2.467-5.936,6.2S115.676,31.314,119.244,31.314Zm0-1.983c-2.168,0-3.585-1.6-3.585-4.217s1.417-4.217,3.585-4.217,3.585,1.6,3.585,4.217S121.412,29.331,119.244,29.331Zm11.986-7.083a3.1,3.1,0,0,0-2.751,1.433V22.448h-2.018V34.314h2.1V29.931a3.078,3.078,0,0,0,2.668,1.317c2.368,0,3.852-1.767,3.852-4.5S133.6,22.248,131.23,22.248Zm-0.5,7.267c-1.368,0-2.218-.95-2.218-2.767s0.85-2.767,2.218-2.767,2.218,0.883,2.218,2.7S132.1,29.514,130.73,29.514Zm9.835-5.467v-1.6h-1.7v-2.5H136.78v2.5h-1.334v1.6h1.334v4.867c0,1.583.867,2.2,2.684,2.2,0.334,0,.717-0.033,1.1-0.067v-1.6h-0.717c-0.7,0-.984-0.183-0.984-0.75v-4.65h1.7Zm2-2.633a1.158,1.158,0,1,0-1.167-1.15A1.153,1.153,0,0,0,142.562,21.414Zm-1.05,9.633h2.1v-8.6h-2.1v8.6Zm9.55,0h2.4l-3.452-5.35,3.252-3.25h-2.5l-3.5,3.567V19.181h-2.068V31.047h2.068v-2.7l1.3-1.3Zm16.357-11.867h-9.871V21.2h3.8v9.85h2.268V21.2h3.8V19.181Zm9.414,0-2.1,6.133c-0.383,1.167-.783,2.433-1.117,3.7-0.35-1.267-.75-2.533-1.134-3.7l-2.151-6.133h-2.4l4.352,11.867h2.635l4.252-11.867h-2.334Zm4.4-.19A1.5,1.5,0,1,0,182.78,20.5,1.513,1.513,0,0,0,181.231,18.991Zm0,2.678a1.178,1.178,0,1,1,1.2-1.172A1.165,1.165,0,0,1,181.231,21.669Zm0.625-.838a0.326,0.326,0,0,0-.182-0.322,0.376,0.376,0,0,0,.219-0.358,0.47,0.47,0,0,0-.559-0.449h-0.705v1.555h0.353V20.679h0.328c0.139,0,.182.049,0.194,0.2l0.012,0.164a0.415,0.415,0,0,0,.055.213h0.371a0.35,0.35,0,0,1-.067-0.213Zm-0.874-.443V20.005H181.3a0.193,0.193,0,1,1,.012.383h-0.334Zm0.9,10.81a1.351,1.351,0,1,0-1.4-1.367A1.349,1.349,0,0,0,181.882,31.2Z"/>
</svg>
