<svg id="Frame_3" data-name="Frame 3" xmlns="http://www.w3.org/2000/svg" width="300" height="250" viewBox="0 0 300 250">
  <defs>
    <style>
      .cls-1 {
        fill: #3d791d;
        fill-rule: evenodd;
      }
    </style>
  </defs>
  <path id="ਹੋਰ_ਜਾਣੋ" data-name="ਹੋਰ ਜਾਣੋ" class="cls-1" d="M138.984,218.985h-7.756v0.768h5.343v3.926c0,1.021-.384,1.717-1.309,1.717a2.212,2.212,0,0,1-2.089-1.957c0-.588.36-0.948,1.345-0.948H134.9v-0.769h-0.384c-1.561,0-2.185.769-2.185,1.753a2.973,2.973,0,0,0,2.857,2.677c1.513,0,2.2-1.02,2.2-2.461v-3.938h1.6v-0.768Zm-2.392.024h0.78a1.822,1.822,0,0,0-1.753-2.089c-0.468-.072-0.96-0.144-0.96-1.285h-0.781a1.784,1.784,0,0,0,1.729,2.065A1.123,1.123,0,0,1,136.592,219.009Zm9.1-.024h-7.756v0.768H143.2v2.005h-2.053c-1.561,0-2.185.769-2.185,1.741a2.958,2.958,0,0,0,2.917,2.689c1.429,0,2.137-1.02,2.137-2.461v-3.974h1.681v-0.768Zm-3.77,6.447a2.209,2.209,0,0,1-2.125-1.957c0-.588.36-0.948,1.345-0.948H143.2v1.188C143.2,224.736,142.81,225.432,141.922,225.432Zm13.787-6.447H147.4v0.768h5.8V222.4h-2.881a5.154,5.154,0,0,0-.312-1.141l-1.225.372a2.3,2.3,0,0,1,.781,1.537,10.9,10.9,0,0,1-.469,3.013h0.817a11.8,11.8,0,0,0,.444-3.013H153.2v3.013h0.805v-6.423h1.7v-0.768Zm3.167,0h-4.43v0.768h1.824v3.566h0.8v-3.566h1.8v-0.768Zm7.2,0H157.77v0.768h2.053a2.47,2.47,0,0,0,2.341,2.425l-0.072.769a2.534,2.534,0,0,0-1.021-.2,2.126,2.126,0,0,0-2.1,1.3,3.242,3.242,0,0,0,3.23,2.257,3.588,3.588,0,0,0,2.677-1.008v-0.841a3.457,3.457,0,0,1-2.545,1.081,2.6,2.6,0,0,1-2.521-1.489,1.482,1.482,0,0,1,1.224-.54,2.833,2.833,0,0,1,1.717.624l0.012-.108,0.144-1.8a4.275,4.275,0,0,0,1.441-.252v-0.72a4.527,4.527,0,0,1-1.6.2,1.893,1.893,0,0,1-2.125-1.693h5.45v-0.768Zm-3.052.024h0.78a1.822,1.822,0,0,0-1.752-2.089c-0.469-.072-0.961-0.144-0.961-1.285h-0.78a1.784,1.784,0,0,0,1.729,2.065A1.123,1.123,0,0,1,163.025,219.009Z"/>
</svg>
