<svg id="Frame_3" data-name="Frame 3" xmlns="http://www.w3.org/2000/svg" width="300" height="250" viewBox="0 0 300 250">
  <defs>
    <style>
      .cls-1 {
        fill: #468424;
        fill-rule: evenodd;
      }
    </style>
  </defs>
  <path id="cta" class="cls-1" d="M138.123,219.405h-0.6a1.9,1.9,0,0,0-1.858-2.138c-0.5-.075-1.02-0.149-1.02-1.33h-0.828a1.868,1.868,0,0,0,1.835,2.137,1.159,1.159,0,0,1,1.042,1.331H131V220.2h5.67v4.064c0,1.057-.409,1.777-1.389,1.777a2.323,2.323,0,0,1-2.217-2.026c0-.608.382-0.981,1.427-0.981H134.9v-0.8H134.5c-1.657,0-2.319.8-2.319,1.815a3.123,3.123,0,0,0,3.032,2.771c1.6,0,2.331-1.056,2.331-2.548V220.2h6.166v2.076h-2.18c-1.657,0-2.319.794-2.319,1.8a3.111,3.111,0,0,0,3.1,2.784c1.516,0,2.268-1.056,2.268-2.547V220.2h1.785v-0.795h-8.232Zm5.582,4.9c0,1.057-.408,1.778-1.352,1.778a2.321,2.321,0,0,1-2.255-2.026c0-.61.382-0.983,1.427-0.983h2.18V224.3Zm20.014-7.034c-0.5-.075-1.019-0.149-1.019-1.33h-0.828a1.867,1.867,0,0,0,1.834,2.137,1.161,1.161,0,0,1,1.044,1.331H148.169V220.2h6.154v2.734h-3.058a5.2,5.2,0,0,0-.331-1.18l-1.3.385a2.365,2.365,0,0,1,.828,1.591,11.046,11.046,0,0,1-.5,3.12h0.866a11.9,11.9,0,0,0,.472-3.12h3.02v3.12h0.855V220.2h2.4v3.691h0.854V220.2h2.916a2.584,2.584,0,0,0,2.485,2.51l-0.076.795a2.76,2.76,0,0,0-1.083-.21,2.262,2.262,0,0,0-2.23,1.342,3.436,3.436,0,0,0,3.427,2.337,3.856,3.856,0,0,0,2.842-1.045v-0.87a3.714,3.714,0,0,1-2.7,1.119,2.772,2.772,0,0,1-2.676-1.541,1.589,1.589,0,0,1,1.3-.56,3.048,3.048,0,0,1,1.821.647l0.013-.112,0.153-1.864a4.668,4.668,0,0,0,1.529-.261v-0.745a4.947,4.947,0,0,1-1.695.21,1.994,1.994,0,0,1-2.255-1.752h5.785v-0.795h-2.412a1.9,1.9,0,0,0-1.86-2.138"/>
</svg>
