<svg id="Frame_3" data-name="Frame 3" xmlns="http://www.w3.org/2000/svg" width="300" height="250" viewBox="0 0 300 250">
  <defs>
    <style>
      .cls-1 {
        fill: #58595b;
        fill-rule: evenodd;
      }
    </style>
  </defs>
  <path id="_ਸ਼ਰਤਾਂ_ਲਾਗੂ_ਹਨ_" data-name="*ਸ਼ਰਤਾਂ ਲਾਗੂ ਹਨ।  " class="cls-1" d="M10.182,237.659l-0.328-.568c-0.216.152-.432,0.3-0.656,0.44,0.008-.272.024-0.544,0.048-0.792H8.591q0.036,0.4.048,0.792c-0.224-.144-0.448-0.288-0.664-0.44l-0.328.568c0.24,0.112.48,0.224,0.712,0.351-0.232.128-.472,0.248-0.712,0.36l0.328,0.56c0.216-.152.44-0.3,0.664-0.432q-0.012.4-.048,0.792H9.246c-0.024-.248-0.04-0.52-0.048-0.792,0.224,0.136.44,0.28,0.656,0.432l0.328-.56c-0.24-.112-0.472-0.232-0.7-0.36C9.71,237.891,9.942,237.771,10.182,237.659Zm5.823,0.1H10.84v0.607h0.9a3.025,3.025,0,0,1,.44,1.511,3.432,3.432,0,0,1-.832,1.831l0.776,0.344a9.045,9.045,0,0,0,.568-1.319h1.687V242.6h0.664v-4.238H16v-0.607Zm-1.631.607v1.751H12.791a1.356,1.356,0,0,0,.008-0.184,3.885,3.885,0,0,0-.328-1.567h1.9ZM13.4,241.513a0.412,0.412,0,1,0,0,.823A0.412,0.412,0,1,0,13.4,241.513Zm7.095-3.758H15.328v0.607H18.8v1.256H17.486a1.262,1.262,0,0,0-1.527,1.215,1.989,1.989,0,0,0,2,1.791,1.43,1.43,0,0,0,1.511-1.639v-2.623h1.023v-0.607ZM18,242.016a1.367,1.367,0,0,1-1.327-1.2c0-.36.216-0.576,0.816-0.576H18.8v0.736A0.84,0.84,0,0,1,18,242.016Zm5.967-3.2v-0.456H25v-0.607H19.84v0.607H23.3v0.528c0.016,0.872-.456.9-1.943,0.9v0.607c1.367,0,1.951-.016,1.951.616a1.056,1.056,0,0,1-1.239.919,2.909,2.909,0,0,1-1.535-.487v0.623a2.586,2.586,0,0,0,1.6.488,1.63,1.63,0,0,0,1.839-1.527,1.2,1.2,0,0,0-.448-0.976A1.283,1.283,0,0,0,23.965,238.818Zm3.256-1.063h-2.95v0.607h1.151v2.311h0.656v-2.311h1.143v-0.607Zm-1.445-.96a0.379,0.379,0,0,0,.384-0.384,0.385,0.385,0,0,0-.384-0.391,0.38,0.38,0,0,0-.384.391A0.374,0.374,0,0,0,25.776,236.8Zm9.212,0.96H28.719v0.607H30.47a2.793,2.793,0,0,0-.016.28,2.985,2.985,0,0,0,.136.888,1.68,1.68,0,0,0-1.063,1.551,1.5,1.5,0,0,0,1.575,1.487v-0.6a0.9,0.9,0,0,1-.912-0.887,1.128,1.128,0,0,1,.648-0.992,2.748,2.748,0,0,0,1.079,1.08,2.75,2.75,0,0,0,1.072-1.088,1.124,1.124,0,0,1,.656,1,0.9,0.9,0,0,1-.919.887v0.6a1.5,1.5,0,0,0,1.583-1.487,1.676,1.676,0,0,0-1.071-1.551,2.778,2.778,0,0,0,.144-0.88c0-.1-0.008-0.2-0.016-0.288h1.623v-0.607Zm-2.263.911a2.134,2.134,0,0,1-.808,1.775,2.045,2.045,0,0,1-.808-1.767c0-.112.008-0.216,0.016-0.312h1.583C32.717,238.458,32.725,238.562,32.725,238.666Zm4.577-.911h-2.95v0.607H35.5v2.311h0.656v-2.311H37.3v-0.607Zm5.974,0H36.639v0.607h3v1.256h-0.9c-1.111,0-1.535.583-1.535,1.143a2.032,2.032,0,0,0,1.839,1.863c0.8,0,1.271-.592,1.271-1.631v-2.631h1.3v4.262h0.664v-4.262h1v-0.607Zm-4.238,4.253a1.409,1.409,0,0,1-1.127-1.263,0.673,0.673,0,0,1,.824-0.512h0.9v0.736C39.638,241.193,39.638,241.992,39.038,242.008Zm1.778,1.336a2.348,2.348,0,0,1-1.263-.3v0.543a2.348,2.348,0,0,0,1.3.328,2.3,2.3,0,0,0,1.287-.328v-0.543A2.6,2.6,0,0,1,40.816,243.344Zm0,1.151a2.348,2.348,0,0,1-1.263-.3v0.544a2.348,2.348,0,0,0,1.3.328,2.3,2.3,0,0,0,1.287-.328V244.2A2.6,2.6,0,0,1,40.816,244.5Zm8.828-6.74H44.479v0.607h3.574v2.583a0.837,0.837,0,0,1-.808,1.039,1.372,1.372,0,0,1-1.319-1.2c0-.36.216-0.576,0.816-0.576H47v-0.623H46.742a1.263,1.263,0,0,0-1.527,1.223,1.99,1.99,0,0,0,1.983,1.783,1.431,1.431,0,0,0,1.527-1.639v-2.591h0.919v-0.607Zm4.52,0.607v-0.607H49v0.607h2.295V239.3a1.668,1.668,0,0,0-1.511,1.7,1.505,1.505,0,0,0,1.455,1.519V241.9a0.94,0.94,0,0,1-.8-0.959,1.19,1.19,0,0,1,2.367,0,0.94,0.94,0,0,1-.8.959v0.616A1.511,1.511,0,0,0,53.46,241a1.661,1.661,0,0,0-1.5-1.7v-0.936h2.207Zm1.905-.447H55.406v4.341H56.07v-4.341Z"/>
</svg>
