<svg id="Frame_3" data-name="Frame 3" xmlns="http://www.w3.org/2000/svg" width="300" height="250" viewBox="0 0 300 250">
  <defs>
    <style>
      .cls-1 {
        fill: #58595b;
        fill-rule: evenodd;
      }
    </style>
  </defs>
  <path id="legal" class="cls-1" d="M10.17,237.059c-0.214.152-.428,0.3-0.651,0.437,0.009-.269.024-0.54,0.049-0.787H8.916c0.025,0.263.04,0.526,0.048,0.787-0.221-.142-0.443-0.285-0.657-0.437l-0.325.565c0.238,0.112.475,0.224,0.706,0.351-0.231.128-.468,0.247-0.706,0.357l0.325,0.558c0.214-.151.436-0.295,0.657-0.43-0.008.263-.023,0.526-0.048,0.788H9.568c-0.025-.247-0.04-0.516-0.049-0.788,0.222,0.135.436,0.279,0.651,0.43l0.324-.558c-0.237-.11-0.468-0.229-0.7-0.357,0.229-.119.46-0.239,0.7-0.351Zm3.514,4.4a0.41,0.41,0,1,0,0,.819,0.41,0.41,0,1,0,0-.819m10.782-3.741H11.147v0.6h0.889a3.026,3.026,0,0,1,.435,1.5,3.435,3.435,0,0,1-.824,1.824l0.768,0.341a8.929,8.929,0,0,0,.563-1.313h1.673v1.863h0.658v-4.218h3.731v1.249h-1.3a1.254,1.254,0,0,0-1.514,1.21,1.975,1.975,0,0,0,1.982,1.783,1.421,1.421,0,0,0,1.5-1.632v-2.61h3.8v0.525c0.016,0.868-.452.892-1.927,0.892v0.605c1.356,0,1.935-.017,1.935.612a1.049,1.049,0,0,1-1.23.916,2.886,2.886,0,0,1-1.522-.486v0.621a2.562,2.562,0,0,0,1.586.485,1.618,1.618,0,0,0,1.824-1.52A1.2,1.2,0,0,0,23.727,240a1.279,1.279,0,0,0,.435-1.225v-0.454h1.445v2.3h0.651v-2.3h1.134v-0.6H24.466Zm-9.815,2.348h-1.57a1.358,1.358,0,0,0,.008-0.183,3.876,3.876,0,0,0-.325-1.56h1.887v1.743Zm4.388,0.859a0.836,0.836,0,0,1-.793,1.035,1.358,1.358,0,0,1-1.316-1.193c0-.359.214-0.573,0.808-0.573h1.3v0.731Zm7.3-4.544a0.383,0.383,0,0,0-.381-0.39,0.379,0.379,0,0,0-.381.39,0.372,0.372,0,0,0,.381.382,0.376,0.376,0,0,0,.381-0.382m10.39,1.337H28.877v0.6h1.736c-0.008.08-.016,0.175-0.016,0.279a2.977,2.977,0,0,0,.135.883,1.672,1.672,0,0,0-1.054,1.544,1.484,1.484,0,0,0,1.562,1.48v-0.6a0.889,0.889,0,0,1-.9-0.884,1.125,1.125,0,0,1,.642-0.988,2.728,2.728,0,0,0,1.07,1.075,2.722,2.722,0,0,0,1.064-1.083,1.123,1.123,0,0,1,.65,1,0.892,0.892,0,0,1-.912.884v0.6a1.49,1.49,0,0,0,1.57-1.48,1.667,1.667,0,0,0-1.062-1.544,2.769,2.769,0,0,0,.143-0.875c0-.1-0.008-0.2-0.016-0.287H35.6v2.3h0.651v-2.3H39.7v1.249h-0.9c-1.1,0-1.522.581-1.522,1.138a2.02,2.02,0,0,0,1.823,1.855c0.793,0,1.261-.59,1.261-1.624v-2.618h1.293v4.242H42.32v-4.242h0.992v-0.6H36.73ZM32.048,240.4a2.042,2.042,0,0,1-.8-1.76c0-.111.007-0.215,0.015-0.31h1.57c0.008,0.095.016,0.2,0.016,0.3a2.127,2.127,0,0,1-.8,1.768m7.655,0.524c0,0.223,0,1.019-.595,1.035a1.4,1.4,0,0,1-1.118-1.258,0.666,0.666,0,0,1,.817-0.508h0.9v0.731Zm-0.082,2.07v0.54a2.321,2.321,0,0,0,1.284.327,2.276,2.276,0,0,0,1.276-.327v-0.54a2.569,2.569,0,0,1-1.308.294,2.322,2.322,0,0,1-1.252-.294m0,1.146v0.54a2.321,2.321,0,0,0,1.284.327,2.276,2.276,0,0,0,1.276-.327v-0.54a2.568,2.568,0,0,1-1.308.3,2.321,2.321,0,0,1-1.252-.3m9.366-6.415H44.5v0.6h3.545V240.9a0.832,0.832,0,0,1-.8,1.034,1.362,1.362,0,0,1-1.308-1.194c0-.358.214-0.573,0.808-0.573H47v-0.62H46.748a1.253,1.253,0,0,0-1.513,1.217,1.975,1.975,0,0,0,1.965,1.775,1.422,1.422,0,0,0,1.515-1.631v-2.579h2.547v0.931a1.659,1.659,0,0,0-1.5,1.695,1.494,1.494,0,0,0,1.443,1.512V241.85a0.934,0.934,0,0,1-.793-0.954,1.18,1.18,0,0,1,2.348,0,0.934,0.934,0,0,1-.793.954v0.613a1.5,1.5,0,0,0,1.443-1.512,1.653,1.653,0,0,0-1.49-1.695v-0.931H54.11v-0.6H48.987Zm6.352,4.48H56v-4.322H55.339V242.2Z"/>
</svg>
