<svg id="Frame_3" data-name="Frame 3" xmlns="http://www.w3.org/2000/svg" width="300" height="250" viewBox="0 0 300 250">
  <defs>
    <style>
      .cls-1 {
        fill: #462b69;
        fill-rule: evenodd;
      }
    </style>
  </defs>
  <g id="price">
    <path id="ਪ੍ਰਤੀ_ਮਹੀਨਾ_ਤੋਂ_" data-name="ਪ੍ਰਤੀ ਮਹੀਨਾ ਤੋਂ*" class="cls-1" d="M50.062,149.233h0.429a0.394,0.394,0,0,1,.489.44,2.734,2.734,0,0,1-.579,1.341l-0.01.11a2.234,2.234,0,0,0,1.947,1.56,1.325,1.325,0,0,0,.789-0.22l-0.01.92,0.789,0.23,0.07-.05-0.02-4.331H54.8l0.07-.09-0.34-.67H53.207l-0.06.09-0.01,2.4a0.964,0.964,0,0,1-1.048.94,1.088,1.088,0,0,1-.729-0.26,0.281,0.281,0,0,1-.09-0.21,0.568,0.568,0,0,1,.07-0.22,3.357,3.357,0,0,0,.509-1.311,1.491,1.491,0,0,0-.33-0.85,1.29,1.29,0,0,0-.959-0.58H49.8l-0.07.09Zm3.055,3.741v0.69a1.614,1.614,0,0,0-.22-0.01,0.638,0.638,0,0,0-.729.53,0.9,0.9,0,0,0,.879.72,0.941,0.941,0,0,0,.659-0.32,5.587,5.587,0,0,1,1.3.981h0.06l0.379-.361a8.1,8.1,0,0,0-1.488-1.21v-1.08H53.187Zm1.608-3.741H57.37a1.4,1.4,0,0,1,.06.41,0.888,0.888,0,0,1-.33.781,2.5,2.5,0,0,0-1.058-.281,0.615,0.615,0,0,0-.749.461,0.89,0.89,0,0,0,.859.84,3.3,3.3,0,0,0,.889-0.19,0.527,0.527,0,0,1,.6.54,0.939,0.939,0,0,1-1.008.82,2.381,2.381,0,0,1-1.558-.65l-0.11.06a1.932,1.932,0,0,0,.6,1.01,2.094,2.094,0,0,0,1.278.4,1.4,1.4,0,0,0,1.558-1.3,1.792,1.792,0,0,0-.719-1.32,1.7,1.7,0,0,0,.569-1.351,1.951,1.951,0,0,0-.02-0.23h0.839l0.07-.09-0.34-.67H54.455l-0.07.09Zm4.273,0h0.5l-0.02,4.151,0.789,0.23,0.07-.05-0.02-4.331h0.859l0.06-.09-0.34-.67H60.275c-0.06-1.41-.719-2.32-1.747-2.32a1.366,1.366,0,0,0-1.408,1.42,1.824,1.824,0,0,0,.08.52l0.809,0.18,0.07-.11a1.474,1.474,0,0,1-.06-0.42,0.737,0.737,0,0,1,.679-0.86c0.539,0,.819.51,0.819,1.59h-0.8l-0.06.09Zm7.388,4.151,0.789,0.23,0.07-.05-0.02-4.331h0.849l0.06-.09-0.34-.67H66.475l-0.07.09-0.01,2.311H65.147a2.311,2.311,0,0,0-.689-1.941,1.607,1.607,0,0,0-1.128-.46H62.85l-0.07.09,0.339,0.67h0.34a0.807,0.807,0,0,1,.579.2,1.564,1.564,0,0,1,.29,1.081,3.147,3.147,0,0,1-.05.61,3.14,3.14,0,0,0-.909,1.37,0.777,0.777,0,0,0,.729.61,2.016,2.016,0,0,0,.919-1.4H66.4Zm1.607-4.151h2.836v2.381c0,0.71-.26,1.1-0.689,1.1a1.067,1.067,0,0,1-.889-1.16,0.569,0.569,0,0,1,.439-0.65,0.857,0.857,0,0,1,.16.01l0.08-.08-0.419-.711a0.644,0.644,0,0,0-.26-0.04,0.946,0.946,0,0,0-.909,1.091,2.3,2.3,0,0,0,2.147,2.26,1.159,1.159,0,0,0,1.178-1.38v-2.821H72.5l0.07-.09-0.34-.67h-4.5l-0.07.09Zm4.433,0h0.5l-0.02,4.151,0.789,0.23,0.07-.05-0.02-4.331H74.6l0.06-.09-0.34-.67H73.7c-0.06-1.41-.719-2.32-1.747-2.32a1.366,1.366,0,0,0-1.408,1.42,1.824,1.824,0,0,0,.08.52l0.809,0.18,0.07-.11a1.474,1.474,0,0,1-.06-0.42,0.737,0.737,0,0,1,.679-0.86c0.539,0,.819.51,0.819,1.59h-0.8l-0.06.09Zm2.1,0h2.017a1.039,1.039,0,0,1,.01.17c0,0.791-1.777,1.111-1.777,2.231a1.876,1.876,0,0,0,1.827,1.8l0.04-.04-0.379-.84a0.629,0.629,0,0,1-.749-0.64c0-.49.759-0.8,1.288-1.27a1.268,1.268,0,0,1,1.038,1.05,0.978,0.978,0,0,1-.709.99l0.479,0.78a1.59,1.59,0,0,0,1.068-1.55,2.112,2.112,0,0,0-1.5-1.72,1.074,1.074,0,0,0,.12-0.481,2.681,2.681,0,0,0-.06-0.48h1.947l0.07-.09-0.34-.67H74.251l-0.07.09Zm4.413,0h0.5l-0.02,1.811,0.789,0.23,0.07-.05-0.02-1.991H81.11l0.06-.09-0.34-.67H78.654l-0.06.09Zm4.123,0H85.7a1.406,1.406,0,0,1,.06.41,0.888,0.888,0,0,1-.33.781,2.5,2.5,0,0,0-1.058-.281,0.615,0.615,0,0,0-.749.461,0.89,0.89,0,0,0,.859.84,3.3,3.3,0,0,0,.889-0.19,0.527,0.527,0,0,1,.6.54,0.939,0.939,0,0,1-1.009.82,2.381,2.381,0,0,1-1.558-.65l-0.11.06a1.932,1.932,0,0,0,.6,1.01,2.094,2.094,0,0,0,1.278.4,1.4,1.4,0,0,0,1.558-1.3,1.792,1.792,0,0,0-.719-1.32,1.7,1.7,0,0,0,.569-1.351,1.953,1.953,0,0,0-.02-0.23H87.4l0.07-.09-0.34-.67H82.787l-0.07.09Zm3.314-1.66,0.04-.05c-0.4-1.52-.959-2.04-1.528-2.04-0.27,0-.549.18-0.789,0.18a0.986,0.986,0,0,1-.749-0.42l-0.26.19a2.036,2.036,0,0,0,1.368,1.15c0.24,0,.6-0.16.8-0.16,0.22,0,.479.3,0.649,1.15h0.469Zm0.24-1.12,0.619,0.62,0.619-.62-0.619-.62Zm4.114,2.61-0.01-.3-1.248-.02,0.25-1.31-0.3-.07-0.539,1.23-1.138-.75-0.18.25,0.978,0.97-0.959.88,0.19,0.261,1.138-.711,0.649,1.211,0.289-.11L89.5,149.3Z"/>
    <path id="_" data-name="$" class="cls-1" d="M59.78,129.416c0-1.809-1.088-2.85-3.778-3.378l-0.368-.064v-3.169a1.789,1.789,0,0,1,1.713,1.857h2.1c-0.08-1.953-1.2-3.362-3.81-3.618v-1.633H54.482v1.6c-2.529.112-3.906,1.409-3.906,3.217,0,2.065,1.457,3.042,3.665,3.458l0.24,0.048v3.393a2.063,2.063,0,0,1-2.065-2.225H50.288c0.016,2.417,1.569,3.794,4.194,3.986v1.633h1.152v-1.617C58.211,132.777,59.78,131.544,59.78,129.416Zm-6.995-5.251c0-.784.56-1.312,1.7-1.392v2.945C53.2,125.4,52.785,124.982,52.785,124.165Zm2.849,6.995v-3.185c1.409,0.336,1.9.736,1.9,1.553C57.539,130.5,56.867,131.064,55.634,131.16Z"/>
    <path id="_15" data-name="15" class="cls-1" d="M70.872,121.992H67.65c-0.662,3.077-2.529,3.921-5.3,4.1l-0.482.03v2.865h4.938v14.477h4.065V121.992Zm10.98,7.359a6.1,6.1,0,0,0-3.914,1.418l0.933-5.339h9.214v-3.438H75.679l-1.987,12.516h3.734a4.178,4.178,0,1,1,3.764,6.153,3.818,3.818,0,0,1-4.035-3.318H73.27c0.3,4.1,3.583,6.605,7.919,6.605,4.727,0,8.009-2.986,8.009-7.449C89.2,132.7,86.789,129.351,81.851,129.351Z"/>
    <path id="ਪਲੈਨਜ਼_ਸ਼ੁਰੂ" data-name="ਪਲੈਨਜ਼ ਸ਼ੁਰੂ" class="cls-1" d="M57.272,108.609h-2.13v4.757a2.994,2.994,0,0,1-.9.126,1.769,1.769,0,0,1-1.827-.878,4.675,4.675,0,0,0,.564-2.2,3.192,3.192,0,0,0-.511-1.809H50.528V109.4H51.98a2.716,2.716,0,0,1,.188,1.109,4.379,4.379,0,0,1-.658,2.1,2.306,2.306,0,0,0,2.464,1.725,3.344,3.344,0,0,0,1.169-.209v0.815h0.866V109.4h1.263v-0.794Zm7.338,0H56.426V109.4h2.286a3.645,3.645,0,0,0-.021.366,3.9,3.9,0,0,0,.177,1.161,2.2,2.2,0,0,0-1.388,2.029,1.953,1.953,0,0,0,2.057,1.945v-0.785a1.169,1.169,0,0,1-1.19-1.16,1.475,1.475,0,0,1,.846-1.3,3.6,3.6,0,0,0,1.409,1.412,3.6,3.6,0,0,0,1.4-1.422,1.468,1.468,0,0,1,.856,1.307,1.172,1.172,0,0,1-1.2,1.16V114.9a1.962,1.962,0,0,0,2.067-1.945,2.192,2.192,0,0,0-1.4-2.029,3.632,3.632,0,0,0,.188-1.15c0-.136-0.01-0.262-0.021-0.377h2.119v-0.794ZM61.656,109.8a2.793,2.793,0,0,1-1.054,2.321,2.677,2.677,0,0,1-1.054-2.311c0-.146.01-0.282,0.021-0.408h2.067C61.646,109.529,61.656,109.665,61.656,109.8Zm-1.828-5.553,0.219,0.879a2.036,2.036,0,0,1,1.7,1.38,3.238,3.238,0,0,0-1.931-.607l0.209,0.858c1.128,0.042,1.6.429,1.6,0.816h0.867C62.491,105.555,61.5,104.321,59.829,104.248Zm10.8,5.155v-0.794H63.89V109.4h3v1.224a2.18,2.18,0,0,0-1.973,2.227,1.967,1.967,0,0,0,1.9,1.987v-0.8a1.23,1.23,0,0,1-1.044-1.255,1.554,1.554,0,0,1,3.09,0,1.23,1.23,0,0,1-1.044,1.255v0.8a1.975,1.975,0,0,0,1.9-1.987,2.171,2.171,0,0,0-1.963-2.227V109.4h2.881Zm6.242-.794H69.651V109.4H74.6v2.165H72.261a6.618,6.618,0,0,0-.23-1.046l-1.253.439a2.133,2.133,0,0,1,.658,1.4,10.814,10.814,0,0,1-.407,2.582h0.877a10.067,10.067,0,0,0,.365-2.582H74.6v2.582h0.867V109.4h1.409v-0.794Zm-3.487,4.946a0.539,0.539,0,1,0,0,1.077A0.539,0.539,0,1,0,73.389,113.555Zm12.766-4.946H79.411V109.4H80.58a3.961,3.961,0,0,1,.574,1.977,4.5,4.5,0,0,1-1.086,2.394l1.013,0.45a11.882,11.882,0,0,0,.741-1.725h2.2v2.446h0.866V109.4h1.263v-0.794Zm-2.13.794v2.29H81.959a1.778,1.778,0,0,0,.01-0.24,5.091,5.091,0,0,0-.428-2.05h2.485Zm-1.274,4.12a0.539,0.539,0,1,0,0,1.077A0.539,0.539,0,1,0,82.752,113.523Zm-0.053,3.44a3.064,3.064,0,0,1-1.649-.386v0.711a3.071,3.071,0,0,0,1.691.428,3.008,3.008,0,0,0,1.681-.428v-0.711A3.386,3.386,0,0,1,82.7,116.963Zm9.312-8.354H85.267V109.4H89.8v1.642H88.086c-1.409,0-1.994.7-1.994,1.589a2.6,2.6,0,0,0,2.61,2.343,1.87,1.87,0,0,0,1.973-2.144V109.4h1.336v-0.794Zm-3.257,5.573a1.786,1.786,0,0,1-1.733-1.568c0-.471.282-0.753,1.065-0.753H89.8v0.962C89.8,113.659,89.485,114.182,88.754,114.182Zm0.02,2.781a3.064,3.064,0,0,1-1.649-.386v0.711a3.071,3.071,0,0,0,1.691.428,3.008,3.008,0,0,0,1.681-.428v-0.711A3.386,3.386,0,0,1,88.774,116.963Zm0,1.506a3.063,3.063,0,0,1-1.649-.387v0.711a3.062,3.062,0,0,0,1.691.429,3,3,0,0,0,1.681-.429v-0.711A3.385,3.385,0,0,1,88.774,118.469Z"/>
  </g>
</svg>
