<svg id="Frame_3" data-name="Frame 3" xmlns="http://www.w3.org/2000/svg" width="300" height="250" viewBox="0 0 300 250">
  <defs>
    <style>
      .cls-1 {
        fill: #462b69;
        fill-rule: evenodd;
      }
    </style>
  </defs>
  <path id="price" class="cls-1" d="M70.4,112.4a0.445,0.445,0,0,0,.451.457,0.453,0.453,0,0,0,0-.906,0.444,0.444,0,0,0-.451.449m2.177,0.721v-4.664h1.17v-0.669H61.807c0-1.691-.825-2.728-2.21-2.789l0.182,0.739a1.7,1.7,0,0,1,1.414,1.162,2.665,2.665,0,0,0-1.6-.511l0.174,0.722c0.929,0.034,1.317.356,1.324,0.677H55.712v4a2.446,2.446,0,0,1-.746.106,1.465,1.465,0,0,1-1.517-.739,3.973,3.973,0,0,0,.468-1.848,2.718,2.718,0,0,0-.424-1.523H51.88v0.669h1.2a2.292,2.292,0,0,1,.157.932,3.721,3.721,0,0,1-.546,1.77,1.917,1.917,0,0,0,2.045,1.452,2.725,2.725,0,0,0,.971-0.177v0.687h0.72v-4.664h2.241c-0.008.088-.017,0.193-0.017,0.308a3.368,3.368,0,0,0,.147.977,1.848,1.848,0,0,0-1.152,1.707,1.63,1.63,0,0,0,1.708,1.636v-0.659a0.978,0.978,0,0,1-.988-0.977,1.243,1.243,0,0,1,.7-1.092,3,3,0,0,0,1.17,1.189,3,3,0,0,0,1.162-1.2,1.239,1.239,0,0,1,.71,1.1,0.98,0.98,0,0,1-1,.977v0.659a1.638,1.638,0,0,0,1.717-1.636,1.844,1.844,0,0,0-1.162-1.707,3.1,3.1,0,0,0,.156-0.969c0-.113-0.008-0.219-0.017-0.316h3.646v1.029a1.827,1.827,0,0,0-1.639,1.874,1.646,1.646,0,0,0,1.578,1.673v-0.677a1.031,1.031,0,0,1-.867-1.056,1.289,1.289,0,0,1,2.567,0,1.031,1.031,0,0,1-.867,1.056v0.677a1.653,1.653,0,0,0,1.579-1.673,1.82,1.82,0,0,0-1.63-1.874v-1.029H71.86v1.822H69.918a5.478,5.478,0,0,0-.191-0.88l-1.04.369a1.8,1.8,0,0,1,.546,1.179,9.2,9.2,0,0,1-.339,2.174h0.729a8.593,8.593,0,0,0,.3-2.174H71.86v2.174h0.72Zm-12.338-2.377a2.261,2.261,0,0,1-.875-1.944c0-.123.008-0.237,0.017-0.343H61.1c0.009,0.106.018,0.22,0.018,0.335a2.359,2.359,0,0,1-.876,1.952m18.834,1.629a0.455,0.455,0,0,0-.451-0.449,0.454,0.454,0,0,0,0,.907,0.457,0.457,0,0,0,.451-0.458m-1.868,1.839a2.516,2.516,0,0,0,1.4.36,2.466,2.466,0,0,0,1.4-.36v-0.6a2.767,2.767,0,0,1-1.43.326,2.5,2.5,0,0,1-1.37-.326v0.6Zm7.994-5.755h1.111v-0.669H75.851v0.669h0.972a3.369,3.369,0,0,1,.477,1.663,3.81,3.81,0,0,1-.9,2.016l0.841,0.378a10.019,10.019,0,0,0,.615-1.453h1.83v2.06H80.4v-4.664h4.072v1.382H83.053c-1.17,0-1.656.59-1.656,1.337a2.167,2.167,0,0,0,2.167,1.971,1.565,1.565,0,0,0,1.639-1.8v-2.886Zm-5.519,1.928H77.967a1.5,1.5,0,0,0,.009-0.2,4.33,4.33,0,0,0-.356-1.724h2.063v1.928Zm4.791,0.949a0.922,0.922,0,0,1-.867,1.145,1.493,1.493,0,0,1-1.439-1.32c0-.4.234-0.634,0.885-0.634h1.422v0.809Zm-2.224,3.547v0.6a2.535,2.535,0,0,0,1.4.359,2.482,2.482,0,0,0,1.4-.359v-0.6a2.788,2.788,0,0,1-1.43.325,2.523,2.523,0,0,1-1.37-.325m2.8-1.268a2.777,2.777,0,0,1-1.43.326,2.513,2.513,0,0,1-1.37-.326v0.6a2.526,2.526,0,0,0,1.4.36,2.474,2.474,0,0,0,1.4-.36v-0.6ZM54.566,132.1V130.51c2.563-.137,4.234-1.286,4.234-3.53,0-2.107-1.294-2.956-3.748-3.42l-0.486-.083v-2.764a1.526,1.526,0,0,1,1.565,1.615h2.345c-0.107-2.108-1.375-3.394-3.91-3.586v-1.614H53.623v1.587c-2.723.082-4.017,1.423-4.017,3.339,0,2.217,1.428,3.12,3.748,3.5l0.269,0.055v2.9a1.713,1.713,0,0,1-1.887-1.861H49.362c0.081,2.244,1.456,3.694,4.261,3.858V132.1h0.944Zm0-6.321c1.349,0.273,1.78.6,1.78,1.368,0,0.849-.539,1.314-1.78,1.4v-2.764Zm-2.507-3.832c0-.738.431-1.177,1.564-1.258v2.6c-1.213-.247-1.564-0.63-1.564-1.342m17.133,18.327V118.058H65.9c-0.677,3.183-2.582,4.056-5.41,4.244L60,122.333V125.3h5.041v14.975h4.149Zm11.53-14.6a6.185,6.185,0,0,0-4,1.467l0.954-5.522h9.406v-3.557H74.42l-2.029,12.948H76.2a3.973,3.973,0,0,1,3.842-2.248,4.307,4.307,0,0,1,0,8.611,3.91,3.91,0,0,1-4.118-3.431H71.962c0.307,4.243,3.658,6.833,8.084,6.833,4.827,0,8.178-3.089,8.178-7.707,0-3.929-2.46-7.394-7.5-7.394M58.731,144.527a1.626,1.626,0,0,0-3.251,0v0.264h1.11v-0.264a0.553,0.553,0,0,1,.52-0.6,0.559,0.559,0,0,1,.529.6v0.686h-7v4a2.458,2.458,0,0,1-.5.052c-0.634,0-1.413-.29-1.4-0.554a4.111,4.111,0,0,0,.469-1.805,2.946,2.946,0,0,0-.486-1.689H46.99v0.994h1.1a1.819,1.819,0,0,1,.086.7,3.633,3.633,0,0,1-.572,1.8c-0.026.941,1.084,1.637,2.21,1.637a2.852,2.852,0,0,0,.821-0.131v1.116a1.1,1.1,0,0,0-.234.026l-0.824.282,0.381,1.346,0.763-.282a4.558,4.558,0,0,0,.555-0.272c0.165,0.123.347,0.281,0.545,0.458l0.555-.713c-0.251-.194-0.459-0.344-0.642-0.467v-1.662h0v-3.838h3.611v0.414c0.017,0.854-.589.783-1.907,0.783v1c1.3,0,1.916.026,1.916,0.581a1,1,0,0,1-1.179.8,3.033,3.033,0,0,1-1.63-.571v1.047a2.889,2.889,0,0,0,1.742.528,1.943,1.943,0,0,0,2.177-1.813,1.785,1.785,0,0,0-.373-1.108,1.5,1.5,0,0,0,.373-1.321v-0.335H57.63v4.532h1.092v-4.532h1.067v-0.994H58.731v-0.686ZM80.1,145.213H74.559v-0.687a1.626,1.626,0,0,0-3.251,0v0.264h1.11v-0.264a0.552,0.552,0,0,1,.521-0.6,0.559,0.559,0,0,1,.528.6v0.687H66.539v2.57H65.195V147.73a4.5,4.5,0,0,0-.755-2.517H62.888v0.994h0.876a3.047,3.047,0,0,1,.4,1.462,3.517,3.517,0,0,1-.954,1.908l1.291,0.581c0.269-.668.434-1.082,0.529-1.381h1.509v1.962H67.63v-4.532h3.889v2.728c0,0.6-.173.819-0.677,0.819a1.168,1.168,0,0,1-1.2-.994c0-.3.156-0.466,0.676-0.466h0.277v-1H70.314c-1.326,0-1.9.65-1.9,1.5a2.236,2.236,0,0,0,2.376,1.962,1.611,1.611,0,0,0,1.864-1.8v-2.737h0.8v4.532H74.55v-4.532H77.34v0.705a1.962,1.962,0,0,0-1.638,2.041,1.8,1.8,0,0,0,1.777,1.795v-0.994a0.906,0.906,0,0,1-.677-0.924,1.1,1.1,0,0,1,2.193,0,0.9,0.9,0,0,1-.684.924v0.994a1.8,1.8,0,0,0,1.777-1.795,1.962,1.962,0,0,0-1.639-2.041v-0.705h2.7v2.342h1.093v-2.342H83.3v-0.994H80.1Zm8.437-1.417c-0.33-.043-0.642-0.061-0.642-0.879H87.213a1.335,1.335,0,0,0,1.309,1.567,0.749,0.749,0,0,1,.631.852H85.4v0.669h3.755v0.582c0.017,0.959-.495.985-2.108,0.985v0.668c1.483,0,2.116-.017,2.116.678a1.15,1.15,0,0,1-1.344,1.012,3.132,3.132,0,0,1-1.664-.536v0.685a2.77,2.77,0,0,0,1.733.538,1.776,1.776,0,0,0,1.994-1.681,1.332,1.332,0,0,0-.485-1.074,1.423,1.423,0,0,0,.477-1.356v-0.5H91v-0.669H89.831a1.361,1.361,0,0,0-1.291-1.54m2.348,0.062a0.422,0.422,0,0,0-.416-0.431,0.416,0.416,0,0,0-.416.431,0.409,0.409,0,0,0,.416.423,0.415,0.415,0,0,0,.416-0.423M93.9,144.6l-0.747.245V144.04H92.827v0.809L92.08,144.6l-0.106.308,0.767,0.251-0.484.681,0.252,0.205,0.479-.671,0.48,0.671,0.252-.205-0.485-.681L94,144.912Z"/>
</svg>
