<svg id="Frame_1" data-name="Frame 1" xmlns="http://www.w3.org/2000/svg" width="300" height="250" viewBox="0 0 300 250">
  <defs>
    <style>
      .cls-1 {
        fill: #fff;
        fill-rule: evenodd;
      }
    </style>
  </defs>
  <path id="ਆਪਣੇ_ਘਰ_ਨੂੰ_ਰੱਖੋ_ਨਿੱਘਾ_ਅਤੇ_ਰੌਸ਼ਨ_ਹੋਰ_ਵੀ_ਊਰਜਾ_ਕੁਸ਼ਲਤਾ_ਨਾਲ_" data-name="ਆਪਣੇ ਘਰ ਨੂੰ ਰੱਖੋ ਨਿੱਘਾ ਅਤੇ ਰੌਸ਼ਨ ਹੋਰ ਵੀ ਊਰਜਾ ਕੁਸ਼ਲਤਾ ਨਾਲ।" class="cls-1" d="M61.879,57.414H53.367v4.607H51.639a3.506,3.506,0,0,0-1.26-2.645A3.569,3.569,0,0,0,47.1,61.031c0.18-1.1.018-2.9-1.17-3.617H42.624v1.152h2.735c0.954,1.062.9,2.861-.4,5.7l1.188,0.558c1.53-3.1,2.573-4.193,3.653-4.3,1.062,1.134.936,2.3-.918,5.813L50.128,66.9a14.246,14.246,0,0,0,1.4-3.725h1.836v5.021h1.206V58.566h3.4V63.91h1.206V58.566h2.7V57.414Zm10.937,0H69.288V65.6a4.976,4.976,0,0,1-1.727.27c-1.656,0-2.771-.45-3.239-1.638a7.909,7.909,0,0,0,.972-3.815,5.4,5.4,0,0,0-.828-3.005H61.191v1.152h2.591a5.57,5.57,0,0,1,.36,2.087,7.6,7.6,0,0,1-1.1,3.581c0.432,1.908,2.2,2.825,4.1,2.825a5.477,5.477,0,0,0,2.141-.4v1.53h1.206V58.566h2.322V57.414Zm11.7,0H72.062v1.152H75.14A3.7,3.7,0,0,0,78.649,62.2l-0.108,1.152a3.787,3.787,0,0,0-1.53-.306,3.186,3.186,0,0,0-3.149,1.943A4.86,4.86,0,0,0,78.7,68.373a5.376,5.376,0,0,0,4.013-1.512V65.6a5.186,5.186,0,0,1-3.815,1.62,3.9,3.9,0,0,1-3.779-2.232,2.223,2.223,0,0,1,1.835-.81,4.245,4.245,0,0,1,2.573.936l0.018-.162,0.216-2.7a6.4,6.4,0,0,0,2.16-.378V60.8a6.776,6.776,0,0,1-2.393.306c-2,0-3.149-1.206-3.185-2.537h8.17V57.414Zm-8.042-4.139,0.27,1.152a2.86,2.86,0,0,1,3.2,3.023H81.08A4.107,4.107,0,0,0,76.474,53.275Zm25.084,4.139H98.03v8.314a0.792,0.792,0,0,1-.4.09c-1.871,0-2.106-1.4-2.142-3.617,0.018-.252.018-0.5,0.018-0.756V59.771H94.287v1.962c0,1.584-.162,4.049-1.674,4.049-0.666,0-1.188-.522-1.728-1.476a8.368,8.368,0,0,0,1.026-3.887,5.021,5.021,0,0,0-.936-3.005H87.737v1.152h2.609a4.891,4.891,0,0,1,.4,1.961,6.188,6.188,0,0,1-1.3,3.725c1.17,2.07,2,2.681,3.1,2.681a2.466,2.466,0,0,0,2.339-1.62,2.521,2.521,0,0,0,2.393,1.62,2.8,2.8,0,0,0,.756-0.09v1.35h1.206V58.566h2.321V57.414Zm10.891,0H100.823v1.152h7.882v3.005h-3.078c-2.339,0-3.275,1.152-3.275,2.609a4.437,4.437,0,0,0,4.373,4.031c2.142,0,3.2-1.53,3.2-3.689V58.566h2.52V57.414ZM106.8,67.078a3.309,3.309,0,0,1-3.185-2.933c0-.882.54-1.422,2.015-1.422h3.078V64.5C108.705,66.034,108.129,67.078,106.8,67.078Zm20.227-8.512V57.414H115.4v1.152h5.309v2.357a3.633,3.633,0,0,0-3.4,3.689,3.269,3.269,0,0,0,3.132,3.329V66.808a2.241,2.241,0,0,1-1.944-2.285,2.826,2.826,0,0,1,5.615,0,2.241,2.241,0,0,1-1.944,2.285v1.134a3.281,3.281,0,0,0,3.131-3.329,3.632,3.632,0,0,0-3.4-3.689V58.566h5.129ZM121.2,70.011a5.289,5.289,0,0,1-2.844-.666v1.062a5.293,5.293,0,0,0,2.916.72,5.182,5.182,0,0,0,2.9-.72V69.345A5.843,5.843,0,0,1,121.2,70.011Zm0,2.591a5.289,5.289,0,0,1-2.844-.666V73a5.293,5.293,0,0,0,2.916.72,5.182,5.182,0,0,0,2.9-.72V71.936A5.843,5.843,0,0,1,121.2,72.6Zm0-16.538a2.321,2.321,0,1,0-2.322-2.321A2.351,2.351,0,0,0,121.2,56.064Zm0-1.062a1.269,1.269,0,1,1,1.259-1.26A1.23,1.23,0,0,1,121.2,55Zm20.4,2.411H129.975v1.152h7.882v3.005H134.78c-2.339,0-3.275,1.152-3.275,2.609a4.436,4.436,0,0,0,4.373,4.031c2.141,0,3.2-1.53,3.2-3.689V58.566H141.6V57.414Zm-5.65,9.664a3.309,3.309,0,0,1-3.185-2.933c0-.882.539-1.422,2.015-1.422h3.077V64.5C137.857,66.034,137.281,67.078,135.95,67.078Zm5.383-13.335h-1.062a1.269,1.269,0,0,1-2.537,0H136.69A2.322,2.322,0,0,0,141.333,53.743Zm11.184,3.671H148.99v4.229h-4.085a9.561,9.561,0,0,0,.09-1.224,5.4,5.4,0,0,0-.828-3.005h-3.275v1.152h2.592a5.6,5.6,0,0,1,.359,2.087,7.6,7.6,0,0,1-1.1,3.581c0.432,1.908,2.195,2.825,4.1,2.825a5.479,5.479,0,0,0,2.141-.4v1.53H150.2V58.566h2.321V57.414Zm-5.254,8.458c-1.656,0-2.772-.45-3.24-1.638a6.929,6.929,0,0,0,.612-1.44h4.355V65.6A4.977,4.977,0,0,1,147.263,65.872Zm1.729-8.422h1.17c0-2.213-1.08-2.861-2.628-3.131-0.7-.108-1.439-0.216-1.439-1.925h-1.17c0,2.807,1.872,2.969,2.591,3.1A1.682,1.682,0,0,1,148.992,57.45Zm11.839-5.039c-1.872,0-2.825,1.3-2.825,3.275v1.728H155.27v1.152h2.736v9.628h1.205V58.566h2.7V57.414h-2.7V55.686c0-1.674.882-2.123,1.62-2.123s1.638,0.45,1.638,2.123v0.54h1.187v-0.54C163.656,53.707,162.72,52.411,160.831,52.411Zm11.986,6.154V57.414H161.192v1.152H166.5v2.357a3.632,3.632,0,0,0-3.4,3.689,3.268,3.268,0,0,0,3.131,3.329V66.808a2.241,2.241,0,0,1-1.944-2.285,2.826,2.826,0,0,1,5.615,0,2.241,2.241,0,0,1-1.944,2.285v1.134a3.282,3.282,0,0,0,3.132-3.329,3.633,3.633,0,0,0-3.4-3.689V58.566h5.128Zm-2.823-4.841h-1.062a1.269,1.269,0,0,1-2.537,0h-1.044A2.322,2.322,0,0,0,169.994,53.725Zm16.175,3.689h-3.527v8.314a0.793,0.793,0,0,1-.4.09c-1.872,0-2.106-1.4-2.142-3.617,0.018-.252.018-0.5,0.018-0.756V59.771H178.9v1.962c0,1.584-.162,4.049-1.674,4.049-0.666,0-1.188-.522-1.727-1.476a8.376,8.376,0,0,0,1.025-3.887,5.026,5.026,0,0,0-.935-3.005h-3.24v1.152h2.61a4.891,4.891,0,0,1,.4,1.961,6.187,6.187,0,0,1-1.3,3.725c1.17,2.07,2,2.681,3.095,2.681a2.467,2.467,0,0,0,2.34-1.62,2.519,2.519,0,0,0,2.393,1.62,2.8,2.8,0,0,0,.756-0.09v1.35h1.205V58.566h2.322V57.414Zm5.861,0h-6.641v1.152h2.736V63.91h1.205V58.566h2.7V57.414Zm17.022,0h-3.527v4.607H203.8a3.5,3.5,0,0,0-1.259-2.645,3.568,3.568,0,0,0-3.275,1.656c0.18-1.1.018-2.9-1.17-3.617h-3.311v1.152h2.735c0.954,1.062.9,2.861-.4,5.7l1.188,0.558c1.529-3.1,2.573-4.193,3.653-4.3,1.062,1.134.936,2.3-.918,5.813l1.242,0.558a14.2,14.2,0,0,0,1.4-3.725h1.836v5.021h1.206V58.566h2.321V57.414Zm8.4,2.3V58.566h2.484V57.414H208.308v1.152h7.937v1.314c0.036,2.033-.954,2.142-4.517,2.142v1.152c3.221,0,4.535-.072,4.535,1.44,0,1.53-1.35,2.249-2.916,2.249a6.565,6.565,0,0,1-3.473-1.1v1.152a5.76,5.76,0,0,0,3.581,1.1c2.358,0,4.013-1.35,4.013-3.329a2.427,2.427,0,0,0-1.08-2.177C216.838,62.255,217.45,61.607,217.45,59.717Zm-4.677-6.442,0.27,1.152a2.86,2.86,0,0,1,3.2,3.023h1.133A4.107,4.107,0,0,0,212.773,53.275ZM234.4,57.414H222.777v1.152h7.882v3.005h-3.078c-2.339,0-3.275,1.152-3.275,2.609a4.437,4.437,0,0,0,4.373,4.031c2.142,0,3.2-1.53,3.2-3.689V58.566h2.52V57.414Zm-5.651,9.664a3.31,3.31,0,0,1-3.185-2.933c0-.882.54-1.422,2.015-1.422h3.078V64.5C230.659,66.034,230.083,67.078,228.751,67.078Zm2.414-15.638c-0.935-.054-2.429-0.108-2.429-1.871h-1.17a2.573,2.573,0,0,0,1.836,2.645,2.319,2.319,0,0,0,1.727,3.869A2.322,2.322,0,0,0,231.165,51.439Zm-0.036,3.581a1.269,1.269,0,1,1,1.26-1.26A1.23,1.23,0,0,1,231.129,55.021Zm14.251,2.393H233.755v1.152h2.069a6.765,6.765,0,0,1,1.062,3.545c0,1.53-.81,2.573-1.818,4.193l1.386,0.63a15.644,15.644,0,0,0,1.35-3.023h4.049v4.283h1.2V58.566h2.322V57.414Zm-3.527,1.152v4.193H238.02a5.056,5.056,0,0,0,.018-0.522,8.3,8.3,0,0,0-.846-3.671h4.661Zm-2.25,6.982a0.834,0.834,0,0,0-.846.846,0.849,0.849,0,0,0,.846.864,0.86,0.86,0,0,0,.846-0.864A0.845,0.845,0,0,0,239.6,65.548ZM256.3,58.566V57.414H244.672v1.152h5.308v2.357a3.633,3.633,0,0,0-3.4,3.689,3.269,3.269,0,0,0,3.131,3.329V66.808a2.241,2.241,0,0,1-1.943-2.285,2.826,2.826,0,0,1,5.615,0,2.241,2.241,0,0,1-1.944,2.285v1.134a3.281,3.281,0,0,0,3.131-3.329,3.632,3.632,0,0,0-3.4-3.689V58.566H256.3ZM68.513,82.414H56.888v1.152H64.9V89.45c0,1.53-.576,2.573-1.962,2.573A3.314,3.314,0,0,1,59.8,89.09c0-.882.54-1.422,2.016-1.422h0.576V86.517H61.819c-2.339,0-3.275,1.152-3.275,2.627,0,2.124,2.25,4.013,4.283,4.013,2.267,0,3.293-1.53,3.293-3.689v-5.9h2.393V82.414Zm-3.579.036H66.1c0-2.213-1.08-2.861-2.627-3.131-0.7-.108-1.44-0.216-1.44-1.926h-1.17c0,2.807,1.871,2.969,2.591,3.1A1.682,1.682,0,0,1,64.934,82.45Zm14.5-.036H67.8v1.152h7.882v3.005H72.61c-2.34,0-3.275,1.152-3.275,2.609a4.436,4.436,0,0,0,4.373,4.031c2.141,0,3.2-1.53,3.2-3.689V83.566H79.43V82.414Zm-5.651,9.664a3.309,3.309,0,0,1-3.185-2.933c0-.882.54-1.422,2.016-1.422h3.077V89.5C75.687,91.034,75.111,92.078,73.779,92.078Zm13.353-5.093h4.319V83.566H93.9V82.414H82.273v1.152h7.972v2.267H87.42c-2.123,0-3.185.9-3.185,2.105a2.018,2.018,0,0,0,1.3,1.872,4.224,4.224,0,0,0-.018.486c0,1.134.5,3.077,3.725,3.077a6.154,6.154,0,0,0,2.3-.4V91.934A6.467,6.467,0,0,1,89,92.276c-1.889-.036-2.357-1.062-2.357-2.015V90.1a2.411,2.411,0,0,0,.36.018h4.445V88.964H86.9c-0.954,0-1.44-.414-1.44-1.008C85.458,87.147,86.376,86.985,87.132,86.985Zm12.653-4.571H97.05V80.686c0-1.98-.954-3.275-2.825-3.275-1.89,0-2.825,1.3-2.825,3.275v0.54h1.188v-0.54c0-1.674.9-2.123,1.638-2.123s1.62,0.45,1.62,2.123v1.728h-2.7v1.152h2.7v9.628H97.05V83.566h2.735V82.414Zm14.3,1.152h2.556V82.414H114.2V82.36c0-2.429-1.439-4.355-3.959-4.355s-3.977,1.962-4.661,4.409h-3.041v1.152h2.789a14.882,14.882,0,0,0-.216,2.519c0,4.355,1.836,7.162,4.733,7.2a3.253,3.253,0,0,0,3.527-3.2,3,3,0,0,0-2.717-2.987A4.309,4.309,0,0,0,114.09,83.566Zm-3.923-4.427c1.872-.072,2.825,1.3,2.825,3.257v0.018h-6.226C107.288,80.614,108.314,79.211,110.167,79.139Zm-1.547,7.342h-2.3V86.013a14.028,14.028,0,0,1,.2-2.447h6.353C112.453,85.365,111.013,86.481,108.62,86.481Zm3.545,3.635a2.032,2.032,0,0,1-2.214,2.034c-1.961,0-3.221-1.71-3.545-4.571h2.214C111,87.579,112.165,88.874,112.165,90.116Zm-5.4,4.229v1.062a5.291,5.291,0,0,0,2.915.72,5.186,5.186,0,0,0,2.9-.72V94.345a5.845,5.845,0,0,1-2.97.666A5.288,5.288,0,0,1,106.766,94.345Zm0,2.591V98a5.292,5.292,0,0,0,2.915.72,5.187,5.187,0,0,0,2.9-.72V96.936a5.845,5.845,0,0,1-2.97.666A5.288,5.288,0,0,1,106.766,96.936Zm20.806-14.522H115.947v1.152h7.882v3.005h-3.077c-2.34,0-3.276,1.152-3.276,2.609a4.437,4.437,0,0,0,4.373,4.031c2.142,0,3.2-1.53,3.2-3.689V83.566h2.519V82.414Zm-5.651,9.664a3.31,3.31,0,0,1-3.185-2.933c0-.882.54-1.422,2.016-1.422h3.077V89.5C123.829,91.034,123.253,92.078,121.921,92.078Zm17.261-9.664H126.729v1.152h8.692v3.959H131.1a7.736,7.736,0,0,0-.468-1.71l-1.836.558a3.456,3.456,0,0,1,1.17,2.3,16.388,16.388,0,0,1-.7,4.517h1.224a17.684,17.684,0,0,0,.666-4.517h4.265v4.517h1.205V83.566h2.556V82.414Zm5.77,0h-6.64v1.152h2.735V88.91h1.206V83.566h2.7V82.414Zm15.169,0H147.668v1.152h9.178V85.4a6.734,6.734,0,0,1-.414,2.429,4.3,4.3,0,0,0-3.8-2.339,2.894,2.894,0,0,0-3.15,2.969c0,1.782,1.278,2.987,3.4,2.987a4.721,4.721,0,0,0,3.2-1.188,9.734,9.734,0,0,1,.162,1.853c0,0.378-.018.918-0.036,1.188H157.4c0-.36.018-0.792,0.018-1.152a10.063,10.063,0,0,0-.413-2.969,7.256,7.256,0,0,0,1.007-3.887l0.036-1.728h2.07V82.414ZM152.959,90.3c-1.44,0-2.268-.7-2.268-1.836a1.818,1.818,0,0,1,2.052-1.818,3.2,3.2,0,0,1,3,2.357A3.478,3.478,0,0,1,152.959,90.3Zm0,4.715a5.288,5.288,0,0,1-2.843-.666v1.062a5.291,5.291,0,0,0,2.915.72,5.186,5.186,0,0,0,2.9-.72V94.345A5.845,5.845,0,0,1,152.96,95.011Zm18.087-12.6H159.422v1.152h2.069a6.765,6.765,0,0,1,1.062,3.545c0,1.53-.81,2.573-1.818,4.193l1.386,0.63a15.644,15.644,0,0,0,1.35-3.023h4.049v4.283h1.2V83.566h2.322V82.414Zm-3.527,1.152v4.193h-3.834a5.056,5.056,0,0,0,.018-0.522,8.3,8.3,0,0,0-.845-3.671h4.661Zm-2.25,6.982a0.834,0.834,0,0,0-.846.846,0.849,0.849,0,0,0,.846.864,0.86,0.86,0,0,0,.846-0.864A0.845,0.845,0,0,0,165.27,90.548Zm19.177-8.134H170.339v1.152h4.192a5.054,5.054,0,0,0-.054.81,6.413,6.413,0,0,0,.324,2.034,3.605,3.605,0,0,0-2.411,3.4,3.246,3.246,0,0,0,3.4,3.257V91.934a2.124,2.124,0,0,1-2.195-2.105,2.683,2.683,0,0,1,1.655-2.393,5.991,5.991,0,0,0,2.376,2.447,6.352,6.352,0,0,0,2.357-2.465,2.7,2.7,0,0,1,1.674,2.411,2.14,2.14,0,0,1-2.214,2.105v1.134a3.26,3.26,0,0,0,3.419-3.257,3.661,3.661,0,0,0-2.429-3.419,6.4,6.4,0,0,0,.342-2.016,3.459,3.459,0,0,0-.072-0.81h3.743V82.414Zm-4.859,1.962a4.977,4.977,0,0,1-1.961,4.175,4.645,4.645,0,0,1-1.962-4.139,5.9,5.9,0,0,1,.054-0.846h3.8A3.875,3.875,0,0,1,179.588,84.375ZM192.9,84.717V83.566h2.484V82.414H183.757v1.152h7.936v1.314c0.036,2.034-.953,2.141-4.516,2.141v1.152c3.221,0,4.534-.072,4.534,1.44,0,1.53-1.349,2.249-2.915,2.249a6.565,6.565,0,0,1-3.473-1.1v1.152a5.76,5.76,0,0,0,3.581,1.1c2.358,0,4.013-1.35,4.013-3.329a2.427,2.427,0,0,0-1.08-2.177C192.287,87.255,192.9,86.607,192.9,84.717Zm8.371-2.3h-6.641v1.152h2.735V88.91h1.206V83.566h2.7V82.414Zm14.485,1.152V82.414H204.129v1.152h5.309v2.357a3.633,3.633,0,0,0-3.4,3.689,3.269,3.269,0,0,0,3.131,3.329V91.808a2.24,2.24,0,0,1-1.943-2.285,2.826,2.826,0,0,1,5.614,0,2.241,2.241,0,0,1-1.943,2.285v1.134a3.282,3.282,0,0,0,3.131-3.329,3.633,3.633,0,0,0-3.4-3.689V83.566h5.129Zm5.941-1.152h-6.641v1.152h2.736V88.91H219V83.566h2.7V82.414Zm13.39,0H220.977v1.152h4.193a5.054,5.054,0,0,0-.054.81,6.413,6.413,0,0,0,.324,2.034,3.6,3.6,0,0,0-2.411,3.4,3.246,3.246,0,0,0,3.4,3.257V91.934a2.124,2.124,0,0,1-2.2-2.105,2.682,2.682,0,0,1,1.656-2.393,6,6,0,0,0,2.375,2.447,6.348,6.348,0,0,0,2.358-2.465,2.7,2.7,0,0,1,1.673,2.411,2.139,2.139,0,0,1-2.213,2.105v1.134A3.26,3.26,0,0,0,233.5,89.81a3.662,3.662,0,0,0-2.429-3.419,6.4,6.4,0,0,0,.342-2.016,3.459,3.459,0,0,0-.072-0.81h3.743V82.414Zm-4.859,1.962a4.975,4.975,0,0,1-1.962,4.175,4.646,4.646,0,0,1-1.961-4.139,5.9,5.9,0,0,1,.054-0.846h3.8A3.875,3.875,0,0,1,230.227,84.375Zm7.523-1.727h-1.206v9.807h1.206V82.648Z"/>
</svg>
