<svg id="Frame_1" data-name="Frame 1" xmlns="http://www.w3.org/2000/svg" width="300" height="250" viewBox="0 0 300 250">
  <defs>
    <style>
      .cls-1 {
        fill: #fff;
        fill-rule: evenodd;
      }
    </style>
  </defs>
  <path id="txt1" class="cls-1" d="M52.311,60.946c1.082,1.084.954,2.2-.934,5.56l1.265,0.534a13.158,13.158,0,0,0,1.43-3.563H55.94v4.8h1.229V59.069h3.464v5.112h1.228V59.069h3.78a5.039,5.039,0,0,1,.366,2,6.957,6.957,0,0,1-1.118,3.425c0.44,1.825,2.236,2.7,4.179,2.7a5.917,5.917,0,0,0,2.182-.379v1.462h1.228V59.069h3.815c0.018,1.635,1.174,3.149,3.574,3.477l-0.11,1.1a4.072,4.072,0,0,0-1.558-.293,3.272,3.272,0,0,0-3.208,1.859,4.939,4.939,0,0,0,4.931,3.236A5.669,5.669,0,0,0,84.011,67V65.8a5.443,5.443,0,0,1-3.885,1.548,4.012,4.012,0,0,1-3.849-2.134,2.325,2.325,0,0,1,1.869-.774,4.5,4.5,0,0,1,2.622.894l0.018-.155,0.22-2.581a6.921,6.921,0,0,0,2.2-.362V61.2a7.316,7.316,0,0,1-2.437.292c-2.035,0-3.208-1.153-3.245-2.427h8.322v-1.1h-3.5a4.091,4.091,0,0,0-4.689-3.959l0.275,1.1a2.83,2.83,0,0,1,3.26,2.857H71.251V65.8a5.378,5.378,0,0,1-1.76.258c-1.686,0-2.823-.431-3.3-1.567a7.2,7.2,0,0,0,.99-3.648,4.93,4.93,0,0,0-.844-2.874H55.94v4.406H54.181A3.277,3.277,0,0,0,52.9,59.845a3.709,3.709,0,0,0-3.336,1.583c0.184-1.05.019-2.772-1.191-3.46H45v1.1h2.787c0.972,1.016.916,2.737-.4,5.456l1.21,0.534c1.559-2.961,2.622-4.01,3.721-4.114m39.875,0a5.7,5.7,0,0,1-1.32,3.563c1.192,1.98,2.034,2.564,3.153,2.564A2.51,2.51,0,0,0,96.4,65.524a2.571,2.571,0,0,0,2.439,1.549,2.986,2.986,0,0,0,.769-0.086v1.291h1.228V59.07h8.729v2.874h-3.134c-2.384,0-3.336,1.1-3.336,2.5,0,2.049,2.236,3.856,4.453,3.856,2.182,0,3.263-1.463,3.263-3.528v-5.7h2.567v-1.1H99.609V65.92a0.846,0.846,0,0,1-.4.087c-1.906,0-2.144-1.343-2.181-3.461,0.018-.24.018-0.482,0.018-0.723v-1.6H95.8V62.1c0,1.515-.165,3.873-1.7,3.873a2.243,2.243,0,0,1-1.759-1.411,7.636,7.636,0,0,0,1.045-3.718,4.6,4.6,0,0,0-.954-2.874h-3.3v1.1h2.658a4.442,4.442,0,0,1,.4,1.876m17.38,3.8c0,1.463-.587,2.462-1.944,2.462-1.52,0-3.244-1.326-3.244-2.806,0-.844.551-1.36,2.054-1.36h3.134v1.7Zm12.226-3.425a3.567,3.567,0,0,0-3.464,3.528,3.217,3.217,0,0,0,3.189,3.184V66.953a2.188,2.188,0,0,1-1.98-2.186c0-1.36,1.154-2.392,2.859-2.392s2.86,1.033,2.86,2.392a2.187,2.187,0,0,1-1.979,2.186v1.084a3.23,3.23,0,0,0,3.189-3.184A3.568,3.568,0,0,0,123,61.324V59.069h5.225v-1.1H116.384v1.1h5.408v2.255Zm-2.4,10.534v1.016a5.67,5.67,0,0,0,2.97.688,5.55,5.55,0,0,0,2.951-.688V71.858a6.269,6.269,0,0,1-3.025.637,5.667,5.667,0,0,1-2.9-.637m5.921-2.479a6.269,6.269,0,0,1-3.025.637,5.663,5.663,0,0,1-2.895-.637V70.4a5.664,5.664,0,0,0,2.968.689,5.553,5.553,0,0,0,2.952-.689V69.38Zm-3.025-12.7a2.225,2.225,0,1,0-2.364-2.221,2.325,2.325,0,0,0,2.364,2.221m0-3.443a1.215,1.215,0,1,1,0,2.427,1.216,1.216,0,1,1,0-2.427m18.147,3.425a2.311,2.311,0,0,0,2.365-2.2h-1.082a1.3,1.3,0,0,1-2.584,0h-1.063a2.3,2.3,0,0,0,2.364,2.2m-1.176,5.284h-3.135c-2.382,0-3.335,1.1-3.335,2.5,0,2.049,2.236,3.856,4.454,3.856,2.181,0,3.263-1.463,3.263-3.528v-5.7h3.613a5.038,5.038,0,0,1,.367,2,6.967,6.967,0,0,1-1.118,3.425c0.439,1.825,2.235,2.7,4.178,2.7a5.912,5.912,0,0,0,2.182-.378v1.462h1.229V59.07h2.363v-1.1h-2.4c-0.013-2.087-1.108-2.7-2.674-2.961-0.715-.1-1.467-0.207-1.467-1.842h-1.192a2.635,2.635,0,0,0,2.64,2.96,1.62,1.62,0,0,1,1.5,1.843h0v4.045h-4.161a8.609,8.609,0,0,0,.091-1.171,4.93,4.93,0,0,0-.842-2.874H131.231v1.1h8.029v2.874Zm0,2.806c0,1.463-.586,2.462-1.943,2.462-1.521,0-3.245-1.326-3.245-2.806,0-.844.551-1.36,2.053-1.36h3.135v1.7Zm6.033-1.635h4.436V65.8a5.375,5.375,0,0,1-1.76.257c-1.686,0-2.823-.43-3.3-1.566a6.391,6.391,0,0,0,.623-1.376m22.622-6.472a2.31,2.31,0,0,0,2.365-2.2H169.2a1.3,1.3,0,0,1-2.584,0h-1.063a2.3,2.3,0,0,0,2.363,2.2m-9,11.635h1.228V59.07h6.583v2.254a3.57,3.57,0,0,0-3.465,3.529,3.219,3.219,0,0,0,3.189,3.184V66.953a2.188,2.188,0,0,1-1.979-2.187c0-1.36,1.154-2.392,2.859-2.392s2.859,1.033,2.859,2.392a2.189,2.189,0,0,1-1.979,2.187v1.084a3.232,3.232,0,0,0,3.19-3.184,3.57,3.57,0,0,0-3.465-3.529V59.07h6.785a4.44,4.44,0,0,1,.4,1.876,5.7,5.7,0,0,1-1.32,3.563c1.192,1.979,2.036,2.564,3.153,2.564a2.513,2.513,0,0,0,2.384-1.549,2.567,2.567,0,0,0,2.438,1.549,2.993,2.993,0,0,0,.769-0.087v1.291h1.228V59.07h3.4v5.111h1.227V59.07h2.75v-1.1h-8.6v7.952a0.849,0.849,0,0,1-.4.087c-1.905,0-2.144-1.343-2.18-3.46,0.018-.241.018-0.482,0.018-0.723v-1.6h-1.246V62.1c0,1.515-.166,3.873-1.706,3.873a2.248,2.248,0,0,1-1.759-1.412,7.612,7.612,0,0,0,1.045-3.717,4.6,4.6,0,0,0-.953-2.875H160.14V56.316c0-1.6.9-2.032,1.65-2.032s1.668,0.43,1.668,2.032v0.516h1.21V56.316c0-1.893-.954-3.133-2.878-3.133-1.906,0-2.878,1.239-2.878,3.133v1.652h-2.787v1.1h2.787v9.208Zm37.418-3.752,1.209,0.534c1.558-2.961,2.621-4.01,3.72-4.114,1.083,1.084.954,2.2-.934,5.56l1.265,0.534a13.137,13.137,0,0,0,1.43-3.563h1.87v4.8h1.227V59.069h8.765v1.256c0.037,1.945-.972,2.048-4.6,2.048v1.1c3.28,0,4.619-.069,4.619,1.376,0,1.463-1.375,2.152-2.97,2.152a6.974,6.974,0,0,1-3.538-1.05v1.1a6.123,6.123,0,0,0,3.648,1.05c2.4,0,4.088-1.291,4.088-3.185a2.289,2.289,0,0,0-1.1-2.082c0.458-.241,1.081-0.861,1.081-2.668v-1.1h2.53v-1.1h-2.6a4.093,4.093,0,0,0-4.689-3.96l0.275,1.1a2.829,2.829,0,0,1,3.259,2.857H204.89v4.406h-1.76a3.278,3.278,0,0,0-1.283-2.529,3.706,3.706,0,0,0-3.336,1.583c0.182-1.05.018-2.772-1.192-3.46h-3.373v1.1h2.787c0.971,1.016.916,2.737-.4,5.456m31.955-11.532a2.178,2.178,0,0,0-.6,1.48,2.325,2.325,0,0,0,2.364,2.221,2.223,2.223,0,1,0,.037-4.44c-0.953-.052-2.475-0.1-2.475-1.791h-1.191a2.48,2.48,0,0,0,1.87,2.53m1.759,0.258a1.216,1.216,0,1,1-1.3,1.221,1.235,1.235,0,0,1,1.3-1.221m6.965,13.306a0.837,0.837,0,0,0,.86.826,0.85,0.85,0,0,0,.863-0.826,0.836,0.836,0,0,0-.863-0.809,0.823,0.823,0,0,0-.86.809m-7.445-4.613h-3.135c-2.384,0-3.336,1.1-3.336,2.5,0,2.048,2.236,3.856,4.455,3.856,2.181,0,3.262-1.463,3.262-3.529v-5.7h3.211a6.2,6.2,0,0,1,1.081,3.391c0,1.463-.825,2.461-1.851,4.01l1.412,0.6a14.685,14.685,0,0,0,1.375-2.891h4.123v4.1h1.228V59.07h6.18v2.255a3.568,3.568,0,0,0-3.464,3.528,3.217,3.217,0,0,0,3.189,3.184V66.953a2.188,2.188,0,0,1-1.979-2.187c0-1.36,1.154-2.392,2.858-2.392s2.86,1.033,2.86,2.392a2.187,2.187,0,0,1-1.979,2.187v1.084a3.23,3.23,0,0,0,3.19-3.184,3.568,3.568,0,0,0-3.464-3.528V59.07H254v-1.1H221.535v1.1h8.029v2.874Zm0,2.806c0,1.463-.587,2.461-1.943,2.461-1.521,0-3.244-1.325-3.244-2.8,0-.844.549-1.361,2.052-1.361h3.135v1.7Zm10.6-5.68v4.01h-3.9a4.623,4.623,0,0,0,.018-0.5,7.558,7.558,0,0,0-.86-3.511h4.746ZM74.622,85.857c-2.383,0-3.336,1.1-3.336,2.495,0,2.049,2.236,3.856,4.454,3.856,2.181,0,3.263-1.463,3.263-3.528v-5.7h2.567v-1.1H68.863c-0.013-2.087-1.106-2.7-2.673-2.961-0.716-.1-1.466-0.207-1.466-1.842H63.532a2.634,2.634,0,0,0,2.64,2.96,1.62,1.62,0,0,1,1.5,1.843h-8.2v1.1h8.157V88.61c0,1.464-.586,2.462-2,2.462-1.448,0-3.19-1.325-3.19-2.8,0-.844.55-1.361,2.053-1.361h0.586V85.8H64.5c-2.382,0-3.336,1.1-3.336,2.513,0,2.03,2.291,3.839,4.363,3.839,2.309,0,3.354-1.464,3.354-3.529V82.981h8.875v2.875H74.622Zm3.134,2.8c0,1.464-.586,2.463-1.943,2.463-1.521,0-3.244-1.326-3.244-2.807,0-.843.549-1.36,2.053-1.36h3.134v1.7Zm13.8,3.7a6.623,6.623,0,0,0,2.346-.38v-1a6.986,6.986,0,0,1-2.585.327c-1.924-.035-2.4-1.016-2.4-1.928V89.23a2.831,2.831,0,0,0,.367.016h4.527v-1.1H89.176c-0.972,0-1.467-.4-1.467-0.964,0-.774.934-0.928,1.7-0.928h4.4V82.982h3.558V92.19H98.6V82.982h2.787v-1.1H98.6V80.228c0-1.894-.971-3.134-2.877-3.134-1.925,0-2.879,1.239-2.879,3.134v0.516h1.21V80.228c0-1.6.917-2.031,1.669-2.031s1.649,0.43,1.649,2.031V81.88H84.464v1.1h8.121v2.169H89.707c-2.163,0-3.244.86-3.244,2.015a1.935,1.935,0,0,0,1.319,1.789,3.877,3.877,0,0,0-.018.465c0,1.084.513,2.944,3.794,2.944m22.859,3.408a6.266,6.266,0,0,1-3.024.637,5.665,5.665,0,0,1-2.9-.637v1.015a5.657,5.657,0,0,0,2.97.69,5.544,5.544,0,0,0,2.951-.69V95.771Zm0-2.479a6.266,6.266,0,0,1-3.024.637,5.665,5.665,0,0,1-2.9-.637v1.016a5.657,5.657,0,0,0,2.97.689,5.545,5.545,0,0,0,2.951-.689V93.292Zm-7.13-11.411h-3.1v1.1h2.842a13.267,13.267,0,0,0-.221,2.41c0,4.165,1.871,6.85,4.821,6.886,2.2,0.034,3.594-1.412,3.594-3.064a2.943,2.943,0,0,0-2.768-2.857,4.256,4.256,0,0,0,3.5-3.374H125v2.875h-3.134c-2.384,0-3.336,1.1-3.336,2.495,0,2.049,2.236,3.856,4.453,3.856,2.182,0,3.263-1.463,3.263-3.529v-5.7h9.552v3.788h-4.4a7.076,7.076,0,0,0-.478-1.636l-1.869.534a3.239,3.239,0,0,1,1.192,2.2,14.77,14.77,0,0,1-.716,4.32h1.247a15.978,15.978,0,0,0,.679-4.32h4.343v4.32h1.228V82.982h3.467v5.112h1.228V82.982h2.75v-1.1h-28.4V81.828a3.886,3.886,0,0,0-4.032-4.165c-2.567,0-4.052,1.876-4.747,4.218M125,88.661c0,1.463-.587,2.462-1.944,2.462-1.52,0-3.244-1.326-3.244-2.806,0-.844.551-1.36,2.054-1.36H125v1.7Zm-11,.585a2.015,2.015,0,0,1-2.255,1.946c-2,0-3.281-1.636-3.611-4.373h2.256c2.419,0,3.61,1.239,3.61,2.427m-3.61-3.476h-2.347V85.322a12.588,12.588,0,0,1,.2-2.341h6.471c-0.422,1.721-1.888,2.789-4.325,2.789m4.453-3.908V81.88H108.5c0.531-1.721,1.575-3.064,3.464-3.134,1.906-.069,2.877,1.239,2.877,3.116m34.891,12.446A5.67,5.67,0,0,0,152.7,95a5.55,5.55,0,0,0,2.951-.688V93.292a6.277,6.277,0,0,1-3.025.636,5.678,5.678,0,0,1-2.9-.636v1.016Zm13.711-3.839a0.838,0.838,0,0,0,.862.826,0.849,0.849,0,0,0,.861-0.826,0.834,0.834,0,0,0-.861-0.809,0.824,0.824,0,0,0-.862.809m17.95-8.589H147.234v1.1h9.349v1.755a6.075,6.075,0,0,1-.423,2.325,4.418,4.418,0,0,0-3.867-2.238c-1.943,0-3.208,1.154-3.208,2.84,0,1.7,1.3,2.857,3.464,2.857a4.991,4.991,0,0,0,3.263-1.136,8.685,8.685,0,0,1,.165,1.773c0,0.362-.018.878-0.037,1.136h1.211c0-.344.018-0.757,0.018-1.1a9.056,9.056,0,0,0-.421-2.841,6.615,6.615,0,0,0,1.026-3.717l0.036-1.653h2.643a6.191,6.191,0,0,1,1.081,3.391c0,1.463-.825,2.462-1.851,4.01l1.41,0.6a14.463,14.463,0,0,0,1.375-2.892h4.126v4.1h1.228V82.981h5.042a4.52,4.52,0,0,0-.054.774,5.788,5.788,0,0,0,.329,1.945,3.47,3.47,0,0,0-2.457,3.254,3.226,3.226,0,0,0,3.464,3.116V90.986a2.111,2.111,0,0,1-2.235-2.015,2.577,2.577,0,0,1,1.686-2.289,5.913,5.913,0,0,0,2.42,2.34,6.264,6.264,0,0,0,2.4-2.358,2.6,2.6,0,0,1,1.7,2.307,2.128,2.128,0,0,1-2.255,2.015V92.07a3.242,3.242,0,0,0,3.483-3.116,3.522,3.522,0,0,0-2.475-3.271,5.809,5.809,0,0,0,.349-1.928,3.113,3.113,0,0,0-.073-0.774h10.322v1.256c0.037,1.946-.972,2.048-4.6,2.048v1.1c3.281,0,4.619-.07,4.619,1.377,0,1.463-1.374,2.153-2.969,2.153a6.984,6.984,0,0,1-3.538-1.05v1.1a6.12,6.12,0,0,0,3.647,1.05c2.4,0,4.089-1.291,4.089-3.184a2.293,2.293,0,0,0-1.1-2.083c0.457-.241,1.081-0.861,1.081-2.668v-1.1h3.632v5.112h1.228V82.981h2.748v-1.1H181.39Zm-28.768,7.54c-1.466,0-2.309-.672-2.309-1.756a1.811,1.811,0,0,1,2.09-1.738,3.23,3.23,0,0,1,3.061,2.255,3.64,3.64,0,0,1-2.842,1.239m13.972-2.428h-3.906a4.164,4.164,0,0,0,.02-0.5,7.543,7.543,0,0,0-.863-3.511h4.749v4.01Zm9.423,0.757a4.351,4.351,0,0,1-2-3.959,5.391,5.391,0,0,1,.055-0.809h3.868a3.487,3.487,0,0,1,.074.774,4.656,4.656,0,0,1-2,3.993M231.05,81.88H201.226v1.1h5.406v2.255a3.568,3.568,0,0,0-3.464,3.528,3.218,3.218,0,0,0,3.189,3.185V90.865a2.186,2.186,0,0,1-1.979-2.185c0-1.361,1.154-2.393,2.859-2.393s2.86,1.033,2.86,2.393a2.186,2.186,0,0,1-1.979,2.185V91.95a3.23,3.23,0,0,0,3.189-3.185,3.568,3.568,0,0,0-3.464-3.528V82.981h6.436v5.112h1.228V82.981h5.444a4.52,4.52,0,0,0-.054.774,5.788,5.788,0,0,0,.329,1.945,3.469,3.469,0,0,0-2.456,3.254,3.226,3.226,0,0,0,3.464,3.116V90.986A2.111,2.111,0,0,1,220,88.971a2.577,2.577,0,0,1,1.686-2.289,5.913,5.913,0,0,0,2.42,2.34,6.264,6.264,0,0,0,2.4-2.358,2.6,2.6,0,0,1,1.705,2.307,2.128,2.128,0,0,1-2.255,2.015V92.07a3.242,3.242,0,0,0,3.483-3.116,3.522,3.522,0,0,0-2.475-3.271,5.784,5.784,0,0,0,.349-1.928,3.113,3.113,0,0,0-.073-0.774h3.811v-1.1ZM224.1,87.749a4.35,4.35,0,0,1-2-3.959,5.391,5.391,0,0,1,.055-0.809h3.867a3.487,3.487,0,0,1,.074.774,4.654,4.654,0,0,1-2,3.993m9.829,3.736h1.227V82.1h-1.227v9.381Z"/>
</svg>
