<svg id="Frame_2" data-name="Frame 2" xmlns="http://www.w3.org/2000/svg" width="300" height="250" viewBox="0 0 300 250">
  <defs>
    <style>
      .cls-1 {
        fill: #fff;
        fill-rule: evenodd;
      }
    </style>
  </defs>
  <path id="txt2" class="cls-1" d="M46.519,72.085c1.53-3.007,2.575-4.074,3.655-4.178,1.063,1.1.936,2.238-.919,5.647L50.5,74.094a13.589,13.589,0,0,0,1.4-3.618h1.835v4.878h1.206V66h3.4v5.191h1.205V66h3.712a5.268,5.268,0,0,1,.36,2.027,7.242,7.242,0,0,1-1.1,3.478c0.432,1.853,2.2,2.745,4.1,2.745a5.634,5.634,0,0,0,2.142-.384v1.486H69.98V66h3.745c0.018,1.661,1.152,3.2,3.511,3.531l-0.108,1.119a3.885,3.885,0,0,0-1.531-.3,3.2,3.2,0,0,0-3.15,1.888,4.856,4.856,0,0,0,4.843,3.287,5.466,5.466,0,0,0,4.015-1.469V72.836a5.262,5.262,0,0,1-3.817,1.574,3.916,3.916,0,0,1-3.78-2.168,2.249,2.249,0,0,1,1.835-.787,4.325,4.325,0,0,1,2.575.909l0.018-.157,0.216-2.622a6.565,6.565,0,0,0,2.16-.367V68.168a6.957,6.957,0,0,1-2.395.3c-2,0-3.15-1.171-3.187-2.464h8.174V64.882h-3.44a4.062,4.062,0,0,0-4.605-4.021l0.271,1.119a2.817,2.817,0,0,1,3.2,2.9H68.774v7.953a5.114,5.114,0,0,1-1.729.262c-1.655,0-2.772-.437-3.24-1.591a7.506,7.506,0,0,0,.972-3.706,5.133,5.133,0,0,0-.828-2.919H53.738v4.475H52.01a3.369,3.369,0,0,0-1.26-2.57A3.6,3.6,0,0,0,47.474,68.4c0.179-1.067.017-2.815-1.171-3.514H42.99V66h2.737c0.954,1.031.9,2.78-.4,5.541Zm40.493,2.272a0.837,0.837,0,0,0,.846.839,0.848,0.848,0,0,0,.846-0.839,0.834,0.834,0,0,0-.846-0.822,0.822,0.822,0,0,0-.846.822M108.005,66V64.882H95.6c-0.013-2.12-1.087-2.746-2.626-3.007-0.7-.105-1.441-0.21-1.441-1.871H90.362c0,2.727,1.873,2.884,2.592,3.008a1.632,1.632,0,0,1,1.475,1.87H86.2V66h8.227v2.168H92.071c-2.935,0-3.889,1.73-3.889,3.321,0,2.325,2.016,3.968,4.645,3.968,2.017,0,3.313-.979,3.313-2.324,0-1.1-.9-2.08-2.557-2.08a3.331,3.331,0,0,0-3.384,2.36,2.51,2.51,0,0,1-.81-1.87,2.107,2.107,0,0,1,2.25-2.255h4V66h6.05v2.29a3.572,3.572,0,0,0-3.4,3.584,3.215,3.215,0,0,0,3.133,3.233v-1.1a2.2,2.2,0,0,1-1.944-2.22,2.838,2.838,0,0,1,5.617,0,2.2,2.2,0,0,1-1.945,2.22v1.1a3.228,3.228,0,0,0,3.133-3.233,3.571,3.571,0,0,0-3.4-3.584V66h5.13ZM93.349,72.172c1.08,0,1.584.525,1.584,1.1,0,0.682-.846,1.066-2.034,1.066a4.516,4.516,0,0,1-1.98-.419,2.494,2.494,0,0,1,2.43-1.748m26.663-5.052V66H122.5V64.882h-2.52c-0.013-2.119-1.088-2.746-2.627-3.006-0.7-.105-1.44-0.21-1.44-1.871h-1.171c0,2.727,1.873,2.884,2.592,3.008a1.632,1.632,0,0,1,1.476,1.87h-7.94V66h7.941v1.276c0.035,1.976-.955,2.08-4.519,2.08v1.119c3.222,0,4.536-.069,4.536,1.4,0,1.485-1.35,2.185-2.916,2.185a6.7,6.7,0,0,1-3.475-1.066v1.119a5.879,5.879,0,0,0,3.582,1.066c2.359,0,4.015-1.311,4.015-3.234a2.34,2.34,0,0,0-1.081-2.115c0.451-.244,1.063-0.874,1.063-2.709m1.964-5.14a0.769,0.769,0,0,0-.773-0.751,0.743,0.743,0,0,0-.757.751,0.754,0.754,0,0,0,.757.752,0.781,0.781,0,0,0,.773-0.752m12.437,9.965a2.34,2.34,0,0,0-1.081-2.115c0.451-.244,1.063-0.874,1.063-2.709V66h3.566v5.191h1.206V66h3.71a5.273,5.273,0,0,1,.36,2.027,7.237,7.237,0,0,1-1.1,3.479c0.431,1.853,2.2,2.744,4.1,2.744a5.619,5.619,0,0,0,2.143-.384v1.486h1.206V66h2.865a6.442,6.442,0,0,1,1.061,3.443c0,1.487-.81,2.5-1.818,4.073l1.386,0.612a14.9,14.9,0,0,0,1.35-2.937h4.051v4.161H159.7V66h3.385v5.191h1.206V66h6.465v2.29a3.571,3.571,0,0,0-3.4,3.584,3.216,3.216,0,0,0,3.133,3.233v-1.1a2.2,2.2,0,0,1-1.944-2.22,2.837,2.837,0,0,1,5.616,0,2.2,2.2,0,0,1-1.944,2.22v1.1a3.227,3.227,0,0,0,3.132-3.233,3.571,3.571,0,0,0-3.4-3.584V66h5.13V64.882H158.488v5.191h-3.835a4.5,4.5,0,0,0,.019-0.506,7.547,7.547,0,0,0-1.567-4.685h-4.718v7.953a5.115,5.115,0,0,1-1.729.263c-1.655,0-2.772-.438-3.241-1.591a7.5,7.5,0,0,0,.973-3.706,5.132,5.132,0,0,0-.828-2.919H125.25V66h7.939v1.276c0.037,1.976-.955,2.08-4.519,2.08v1.119c3.223,0,4.536-.069,4.536,1.4,0,1.485-1.349,2.185-2.916,2.185a6.7,6.7,0,0,1-3.474-1.066v1.119a5.879,5.879,0,0,0,3.582,1.066c2.359,0,4.015-1.311,4.015-3.234m43.974,5.594,1.17-4.021h-1.19l-1.061,4.021h1.081Zm46-3.129a4.086,4.086,0,0,1-3.851-2.151,3.546,3.546,0,0,1,3.51-2.115h3.636V66H230V64.882H216.463V63.2c0-1.923-.955-3.181-2.826-3.181-1.891,0-2.827,1.259-2.827,3.181v0.525H212V63.2c0-1.626.9-2.063,1.64-2.063s1.62,0.437,1.62,2.063v1.679H184.2V66h4.195a4.878,4.878,0,0,0-.054.787,6.042,6.042,0,0,0,.325,1.976,3.51,3.51,0,0,0-2.413,3.3,3.209,3.209,0,0,0,3.4,3.165v-1.1a2.1,2.1,0,0,1-2.2-2.045,2.61,2.61,0,0,1,1.657-2.326,5.9,5.9,0,0,0,2.375,2.378,6.254,6.254,0,0,0,2.359-2.4,2.633,2.633,0,0,1,1.674,2.343,2.115,2.115,0,0,1-2.214,2.045v1.1a3.225,3.225,0,0,0,3.421-3.165,3.568,3.568,0,0,0-2.43-3.322,6.079,6.079,0,0,0,.341-1.957A3.213,3.213,0,0,0,194.568,66H199.5v5.191h1.207V66h3.565l1.188,3.74a5.165,5.165,0,0,0-1.98,2.518,4.982,4.982,0,0,0,4.914,3.252,5.466,5.466,0,0,0,4.015-1.451V72.853A5.252,5.252,0,0,1,208.6,74.41a4.085,4.085,0,0,1-3.851-2.151,3.546,3.546,0,0,1,3.51-2.115h3.636V66h3.367v9.353h1.206V66h10.012v3.024h-2.43a4.742,4.742,0,0,0-4.77,3.234,4.981,4.981,0,0,0,4.914,3.252A5.462,5.462,0,0,0,228.2,74.06V72.853a5.252,5.252,0,0,1-3.817,1.557m-32.9-3.566a4.467,4.467,0,0,1-1.962-4.021A5.554,5.554,0,0,1,189.581,66h3.8a3.784,3.784,0,0,1,.071.787,4.781,4.781,0,0,1-1.963,4.056m19.195-1.818h-2.43a5.606,5.606,0,0,0-1.692.228L205.535,66h5.149v3.024ZM250.42,74.06a6.71,6.71,0,0,1-3.475-1.066v1.119a5.883,5.883,0,0,0,3.584,1.066c2.357,0,4.013-1.311,4.013-3.234a2.344,2.344,0,0,0-1.079-2.115c0.449-.244,1.062-0.874,1.062-2.709V66h2.485V64.882h-2.558a4.064,4.064,0,0,0-4.606-4.021l0.271,1.119a2.818,2.818,0,0,1,3.2,2.9h-9.813v4.475h-1.729a3.369,3.369,0,0,0-1.261-2.57A3.6,3.6,0,0,0,237.24,68.4c0.18-1.066.018-2.814-1.17-3.514h-3.313V66h2.736c0.955,1.031.9,2.78-.395,5.541l1.188,0.542c1.531-3.007,2.574-4.073,3.655-4.178,1.061,1.1.936,2.237-.918,5.647l1.242,0.542a13.6,13.6,0,0,0,1.4-3.619h1.837v4.878h1.205V66h8.608v1.276c0.036,1.976-.954,2.08-4.519,2.08v1.119c3.223,0,4.537-.069,4.537,1.4,0,1.485-1.35,2.185-2.917,2.185m-177.21,26.7v1.03a5.4,5.4,0,0,0,2.916.7,5.294,5.294,0,0,0,2.9-.7v-1.03a6,6,0,0,1-2.971.646,5.417,5.417,0,0,1-2.844-.646m49.3-11.591H89.54V97.12a5.106,5.106,0,0,1-1.728.263c-1.656,0-2.772-.438-3.241-1.591a7.5,7.5,0,0,0,.972-3.706,5.13,5.13,0,0,0-.827-2.919H80.572V89.114c0-2.36-1.44-4.231-3.96-4.231s-3.978,1.906-4.663,4.284H68.907v1.119H71.7a14.076,14.076,0,0,0-.215,2.448c0,4.23,1.835,6.958,4.734,6.992a3.215,3.215,0,0,0,3.528-3.111,2.948,2.948,0,0,0-2.718-2.9,4.245,4.245,0,0,0,3.438-3.426h3.567a5.279,5.279,0,0,1,.359,2.028,7.23,7.23,0,0,1-1.1,3.478c0.432,1.852,2.2,2.744,4.105,2.744a5.613,5.613,0,0,0,2.141-.384v1.486h1.206V90.285h9.814v1.782a6.393,6.393,0,0,1-.413,2.361,4.319,4.319,0,0,0-3.8-2.273,2.859,2.859,0,0,0-3.15,2.885c0,1.729,1.279,2.9,3.4,2.9a4.805,4.805,0,0,0,3.2-1.153,9.128,9.128,0,0,1,.163,1.8c0,0.367-.019.892-0.036,1.154h1.189c0-.349.017-0.769,0.017-1.119a9.485,9.485,0,0,0-.414-2.884,6.887,6.887,0,0,0,1.009-3.775l0.036-1.679h8.373V93.2h-3.079c-2.34,0-3.277,1.119-3.277,2.535,0,2.08,2.2,3.915,4.376,3.915,2.142,0,3.2-1.485,3.2-3.583V90.285h6.375v2.29a3.57,3.57,0,0,0-3.4,3.584,3.217,3.217,0,0,0,3.132,3.234v-1.1a2.2,2.2,0,0,1-1.944-2.22,2.838,2.838,0,0,1,5.617,0,2.2,2.2,0,0,1-1.944,2.22v1.1a3.229,3.229,0,0,0,3.132-3.234,3.57,3.57,0,0,0-3.4-3.584v-2.29h6.321v5.191h1.206V90.285h2.7V89.167h-6.643ZM78.539,96.648a2.006,2.006,0,0,1-2.215,1.976c-1.962,0-3.222-1.661-3.547-4.441h2.215c2.377,0,3.547,1.26,3.547,2.465m-3.547-3.531h-2.3V92.662a13.254,13.254,0,0,1,.2-2.377h6.355c-0.415,1.748-1.855,2.832-4.249,2.832m4.375-3.95h-6.23c0.522-1.749,1.549-3.112,3.4-3.181,1.872-.07,2.827,1.257,2.827,3.164v0.018Zm17.3,7.656c-1.44,0-2.268-.681-2.268-1.782a1.8,1.8,0,0,1,2.053-1.767,3.185,3.185,0,0,1,3.006,2.29,3.521,3.521,0,0,1-2.79,1.258m13.469-.769c0,1.486-.577,2.5-1.909,2.5a3.274,3.274,0,0,1-3.186-2.849c0-.856.541-1.381,2.016-1.381h3.079v1.73Zm16.567-9.789a0.77,0.77,0,0,0-.774-0.752,0.743,0.743,0,0,0-.756.752,0.753,0.753,0,0,0,.756.752,0.782,0.782,0,0,0,.774-0.752m10.348,12.027a2.2,2.2,0,0,1-1.944-2.221,2.838,2.838,0,0,1,5.617,0,2.2,2.2,0,0,1-1.944,2.221v1.1a3.23,3.23,0,0,0,3.133-3.234,3.571,3.571,0,0,0-3.4-3.583v-2.29h5.132V89.167h-11.63v1.119h5.31v2.29a3.57,3.57,0,0,0-3.4,3.583,3.216,3.216,0,0,0,3.132,3.234v-1.1Zm3.729,6.014v-1.031a5.992,5.992,0,0,1-2.971.647,5.418,5.418,0,0,1-2.844-.647v1.031a5.423,5.423,0,0,0,2.917.7,5.306,5.306,0,0,0,2.9-.7m-5.815-3.548v1.03a5.4,5.4,0,0,0,2.917.7,5.289,5.289,0,0,0,2.9-.7v-1.03a5.993,5.993,0,0,1-2.971.646,5.419,5.419,0,0,1-2.844-.646M135.491,85.6a2.319,2.319,0,0,0,2.323,2.255,2.257,2.257,0,1,0-2.323-2.255m3.583,0a1.213,1.213,0,0,1-1.26,1.224,1.233,1.233,0,1,1,1.26-1.224M185,89.166h-0.724a4.063,4.063,0,0,0-4.6-4.021l0.271,1.119a2.821,2.821,0,0,1,3.2,2.913v5.181h-3.835a4.774,4.774,0,0,0,.018-0.507,7.547,7.547,0,0,0-1.567-4.685h-3.548c-0.013-2.12-1.088-2.747-2.627-3.007-0.7-.106-1.44-0.21-1.44-1.871h-1.17c0,2.728,1.872,2.884,2.592,3.006a1.633,1.633,0,0,1,1.475,1.871H157.255v4.475h-1.729a3.366,3.366,0,0,0-1.261-2.57,3.6,3.6,0,0,0-3.276,1.609c0.18-1.067.019-2.815-1.17-3.515h-3.313v1.119h2.736c0.955,1.032.9,2.78-.395,5.542l1.188,0.541c1.531-3.007,2.574-4.074,3.655-4.178,1.061,1.1.936,2.238-.918,5.647l1.242,0.542a13.536,13.536,0,0,0,1.4-3.619h1.838v4.878h1.205V90.285h3.4v5.192h1.206V90.285h9.977v3.024h-2.43a4.746,4.746,0,0,0-4.772,3.234A4.983,4.983,0,0,0,170.76,99.8a5.461,5.461,0,0,0,4.014-1.452V97.137a5.254,5.254,0,0,1-3.817,1.556,4.085,4.085,0,0,1-3.852-2.151,3.549,3.549,0,0,1,3.511-2.115h3.635V90.285h2.866a6.447,6.447,0,0,1,1.062,3.444c0,1.486-.81,2.5-1.819,4.073l1.386,0.612a14.954,14.954,0,0,0,1.35-2.937h4.052v4.16h1.206V90.285h9.579v3.024H191.5a4.744,4.744,0,0,0-4.771,3.234,4.983,4.983,0,0,0,4.914,3.253,5.462,5.462,0,0,0,4.015-1.452V97.137a5.252,5.252,0,0,1-3.817,1.556,4.084,4.084,0,0,1-3.851-2.151,3.548,3.548,0,0,1,3.51-2.115h3.636V90.285h2.322V89.166H185Zm32.5-3.007c-0.7-.1-1.439-0.21-1.439-1.87H214.89c0,2.728,1.873,2.884,2.593,3.006a1.632,1.632,0,0,1,1.474,1.871H200.179v1.119h9.182v1.782a6.351,6.351,0,0,1-.415,2.361,4.317,4.317,0,0,0-3.8-2.273A2.859,2.859,0,0,0,202,95.041c0,1.729,1.278,2.9,3.4,2.9a4.806,4.806,0,0,0,3.2-1.153,9.267,9.267,0,0,1,.161,1.8c0,0.367-.018.892-0.035,1.154h1.187c0-.349.019-0.769,0.019-1.119a9.516,9.516,0,0,0-.414-2.884,6.887,6.887,0,0,0,1.007-3.775l0.037-1.679h8.373V93.2h-3.079c-2.34,0-3.276,1.119-3.276,2.535,0,2.08,2.2,3.915,4.375,3.915,2.142,0,3.2-1.485,3.2-3.583V90.285h2.521V89.167h-2.558c-0.012-2.121-1.087-2.747-2.627-3.007M205.472,96.823c-1.44,0-2.268-.681-2.268-1.782a1.8,1.8,0,0,1,2.051-1.767,3.185,3.185,0,0,1,3.007,2.29,3.52,3.52,0,0,1-2.79,1.258m13.468-.769c0,1.486-.576,2.5-1.909,2.5a3.273,3.273,0,0,1-3.185-2.849c0-.856.54-1.381,2.015-1.381h3.079v1.73Zm7.761-6.66h-1.207v9.528H226.7V89.394Z"/>
</svg>
