<svg id="Frame_2" data-name="Frame 2" xmlns="http://www.w3.org/2000/svg" width="300" height="250" viewBox="0 0 300 250">
  <defs>
    <style>
      .cls-1 {
        fill: #fff;
        fill-rule: evenodd;
      }
    </style>
  </defs>
  <path id="ਆਪਣੇ_ਫ਼ੋਨ_ਤੋਂ_ਤਾਪਮਾਨ_ਲਾਈਟ_ਅਤੇ_ਉਪਕਰਨਾਂ_ਨੂੰ_ਆਟੋਮੇਟ_ਕਰੋ_" data-name="ਆਪਣੇ ਫ਼ੋਨ ਤੋਂ ਤਾਪਮਾਨ, ਲਾਈਟ ਅਤੇ ਉਪਕਰਨਾਂ ਨੂੰ ਆਟੋਮੇਟ ਕਰੋ।" class="cls-1" d="M62.452,64.162H53.94v4.607H52.212a3.506,3.506,0,0,0-1.26-2.645,3.569,3.569,0,0,0-3.275,1.656c0.18-1.1.018-2.9-1.17-3.617H43.2v1.152h2.735c0.954,1.062.9,2.861-.4,5.7l1.188,0.558c1.53-3.1,2.573-4.193,3.653-4.3,1.062,1.134.936,2.3-.918,5.813L50.7,73.646a14.246,14.246,0,0,0,1.4-3.725H53.94v5.021h1.206V65.313h3.4v5.345h1.206V65.313h2.7V64.162Zm10.045,0H68.97V72.35a4.978,4.978,0,0,1-1.728.27c-1.656,0-2.772-.45-3.239-1.638a7.908,7.908,0,0,0,.972-3.815,5.4,5.4,0,0,0-.828-3.005H60.871v1.152h2.592a5.573,5.573,0,0,1,.36,2.088,7.605,7.605,0,0,1-1.1,3.581c0.432,1.908,2.2,2.826,4.1,2.826a5.481,5.481,0,0,0,2.142-.4v1.53h1.206V65.313H72.5V64.162Zm10.8,0H70.843v1.152h3.078a3.7,3.7,0,0,0,3.509,3.635L77.322,70.1a3.787,3.787,0,0,0-1.53-.306,3.186,3.186,0,0,0-3.149,1.944,4.86,4.86,0,0,0,4.841,3.383A5.377,5.377,0,0,0,81.5,73.61V72.35a5.187,5.187,0,0,1-3.815,1.62A3.9,3.9,0,0,1,73.9,71.738a2.223,2.223,0,0,1,1.836-.81,4.245,4.245,0,0,1,2.574.936L78.33,71.7,78.546,69a6.4,6.4,0,0,0,2.16-.378v-1.08a6.775,6.775,0,0,1-2.394.306c-2,0-3.15-1.206-3.185-2.538H83.3V64.162Zm-8.043-4.139,0.27,1.152a2.86,2.86,0,0,1,3.2,3.023h1.134A4.107,4.107,0,0,0,75.254,60.022ZM91.827,68.7h4V65.313h2.2V64.162H86.392v1.152h8.225v2.232H92.259c-2.933,0-3.887,1.782-3.887,3.419,0,2.394,2.016,4.085,4.643,4.085,2.016,0,3.311-1.008,3.311-2.394a2.261,2.261,0,0,0-2.555-2.142,3.344,3.344,0,0,0-3.383,2.43,2.622,2.622,0,0,1-.81-1.926A2.141,2.141,0,0,1,91.827,68.7Zm1.71,2.97c1.08,0,1.584.54,1.584,1.134,0,0.7-.846,1.1-2.034,1.1a4.406,4.406,0,0,1-1.98-.432A2.5,2.5,0,0,1,93.536,71.666Zm-5.489,1.4a0.834,0.834,0,0,0-.846.846,0.849,0.849,0,0,0,.846.864,0.86,0.86,0,0,0,.846-0.864A0.845,0.845,0,0,0,88.047,73.07Zm6.57-8.872h1.17c0-2.214-1.08-2.861-2.627-3.131-0.7-.108-1.44-0.216-1.44-1.926H90.55c0,2.807,1.872,2.969,2.592,3.1A1.682,1.682,0,0,1,94.618,64.2Zm13.569,1.116V64.162H96.561v1.152h5.309v2.358a3.633,3.633,0,0,0-3.4,3.689A3.269,3.269,0,0,0,101.6,74.69V73.556a2.241,2.241,0,0,1-1.943-2.285,2.826,2.826,0,0,1,5.615,0,2.241,2.241,0,0,1-1.944,2.285V74.69a3.282,3.282,0,0,0,3.132-3.329,3.633,3.633,0,0,0-3.4-3.689V65.313h5.129Zm12,1.152V65.313h2.484V64.162H111.048v1.152h7.936v1.314c0.036,2.034-.954,2.142-4.517,2.142v1.152c3.222,0,4.535-.072,4.535,1.44,0,1.53-1.349,2.25-2.915,2.25a6.565,6.565,0,0,1-3.474-1.1v1.152a5.761,5.761,0,0,0,3.582,1.1c2.357,0,4.013-1.35,4.013-3.329a2.427,2.427,0,0,0-1.08-2.178C119.578,69,120.19,68.355,120.19,66.465Zm-1.2-2.268h1.17c0-2.214-1.08-2.861-2.627-3.131-0.7-.108-1.44-0.216-1.44-1.926h-1.17c0,2.807,1.872,2.969,2.592,3.1A1.682,1.682,0,0,1,118.985,64.2Zm2.395-2.25a0.792,0.792,0,0,0,.774-0.774,0.78,0.78,0,0,0-.774-0.774,0.753,0.753,0,0,0-.756.774A0.764,0.764,0,0,0,121.38,61.948Zm13.188,4.517V65.313h2.484V64.162H125.426v1.152h7.936v1.314c0.036,2.034-.953,2.142-4.517,2.142v1.152c3.222,0,4.535-.072,4.535,1.44,0,1.53-1.349,2.25-2.915,2.25a6.558,6.558,0,0,1-3.473-1.1v1.152a5.755,5.755,0,0,0,3.581,1.1c2.358,0,4.013-1.35,4.013-3.329a2.427,2.427,0,0,0-1.08-2.178C133.956,69,134.568,68.355,134.568,66.465Zm7.47-2.3H135.4v1.152h2.735v5.345h1.206V65.313h2.7V64.162Zm10.043,0h-3.527V72.35a4.979,4.979,0,0,1-1.728.27c-1.655,0-2.771-.45-3.239-1.638a7.908,7.908,0,0,0,.972-3.815,5.4,5.4,0,0,0-.828-3.005h-3.276v1.152h2.592a5.57,5.57,0,0,1,.36,2.088,7.6,7.6,0,0,1-1.1,3.581c0.432,1.908,2.2,2.826,4.1,2.826a5.482,5.482,0,0,0,2.142-.4v1.53h1.206V65.313h2.321V64.162Zm10.1,0h-3.527v5.345h-3.833a5.057,5.057,0,0,0,.018-0.522,7.926,7.926,0,0,0-1.566-4.823h-2.718v1.152h2.07a6.766,6.766,0,0,1,1.062,3.545c0,1.53-.81,2.573-1.818,4.193l1.386,0.63a15.647,15.647,0,0,0,1.35-3.023h4.049v4.283h1.206V65.313h2.321V64.162Zm4.969,0h-6.641v1.152h2.736v5.345h1.206V65.313h2.7V64.162Zm10.079,1.152V64.162H165.6v1.152h5.309v2.358a3.633,3.633,0,0,0-3.4,3.689,3.269,3.269,0,0,0,3.131,3.329V73.556A2.241,2.241,0,0,1,168.7,71.27a2.826,2.826,0,0,1,5.615,0,2.241,2.241,0,0,1-1.944,2.285V74.69A3.281,3.281,0,0,0,175.5,71.36a3.632,3.632,0,0,0-3.4-3.689V65.313h5.129Zm1.3,7.739-1.062,4.139h1.08l1.169-4.139h-1.187Zm19.938-8.89h-14.11v1.152h4.194a5.055,5.055,0,0,0-.054.81,6.442,6.442,0,0,0,.323,2.034,3.605,3.605,0,0,0-2.411,3.4,3.246,3.246,0,0,0,3.4,3.257V73.682a2.124,2.124,0,0,1-2.2-2.106,2.683,2.683,0,0,1,1.655-2.394,5.991,5.991,0,0,0,2.376,2.448A6.348,6.348,0,0,0,194,69.165a2.705,2.705,0,0,1,1.673,2.412,2.139,2.139,0,0,1-2.213,2.106v1.134a3.261,3.261,0,0,0,3.419-3.257,3.662,3.662,0,0,0-2.43-3.419,6.4,6.4,0,0,0,.342-2.016,3.459,3.459,0,0,0-.072-0.81h3.744V64.162ZM193.6,66.123a4.975,4.975,0,0,1-1.962,4.175,4.645,4.645,0,0,1-1.962-4.139,5.9,5.9,0,0,1,.054-0.846h3.8A3.875,3.875,0,0,1,193.6,66.123Zm9.954-1.962h-6.641v1.152h2.736v5.345h1.206V65.313h2.7V64.162Zm15.784,0h-2.736V62.434c0-1.98-.953-3.275-2.825-3.275-1.89,0-2.826,1.3-2.826,3.275v0.54h1.188v-0.54c0-1.674.9-2.124,1.638-2.124s1.62,0.45,1.62,2.124v1.728H201.9v1.152h2.52l1.187,3.851a5.3,5.3,0,0,0-1.979,2.592,4.982,4.982,0,0,0,4.913,3.347,5.374,5.374,0,0,0,4.013-1.494V72.368a5.179,5.179,0,0,1-3.815,1.6,4.064,4.064,0,0,1-3.851-2.214,3.537,3.537,0,0,1,3.509-2.178h3.635V65.313H215.4v9.628h1.2V65.313h2.736V64.162Zm-8.513,4.265H208.4a5.494,5.494,0,0,0-1.692.234l-1.026-3.347h5.147v3.114Zm13.357,1.152h3.635V65.313h2.322V64.162H217.689v1.152h8.926v3.114h-2.429a4.748,4.748,0,0,0-4.769,3.329A4.982,4.982,0,0,0,224.33,75.1a5.374,5.374,0,0,0,4.013-1.494V72.368a5.179,5.179,0,0,1-3.815,1.6,4.064,4.064,0,0,1-3.851-2.214A3.537,3.537,0,0,1,224.186,69.579Zm22.981-5.417h-3.528v4.607h-1.727a3.506,3.506,0,0,0-1.26-2.645,3.57,3.57,0,0,0-3.276,1.656c0.18-1.1.018-2.9-1.169-3.617H232.9v1.152h2.736c0.954,1.062.9,2.861-.4,5.7l1.188,0.558c1.529-3.1,2.573-4.193,3.653-4.3,1.062,1.134.936,2.3-.918,5.813l1.242,0.558a14.244,14.244,0,0,0,1.4-3.725h1.835v5.021h1.206V65.313h2.322V64.162Zm7.488,2.3V65.313h2.484V64.162H245.513v1.152h7.937v1.314c0.036,2.034-.954,2.142-4.518,2.142v1.152c3.222,0,4.536-.072,4.536,1.44,0,1.53-1.35,2.25-2.916,2.25a6.561,6.561,0,0,1-3.473-1.1v1.152a5.757,5.757,0,0,0,3.581,1.1c2.358,0,4.013-1.35,4.013-3.329a2.427,2.427,0,0,0-1.079-2.178C254.044,69,254.655,68.355,254.655,66.465Zm-4.677-6.443,0.27,1.152a2.86,2.86,0,0,1,3.2,3.023h1.134A4.108,4.108,0,0,0,249.978,60.022ZM80.657,90.313h2.556V89.162H80.765V89.108c0-2.43-1.44-4.355-3.959-4.355s-3.977,1.962-4.661,4.409H69.1v1.152h2.789a14.894,14.894,0,0,0-.216,2.52c0,4.355,1.836,7.163,4.733,7.2a3.254,3.254,0,0,0,3.527-3.2,3,3,0,0,0-2.718-2.987A4.31,4.31,0,0,0,80.657,90.313Zm-3.923-4.427c1.872-.072,2.826,1.3,2.826,3.257v0.018H73.332C73.854,87.362,74.88,85.958,76.733,85.886Zm-1.548,7.343h-2.3V92.761a14.04,14.04,0,0,1,.2-2.448h6.353C79.019,92.113,77.579,93.229,75.186,93.229Zm3.545,3.635A2.032,2.032,0,0,1,76.517,98.9c-1.962,0-3.221-1.71-3.545-4.571h2.214C77.561,94.327,78.731,95.623,78.731,96.864ZM73.4,101.093v1.062a5.29,5.29,0,0,0,2.915.72,5.183,5.183,0,0,0,2.9-.72v-1.062a5.842,5.842,0,0,1-2.969.666A5.286,5.286,0,0,1,73.4,101.093ZM93.256,89.162H89.729V97.35A4.978,4.978,0,0,1,88,97.62c-1.656,0-2.771-.45-3.239-1.638a7.909,7.909,0,0,0,.972-3.815,5.4,5.4,0,0,0-.828-3.005H81.63v1.152h2.591a5.571,5.571,0,0,1,.36,2.088,7.605,7.605,0,0,1-1.1,3.581c0.432,1.908,2.2,2.826,4.1,2.826a5.48,5.48,0,0,0,2.142-.4v1.53h1.206V90.313h2.322V89.162Zm10.764,0H91.566v1.152h9.179v1.836a6.734,6.734,0,0,1-.414,2.429,4.3,4.3,0,0,0-3.8-2.34,2.894,2.894,0,0,0-3.15,2.969c0,1.782,1.278,2.987,3.4,2.987a4.72,4.72,0,0,0,3.2-1.188,9.719,9.719,0,0,1,.162,1.854c0,0.378-.018.918-0.036,1.188H101.3c0-.36.018-0.792,0.018-1.152a10.031,10.031,0,0,0-.414-2.97,7.257,7.257,0,0,0,1.007-3.887l0.036-1.728h2.07V89.162Zm-7.163,7.883c-1.44,0-2.268-.7-2.268-1.836a1.818,1.818,0,0,1,2.052-1.818,3.2,3.2,0,0,1,3.005,2.358A3.478,3.478,0,0,1,96.857,97.044Zm17.207-7.883H102.438v1.152h7.883v3.005h-3.078c-2.339,0-3.275,1.152-3.275,2.609a4.436,4.436,0,0,0,4.373,4.031c2.142,0,3.2-1.53,3.2-3.689V90.313h2.52V89.162Zm-5.651,9.664a3.31,3.31,0,0,1-3.186-2.934c0-.882.54-1.422,2.016-1.422h3.078v1.782C110.321,97.782,109.745,98.826,108.413,98.826Zm15.821-8.513V89.162H112.608v1.152h5.309v2.358a3.632,3.632,0,0,0-3.4,3.689,3.269,3.269,0,0,0,3.131,3.329V98.556A2.241,2.241,0,0,1,115.7,96.27a2.826,2.826,0,0,1,5.615,0,2.241,2.241,0,0,1-1.943,2.286V99.69a3.282,3.282,0,0,0,3.131-3.329,3.633,3.633,0,0,0-3.4-3.689V90.313h5.129Zm5.1-1.152h-6.641v1.152h2.735v5.345h1.206V90.313h2.7V89.162Zm-3.221-2.214a0.792,0.792,0,0,0,.774-0.774,0.78,0.78,0,0,0-.774-0.774,0.753,0.753,0,0,0-.756.774A0.764,0.764,0,0,0,126.108,86.948Zm17.706,3.365V89.162H132.188v1.152H137.5v2.358a3.632,3.632,0,0,0-3.4,3.689,3.269,3.269,0,0,0,3.131,3.329V98.556a2.241,2.241,0,0,1-1.944-2.286,2.826,2.826,0,0,1,5.615,0,2.24,2.24,0,0,1-1.943,2.286V99.69a3.281,3.281,0,0,0,3.131-3.329,3.632,3.632,0,0,0-3.4-3.689V90.313h5.129Zm-5.829,11.446a5.288,5.288,0,0,1-2.844-.666v1.062a5.292,5.292,0,0,0,2.916.72,5.184,5.184,0,0,0,2.9-.72v-1.062A5.842,5.842,0,0,1,137.985,101.759Zm0,2.592a5.288,5.288,0,0,1-2.844-.666v1.062a5.292,5.292,0,0,0,2.916.72,5.184,5.184,0,0,0,2.9-.72v-1.062A5.842,5.842,0,0,1,137.985,104.351Zm0-16.539a2.322,2.322,0,1,0-2.321-2.322A2.351,2.351,0,0,0,137.984,87.812Zm0-1.062a1.269,1.269,0,1,1,1.26-1.26A1.23,1.23,0,0,1,137.984,86.75Zm27.947,2.411h-8.513v4.607h-1.727a3.506,3.506,0,0,0-1.26-2.645,3.567,3.567,0,0,0-3.275,1.656c0.18-1.1.018-2.9-1.17-3.617h-3.312v1.152h2.736c0.954,1.062.9,2.861-.4,5.7l1.188,0.558c1.529-3.1,2.573-4.193,3.653-4.3,1.062,1.134.936,2.3-.918,5.813l1.242,0.558a14.244,14.244,0,0,0,1.4-3.725h1.835v5.021h1.206V90.313h3.4v5.345h1.2V90.313h2.7V89.162Zm4.844,5.417h3.635V90.313h2.322V89.162H164.278v1.152h8.927v3.114h-2.43a4.749,4.749,0,0,0-4.769,3.329,4.983,4.983,0,0,0,4.913,3.348,5.374,5.374,0,0,0,4.013-1.494V97.368a5.177,5.177,0,0,1-3.815,1.6,4.065,4.065,0,0,1-3.851-2.214A3.538,3.538,0,0,1,170.775,94.579Zm2.431-5.381h1.17c0-2.214-1.08-2.861-2.628-3.131-0.7-.108-1.439-0.216-1.439-1.926h-1.17c0,2.807,1.872,2.969,2.591,3.1A1.682,1.682,0,0,1,173.206,89.2Zm13.624-.036H183.3v5.345h-3.834a5.057,5.057,0,0,0,.018-0.522,7.931,7.931,0,0,0-1.565-4.823H175.2v1.152h2.07a6.766,6.766,0,0,1,1.062,3.545c0,1.53-.81,2.573-1.818,4.193l1.386,0.63a15.7,15.7,0,0,0,1.349-3.023h4.05v4.283h1.205V90.313h2.322V89.162Zm-7-4.139,0.27,1.152a2.86,2.86,0,0,1,3.2,3.023h1.134A4.108,4.108,0,0,0,179.831,85.022Zm11.824,9.556h3.635V90.313h2.322V89.162H185.158v1.152h8.926v3.114h-2.429a4.748,4.748,0,0,0-4.769,3.329A4.982,4.982,0,0,0,191.8,100.1a5.374,5.374,0,0,0,4.013-1.494V97.368A5.179,5.179,0,0,1,192,98.97a4.064,4.064,0,0,1-3.851-2.214A3.537,3.537,0,0,1,191.655,94.579Zm21.127-5.417H200.328v1.152h9.179v1.836a6.734,6.734,0,0,1-.414,2.429,4.3,4.3,0,0,0-3.8-2.34,2.894,2.894,0,0,0-3.149,2.969c0,1.782,1.278,2.987,3.4,2.987a4.721,4.721,0,0,0,3.2-1.188,9.736,9.736,0,0,1,.162,1.854c0,0.378-.018.918-0.036,1.188h1.188c0-.36.018-0.792,0.018-1.152a10.031,10.031,0,0,0-.414-2.97,7.248,7.248,0,0,0,1.007-3.887l0.036-1.728h2.07V89.162Zm-7.163,7.883c-1.439,0-2.267-.7-2.267-1.836a1.818,1.818,0,0,1,2.051-1.818,3.2,3.2,0,0,1,3.006,2.358A3.479,3.479,0,0,1,205.619,97.044Zm17.207-7.883H211.2v1.152h7.883v3.005h-3.078c-2.339,0-3.275,1.152-3.275,2.609A4.436,4.436,0,0,0,217.1,99.96c2.142,0,3.2-1.53,3.2-3.689V90.313h2.52V89.162Zm-5.651,9.664a3.309,3.309,0,0,1-3.185-2.934c0-.882.539-1.422,2.015-1.422h3.078v1.782C219.083,97.782,218.507,98.826,217.175,98.826ZM219.1,89.2h1.17c0-2.214-1.08-2.861-2.628-3.131-0.7-.108-1.44-0.216-1.44-1.926h-1.169c0,2.807,1.871,2.969,2.591,3.1A1.682,1.682,0,0,1,219.1,89.2Zm7.739,0.2h-1.206V99.2h1.206V89.4Z"/>
</svg>
