<svg id="TC" xmlns="http://www.w3.org/2000/svg" width="320" height="50" viewBox="0 0 320 50">
  <defs>
    <style>
      .cls-1 {
        fill: #4c286c;
        fill-rule: evenodd;
      }
    </style>
  </defs>
  <g id="txt1">
    <path class="cls-1" d="M28.525,34.96H25.387v-6.22q-0.111.067-.834,0.568t-1.324.836l-0.289.156A16.155,16.155,0,0,0,21,27.492a14.324,14.324,0,0,0,4.228-2.341H21.271L21.248,22.41h6.008l0.245-.379H23.674V19.467h4.718l0.089-.334h-5.9V16.369H28.97a5.11,5.11,0,0,0,.067-0.691c0.015-.312.03-0.535,0.045-0.668l3.071,0.245-0.089,1.115H39.63l-0.022,2.764H31.618l-0.089.334h7.009v2.563H30.617l-0.245.379h10.57v2.742H37.271A16.055,16.055,0,0,0,38.9,26.244a13.488,13.488,0,0,0,2.359,1.092q-0.2.246-.7,0.97A14.556,14.556,0,0,0,39.5,30.167q-0.534-.29-1.58-0.992L36.8,28.428v6.554H33.732V34.224H28.525V34.96Zm0.49-9.809-0.534.558h5.274l-0.512-.558H29.015Zm4.718,3.076H28.525v0.535h5.207V28.228Zm0,2.965H28.525v0.535h5.207V31.193ZM48.7,34.559h-3V15.967H58.98V34.537l-3.071-.022V33.065l-7.211.022v1.471ZM55.91,18.932H48.7v4.057H55.91V18.932Zm0,6.91H48.7V30.1H55.91V25.843Z"/>
  </g>
</svg>
