<svg id="TC" xmlns="http://www.w3.org/2000/svg" width="320" height="50" viewBox="0 0 320 50">
  <defs>
    <style>
      .cls-1 {
        fill: #4c286c;
        fill-rule: evenodd;
      }
    </style>
  </defs>
  <g id="txt1">
    <path class="cls-1" d="M278.179,37.706q-0.022-.194-0.094-0.584t-0.095-.536l0.879-.125V35.146h-0.705v-0.91h0.705l0.008-.972H278.1V32.338h2.472v0.926h-0.69v0.972h0.644v0.91h-0.644v1.167l0.712-.117v0.9Zm5.588,0.14a0.776,0.776,0,0,0,.212-0.724,3.055,3.055,0,0,0,.827.467,2.582,2.582,0,0,1-.088.646,1.12,1.12,0,0,1-.235.5,0.423,0.423,0,0,1-.307.155h-1.114a0.623,0.623,0,0,1-.429-0.151,0.47,0.47,0,0,1-.17-0.361V36.531H282.19a5.8,5.8,0,0,1-.118.773,1.768,1.768,0,0,1-.2.487,2.584,2.584,0,0,1-.382.482,4.274,4.274,0,0,1-.733.432,3.084,3.084,0,0,1-.784.229,4.653,4.653,0,0,0-.583-0.987,2.868,2.868,0,0,0,.765-0.14,2.375,2.375,0,0,0,.629-0.292,0.783,0.783,0,0,0,.311-0.346,1.931,1.931,0,0,0,.129-0.637h-0.545v-4.3h3.426v4.3h-0.689l0.007,1.206a0.106,0.106,0,0,0,.128.109h0.213Zm-2.1-4.427h1.463V33.147h-1.463v0.273Zm0,1.073h1.463V34.22h-1.463v0.273Zm0,1.113h1.463V35.333h-1.463v0.273Zm4.534-1.346a0.135,0.135,0,0,0-.111-0.105,0.135,0.135,0,0,1-.109-0.113c0-.073.068-0.109,0.2-0.109h0.977v0.739l2.965,0.008,0.008-1.361L286,33.3V32.369h5.072v3.61h-0.94V35.644l-2.973-.007v1.937a0.189,0.189,0,0,0,.088.168,0.381,0.381,0,0,0,.216.058l2.676-.007a3.682,3.682,0,0,0,.458-0.02,0.606,0.606,0,0,0,.251-0.089,0.623,0.623,0,0,0,.193-0.21,8.222,8.222,0,0,0,.137-0.918,2.779,2.779,0,0,0,.94.435c0,0.021-.012.117-0.035,0.288s-0.048.324-.075,0.459a1.777,1.777,0,0,1-.114.366,1.269,1.269,0,0,1-.182.3,0.7,0.7,0,0,1-.284.2,1.562,1.562,0,0,1-.432.093q-0.288.032-.956,0.031h-3a0.958,0.958,0,0,1-.572-0.187,0.574,0.574,0,0,1-.262-0.49Zm7.764-1.922a0.124,0.124,0,0,0-.065-0.066,0.082,0.082,0,0,1-.033-0.145A0.158,0.158,0,0,1,294,32."/>
  </g>
</svg>
