<svg id="TC" xmlns="http://www.w3.org/2000/svg" width="320" height="50" viewBox="0 0 320 50">
  <defs>
    <style>
      .cls-1 {
        fill: #4c286c;
        fill-rule: evenodd;
      }
    </style>
  </defs>
  <g id="txt1">
    <path class="cls-1" d="M293.868,32.341a0.12,0.12,0,0,0-.065-0.066,0.118,0.118,0,0,1-.064-0.09,0.123,0.123,0,0,1,.03-0.055,0.163,0.163,0,0,1,.13-0.039h0.922v1.284h0.724v0.272q0.106-.179.255-0.486a10.252,10.252,0,0,0,.415-1.139l1.021,0.21a5.9,5.9,0,0,1-.263.587c-0.125.251-.2,0.416-0.239,0.494h0.67a6.666,6.666,0,0,0,.4-1.268l1.036,0.272c-0.011.021-.062,0.159-0.156,0.413a5.042,5.042,0,0,1-.24.568l1.234,0.016v1.011h-1.333v0.451l1.211,0.008v0.949h-1.211v0.451h1.211v0.965h-1.211v0.413h1.379v0.988H296.6v0.405h-1V35.289a0.252,0.252,0,0,0-.038.059,0.2,0.2,0,0,1-.076.074V35.9l-0.663.288V38.1a0.775,0.775,0,0,1-.29.638,2.805,2.805,0,0,1-1,.187,1.627,1.627,0,0,0-.389-1.058q0.054,0,.21.008c0.1,0,.185.006,0.243,0a0.863,0.863,0,0,0,.157-0.02,0.129,0.129,0,0,0,.08-0.05,0.131,0.131,0,0,0,.034-0.074V36.573q-0.153.055-.685,0.218l-0.214-1.159,0.9-.187v-1.1l-0.853-.008V33.376h0.853V32.341Zm1.212,2h-0.259V34.59Zm0.031,0.747a1.206,1.206,0,0,0-.29-0.249v0.342Zm2.247-.3V34.333H296.6v0.451h0.762Zm0,1.4V35.733H296.6v0.451h0.762Zm0,1.377V37.149H296.6v0.413h0.762ZM304.43,32.1v2.2h1.287V32.714a0.1,0.1,0,0,0-.076-0.074,0.1,0.1,0,0,1-.076-0.082c0-.057.045-0.086,0.136-0.086h1.045v3.05h-1.029V35.266H304.43v2.389l1.477-.008V35.919a0.1,0.1,0,0,0-.072-0.054,0.1,0.1,0,0,1-.072-0.086c0-.057.045-0.085,0.137-0.085l1.044-.008v3.26H305.9l0.007-.366h-3.97v0.35h-0.959V35.943a0.089,0.089,0,0,0-.072-0.074,0.1,0.1,0,0,1-.074-0.09c0-.062.054-0.093,0.161-0.093h0.944l-0.007,1.961h1.448V35.266l-1.235.008v0.241h-0.99l0.008-2.816a0.108,0.108,0,0,0-.077-0.066,0.1,0.1,0,0,1-.076-0.089,0.07,0.07,0,0,1,.042-0.062,0.19,0.19,0,0,1,.095-0.023h1V34.3h1.235V32.356a0.1,0.1,0,0,0-.027-0.062,0.111,0.111,0,0,0-.057-0.039,0.075,0.075,0,0,1-.076-0.07,0.086,0.086,0,0,1,.107-0.085h1.105Z"/>
  </g>
</svg>
