<svg id="TC" xmlns="http://www.w3.org/2000/svg" width="320" height="50" viewBox="0 0 320 50">
  <defs>
    <style>
      .cls-1 {
        fill: #4c286c;
        fill-rule: evenodd;
      }
    </style>
  </defs>
  <g id="txt1">
    <path class="cls-1" d="M278.185,37.855c-0.014-.118-0.046-0.3-0.093-0.532s-0.079-.4-0.094-0.489l0.871-.114v-1.2h-0.7v-0.83h0.7l0.008-.887H278.1V32.96h2.45V33.8h-0.684v0.887h0.639v0.83h-0.639v1.064l0.706-.106V37.3Zm5.537,0.128q0.165,0,.211-0.66a3.1,3.1,0,0,0,.819.425,2.194,2.194,0,0,1-.087.589,1,1,0,0,1-.233.454,0.436,0.436,0,0,1-.3.142h-1.1a0.649,0.649,0,0,1-.425-0.138,0.416,0.416,0,0,1-.169-0.33V36.784h-0.27a5.044,5.044,0,0,1-.117.706,1.554,1.554,0,0,1-.195.443,2.444,2.444,0,0,1-.38.44,4.32,4.32,0,0,1-.725.394,3.268,3.268,0,0,1-.777.209,4.165,4.165,0,0,0-.578-0.9,3.067,3.067,0,0,0,.758-0.128,2.483,2.483,0,0,0,.623-0.266,0.734,0.734,0,0,0,.308-0.316,1.647,1.647,0,0,0,.128-0.581h-0.54V32.861h3.395v3.923h-0.683l0.008,1.1a0.1,0.1,0,0,0,.126.1h0.211Zm-2.081-4.036h1.45V33.7h-1.45v0.248Zm0,0.979h1.45V34.677h-1.45v0.248Zm0,1.014h1.45V35.691h-1.45v0.248Zm4.493-1.227a0.13,0.13,0,0,0-.11-0.1,0.127,0.127,0,0,1-.108-0.1c0-.066.067-0.1,0.2-0.1h0.968v0.674l2.938,0.007,0.008-1.241-4.1-.014V32.989h5.026V36.28h-0.931V35.975l-2.946-.007v1.766a0.169,0.169,0,0,0,.087.153,0.4,0.4,0,0,0,.215.053l2.651-.007a3.989,3.989,0,0,0,.454-0.018,0.642,0.642,0,0,0,.249-0.081,0.583,0.583,0,0,0,.191-0.191,6.9,6.9,0,0,0,.136-0.837,2.853,2.853,0,0,0,.931.4c0,0.019-.012.106-0.034,0.262s-0.048.3-.075,0.418a1.622,1.622,0,0,1-.112.333,1.164,1.164,0,0,1-.181.27,0.7,0.7,0,0,1-.282.184,1.683,1.683,0,0,1-.428.085q-0.285.028-.947,0.029h-2.975a1,1,0,0,1-.566-0.17,0.513,0.513,0,0,1-.26-0.447Z"/>
  </g>
</svg>
