<svg id="TC" xmlns="http://www.w3.org/2000/svg" width="320" height="50" viewBox="0 0 320 50">
  <defs>
    <style>
      .cls-1 {
        fill: #4c286c;
        fill-rule: evenodd;
      }
    </style>
  </defs>
  <path id="txt2" class="cls-1" d="M21.763,11.429q-1.313.162-4.967,0.259l-0.721-1.2a45.963,45.963,0,0,0,6.1-.292,23.923,23.923,0,0,0,5.336-1.119L28.189,10a21.244,21.244,0,0,1-5.176,1.281v2.4h4.567v1.183H23.013v2.479l5.881-.016v1.183H23v3.873a1.081,1.081,0,0,1-1.137,1.3H19.649L19.2,22.351q1.6,0.145,2.019.13a0.627,0.627,0,0,0,.409-0.146,0.558,0.558,0,0,0,.136-0.42v-3.4H15.643l-0.017-1.167h6.137l0.017-2.479H16.973l-0.017-1.183h4.807V11.429ZM39.486,9.242L40.7,9.258q0,3.532.4,8.247h1.634a9.549,9.549,0,0,0-1.137-.858l0.608-.535-0.769.145-0.449-.972a12.39,12.39,0,0,0,1.731-2.171l-1.347.324-0.56-.924q0.512-.7,1.09-1.645a12.438,12.438,0,0,0,.865-1.645L43.8,9.906a13.321,13.321,0,0,1-1.41,2.155l1.026-.13q0.111-.162.689-1.15l0.945,0.551a15.764,15.764,0,0,1-2.435,3.581l1.09-.162L43.412,14.1l0.9-.421a8.928,8.928,0,0,1,.993,2.626l-1.042.389a4.164,4.164,0,0,0-.24-0.891L42.611,16q0.192,0.131.625,0.454a9.666,9.666,0,0,1,.929.81l-0.193.243h1.186V18.64H41.3a8.937,8.937,0,0,0,.594,1.718,16.15,16.15,0,0,0,1.939-1.573l0.8,0.778a21.361,21.361,0,0,1-2.1,1.734,4.5,4.5,0,0,0,.994.794,0.491,0.491,0,0,0,.384.056,0.335,0.335,0,0,0,.208-0.267l0.336-1.734,1.17,0.486a11.586,11.586,0,0,1-.609,2.058,1.221,1.221,0,0,1-.864.762,1.755,1.755,0,0,1-1.2-.292,7.069,7.069,0,0,1-1.458-1.2,13.539,13.539,0,0,1-1.755.793,13.872,13.872,0,0,1-2.043.583l-0.593-1.1a10.419,10.419,0,0,0,3.733-1.216A8.088,8.088,0,0,1,40.1,18.64H37.948l-0.1.616a8.593,8.593,0,0,1,2.195,1.393l-0.656.94a6.649,6.649,0,0,0-1.811-1.2,6.531,6.531,0,0,1-2.163,3l-0.881-.923a5.725,5.725,0,0,0,.978-0.908,4.824,4.824,0,0,0,.817-1.337,5.853,5.853,0,0,0,.417-1.579h-1.81V17.506h1.858V16.582H37.98v0.924h1.938l-0.08-.924-0.993.308-0.288-.874-2.356.356-0.48-.875a14.643,14.643,0,0,0,1.747-2.349l-1.33.308-0.4-.827v0.859H34.423v1.328l0.3-.292a9.614,9.614,0,0,1,1.506,2.236l-0.866.682a12.474,12.474,0,0,0-.945-1.654v7.891h-1.2V17.231a18.566,18.566,0,0,1-1.314,2.625l-1.105-.6a15.33,15.33,0,0,0,2.372-5.769H31.41V12.353l1.811,0.016V9.242h1.2v3.127h1.346a14.372,14.372,0,0,0,1.7-3.046l1.042,0.6a14.534,14.534,0,0,1-1.3,2.2l0.9-.162q0.336-.632.545-1.134l0.9,0.486Zm0.08,2.269a16.31,16.31,0,0,1-2.372,3.614l1.074-.146-0.321-.584,0.978-.437q0.223,0.454.465,1.1t0.368,1.119Q39.566,13.488,39.566,11.51Zm15.143,6.514c-0.086-.139-0.239-0.359-0.457-0.656a9.683,9.683,0,0,0-.785-0.924c-0.3-.318-0.543-0.554-0.713-0.705l0.9-.907a13.245,13.245,0,0,1,2.2,2.074ZM74.194,9.339a11.676,11.676,0,0,1-.241,2.8h3.06v1.183H76.245a17.369,17.369,0,0,1-1.395,6.32,7.923,7.923,0,0,0,1.082,1.709,8.3,8.3,0,0,0,1.546,1.467l-0.833.891a8.845,8.845,0,0,1-2.435-2.868,11.811,11.811,0,0,1-.986,1.467,10.6,10.6,0,0,1-1.338,1.369l-0.8-.826a7.407,7.407,0,0,0,1.225-1.191,12.68,12.68,0,0,0,1.307-2.018,20.433,20.433,0,0,1-1.009-3.728q-0.081.114-.281,0.43a4.641,4.641,0,0,1-.3.429l-0.641-.438v1.556H67.608L68.3,18.2l-0.241.437,4.311,0.016V19.79l-1.939-.016a4.4,4.4,0,0,1-1.218,1.6Q69.724,21.606,71,22.3l-0.673.988L69.9,23.039q-0.321-.187-0.93-0.5t-0.769-.4A10.766,10.766,0,0,1,63.57,23.7l-0.5-1.119a10.7,10.7,0,0,0,3.718-.891,9.1,9.1,0,0,0-2.355-.4q0.625-.616.937-0.941a3.7,3.7,0,0,0,.457-0.551H63.377l0.017-1.134,3.236-.016,0.481-.746H64.339V15.254h2.884V14.7l-2.9.016v-1.8H63.186l-0.017-1.1h1.154V10.2h2.9V9.129l1.2-.017L68.442,10.2h2.9l0.017,1.62h0.961v1.1H71.358l-0.017,1.8L68.425,14.7l0.017,0.551h2.948v0.34a7.555,7.555,0,0,0,1.3-2.844,17.136,17.136,0,0,0,.417-3.67Zm-8.7,1.879-0.016.6h1.746V11.234Zm-0.016,1.7,0.016,0.746,1.73,0.016V12.92H65.477Zm1.746,3.97,0.017-.648-1.731.016V16.89h1.715Zm0.882,4.019a3.966,3.966,0,0,0,1.009-1.119l-1.843-.016-0.625.745Zm2.1-7.989H68.442l-0.017.778,1.779-.017V12.92Zm0.032,3.338H68.425l0.017,0.632h1.795V16.258Zm-1.795-5.039v0.6H70.2v-0.6H68.442Zm5.287,2.091c-0.022.064-.071,0.213-0.152,0.445s-0.137.408-.168,0.527q0.063,0.307.192,1.118t0.249,1.337c0.08,0.351.154,0.643,0.225,0.875s0.13,0.423.184,0.575a21.12,21.12,0,0,0,.577-2.13,15.385,15.385,0,0,0,.289-2.747H73.729Zm8.509,9.042a1.228,1.228,0,0,1-.2.713,1.372,1.372,0,0,1-.665.47,2.019,2.019,0,0,1-.528.122q-0.273.024-.617,0.024H79.738l-0.513-1.166q0.706,0.047,1.378.048a0.382,0.382,0,0,0,.3-0.13,0.477,0.477,0,0,0,.113-0.324V18.283l-1.474.632-0.737-.94L81,17V13.552H79.353l-0.016-1.166H81.02L81,9.226h1.2l0.017,3.143h1.313v1.183h-1.3v2.916l1.33-.6v1.248l-1.346.6Zm9.246-7.487v0.973h-3.4a1.123,1.123,0,0,1-.633-0.211,1.06,1.06,0,0,1-.425-0.519,2.079,2.079,0,0,1-.1-0.6l-1.619.211L85.3,13.633l1.57-.13,0.017-.7H85.042L85.026,17.83a9.453,9.453,0,0,1-1.843,5.882l-1.042-.746a6.586,6.586,0,0,0,1.25-2.316,14.4,14.4,0,0,0,.432-4.084V11.624h3.045l0.017-2.431h1.2v0.875l3.67,0.016v0.972l-3.67.017v0.551h4.808a6.569,6.569,0,0,1-.137.8q-0.1.461-.553,1.806l-1.09-.259c0.011-.043.034-0.132,0.072-0.267s0.093-.31.168-0.526,0.117-.346.128-0.39H88.1v0.583l2.676-.259v1.021l-2.676.276a0.362,0.362,0,0,0,.417.437Zm1.09,7.762a3.679,3.679,0,0,1-1.923-2.658l-0.273.162a6.294,6.294,0,0,1,.193,2.212,1.358,1.358,0,0,1-.657,1.029,2.01,2.01,0,0,1-.625.2,4.364,4.364,0,0,1-.913.024C88,23.576,87.8,23.566,87.766,23.566l-0.4-1.134c0.171,0.011.483,0.056,0.938,0.138a1.919,1.919,0,0,0,1.033-.025,0.549,0.549,0,0,0,.2-0.291,3.1,3.1,0,0,0-.023-1.119,13.362,13.362,0,0,1-1.875,1.038,12.766,12.766,0,0,1-2.18.7l-0.7-.891a15.1,15.1,0,0,0,2.355-.64,8.151,8.151,0,0,0,2.115-1.223l-0.193-.405a10.44,10.44,0,0,1-1.81.908,13.678,13.678,0,0,1-1.683.5l-0.705-.908a15.127,15.127,0,0,0,2.083-.567,6.72,6.72,0,0,0,1.571-.794c-0.011-.011-0.048-0.056-0.112-0.137a0.8,0.8,0,0,0-.144-0.154,13.671,13.671,0,0,1-2.516.648l-0.642-.972a10.149,10.149,0,0,0,3.461-.924l-3.093-.032V16.226h7.115l-0.017,1.053L90.41,17.3a2.751,2.751,0,0,1-.224.186q-0.178.138-.994,0.608a5.293,5.293,0,0,1,.753.972,3.74,3.74,0,0,0,.913-0.568,7.37,7.37,0,0,0,.881-0.842l0.818,0.81c-0.086.108-.185,0.224-0.3,0.348a7.807,7.807,0,0,1-.665.607,3.394,3.394,0,0,0,.569,1.362,3.36,3.36,0,0,0,1.194,1.037Zm5.239-.064a12.247,12.247,0,0,0,4.583-2.3,12.409,12.409,0,0,1-1.715-2.2,14.719,14.719,0,0,1-1.233-2.6,16.131,16.131,0,0,1-.913,5.072A12.6,12.6,0,0,1,96.5,23.7c-0.171-.087-0.424-0.232-0.761-0.438s-0.515-.313-0.537-0.323a8,8,0,0,0,2.468-4.051q0.111-.5.233-1.345t0.216-2.657q0.111-2.058.064-3.5H96.035V10.149h10.207v1.069q-0.689,1.053-2.083,2.9h3.173a8.615,8.615,0,0,1-1.01,3.37,13.649,13.649,0,0,1-2.034,2.722,13.488,13.488,0,0,0,4.743,2.269l-0.753,1.167a14.535,14.535,0,0,1-4.952-2.545A11.873,11.873,0,0,1,98.6,23.647Zm1.731-10.435q0.192,0.679.512,1.62a26.767,26.767,0,0,0,1.122,2.625,9.8,9.8,0,0,0,.713,1.264,14.876,14.876,0,0,0,1.483,1.751,11.049,11.049,0,0,0,1.489-1.921,8.439,8.439,0,0,0,.994-2.13h-3.413V14.249q1.378-1.75,2.115-2.868H99.544v0.746Zm13.107,0.7v1.523l-1.2.017-0.015-2.723h5.8V11.056H112.25V9.89h11.2l-0.017,1.166h-4.983V11.64h5.736l0.017,2.592-1.218.017V12.823l-4.535.016V16.08h-1.218l0.016-3.257h-4.6Zm5.8,8.7a0.352,0.352,0,0,0,.128.276,0.624,0.624,0,0,0,.417.114h4.054a0.453,0.453,0,0,0,.36-0.187,1.143,1.143,0,0,0,.217-0.413q0.094-.421.24-1.442l1.153,0.389a5.994,5.994,0,0,1-.673,2.277,1.188,1.188,0,0,1-.993.56h-4.888a1.237,1.237,0,0,1-.768-0.22,1,1,0,0,1-.377-0.543,2.37,2.37,0,0,1-.088-0.615l0.016-.7-4.759.017V16.371l10.736,0.017v4.65l-4.775-.017v0.5Zm-1.7-7.161H113.02v-1.07h3.733v1.07Zm0.017,0.47-0.017,1.053h-3.717l-0.016-1.053h3.75Zm-3.077,2.739v0.567h3.557l-0.016-.584Zm3.541,2.285,0.016-.665h-3.557v0.665h3.541Zm4.775-1.718,0.017-.6-3.574.033v0.567h3.557Zm0.017,1.069-3.574-.016v0.665h3.557Zm-3.11-5.914h3.8v1.07l-3.782.016Zm3.782,1.54,0.016,1.053h-3.782V14.832H122.7Zm10.256,7.518a0.563,0.563,0,0,0,.473-0.219,0.867,0.867,0,0,0,.169-0.543V16.841h-6.137v-1.2H133.6l0.015-1.621a18.592,18.592,0,0,0,1.619-1.214,13.029,13.029,0,0,0,1.682-1.653h-7.483v-1.2l9.23,0.016v0.908a16.231,16.231,0,0,1-1.8,2.058,14.97,14.97,0,0,1-2.043,1.685v1.021h5.833v1.2h-5.833l-0.015,5.4a1.12,1.12,0,0,1-.233.672,1.4,1.4,0,0,1-.5.446,1.84,1.84,0,0,1-.785.162q-0.578.031-1.763,0L130.6,22.351h2.355Zm10.72,1.312V12.628h2.179V10.959h-3.06V9.777h8.493v1.183h-2.372v1.668H151V23.663h-1.267V22.48h-4.823v1.183h-1.234Zm5.112-5.736a1.283,1.283,0,0,1-.729-0.413,1.188,1.188,0,0,1-.36-0.866V13.86h-0.61a13.322,13.322,0,0,1-.313,2.478,5.46,5.46,0,0,1-.544,1.37,9.465,9.465,0,0,1-.665,1l-0.673-.389V19h4.839V17.927h-0.945Zm-3.894-4.067v3.694a5.8,5.8,0,0,0,.657-1.345,8.581,8.581,0,0,0,.3-2.349h-0.961Zm0.016,6.319V21.3h4.871V20.179h-4.871Zm2.789-7.5V10.959h-0.625v1.718H147.7Zm2.034,1.183h-0.865v2.689a0.784,0.784,0,0,0,.08.13,0.392,0.392,0,0,0,.152.114,0.639,0.639,0,0,0,.225.057,2.228,2.228,0,0,0,.256,0l0.152-.009V13.86Zm7.323,5.882q-0.065.632-.433,2.3a1.339,1.339,0,0,1-.352.64,1.162,1.162,0,0,1-.673.381h-2.339a1.191,1.191,0,0,1-.577-0.17,1.363,1.363,0,0,1-.513-0.535,1.4,1.4,0,0,1-.208-0.688V14.784h2.964V10.959h-3.3V9.777h4.5v7.065h-1.2V15.967h-1.7v5.59c0,0.259.2,0.389,0.609,0.389h1.329a0.471,0.471,0,0,0,.288-0.413,8.487,8.487,0,0,0,.249-1.239q0.12-.826.137-0.956ZM158.5,16.76a16.792,16.792,0,0,0,3.574-7.681l1.154,0.243A19.922,19.922,0,0,1,162.23,13V23.647L161,23.663V15.318q-0.434.7-1.458,2.188Zm4.327,1.151,0.016-1.232h4.454l0.016-3.208-2.162-.016a15.252,15.252,0,0,1-1.395,2.609L162.63,15.5A10.213,10.213,0,0,0,164,13.041a11.977,11.977,0,0,0,.682-2.828l1.105,0.357a7.792,7.792,0,0,1-.24,1.668l1.746-.016,0.016-3.208,1.282,0.016v3.192l3.318,0.016v1.231l-3.318-.016v3.224L173,16.663v1.231l-4.407.017-0.015,5.655h-1.283l0.016-5.655h-4.486Zm-145.93,10.6,4.775-.016a7.062,7.062,0,0,0,.208-1.248l1.17,0.259a8.476,8.476,0,0,1-.144,1h4.935V29.69H22.645l-0.24.778H26.78L26.8,31.635H21.908l-0.481.924h7.467l0.017,1.167H25.689A7.669,7.669,0,0,0,29.7,36.172l-0.656,1.1a8.077,8.077,0,0,1-1.186-.453,8.743,8.743,0,0,1-1.442-.827l-0.017,5.85-1.3-.017V40.855H19.729v1.037l-1.3-.017,0.017-6.125a10.332,10.332,0,0,1-1.258.81,9.284,9.284,0,0,1-1.354.632L15,36.2q0.706-.307,1.538-0.769a13.652,13.652,0,0,0,1.45-.916,6.211,6.211,0,0,0,.921-0.794h-3.06V32.543h4.086a5.665,5.665,0,0,0,.608-0.908H18l-0.016-1.166h3.093a6.673,6.673,0,0,0,.336-0.778l-4.518-.016V28.507Zm8.092,6.32a5.918,5.918,0,0,1-.866-1.1l-3.509.017a12.146,12.146,0,0,1-.978,1.085h5.353Zm0.1,2.35V35.994l-5.352.016v1.167h5.352Zm-5.352,1.15v1.345h5.352L25.1,38.327H19.729ZM42.852,28.7V41.261l-1.282-.017-0.017-1.539H35.288v1.62l-1.266-.016L34.038,28.7h8.814ZM35.3,33.515l6.265-.016V29.9H35.288ZM41.585,34.7h-6.3L35.3,38.505h6.265Zm9.47-2.058A6.155,6.155,0,0,1,52.089,33.9a3.287,3.287,0,0,1,.457,1.256,3.939,3.939,0,0,1-.032,1.223,2.106,2.106,0,0,1-.5.972,1.906,1.906,0,0,1-.866.616,3.018,3.018,0,0,1-1.554.048l-0.288-1.345c0.513,0.108.825,0.17,0.938,0.186a1.2,1.2,0,0,0,.312.009,0.93,0.93,0,0,0,.433-0.162,1.064,1.064,0,0,0,.328-0.51,1.682,1.682,0,0,0,.009-0.883,4.749,4.749,0,0,0-1.635-2.464q1.09-2.559,1.41-3.613l-2-.017V41.86l-1.185.033L47.9,28.022h4.5v1.2Zm9.422,9.172a6.359,6.359,0,0,1-2.372-1.685,7.879,7.879,0,0,1-1.6-2.479,9.323,9.323,0,0,1-.577-2.592l-1.667.016-0.016,4.878q0.352-.178,1.338-0.568t1.13-.454v1.232l-3.43,1.523q-0.032-.016-0.408-0.317t-0.6-.493a1.781,1.781,0,0,0,.545-0.421,1.054,1.054,0,0,0,.225-0.713V28.07H59.82l0.017,6.952-2.708.016a11.962,11.962,0,0,0,.232,1.3,5.686,5.686,0,0,0,.393,1.037L60.077,35.3,60.99,36.14q-0.257.243-.793,0.721t-1.931,1.515a4.98,4.98,0,0,0,1.225,1.4,6.739,6.739,0,0,0,1.723,1.013ZM54.26,30.906h4.358V29.237H54.26v1.668ZM58.6,32.073l-4.342.016v1.783l4.31-.033Zm14.533,8.945a11.348,11.348,0,0,1-3.085-.178,6.555,6.555,0,0,1-2.716-1.086l-1.122-.924a8.56,8.56,0,0,1-2.451,3.063,6.641,6.641,0,0,1-.537-0.535Q62.9,41,62.769,40.872a7.243,7.243,0,0,0,.985-0.754,5.584,5.584,0,0,0,.978-1.167,4.706,4.706,0,0,0,.617-1.4,14.6,14.6,0,0,0,.3-2.868H66.9a18.047,18.047,0,0,1-.273,2.868,7.922,7.922,0,0,0,.953.9,6.385,6.385,0,0,0,1.09.738,3.4,3.4,0,0,0,.826.323L69.531,33.4h-4.1l0.032-1.167,9.374-.033v1.2l-4.1.016-0.049,2.4,5-.017v1.183L70.733,37v2.722l2.051,0.065h4.6l-0.625,1.231H73.136ZM69.13,27.131a8.666,8.666,0,0,1,1.2.8,11.214,11.214,0,0,1,1.105.964l-0.384.259,5.512,0.032-0.016,3.225H75.315l0.032-1.993-10.319-.033v1.929H63.794l0.017-3.128H70a7.486,7.486,0,0,0-1.955-1.425ZM80.8,41.99V34.1a9.149,9.149,0,0,1-1.17,1.54l-1.09-.713a12.379,12.379,0,0,0,2.1-3.314,20.922,20.922,0,0,0,1.41-4.335L83.151,27.7q-0.176.763-.529,1.929T82,31.554V41.99H80.8Zm5.576-4.667a2.482,2.482,0,0,1-.176.39l4.824,0.016V38.6a11.7,11.7,0,0,1-.921.924,5.054,5.054,0,0,1-.906.68,8.782,8.782,0,0,0,1.843.437,11.991,11.991,0,0,0,2.307.13L92.749,41.86a12.414,12.414,0,0,1-4.775-1,13.569,13.569,0,0,1-5.048,1.069l-0.513-1.085a12.187,12.187,0,0,0,4.375-.649,5.106,5.106,0,0,1-1.394-1.361,6.218,6.218,0,0,1-.986.8,5.6,5.6,0,0,1-.9.446l-0.785-.81a4.667,4.667,0,0,0,2.772-2.447L85.827,37l-0.128-.34a2.8,2.8,0,0,1-.048-0.673c0-.351-0.006-0.581-0.016-0.689l0.929-.016v0.777a0.293,0.293,0,0,0,.072.268,0.349,0.349,0,0,0,.28.122h2.052a0.307,0.307,0,0,0,.28-0.139,0.79,0.79,0,0,0,.112-0.34c0.016-.134.029-0.283,0.04-0.445l0.48,0.162,1.026-.5a2.078,2.078,0,0,1,.529.373V34.925h-3.4a3.626,3.626,0,0,1,1.09.745l-0.833.649c-0.085-.065-0.24-0.181-0.465-0.349s-0.438-.315-0.641-0.445a3.089,3.089,0,0,0-.705-0.325l0.3-.275-2.9.016V35.9H82.734v-2.01h1.2V29.675H87l0.241-.454H83.071V28.184h9.935v1.037l-4.6-.016-0.144.47h3.076v4.213h1.267l-0.017,1.863h-0.9a6.479,6.479,0,0,1,.9,1.15l-0.833.584a5.005,5.005,0,0,0-1.538-1.523,1.933,1.933,0,0,1-.392.972,0.99,0.99,0,0,1-.809.389H86.372Zm-0.929-1.442a5.406,5.406,0,0,1-1.907,1.7l-0.817-.892a5.469,5.469,0,0,0,.9-0.486,5.052,5.052,0,0,0,1.018-.94Zm-0.3-4.716,5.015,0.017v-0.47L85.138,30.7v0.47Zm0,0.891v0.471h5.015V32.056H85.138Zm5.015,1.832V33.434H85.138v0.454h5.015Zm-3.461,4.845a1.723,1.723,0,0,0,.336.315q0.208,0.154.512,0.357c0.2,0.135.336,0.225,0.4,0.267,0.117-.043.241-0.092,0.369-0.145a3.1,3.1,0,0,0,.392-0.2q0.2-.122.465-0.308c0.177-.125.3-0.209,0.361-0.251Zm8.06,0.907a6.367,6.367,0,0,0,3.269-2.026q0.69,0.519.866,0.681a5.361,5.361,0,0,1-1.37,1.395,6.878,6.878,0,0,1-1.818.94Zm6.714-4.618-4.229.016v-4.91l4.229,0.016V29.593l-6.249-.016,0.017-1.167h6.232V27.1H102.7v1.3l6.265,0.016v1.167H102.7v0.567l4.278,0.016-0.016,4.862h-0.336a6.617,6.617,0,0,1,2.179,1.993l-1.074.713a7.136,7.136,0,0,0-.738-0.939q-2.226.1-5.111,0.1,0.08,0.049.425,0.251c0.229,0.136.443,0.273,0.64,0.413a3.443,3.443,0,0,1,.562.5,5.253,5.253,0,0,1,.416.51c0.1,0.145.168,0.245,0.2,0.3l-1.042.713a5.4,5.4,0,0,0-2.339-2.058l0.833-.567q-3.141.033-5.785,0.113l-0.657-1.247q1.09,0.016,6.329-.033V35.022Zm0-3.1V31.295H98.487v0.632h2.979Zm0,1.151H98.487v0.762h2.979V33.078Zm-0.993,4.505v2.026a0.556,0.556,0,0,0,.136.275,0.592,0.592,0,0,0,.265.195h3.156a0.922,0.922,0,0,0,.217-0.114,0.553,0.553,0,0,0,.192-0.267,3.605,3.605,0,0,0,.145-0.632,4.467,4.467,0,0,1,.135-0.64,10.212,10.212,0,0,1,1.154.486q-0.032.13-.1,0.51c-0.048.254-.094,0.454-0.136,0.6a3.027,3.027,0,0,1-.168.438,1.474,1.474,0,0,1-.281.4,1.273,1.273,0,0,1-.4.276,4.617,4.617,0,0,1-1.634.113h-2.58a1.413,1.413,0,0,1-.737-0.323,1.864,1.864,0,0,1-.513-0.649,3.968,3.968,0,0,1-.128-0.94V37.583h1.282Zm5.047-1.913a4.439,4.439,0,0,1-.785-0.373l0.4-.242-2.435-.033-0.017.7ZM102.7,31.926h3.012V31.295H102.7v0.632Zm0.015,1.913h2.98V33.094h-2.98v0.746Zm5.721,7.13a6.962,6.962,0,0,0-2.917-2.528l0.914-.7a6.808,6.808,0,0,1,1.835,1.1,6.4,6.4,0,0,1,1.177,1.377Zm6.506-13.206q-0.064.323-.176,0.753t-0.273.908q-0.16.478-.377,1.021c-0.144.362-.222,0.565-0.232,0.608L113.9,41.941h-1.218V33.466a6.144,6.144,0,0,1-.5.729q-0.371.487-.8,0.956l-0.994-.875a12.473,12.473,0,0,0,2.163-3.046,15.119,15.119,0,0,0,1.33-3.808Zm4.438,12.7a10.947,10.947,0,0,1-4.2,1.49l-0.609-1.166a9.7,9.7,0,0,0,4.134-1.134Zm4.952-10.6,0.015,3.062-9.214.017-0.015-3.079H117.8v-0.6H114.91v-1.1H125.1v1.1l-3.444-.016v0.632Zm-8.574,9.689V33.451h7.932l-0.016,6.108h-7.916Zm0.594-7.632h1.426l0.016-.972-1.459-.016Zm0.608,3.177h5.512V34.487h-5.5Zm5.512,1.653v-0.6l-5.512-.017v0.616h5.512Zm0,1.766v-0.7h-5.5v0.7h5.5Zm-3.492-8.653h1.474V29.253l-1.474.016v0.6Zm0,1.085v0.972h1.489V30.938Zm5.5,10.987a10.993,10.993,0,0,0-4.262-1.248l0.625-1a12.377,12.377,0,0,1,4.31,1.183Zm-2.819-10.987v0.972h1.474V30.938Z"/>
</svg>
