<svg id="Frame_3" data-name="Frame 3" xmlns="http://www.w3.org/2000/svg" width="300" height="250" viewBox="0 0 300 250">
  <defs>
    <style>
      .cls-1 {
        fill: #58595b;
      }

      .cls-1, .cls-2 {
        fill-rule: evenodd;
      }

      .cls-2 {
        fill: none;
        stroke: #000;
        stroke-width: 1px;
      }
    </style>
  </defs>
  <path id="_Conditions_apply._" data-name="*Conditions apply. " class="cls-1" d="M7.686,240.792l0.637-.869,0.637,0.869,0.406-.322-0.644-.883,1.023-.336-0.168-.483-0.995.322v-1.065H8.064v1.065l-0.995-.322-0.168.483,1.03,0.336-0.644.883Zm4.905,2.332A2.111,2.111,0,0,0,14.8,241.17H14.055a1.419,1.419,0,0,1-1.464,1.289c-0.953,0-1.576-.722-1.576-1.94s0.623-1.94,1.576-1.94a1.374,1.374,0,0,1,1.429,1.1h0.756a2.084,2.084,0,0,0-2.185-1.765A2.619,2.619,0,0,0,12.591,243.124Zm3.259-.519a1.631,1.631,0,0,0,1.232.489,1.783,1.783,0,0,0,.877-0.222,1.486,1.486,0,0,0,.612-0.624,2.4,2.4,0,0,0,.21-1.1,1.867,1.867,0,0,0-.475-1.356,1.632,1.632,0,0,0-1.224-.49,1.688,1.688,0,0,0-1.142.4,1.872,1.872,0,0,0-.561,1.494A1.952,1.952,0,0,0,15.851,242.605Zm0.466-2.451a1.014,1.014,0,0,1,1.526,0,1.5,1.5,0,0,1,.306,1.02,1.581,1.581,0,0,1-.3,1.063,1.013,1.013,0,0,1-1.528,0A1.942,1.942,0,0,1,16.317,240.154Zm5.087-.84a1.339,1.339,0,0,0-1.135.623V239.4H19.6v3.614h0.7v-2.038a0.937,0.937,0,0,1,.91-1.044,0.674,0.674,0,0,1,.764.757v2.325h0.7v-2.423A1.159,1.159,0,0,0,21.4,239.314Zm4.86-1.289v1.863a1.373,1.373,0,0,0-1.17-.574,1.908,1.908,0,0,0,0,3.782,1.38,1.38,0,0,0,1.2-.616v0.532h0.672v-4.987h-0.7Zm-1.037,4.469a1.068,1.068,0,0,1-1.058-1.261,1.117,1.117,0,0,1,1.058-1.317A1.314,1.314,0,0,1,25.227,242.494Zm2.673-3.607h0.714v-0.75H27.9v0.75Zm0.007,4.125h0.7V239.4h-0.7v3.614Zm3.315-3.04V239.4H30.494v-1.037h-0.7V239.4H29.212v0.574h0.581v2.234a0.8,0.8,0,0,0,1,.827c0.126,0,.273-0.007.427-0.021v-0.56H30.907c-0.308,0-.413-0.1-0.413-0.309v-2.171h0.728Zm0.668-1.085H32.6v-0.75H31.89v0.75Zm0.007,4.125h0.7V239.4H31.9v3.614Zm1.933-.407a1.631,1.631,0,0,0,1.232.489,1.783,1.783,0,0,0,.877-0.222,1.487,1.487,0,0,0,.612-0.624,2.4,2.4,0,0,0,.21-1.1,1.867,1.867,0,0,0-.475-1.356,1.632,1.632,0,0,0-1.224-.49,1.688,1.688,0,0,0-1.142.4,1.872,1.872,0,0,0-.561,1.494A1.952,1.952,0,0,0,33.83,242.605Zm0.466-2.451a1.014,1.014,0,0,1,1.526,0,1.5,1.5,0,0,1,.306,1.02,1.581,1.581,0,0,1-.3,1.063,1.013,1.013,0,0,1-1.528,0A1.942,1.942,0,0,1,34.3,240.154Zm5.086-.84a1.339,1.339,0,0,0-1.135.623V239.4H37.576v3.614h0.7v-2.038a0.937,0.937,0,0,1,.911-1.044,0.674,0.674,0,0,1,.763.757v2.325h0.7v-2.423A1.159,1.159,0,0,0,39.382,239.314ZM42.94,243.1c0.946,0,1.513-.4,1.513-1.107,0-.6-0.371-0.91-1.254-1.078l-0.378-.063c-0.427-.084-0.672-0.2-0.672-0.512s0.245-.483.7-0.483a0.68,0.68,0,0,1,.847.666h0.679c-0.021-.764-0.5-1.212-1.527-1.212a1.155,1.155,0,0,0-1.394,1.05,1.114,1.114,0,0,0,1.149,1.079l0.371,0.07c0.6,0.1.77,0.245,0.77,0.532,0,0.323-.231.505-0.8,0.505a0.715,0.715,0,0,1-.89-0.687h-0.7A1.313,1.313,0,0,0,42.94,243.1Zm6.27-.63a0.167,0.167,0,0,1-.2-0.182v-1.913c0-.63-0.392-1.064-1.429-1.064a1.261,1.261,0,0,0-1.534,1.212h0.693c0.035-.491.273-0.652,0.84-0.652s0.742,0.182.742,0.519a0.472,0.472,0,0,1-.539.455l-0.532.056c-1.009.1-1.359,0.539-1.359,1.12a1.1,1.1,0,0,0,1.289,1.072,1.319,1.319,0,0,0,1.177-.574,0.578,0.578,0,0,0,.7.511,2.737,2.737,0,0,0,.343-0.021v-0.539h-0.2Zm-1.919.077A0.558,0.558,0,0,1,46.619,242c0-.322.175-0.525,0.756-0.595l0.5-.056a0.848,0.848,0,0,0,.448-0.147v0.378A0.949,0.949,0,0,1,47.291,242.55Zm4.629-3.236a1.364,1.364,0,0,0-1.2.63V239.4H50.043v4.987h0.7v-1.877a1.371,1.371,0,0,0,1.177.588A1.908,1.908,0,0,0,51.92,239.314Zm-0.133,3.18a1.314,1.314,0,0,1,0-2.578,1.067,1.067,0,0,1,1.057,1.261A1.117,1.117,0,0,1,51.787,242.494Zm4.439-3.18a1.364,1.364,0,0,0-1.2.63V239.4H54.349v4.987h0.7v-1.877a1.37,1.37,0,0,0,1.177.588A1.908,1.908,0,0,0,56.226,239.314Zm-0.133,3.18a1.314,1.314,0,0,1,0-2.578,1.067,1.067,0,0,1,1.058,1.261A1.117,1.117,0,0,1,56.093,242.494Zm2.568,0.518h0.7v-4.987h-0.7v4.987Zm3.957-3.614-0.42,1.24c-0.189.574-.371,1.155-0.546,1.73-0.168-.575-0.35-1.156-0.539-1.73l-0.42-1.24H59.929l1.338,3.712c-0.035.091-.07,0.189-0.1,0.273a0.6,0.6,0,0,1-.63.434h-0.35v0.568a2.919,2.919,0,0,0,.364.021,1.2,1.2,0,0,0,1.338-.939l1.471-4.069H62.618Zm0.937,3.614H64.4v-0.834H63.555v0.834Z"/>
  <path id="Rectangle" class="cls-2" d="M0.5,0.5h299v249H0.5V0.5Z"/>
</svg>
