<svg id="HING" xmlns="http://www.w3.org/2000/svg" width="300" height="250" viewBox="0 0 300 250">
  <defs>
    <style>
      .cls-1 {
        fill: #fffffe;
        fill-rule: evenodd;
      }
    </style>
  </defs>
  <path id="_On_a_2-year_term._Conditions_apply._" data-name="*On a 2-year term. Conditions apply. " class="cls-1" d="M79.667,229.018l0.7-1.041,0.7,1.041,0.492-.341-0.783-.984,1.183-.374-0.217-.542-1.125.467,0.042-1.192H80.067l0.042,1.192-1.125-.467-0.217.542,1.183,0.374-0.808.984ZM86,232.126a3.106,3.106,0,1,0-2.8-3.108A2.831,2.831,0,0,0,86,232.126Zm0.008-.692c-1.183,0-2.016-.941-2.016-2.416a2.041,2.041,0,1,1,4.024,0C88.016,230.509,87.2,231.434,86.008,231.434Zm6.2-3.857a1.638,1.638,0,0,0-1.441.716v-0.608H90.051v4.3h0.766v-2.391a1.18,1.18,0,0,1,1.225-1.35,0.783,0.783,0,0,1,.858.908v2.833h0.766V229A1.323,1.323,0,0,0,92.208,227.577Zm8.916,3.841a0.309,0.309,0,0,1-.374-0.375v-2.116c0-.942-0.617-1.375-1.683-1.375a1.5,1.5,0,0,0-1.791,1.4h0.758a0.788,0.788,0,0,1,.975-0.767c0.667,0,.966.217,0.966,0.667v0.183a0.3,0.3,0,0,1-.308.325l-1.1.141a1.364,1.364,0,0,0-1.466,1.342,1.253,1.253,0,0,0,1.441,1.249,1.825,1.825,0,0,0,1.558-.741,0.64,0.64,0,0,0,.741.633h0.408v-0.566h-0.125Zm-2.441.083a0.707,0.707,0,0,1-.825-0.692,0.774,0.774,0,0,1,.833-0.741l1.283-.192v0.6A1.208,1.208,0,0,1,98.683,231.5Zm5.751,0.483h3.94v-0.7h-2.991c0.05-.45.3-0.708,1.158-1.249l0.742-.467a2.07,2.07,0,0,0,1.125-1.816,1.734,1.734,0,0,0-1.9-1.766,1.841,1.841,0,0,0-1.958,1.974v0.125h0.775v-0.092a1.122,1.122,0,0,1,1.166-1.316,1.038,1.038,0,0,1,1.142,1.108,1.382,1.382,0,0,1-.808,1.233l-1.033.642A2.652,2.652,0,0,0,104.434,231.984Zm5.108-1.733h2.333V229.56h-2.333v0.691Zm6.282-2.566-1.241,3.483-0.092-.517-1.116-2.966h-0.833l1.733,4.257-0.2.525a0.666,0.666,0,0,1-.717.575h-0.4v0.642h0.474a1.1,1.1,0,0,0,1.183-.858l2-5.141h-0.792Zm5.284,2.05a1.91,1.91,0,0,0-1.967-2.15,1.994,1.994,0,0,0-2.024,2.233,2.029,2.029,0,0,0,2.041,2.266,1.888,1.888,0,0,0,1.916-1.4l-0.7-.083a1.159,1.159,0,0,1-1.191.858,1.264,1.264,0,0,1-1.3-1.441h3.225v-0.283Zm-1.958-1.525a1.225,1.225,0,0,1,1.241,1.258h-2.5A1.218,1.218,0,0,1,119.15,228.21Zm6.874,3.208a0.309,0.309,0,0,1-.375-0.375v-2.116c0-.942-0.616-1.375-1.683-1.375a1.5,1.5,0,0,0-1.791,1.4h0.758a0.789,0.789,0,0,1,.975-0.767c0.667,0,.966.217,0.966,0.667v0.183a0.3,0.3,0,0,1-.308.325l-1.1.141A1.364,1.364,0,0,0,122,230.843a1.253,1.253,0,0,0,1.441,1.249,1.823,1.823,0,0,0,1.558-.741,0.642,0.642,0,0,0,.742.633h0.408v-0.566h-0.125Zm-2.441.083a0.708,0.708,0,0,1-.825-0.692,0.775,0.775,0,0,1,.833-0.741l1.283-.192v0.6A1.207,1.207,0,0,1,123.583,231.5Zm5.558-3.932a1.486,1.486,0,0,0-1.4.983v-0.867h-0.717v4.3h0.767v-2.349a1.273,1.273,0,0,1,1.233-1.317,2.7,2.7,0,0,1,.274.009v-0.75A0.994,0.994,0,0,0,129.141,227.569Zm4.359,0.674,0.983,0.034v-0.592l-0.983.033v-1.349h-0.767v1.341l-0.641-.025v0.592l0.641-.034v2.783a0.826,0.826,0,0,0,.958.958h0.783v-0.641h-0.558a0.342,0.342,0,0,1-.416-0.417v-2.683Zm5.682,1.492a1.909,1.909,0,0,0-1.966-2.15,1.994,1.994,0,0,0-2.024,2.233,2.029,2.029,0,0,0,2.041,2.266,1.889,1.889,0,0,0,1.916-1.4l-0.7-.083a1.16,1.16,0,0,1-1.191.858,1.264,1.264,0,0,1-1.3-1.441h3.224v-0.283Zm-1.958-1.525a1.226,1.226,0,0,1,1.242,1.258h-2.5A1.218,1.218,0,0,1,137.224,228.21Zm5.2-.641a1.487,1.487,0,0,0-1.4.983v-0.867h-0.717v4.3h0.767v-2.349a1.273,1.273,0,0,1,1.233-1.317,2.727,2.727,0,0,1,.275.009v-0.75A1,1,0,0,0,142.424,227.569Zm5.558,0.008a1.455,1.455,0,0,0-1.366.75,1.174,1.174,0,0,0-1.192-.75,1.43,1.43,0,0,0-1.308.741l0.034-.633h-0.734v4.3h0.767v-2.291c0-1.108.55-1.45,1.05-1.45a0.7,0.7,0,0,1,.741.8v2.941h0.767v-2.333c0-1.108.549-1.408,1.049-1.408a0.705,0.705,0,0,1,.742.8v2.941H149.3v-2.949A1.233,1.233,0,0,0,147.982,227.577Zm2.734,4.407h0.942v-0.841h-0.942v0.841Zm7.2,0.142a2.427,2.427,0,0,0,2.507-2.3h-0.766a1.642,1.642,0,0,1-1.716,1.608c-1.208,0-1.917-.933-1.917-2.416s0.717-2.383,1.917-2.383a1.537,1.537,0,0,1,1.616,1.208h0.791a2.323,2.323,0,0,0-2.441-1.9c-1.633,0-2.674,1.258-2.674,3.074C155.233,230.818,156.249,232.126,157.916,232.126Zm5.408-.034A2.1,2.1,0,0,0,165.4,229.8a2.023,2.023,0,0,0-2.05-2.224A2.265,2.265,0,0,0,163.324,232.092Zm0-.641a1.655,1.655,0,0,1,0-3.233,1.345,1.345,0,0,1,1.308,1.583A1.4,1.4,0,0,1,163.324,231.451Zm5.358-3.874a1.637,1.637,0,0,0-1.441.716v-0.608h-0.717v4.3h0.767v-2.391a1.18,1.18,0,0,1,1.225-1.35,0.782,0.782,0,0,1,.858.908v2.833h0.766V229A1.323,1.323,0,0,0,168.682,227.577Zm5.742-1.525v2.15a1.577,1.577,0,0,0-1.3-.608,1.937,1.937,0,0,0-1.858,2.174c0,1.333.708,2.308,1.875,2.308a1.572,1.572,0,0,0,1.383-.775v0.683h0.666v-5.932h-0.766Zm-1.208,5.366c-0.742,0-1.183-.65-1.183-1.65a1.259,1.259,0,0,1,1.2-1.516,1.291,1.291,0,0,1,1.233,1.533A1.4,1.4,0,0,1,173.216,231.418Zm3.35-4.541h0.766v-0.825h-0.766v0.825Zm0,5.107h0.766v-4.3h-0.766v4.3Zm3.216-3.741,0.983,0.034v-0.592l-0.983.033v-1.349h-0.766v1.341l-0.642-.025v0.592l0.642-.034v2.783a0.826,0.826,0,0,0,.958.958h0.783v-0.641H180.2a0.343,0.343,0,0,1-.417-0.417v-2.683Zm1.942-1.366h0.767v-0.825h-0.767v0.825Zm0,5.107h0.767v-4.3h-0.767v4.3Zm3.958,0.108a2.1,2.1,0,0,0,2.075-2.291,2.023,2.023,0,0,0-2.05-2.224A2.265,2.265,0,0,0,185.682,232.092Zm0-.641a1.655,1.655,0,0,1,0-3.233,1.345,1.345,0,0,1,1.308,1.583A1.4,1.4,0,0,1,185.682,231.451Zm5.358-3.874a1.638,1.638,0,0,0-1.441.716v-0.608h-0.717v4.3h0.767v-2.391a1.18,1.18,0,0,1,1.225-1.35,0.782,0.782,0,0,1,.858.908v2.833H192.5V229A1.323,1.323,0,0,0,191.04,227.577Zm4.292,4.515c1.133,0,1.791-.516,1.791-1.358a1.259,1.259,0,0,0-1.258-1.216l-0.833-.183c-0.508-.109-0.666-0.3-0.666-0.575,0-.383.325-0.567,0.866-0.567a0.872,0.872,0,0,1,1.017.742h0.758a1.526,1.526,0,0,0-1.75-1.35c-1.058,0-1.6.492-1.6,1.242a1.193,1.193,0,0,0,1.192,1.166l0.866,0.183a0.661,0.661,0,0,1,.675.625c0,0.408-.325.675-1.025,0.675a0.921,0.921,0,0,1-1.091-.85h-0.733A1.548,1.548,0,0,0,195.332,232.092Zm8.874-.674a0.309,0.309,0,0,1-.375-0.375v-2.116c0-.942-0.616-1.375-1.683-1.375a1.5,1.5,0,0,0-1.791,1.4h0.758a0.789,0.789,0,0,1,.975-0.767c0.667,0,.967.217,0.967,0.667v0.183a0.3,0.3,0,0,1-.309.325l-1.1.141a1.364,1.364,0,0,0-1.467,1.342,1.254,1.254,0,0,0,1.442,1.249,1.825,1.825,0,0,0,1.558-.741,0.64,0.64,0,0,0,.741.633h0.408v-0.566h-0.125Zm-2.441.083a0.708,0.708,0,0,1-.825-0.692,0.775,0.775,0,0,1,.834-0.741l1.283-.192v0.6A1.208,1.208,0,0,1,201.765,231.5Zm5.517-3.907a1.548,1.548,0,0,0-1.408.783v-0.692h-0.667v6h0.767v-2.225a1.565,1.565,0,0,0,1.274.617c1.167,0,1.883-1.008,1.883-2.341A1.9,1.9,0,0,0,207.282,227.594Zm-0.109,3.824a1.391,1.391,0,0,1-1.241-1.633,1.3,1.3,0,0,1,1.241-1.533,1.225,1.225,0,0,1,1.192,1.483C208.365,230.734,207.915,231.418,207.173,231.418Zm5.159-3.824a1.548,1.548,0,0,0-1.408.783v-0.692h-0.667v6h0.767v-2.225a1.565,1.565,0,0,0,1.274.617c1.167,0,1.883-1.008,1.883-2.341A1.9,1.9,0,0,0,212.332,227.594Zm-0.109,3.824a1.391,1.391,0,0,1-1.241-1.633,1.3,1.3,0,0,1,1.241-1.533,1.225,1.225,0,0,1,1.192,1.483C213.415,230.734,212.965,231.418,212.223,231.418Zm3.084,0.566h0.767v-5.932h-0.767v5.932Zm4.966-4.3-1.241,3.483-0.092-.517-1.116-2.966h-0.833l1.732,4.257-0.2.525a0.666,0.666,0,0,1-.717.575h-0.4v0.642h0.475a1.1,1.1,0,0,0,1.183-.858l2-5.141h-0.792Zm0.834,4.3h0.942v-0.841h-0.942v0.841Z"/>
</svg>
