<svg id="Frame_1" data-name="Frame 1" xmlns="http://www.w3.org/2000/svg" width="300" height="250" viewBox="0 0 300 250">
  <defs>
    <style>
      .cls-1 {
        fill: #fff;
        fill-rule: evenodd;
      }
    </style>
  </defs>
  <path id="Apne_ghar_ko_rakhein_cozy_aur_bright_with_more_energy_efficienc" data-name="Apne ghar ko rakhein cozy aur bright with more energy efficienc" class="cls-1" d="M28.179,72.54h1.513L24.8,60.438H23.2l-4.83,12.1h1.5l1.395-3.518h5.507Zm-6.406-4.812,0.051-.136c0.527-1.326,1.463-3.739,2.16-5.608,0.73,1.87,1.681,4.284,2.208,5.592L26.26,67.73H21.773Zm13.434-4.161A3.448,3.448,0,0,0,32.2,65.131v-1.36H30.907l0,12.1h1.36V71.283a3.445,3.445,0,0,0,2.94,1.463c2.465,0,4.08-1.784,4.08-4.588S37.671,63.568,35.207,63.568Zm-0.172,7.954c-1.7,0-2.821-1.241-2.821-3.366s1.123-3.365,2.822-3.365,2.821,1.174,2.821,3.3S36.734,71.523,35.035,71.522Zm9.937-7.952a3.231,3.231,0,0,0-2.754,1.512V63.774H40.926l0,8.77h1.36V67.581A2.5,2.5,0,0,1,44.7,64.794,1.759,1.759,0,0,1,46.7,66.749l0,5.8h1.36l0-5.932A2.8,2.8,0,0,0,44.972,63.57Zm12.751,4.592c0-2.515-1.41-4.589-4.027-4.59-2.43,0-4.046,1.835-4.046,4.588,0,2.838,1.681,4.59,4.078,4.59A3.659,3.659,0,0,0,57.5,69.88H56.091a2.253,2.253,0,0,1-2.329,1.631c-1.53,0-2.566-.9-2.7-2.873l6.663,0V68.163ZM53.7,64.814a2.572,2.572,0,0,1,2.566,2.6H51.095C51.316,65.68,52.319,64.813,53.7,64.814Zm14.891-1.033v1.275a3.539,3.539,0,0,0-3.008-1.479c-2.465,0-4.08,1.783-4.08,4.588s1.613,4.59,4.078,4.59a3.544,3.544,0,0,0,2.941-1.393v0.85A2.427,2.427,0,0,1,65.8,74.93c-1.377,0-2.209-.561-2.379-1.666h-1.36c0.187,1.7,1.495,2.822,3.739,2.823,2.77,0,4.08-1.6,4.08-3.874l0-8.43H68.587Zm-2.841,7.75c-1.7,0-2.821-1.309-2.821-3.366S64.049,64.8,65.748,64.8s2.821,1.242,2.821,3.366S67.446,71.531,65.747,71.53Zm10.221-7.952a3.231,3.231,0,0,0-2.686,1.41V60.451h-1.36l0,12.1h1.36V67.589A2.5,2.5,0,0,1,75.7,64.8,1.759,1.759,0,0,1,77.7,66.758l0,5.8h1.36l0-5.932A2.8,2.8,0,0,0,75.967,63.579Zm12.317,7.873a0.4,0.4,0,0,1-.476-0.425V66.132c0-1.479-.866-2.55-3.3-2.55-2.567,0-3.468,1.206-3.57,2.905H82.3c0.085-1.309.714-1.734,2.21-1.733s1.971,0.46,1.971,1.377c0,0.782-.493,1.1-1.377,1.206l-1.258.136c-2.414.254-3.247,1.342-3.247,2.719,0,1.649,1.189,2.567,3.093,2.567a3.215,3.215,0,0,0,2.856-1.41,1.258,1.258,0,0,0,1.478,1.258,5.186,5.186,0,0,0,.748-0.051v-1.1H88.284Zm-4.521.152c-1.207,0-1.751-.578-1.75-1.445,0-.85.442-1.394,2.04-1.58l1.275-.153a2.262,2.262,0,0,0,1.156-.374v1.037A2.519,2.519,0,0,1,83.763,71.6Zm10.373-7.952a3.063,3.063,0,0,0-2.822,1.682V63.787H90.024l0,8.77h1.36v-5c0-1.7,1.123-2.583,2.873-2.583H94.6V63.669C94.409,63.652,94.273,63.652,94.137,63.652ZM104.5,72.561h1.58l-3.567-5.61,3.332-3.161h-1.8l-4.063,3.925,0-7.257h-1.36l0,12.1h1.36V69.313l1.564-1.461Zm6.025,0.206c2.464,0,4.249-1.784,4.25-4.588s-1.783-4.59-4.248-4.59-4.249,1.784-4.25,4.588S108.064,72.766,110.529,72.766Zm0-1.224c-1.7,0-2.821-1.242-2.82-3.366s1.122-3.365,2.822-3.365,2.821,1.242,2.82,3.366S112.229,71.543,110.529,71.543Zm12.565-7.883a3.062,3.062,0,0,0-2.822,1.682V63.795h-1.291l0,8.77h1.36v-5c0-1.7,1.123-2.583,2.873-2.583h0.34V63.677C123.366,63.66,123.23,63.66,123.094,63.66Zm8.883,7.8a0.4,0.4,0,0,1-.476-0.425v-4.9c0-1.479-.866-2.55-3.3-2.55-2.567,0-3.468,1.206-3.57,2.906H126c0.086-1.309.715-1.733,2.21-1.733s1.972,0.459,1.972,1.377c0,0.782-.494,1.1-1.377,1.206l-1.258.136c-2.414.254-3.247,1.342-3.247,2.719,0,1.649,1.189,2.567,3.092,2.567a3.214,3.214,0,0,0,2.856-1.41,1.258,1.258,0,0,0,1.479,1.258,5.174,5.174,0,0,0,.747-0.051v-1.1h-0.493Zm-4.521.152c-1.207,0-1.751-.578-1.751-1.445,0-.85.443-1.394,2.04-1.58l1.275-.153a2.264,2.264,0,0,0,1.156-.374V69.1A2.519,2.519,0,0,1,127.456,71.615Zm12.138,0.955h1.581l-3.568-5.61L140.94,63.8h-1.8l-4.063,3.925,0-7.258h-1.36l0,12.1h1.359V69.323l1.564-1.461ZM146.35,63.6a3.231,3.231,0,0,0-2.686,1.41V60.47h-1.36l0,12.1h1.36V67.608a2.5,2.5,0,0,1,2.414-2.787,1.759,1.759,0,0,1,2,1.955v5.8h1.36V66.641A2.8,2.8,0,0,0,146.35,63.6ZM159.1,68.19c0-2.516-1.41-4.589-4.027-4.59-2.431,0-4.046,1.835-4.047,4.588,0,2.838,1.682,4.59,4.078,4.59a3.658,3.658,0,0,0,3.774-2.871h-1.41a2.253,2.253,0,0,1-2.329,1.631c-1.53,0-2.566-.9-2.7-2.873l6.663,0V68.19Zm-4.027-3.349a2.571,2.571,0,0,1,2.565,2.6h-5.167C152.694,65.707,153.7,64.841,155.074,64.841Zm6.275-2.276a0.918,0.918,0,1,0-.917-0.918A0.926,0.926,0,0,0,161.349,62.565Zm-0.682,10.011h1.36l0-8.77h-1.36Zm7.422-8.972a3.231,3.231,0,0,0-2.754,1.512V63.807h-1.291l0,8.77h1.36V67.614a2.5,2.5,0,0,1,2.415-2.787,1.759,1.759,0,0,1,2,1.955l0,5.8h1.36l0-5.932A2.8,2.8,0,0,0,168.089,63.6Zm11.353,9.181a3.617,3.617,0,0,0,3.774-3.211h-1.393a2.3,2.3,0,0,1-2.38,1.988c-1.462,0-2.635-1.072-2.634-3.366s1.14-3.365,2.635-3.365a2.283,2.283,0,0,1,2.362,1.955h1.411a3.554,3.554,0,0,0-3.772-3.179c-2.431,0-4.063,1.767-4.064,4.588S177.046,72.784,179.442,72.785Zm9.049,0c2.465,0,4.25-1.784,4.251-4.588s-1.784-4.59-4.248-4.59-4.25,1.784-4.251,4.588S186.027,72.787,188.491,72.787Zm0-1.224c-1.7,0-2.822-1.241-2.821-3.366s1.123-3.365,2.822-3.365,2.822,1.242,2.821,3.366S190.191,71.564,188.492,71.564Zm8.517-.168c-0.629,0-1.241,0-1.87.034,0.391-.476.765-0.952,1.139-1.427l4.013-5.166v-1.02l-6.68,0V65h3.11c0.629,0,1.241,0,1.87-.034-0.391.476-.765,0.952-1.139,1.427l-4.013,5.166v1.02l7.088,0V71.4h-3.518Zm10.808-7.578-1.242,3.637c-0.442,1.275-.867,2.549-1.258,3.807-0.408-1.258-.816-2.516-1.257-3.791l-1.24-3.655h-1.5l3.295,9.06c-0.1.272-.2,0.561-0.306,0.816a1.536,1.536,0,0,1-1.6,1.087h-0.8v1.139a6.763,6.763,0,0,0,.816.051,2.651,2.651,0,0,0,2.856-2L209.3,63.819h-1.479Zm12.339,7.669a0.4,0.4,0,0,1-.475-0.425v-4.9c0-1.479-.866-2.55-3.3-2.55-2.566,0-3.467,1.206-3.57,2.905h1.36c0.085-1.309.714-1.733,2.21-1.733s1.971,0.459,1.971,1.377c0,0.782-.493,1.1-1.377,1.206l-1.258.136c-2.413.254-3.246,1.342-3.247,2.719,0,1.649,1.189,2.567,3.093,2.567a3.214,3.214,0,0,0,2.856-1.41,1.257,1.257,0,0,0,1.478,1.258,5.16,5.16,0,0,0,.748-0.051v-1.1h-0.493Zm-4.521.152c-1.207,0-1.75-.578-1.75-1.445,0-.85.442-1.394,2.04-1.58l1.275-.153a2.262,2.262,0,0,0,1.156-.374v1.037A2.518,2.518,0,0,1,215.635,71.639Zm11.924-7.815,0,4.963a2.5,2.5,0,0,1-2.414,2.787,1.759,1.759,0,0,1-2-1.955l0-5.8h-1.36l0,5.932a2.8,2.8,0,0,0,3.093,3.043,3.231,3.231,0,0,0,2.754-1.512v1.309h1.292l0-8.77h-1.359Zm7.516-.134a3.062,3.062,0,0,0-2.822,1.682V63.825h-1.292l0,8.77h1.36v-5c0-1.7,1.123-2.583,2.873-2.583h0.34V63.707C235.347,63.69,235.211,63.69,235.075,63.69Zm8.788-.066a3.447,3.447,0,0,0-2.941,1.461l0-4.589h-1.36l0,12.1h1.291v-1.36a3.446,3.446,0,0,0,3.008,1.565c2.464,0,4.079-1.784,4.08-4.588S246.328,63.625,243.863,63.624Zm-0.172,7.954c-1.7,0-2.821-1.241-2.82-3.366s1.122-3.365,2.822-3.365,2.821,1.174,2.821,3.3S245.391,71.579,243.691,71.579Zm10-7.884a3.062,3.062,0,0,0-2.822,1.682V63.83h-1.292l0,8.77h1.36l0-5c0-1.7,1.122-2.583,2.873-2.583h0.34V63.712C253.968,63.695,253.832,63.695,253.7,63.695Zm2.417-1.1a0.918,0.918,0,1,0-.918-0.918A0.926,0.926,0,0,0,256.113,62.591ZM255.43,72.6h1.36l0-8.77h-1.36Zm10-8.767v1.275a3.538,3.538,0,0,0-3.008-1.48c-2.464,0-4.079,1.784-4.08,4.588s1.613,4.59,4.078,4.59a3.544,3.544,0,0,0,2.941-1.393v0.85a2.426,2.426,0,0,1-2.72,2.719c-1.377,0-2.209-.562-2.379-1.666H258.9c0.187,1.7,1.5,2.822,3.739,2.823,2.77,0,4.08-1.6,4.08-3.874l0-8.43h-1.291Zm-2.841,7.75c-1.7,0-2.821-1.309-2.82-3.366s1.122-3.365,2.822-3.365,2.821,1.242,2.82,3.366S264.288,71.584,262.588,71.584Zm10.221-7.952a3.231,3.231,0,0,0-2.686,1.41V60.5h-1.359l0,12.1h1.36V67.643a2.5,2.5,0,0,1,2.415-2.787,1.759,1.759,0,0,1,2,1.955l0,5.8h1.36V66.675A2.8,2.8,0,0,0,272.809,63.632Zm8.8,1.4v-1.19h-1.8V61.356h-1.36v2.481H277v1.19h1.445l0,5.813c0,1.343.833,1.819,2.192,1.819q0.408,0,.969-0.051V71.47h-0.8c-0.782,0-1-.289-1-0.748l0-5.694h1.8ZM60.46,84.179l-1.242,3.96c-0.323,1.054-.646,2.107-0.936,3.161-0.306-1.054-.628-2.108-0.951-3.162l-1.223-3.961H54.681l-1.225,3.96c-0.34,1.071-.647,2.124-0.936,3.2-0.306-1.071-.611-2.125-0.951-3.2l-1.24-3.961H48.868l2.921,8.771h1.428l1.276-4.062c0.306-.969.613-1.989,0.9-2.974,0.272,0.986.577,2.006,0.883,2.975l1.291,4.063H59l2.926-8.77H60.46Zm3.278-1.24a0.918,0.918,0,1,0-.917-0.918A0.925,0.925,0,0,0,63.738,82.939ZM63.056,92.95h1.36l0-8.77h-1.36ZM70.2,85.371v-1.19H68.4V81.7h-1.36V84.18H65.593v1.19h1.445l0,5.813c0,1.343.832,1.819,2.192,1.819q0.408,0,.969-0.051V91.813H69.4c-0.782,0-1-.289-1-0.748l0-5.694h1.8Zm5.372-1.392a3.231,3.231,0,0,0-2.686,1.41V80.851h-1.36l0,12.1h1.36V87.989A2.5,2.5,0,0,1,75.3,85.2,1.759,1.759,0,0,1,77.3,87.158l0,5.8h1.36l0-5.932A2.8,2.8,0,0,0,75.571,83.979Zm16.948,0a3.029,3.029,0,0,0-2.7,1.648,2.746,2.746,0,0,0-2.7-1.649,2.817,2.817,0,0,0-2.533,1.495V84.185H83.289l0,8.77h1.36V88.162c0-2.108,1.174-2.957,2.244-2.957a1.675,1.675,0,0,1,1.835,1.938v5.813h1.36V88.164c0-2.108,1.14-2.957,2.244-2.957a1.669,1.669,0,0,1,1.835,1.938l0,5.813h1.36l0-5.949A2.788,2.788,0,0,0,92.518,83.983Zm8.859,9.181c2.465,0,4.25-1.783,4.251-4.588s-1.784-4.59-4.248-4.59-4.25,1.783-4.251,4.588S98.913,93.163,101.377,93.164Zm0-1.224c-1.7,0-2.821-1.242-2.82-3.366s1.123-3.365,2.822-3.365,2.821,1.242,2.821,3.366S103.077,91.941,101.377,91.94Zm9.978-7.884a3.062,3.062,0,0,0-2.822,1.682V84.192h-1.292l0,8.77h1.36l0-5c0-1.7,1.122-2.583,2.873-2.583h0.34V84.073C111.627,84.056,111.491,84.056,111.355,84.056Zm9.22,4.524c0-2.515-1.409-4.59-4.027-4.59-2.43,0-4.045,1.835-4.046,4.588,0,2.839,1.681,4.59,4.078,4.59a3.658,3.658,0,0,0,3.774-2.871h-1.411a2.253,2.253,0,0,1-2.329,1.631c-1.529,0-2.566-.9-2.7-2.873l6.662,0V88.58Zm-4.027-3.349a2.572,2.572,0,0,1,2.566,2.6h-5.167C114.168,86.1,115.171,85.23,116.548,85.231Zm15.876,3.353c0-2.516-1.409-4.589-4.027-4.59-2.43,0-4.045,1.835-4.046,4.588,0,2.838,1.681,4.59,4.078,4.59A3.66,3.66,0,0,0,132.2,90.3h-1.411a2.253,2.253,0,0,1-2.329,1.631c-1.53,0-2.566-.9-2.7-2.873l6.663,0V88.583ZM128.4,85.234a2.572,2.572,0,0,1,2.566,2.6H125.8C126.017,86.1,127.02,85.233,128.4,85.234ZM138.084,84a3.231,3.231,0,0,0-2.754,1.512V84.2h-1.292l0,8.77h1.36V88.006a2.5,2.5,0,0,1,2.414-2.787,1.76,1.76,0,0,1,2.006,1.955l0,5.8h1.36V87.039A2.8,2.8,0,0,0,138.084,84Zm12.751,4.593c0-2.516-1.409-4.59-4.027-4.59-2.43,0-4.046,1.835-4.046,4.588,0,2.839,1.681,4.59,4.078,4.59a3.659,3.659,0,0,0,3.774-2.871H149.2a2.253,2.253,0,0,1-2.329,1.631c-1.53,0-2.566-.9-2.7-2.873l6.663,0V88.588Zm-4.027-3.349a2.573,2.573,0,0,1,2.566,2.6h-5.167C144.428,86.1,145.431,85.238,146.808,85.239Zm9.755-1.17a3.063,3.063,0,0,0-2.822,1.682V84.2h-1.292l0,8.77h1.36v-5c0-1.7,1.123-2.583,2.873-2.583h0.34V84.086C156.834,84.069,156.7,84.069,156.563,84.069Zm8.244,0.138v1.275A3.538,3.538,0,0,0,161.8,84c-2.464,0-4.079,1.784-4.08,4.588s1.613,4.59,4.078,4.59a3.544,3.544,0,0,0,2.941-1.393v0.85a2.427,2.427,0,0,1-2.721,2.719c-1.376,0-2.209-.561-2.379-1.666h-1.359c0.186,1.7,1.494,2.822,3.738,2.823,2.77,0,4.08-1.6,4.08-3.874l0-8.43h-1.292Zm-2.841,7.75c-1.7,0-2.821-1.309-2.82-3.366s1.122-3.365,2.822-3.365,2.821,1.241,2.821,3.366S163.666,91.957,161.966,91.957Zm11.752-7.747-1.241,3.637c-0.443,1.275-.868,2.549-1.259,3.807-0.408-1.258-.815-2.516-1.257-3.791l-1.24-3.655h-1.5l3.295,9.06c-0.1.272-.2,0.561-0.307,0.816a1.536,1.536,0,0,1-1.6,1.087h-0.8v1.139a6.783,6.783,0,0,0,.816.051,2.65,2.65,0,0,0,2.856-2L175.2,84.21h-1.479ZM186.534,88.6c0-2.516-1.409-4.59-4.027-4.59-2.43,0-4.045,1.835-4.046,4.588,0,2.838,1.681,4.59,4.078,4.59a3.658,3.658,0,0,0,3.774-2.871H184.9a2.253,2.253,0,0,1-2.329,1.631c-1.529,0-2.566-.9-2.7-2.873l6.662,0V88.6Zm-4.027-3.35a2.572,2.572,0,0,1,2.566,2.6h-5.167C180.127,86.115,181.13,85.248,182.507,85.248Zm8.622-3.21h0.782V80.883c-0.2-.017-0.612-0.034-0.867-0.034a2.167,2.167,0,0,0-2.448,2.464v0.9h-1.445V85.4H188.6l0,7.581h1.36l0-7.581h1.87v-1.19h-1.87V83.279A1.079,1.079,0,0,1,191.129,82.038Zm3.082,1.276v0.9h-1.445V85.4h1.444l0,7.581h1.36l0-7.581h1.87v-1.19h-1.87V83.28a1.079,1.079,0,0,1,1.173-1.24h0.782V80.884c-0.2-.017-0.612-0.034-0.867-0.034A2.167,2.167,0,0,0,194.211,83.314Zm5.269-.339a0.918,0.918,0,1,0-.918-0.918A0.925,0.925,0,0,0,199.48,82.975ZM198.8,92.986h1.36l0-8.77H198.8Zm6.989,0.206a3.617,3.617,0,0,0,3.774-3.211h-1.393a2.3,2.3,0,0,1-2.38,1.988c-1.462,0-2.635-1.072-2.634-3.366s1.14-3.365,2.635-3.365a2.283,2.283,0,0,1,2.362,1.955h1.411a3.554,3.554,0,0,0-3.772-3.179c-2.431,0-4.063,1.766-4.064,4.588S203.39,93.191,205.786,93.192Zm5.938-10.213a0.918,0.918,0,1,0-.917-0.918A0.925,0.925,0,0,0,211.724,82.979ZM211.042,92.99H212.4l0-8.77h-1.36Zm10.983-4.382c0-2.516-1.41-4.59-4.027-4.59-2.431,0-4.046,1.834-4.046,4.588,0,2.838,1.681,4.59,4.077,4.59a3.658,3.658,0,0,0,3.774-2.871h-1.41a2.253,2.253,0,0,1-2.329,1.631c-1.53,0-2.566-.9-2.7-2.873l6.663,0V88.607ZM218,85.258a2.571,2.571,0,0,1,2.565,2.6H215.4C215.618,86.124,216.621,85.258,218,85.258Zm9.686-1.238a3.23,3.23,0,0,0-2.753,1.512V84.223h-1.292l0,8.77H225V88.03a2.5,2.5,0,0,1,2.414-2.787,1.759,1.759,0,0,1,2,1.955v5.8h1.359l0-5.932A2.8,2.8,0,0,0,227.684,84.02Zm8.767,9.181a3.618,3.618,0,0,0,3.774-3.211h-1.394a2.3,2.3,0,0,1-2.38,1.988c-1.462,0-2.634-1.072-2.634-3.366s1.14-3.365,2.636-3.365a2.284,2.284,0,0,1,2.362,1.955h1.41a3.553,3.553,0,0,0-3.772-3.179c-2.43,0-4.063,1.767-4.063,4.588S234.054,93.2,236.451,93.2Zm10.672-8.971-1.241,3.637c-0.443,1.275-.868,2.549-1.259,3.807-0.408-1.258-.815-2.516-1.257-3.791l-1.24-3.655h-1.5l3.295,9.06c-0.1.272-.2,0.561-0.307,0.816a1.536,1.536,0,0,1-1.6,1.087h-0.8v1.139a6.784,6.784,0,0,0,.816.051,2.65,2.65,0,0,0,2.856-2L248.6,84.229h-1.479Zm2.5,8.89a0.976,0.976,0,0,0,.969-1,0.995,0.995,0,0,0-1.988,0A0.977,0.977,0,0,0,249.624,93.119Z"/>
</svg>
