<svg id="HING" xmlns="http://www.w3.org/2000/svg" width="300" height="250" viewBox="0 0 300 250">
  <defs>
    <style>
      .cls-1 {
        fill: #fffffe;
        fill-rule: evenodd;
      }
    </style>
  </defs>
  <path id="txt2" class="cls-1" d="M159.718,140.327h-7.71v-7.709h-3.25v7.709h-7.751v3h7.751v7.709h3.25v-7.709h7.71v-3Zm-70.16,54.835v-26.5h-3.5v29.67h18.419v-3.167H89.558Zm19.512-21.377a2.251,2.251,0,1,0-2.25-2.251A2.269,2.269,0,0,0,109.07,173.785ZM107.4,198.329h3.334v-21.5H107.4v21.5Zm22.71-21.5-3.542,9.543c-1,2.708-2.125,5.667-3.042,8.376-0.916-2.709-2.042-5.626-3.042-8.335l-3.542-9.584H113.32l8.417,21.5h3.5l8.459-21.5h-3.584Zm24.08,10.751c0-6.167-3.459-11.251-9.876-11.251-5.959,0-9.918,4.5-9.918,11.251,0,6.959,4.125,11.251,10,11.251a8.97,8.97,0,0,0,9.251-7.042h-3.459a5.523,5.523,0,0,1-5.709,4c-3.75,0-6.292-2.208-6.625-7.042h16.335v-1.167Zm-9.876-8.209c3.833,0,5.959,2.833,6.292,6.376H137.941C138.483,181.494,140.941,179.369,144.317,179.369Zm44.292-10.71H164.815v3.167H174.9v26.5h3.626v-26.5h10.084v-3.167Zm24.475,0-6.751,18.794c-0.917,2.542-1.792,5.042-2.542,7.376-0.75-2.334-1.625-4.834-2.542-7.376l-6.876-18.794h-3.709l11.168,29.67h3.918l11-29.67h-3.667Z"/>
</svg>
