<svg id="HING" xmlns="http://www.w3.org/2000/svg" width="300" height="250" viewBox="0 0 300 250">
  <defs>
    <style>
      .cls-1 {
        fill: #fffffe;
        fill-rule: evenodd;
      }
    </style>
  </defs>
  <path id="Sirf" class="cls-1" d="M101.613,150.045c6.608-3.649,11.051-9.465,11.051-17.79,0-14.255-10.937-22.009-25.977-22.009-16.407,0-26.433,9.693-26.547,24.176h9.571c0.456-10.948,7.634-15.509,16.976-15.509,9.912,0,16.293,4.9,16.293,13.57s-5.925,13.8-16.863,13.8H80.649v7.983h6.039c11.394,0,18.458,6.386,18.458,16.193s-7.064,15.966-17.888,15.966c-11.849,0-18.571-6.159-18.913-17.676H58.887c-0.114,15.737,9.8,26.342,28.37,26.342,16.52,0,27.914-9.807,27.914-24.632C115.171,160.309,109.019,153.923,101.613,150.045Zm63.57-.342c6.836-2.965,11.735-8.667,11.735-17.22,0-14.483-11.735-22.237-26.091-22.237S124.736,118,124.736,132.483c0,8.553,4.9,14.255,11.735,17.22-9,3.421-15.039,10.492-15.039,20.527,0,15.4,11.963,24.86,29.395,24.86s29.4-9.465,29.4-24.86C180.222,160.2,174.184,153.124,165.183,149.7Zm-14.356-30.79c9.343,0,16.635,4.675,16.635,13.57s-7.292,13.571-16.635,13.571-16.635-4.676-16.635-13.571S141.484,118.913,150.827,118.913Zm0,67.511c-11.735,0-19.369-5.816-19.369-16.194s7.634-16.193,19.369-16.193S170.2,159.853,170.2,170.23,162.562,186.424,150.827,186.424Zm27.64,6.842h2.748l8.982-25.1H187.45Zm32.147-18.615a6.276,6.276,0,0,0-5.6,3.42,5.692,5.692,0,0,0-5.6-3.42,5.836,5.836,0,0,0-5.248,3.1v-2.679h-2.678v18.192h2.818v-9.942c0-4.372,2.431-6.135,4.65-6.135,2.36,0,3.8,1.2,3.8,4.019v12.058h2.818v-9.942c0-4.372,2.36-6.135,4.65-6.135,2.4,0,3.8,1.2,3.8,4.019v12.058h2.818v-12.34C216.849,177.4,214.841,174.651,210.614,174.651Zm18.393,19.038c5.107,0,8.806-3.7,8.806-9.519s-3.7-9.519-8.806-9.519-8.806,3.7-8.806,9.519S223.9,193.689,229.007,193.689Zm0-2.538c-3.523,0-5.848-2.574-5.848-6.981s2.325-6.981,5.848-6.981,5.847,2.574,5.847,6.981S232.529,191.151,229.007,191.151Zm11.8,2.362a2.025,2.025,0,0,0,2.008-2.08,2.062,2.062,0,0,0-4.121,0A2.028,2.028,0,0,0,240.8,193.513Zm1.667-13.191,1.324-1.807,1.325,1.807,0.844-.67-1.339-1.836,2.126-.7-0.35-1.006-2.067.671v-2.215h-1.077v2.215l-2.067-.671-0.35,1.006,2.14,0.7-1.339,1.836Zm16.719,13.367c4.473,0,7.221-1.974,7.221-5.429,0-2.962-1.8-4.478-6.27-5.359l-1.62-.318c-2.325-.458-3.664-1.093-3.664-2.82,0-1.692,1.374-2.68,3.805-2.68,2.782,0,4.438.776,4.579,3.6h2.818c-0.071-3.879-2.536-6.029-7.4-6.029-4.157,0-6.622,2.045-6.622,5.147,0,2.821,1.725,4.619,5.671,5.359l1.69,0.317c3.171,0.6,4.157,1.34,4.157,2.962,0,1.8-1.3,2.82-4.368,2.82-3.205,0-4.544-1.022-4.861-3.772h-2.853C251.757,191.75,254.575,193.689,259.189,193.689Zm26.151-9.519c0-5.218-2.924-9.519-8.348-9.519-5.037,0-8.384,3.807-8.384,9.519,0,5.888,3.488,9.519,8.454,9.519a7.583,7.583,0,0,0,7.82-5.958h-2.924a4.668,4.668,0,0,1-4.825,3.384c-3.17,0-5.319-1.868-5.6-5.958H285.34V184.17Zm-8.348-6.946c3.24,0,5.037,2.4,5.319,5.4H271.6C272.06,179.022,274.139,177.224,276.992,177.224ZM54.2,140.447c0-6.616-4.243-8.821-11.261-10.046l-1.469-.245v-9.638c3.917,0.327,5.549,2.206,5.712,5.064h5.875c-0.326-5.962-4.243-9.637-11.587-10.046v-4.818H38.7v4.737c-8,.408-11.832,4.328-11.832,9.637,0,6.534,4.243,9.066,10.771,10.21l1.061,0.163v10.128c-4.08-.327-6.2-1.879-6.528-5.8H26.129c0.245,6.125,4.08,10.291,12.567,10.781v4.818H41.47v-4.737C49.386,150.411,54.2,146.818,54.2,140.447Zm-21.053-15.6c0-2.45,1.714-4.084,5.549-4.329v9.148C34.534,128.849,33.147,127.461,33.147,124.847Zm8.323,20.827v-9.719c5.222,0.98,6.447,2.287,6.447,4.9C47.917,143.551,46.121,145.429,41.47,145.674Zm91.1-54.345c7.126,0,11.127-3.459,11.127-8.709,0-4.292-2.417-6.959-9.251-8.459l-2.626-.583c-5.584-1.25-6.959-2.667-6.959-5.5,0-2.792,2.209-4.584,6.5-4.584,5.917,0,7.709,2.292,8,6.126h3.584c-0.125-4.834-2.834-9.293-11.585-9.293-6.168,0-10.126,3-10.126,7.751,0,5.417,3.958,7.459,9,8.584l2.625,0.583c5.251,1.167,7.209,2.542,7.209,5.376,0,3.667-2.75,5.542-7.5,5.542-4.834,0-8.626-1.792-8.709-7.293h-3.625C120.324,88.288,125.491,91.33,132.575,91.33Zm16.582-25.211a2.25,2.25,0,1,0-2.25-2.25A2.268,2.268,0,0,0,149.157,66.118Zm-1.666,24.545h3.333V69.16h-3.333v21.5ZM165.75,68.827a7.511,7.511,0,0,0-6.918,4.125V69.16h-3.167v21.5H159V78.411c0-4.167,2.75-6.334,7.043-6.334h0.833V68.868C166.417,68.827,166.083,68.827,165.75,68.827Zm13.024-5h1.917V60.993c-0.5-.042-1.5-0.083-2.125-0.083-4.251,0-6,2.25-6,6.042V69.16h-3.542v2.917h3.542V90.663H175.9V72.077h4.584V69.16H175.9V66.868C175.9,64.91,176.857,63.826,178.774,63.826Z"/>
</svg>
