<svg id="Frame_2" data-name="Frame 2" xmlns="http://www.w3.org/2000/svg" width="300" height="250" viewBox="0 0 300 250">
  <defs>
    <style>
      .cls-1 {
        fill: #fff;
        fill-rule: evenodd;
      }
    </style>
  </defs>
  <path id="Apne_phone_se_temperature_light_and_appliances_ko_automate_ka" data-name="Apne phone se temperature, light  and appliances ko automate ka" class="cls-1" d="M39.407,75.322H40.92l-4.9-12.108h-1.6l-4.83,12.108h1.5l1.394-3.52H38ZM33,70.509l0.051-.136c0.527-1.326,1.462-3.741,2.16-5.612,0.731,1.871,1.684,4.285,2.211,5.595l0.068,0.153H33ZM46.43,66.343a3.449,3.449,0,0,0-3.01,1.565v-1.36H42.128V78.655h1.36V74.063a3.447,3.447,0,0,0,2.942,1.462c2.466,0,4.081-1.786,4.081-4.591S48.9,66.343,46.43,66.343ZM46.26,74.3c-1.7,0-2.823-1.241-2.823-3.367s1.122-3.367,2.823-3.367,2.823,1.173,2.823,3.3S47.96,74.3,46.26,74.3ZM56.2,66.343a3.233,3.233,0,0,0-2.755,1.514V66.547H52.149v8.775h1.36V70.356a2.5,2.5,0,0,1,2.415-2.789,1.76,1.76,0,0,1,2.007,1.956v5.8h1.36V69.387A2.8,2.8,0,0,0,56.2,66.343Zm12.756,4.591c0-2.517-1.411-4.591-4.03-4.591-2.432,0-4.047,1.837-4.047,4.591,0,2.84,1.684,4.591,4.081,4.591a3.66,3.66,0,0,0,3.775-2.874H67.32a2.254,2.254,0,0,1-2.33,1.632c-1.53,0-2.568-.9-2.7-2.874h6.666V70.934Zm-4.03-3.35a2.573,2.573,0,0,1,2.568,2.6H62.32C62.541,68.451,63.545,67.584,64.922,67.584Zm12.529-1.241a3.449,3.449,0,0,0-3.01,1.565v-1.36H73.149V78.655h1.36V74.063a3.447,3.447,0,0,0,2.942,1.462c2.466,0,4.081-1.786,4.081-4.591S79.917,66.343,77.451,66.343ZM77.281,74.3c-1.7,0-2.823-1.241-2.823-3.367s1.122-3.367,2.823-3.367,2.823,1.173,2.823,3.3S78.981,74.3,77.281,74.3Zm9.936-7.958a3.233,3.233,0,0,0-2.687,1.411v-4.54H83.17V75.322h1.361V70.356a2.5,2.5,0,0,1,2.415-2.789,1.76,1.76,0,0,1,2.007,1.956v5.8h1.36V69.387A2.8,2.8,0,0,0,87.217,66.343Zm8.93,9.183c2.466,0,4.252-1.786,4.252-4.591s-1.786-4.591-4.252-4.591S91.9,68.128,91.9,70.934,93.682,75.526,96.147,75.526Zm0-1.224c-1.7,0-2.823-1.241-2.823-3.367s1.122-3.367,2.823-3.367,2.823,1.241,2.823,3.367S97.848,74.3,96.147,74.3Zm9.91-7.958a3.232,3.232,0,0,0-2.755,1.514V66.547h-1.293v8.775h1.361V70.356a2.5,2.5,0,0,1,2.414-2.789,1.76,1.76,0,0,1,2.007,1.956v5.8h1.36V69.387A2.8,2.8,0,0,0,106.057,66.343Zm12.756,4.591c0-2.517-1.412-4.591-4.031-4.591-2.431,0-4.047,1.837-4.047,4.591,0,2.84,1.684,4.591,4.081,4.591a3.662,3.662,0,0,0,3.776-2.874H117.18a2.254,2.254,0,0,1-2.33,1.632c-1.53,0-2.567-.9-2.7-2.874h6.666V70.934Zm-4.031-3.35a2.573,2.573,0,0,1,2.568,2.6h-5.169C112.4,68.451,113.405,67.584,114.782,67.584ZM126.1,75.526c2.16,0,3.486-.952,3.486-2.619,0-1.428-.867-2.16-3.027-2.585l-0.782-.153c-1.122-.221-1.769-0.527-1.769-1.361,0-.816.664-1.292,1.837-1.292,1.343,0,2.143.374,2.211,1.734h1.36c-0.034-1.871-1.224-2.908-3.571-2.908-2.007,0-3.2.986-3.2,2.483,0,1.36.833,2.228,2.738,2.585l0.816,0.153c1.531,0.289,2.007.646,2.007,1.428,0,0.867-.63,1.36-2.109,1.36-1.547,0-2.194-.493-2.347-1.819H122.38C122.516,74.59,123.876,75.526,126.1,75.526Zm12.6-4.591c0-2.517-1.411-4.591-4.03-4.591-2.432,0-4.047,1.837-4.047,4.591,0,2.84,1.683,4.591,4.081,4.591a3.66,3.66,0,0,0,3.775-2.874h-1.411a2.254,2.254,0,0,1-2.33,1.632c-1.53,0-2.568-.9-2.7-2.874h6.666V70.934Zm-4.03-3.35a2.573,2.573,0,0,1,2.568,2.6h-5.17C132.3,68.451,133.3,67.584,134.677,67.584Zm12.07,0.153v-1.19h-1.8V64.064h-1.361v2.483h-1.445v1.19h1.445v5.816c0,1.343.833,1.82,2.194,1.82q0.408,0,.969-0.051V74.182h-0.8c-0.782,0-1-.289-1-0.748v-5.7h1.8Zm8.768,3.2c0-2.517-1.412-4.591-4.03-4.591-2.432,0-4.048,1.837-4.048,4.591,0,2.84,1.684,4.591,4.082,4.591a3.661,3.661,0,0,0,3.775-2.874h-1.412a2.254,2.254,0,0,1-2.329,1.632c-1.531,0-2.568-.9-2.7-2.874h6.666V70.934Zm-4.03-3.35a2.573,2.573,0,0,1,2.567,2.6h-5.169C149.1,68.451,150.107,67.584,151.485,67.584Zm14.875-1.241a3.03,3.03,0,0,0-2.7,1.65,2.748,2.748,0,0,0-2.7-1.65,2.819,2.819,0,0,0-2.534,1.5V66.547h-1.292v8.775h1.36v-4.8c0-2.109,1.174-2.959,2.245-2.959a1.677,1.677,0,0,1,1.837,1.939v5.816h1.36v-4.8c0-2.109,1.139-2.959,2.245-2.959a1.669,1.669,0,0,1,1.836,1.939v5.816h1.361V69.37A2.789,2.789,0,0,0,166.36,66.343Zm9.355,0a3.45,3.45,0,0,0-3.01,1.565v-1.36h-1.292V78.655h1.36V74.063a3.447,3.447,0,0,0,2.942,1.462c2.466,0,4.081-1.786,4.081-4.591S178.181,66.343,175.715,66.343Zm-0.17,7.958c-1.7,0-2.823-1.241-2.823-3.367s1.122-3.367,2.823-3.367,2.823,1.173,2.823,3.3S177.245,74.3,175.545,74.3Zm13.533-3.367c0-2.517-1.412-4.591-4.03-4.591-2.432,0-4.048,1.837-4.048,4.591,0,2.84,1.684,4.591,4.082,4.591a3.661,3.661,0,0,0,3.775-2.874h-1.412a2.254,2.254,0,0,1-2.329,1.632c-1.531,0-2.568-.9-2.7-2.874h6.666V70.934Zm-4.03-3.35a2.573,2.573,0,0,1,2.567,2.6h-5.169C182.667,68.451,183.67,67.584,185.048,67.584Zm9.756-1.173a3.065,3.065,0,0,0-2.823,1.684V66.547h-1.292v8.775h1.36v-5c0-1.7,1.123-2.585,2.874-2.585h0.34V66.428C195.076,66.411,194.94,66.411,194.8,66.411Zm8.887,7.805a0.4,0.4,0,0,1-.476-0.425v-4.9c0-1.48-.868-2.551-3.3-2.551-2.568,0-3.469,1.207-3.571,2.908h1.36c0.085-1.309.714-1.734,2.211-1.734s1.972,0.459,1.972,1.377c0,0.782-.493,1.105-1.377,1.207l-1.259.136c-2.414.255-3.248,1.343-3.248,2.721,0,1.649,1.191,2.568,3.095,2.568a3.215,3.215,0,0,0,2.857-1.412,1.258,1.258,0,0,0,1.48,1.258,5.173,5.173,0,0,0,.748-0.051V74.216h-0.493Zm-4.524.153c-1.207,0-1.751-.578-1.751-1.445,0-.85.442-1.394,2.04-1.582l1.276-.153a2.264,2.264,0,0,0,1.156-.374v1.037A2.52,2.52,0,0,1,199.167,74.369Zm9.864-6.632v-1.19h-1.8V64.064h-1.36v2.483h-1.445v1.19h1.445v5.816c0,1.343.833,1.82,2.194,1.82q0.408,0,.969-0.051V74.182h-0.8c-0.782,0-1-.289-1-0.748v-5.7h1.8Zm7.067-1.19v4.966a2.5,2.5,0,0,1-2.414,2.789,1.76,1.76,0,0,1-2.007-1.956v-5.8h-1.36v5.935a2.8,2.8,0,0,0,3.095,3.044,3.231,3.231,0,0,0,2.754-1.513v1.309h1.293V66.547H216.1Zm7.517-.136a3.065,3.065,0,0,0-2.823,1.684V66.547H219.5v8.775h1.36v-5c0-1.7,1.123-2.585,2.874-2.585h0.34V66.428C223.887,66.411,223.751,66.411,223.615,66.411Zm9.227,4.523c0-2.517-1.412-4.591-4.03-4.591-2.432,0-4.048,1.837-4.048,4.591,0,2.84,1.684,4.591,4.082,4.591a3.661,3.661,0,0,0,3.775-2.874h-1.412a2.254,2.254,0,0,1-2.329,1.632c-1.531,0-2.568-.9-2.7-2.874h6.666V70.934Zm-4.03-3.35a2.573,2.573,0,0,1,2.567,2.6H226.21C226.431,68.451,227.434,67.584,228.812,67.584Zm5.864,6.037a0.913,0.913,0,0,0-.953.918,0.886,0.886,0,0,0,.953.884h0.1a1.258,1.258,0,0,1-.936,1.326l-0.119.034v0.9l0.171-.034a2.306,2.306,0,0,0,1.9-2.585A1.193,1.193,0,0,0,234.676,73.621Zm7.378,1.752a8.642,8.642,0,0,0,.867-0.051V74.182h-0.646a0.681,0.681,0,0,1-.833-0.748V63.214h-1.361V73.553C240.081,74.9,240.83,75.373,242.054,75.373Zm2.682-10.067a0.918,0.918,0,1,0-.918-0.918A0.925,0.925,0,0,0,244.736,65.305Zm-0.68,10.016h1.36V66.547h-1.36v8.775Zm10-8.775v1.275a3.543,3.543,0,0,0-3.01-1.48c-2.466,0-4.082,1.785-4.082,4.591s1.616,4.591,4.082,4.591a3.547,3.547,0,0,0,2.942-1.394v0.85a2.428,2.428,0,0,1-2.721,2.721c-1.378,0-2.211-.561-2.381-1.666h-1.36c0.187,1.7,1.5,2.823,3.741,2.823,2.772,0,4.081-1.6,4.081-3.877V66.547h-1.292Zm-2.84,7.754c-1.7,0-2.823-1.309-2.823-3.367s1.122-3.367,2.823-3.367,2.823,1.241,2.823,3.367S252.916,74.3,251.216,74.3Zm10.22-7.958a3.233,3.233,0,0,0-2.687,1.411v-4.54h-1.36V75.322h1.36V70.356a2.5,2.5,0,0,1,2.415-2.789,1.76,1.76,0,0,1,2.007,1.956v5.8h1.36V69.387A2.8,2.8,0,0,0,261.436,66.343Zm8.8,1.394v-1.19h-1.8V64.064h-1.36v2.483h-1.446v1.19h1.446v5.816c0,1.343.833,1.82,2.194,1.82q0.408,0,.969-0.051V74.182h-0.8c-0.783,0-1-.289-1-0.748v-5.7h1.8ZM30.833,94.616a0.4,0.4,0,0,1-.476-0.425v-4.9c0-1.48-.867-2.551-3.3-2.551-2.568,0-3.469,1.207-3.571,2.908h1.36c0.085-1.309.714-1.734,2.211-1.734s1.973,0.459,1.973,1.377c0,0.782-.493,1.105-1.377,1.207l-1.258.136c-2.415.255-3.248,1.343-3.248,2.721,0,1.65,1.19,2.568,3.1,2.568A3.216,3.216,0,0,0,29.1,94.514a1.258,1.258,0,0,0,1.479,1.258,5.177,5.177,0,0,0,.748-0.051V94.616H30.833Zm-4.523.153c-1.207,0-1.752-.578-1.752-1.445,0-.85.442-1.394,2.041-1.582l1.275-.153a2.264,2.264,0,0,0,1.156-.374v1.037A2.52,2.52,0,0,1,26.31,94.769Zm10.3-8.026a3.233,3.233,0,0,0-2.755,1.513V86.947H32.567v8.775h1.36V90.756a2.5,2.5,0,0,1,2.415-2.789,1.76,1.76,0,0,1,2.007,1.956v5.8h1.361V89.787A2.8,2.8,0,0,0,36.614,86.743Zm11.729-3.129v4.591A3.447,3.447,0,0,0,45.4,86.743c-2.466,0-4.081,1.785-4.081,4.591s1.615,4.591,4.081,4.591a3.449,3.449,0,0,0,3.01-1.565v1.36H49.7V83.614h-1.36ZM45.571,94.7c-1.7,0-2.823-1.173-2.823-3.3s1.122-3.435,2.823-3.435,2.823,1.241,2.823,3.367S47.272,94.7,45.571,94.7Zm15.93-.085a0.4,0.4,0,0,1-.476-0.425v-4.9c0-1.48-.867-2.551-3.3-2.551-2.568,0-3.469,1.207-3.571,2.908h1.36c0.085-1.309.714-1.734,2.211-1.734S59.7,88.375,59.7,89.294c0,0.782-.493,1.105-1.377,1.207l-1.258.136c-2.415.255-3.248,1.343-3.248,2.721,0,1.65,1.19,2.568,3.095,2.568a3.216,3.216,0,0,0,2.857-1.412,1.258,1.258,0,0,0,1.479,1.258,5.177,5.177,0,0,0,.748-0.051V94.616H61.5Zm-4.523.153c-1.207,0-1.752-.578-1.752-1.445,0-.85.442-1.394,2.041-1.582l1.275-.153a2.264,2.264,0,0,0,1.156-.374v1.037A2.52,2.52,0,0,1,56.978,94.769Zm10.559-8.026a3.449,3.449,0,0,0-3.01,1.564v-1.36H63.234V99.055h1.36V94.463a3.447,3.447,0,0,0,2.942,1.463c2.466,0,4.081-1.786,4.081-4.591S70,86.743,67.537,86.743ZM67.367,94.7c-1.7,0-2.823-1.241-2.823-3.367s1.122-3.367,2.823-3.367,2.823,1.173,2.823,3.3S69.067,94.7,67.367,94.7Zm10.191-7.958a3.449,3.449,0,0,0-3.01,1.564v-1.36H73.256V99.055h1.36V94.463a3.447,3.447,0,0,0,2.942,1.463c2.466,0,4.081-1.786,4.081-4.591S80.024,86.743,77.558,86.743ZM77.388,94.7c-1.7,0-2.823-1.241-2.823-3.367s1.122-3.367,2.823-3.367,2.823,1.173,2.823,3.3S79.089,94.7,77.388,94.7Zm7.826,1.071a8.647,8.647,0,0,0,.867-0.051V94.582H85.435a0.681,0.681,0,0,1-.833-0.748V83.614h-1.36V93.953C83.242,95.3,83.99,95.773,85.214,95.773ZM87.9,85.706a0.918,0.918,0,1,0-.918-0.918A0.925,0.925,0,0,0,87.9,85.706Zm-0.68,10.016h1.36V86.947h-1.36v8.775Zm10.552-1.105a0.4,0.4,0,0,1-.476-0.425v-4.9c0-1.48-.867-2.551-3.3-2.551-2.568,0-3.469,1.207-3.571,2.908h1.36c0.085-1.309.714-1.734,2.211-1.734s1.973,0.459,1.973,1.377c0,0.782-.493,1.105-1.377,1.207l-1.258.136c-2.415.255-3.248,1.343-3.248,2.721,0,1.65,1.19,2.568,3.095,2.568a3.216,3.216,0,0,0,2.857-1.412,1.258,1.258,0,0,0,1.479,1.258,5.177,5.177,0,0,0,.748-0.051V94.616H97.768Zm-4.523.153c-1.207,0-1.752-.578-1.752-1.445,0-.85.442-1.394,2.041-1.582l1.275-.153a2.264,2.264,0,0,0,1.156-.374v1.037A2.52,2.52,0,0,1,93.245,94.769Zm10.3-8.026a3.233,3.233,0,0,0-2.755,1.513V86.947H99.5v8.775h1.36V90.756a2.5,2.5,0,0,1,2.415-2.789,1.76,1.76,0,0,1,2.007,1.956v5.8h1.36V89.787A2.8,2.8,0,0,0,103.549,86.743Zm8.77,9.183a3.619,3.619,0,0,0,3.775-3.214H114.7a2.305,2.305,0,0,1-2.381,1.99c-1.462,0-2.636-1.071-2.636-3.367s1.14-3.367,2.636-3.367a2.285,2.285,0,0,1,2.364,1.956h1.411a3.555,3.555,0,0,0-3.775-3.18c-2.432,0-4.064,1.769-4.064,4.591S109.921,95.926,112.319,95.926ZM125.2,91.334c0-2.517-1.412-4.591-4.03-4.591-2.432,0-4.048,1.837-4.048,4.591,0,2.84,1.684,4.591,4.082,4.591a3.661,3.661,0,0,0,3.775-2.874H123.57a2.254,2.254,0,0,1-2.329,1.633c-1.531,0-2.568-.9-2.7-2.874H125.2V91.334Zm-4.03-3.35a2.573,2.573,0,0,1,2.567,2.6h-5.169C118.792,88.851,119.8,87.984,121.173,87.984Zm8.736,7.941c2.159,0,3.486-.952,3.486-2.619,0-1.428-.867-2.16-3.027-2.585l-0.782-.153c-1.123-.221-1.769-0.527-1.769-1.361,0-.816.663-1.292,1.837-1.292,1.343,0,2.142.374,2.21,1.734h1.361c-0.034-1.871-1.225-2.908-3.571-2.908-2.007,0-3.2.986-3.2,2.483,0,1.36.833,2.228,2.738,2.585l0.816,0.153c1.53,0.289,2.006.646,2.006,1.428,0,0.867-.629,1.36-2.108,1.36-1.548,0-2.194-.493-2.347-1.82h-1.377C126.321,94.99,127.681,95.926,129.909,95.926Zm13.311-.2H144.8l-3.571-5.612,3.333-3.163h-1.8L138.7,90.875V83.614h-1.36V95.722h1.36V92.474l1.564-1.462Zm6.026,0.2c2.466,0,4.252-1.786,4.252-4.591s-1.786-4.591-4.252-4.591S145,88.528,145,91.334,146.78,95.926,149.246,95.926Zm0-1.224c-1.7,0-2.823-1.241-2.823-3.367s1.123-3.367,2.823-3.367,2.823,1.241,2.823,3.367S150.947,94.7,149.246,94.7Zm15.624-.085a0.4,0.4,0,0,1-.476-0.425v-4.9c0-1.48-.867-2.551-3.3-2.551-2.568,0-3.469,1.207-3.571,2.908h1.36c0.085-1.309.714-1.734,2.211-1.734s1.972,0.459,1.972,1.377c0,0.782-.493,1.105-1.377,1.207l-1.258.136c-2.415.255-3.248,1.343-3.248,2.721,0,1.65,1.19,2.568,3.095,2.568a3.215,3.215,0,0,0,2.856-1.412,1.259,1.259,0,0,0,1.48,1.258,5.173,5.173,0,0,0,.748-0.051V94.616H164.87Zm-4.523.153c-1.208,0-1.752-.578-1.752-1.445,0-.85.442-1.394,2.041-1.582l1.275-.153a2.263,2.263,0,0,0,1.156-.374v1.037A2.52,2.52,0,0,1,160.347,94.769Zm11.923-7.822v4.966a2.5,2.5,0,0,1-2.415,2.789,1.76,1.76,0,0,1-2.007-1.956v-5.8h-1.36v5.935a2.8,2.8,0,0,0,3.095,3.044,3.234,3.234,0,0,0,2.755-1.514v1.309h1.292V86.947h-1.36Zm7.176,1.19v-1.19h-1.8V84.464h-1.361v2.483h-1.445v1.19h1.445v5.816c0,1.343.834,1.819,2.194,1.819q0.408,0,.969-0.051V94.582h-0.8c-0.782,0-1-.289-1-0.748v-5.7h1.8Zm4.915,7.788c2.465,0,4.251-1.786,4.251-4.591s-1.786-4.591-4.251-4.591-4.252,1.785-4.252,4.591S181.9,95.926,184.361,95.926Zm0-1.224c-1.7,0-2.823-1.241-2.823-3.367s1.122-3.367,2.823-3.367,2.823,1.241,2.823,3.367S186.061,94.7,184.361,94.7Zm15.1-7.958a3.03,3.03,0,0,0-2.7,1.65,2.748,2.748,0,0,0-2.7-1.65,2.819,2.819,0,0,0-2.534,1.5V86.947h-1.292v8.775h1.36v-4.8c0-2.109,1.174-2.959,2.245-2.959a1.676,1.676,0,0,1,1.836,1.939v5.816h1.361v-4.8c0-2.109,1.139-2.959,2.245-2.959a1.669,1.669,0,0,1,1.836,1.939v5.816h1.36V89.77A2.789,2.789,0,0,0,199.457,86.743Zm12.252,7.873a0.4,0.4,0,0,1-.476-0.425v-4.9c0-1.48-.867-2.551-3.3-2.551-2.567,0-3.469,1.207-3.571,2.908h1.361c0.085-1.309.714-1.734,2.21-1.734s1.973,0.459,1.973,1.377c0,0.782-.493,1.105-1.377,1.207l-1.259.136c-2.415.255-3.248,1.343-3.248,2.721,0,1.65,1.191,2.568,3.095,2.568a3.217,3.217,0,0,0,2.857-1.412,1.258,1.258,0,0,0,1.479,1.258,5.187,5.187,0,0,0,.749-0.051V94.616h-0.494Zm-4.523.153c-1.207,0-1.751-.578-1.751-1.445,0-.85.442-1.394,2.04-1.582l1.276-.153a2.263,2.263,0,0,0,1.156-.374v1.037A2.52,2.52,0,0,1,207.186,94.769Zm9.864-6.632v-1.19h-1.8V84.464h-1.36v2.483h-1.446v1.19h1.446v5.816c0,1.343.833,1.819,2.193,1.819q0.41,0,.97-0.051V94.582h-0.8c-0.783,0-1-.289-1-0.748v-5.7h1.8Zm8.768,3.2c0-2.517-1.412-4.591-4.031-4.591-2.431,0-4.047,1.837-4.047,4.591,0,2.84,1.684,4.591,4.081,4.591a3.662,3.662,0,0,0,3.776-2.874h-1.412a2.254,2.254,0,0,1-2.33,1.633c-1.53,0-2.567-.9-2.7-2.874h6.666V91.334Zm-4.031-3.35a2.573,2.573,0,0,1,2.568,2.6h-5.169C219.407,88.851,220.41,87.984,221.787,87.984ZM235.9,95.722h1.581l-3.571-5.612,3.333-3.163h-1.8l-4.064,3.928V83.614h-1.361V95.722h1.361V92.474l1.564-1.462Zm9.755-1.105a0.4,0.4,0,0,1-.476-0.425v-4.9c0-1.48-.868-2.551-3.3-2.551-2.568,0-3.469,1.207-3.571,2.908h1.36c0.085-1.309.714-1.734,2.211-1.734s1.972,0.459,1.972,1.377c0,0.782-.493,1.105-1.377,1.207l-1.258.136c-2.415.255-3.248,1.343-3.248,2.721,0,1.65,1.19,2.568,3.094,2.568a3.215,3.215,0,0,0,2.857-1.412,1.258,1.258,0,0,0,1.48,1.258,5.173,5.173,0,0,0,.748-0.051V94.616h-0.493Zm-4.524.153c-1.207,0-1.751-.578-1.751-1.445,0-.85.442-1.394,2.041-1.582l1.275-.153a2.263,2.263,0,0,0,1.156-.374v1.037A2.52,2.52,0,0,1,241.129,94.769ZM251.5,86.811a3.064,3.064,0,0,0-2.823,1.683V86.947h-1.293v8.775h1.361v-5c0-1.7,1.122-2.585,2.874-2.585h0.34V86.828C251.774,86.811,251.638,86.811,251.5,86.811Zm9.226,4.523c0-2.517-1.411-4.591-4.03-4.591-2.432,0-4.047,1.837-4.047,4.591,0,2.84,1.683,4.591,4.081,4.591a3.66,3.66,0,0,0,3.775-2.874H259.1a2.254,2.254,0,0,1-2.33,1.633c-1.53,0-2.568-.9-2.7-2.874h6.666V91.334Zm-4.03-3.35a2.573,2.573,0,0,1,2.568,2.6H254.1C254.317,88.851,255.321,87.984,256.7,87.984Zm6.274-2.279a0.918,0.918,0,1,0-.918-0.918A0.925,0.925,0,0,0,262.972,85.706Zm-0.68,10.016h1.36V86.947h-1.36v8.775Zm7.421-8.979a3.231,3.231,0,0,0-2.754,1.513V86.947h-1.293v8.775h1.361V90.756a2.5,2.5,0,0,1,2.414-2.789,1.76,1.76,0,0,1,2.007,1.956v5.8h1.36V89.787A2.8,2.8,0,0,0,269.713,86.743Zm5.917,9.1a0.977,0.977,0,0,0,.969-1,1,1,0,0,0-1.989,0A0.978,0.978,0,0,0,275.63,95.841Z"/>
</svg>
