<svg id="HING" xmlns="http://www.w3.org/2000/svg" width="300" height="250" viewBox="0 0 300 250">
  <defs>
    <style>
      .cls-1 {
        fill: #4b286d;
        fill-rule: evenodd;
      }
    </style>
  </defs>
  <path id="Laayein_naya_Optik_TV_" data-name="Laayein naya Optik TV®" class="cls-1" d="M31,68.04V52.14H28.9v17.8H39.956v-1.9H31Zm21.383,0.275a0.591,0.591,0,0,1-.7-0.625v-7.2c0-2.175-1.276-3.75-4.853-3.75-3.777,0-5.1,1.775-5.253,4.275h2c0.125-1.925,1.05-2.55,3.252-2.55s2.9,0.675,2.9,2.025c0,1.15-.725,1.625-2.026,1.775l-1.851.2c-3.552.375-4.777,1.975-4.777,4,0,2.425,1.751,3.775,4.552,3.775a4.732,4.732,0,0,0,4.2-2.075,1.85,1.85,0,0,0,2.176,1.85,7.615,7.615,0,0,0,1.1-.075V68.315H52.385Zm-6.654.225c-1.776,0-2.576-.85-2.576-2.125,0-1.25.65-2.05,3-2.325l1.876-.225a3.331,3.331,0,0,0,1.7-.55V64.84A3.706,3.706,0,0,1,45.731,68.54Zm19.663-.225a0.592,0.592,0,0,1-.7-0.625v-7.2c0-2.175-1.276-3.75-4.853-3.75-3.777,0-5.1,1.775-5.253,4.275h2c0.125-1.925,1.05-2.55,3.252-2.55s2.9,0.675,2.9,2.025c0,1.15-.725,1.625-2.026,1.775l-1.851.2c-3.552.375-4.778,1.975-4.778,4,0,2.425,1.751,3.775,4.552,3.775a4.732,4.732,0,0,0,4.2-2.075,1.85,1.85,0,0,0,2.176,1.85,7.615,7.615,0,0,0,1.1-.075V68.315H65.394Zm-6.654.225c-1.776,0-2.576-.85-2.576-2.125,0-1.25.65-2.05,3-2.325l1.876-.225a3.331,3.331,0,0,0,1.7-.55V64.84A3.706,3.706,0,0,1,58.74,68.54ZM75.3,57.04l-1.826,5.35c-0.65,1.875-1.276,3.75-1.851,5.6-0.6-1.85-1.2-3.7-1.851-5.575L67.945,57.04h-2.2L70.6,70.365c-0.15.4-.3,0.825-0.45,1.2a2.261,2.261,0,0,1-2.351,1.6H66.619V74.84a9.984,9.984,0,0,0,1.2.075,3.9,3.9,0,0,0,4.2-2.95L77.475,57.04H75.3Zm14.292,6.45c0-3.7-2.076-6.75-5.928-6.75-3.577,0-5.953,2.7-5.953,6.75,0,4.175,2.476,6.75,6,6.75a5.384,5.384,0,0,0,5.553-4.225H87.189a3.315,3.315,0,0,1-3.427,2.4c-2.251,0-3.777-1.325-3.977-4.225h9.805v-0.7Zm-5.928-4.925c2.3,0,3.577,1.7,3.777,3.825h-7.6C80.161,59.84,81.637,58.565,83.663,58.565Zm8.967-3.35a1.35,1.35,0,1,0-1.351-1.35A1.361,1.361,0,0,0,92.63,55.215Zm-1,14.725h2V57.04h-2v12.9Zm10.655-13.2a4.756,4.756,0,0,0-4.052,2.225V57.04h-1.9v12.9h2v-7.3c0-2.85,1.876-4.1,3.552-4.1,1.851,0,2.952.875,2.952,2.875V69.94h2V61.215C106.837,58.365,105.161,56.74,102.284,56.74Zm19.41,0a4.756,4.756,0,0,0-4.027,2.15V57.04h-3.052v12.9h3.152V62.715c0-2.3,1.5-3.25,2.876-3.25a2.156,2.156,0,0,1,2.427,2.45V69.94h3.151V61.39C126.221,58.315,124.4,56.74,121.694,56.74ZM140.2,69.94a4.884,4.884,0,0,1-.525-2.45V60.615c0-2.325-1.526-3.875-5.378-3.875-4.027,0-5.628,1.675-5.8,4.4h3.1c0.125-1.575.876-2.05,2.677-2.05,1.826,0,2.351.6,2.351,1.6,0,0.95-.625,1.325-1.826,1.475l-1.951.175c-3.652.35-4.953,1.875-4.953,4.025,0,2.5,1.9,3.875,4.653,3.875a4.8,4.8,0,0,0,4.152-1.875,4.2,4.2,0,0,0,.35,1.575H140.2Zm-6.9-1.95c-1.45,0-2.176-.675-2.176-1.75,0-1.025.575-1.65,2.326-1.85l1.7-.2a2.508,2.508,0,0,0,1.476-.525V64.84A3.029,3.029,0,0,1,133.3,67.99Zm16.621-10.95-1.051,3.25c-0.7,2.275-1.4,4.625-2.076,7.175-0.65-2.525-1.35-4.95-2.051-7.2l-1.05-3.225h-3.4l3.752,10.6a8.654,8.654,0,0,1,.6,2.6,1.927,1.927,0,0,1-2.126,2.075h-1.2V74.79a10.312,10.312,0,0,0,1.376.075c3.127,0,4.528-1,5.553-3.875l4.978-13.95h-3.3Zm15.508,12.9a4.883,4.883,0,0,1-.526-2.45V60.615c0-2.325-1.525-3.875-5.377-3.875-4.028,0-5.628,1.675-5.8,4.4h3.1c0.125-1.575.876-2.05,2.677-2.05,1.826,0,2.351.6,2.351,1.6,0,0.95-.625,1.325-1.826,1.475l-1.951.175c-3.652.35-4.953,1.875-4.953,4.025,0,2.5,1.9,3.875,4.653,3.875a4.8,4.8,0,0,0,4.152-1.875,4.2,4.2,0,0,0,.35,1.575h3.152Zm-6.9-1.95c-1.451,0-2.176-.675-2.176-1.75,0-1.025.575-1.65,2.326-1.85l1.7-.2a2.511,2.511,0,0,0,1.476-.525V64.84A3.029,3.029,0,0,1,158.522,67.99Zm22.761,2.35c5.328,0,8.88-3.7,8.88-9.3s-3.552-9.3-8.88-9.3c-5.353,0-8.905,3.7-8.905,9.3S175.93,70.34,181.283,70.34Zm0-2.975c-3.252,0-5.378-2.4-5.378-6.325s2.126-6.325,5.378-6.325,5.378,2.4,5.378,6.325S184.535,67.365,181.283,67.365ZM199.262,56.74a4.653,4.653,0,0,0-4.127,2.15V57.04h-3.027v17.8h3.152V68.265a4.617,4.617,0,0,0,4,1.975c3.552,0,5.778-2.65,5.778-6.75S202.814,56.74,199.262,56.74Zm-0.75,10.9c-2.051,0-3.327-1.425-3.327-4.15s1.276-4.15,3.327-4.15,3.327,1.325,3.327,4.05S200.563,67.64,198.512,67.64Zm14.752-8.2v-2.4h-2.551V53.29h-3.127v3.75h-2v2.4h2v7.3c0,2.375,1.3,3.3,4.027,3.3,0.5,0,1.076-.05,1.651-0.1v-2.4h-1.075c-1.051,0-1.476-.275-1.476-1.125V59.44h2.551Zm3-3.95a1.738,1.738,0,1,0-1.751-1.725A1.729,1.729,0,0,0,216.26,55.49Zm-1.575,14.45h3.151V57.04h-3.151v12.9Zm14.324,0h3.6l-5.177-8.025,4.877-4.875h-3.752l-5.253,5.35V52.14h-3.1v17.8h3.1V65.89l1.951-1.95Zm24.537-17.8H238.739v3.025h5.7V69.94h3.4V55.165h5.7V52.14Zm14.12,0-3.152,9.2c-0.575,1.75-1.175,3.65-1.676,5.55-0.525-1.9-1.125-3.8-1.7-5.55l-3.227-9.2h-3.6l6.528,17.8h3.952l6.379-17.8h-3.5Zm6.643-.031a2.406,2.406,0,1,0,2.479,2.41A2.419,2.419,0,0,0,274.309,52.109Zm0,4.285a1.885,1.885,0,1,1,1.925-1.875A1.864,1.864,0,0,1,274.309,56.393Zm1-1.341a0.522,0.522,0,0,0-.291-0.515,0.6,0.6,0,0,0,.35-0.573,0.753,0.753,0,0,0-.9-0.719h-1.127v2.487h0.563V54.81h0.525c0.224,0,.292.078,0.311,0.321l0.02,0.262a0.68,0.68,0,0,0,.087.34h0.593a0.568,0.568,0,0,1-.107-0.34Zm-1.4-.709V53.731h0.516a0.309,0.309,0,1,1,.019.612H273.91Z"/>
</svg>
