<svg id="Frame_3" data-name="Frame 3" xmlns="http://www.w3.org/2000/svg" width="300" height="250" viewBox="0 0 300 250">
  <defs>
    <style>
      .cls-1 {
        fill: #4b286d;
        fill-rule: evenodd;
      }
    </style>
  </defs>
  <path id="SmartHome_Security_" data-name="SmartHome Security " class="cls-1" d="M47.61,76.425c4.1,0,6.406-1.992,6.406-5.015,0-2.471-1.392-4.007-5.327-4.871L47.179,66.2c-3.215-.72-4.007-1.536-4.007-3.167,0-1.608,1.272-2.639,3.743-2.639,3.407,0,4.439,1.32,4.607,3.527h2.063c-0.072-2.783-1.632-5.351-6.67-5.351-3.551,0-5.83,1.728-5.83,4.463,0,3.119,2.279,4.295,5.183,4.943l1.512,0.336c3.023,0.672,4.151,1.464,4.151,3.1,0,2.112-1.584,3.191-4.319,3.191-2.783,0-4.967-1.032-5.015-4.2H40.508C40.556,74.673,43.532,76.425,47.61,76.425ZM69.259,63.372A4.276,4.276,0,0,0,65.444,65.7a3.877,3.877,0,0,0-3.815-2.327,3.977,3.977,0,0,0-3.575,2.111V63.66H56.231V76.041H58.15V69.275c0-2.975,1.656-4.175,3.167-4.175,1.608,0,2.591.816,2.591,2.735v8.206h1.919V69.275C65.828,66.3,67.435,65.1,69,65.1c1.632,0,2.591.816,2.591,2.735v8.206h1.919v-8.4A3.935,3.935,0,0,0,69.259,63.372ZM86.53,74.481a0.568,0.568,0,0,1-.672-0.6v-6.91c0-2.088-1.224-3.6-4.655-3.6-3.623,0-4.895,1.7-5.039,4.1h1.919c0.12-1.847,1.008-2.447,3.119-2.447s2.783,0.648,2.783,1.944c0,1.1-.7,1.56-1.943,1.7l-1.776.192c-3.407.36-4.583,1.9-4.583,3.839,0,2.327,1.68,3.623,4.367,3.623a4.538,4.538,0,0,0,4.031-1.991,1.775,1.775,0,0,0,2.087,1.775,7.3,7.3,0,0,0,1.056-.072v-1.56h-0.7Zm-6.382.216c-1.7,0-2.471-.816-2.471-2.04,0-1.2.624-1.968,2.879-2.231l1.8-.216a3.194,3.194,0,0,0,1.632-.528v1.464A3.556,3.556,0,0,1,80.148,74.7ZM94.763,63.468a4.323,4.323,0,0,0-3.983,2.375V63.66H88.957V76.041h1.919V68.987c0-2.4,1.584-3.647,4.055-3.647h0.48V63.492C95.147,63.468,94.955,63.468,94.763,63.468Zm8.4,1.871V63.66h-2.544v-3.5H98.7v3.5H96.666V65.34H98.7v8.206c0,1.9,1.176,2.567,3.1,2.567q0.576,0,1.368-.072V74.433H102.04c-1.1,0-1.416-.408-1.416-1.056V65.34h2.544Zm13.553-6.382V66.3H107.2V58.958H105.18V76.041H107.2v-7.87h9.525v7.87h2.015V58.958h-2.015Zm10.446,17.371c3.479,0,6-2.519,6-6.478s-2.52-6.478-6-6.478-6,2.519-6,6.478S123.688,76.329,127.167,76.329Zm0-1.728c-2.4,0-3.983-1.751-3.983-4.751s1.584-4.751,3.983-4.751,3.983,1.751,3.983,4.751S129.567,74.6,127.167,74.6Zm21.276-11.229a4.277,4.277,0,0,0-3.815,2.327,3.876,3.876,0,0,0-3.815-2.327,3.978,3.978,0,0,0-3.575,2.111V63.66h-1.823V76.041h1.919V69.275c0-2.975,1.656-4.175,3.168-4.175,1.607,0,2.591.816,2.591,2.735v8.206h1.919V69.275c0-2.975,1.608-4.175,3.167-4.175,1.632,0,2.592.816,2.592,2.735v8.206h1.919v-8.4A3.935,3.935,0,0,0,148.443,63.372Zm17.881,6.478c0-3.551-1.992-6.478-5.687-6.478-3.431,0-5.71,2.591-5.71,6.478,0,4.007,2.375,6.478,5.758,6.478a5.165,5.165,0,0,0,5.327-4.055h-1.991a3.181,3.181,0,0,1-3.288,2.3c-2.159,0-3.623-1.272-3.815-4.055h9.406V69.851Zm-5.687-4.727c2.208,0,3.432,1.631,3.623,3.671h-7.294C157.278,66.348,158.694,65.124,160.637,65.124Zm18,11.3c4.1,0,6.406-1.992,6.406-5.015,0-2.471-1.392-4.007-5.326-4.871l-1.512-.336c-3.215-.72-4.007-1.536-4.007-3.167,0-1.608,1.272-2.639,3.743-2.639,3.407,0,4.439,1.32,4.607,3.527h2.063c-0.072-2.783-1.631-5.351-6.67-5.351-3.551,0-5.83,1.728-5.83,4.463,0,3.119,2.279,4.295,5.182,4.943l1.512,0.336c3.023,0.672,4.151,1.464,4.151,3.1,0,2.112-1.584,3.191-4.319,3.191-2.783,0-4.967-1.032-5.015-4.2h-2.087C171.583,74.673,174.558,76.425,178.637,76.425Zm19.314-6.574c0-3.551-1.992-6.478-5.687-6.478-3.431,0-5.71,2.591-5.71,6.478,0,4.007,2.375,6.478,5.758,6.478a5.165,5.165,0,0,0,5.327-4.055h-1.992a3.18,3.18,0,0,1-3.287,2.3c-2.159,0-3.623-1.272-3.815-4.055h9.406V69.851Zm-5.687-4.727c2.208,0,3.431,1.631,3.623,3.671h-7.294C188.905,66.348,190.321,65.124,192.264,65.124Zm13.044,11.2a5.107,5.107,0,0,0,5.327-4.535h-1.968a3.252,3.252,0,0,1-3.359,2.807c-2.063,0-3.719-1.512-3.719-4.751S203.2,65.1,205.308,65.1a3.223,3.223,0,0,1,3.335,2.759h1.992a5.018,5.018,0,0,0-5.327-4.487c-3.431,0-5.734,2.5-5.734,6.478S201.925,76.329,205.308,76.329ZM220.8,63.66v7.006c0,2.735-1.8,3.935-3.407,3.935-1.776,0-2.831-.84-2.831-2.759V63.66h-1.92v8.374c0,2.735,1.608,4.295,4.367,4.295a4.562,4.562,0,0,0,3.887-2.135v1.847h1.823V63.66H220.8Zm10.584-.192a4.324,4.324,0,0,0-3.983,2.375V63.66h-1.823V76.041h1.919V68.987c0-2.4,1.584-3.647,4.055-3.647h0.48V63.492C231.765,63.468,231.573,63.468,231.381,63.468Zm3.383-1.56a1.3,1.3,0,1,0-1.3-1.3A1.306,1.306,0,0,0,234.764,61.909ZM233.8,76.041h1.92V63.66H233.8V76.041Zm10.052-10.7V63.66h-2.543v-3.5h-1.919v3.5h-2.04V65.34h2.04v8.206c0,1.9,1.175,2.567,3.095,2.567q0.576,0,1.367-.072V74.433h-1.127c-1.1,0-1.416-.408-1.416-1.056V65.34h2.543Zm10.3-1.679-1.752,5.135c-0.624,1.8-1.224,3.6-1.775,5.374-0.576-1.775-1.152-3.551-1.776-5.35l-1.751-5.159h-2.112l4.655,12.789c-0.144.384-.288,0.792-0.432,1.152a2.169,2.169,0,0,1-2.255,1.536h-1.128v1.608a9.575,9.575,0,0,0,1.152.072,3.74,3.74,0,0,0,4.03-2.831l5.231-14.324h-2.087Z"/>
</svg>
