<svg id="SC" xmlns="http://www.w3.org/2000/svg" width="300" height="250" viewBox="0 0 300 250">
  <defs>
    <style>
      .cls-1 {
        fill: #fff;
        fill-rule: evenodd;
      }
    </style>
  </defs>
  <path id="立即登记" class="cls-1" d="M233.893,228.807v-0.836l-3.954-.023,0.608-.435a4.381,4.381,0,0,0-1.937-1.685l-0.733.6a3.774,3.774,0,0,1,1.868,1.547H225.6v0.836h8.3Zm0.55,6.509v-0.837h-3.816a10.585,10.585,0,0,0,.968-1.713,11.179,11.179,0,0,0,.659-1.833,15.744,15.744,0,0,0,.332-1.564L231.715,229a12.6,12.6,0,0,1-.733,2.962,10.259,10.259,0,0,1-1.375,2.515h-4.526v0.837h9.362Zm-5.237-1.536a9.048,9.048,0,0,0-.6-2.606,6.58,6.58,0,0,0-1.283-2.195l-0.8.39a4.965,4.965,0,0,1,.842,1.232,9.5,9.5,0,0,1,.619,1.638,10.558,10.558,0,0,1,.349,1.805Zm16.489-7.173h-3.667V236.3H242.9v-8.857h1.925v5.569a0.417,0.417,0,0,1-.2.435,2.546,2.546,0,0,1-.607.04l-0.459-.006,0.23,0.848h0.538a3.123,3.123,0,0,0,.722-0.068,1.193,1.193,0,0,0,.458-0.333,0.745,0.745,0,0,0,.184-0.492v-6.83Zm-4.567,7.064A9.25,9.25,0,0,0,240,232.256l-0.756.4q0.5,0.54.721,0.825l-2.039.951,0.023-2.624H241.2V226.5h-4.148v7.872a0.605,0.605,0,0,1-.12.424,1.051,1.051,0,0,1-.315.218l0.767,0.653q1.455-.79,3.071-1.49a7.848,7.848,0,0,1,.7,1.352q0.114-.033.779-0.332A7.219,7.219,0,0,0,241.128,233.671Zm-0.8-4.967h-2.406v-1.363h2.406V228.7Zm0,2.269h-2.406l0.023-1.432h2.383v1.432Zm17.543-.08a7.693,7.693,0,0,1-2.235-1.5,5.992,5.992,0,0,0,1.375-1.513l-0.653-.492a6.5,6.5,0,0,1-1.294,1.386,0.194,0.194,0,0,1-.081-0.069c-0.03-.038-0.145-0.187-0.343-0.447a4.459,4.459,0,0,0,.658-0.624,9.114,9.114,0,0,0,.636-0.808c-0.328-.267-0.55-0.439-0.664-0.516a5.546,5.546,0,0,1-1.031,1.2,10.81,10.81,0,0,1-.711-1.639l-0.733.355a10.215,10.215,0,0,0,.636,1.559,6.026,6.026,0,0,0,.75,1.26h-2.761a4.268,4.268,0,0,0,1-2.5h-4.034v0.837h2.98a3.63,3.63,0,0,1-.413.847,4.114,4.114,0,0,1-.6.734,5.333,5.333,0,0,0-.647-0.67,3.6,3.6,0,0,0-.6-0.442l-0.584.585a6.5,6.5,0,0,1,.928.733,2.964,2.964,0,0,1,.275.344,8.772,8.772,0,0,1-2.166,1.295l0.608,0.687a9.068,9.068,0,0,0,2.841-1.982l0.012,0.366H254.5l0.023-.492a6.176,6.176,0,0,0,1.2,1.209,10.964,10.964,0,0,0,1.61,1Zm-0.47,4.721v-0.837h-3.117a4.441,4.441,0,0,0,.608-0.882l-0.745-.424a4.163,4.163,0,0,1-1,1.306h-0.962a5.039,5.039,0,0,0-.952-1.34h4.332v-2.716h-5.661v2.716l1.169,0.022-0.687.333a7.6,7.6,0,0,1,.721.687,2.237,2.237,0,0,1,.218.3h-3.265v0.837H257.4Zm-2.7-3.014h-3.919v-1.043H254.7V232.6Zm13.406,0.63a6.732,6.732,0,0,1-.172,1.318,0.527,0.527,0,0,1-.16.252,0.382,0.382,0,0,1-.252.138h-2.739a0.389,0.389,0,0,1-.28-0.1,0.358,0.358,0,0,1-.109-0.275v-3.517H267.2v0.63h0.905V226.7H263.1v0.837h4.1v2.669h-3.713v4.481a0.979,0.979,0,0,0,.367.779,1.218,1.218,0,0,0,.8.309h2.922a1.144,1.144,0,0,0,.493-0.12,1.114,1.114,0,0,0,.435-0.384,1.7,1.7,0,0,0,.252-0.516,5.694,5.694,0,0,0,.229-1.168Zm-6.073-5.637a4.865,4.865,0,0,0-1.535-1.685l-0.63.505a5.244,5.244,0,0,1,1.443,1.73Zm1.192,7.07v-0.951l-1.455.836v-5.454h-2.487v0.836H260.9v4.641a0.722,0.722,0,0,1-.3.55l0.516,0.733Z"/>
</svg>
