<svg id="Frame_3" data-name="Frame 3" xmlns="http://www.w3.org/2000/svg" width="300" height="250" viewBox="0 0 300 250">
  <defs>
    <style>
      .cls-1 {
        fill: #58595b;
        fill-rule: evenodd;
      }
    </style>
  </defs>
  <path id="_有若干条件_" data-name="*有若干条件。 " class="cls-1" d="M10.995,238.434a7.251,7.251,0,0,0-.8.329l0.014-.077a5.8,5.8,0,0,0,.063-0.77H9.777q0,0.133.056,0.777L9.84,238.77a2.214,2.214,0,0,0-.3-0.151c-0.119-.049-0.279-0.11-0.479-0.185l-0.161.49q0.378,0.092.84,0.189a2.918,2.918,0,0,0-.28.3l-0.245.294-0.042.049,0.4,0.294a6.141,6.141,0,0,0,.413-0.672l0.035-.063,0.042,0.07c0.187,0.313.329,0.534,0.427,0.665l0.406-.294-0.056-.07-0.238-.266-0.231-.252-0.063-.056c0.117-.014.259-0.04,0.427-0.077s0.31-.075.427-0.112Zm6.927,0.168v-0.511H14.359q0.168-.575.231-0.868l-0.539-.119a9.678,9.678,0,0,1-.273.987H12.112V238.6h1.47a4.656,4.656,0,0,1-.717,1.27,9.151,9.151,0,0,1-1.18,1.25l0.49,0.322q0.637-.651.851-0.9a4.56,4.56,0,0,0,.332-0.42v3.339h0.553V241.99h2.632v0.693a0.114,0.114,0,0,1-.035.084,0.125,0.125,0,0,1-.091.035,5.216,5.216,0,0,1-.882-0.035q0.063,0.161.245,0.539h0.4a2.817,2.817,0,0,0,.528-0.035,0.614,0.614,0,0,0,.248-0.175,0.471,0.471,0,0,0,.116-0.266v-3.577H13.9q0.091-.189.252-0.651h3.766Zm-1.379,1.729H13.911v-0.567h2.632v0.567Zm0,1.148H13.911v-0.637h2.632v0.637Zm8.344-2.814v-0.511H23.431v-0.931H22.9v0.931h-2v-0.931H20.372v0.931H18.93v0.511h1.442v0.77H20.9v-0.77h2v0.749h0.532v-0.749h1.456Zm-0.14,1.547V239.7H21.9a7.431,7.431,0,0,0,.3-0.742l-0.49-.21a5.313,5.313,0,0,1-.441.952H19.133v0.511h1.834a4.468,4.468,0,0,1-.7.728,11.55,11.55,0,0,1-1.39.959l0.392,0.406a12.109,12.109,0,0,0,1.2-.826v1.988h0.532v-0.5h2.492v0.5h0.532v-2.513h-3a6.165,6.165,0,0,0,.581-0.742h3.15Zm-1.26,2.247H20.995v-0.994h2.492v0.994Zm8.038-2.142v-0.532H29.012v-1.631H31.07v-0.532H26.408v0.532h2.051v1.631H25.932v0.532h2.527v3.164h0.553v-3.164h2.513Zm7.358,0.1q-1.19-.35-1.775-0.578a7.889,7.889,0,0,1-.928-0.416,5.98,5.98,0,0,0,.823-0.69,2.672,2.672,0,0,0,.444-0.591v-0.434H34.956c0.056-.107.091-0.175,0.1-0.2a0.651,0.651,0,0,0,.035-0.084l-0.448-.2a4.114,4.114,0,0,1-.791,1.1,2.927,2.927,0,0,1-1.106.728l0.392,0.441a3.65,3.65,0,0,0,1.2-.9,1.524,1.524,0,0,0,.28.332,4.344,4.344,0,0,0,.371.294q0.21,0.151.252,0.186a8.093,8.093,0,0,1-.773.357,18.261,18.261,0,0,1-2,.595l0.343,0.462q1.064-.28,1.831-0.564a4.952,4.952,0,0,0,1.088-.514,7.493,7.493,0,0,0,.984.5q0.563,0.242,1.767.627Zm-0.147,2.226c-0.084-.075-0.183-0.155-0.3-0.242a4.56,4.56,0,0,0-.389-0.259,3.946,3.946,0,0,0-.462-0.234q-0.245-.1-0.612-0.235c-0.245-.086-0.377-0.131-0.4-0.136l-0.28.42a6.8,6.8,0,0,1,1.355.556,3.393,3.393,0,0,1,.745.585ZM37.994,241.3v-0.511H35.985v-0.427H35.453v0.427h-2.1V241.3h2.1v1.5a0.149,0.149,0,0,1-.046.087,0.113,0.113,0,0,1-.081.039l-0.686-.035,0.2,0.56h0.714a0.36,0.36,0,0,0,.308-0.172,0.675,0.675,0,0,0,.119-0.4V241.3h2.009Zm-3.283.2a4.23,4.23,0,0,1-.924.633,5.091,5.091,0,0,1-1.19.41l0.371,0.483a6.824,6.824,0,0,0,1.127-.469,4.472,4.472,0,0,0,.952-0.693Zm2.1-3.29a3.957,3.957,0,0,1-1.106.9,4.012,4.012,0,0,1-1.064-.9h2.17ZM46.051,241v-0.532H44.119v-1.393h1.456v-0.532H44.119v-1.386H43.566v1.386H42.8a3.312,3.312,0,0,0,.105-0.714l-0.483-.154a5.111,5.111,0,0,1-.3,1.221,4.426,4.426,0,0,1-.6,1.061l0.49,0.245a6.554,6.554,0,0,0,.609-1.127h0.945v1.393H41.613V241h1.953v2.443h0.553V241h1.932Zm-4.774-3.815a7.223,7.223,0,0,1-1.561,3.318l0.455,0.322,0.644-.945v3.6h0.532v-4.606a8.548,8.548,0,0,0,.434-1.589Zm8.613,2.992a0.945,0.945,0,0,0-.164-0.388,0.832,0.832,0,0,0-.35-0.287,0.987,0.987,0,0,0-.455-0.077,0.809,0.809,0,0,0-.473.192,0.882,0.882,0,0,0-.3.424,0.915,0.915,0,0,0-.024.458,0.835,0.835,0,0,0,.185.4,0.928,0.928,0,0,0,.353.252,0.972,0.972,0,0,0,.431.07,0.833,0.833,0,0,0,.462-0.2,0.937,0.937,0,0,0,.3-0.423A0.848,0.848,0,0,0,49.889,240.173Zm-0.451.221a0.415,0.415,0,0,1-.119.238,0.462,0.462,0,0,1-.242.126,0.441,0.441,0,0,1-.27-0.028,0.48,0.48,0,0,1-.157-0.133,0.455,0.455,0,0,1-.095-0.189,0.433,0.433,0,0,1,.014-0.217,0.491,0.491,0,0,1,.1-0.189,0.417,0.417,0,0,1,.2-0.119,0.447,0.447,0,0,1,.235-0.007,0.475,0.475,0,0,1,.182.1,0.492,0.492,0,0,1,.126.165A0.5,0.5,0,0,1,49.438,240.394Z"/>
</svg>
