<svg id="Frame_3" data-name="Frame 3" xmlns="http://www.w3.org/2000/svg" width="300" height="250" viewBox="0 0 300 250">
  <defs>
    <style>
      .cls-1 {
        fill: #462b69;
        fill-rule: evenodd;
      }
    </style>
  </defs>
  <path id="_15起_" data-name="15起* " class="cls-1" d="M63.164,123.759H59.506c-0.752,3.479-2.872,4.434-6.017,4.638l-0.547.035v3.24h5.607v16.371h4.615V123.759Zm12.467,8.322a6.942,6.942,0,0,0-4.445,1.6l1.06-6.037H82.709v-3.888H68.623l-2.256,14.154h4.239a4.738,4.738,0,1,1,4.274,6.958A4.33,4.33,0,0,1,70.3,141.12h-4.41c0.342,4.638,4.068,7.469,8.992,7.469,5.367,0,9.094-3.376,9.094-8.424C83.973,135.867,81.238,132.081,75.632,132.081Zm18.441,12.1v-3.511H90.523V142.6h-1.61v-0.688h1.47v-1.147h-1.47v-0.908h-1.04c-0.213,0-.32.044-0.32,0.13a0.171,0.171,0,0,0,.095.155,0.178,0.178,0,0,1,.085.184l-0.01.439h-1.69v1.147h1.7V142.6h-2.08v1.167h2.21l-0.02,2.674a2.408,2.408,0,0,0-.185-0.23,2.593,2.593,0,0,1-.23-0.3,0.734,0.734,0,0,1-.095-0.2q0.05-.588.08-1.506l-1.17-.129a14.962,14.962,0,0,1-.07,1.775,3.9,3.9,0,0,1-.74,1.855,1.676,1.676,0,0,1,.445.275q0.2,0.174.5,0.473l0.06,0.06a5.789,5.789,0,0,0,.45-0.728,2.852,2.852,0,0,0,.13-0.319l0.09-.319a2.8,2.8,0,0,0,.73.868c0.06,0.046.17,0.121,0.33,0.224a1.851,1.851,0,0,0,.64.234,6.192,6.192,0,0,0,1.15.08h4.209a4.728,4.728,0,0,1,.38-1.346l-1.58.079h-3.2a1.628,1.628,0,0,1-.56-0.054,0.354,0.354,0,0,1-.14-0.125v-1.317h1.31l0.01-1.147-1.32.01v-0.888h1.45v2.115l0.02,0.309a0.779,0.779,0,0,0,.25.5,0.717,0.717,0,0,0,.52.229h2.06l0.19-.02a0.991,0.991,0,0,0,.45-0.244,1.2,1.2,0,0,0,.31-0.5,4.493,4.493,0,0,0,.18-0.778,5.651,5.651,0,0,1-.63-0.209l-0.48-.289-0.03.329a0.881,0.881,0,0,1-.095.414,0.24,0.24,0,0,1-.2.1h-1.14a0.191,0.191,0,0,1-.135-0.064,0.212,0.212,0,0,1-.065-0.155l0.01-1.317h1.16v0.29l1.17,0.01Zm-1.2-1.177h-1.14v-1.187h1.14v1.187Zm4.142-2.076a7.272,7.272,0,0,0-.717.332,5.819,5.819,0,0,0,.1-0.774H95.826a4.427,4.427,0,0,0,.1.774q-0.128-.081-0.35-0.192c-0.148-.074-0.26-0.126-0.338-0.157l-0.186.552a7.107,7.107,0,0,0,.758.152,6.533,6.533,0,0,0-.56.546l0.478,0.361a6.536,6.536,0,0,0,.379-0.681,2.244,2.244,0,0,0,.137.274q0.079,0.133.236,0.4l0.472-.337a3.329,3.329,0,0,0-.236-0.273,3.471,3.471,0,0,0-.289-0.285q0.222-.024.764-0.128Z"/>
  <path id="_" data-name="$" class="cls-1" d="M51.78,133.416c0-1.809-1.088-2.85-3.778-3.378l-0.368-.064v-3.169a1.789,1.789,0,0,1,1.713,1.857h2.1c-0.08-1.953-1.2-3.362-3.809-3.618v-1.633H46.482v1.6c-2.529.112-3.906,1.409-3.906,3.217,0,2.065,1.457,3.042,3.665,3.458l0.24,0.048v3.393a2.063,2.063,0,0,1-2.065-2.225H42.288c0.016,2.417,1.569,3.794,4.194,3.986v1.633h1.152v-1.617C50.211,136.777,51.78,135.544,51.78,133.416Zm-6.995-5.251c0-.784.56-1.312,1.7-1.392v2.945C45.2,129.4,44.785,128.982,44.785,128.165Zm2.849,7v-3.185c1.409,0.336,1.9.736,1.9,1.553C49.539,134.5,48.867,135.064,47.634,135.16Z"/>
  <path id="每月计划_SC" data-name="每月计划 SC" class="cls-1" d="M61.461,111.56v-0.73h-5.78a2,2,0,0,1,.115-0.245,2.077,2.077,0,0,0,.155-0.385l-0.729-.24a6.968,6.968,0,0,1-.444,1,8.265,8.265,0,0,1-1.752,2.2l0.619,0.47a9.99,9.99,0,0,0,1.687-2.07h6.13Zm0.21,3.79v-0.73H60.633q0-.02.065-0.9t0.075-1.37h-5.92q-0.15,1.5-.185,1.765c-0.023.177-.048,0.345-0.075,0.505H53v0.73h1.488q-0.17,1.04-.5,2.39H59.4a1.058,1.058,0,0,1-.17.445,0.359,0.359,0,0,1-.26.125q-0.15.01-.514,0a8.844,8.844,0,0,1-1.213-.17l0.27,0.77a10.306,10.306,0,0,0,1.308.11,4.913,4.913,0,0,0,.549-0.04,0.861,0.861,0,0,0,.409-0.19,1.079,1.079,0,0,0,.294-0.43,3.484,3.484,0,0,0,.185-0.62h0.978v-0.73H60.353l0.23-1.66h1.088Zm-1.727-2.27q0,0.48-.12,1.54H55.381c0.026-.153.06-0.422,0.1-0.805s0.067-.628.08-0.735h4.383Zm-0.18,2.27q-0.09.77-.22,1.66H54.992l0.29-1.66H56.33l-0.419.55a9.039,9.039,0,0,1,1.5.535,4.21,4.21,0,0,1,.849.545l0.529-.52a4.568,4.568,0,0,0-1.028-.66,6.244,6.244,0,0,0-1.228-.45h3.235Zm-0.909-1.31a3.051,3.051,0,0,0-.9-0.555,6.045,6.045,0,0,0-1.348-.355l-0.519.55a5.41,5.41,0,0,1,1.233.34,3.989,3.989,0,0,1,.993.57Zm10.424-3.48H64.328v4.62a3.362,3.362,0,0,1-.509,1.77,5.031,5.031,0,0,1-1.428,1.49l0.489,0.71a8.072,8.072,0,0,0,1.458-1.52,4.913,4.913,0,0,0,.759-1.73h3.365v1.96a0.186,0.186,0,0,1-.08.145,0.267,0.267,0,0,1-.17.065l-1.288-.04,0.3,0.8h1.208a1.021,1.021,0,0,0,.394-0.085,0.709,0.709,0,0,0,.329-0.28,0.727,0.727,0,0,0,.125-0.4v-7.51Zm-0.819,2.3H65.116v-1.57h3.344v1.57Zm0,2.31H65.116q0.02-.26.015-0.8t0-.78h3.325v1.58Zm11.222-1.4v-0.73H77.357v-2.97H76.6v2.97H74.272v0.73H76.6v5.28h0.759v-5.28h2.326Zm-6.12-2.29a4.544,4.544,0,0,0-1.358-1.49l-0.539.46a4.639,4.639,0,0,1,1.268,1.51Zm1.218,6.31v-0.83l-1.5.82v-4.99H71.067v0.73h1.458v4.29a0.481,0.481,0,0,1-.06.25,0.956,0.956,0,0,1-.2.22l0.449,0.64Zm14.184-7.75H88.206V118a0.228,0.228,0,0,1-.065.195,0.433,0.433,0,0,1-.165.065l-1.038-.03,0.27,0.77c0.066,0,.216,0,0.449.01a2.921,2.921,0,0,0,.529-0.02,1.4,1.4,0,0,0,.3-0.08,0.761,0.761,0,0,0,.479-0.76v-8.11Zm-5.381.35c-0.087.087-.273,0.243-0.559,0.47a3.692,3.692,0,0,1,1.448,1.45,2.581,2.581,0,0,0,.329-0.255c0.133-.117.226-0.2,0.279-0.235a4.128,4.128,0,0,0-1.5-1.43h0Zm3.544,6.52v-5.66H86.369v5.66h0.759Zm-1.517-.1q-0.07.37-.32,1.28a0.118,0.118,0,0,1-.09.075,0.23,0.23,0,0,1-.09-0.035,4.165,4.165,0,0,1-1.278-1.73A8.6,8.6,0,0,0,85.61,114l-0.6-.44a10.816,10.816,0,0,1-.679,1.095,8.575,8.575,0,0,1-.8.985,11.6,11.6,0,0,1-.489-2.25l2.965-.44-0.1-.74-2.945.45-0.09-1.44v-1.15H82.086q-0.01.84,0.08,2.7l-1.408.21,0.1,0.72,1.408-.2a13.353,13.353,0,0,0,.25,1.37,11.6,11.6,0,0,0,.379,1.31,9.014,9.014,0,0,1-2.436,1.35l0.589,0.63a6.973,6.973,0,0,0,.879-0.415q0.439-.245,1.268-0.825a9.194,9.194,0,0,0,.869,1.33,2.122,2.122,0,0,0,.539.545,1.55,1.55,0,0,0,.459.195,0.62,0.62,0,0,0,.454-0.02,0.7,0.7,0,0,0,.235-0.24,4.624,4.624,0,0,0,.579-1.64Z"/>
</svg>
