<svg id="Frame_3" data-name="Frame 3" xmlns="http://www.w3.org/2000/svg" width="300" height="250" viewBox="0 0 300 250">
  <defs>
    <style>
      .cls-1 {
        fill: #462b69;
        fill-rule: evenodd;
      }
    </style>
  </defs>
  <path id="_15起_" data-name="15起* " class="cls-1" d="M61.984,123.494H58.332c-0.751,3.488-2.868,4.445-6.008,4.65l-0.546.035v3.248h5.6V147.84h4.609V123.494Zm12.449,8.343A6.918,6.918,0,0,0,70,133.444l1.058-6.052H81.5v-3.9H67.435l-2.253,14.191h4.233a4.736,4.736,0,1,1,4.267,6.975,4.328,4.328,0,0,1-4.574-3.761H64.7c0.341,4.65,4.062,7.488,8.978,7.488,5.36,0,9.081-3.385,9.081-8.446C82.763,135.633,80.032,131.837,74.433,131.837ZM92.358,144.4a2.223,2.223,0,0,1-.2.93,0.69,0.69,0,0,1-.659.37H90.74a0.384,0.384,0,0,1-.429-0.44v-1.84h1.507v0.48h1v-3.99H89.063v0.93h2.755v1.65H89.3v3.03a1.524,1.524,0,0,0,.075.485,0.983,0.983,0,0,0,.2.365,0.94,0.94,0,0,0,.339.21,1.264,1.264,0,0,0,.459.08H91.8a1.336,1.336,0,0,0,1.228-.66,3.392,3.392,0,0,0,.359-1.21Zm1.268,2.9a4.518,4.518,0,0,1-.589.06c-0.253.014-.463,0.02-0.629,0.02H89.133a4.242,4.242,0,0,1-1.378-.25v-1.47h1.1v-0.93h-1.1v-1h1.188V142.8H87.286v-1.17h1.408V140.7H87.286v-1.22h-1v1.22H84.87v0.93h1.418v1.17H84.531v0.93h2.226v2.92a3.568,3.568,0,0,1-.6-0.5,3.651,3.651,0,0,0,.05-0.62v-1.21h-1v1.06a4.946,4.946,0,0,1-.2,1.425A3.685,3.685,0,0,1,84.411,148l0.849,0.56a3.565,3.565,0,0,0,.344-0.6,6.8,6.8,0,0,0,.3-0.775,4.492,4.492,0,0,0,.819.545,5,5,0,0,0,.879.365,5.232,5.232,0,0,0,1.547.24l4.033-.01Zm2.213-6.591a7.262,7.262,0,0,0-.716.332,5.819,5.819,0,0,0,.1-0.775h-0.57a4.439,4.439,0,0,0,.1.775q-0.128-.081-0.349-0.192c-0.148-.074-0.26-0.126-0.338-0.157l-0.186.553a7.094,7.094,0,0,0,.757.152,6.5,6.5,0,0,0-.559.548l0.477,0.362a6.52,6.52,0,0,0,.378-0.683,2.174,2.174,0,0,0,.137.274q0.079,0.135.236,0.4l0.472-.338a3.291,3.291,0,0,0-.236-0.274,3.364,3.364,0,0,0-.288-0.286q0.221-.022.763-0.128Z"/>
  <path id="_" data-name="$" class="cls-1" d="M50.78,133.416c0-1.809-1.088-2.85-3.778-3.378l-0.368-.064v-3.169a1.789,1.789,0,0,1,1.713,1.857h2.1c-0.08-1.953-1.2-3.362-3.809-3.618v-1.633H45.482v1.6c-2.529.112-3.906,1.409-3.906,3.217,0,2.065,1.457,3.042,3.665,3.458l0.24,0.048v3.393a2.063,2.063,0,0,1-2.065-2.225H41.288c0.016,2.417,1.569,3.794,4.194,3.986v1.633h1.152v-1.617C49.211,136.777,50.78,135.544,50.78,133.416Zm-6.995-5.251c0-.784.56-1.312,1.7-1.392v2.945C44.2,129.4,43.785,128.982,43.785,128.165Zm2.849,7v-3.185c1.409,0.336,1.9.736,1.9,1.553C48.539,134.5,47.867,135.064,46.634,135.16Z"/>
  <path id="每月计划_SC" data-name="每月计划 SC" class="cls-1" d="M60.461,111.56v-0.73h-5.78a2,2,0,0,1,.115-0.245,2.077,2.077,0,0,0,.155-0.385l-0.729-.24a6.968,6.968,0,0,1-.444,1,8.265,8.265,0,0,1-1.752,2.2l0.619,0.47a9.99,9.99,0,0,0,1.687-2.07h6.13Zm0.21,3.79v-0.73H59.633q0-.02.065-0.9t0.075-1.37h-5.92q-0.15,1.5-.185,1.765c-0.023.177-.048,0.345-0.075,0.505H52v0.73h1.488q-0.17,1.04-.5,2.39H58.4a1.058,1.058,0,0,1-.17.445,0.359,0.359,0,0,1-.26.125q-0.15.01-.514,0a8.844,8.844,0,0,1-1.213-.17l0.27,0.77a10.306,10.306,0,0,0,1.308.11,4.913,4.913,0,0,0,.549-0.04,0.861,0.861,0,0,0,.409-0.19,1.079,1.079,0,0,0,.294-0.43,3.484,3.484,0,0,0,.185-0.62h0.978v-0.73H59.353l0.23-1.66h1.088Zm-1.727-2.27q0,0.48-.12,1.54H54.381c0.026-.153.06-0.422,0.1-0.805s0.067-.628.08-0.735h4.383Zm-0.18,2.27q-0.09.77-.22,1.66H53.992l0.289-1.66H55.33l-0.419.55a9.039,9.039,0,0,1,1.5.535,4.21,4.21,0,0,1,.849.545l0.529-.52a4.568,4.568,0,0,0-1.028-.66,6.244,6.244,0,0,0-1.228-.45h3.235Zm-0.909-1.31a3.051,3.051,0,0,0-.9-0.555,6.045,6.045,0,0,0-1.348-.355l-0.519.55a5.41,5.41,0,0,1,1.233.34,3.989,3.989,0,0,1,.993.57Zm10.424-3.48H63.328v4.62a3.362,3.362,0,0,1-.509,1.77,5.029,5.029,0,0,1-1.428,1.49l0.489,0.71a8.072,8.072,0,0,0,1.458-1.52,4.913,4.913,0,0,0,.759-1.73h3.365v1.96a0.186,0.186,0,0,1-.08.145,0.267,0.267,0,0,1-.17.065l-1.288-.04,0.3,0.8h1.208a1.021,1.021,0,0,0,.394-0.085,0.709,0.709,0,0,0,.329-0.28,0.727,0.727,0,0,0,.125-0.4v-7.51Zm-0.819,2.3H64.116v-1.57h3.344v1.57Zm0,2.31H64.116q0.02-.26.015-0.8t0-.78h3.325v1.58Zm11.222-1.4v-0.73H76.357v-2.97H75.6v2.97H73.272v0.73H75.6v5.28h0.759v-5.28h2.326Zm-6.12-2.29a4.544,4.544,0,0,0-1.358-1.49l-0.539.46a4.639,4.639,0,0,1,1.268,1.51Zm1.218,6.31v-0.83l-1.5.82v-4.99H70.067v0.73h1.458v4.29a0.481,0.481,0,0,1-.06.25,0.956,0.956,0,0,1-.2.22l0.449,0.64Zm14.184-7.75H87.206V118a0.228,0.228,0,0,1-.065.195,0.433,0.433,0,0,1-.165.065l-1.038-.03,0.27,0.77c0.066,0,.216,0,0.449.01a2.921,2.921,0,0,0,.529-0.02,1.4,1.4,0,0,0,.3-0.08,0.761,0.761,0,0,0,.479-0.76v-8.11Zm-5.381.35c-0.087.087-.273,0.243-0.559,0.47a3.692,3.692,0,0,1,1.448,1.45,2.581,2.581,0,0,0,.329-0.255c0.133-.117.226-0.2,0.279-0.235a4.128,4.128,0,0,0-1.5-1.43h0Zm3.544,6.52v-5.66H85.369v5.66h0.759Zm-1.518-.1q-0.07.37-.319,1.28a0.118,0.118,0,0,1-.09.075,0.23,0.23,0,0,1-.09-0.035,4.165,4.165,0,0,1-1.278-1.73A8.6,8.6,0,0,0,84.61,114l-0.6-.44a10.816,10.816,0,0,1-.679,1.095,8.575,8.575,0,0,1-.8.985,11.6,11.6,0,0,1-.489-2.25l2.965-.44-0.1-.74-2.945.45-0.09-1.44v-1.15H81.086q-0.01.84,0.08,2.7l-1.408.21,0.1,0.72,1.408-.2a13.353,13.353,0,0,0,.25,1.37,11.6,11.6,0,0,0,.379,1.31,9.014,9.014,0,0,1-2.436,1.35l0.589,0.63a6.973,6.973,0,0,0,.879-0.415q0.439-.245,1.268-0.825a9.194,9.194,0,0,0,.869,1.33,2.122,2.122,0,0,0,.539.545,1.55,1.55,0,0,0,.459.195,0.62,0.62,0,0,0,.454-0.02,0.7,0.7,0,0,0,.235-0.24,4.624,4.624,0,0,0,.579-1.64Z"/>
</svg>
