<svg id="SC" xmlns="http://www.w3.org/2000/svg" width="300" height="250" viewBox="0 0 300 250">
  <defs>
    <style>
      .cls-1 {
        fill: #4d4d4f;
        fill-rule: evenodd;
      }
    </style>
  </defs>
  <path id="_须签约两年_有若干条件_" data-name="*须签约两年。 有若干条件。" class="cls-1" d="M123.8,223.5a10.265,10.265,0,0,0-1.117.456l0.02-.107a8.081,8.081,0,0,0,.087-1.068h-0.68q0,0.185.078,1.078l0.01,0.107a2.978,2.978,0,0,0-.423-0.209q-0.247-.1-0.665-0.257l-0.224.679q0.525,0.126,1.166.262a4.049,4.049,0,0,0-.389.418l-0.34.407-0.058.068,0.554,0.408a8.746,8.746,0,0,0,.573-0.932l0.048-.087,0.059,0.1q0.388,0.651.592,0.922l0.564-.408-0.078-.1-0.33-.369-0.321-.349-0.087-.078c0.161-.019.359-0.055,0.592-0.107s0.431-.1.593-0.155Zm9.422-.612v-0.709H127.9v0.709h2.361a4.114,4.114,0,0,1-.141.5,3.39,3.39,0,0,1-.19.447h-1.476v4.737h0.738v-4.029h2.914v3.748h0.738v-4.456h-2.127a4.692,4.692,0,0,0,.282-0.942h2.224Zm0.223,7.019a4.93,4.93,0,0,0-.9-1,11.456,11.456,0,0,0-1.268-.917l-0.5.5a8.251,8.251,0,0,1,1.214.9,4.619,4.619,0,0,1,.884,1.063Zm-6.313-7.893a7.779,7.779,0,0,1-1.1,1.466,6.282,6.282,0,0,1-1.4,1.126l0.543,0.544a7.977,7.977,0,0,0,2.516-2.709,5.289,5.289,0,0,0-.563-0.427h0Zm3.157,2.864q0.009,0.952-.02,1.549a5.617,5.617,0,0,1-.141,1.058,3.375,3.375,0,0,1-.257.743,3.12,3.12,0,0,1-2.681,1.485l0.476,0.728a3.963,3.963,0,0,0,2.6-1.427,3.05,3.05,0,0,0,.491-0.976,5.54,5.54,0,0,0,.209-1.092q0.048-.553.048-1.2V225.01Zm-3.079-.262a7.517,7.517,0,0,1-1.108,1.413,5.94,5.94,0,0,1-1.389,1.053l0.554,0.563a6.6,6.6,0,0,0,.811-0.587,7.106,7.106,0,0,0,.9-0.913,8.451,8.451,0,0,0,.792-1.112Zm0.378,2.184a8.663,8.663,0,0,1-1.282,1.588,6.38,6.38,0,0,1-1.583,1.15q0.263,0.282.563,0.573a7.171,7.171,0,0,0,1.579-1.238,9.471,9.471,0,0,0,1.3-1.665Zm15.765,0.34a11.9,11.9,0,0,1-2.249-.99,6.307,6.307,0,0,1-1.685-1.408l0.233-.242-0.369-.224a3.732,3.732,0,0,0,.3-0.374q0.171-.237.268-0.4h0.718a1.967,1.967,0,0,1,.35.364,8.523,8.523,0,0,1,.525.869l0.67-.311a5.092,5.092,0,0,0-.622-0.922h1.583v-0.651h-2.914a5.177,5.177,0,0,0,.253-0.709l-0.563-.32a6.436,6.436,0,0,1-.462,1.019,5.447,5.447,0,0,1-.558.84,2.785,2.785,0,0,1-.476.471l0.427,0.262a7.466,7.466,0,0,1-1.875,1.6,10.683,10.683,0,0,1-2.4.976l0.418,0.65a7.026,7.026,0,0,0,1.141-.393,8,8,0,0,0,1.054-.539v0.408h3.555l-0.01-.359a11.327,11.327,0,0,0,2.1,1.019Zm-4.507-3.689v-0.631l-2.156-.019c0.006-.02.053-0.115,0.141-0.287s0.163-.338.228-0.5l-0.6-.34a7.751,7.751,0,0,1-.811,1.544,5.1,5.1,0,0,1-1.083,1.107l0.524,0.485a3.533,3.533,0,0,0,.724-0.607,4,4,0,0,0,.548-0.742h0.34a4.651,4.651,0,0,1,.846,1.31l0.65-.339a4.007,4.007,0,0,0-.3-0.52,4.22,4.22,0,0,0-.34-0.442Zm0.661,5.33a3.117,3.117,0,0,0-.452-0.854,3,3,0,0,0-.646-0.651l-0.6.34a2.343,2.343,0,0,1,.675.733,4.157,4.157,0,0,1,.335.811Zm3.458,1.262v-0.7h-2.419a9.259,9.259,0,0,0,.515-0.782q0.32-.528.476-0.849l-0.719-.4a8.047,8.047,0,0,1-1.1,2.029h-5.012v0.7h8.257Zm-5.265-1.233a3,3,0,0,0-1.156-1.456l-0.612.349a2.708,2.708,0,0,1,.646.626,3.873,3.873,0,0,1,.471.889Zm-0.214-2.379a6.826,6.826,0,0,0,1.5-1.165,5.284,5.284,0,0,0,1.292,1.195Zm11.986-3.184a5.641,5.641,0,0,0,.234-1.33l-0.671-.175a7.8,7.8,0,0,1-.587,2.117,4.591,4.591,0,0,1-1.161,1.64l0.728,0.379a4.387,4.387,0,0,0,.666-0.84,7.532,7.532,0,0,0,.578-1.082h2.312c0,0.006,0,.319,0,0.937s-0.012,1.072-.025,1.364l-0.038.825q-0.069,1.437-.127,1.786a2.977,2.977,0,0,1-.116.5,0.66,0.66,0,0,1-.2.233,0.515,0.515,0,0,1-.277.107,12.2,12.2,0,0,1-1.593-.253l0.223,0.845a9.52,9.52,0,0,0,1.132.141,2.979,2.979,0,0,0,.481-0.024,1.09,1.09,0,0,0,.631-0.35,1.371,1.371,0,0,0,.35-0.67,17.059,17.059,0,0,0,.238-2.427q0.063-1.533.063-3.728h-2.837Zm1.263,4.214a2.967,2.967,0,0,0-.262-0.641,3.282,3.282,0,0,0-.573-0.753,3.553,3.553,0,0,0-.826-0.626l-0.6.418a3.381,3.381,0,0,1,1.593,2.1Zm-3.05-.8-2.127.5a7.059,7.059,0,0,0,1.083-1.272,15.023,15.023,0,0,0,.957-1.68l-0.68-.31a9.416,9.416,0,0,1-.651,1.155q-0.923.2-1.02,0.213,0.243-.426.7-1.383t0.714-1.568l-0.661-.3q-0.36.923-.826,1.918a16.077,16.077,0,0,1-.806,1.548l0.369,0.67c0.026-.006.089-0.026,0.19-0.058s0.262-.079.485-0.141,0.352-.095.384-0.1a10.772,10.772,0,0,1-1.389,1.612l0.35,0.65q1.088-.339,2.933-0.786V226.66Zm0.175,2.321v-0.728q-1.612.573-3.468,1.136l0.37,0.669Zm14.473-6v-0.709h-8.247v0.709h2.759v1.243h-2.205v6.213h0.738v-5.543h1.457a6.429,6.429,0,0,1-.15,1.174,5.048,5.048,0,0,1-.467,1.3,3.113,3.113,0,0,1-.762.986l0.554,0.485a3.583,3.583,0,0,0,.543-0.607,4.7,4.7,0,0,0,.52-0.907,4.869,4.869,0,0,0,.316-0.913,2.5,2.5,0,0,1,.66.748l0.515-.525a3.8,3.8,0,0,0-1.059-.98l0.1-.757h1.369a5.7,5.7,0,0,1-.393,1.97,4.881,4.881,0,0,1-1.19,1.748L158,229.1a5.562,5.562,0,0,0,1.466-2.7,3.254,3.254,0,0,1,.53.568,4.289,4.289,0,0,1,.422.685l0.583-.534a3.937,3.937,0,0,0-.617-0.782,6.633,6.633,0,0,0-.8-0.655l0.068-.786h1.438v4.592a0.179,0.179,0,0,1-.166.194A5.934,5.934,0,0,1,160,229.6l0.252,0.709a4.444,4.444,0,0,0,.8.034,0.892,0.892,0,0,0,.393-0.112,0.688,0.688,0,0,0,.272-0.267,0.7,0.7,0,0,0,.068-0.306v-5.436h-2.1v-1.243h2.642Zm-3.341,1.243h-1.409v-1.243h1.409v1.243Zm13.113,3.485V227h-3.352v-1.582h2.477v-0.709h-2.477v-1.262h2.953v-0.709h-5.439q0.126-.417.15-0.543c0.016-.084.028-0.156,0.034-0.214l-0.621-.3a6.326,6.326,0,0,1-1.8,3.223l0.612,0.5a5.381,5.381,0,0,0,.646-0.742,8.2,8.2,0,0,0,.694-1.209h2v1.262h-2.574V227H164.2v0.709h3.788v2.8h0.767v-2.8h3.352ZM167.987,227h-1.836v-1.582h1.836V227ZM179,225.908a1.324,1.324,0,0,0-.228-0.539,1.159,1.159,0,0,0-.486-0.4,1.384,1.384,0,0,0-.631-0.107,1.129,1.129,0,0,0-.656.267,1.224,1.224,0,0,0-.413.588,1.282,1.282,0,0,0-.034.636,1.155,1.155,0,0,0,.258.558,1.282,1.282,0,0,0,.49.349,1.325,1.325,0,0,0,.6.1,1.153,1.153,0,0,0,.641-0.276,1.3,1.3,0,0,0,.417-0.588A1.162,1.162,0,0,0,179,225.908Zm-0.626.306a0.58,0.58,0,0,1-.166.33,0.629,0.629,0,0,1-.335.175,0.61,0.61,0,0,1-.374-0.039,0.672,0.672,0,0,1-.218-0.185,0.617,0.617,0,0,1-.131-0.262,0.6,0.6,0,0,1,.019-0.3,0.691,0.691,0,0,1,.146-0.262,0.59,0.59,0,0,1,.277-0.165,0.632,0.632,0,0,1,.325-0.01,0.658,0.658,0,0,1,.253.141,0.681,0.681,0,0,1,.174.228A0.7,0.7,0,0,1,178.371,226.214Zm-46.823,9.165V234.67H126.6q0.234-.8.321-1.2l-0.748-.165a13.389,13.389,0,0,1-.379,1.369h-2.311v0.709h2.039a6.481,6.481,0,0,1-1,1.762,12.761,12.761,0,0,1-1.637,1.733l0.68,0.446q0.884-.9,1.18-1.243a6.219,6.219,0,0,0,.461-0.582v4.631h0.768v-2.049h3.652v0.962a0.156,0.156,0,0,1-.049.116,0.171,0.171,0,0,1-.126.049,7.221,7.221,0,0,1-1.224-.049q0.089,0.224.34,0.748h0.559a3.887,3.887,0,0,0,.733-0.049,0.842,0.842,0,0,0,.345-0.243,0.653,0.653,0,0,0,.16-0.369v-4.961h-4.4q0.126-.261.35-0.9h5.226Zm-1.914,2.4h-3.652V236.99h3.652v0.787Zm0,1.592h-3.652v-0.884h3.652v0.884Zm11.578-3.9v-0.709h-2.02v-1.291h-0.738v1.291h-2.769v-1.291h-0.738v1.291h-2v0.709h2v1.068h0.738v-1.068h2.769v1.039h0.738v-1.039h2.02Zm-0.194,2.145V236.9h-3.944a10.166,10.166,0,0,0,.418-1.029l-0.68-.292a7.346,7.346,0,0,1-.612,1.321h-2.972v0.708h2.545a6.186,6.186,0,0,1-.976,1.01,16.021,16.021,0,0,1-1.928,1.33l0.544,0.563a16.916,16.916,0,0,0,1.661-1.145v2.757h0.738v-0.689h3.458v0.689h0.738v-3.485h-4.167a8.563,8.563,0,0,0,.806-1.03h4.371Zm-1.748,3.117h-3.458v-1.379h3.458v1.379Zm11.374-2.971v-0.738h-3.487v-2.262h2.856v-0.738h-6.469v0.738h2.846v2.262h-3.507v0.738h3.507v4.388h0.767v-4.388h3.487Zm10.141,0.136q-1.651-.486-2.463-0.8a11.1,11.1,0,0,1-1.287-.578,8.331,8.331,0,0,0,1.142-.956,3.736,3.736,0,0,0,.616-0.82v-0.6h-3.457c0.077-.149.126-0.243,0.145-0.282a0.774,0.774,0,0,0,.049-0.116l-0.622-.272a5.718,5.718,0,0,1-1.1,1.524,4.061,4.061,0,0,1-1.535,1.01l0.544,0.612a5.068,5.068,0,0,0,1.661-1.253,2.114,2.114,0,0,0,.388.461,6.184,6.184,0,0,0,.515.408q0.291,0.208.35,0.257a11.117,11.117,0,0,1-1.074.495,24.909,24.909,0,0,1-2.773.826l0.476,0.64q1.476-.387,2.54-0.781a6.851,6.851,0,0,0,1.511-.714,10.329,10.329,0,0,0,1.364.694q0.783,0.336,2.453.869Zm-0.2,3.087q-0.175-.154-0.413-0.335a6.379,6.379,0,0,0-.539-0.359,5.416,5.416,0,0,0-.641-0.325q-0.341-.146-0.85-0.325t-0.549-.19l-0.389.583a9.39,9.39,0,0,1,1.88.772,4.683,4.683,0,0,1,1.034.81Zm-1.03-1.854v-0.709h-2.788v-0.592h-0.738v0.592h-2.914v0.709h2.914v2.087a0.207,0.207,0,0,1-.063.122,0.161,0.161,0,0,1-.112.053l-0.952-.049,0.282,0.777h0.991a0.5,0.5,0,0,0,.427-0.238,0.936,0.936,0,0,0,.165-0.548v-2.2h2.788Zm-4.555.282a5.893,5.893,0,0,1-1.283.878,7.068,7.068,0,0,1-1.651.568l0.515,0.67a9.407,9.407,0,0,0,1.564-.651,6.215,6.215,0,0,0,1.321-.961Zm2.914-4.563a5.493,5.493,0,0,1-1.535,1.252,5.592,5.592,0,0,1-1.477-1.252h3.012Zm12.627,3.854v-0.738h-2.681v-1.932h2.02v-0.738h-2.02v-1.922h-0.767v1.922H166.02a4.592,4.592,0,0,0,.146-0.99l-0.67-.214a7.124,7.124,0,0,1-.413,1.694,6.135,6.135,0,0,1-.831,1.471l0.68,0.34a9.035,9.035,0,0,0,.845-1.563h1.312v1.932h-2.71V238.7h2.71v3.388h0.767V238.7h2.681Zm-6.625-5.291a10.016,10.016,0,0,1-2.166,4.6l0.632,0.446,0.893-1.311v5h0.738v-6.388a11.8,11.8,0,0,0,.6-2.2Zm13.2,4.15a1.324,1.324,0,0,0-.228-0.539,1.159,1.159,0,0,0-.486-0.4,1.384,1.384,0,0,0-.631-0.107,1.127,1.127,0,0,0-.656.267,1.218,1.218,0,0,0-.413.588,1.27,1.27,0,0,0-.034.636,1.155,1.155,0,0,0,.258.558,1.282,1.282,0,0,0,.49.349,1.323,1.323,0,0,0,.6.1,1.153,1.153,0,0,0,.642-0.276,1.3,1.3,0,0,0,.417-0.588A1.174,1.174,0,0,0,177.108,237.558Zm-0.627.306a0.573,0.573,0,0,1-.165.33,0.629,0.629,0,0,1-.335.175,0.61,0.61,0,0,1-.374-0.039,0.662,0.662,0,0,1-.218-0.185,0.617,0.617,0,0,1-.131-0.262,0.588,0.588,0,0,1,.019-0.3,0.691,0.691,0,0,1,.146-0.262,0.592,0.592,0,0,1,.276-0.165,0.636,0.636,0,0,1,.326-0.01,0.654,0.654,0,0,1,.252.141A0.566,0.566,0,0,1,176.481,237.864Z"/>
</svg>
