<svg id="SC" xmlns="http://www.w3.org/2000/svg" width="300" height="250" viewBox="0 0 300 250">
  <defs>
    <style>
      .cls-1 {
        fill: #fff;
        fill-rule: evenodd;
      }
    </style>
  </defs>
  <path id="_须签约两年_有若干条件_" data-name="*须签约两年。有若干条件。" class="cls-1" d="M97.524,226.653a10.237,10.237,0,0,0-1.117.456L96.427,227a8.053,8.053,0,0,0,.087-1.068h-0.68q0,0.184.078,1.078l0.01,0.107a3.049,3.049,0,0,0-.422-0.209q-0.248-.1-0.665-0.257l-0.223.679q0.524,0.126,1.165.262a4,4,0,0,0-.388.418l-0.34.408-0.058.068,0.553,0.407a8.6,8.6,0,0,0,.573-0.932l0.049-.087,0.058,0.1q0.388,0.651.592,0.922l0.563-.407-0.078-.1-0.33-.368-0.32-.35-0.087-.078c0.162-.019.359-0.055,0.592-0.106s0.43-.1.592-0.156Zm9.417-.612v-0.709H101.62v0.709h2.36a4.114,4.114,0,0,1-.141.5,3.539,3.539,0,0,1-.189.447h-1.476v4.737h0.738v-4.029h2.912v3.748h0.738v-4.456h-2.126a4.774,4.774,0,0,0,.281-0.942h2.224Zm0.223,7.019a4.93,4.93,0,0,0-.9-1,11.532,11.532,0,0,0-1.267-.917l-0.495.5a8.24,8.24,0,0,1,1.213.9,4.619,4.619,0,0,1,.884,1.063Zm-6.31-7.893a7.8,7.8,0,0,1-1.1,1.466,6.269,6.269,0,0,1-1.4,1.126L98.9,228.3a7.987,7.987,0,0,0,2.515-2.709,5.4,5.4,0,0,0-.563-0.427h0Zm3.155,2.864q0.009,0.952-.02,1.549a5.705,5.705,0,0,1-.14,1.058,3.424,3.424,0,0,1-.258.743,3.117,3.117,0,0,1-2.679,1.485l0.475,0.728a3.957,3.957,0,0,0,2.6-1.427,3.04,3.04,0,0,0,.491-0.976,5.538,5.538,0,0,0,.208-1.092q0.05-.553.049-1.2v-0.728Zm-3.078-.262a7.488,7.488,0,0,1-1.106,1.413,5.91,5.91,0,0,1-1.388,1.053L98.99,230.8a6.57,6.57,0,0,0,.811-0.587,7.118,7.118,0,0,0,.9-0.913,8.342,8.342,0,0,0,.791-1.111Zm0.379,2.184a8.7,8.7,0,0,1-1.282,1.588,6.341,6.341,0,0,1-1.582,1.15q0.262,0.282.563,0.573a7.177,7.177,0,0,0,1.578-1.238,9.471,9.471,0,0,0,1.3-1.665Zm15.756,0.34a11.881,11.881,0,0,1-2.247-.99,6.3,6.3,0,0,1-1.684-1.408l0.233-.242L113,227.429a3.979,3.979,0,0,0,.3-0.373q0.169-.239.267-0.4h0.718a1.967,1.967,0,0,1,.35.364,8.573,8.573,0,0,1,.524.869l0.67-.311a5.129,5.129,0,0,0-.622-0.922h1.583V226h-2.913a5.313,5.313,0,0,0,.253-0.709l-0.563-.32a6.478,6.478,0,0,1-.461,1.019,5.445,5.445,0,0,1-.559.84,2.749,2.749,0,0,1-.475.471l0.427,0.262a7.463,7.463,0,0,1-1.874,1.6,10.693,10.693,0,0,1-2.4.976l0.418,0.65a7.05,7.05,0,0,0,1.14-.393,8.066,8.066,0,0,0,1.054-.539v0.408h3.553l-0.01-.359a11.307,11.307,0,0,0,2.1,1.019Zm-4.5-3.689v-0.631l-2.155-.019c0.006-.02.053-0.115,0.14-0.287s0.164-.338.228-0.5l-0.6-.34a7.751,7.751,0,0,1-.811,1.544,5.058,5.058,0,0,1-1.083,1.107l0.525,0.485a3.523,3.523,0,0,0,.723-0.606,4.037,4.037,0,0,0,.548-0.743h0.34a4.647,4.647,0,0,1,.845,1.31l0.65-.339a4.007,4.007,0,0,0-.3-0.52,4.2,4.2,0,0,0-.339-0.441Zm0.66,5.33a3.114,3.114,0,0,0-.451-0.854,3.023,3.023,0,0,0-.646-0.651l-0.6.34a2.355,2.355,0,0,1,.675.733,4.22,4.22,0,0,1,.335.811Zm3.456,1.262v-0.7h-2.417a9.168,9.168,0,0,0,.514-0.781q0.321-.53.476-0.85l-0.718-.4a8.1,8.1,0,0,1-1.1,2.029h-5.01v0.7h8.252Zm-5.262-1.233a3,3,0,0,0-1.155-1.456l-0.612.349a2.693,2.693,0,0,1,.646.627,3.844,3.844,0,0,1,.471.888Zm-0.213-2.378a6.913,6.913,0,0,0,1.495-1.165,5.3,5.3,0,0,0,1.291,1.194Zm11.98-3.185a5.692,5.692,0,0,0,.233-1.33l-0.67-.175a7.769,7.769,0,0,1-.588,2.117,4.589,4.589,0,0,1-1.16,1.641l0.728,0.378a4.348,4.348,0,0,0,.665-0.84,7.434,7.434,0,0,0,.578-1.082h2.311c0,0.006,0,.319,0,0.937s-0.012,1.073-.024,1.364l-0.039.825q-0.069,1.437-.126,1.786a2.956,2.956,0,0,1-.117.505,0.642,0.642,0,0,1-.2.233,0.512,0.512,0,0,1-.277.107,12.365,12.365,0,0,1-1.592-.252l0.223,0.844a9.535,9.535,0,0,0,1.131.141,2.972,2.972,0,0,0,.481-0.024,1.09,1.09,0,0,0,.631-0.35,1.371,1.371,0,0,0,.35-0.67,16.936,16.936,0,0,0,.237-2.427q0.063-1.533.064-3.728h-2.835Zm1.262,4.214a3.04,3.04,0,0,0-.262-0.641,3.257,3.257,0,0,0-.573-0.752,3.546,3.546,0,0,0-.825-0.627l-0.6.418a3.383,3.383,0,0,1,1.592,2.1Zm-3.049-.8-2.126.495a7.059,7.059,0,0,0,1.083-1.272,15.026,15.026,0,0,0,.956-1.68l-0.68-.31a9.3,9.3,0,0,1-.65,1.155q-0.922.2-1.019,0.214,0.242-.427.694-1.384t0.713-1.568l-0.66-.3q-0.358.923-.825,1.918a16.308,16.308,0,0,1-.806,1.548l0.369,0.67c0.026-.006.089-0.026,0.189-0.058s0.262-.079.486-0.141,0.351-.1.383-0.1a10.754,10.754,0,0,1-1.388,1.612l0.349,0.65q1.087-.339,2.932-0.786v-0.66Zm0.175,2.32V231.41q-1.611.573-3.466,1.136l0.369,0.669Zm14.466-6v-0.709h-8.243v0.709h2.757v1.243h-2.2v6.213h0.737v-5.543h1.457a6.44,6.44,0,0,1-.151,1.174,5.045,5.045,0,0,1-.466,1.3,3.113,3.113,0,0,1-.762.986l0.553,0.485a3.541,3.541,0,0,0,.544-0.607,4.755,4.755,0,0,0,.519-0.907,4.869,4.869,0,0,0,.316-0.913,2.5,2.5,0,0,1,.66.748l0.515-.525a3.8,3.8,0,0,0-1.059-.98l0.1-.757h1.368a5.7,5.7,0,0,1-.393,1.97,4.865,4.865,0,0,1-1.189,1.748l0.612,0.485a5.57,5.57,0,0,0,1.466-2.7,3.289,3.289,0,0,1,.529.568,4.289,4.289,0,0,1,.422.685l0.582-.534a3.933,3.933,0,0,0-.616-0.782,6.633,6.633,0,0,0-.8-0.655l0.068-.786h1.437v4.592a0.179,0.179,0,0,1-.165.194,5.925,5.925,0,0,1-.922-0.078l0.252,0.709a4.431,4.431,0,0,0,.8.034,0.892,0.892,0,0,0,.393-0.112,0.688,0.688,0,0,0,.272-0.267,0.7,0.7,0,0,0,.068-0.306v-5.436h-2.1v-1.243h2.641Zm-3.34,1.243h-1.408v-1.243H132.7v1.243Zm13.106,3.485v-0.709h-3.349v-1.582h2.475v-0.709h-2.475V226.6h2.951V225.9h-5.437c0.084-.278.135-0.459,0.151-0.543s0.027-.156.034-0.214l-0.621-.3a6.322,6.322,0,0,1-1.8,3.223l0.612,0.5a5.381,5.381,0,0,0,.646-0.742,8.286,8.286,0,0,0,.694-1.209h2v1.262h-2.573v2.291H137.9v0.709h3.786v2.8h0.767v-2.8H145.8Zm-4.116-.709h-1.835v-1.582h1.835v1.582Zm11-1.092a1.3,1.3,0,0,0-.228-0.539,1.164,1.164,0,0,0-.485-0.4,1.372,1.372,0,0,0-.631-0.106,1.123,1.123,0,0,0-.656.267,1.213,1.213,0,0,0-.412.587,1.271,1.271,0,0,0-.034.636,1.154,1.154,0,0,0,.257.558,1.282,1.282,0,0,0,.49.349,1.338,1.338,0,0,0,.6.1,1.159,1.159,0,0,0,.641-0.277,1.292,1.292,0,0,0,.417-0.587A1.167,1.167,0,0,0,152.691,229.065Zm-0.626.306a0.567,0.567,0,0,1-.165.33,0.632,0.632,0,0,1-.335.175,0.61,0.61,0,0,1-.374-0.039,0.68,0.68,0,0,1-.218-0.184,0.626,0.626,0,0,1-.131-0.263,0.6,0.6,0,0,1,.019-0.3,0.691,0.691,0,0,1,.146-0.262,0.592,0.592,0,0,1,.276-0.165,0.625,0.625,0,0,1,.326-0.009,0.659,0.659,0,0,1,.252.14,0.684,0.684,0,0,1,.175.228A0.7,0.7,0,0,1,152.065,229.371Zm13.339-2.485v-0.709h-4.941q0.232-.8.32-1.2l-0.747-.165a13.389,13.389,0,0,1-.379,1.369h-2.311v0.709h2.039a6.466,6.466,0,0,1-1,1.762,12.693,12.693,0,0,1-1.636,1.733l0.68,0.446q0.883-.9,1.179-1.242a6.346,6.346,0,0,0,.461-0.583v4.631h0.767v-2.049h3.651v0.962a0.16,0.16,0,0,1-.049.116,0.167,0.167,0,0,1-.126.049,7.206,7.206,0,0,1-1.223-.049q0.087,0.224.339,0.748h0.559a3.9,3.9,0,0,0,.733-0.049,0.839,0.839,0,0,0,.344-0.243,0.661,0.661,0,0,0,.161-0.369v-4.96h-4.4q0.126-.262.349-0.9H165.4Zm-1.912,2.4h-3.651V228.5h3.651v0.787Zm0,1.592h-3.651v-0.884h3.651v0.884Zm11.572-3.9v-0.709h-2.019v-1.291h-0.738v1.291H169.54v-1.291H168.8v1.291h-2v0.709h2v1.068h0.738v-1.068h2.767v1.039h0.738v-1.039h2.019Zm-0.194,2.146V228.41h-3.942a10.166,10.166,0,0,0,.418-1.029l-0.68-.291a7.45,7.45,0,0,1-.611,1.32h-2.971v0.709h2.543a6.214,6.214,0,0,1-.975,1.009,15.993,15.993,0,0,1-1.927,1.33l0.543,0.563a16.821,16.821,0,0,0,1.66-1.145v2.757h0.738v-0.689h3.456v0.689h0.738v-3.485H169.7a8.511,8.511,0,0,0,.806-1.029h4.369Zm-1.748,3.116h-3.456v-1.379h3.456v1.379Zm11.369-2.971v-0.738h-3.485v-2.262h2.854v-0.738h-6.466v0.738h2.845v2.262h-3.5v0.738h3.5v4.388h0.767v-4.388h3.485Zm10.135,0.136q-1.65-.484-2.461-0.8a11.19,11.19,0,0,1-1.286-.577,8.446,8.446,0,0,0,1.141-.957,3.736,3.736,0,0,0,.616-0.82v-0.6H189.18c0.078-.149.126-0.243,0.146-0.282a0.887,0.887,0,0,0,.048-0.116l-0.621-.272a5.718,5.718,0,0,1-1.1,1.524,4.057,4.057,0,0,1-1.534,1.01l0.543,0.612a5.044,5.044,0,0,0,1.661-1.253,2.114,2.114,0,0,0,.388.461,6.159,6.159,0,0,0,.514.408c0.195,0.139.311,0.225,0.35,0.257a11.406,11.406,0,0,1-1.073.5,25.235,25.235,0,0,1-2.772.825l0.476,0.64q1.476-.387,2.539-0.781a6.838,6.838,0,0,0,1.51-.714,10.386,10.386,0,0,0,1.364.695q0.78,0.335,2.451.868Zm-0.2,3.087c-0.116-.1-0.254-0.215-0.412-0.335a6.221,6.221,0,0,0-.539-0.359,5.491,5.491,0,0,0-.641-0.325q-0.339-.145-0.849-0.325t-0.549-.19l-0.388.583a9.363,9.363,0,0,1,1.878.772,4.66,4.66,0,0,1,1.034.81Zm-1.029-1.854v-0.709h-2.786v-0.592h-0.738v0.592h-2.912v0.709h2.912v2.087a0.207,0.207,0,0,1-.063.122,0.161,0.161,0,0,1-.112.053l-0.951-.048,0.282,0.776h0.99a0.5,0.5,0,0,0,.427-0.238,0.936,0.936,0,0,0,.165-0.548v-2.2h2.786Zm-4.553.282a5.881,5.881,0,0,1-1.281.878,7.039,7.039,0,0,1-1.651.568l0.515,0.67a9.517,9.517,0,0,0,1.563-.65,6.25,6.25,0,0,0,1.32-.962Zm2.913-4.563a5.483,5.483,0,0,1-1.534,1.252,5.569,5.569,0,0,1-1.476-1.252h3.01Zm12.62,3.854v-0.738h-2.679v-1.932h2.019V226.8h-2.019v-1.922h-0.767V226.8h-1.068a4.592,4.592,0,0,0,.146-0.99l-0.67-.214a7.084,7.084,0,0,1-.413,1.695,6.11,6.11,0,0,1-.83,1.47l0.68,0.34a9.1,9.1,0,0,0,.844-1.563h1.311v1.932h-2.709v0.738h2.709v3.388h0.767v-3.388h2.679Zm-6.621-5.291a10.015,10.015,0,0,1-2.165,4.6l0.631,0.446,0.894-1.31v5h0.737v-6.388a11.806,11.806,0,0,0,.6-2.2Zm13.189,4.15a1.324,1.324,0,0,0-.228-0.539,1.164,1.164,0,0,0-.485-0.4,1.372,1.372,0,0,0-.631-0.106,1.123,1.123,0,0,0-.656.267,1.213,1.213,0,0,0-.412.587,1.26,1.26,0,0,0-.034.636,1.154,1.154,0,0,0,.257.558,1.282,1.282,0,0,0,.49.349,1.338,1.338,0,0,0,.6.1,1.159,1.159,0,0,0,.641-0.277,1.292,1.292,0,0,0,.417-0.587A1.167,1.167,0,0,0,210.941,229.065Zm-0.626.306a0.573,0.573,0,0,1-.165.33,0.632,0.632,0,0,1-.335.175,0.61,0.61,0,0,1-.374-0.039,0.68,0.68,0,0,1-.218-0.184,0.626,0.626,0,0,1-.131-0.263,0.6,0.6,0,0,1,.019-0.3,0.691,0.691,0,0,1,.146-0.262,0.592,0.592,0,0,1,.276-0.165,0.625,0.625,0,0,1,.326-0.009,0.659,0.659,0,0,1,.252.14,0.684,0.684,0,0,1,.175.228A0.7,0.7,0,0,1,210.315,229.371Z"/>
</svg>
