<svg id="Frame_1" data-name="Frame 1" xmlns="http://www.w3.org/2000/svg" width="300" height="250" viewBox="0 0 300 250">
  <defs>
    <style>
      .cls-1 {
        fill: #fff;
        fill-rule: evenodd;
      }
    </style>
  </defs>
  <path id="用更节能的方式_让家保持温暖明亮" data-name="用更节能的方式 让家保持温暖明亮" class="cls-1" d="M96.815,54.776H82.829v9.345a13.842,13.842,0,0,1-.231,2.5,9.972,9.972,0,0,1-.693,2.289,13.364,13.364,0,0,1-1.953,2.94L81.3,72.857a12.716,12.716,0,0,0,2.247-3.486,14.78,14.78,0,0,0,.819-3.7h4.62v5.019h1.6V65.675h4.578V70.19a0.358,0.358,0,0,1-.315.441,5.723,5.723,0,0,1-.787.032q-0.409-.01-1.439-0.053l0.5,1.638,2.394-.042a1.36,1.36,0,0,0,.578-0.263,1.708,1.708,0,0,0,.514-0.651,1.819,1.819,0,0,0,.21-0.787V54.776Zm-1.659,4.6H90.578V56.309h4.578v3.066Zm0,4.767H90.578V60.908h4.578v3.234Zm-6.174-4.767H84.425V56.309h4.557v3.066Zm0,4.767H84.425V60.908h4.557v3.234ZM118.67,71.03q-1.953-.042-4.105-0.284a35.544,35.544,0,0,1-3.791-.609,10.094,10.094,0,0,1-2.562-.871,6.253,6.253,0,0,0,.882-1.585,7.993,7.993,0,0,0,.483-1.859h6.132V58.031h-5.817V56.54H118V55.007H100.085V56.54H108.3v1.491h-6.027v7.791h5.712a6.729,6.729,0,0,1-.43,1.386,5.759,5.759,0,0,1-.725,1.26,24.8,24.8,0,0,1-3.066-2.394l-1.218.819a14.327,14.327,0,0,0,3.045,2.688,18.192,18.192,0,0,1-3.16,1.186,28.464,28.464,0,0,1-2.951.662l0.945,1.407a14.754,14.754,0,0,0,6.027-1.995L107.1,70.4a19.614,19.614,0,0,0,4.011,1.4,38.165,38.165,0,0,0,6.573.85ZM114.2,61.139h-4.305V59.564H114.2v1.575Zm0,3.15h-4.452l0.1-1.617H114.2v1.617Zm-5.9-3.15h-4.431V59.564H108.3v1.575Zm-0.021,1.533-0.084,1.617h-4.326V62.672h4.41Zm29.843-4.893V56.267h-5.166V53.873h-1.6v2.394h-4.389V53.873h-1.6v2.394H120.31l-0.042,1.512h5.1v2.436h1.6V57.779h4.389v2.436h1.6V57.779h5.166Zm-16.653,2.814V62.1h5.229V72.521h1.6V62.1h5.859q-0.042.42-.1,1.858t-0.168,2.226a12.6,12.6,0,0,1-.252,1.375,0.511,0.511,0,0,1-.4.294,17.052,17.052,0,0,1-2.268-.588l0.441,1.743q2.31,0.5,2.982.1a1.918,1.918,0,0,0,.588-0.6,2.026,2.026,0,0,0,.315-0.766q0.168-1.218.305-3.371t0.178-3.79h-14.3Zm35.379-1.827q-0.462,2.814-.987,2.814h-2.772a1.6,1.6,0,0,1-.746-0.168,0.489,0.489,0,0,1-.325-0.42V59.459a22.691,22.691,0,0,0,3.622-1.438,12.93,12.93,0,0,0,2.321-1.523l-0.966-1.2a13.342,13.342,0,0,1-2.478,1.565,14.559,14.559,0,0,1-2.5,1.018V54.272h-1.6v7.266a1.66,1.66,0,0,0,.619,1.092,2,2,0,0,0,1.355.483h3.738a1.318,1.318,0,0,0,.924-0.431,2.566,2.566,0,0,0,.63-0.934,22.732,22.732,0,0,0,.693-2.394Zm-6.741,1.2a10.122,10.122,0,0,0-2.814-3.99l-1.407.777a13.345,13.345,0,0,1,1.3,1.386l-4.473.378a14.282,14.282,0,0,0,3.024-4.179l-1.449-.735a30.771,30.771,0,0,1-2.195,3.36,13.19,13.19,0,0,1-1.165,1.26,7.447,7.447,0,0,1-.819.756l1.071,1.407q0.378-.042,2.194-0.283t2.94-.357q1.123-.115,1.9-0.158l0.378,1.008ZM157.1,67.9a10.213,10.213,0,0,1-.483,2.1,1.306,1.306,0,0,1-.294.462,0.645,0.645,0,0,1-.357.21h-3.234q-0.714,0-.714-0.525V68.195a17.494,17.494,0,0,0,3.192-.977,12.841,12.841,0,0,0,2.961-1.69L157.1,64.415a13.821,13.821,0,0,1-5.082,2.2V63.7h-1.6v6.72a1.591,1.591,0,0,0,.336.945,1.871,1.871,0,0,0,.787.651,2.13,2.13,0,0,0,.809.189h3.78a1.761,1.761,0,0,0,.8-0.189,1.431,1.431,0,0,0,.588-0.525,5.718,5.718,0,0,0,.6-1.228,14.2,14.2,0,0,0,.473-1.8Zm-8.211-6.72H141.3v11.3h1.6V68.3h4.389v1.974a0.629,0.629,0,0,1-.1.336,0.362,0.362,0,0,1-.252.189,5.324,5.324,0,0,1-1.344,0q-0.819-.084-0.861-0.084l0.588,1.617a14.5,14.5,0,0,0,2.268-.063,1.411,1.411,0,0,0,.892-0.556,1.829,1.829,0,0,0,.41-1.207V61.181Zm-1.6,2.793H142.9v-1.26h4.389v1.26Zm0,2.793H142.9v-1.26h4.389v1.26Zm27.579,0.063a15.661,15.661,0,0,0-1.239-2.625,18.415,18.415,0,0,0-1.827-2.5l-1.3.861a17.766,17.766,0,0,1,2.856,4.935Zm-2.814-9.555q0.084-.294.347-1.092t0.378-1.26q0.115-.462.178-0.819l-1.68-.378a19.651,19.651,0,0,1-3.15,8.085V57.59h-3.213a13.847,13.847,0,0,0,1.134-3.087l-1.512-.609a13.075,13.075,0,0,1-1.281,3.7h-1.932V72.143h1.659v-1.7h3.486v1.365h1.659V62.441l1.092,0.693a17.24,17.24,0,0,0,2.436-4.41h4.473q-0.084,3.7-.252,5.764a35.45,35.45,0,0,1-.441,3.538,13.241,13.241,0,0,1-.693,2.478,0.8,0.8,0,0,1-.8.378A15.6,15.6,0,0,1,170.773,70l0.273,1.764a20.708,20.708,0,0,0,2.762.651,3.678,3.678,0,0,0,.976,0,1.65,1.65,0,0,0,.987-0.619,3.645,3.645,0,0,0,.63-1.124,20.686,20.686,0,0,0,.683-2.709q0.262-1.428.367-2.709t0.158-2.415q0.052-1.134.073-3.066t0.042-2.5h-5.67Zm-5.586,5.9h-3.486V59.123h3.486v4.053Zm0,5.733h-3.486v-4.2h3.486v4.2Zm31.969-10.227V57.149l-7.686-.063,0.525-.357a5.539,5.539,0,0,0-1.3-1.754,11.392,11.392,0,0,0-1.827-1.418l-1.491.9a7.431,7.431,0,0,1,1.06.64,6.316,6.316,0,0,1,1.071.966,4.266,4.266,0,0,1,.725,1.081H180.9v1.533h5.25q0,2.982-.126,4.284a11.667,11.667,0,0,1-.977,3.917,7.666,7.666,0,0,1-2,2.593,10.506,10.506,0,0,1-3.171,1.743l1.092,1.512a10.819,10.819,0,0,0,2.793-1.533,8.28,8.28,0,0,0,1.774-1.817,10.76,10.76,0,0,0,.9-1.543q0.284-.63.452-1.134t0.325-1.092q0.158-.588.41-1.764H193.8a28.812,28.812,0,0,1-.263,3.035,28.025,28.025,0,0,1-.556,2.95,0.947,0.947,0,0,1-1.134.693,21.657,21.657,0,0,1-3.528-.987l0.315,1.869a25.285,25.285,0,0,0,3.066.641,6.992,6.992,0,0,0,.966.052,0.9,0.9,0,0,0,.21-0.042,1.9,1.9,0,0,0,1.029-.514,2.233,2.233,0,0,0,.63-0.977,30.422,30.422,0,0,0,1.113-8.253h-7.9q0.126-2.184.126-3.633h10.563Zm18.879-2.163a6.543,6.543,0,0,0-3.57-2.142l-1.26,1.2a7.772,7.772,0,0,1,2.341.945,6.534,6.534,0,0,1,1.355,1.2Zm0.126,11.151a14.6,14.6,0,0,1-.357,2.6c-0.126.378-.281,0.539-0.462,0.483a6.3,6.3,0,0,1-1.7-2.037,16.52,16.52,0,0,1-1.281-2.929,21.993,21.993,0,0,1-.809-3.255q-0.284-1.669-.388-3.14h5.88V57.863h-6.048q-0.126-1.155-.252-4.053l-1.659.063q0.145,3.024.252,3.99h-9.828V59.4h9.975q0.356,2.9.787,4.9a18.677,18.677,0,0,0,1.281,3.864,12.816,12.816,0,0,0,2.216,3.35,3.978,3.978,0,0,0,1.113.892,1.768,1.768,0,0,0,.829.221,1.29,1.29,0,0,0,.6-0.189,1.845,1.845,0,0,0,.5-0.483,14.914,14.914,0,0,0,.966-3.591ZM211.289,68.7l-0.1-1.533-4.179.966V63.554h3.255V62.021h-8.19v1.533h3.339v5.019l-4.284,1.05,0.588,1.491ZM87.817,94.786V93.358H81.37V85.483h5.376V83.95H81.37v-6.8H79.858V93.358H74.8v1.428h13.02ZM75.763,80.548a8.25,8.25,0,0,0-3.129-3.024l-1.239.861a6.337,6.337,0,0,1,1.669,1.323,7.1,7.1,0,0,1,1.291,1.848Zm2.226,10.668-0.042-1.659q-0.63.294-2,.945t-1.932.9V82.354H69.694v1.533h2.814v8.106a0.233,0.233,0,0,1-.126.189,1.765,1.765,0,0,1-.347.168q-0.22.084-.283,0.1l1.05,1.512Zm29.618-8.064V79.309h-7.1a7.306,7.306,0,0,0-1.26-1.617,7.477,7.477,0,0,0-1.407-1.113l-1.323.987a15.908,15.908,0,0,1,1.669,1.323,2.943,2.943,0,0,1,.326.42H90.933v3.927h1.6V80.842h13.482v2.31h1.6Zm1.008,9.681A5.837,5.837,0,0,1,106.8,91.7a9.856,9.856,0,0,1-1.607-1.869,8.288,8.288,0,0,1-1.071-2.184,15.338,15.338,0,0,0,2.331-2.1l-1.218-1.071a9.109,9.109,0,0,1-3.885,3.024,5.529,5.529,0,0,0-.85-1.334,4.956,4.956,0,0,0-1.124-1.019q0.063-.042.493-0.284t0.808-.493a6.841,6.841,0,0,0,.714-0.546h3.864V82.291H93.411v1.533l5.271,0.021a21.688,21.688,0,0,1-7.644,2.373L92.13,87.6a18.322,18.322,0,0,0,5.691-1.659,6.349,6.349,0,0,1,1.05.714,13.854,13.854,0,0,1-1.953,1.155,14.809,14.809,0,0,1-2.782,1.019,30.167,30.167,0,0,1-3.5.7L91.752,90.9A15.836,15.836,0,0,0,96,89.872a19.5,19.5,0,0,0,3.727-2.016,8.68,8.68,0,0,1,.567,1.218,13.878,13.878,0,0,1-4.41,2.552A28.986,28.986,0,0,1,90.219,93l1.155,1.449a33.888,33.888,0,0,0,3.5-.85,21.741,21.741,0,0,0,3.192-1.228,11.6,11.6,0,0,0,2.572-1.659,17.507,17.507,0,0,1-.084,2.814,0.916,0.916,0,0,1-.231.4,1.156,1.156,0,0,1-.378.294,7.033,7.033,0,0,1-1.533-.136,17.554,17.554,0,0,1-2-.536l0.651,1.869a8.167,8.167,0,0,0,3.675.147,1.815,1.815,0,0,0,.935-0.725,4.066,4.066,0,0,0,.493-1.816,12.043,12.043,0,0,0-.01-2.068,15.579,15.579,0,0,0-.305-2.068l1.008-.42a12.592,12.592,0,0,0,.861,1.879,10.288,10.288,0,0,0,1.607,2.153,6.533,6.533,0,0,0,2.236,1.575Zm20,0.294a13.99,13.99,0,0,1-3.329-2.279,8.017,8.017,0,0,1-1.921-2.992h4.011V86.323h-5.5v-1.68h3.948V77.86h-9.681v6.783h4.137v1.68h-5.607v1.533h4.284a13.218,13.218,0,0,1-1.554,2.509,9.917,9.917,0,0,1-1.785,1.806,9.2,9.2,0,0,1-1.554.977l1.176,1.218a10.042,10.042,0,0,0,1.942-1.4,12.643,12.643,0,0,0,1.869-2.121,9.248,9.248,0,0,0,1.229-2.257v7.2h1.6l0.042-7.476a10.9,10.9,0,0,0,5.46,5.985ZM113.876,76.852a16.66,16.66,0,0,1-1.586,5.177,17.613,17.613,0,0,1-3.2,4.42l1.176,1.134,0.441-.441q0.315-.315,1.659-2.037V95.857h1.6V82.333A19.11,19.11,0,0,0,114.768,80a21.649,21.649,0,0,0,.557-2.5Zm10.353,6.258H117.74V79.393h6.489V83.11Zm24.32,2.268V83.845h-5.124V81.283h3.969V79.75h-3.969V76.81h-1.6v2.94h-4.074v1.533h4.074v2.562h-4.851v1.533h11.571Zm0.126,3.654V87.5h-3.108V85.9h-1.6v1.6H136.6v1.533h7.371v4.746a0.558,0.558,0,0,1-.42.357,19.942,19.942,0,0,1-2.394-.105,13,13,0,0,0,.609,1.638h2.121a2.125,2.125,0,0,0,1.207-.514,1.735,1.735,0,0,0,.473-1.04V89.032h3.108Zm-6.531,3.108a13.511,13.511,0,0,0-3.8-2.52l-1.05,1.155a14.456,14.456,0,0,1,3.78,2.541Zm-4.935-9.618V80.989h-2.541V76.81h-1.6v4.179H130.2v1.533h2.877v4.431q-0.546.21-1.9,0.641t-1.5.472l1.05,1.323A12.185,12.185,0,0,0,131.938,89a11.473,11.473,0,0,0,1.134-.472v5.061a0.582,0.582,0,0,1-.21.483,2.2,2.2,0,0,1-.683.115,9.083,9.083,0,0,1-.934-0.031q-0.546-.042-0.756-0.042l0.5,1.554h1.953a2.355,2.355,0,0,0,.882-0.168,1.2,1.2,0,0,0,.63-0.556,1.8,1.8,0,0,0,.21-0.871V88.024l2.415-.9v-1.7l-2.415.987V82.522h2.541Zm29.643,3.78V78.217h-9.87V86.3h9.87Zm-10.311-5.481a4.534,4.534,0,0,0-.756-0.987,7.225,7.225,0,0,0-1.333-1.061,11.4,11.4,0,0,0-1.586-.85l-1.134,1.029A7.764,7.764,0,0,1,155.281,82ZM169.33,95.227V93.694h-1.407V87.562H155.911v6.132h-1.365v1.533H169.33ZM155.365,84.895a9.506,9.506,0,0,0-1.848-1.712,7.4,7.4,0,0,0-2.163-1.061l-1.071,1.113a11.933,11.933,0,0,1,2.216,1.207,6.91,6.91,0,0,1,1.627,1.627Zm-1.449,1.953a20.177,20.177,0,0,1-1.365,4.294,12.293,12.293,0,0,1-2.226,3.623l1.554,0.84a11.971,11.971,0,0,0,2.037-3.486,22.647,22.647,0,0,0,1.365-4.6Zm11.34-5.418h-6.678V79.75h6.678v1.68Zm0,3.339h-6.678V82.963h6.678v1.806Zm1.071,8.925h-1.89v-4.6h1.89v4.6Zm-3.486,0h-1.869v-4.6h1.869v4.6Zm-3.465,0h-1.869v-4.6h1.869v4.6Zm26.8-14.637A10.46,10.46,0,0,1,185,82.249l1.47,0.651a9.364,9.364,0,0,0,1.092-3.444Zm1.071-2.163a24.045,24.045,0,0,1-4.022.924,57.949,57.949,0,0,1-6.6.483l0.714,1.512a30.475,30.475,0,0,0,4.063-.263,41.245,41.245,0,0,0,4.358-.693,11.952,11.952,0,0,0,2.541-.808Zm-2.961,5.4a7.761,7.761,0,0,0-1.575-2.688l-1.533.441a9.5,9.5,0,0,1,1.134,1.607,5.756,5.756,0,0,1,.462,1.207Zm5.019,11.865a14.364,14.364,0,0,1-2.594-.5,6.943,6.943,0,0,1-2.194-.966,10.147,10.147,0,0,0,1.5-1.47,9.61,9.61,0,0,0,1.229-1.827V87.94h-6.636a3.052,3.052,0,0,0,.157-0.451,3.209,3.209,0,0,1,.137-0.409h7.728V85.546H181.1l0.315-.945h6.447V83.068l-8.064-.021,1.092-.546a5.5,5.5,0,0,0-.924-1.512,5.109,5.109,0,0,0-1.218-1.113l-1.323.672a6.5,6.5,0,0,1,1.953,2.52h-1.449V84.6h1.932a4,4,0,0,1-.294.945h-2.415v1.533h2.037a8.639,8.639,0,0,1-.872,2.058,11.481,11.481,0,0,1-2.593,3.15l1.533,0.819a15.953,15.953,0,0,0,2.52-3.36,13.455,13.455,0,0,0,.966,1.533,10.893,10.893,0,0,0,1.113,1.344,15.666,15.666,0,0,1-5.019,1.638l0.861,1.47a13.914,13.914,0,0,0,2.94-.819,17.367,17.367,0,0,0,2.478-1.281,13.53,13.53,0,0,0,5.229,2.016Zm-12.7-2.814V78.658h-5.04V93.232h1.6v-1.89H176.6Zm8.841-1.869a9.664,9.664,0,0,1-1.187,1.418,7.038,7.038,0,0,1-1.06.871,5.43,5.43,0,0,1-.893-0.977,14.814,14.814,0,0,1-.913-1.312h4.053Zm-10.437-5.355h-1.848V80.191h1.848v3.927Zm0,5.691h-1.848V85.567h1.848v4.242ZM207.662,77.8H199.85v7.959a16.519,16.519,0,0,1-.389,4.085,6.843,6.843,0,0,1-1.228,2.5,12.02,12.02,0,0,1-2.373,2.174l1.176,1.176a10.843,10.843,0,0,0,2.4-2.195,9.4,9.4,0,0,0,1.365-2.3,8.184,8.184,0,0,0,.557-2.31h4.7v4.242a0.429,0.429,0,0,1-.158.315,0.743,0.743,0,0,1-.325.189,2.131,2.131,0,0,1-.641.042q-0.409-.021-1.669-0.126l0.525,1.638q0.567-.021,2.268.021a1.629,1.629,0,0,0,.8-0.368,2.232,2.232,0,0,0,.609-0.672,1.263,1.263,0,0,0,.189-0.556V77.8Zm-9.555,12.81V79.078H191.7v12.1h1.6V89.851h3.213v0.756h1.6Zm7.959-8.127h-4.62V79.33h4.62v3.15Zm0,4.872h-4.62V84.013h4.62v3.339Zm-9.639-3.822H193.3V80.611h3.129V83.53Zm0.084,4.788H193.3V85.063h3.213v3.255Zm30.958-8.064V78.721h-6.888a8.943,8.943,0,0,0-1.407-2.079l-1.785.84a3.47,3.47,0,0,1,1.386,1.239H211.95v1.533h15.519Zm-2.814,4.83V80.9h-9.87v4.179h9.87Zm3.57,4.578V85.714H211.152v3.948h1.6V87.247h13.881v2.415h1.6ZM226.986,90.9a8.444,8.444,0,0,1-.221,1.586,1.675,1.675,0,0,1-.262.5,0.9,0.9,0,0,1-.347.263,1.387,1.387,0,0,1-.388.105h-2.5a0.345,0.345,0,0,1-.368-0.126,0.892,0.892,0,0,1-.031-0.21V88.066h-6.7v2.625a3.4,3.4,0,0,1-.557,1.46,1.973,1.973,0,0,1-1.06.808,10.588,10.588,0,0,1-4.116,1.029l0.777,1.638a16.849,16.849,0,0,0,4.158-1.323,4.064,4.064,0,0,0,1.648-1.375,4.269,4.269,0,0,0,.746-1.964V89.6h3.507v3.843a1.329,1.329,0,0,0,.2.661,1.453,1.453,0,0,0,.662.567,2.172,2.172,0,0,0,.945.221h3.36a1.6,1.6,0,0,0,.819-0.336,2.465,2.465,0,0,0,.588-0.725,6.916,6.916,0,0,0,.514-1.334q0.263-.882.284-0.966Zm-3.927-7.35h-6.678V82.438h6.678v1.113Z"/>
</svg>
