<svg xmlns="http://www.w3.org/2000/svg" width="300" height="250" viewBox="0 0 300 250">
  <defs>
    <style>
      .cls-1 {
        fill: #fffffe;
        fill-rule: evenodd;
      }
    </style>
  </defs>
  <path id="_直播电视" data-name="+ 直播电视" class="cls-1" d="M159.718,140.327h-7.71v-7.709h-3.25v7.709h-7.751v3h7.751v7.709h3.25v-7.709h7.71v-3ZM105.8,199.746V196.7H98.382V173.038H89.09a18.645,18.645,0,0,0,1.042-2.834H103.8v-3.041H90.84l0.333-2.542-3.375-.875a16.438,16.438,0,0,1-.375,3.417H72.215V170.2H86.757a17.645,17.645,0,0,1-1.208,2.834H77.3V196.7H69.757v3.042H105.8ZM95.215,179.121H80.465v-3.042h14.75v3.042Zm0,5.708H80.465v-2.958h14.75v2.958Zm0,5.875H80.465v-3h14.75v3Zm0,6H80.465v-2.958h14.75V196.7Zm46.5-28.5a9.791,9.791,0,0,1-1.563,2.459,13.917,13.917,0,0,1-2.062,2.083l2.5,1.375a9.108,9.108,0,0,0,2.25-2.187,11.166,11.166,0,0,0,1.292-2.188Zm7.333,15.834a25.712,25.712,0,0,1-5.021-3.084,15.019,15.019,0,0,1-3.437-3.625h6.333v-3.041H136.3v-5.959a41.611,41.611,0,0,0,10.209-2.375l-2.584-2.166a48.167,48.167,0,0,1-9.208,1.875,100,100,0,0,1-11.5.75l1.458,2.916a19.827,19.827,0,0,1,2.125-.041l-1.916,1.083a9.964,9.964,0,0,1,3.458,3.917h-5.75v3.041h7.542a14.989,14.989,0,0,1-3.938,3.959,22.925,22.925,0,0,1-5.521,2.875l1.875,2.708,2.875-1.5v15.75h3.167v-2.667h12.75v2.667H144.3V184.954a12.78,12.78,0,0,0,2.5,1.584Zm-25.75-1.875v-3.292l-4.083,1.917v-6.625H123.3v-3.042h-4.083v-7.167h-3.167v7.167h-5v3.042h5v7.958q-2.5,1.209-6.25,2.75l2.042,2.583q0.583-.249,1.271-0.562t1.687-.833q1-.52,1.25-0.646v11.333a1.51,1.51,0,0,1-.166.813,0.733,0.733,0,0,1-.542.479,6.1,6.1,0,0,1-1.583.125q-0.792-.042-2.209-0.167l1.167,3.167a13.926,13.926,0,0,0,4.333-.209,2.635,2.635,0,0,0,1.521-1.1,3.134,3.134,0,0,0,.646-1.854V184.2Zm9.834-7.875-3.459-.042,1.667-.708a16.9,16.9,0,0,0-1.5-2.417,13.573,13.573,0,0,0-1.792-2.042,44.736,44.736,0,0,0,5.084-.333v5.542Zm-5.792,9.833a15.66,15.66,0,0,0,5.792-5.958v5.458H136.3v-6.292h0.834a17.171,17.171,0,0,0,6.208,6.834Zm14,5.75h-4.875V187.2h4.875v2.667Zm0,5.542h-4.875v-2.667h4.875v2.667Zm-8.042-5.542H128.59V187.2H133.3v2.667Zm0,5.542H128.59v-2.667H133.3v2.667Zm53.75-4.792-0.166,3.25q-0.168,2.542-1.25,2.875H173.09a0.965,0.965,0,0,1-1.167-1V190.7h12.625V170.371H171.923V164h-3.166v6.375H156.423V190.7h12.334V195.5q0,4.125,3.416,4.125H185.84l1.208-.125q2.958-.293,2.959-7.458Zm-5.666-11.75h-9.459v-5.417h9.459v5.417Zm0,8.833h-9.459v-5.791h9.459V187.7Zm-12.625-8.833h-9.334v-5.417h9.334v5.417Zm0,8.833h-9.334v-5.791h9.334V187.7Zm58.875,1.792V165.913h-18V189.5H212.8V168.954h11.667V189.5h3.167Zm-23.584-20.375a11.121,11.121,0,0,0-2.1-2.9,10.063,10.063,0,0,0-2.687-1.979l-2.25,1.75a12.062,12.062,0,0,1,4.625,4.875Zm24.167,23.75-0.583,3.208a0.75,0.75,0,0,1-.25.438,0.673,0.673,0,0,1-.459.187H222.09a0.609,0.609,0,0,1-.458-0.229,0.7,0.7,0,0,1-.209-0.479V184.079h-1.916l0.166-2.625V171.413h-3v9.458a31.946,31.946,0,0,1-.375,4.375,12.965,12.965,0,0,1-1.875,5.188,19.431,19.431,0,0,1-4.146,4.708A22.286,22.286,0,0,1,204.3,198.7l2.084,2.584a20.958,20.958,0,0,0,7.5-4.959,19.5,19.5,0,0,0,4.375-6.708V196.5a3.381,3.381,0,0,0,.812,2.333,2.98,2.98,0,0,0,2.354.917h6.459a2.185,2.185,0,0,0,1.437-.5,3.078,3.078,0,0,0,.917-1.437,15.63,15.63,0,0,0,.521-2.063q0.207-1.125.208-1.167Zm-19.125-4.542a16.257,16.257,0,0,0-1.563-3.187,12.1,12.1,0,0,0-2.187-2.729l-2.042,1.916a16.007,16.007,0,0,1,1.938,2.792,29.817,29.817,0,0,1,1.6,3.292Zm-14.5-16.916v3.041h9.375a16.734,16.734,0,0,1-2.542,5.48,21.252,21.252,0,0,1-4.1,4.479,28.356,28.356,0,0,1-4.1,2.833l1.875,2.625a43.376,43.376,0,0,0,4.542-3.333v14.791H202.8V183.038a27.164,27.164,0,0,0,5.042-11.625H194.59Z"/>
</svg>
