<svg xmlns="http://www.w3.org/2000/svg" width="300" height="250" viewBox="0 0 300 250">
  <defs>
    <style>
      .cls-1 {
        fill: #fffffe;
        fill-rule: evenodd;
      }
    </style>
  </defs>
  <path id="每月仅" class="cls-1" d="M135.874,149.045c6.608-3.649,11.051-9.465,11.051-17.79,0-14.255-10.937-22.009-25.977-22.009-16.407,0-26.433,9.693-26.547,24.176h9.571c0.455-10.948,7.633-15.509,16.976-15.509,9.913,0,16.293,4.9,16.293,13.57s-5.925,13.8-16.863,13.8H114.91v7.983h6.038c11.394,0,18.458,6.386,18.458,16.193s-7.064,15.966-17.888,15.966c-11.85,0-18.572-6.159-18.914-17.676H93.148c-0.114,15.737,9.8,26.342,28.37,26.342,16.52,0,27.914-9.807,27.914-24.632C149.432,159.309,143.279,152.923,135.874,149.045Zm63.57-.342c6.836-2.965,11.735-8.667,11.735-17.22,0-14.483-11.735-22.237-26.091-22.237S159,117,159,131.483c0,8.553,4.9,14.255,11.735,17.22-9,3.421-15.039,10.492-15.039,20.527,0,15.4,11.963,24.86,29.395,24.86s29.4-9.465,29.4-24.86C214.483,159.2,208.445,152.124,199.444,148.7Zm-14.356-30.79c9.343,0,16.635,4.675,16.635,13.57s-7.292,13.571-16.635,13.571-16.635-4.676-16.635-13.571S175.745,117.913,185.088,117.913Zm0,67.511c-11.735,0-19.369-5.816-19.369-16.194s7.634-16.193,19.369-16.193,19.369,5.816,19.369,16.193S196.823,185.424,185.088,185.424Zm51.956-1.683q-0.326,1.575-.525,2.2-0.375,1.3-1.124,1.3h-3.222a0.664,0.664,0,0,1-.525-0.125,0.822,0.822,0,0,1-.074-0.4v-5.55h4v1.5h1.9v-9.375h-8.642v1.825h6.744v4.225h-5.895v7.75a2.055,2.055,0,0,0,.238.925,1.739,1.739,0,0,0,.786.762,2.444,2.444,0,0,0,1.149.288h4.022a1.793,1.793,0,0,0,1.011-.325,2.608,2.608,0,0,0,.737-0.7,15.05,15.05,0,0,0,1.2-3.525Zm2.747,6.975q-1.325.1-3.434,0.15t-2.373.05h-0.337q-3.172,0-3.9-.025t-1.5-.113a12.555,12.555,0,0,1-1.512-.262,8.71,8.71,0,0,1-1.336-.425v-4.25h2.972v-1.825H225.4v-2.575h3.372v-1.825h-4.121v-2.8h3.2v-1.825h-3.2v-3.575h-1.9v3.575h-3.672v1.825h3.672v2.8h-4.421v1.825h5.17v7.7a3.785,3.785,0,0,1-1.112-.8,8.065,8.065,0,0,1-.986-1.15,29.853,29.853,0,0,0,.175-3.675l-1.874-.275a31.538,31.538,0,0,1-.374,4.85,10.358,10.358,0,0,1-2.273,4.875l1.648,1.15a18.09,18.09,0,0,0,1.5-2.4,9.512,9.512,0,0,0,.874-2.25,9.764,9.764,0,0,0,2.56,1.85,11.232,11.232,0,0,0,2.985,1.062,13.74,13.74,0,0,0,2.6.288l4.5,0.05h5.22Zm3.624-11.438,1.383-1.908,1.383,1.908,0.728-.582-1.4-1.938,2.213-.714-0.306-.874-2.154.7v-2.3h-0.932v2.3l-2.154-.7-0.306.874,2.213,0.714-1.4,1.938ZM87.2,139.447c0-6.616-4.243-8.821-11.261-10.046l-1.469-.245v-9.638c3.917,0.327,5.549,2.206,5.712,5.064h5.875c-0.326-5.962-4.243-9.637-11.587-10.046v-4.818H71.7v4.737c-8,.408-11.832,4.328-11.832,9.637,0,6.534,4.243,9.066,10.771,10.21l1.061,0.163v10.128c-4.08-.327-6.2-1.879-6.528-5.8H59.129c0.245,6.125,4.08,10.291,12.567,10.781v4.818H74.47v-4.737C82.386,149.411,87.2,145.818,87.2,139.447Zm-21.053-15.6c0-2.45,1.714-4.084,5.549-4.329v9.148C67.534,127.849,66.147,126.461,66.147,123.847Zm8.323,20.827v-9.719c5.222,0.98,6.447,2.287,6.447,4.9C80.917,142.551,79.121,144.429,74.47,144.674ZM128.532,64.2V61.163H104.407a8.28,8.28,0,0,1,.479-1.021,8.719,8.719,0,0,0,.646-1.6l-3.042-1a28.91,28.91,0,0,1-1.854,4.167,31.159,31.159,0,0,1-3.313,4.958,31.019,31.019,0,0,1-4,4.208l2.583,1.958a41.6,41.6,0,0,0,7.041-8.625h25.584ZM129.407,80V76.954h-4.334q0-.083.271-3.75t0.313-5.708H100.948q-0.624,6.25-.771,7.354t-0.312,2.1H93.2V80h6.208Q98.7,84.33,97.323,89.954h22.625a4.395,4.395,0,0,1-.708,1.854,1.5,1.5,0,0,1-1.083.521q-0.626.042-2.146,0a36.865,36.865,0,0,1-5.063-.708l1.125,3.208a43.457,43.457,0,0,0,5.459.458,20.254,20.254,0,0,0,2.291-.167,3.587,3.587,0,0,0,1.709-.792,4.51,4.51,0,0,0,1.229-1.792,14.551,14.551,0,0,0,.771-2.583h4.083V86.913h-3.708L124.865,80h4.542ZM122.2,70.538a64.067,64.067,0,0,1-.5,6.417H103.157q0.165-.958.416-3.354t0.334-3.062H122.2ZM121.448,80q-0.375,3.209-.916,6.917h-19L102.74,80h4.375l-1.75,2.292a37.679,37.679,0,0,1,6.25,2.229,17.538,17.538,0,0,1,3.542,2.271l2.208-2.167a19.06,19.06,0,0,0-4.292-2.75A26.071,26.071,0,0,0,107.948,80h13.5Zm-3.791-5.458a12.737,12.737,0,0,0-3.75-2.312,25.2,25.2,0,0,0-5.625-1.479l-2.167,2.292a22.556,22.556,0,0,1,5.146,1.417,16.669,16.669,0,0,1,4.146,2.375Zm43.337-14.5H140.328v19.25a14,14,0,0,1-2.125,7.375,20.986,20.986,0,0,1-5.959,6.208l2.042,2.958a33.7,33.7,0,0,0,6.083-6.333,20.442,20.442,0,0,0,3.167-7.208h14.042v8.167a0.776,0.776,0,0,1-.334.6,1.1,1.1,0,0,1-.708.271l-5.375-.167,1.25,3.333h5.042a4.294,4.294,0,0,0,1.645-.354,2.95,2.95,0,0,0,1.375-1.167,3.023,3.023,0,0,0,.521-1.646V60.038Zm-3.416,9.583H143.619V63.079h13.959v6.542Zm0,9.625H143.619q0.084-1.083.063-3.333t0.021-3.25h13.875v6.583Zm47.737,13.333a28.421,28.421,0,0,1-5.771-4.146,36.1,36.1,0,0,1-4.771-5.354q0.666-.916,1.625-2.562a40.7,40.7,0,0,0,2.271-4.875,44.433,44.433,0,0,0,1.979-5.9q0.666-2.666.813-3.6t0.187-1.229V62.121H181.273v3h3.042a42.318,42.318,0,0,0,6.5,18.042,36.185,36.185,0,0,1-5.688,5.25,36.593,36.593,0,0,1-6.562,3.958l1.917,2.667a33.156,33.156,0,0,0,6.9-4.125,39.548,39.548,0,0,0,5.313-5.167,38.453,38.453,0,0,0,4.9,5.292,29.738,29.738,0,0,0,5.937,4.208ZM178.815,58q-3.334,8.875-5.125,12.375a30.5,30.5,0,0,1-3.4,5.438,21.077,21.077,0,0,1-3.021,3.063l2.25,2.25a18.28,18.28,0,0,0,2.6-2.6,31.453,31.453,0,0,0,2.938-3.9V95.038h3V68.413a80.517,80.517,0,0,0,3.375-8.958Zm19.5,7.125a37.2,37.2,0,0,1-1.229,5.792,34.091,34.091,0,0,1-2.083,5.5,30.91,30.91,0,0,1-2.23,3.917,36.086,36.086,0,0,1-3.833-8.208,33.429,33.429,0,0,1-1.375-7h10.75Z"/>
</svg>
