<svg id="Frame_2" data-name="Frame 2" xmlns="http://www.w3.org/2000/svg" width="300" height="250" viewBox="0 0 300 250">
  <defs>
    <style>
      .cls-1 {
        fill: #fff;
        fill-rule: evenodd;
      }
    </style>
  </defs>
  <path id="通过手机自动化管理_室温_灯光和电器" data-name="通过手机自动化管理 室温、灯光和电器" class="cls-1" d="M77.871,64.6H73.692l-0.441-.231a15.754,15.754,0,0,0,4.242-2.31V60.734H65.859v1.449l8.694,0.063q-0.063.021-.882,0.42a9.862,9.862,0,0,1-1.291.546q-0.473.147-.641,0.189a11.826,11.826,0,0,0-2.268-.945l-1.2,1.239q1.239,0.378,2.646.9H66.426V75.329h1.512v-3.4h3.423v2.94h1.512v-2.94h3.4v1.722a0.4,0.4,0,0,1-.252.483,9.485,9.485,0,0,1-2.142.021l0.525,1.491q0.21-.021.945-0.011a6.329,6.329,0,0,0,1.092-.052,1.612,1.612,0,0,0,.588-0.21,1.793,1.793,0,0,0,.672-0.588,1.212,1.212,0,0,0,.168-0.609V64.6Zm-12.936-.714a12.109,12.109,0,0,0-1.48-2.215,11.632,11.632,0,0,0-1.48-1.5l-1.176.861a9.893,9.893,0,0,1,1.585,1.743,11.378,11.378,0,0,1,1.187,2.016ZM79.152,76.19l-4.473.252q-0.462.021-1.218,0.031t-3.99-.115a6.543,6.543,0,0,1-2.51-.578,6.23,6.23,0,0,1-2.026-1.439V66.4H60.546v1.449h2.793v6.51q-2.583,2.142-3.528,2.814l1.2,1.26q0.231-.189,1.344-1.186t1.827-1.522a7.4,7.4,0,0,0,1.627,1.386,5.73,5.73,0,0,0,1.764.6,13.091,13.091,0,0,0,2.4.2h8.547ZM76.275,67.5h-3.4V66.047h3.4V67.5Zm0,2.982h-3.4V69.029h3.4v1.449ZM71.361,67.5H67.938V66.047h3.423V67.5Zm0,2.982H67.938V69.029h3.423v1.449Zm27.884-5.271V63.758H96.7v-3.8h-1.6v3.8H87.149v1.449h7.959v8.967a0.479,0.479,0,0,1-.21.231,15.913,15.913,0,0,1-2.142-.126l0.567,1.659h1.144a4.5,4.5,0,0,0,.6-0.042,4.981,4.981,0,0,0,.63-0.126,1.635,1.635,0,0,0,.672-0.62,2.552,2.552,0,0,0,.336-0.809V65.207h2.541Zm-12.81-1.2a13.859,13.859,0,0,0-3.318-3.717l-1.239.84a15.068,15.068,0,0,1,3.276,3.885ZM93.7,71.192a14.127,14.127,0,0,0-1.817-2.247,17.126,17.126,0,0,0-2.215-1.89L88.451,68.1a15.983,15.983,0,0,1,4.011,4.074Zm5.943,4.935-2.142.147-3.234.084-3.7-.084a5.106,5.106,0,0,1-1.743-.346,5.326,5.326,0,0,1-1.533-.913,5.194,5.194,0,0,1-1.008-1.071V66.7H81.227v1.533H84.8v5.922a47.819,47.819,0,0,1-3.99,3.024l1.05,1.218q0.714-.525,2.173-1.712t1.523-1.229a6.384,6.384,0,0,0,2.215,1.659,6.831,6.831,0,0,0,2.761.609l8.526,0.063Zm18.766-4.074V70.52h-7.728V67.328h6.006V65.795h-6.006V62.687a29.143,29.143,0,0,0,6.8-1.659l-0.882-1.2a31.719,31.719,0,0,1-6.993,1.449,60.911,60.911,0,0,1-8,.378l0.945,1.554q4.83-.126,6.531-0.336v2.919h-6.321v1.533h6.321V70.52h-8.064v1.533h8.064v4.41a0.673,0.673,0,0,1-.735.735q-0.546.021-2.646-.168l0.588,1.722h2.9a1.408,1.408,0,0,0,1.491-1.68V72.053h7.728Zm20.168,1.092c-0.014.084-.06,0.382-0.136,0.892s-0.155.931-.231,1.26a3.161,3.161,0,0,1-.284.8,0.477,0.477,0,0,1-.4.3h-0.672q-0.378,0-.378-0.273V60.9H130.01V71.738a6.1,6.1,0,0,1-.84,3.108,12.209,12.209,0,0,1-2.352,2.835l1.428,1.176a11.313,11.313,0,0,0,2.468-3.286,8.153,8.153,0,0,0,.892-3.623V62.414h3.276V76.631a1.3,1.3,0,0,0,.179.651,1.09,1.09,0,0,0,.577.473,2.159,2.159,0,0,0,.8.157h1.428a1.521,1.521,0,0,0,.9-0.284,1.427,1.427,0,0,0,.546-0.725,24.3,24.3,0,0,0,.735-2.772Zm-9.429-2.31a9.146,9.146,0,0,0-2.331-3.7l-0.651.4V65.459h2.9V63.947h-2.9v-3.99h-1.659v3.99h-3.171v1.512h3.024a15.377,15.377,0,0,1-.871,2.74,13.629,13.629,0,0,1-1.355,2.531,12.866,12.866,0,0,1-1.428,1.764l1.239,1.071a12.951,12.951,0,0,0,1.554-1.921,13.492,13.492,0,0,0,1.008-1.754v8.778h1.659l0.063-9.828a8.526,8.526,0,0,1,.882,1.491,8.368,8.368,0,0,1,.525,1.449Zm27.17,7.9v-15.9h-6.006a14.1,14.1,0,0,0,1.491-2.625l-1.491-.8a23.831,23.831,0,0,1-1.354,2.342q-0.5.7-.809,1.081H143.3v15.9h1.659V77.009h9.618v1.68Zm-1.743-11.865h-9.618v-2.5h9.618v2.5Zm0,4.2h-9.618V68.4h9.618v2.667Zm0,4.347h-9.618V72.6h9.618v2.814Zm13.383-11.928V62.036h-7.476v1.449h7.476Zm4.83,1.26V59.852l-1.6.021v4.872h-2.205v1.449h2.205v1.659a12.557,12.557,0,0,1-.273,2.625,13.989,13.989,0,0,1-.682,2.3,3.692,3.692,0,0,1-.7,1.27,7.386,7.386,0,0,0-1.207-1.754,16.036,16.036,0,0,0-1.691-1.69l-1.155.819a7.914,7.914,0,0,1,1.05,1.029l-4.326,1.176a27.1,27.1,0,0,0,3-5.838h3.612V66.257h-9.156V67.79h3.78a19.16,19.16,0,0,1-1.585,3.623,9.881,9.881,0,0,1-1.943,2.761l1.092,1.6q2.331-.84,6.426-1.974a6.523,6.523,0,0,1,.945,1.449,6.355,6.355,0,0,1-1.291,1.113,12.293,12.293,0,0,1-1.5.882l1.218,1.344a10.949,10.949,0,0,0,3.224-2.447,10.106,10.106,0,0,0,2.079-3.832,20.74,20.74,0,0,0,.7-6.111h2.625q-0.147,2.751-.42,5.177t-0.525,3.938a3.853,3.853,0,0,0-.157.588,1.79,1.79,0,0,1-.221.62,0.621,0.621,0,0,1-.315.242,3.824,3.824,0,0,1-1.239-.042q-0.8-.126-1.113-0.168l0.5,1.617q0.147,0.021.84,0.105a4.615,4.615,0,0,0,1.092.031,2.615,2.615,0,0,0,.651-0.157,4.881,4.881,0,0,0,.536-0.294,2.22,2.22,0,0,0,.63-0.693,5.683,5.683,0,0,0,.535-2.037q0.252-1.911.5-4.8t0.4-5.576h-4.347Zm23.587,8.085a16.185,16.185,0,0,1-.672,2.9,0.788,0.788,0,0,1-.357.42,1.065,1.065,0,0,1-.566.168h-3.276a1.367,1.367,0,0,1-.861-0.231,0.756,0.756,0,0,1-.3-0.63V71a24.078,24.078,0,0,0,6.448-5.775l-1.387-.945a26.8,26.8,0,0,1-2.3,2.562,22,22,0,0,1-2.762,2.247v-8.61h-1.595v9.492a18.162,18.162,0,0,1-1.607.85q-0.871.409-2.467,1.061V65.816a33.908,33.908,0,0,0,1.931-5.061l-1.407-.672a35.771,35.771,0,0,1-1.553,3.9,19.555,19.555,0,0,1-1.8,3.045,14.782,14.782,0,0,1-2.341,2.531l1.448,1.092a8.235,8.235,0,0,0,1.082-1.008,13.837,13.837,0,0,0,1-1.218l0.041-.294v10.71h1.6V72.6l0.777,0.819a19.63,19.63,0,0,0,3.3-1.617v3.927a1.914,1.914,0,0,0,.42,1.2,2.216,2.216,0,0,0,.976.756,2.872,2.872,0,0,0,1,.21h3.928a3.387,3.387,0,0,0,1.018-.273,2.065,2.065,0,0,0,.662-0.5,6.645,6.645,0,0,0,.556-1.019,12.6,12.6,0,0,0,.64-2.677Zm21.246-9.912V61.385h-5.733a5.978,5.978,0,0,0,.294-1.218l-1.407-.525a9.364,9.364,0,0,1-.766,2.142,8.215,8.215,0,0,1-1.313,1.848l1.239,0.9a6.608,6.608,0,0,0,1.26-1.617h1.386a6.785,6.785,0,0,1,1.365,1.995,8.455,8.455,0,0,0,1.428-.735,5.617,5.617,0,0,0-.966-1.26h3.213Zm-0.441,6.174V65.144h-7.518c-0.014-.028-0.073-0.122-0.178-0.284s-0.214-.318-0.326-0.472l-0.336-.462a4.214,4.214,0,0,0-.325-0.4c-0.1-.112-0.193-0.2-0.263-0.273l-1.512.483a6.771,6.771,0,0,1,1.2,1.407h-7.707v4.095h1.6V66.677h13.776v2.415h1.6ZM209.054,63V61.469h-5.439l0.525-1.134-1.365-.651a11.717,11.717,0,0,1-1.69,2.772,8.386,8.386,0,0,1-1.733,1.533l1.2,1.134a8.844,8.844,0,0,0,2.2-2.121h1.218a7.442,7.442,0,0,1,1.2,2.016l1.428-.777a7.794,7.794,0,0,1-.441-0.745Q205.9,63.023,205.883,63h3.171Zm6.174,15.687V73.061H204.581V72.032H214.3V67.706H202.985V78.752h1.6v-1.3h9.051v1.239h1.6Zm-2.52-8.19h-8.127v-1.26h8.127V70.5Zm0.924,5.5h-9.051V74.594h9.051V76ZM238.4,77.66V76.127H232.8V73.733h4.179V72.2H232.8V70.226h4.326V61.049H226.852v9.177H231.2V72.2H227v1.533h4.2v2.394h-5.544V77.66H238.4Zm-11.781-4.116V71.969L224.059,73V68.777h2.079V67.244h-2.079V63.149h2.373V61.616h-6.51v1.533h2.541v4.095h-2.121v1.533h2.121v4.83q-2.352.882-3.171,1.113,0.334,0.336.85,0.788t0.536,0.472Zm8.967-10.962-0.042,2.205H232.8V62.582h2.793Zm-0.063,6.111H232.8V66.32h2.73v2.373ZM231.2,64.787h-2.751V62.582H231.2v2.205Zm0,3.906h-2.751V66.32H231.2v2.373ZM91.022,89.53V84.658H83.84a6.66,6.66,0,0,0-1.911-2.037l-1.533.861a8.847,8.847,0,0,1,1.617,1.176H74.474v5h1.6V86.191H89.426V89.53h1.6ZM90.014,93.5a10.735,10.735,0,0,0-1.764-1.932,10.112,10.112,0,0,0-2.121-1.512L84.764,91l1.281,0.819-6.846.525a10.143,10.143,0,0,0,1.712-1.407,18,18,0,0,0,1.712-1.953h5.859V87.451h-11.4v1.533H80.5a14,14,0,0,1-2.026,2.069,13.178,13.178,0,0,1-2.531,1.691l1.008,1.575q1.386-.231,5.334-0.63t4.4-.441q0.451-.042.934-0.1,0.084,0.105.388,0.43t0.451,0.5q0.147,0.179.231,0.283Zm1.323,7.182V99.148H83.609v-1.89h6.132V95.725H83.63l-0.042-1.617H82.013v1.617H75.86v1.533h6.153v1.89h-7.77v1.533H91.337Zm18.7-8.379V84.217h-9.87V92.3h9.87ZM99.728,86.821a4.547,4.547,0,0,0-.756-0.987,7.239,7.239,0,0,0-1.334-1.061,11.411,11.411,0,0,0-1.585-.85l-1.134,1.029A7.765,7.765,0,0,1,98.468,88Zm12.789,14.406V99.694H111.11V93.562H99.1v6.132H97.733v1.533h14.784ZM98.552,90.895A9.512,9.512,0,0,0,96.7,89.183a7.4,7.4,0,0,0-2.163-1.061L93.47,89.236a11.938,11.938,0,0,1,2.215,1.207,6.916,6.916,0,0,1,1.627,1.627ZM97.1,92.848a20.189,20.189,0,0,1-1.365,4.294,12.3,12.3,0,0,1-2.226,3.623l1.554,0.84A11.976,11.976,0,0,0,97.1,98.119a22.66,22.66,0,0,0,1.365-4.6Zm11.34-5.418h-6.678V85.75h6.678v1.68Zm0,3.339h-6.678V88.963h6.678v1.806Zm1.071,8.925h-1.89v-4.6h1.89v4.6Zm-3.486,0h-1.869v-4.6h1.869v4.6Zm-3.465,0h-1.869v-4.6h1.869v4.6Zm18.69-6.72a17.313,17.313,0,0,0-2.877-2.688L117.2,91.462q0.336,0.294.935,0.913a12.468,12.468,0,0,1,1.029,1.2q0.429,0.578.6,0.85ZM145.246,85.9V84.3H133.465v1.6h5.271V99.358q0,0.882-.609.819-1.323-.126-2.478-0.147l0.5,1.7h2.688a1.51,1.51,0,0,0,.735-0.21,1.666,1.666,0,0,0,.64-0.7,2.066,2.066,0,0,0,.263-0.976V85.9h4.767Zm-17.619,1.365a7.05,7.05,0,0,1-.179,2.415,7.846,7.846,0,0,1-.955,2.331l1.68,0.567a5.312,5.312,0,0,0,.714-1.669,10.377,10.377,0,0,0,.357-1.984,9.529,9.529,0,0,0,.021-1.386Zm7.2,10.815a8.7,8.7,0,0,0-3.444-3.276q0.1-1.113.105-3.99a9,9,0,0,0,2.73-2.478L133,87.094q-0.736,1.05-1,1.365a2.764,2.764,0,0,1-.535.5V83.23h-1.659v7.245q0,2.226-.126,3.864a10.674,10.674,0,0,1-.924,3.791A9.114,9.114,0,0,1,126.577,101l1.512,1.239a11.8,11.8,0,0,0,2.047-2.709,9.43,9.43,0,0,0,1.04-2.94,4.106,4.106,0,0,1,1.365,1.166,7.1,7.1,0,0,1,.861,1.417Zm27.249-13.755a10.585,10.585,0,0,1-1.869,2.93,21.236,21.236,0,0,1-1.638,1.648l1.281,1.008a19.006,19.006,0,0,0,2.132-2.31,13.687,13.687,0,0,0,1.48-2.436Zm2.09,12.17a7.78,7.78,0,0,0-.893-0.284,6.542,6.542,0,0,1-.168,1.575,4.376,4.376,0,0,1-.346,1.082,0.5,0.5,0,0,1-.326.284h-3.171a0.4,0.4,0,0,1-.294-0.126,0.381,0.381,0,0,1-.126-0.273V92.323H164.2v-1.6h-7.371V82.852h-1.6v7.875h-7.14l0.042,1.6h5.271a9.3,9.3,0,0,1-.672,3.738A5.822,5.822,0,0,1,150.7,98.4a13.718,13.718,0,0,1-3.906,1.712,9.367,9.367,0,0,1,.588.85q0.336,0.535.441,0.683a12.6,12.6,0,0,0,3.056-1.428,11.185,11.185,0,0,0,2.362-2.006,6.833,6.833,0,0,0,1.386-2.383,7.853,7.853,0,0,0,.326-1.617q0.115-1.008.136-1.89h2.163v6.888a1.382,1.382,0,0,0,.5,1.1,2.206,2.206,0,0,0,1.47.431h2.961a2.778,2.778,0,0,0,1.239-.21,1.459,1.459,0,0,0,.63-0.693,14.662,14.662,0,0,0,.882-3.087Q164.7,96.691,164.169,96.491ZM153.3,88.921a16.922,16.922,0,0,0-3.759-4.41l-1.449.882a9.892,9.892,0,0,1,2.237,2.047,12.441,12.441,0,0,1,1.585,2.425Zm31.5,11.613V84.784h-6.552v15.75h1.6v-2.1h3.36v2.1h1.6Zm-6.762-5.187a7.881,7.881,0,0,0-.966-1.69,10.45,10.45,0,0,0-1.312-1.533,6.855,6.855,0,0,0-1.061-.85l-0.567.4V90.16h3.57V88.627h-3.57v-3a19.371,19.371,0,0,0,1.964-.7,9.7,9.7,0,0,0,1.333-.641l-0.966-1.2a14.772,14.772,0,0,1-3.727,1.3,35.079,35.079,0,0,1-4.631.609l0.651,1.449a13.16,13.16,0,0,0,1.386-.115q0.693-.094,1.428-0.2t0.966-.147v2.646h-4.095V90.16h4.011a12.375,12.375,0,0,1-2,3.675,18.256,18.256,0,0,1-3.318,3.339l1.47,1.071a23.783,23.783,0,0,0,1.838-1.827,16.838,16.838,0,0,0,1.375-1.7,8.462,8.462,0,0,0,.714-1.2v8.274h1.6v-9.03a8.761,8.761,0,0,1,2.583,3.549Zm5.166,1.554h-3.36V86.317h3.36V96.9Zm20.967-.462-0.084,1.638q-0.084,1.281-.63,1.449h-6.321a0.486,0.486,0,0,1-.588-0.5V96.481h6.363V86.233h-6.363V83.02h-1.6v3.213h-6.216V96.481h6.216V98.9q0,2.079,1.722,2.079h6.888l0.609-.063q1.491-.147,1.491-3.759Zm-2.856-5.922h-4.767v-2.73h4.767v2.73Zm0,4.452h-4.767V92.05h4.767v2.919Zm-6.363-4.452h-4.7v-2.73h4.7v2.73Zm0,4.452h-4.7V92.05h4.7v2.919Zm27.272-1.628a10.812,10.812,0,0,1-2.614-.64,4.019,4.019,0,0,1-1.313-.8h6.405V90.37h-3.087a7.122,7.122,0,0,0-1.428-1.281h3.78V83.881h-7.014v5.208l2.52,0.042-1.2.588q0.525,0.21.945,0.409a3.281,3.281,0,0,1,.462.242h-3.129a5.357,5.357,0,0,0,.336-1.554l-1.511-.315a5.333,5.333,0,0,1-.463,1.869h-7.35V91.9h6.069v0.084q-2.331,1.449-6.972,1.554l0.546,1.6a29.446,29.446,0,0,0,4.3-.588,8.543,8.543,0,0,0,2.53-1.029A6.323,6.323,0,0,0,215.8,91.9h0.441a4.339,4.339,0,0,0,.966,1.113,5.333,5.333,0,0,0,1.3.882,16.416,16.416,0,0,0,2.825.829,17.5,17.5,0,0,0,3.6.451,8.884,8.884,0,0,0,.441-0.871l0.337-.746A22.608,22.608,0,0,1,222.227,93.341ZM215.3,89.089V83.965h-7.036v5.124H215.3Zm8.483,12.663V95.2H217.02v6.552h1.595v-1.3h3.507v1.3h1.659Zm-8.483,0V95.2h-6.847v6.552h1.659v-1.218h3.528v1.218h1.66Zm7.013-14.2h-3.759V85.5h3.759v2.058Zm-8.673,0h-3.78V85.5h3.78v2.058Zm8.484,11.382h-3.507v-2.2h3.507v2.2Zm-8.484,0H210.11v-2.2h3.528v2.2Z"/>
</svg>
