<svg id="SC" xmlns="http://www.w3.org/2000/svg" width="300" height="250" viewBox="0 0 300 250">
  <defs>
    <style>
      .cls-1 {
        fill: #4b286d;
        fill-rule: evenodd;
      }
    </style>
  </defs>
  <path id="选用全新升级版Optik_TV_" data-name="选用全新升级版Optik TV®" class="cls-1" d="M25.24,61.61l-1.411.953a10.576,10.576,0,0,1,1.98,2.041,7.937,7.937,0,0,1,.933,1.747,16.616,16.616,0,0,0,1.479-1.089A11.9,11.9,0,0,0,25.24,61.61h0ZM42.7,78.577a13.041,13.041,0,0,1-2.413.181H32.228a5.782,5.782,0,0,1-2-.272,6.179,6.179,0,0,0,1.912-1.293,7.031,7.031,0,0,0,1.332-1.837,8.525,8.525,0,0,0,.74-2.155,11.407,11.407,0,0,0,.228-2.246h1.593v5.58a1.108,1.108,0,0,0,.285.658,1.766,1.766,0,0,0,.614.522,1.318,1.318,0,0,0,.535.159H40.6a0.964,0.964,0,0,0,.592-0.261,2.347,2.347,0,0,0,.592-0.975,8.645,8.645,0,0,0,.432-1.758l-1.548-.68-0.25,1.656a0.419,0.419,0,0,1-.387.363H38.168a0.613,0.613,0,0,1-.41-0.295V70.956h3.824V69.3H36.233V66.26h3.642V64.6H36.233V61.565H34.5V64.6H32.364a14.526,14.526,0,0,0,.273-2.268L31.09,61.86a15.692,15.692,0,0,1-.5,2.813,11.62,11.62,0,0,1-.9,2.393,5.748,5.748,0,0,1-1.036,1.463L29.7,69.3H29.132v1.656h3.619a10.458,10.458,0,0,1-.478,2.858,4.751,4.751,0,0,1-1.229,1.849,8.34,8.34,0,0,1-2.39,1.576l0.637,1.134a8.89,8.89,0,0,1-1.047-.544,2.77,2.77,0,0,1-.842-0.68V68.8H22.691v1.656h2.982v6.238a29.77,29.77,0,0,1-3.778,2.835l1.3,1.316,3.05-2.5a8.434,8.434,0,0,0,2.481,1.486,11.635,11.635,0,0,0,2.572.578h10.7ZM34.5,69.3H30.361a7.985,7.985,0,0,0,1.593-3.04H34.5V69.3ZM63.888,62H48.729V72.09a14.9,14.9,0,0,1-.25,2.7,10.747,10.747,0,0,1-.751,2.472,14.433,14.433,0,0,1-2.117,3.176l1.457,1.089A13.73,13.73,0,0,0,49.5,77.761a15.925,15.925,0,0,0,.888-3.992H55.4V79.19h1.73V73.769H62.09v4.877a0.387,0.387,0,0,1-.341.476,6.213,6.213,0,0,1-.853.034q-0.444-.011-1.559-0.057l0.546,1.769,2.595-.045A1.476,1.476,0,0,0,63.1,80.54a1.845,1.845,0,0,0,.558-0.7,1.96,1.96,0,0,0,.228-0.851V62Zm-1.8,4.968H57.128V63.652H62.09v3.312Zm0,5.149H57.128V68.619H62.09v3.493ZM55.4,66.964H50.459V63.652H55.4v3.312Zm0,5.149H50.459V68.619H55.4v3.493Zm29.122-5.07a13.5,13.5,0,0,1-3.05-2.461,9.8,9.8,0,0,1-1.65-2.4l0.273-.454-3.255-.771A24.075,24.075,0,0,1,74.3,64.536a15.155,15.155,0,0,1-2.879,2.518,19.028,19.028,0,0,1-3.892,1.974,7.864,7.864,0,0,1,1.889,2.926,7.883,7.883,0,0,0,1.479-.726V71.75h5.485v1.656H71.308v2.722h5.076V78.01H68.69V80.8h18.6V78.01H79.524V76.128h4.848V73.406H79.524V71.75h5.235V71.205a9.508,9.508,0,0,0,1.366.681,6.271,6.271,0,0,1,2.139-2.972A22.417,22.417,0,0,1,84.52,67.043ZM74.267,68.914A10.573,10.573,0,0,0,76.2,67.292a16.378,16.378,0,0,0,1.73-2.076,20.82,20.82,0,0,0,1.718,2.008,13.41,13.41,0,0,0,1.992,1.735ZM111.025,67.8h-5.986V65.262a28.336,28.336,0,0,0,3.084-.6,20.061,20.061,0,0,0,2.834-.919l-2.276-2.45a25.165,25.165,0,0,1-6.623,1.7v7.395a15.535,15.535,0,0,1-.854,5.762,8.949,8.949,0,0,1-2.561,3.493,10.973,10.973,0,0,1,2.641,1.905,11.115,11.115,0,0,0,2.219-2.994,13.366,13.366,0,0,0,1.138-3.471,23.445,23.445,0,0,0,.353-4.287h1.274V81.345h3.05V70.8H111Zm-9.377,2.654v-2.7H99.781l0.82-1.588L99.235,65.6h2.14V62.971H98.234q-0.569-1.361-.842-1.86l-3.118.408a6.591,6.591,0,0,1,.751,1.452H91.019V65.6l2.071,0.045-0.774.249a8.34,8.34,0,0,1,.5,1.236,4.65,4.65,0,0,1,.137.624H90.837v2.7H94.82v0.862H91.041V73.95h3.073a15.488,15.488,0,0,1-3.755,3.38,10.3,10.3,0,0,1,1.684,2.4l1.183-.862a3.544,3.544,0,0,1,.842,2.5,6.9,6.9,0,0,0,2.845-.624,1.911,1.911,0,0,0,.91-1.826v-2a4.474,4.474,0,0,1,.421.306,7.833,7.833,0,0,1,.58.533q0.341,0.34.455,0.431,0.341-.476,1-1.27t0.911-1.089a15.925,15.925,0,0,0-2.686-1.883h2.845V71.319H97.8V70.457h3.847ZM97.642,65.6a22.175,22.175,0,0,1-.819,2.155H95.867q-0.137-.522-0.66-2.155h2.435ZM94.82,78.1a0.3,0.3,0,0,1-.284.295,2.939,2.939,0,0,1-.854.023,5.981,5.981,0,0,0,.66-0.6q0.387-.4.478-0.465V78.1Zm39.08-6.465v-2.9h-4.643V61.814h-3.551a0.251,0.251,0,0,0-.25.193,0.182,0.182,0,0,0,.136.261,0.528,0.528,0,0,1,.285.238,0.692,0.692,0,0,1,.125.374v5.852h-3.87v-3.72a14.856,14.856,0,0,0,3.1-1.61l-2.14-2.041a24.606,24.606,0,0,1-4.358,1.667,17.1,17.1,0,0,1-4.427.669,4.971,4.971,0,0,1,1,1.327,5.9,5.9,0,0,1,.592,1.554,20.871,20.871,0,0,0,3.209-.68v2.835h-5.348v2.9h5.348a8.961,8.961,0,0,1-.58,3.5,5.448,5.448,0,0,1-1.753,2.234,9.336,9.336,0,0,1-3.084,1.429,7,7,0,0,1,1.059.817,5.11,5.11,0,0,1,.819.953,6.245,6.245,0,0,1,.467.839,13.146,13.146,0,0,0,2.23-1.27,8.451,8.451,0,0,0,2.424-2.393,8.157,8.157,0,0,0,1.081-2.688,19.4,19.4,0,0,0,.342-3.425H126v9.776h3.255V71.636H133.9ZM154.76,77.5a9.154,9.154,0,0,1-.945-0.941,17.955,17.955,0,0,0,2.208-7.463l-0.683-.454h-1.593l1.389-5.875-0.865-.612H144.188v2.881h2.071a46.078,46.078,0,0,1-.433,6.283,29.485,29.485,0,0,1-1.183,5.376V75.629l-8.513,2.246,0.911,3.108,6.805-2.427a7.566,7.566,0,0,1-1.183,1.316,6.777,6.777,0,0,1,1.263.726,7.184,7.184,0,0,1,1.149,1,16.244,16.244,0,0,0,1.616-2.246,4.318,4.318,0,0,1,1.195.885,4.14,4.14,0,0,1,.854,1.2,16.251,16.251,0,0,0,1.8-1.2,15.479,15.479,0,0,0,1.5-1.293,18.824,18.824,0,0,0,3.05,2.654A11,11,0,0,1,157,79.122,21.885,21.885,0,0,1,154.76,77.5Zm-10.322-3.346V71.523l-3.232.522q0.591-.817,1.445-2.291t1.446-2.631l-2.276-1.384-1.3,2.087-0.637-.34q0.91-1.338,1.707-2.79t1.161-2.291L140.3,61.27q-0.661,1.543-1.366,2.847t-1.115,1.917l-0.729-.386-1.32,2.608a20.747,20.747,0,0,1,3.3,2.087q-0.5.817-1.411,2.087l-1.57.181,0.728,3.312Zm7.306-9.1-0.8,3.584h-1.981a21.653,21.653,0,0,0,.069-3.584h2.708Zm1.161,6.283a8.618,8.618,0,0,1-1.024,2.994,7.6,7.6,0,0,1-.865-1.452,7.386,7.386,0,0,1-.524-1.543h2.413ZM148.4,78.09a9.341,9.341,0,0,1-1.411.692,26.146,26.146,0,0,0,1.457-4.968,10.079,10.079,0,0,0,1.548,2.994A9.908,9.908,0,0,1,148.4,78.09Zm29.407-.635a12.191,12.191,0,0,1-1.411-1.531,17.582,17.582,0,0,0,1.252-3.89,39.055,39.055,0,0,0,.637-4.752l-0.819-.612h-6.237v-1.86a28.542,28.542,0,0,0,4.473-.5,24.01,24.01,0,0,0,3.494-.93l-1.776-2.268a15.351,15.351,0,0,1-3.96.862q-2.3.227-5.167,0.25v8.393a17.355,17.355,0,0,1-.375,3.2,14.368,14.368,0,0,1-.831,2.949V70.729H162.92V68.665h5.053V65.988h-1.207V61.247h-2.8a0.482,0.482,0,0,0-.342.159,0.268,0.268,0,0,0,.114.374,0.675,0.675,0,0,1,.251.261v3.947h-1.07V61.451h-3.073a0.426,0.426,0,0,0-.273.091,0.279,0.279,0,0,0-.114.227,0.375,0.375,0,0,0,.3.34,0.375,0.375,0,0,1,.3.34v7.259a27.786,27.786,0,0,1-1.411,9.55,4.655,4.655,0,0,1,2.777,1.52l0.136,0.159a27.794,27.794,0,0,0,1.389-7.463h1.433v5.557h1.275l-0.865.817a2.757,2.757,0,0,1,1.218.42,10.331,10.331,0,0,1,1.627,1.145,7.245,7.245,0,0,0,1.685-2.2,5.824,5.824,0,0,1,1.126.93,11.287,11.287,0,0,1,1.059,1.225,8.482,8.482,0,0,0,1.707-1.191,14.847,14.847,0,0,0,1.5-1.508,14.211,14.211,0,0,0,1.513,1.622,14.674,14.674,0,0,0,1.332,1.1,14.244,14.244,0,0,1,.876-1.429,6.778,6.778,0,0,1,.99-1.2A13.469,13.469,0,0,1,177.805,77.455Zm-2.412-8.041a11.445,11.445,0,0,1-.842,4.287,11.435,11.435,0,0,1-.956-4.287h1.8Zm-4.1,8.54a6.079,6.079,0,0,1-1.912,1.1,9.97,9.97,0,0,0,.853-2.03,17.86,17.86,0,0,0,.626-2.847q0.228-1.587.3-2.994a12.825,12.825,0,0,0,.637,2.665,11.928,11.928,0,0,0,1.093,2.416A8.537,8.537,0,0,1,171.3,77.954Zm20.3,2.28c4.849,0,8.081-3.357,8.081-8.438s-3.232-8.438-8.081-8.438c-4.87,0-8.1,3.357-8.1,8.438S186.728,80.233,191.6,80.233Zm0-2.7c-2.958,0-4.893-2.178-4.893-5.739s1.935-5.739,4.893-5.739,4.894,2.178,4.894,5.739S194.557,77.534,191.6,77.534Zm16.361-9.641a4.24,4.24,0,0,0-3.756,1.951V68.166h-2.754V84.316h2.868V78.351a4.205,4.205,0,0,0,3.642,1.792c3.232,0,5.257-2.4,5.257-6.125S211.191,67.893,207.959,67.893Zm-0.683,9.89c-1.867,0-3.027-1.293-3.027-3.766s1.16-3.766,3.027-3.766,3.027,1.2,3.027,3.675S209.142,77.783,207.276,77.783Zm13.424-7.44V68.166h-2.322v-3.4h-2.845v3.4h-1.821v2.178h1.821v6.624c0,2.155,1.184,2.994,3.665,2.994,0.455,0,.978-0.045,1.5-0.091V77.693h-0.979c-0.956,0-1.343-.249-1.343-1.021V70.343H220.7Zm2.726-3.584a1.577,1.577,0,1,0-1.593-1.565A1.571,1.571,0,0,0,223.426,66.759ZM221.992,79.87h2.868v-11.7h-2.868v11.7Zm13.036,0h3.277l-4.711-7.281,4.438-4.423h-3.414l-4.78,4.854v-9.3h-2.822V79.87h2.822V76.2l1.775-1.769ZM257.355,63.72H243.881v2.745h5.189V79.87h3.1V66.464h5.189V63.72Zm12.849,0-2.868,8.348c-0.524,1.588-1.07,3.312-1.525,5.036-0.478-1.724-1.025-3.448-1.548-5.036l-2.936-8.348h-3.278L263.99,79.87h3.6l5.8-16.151H270.2Zm6.044-.028a2.183,2.183,0,1,0,2.256,2.186A2.2,2.2,0,0,0,276.248,63.691Zm0,3.888a1.711,1.711,0,1,1,1.752-1.7A1.694,1.694,0,0,1,276.248,67.579Zm0.912-1.217a0.474,0.474,0,0,0-.266-0.467,0.546,0.546,0,0,0,.319-0.52,0.684,0.684,0,0,0-.814-0.652h-1.026v2.257h0.513V66.142h0.477c0.2,0,.266.071,0.283,0.291l0.018,0.238a0.611,0.611,0,0,0,.08.308h0.539a0.513,0.513,0,0,1-.1-0.308Zm-1.274-.644V65.163h0.469a0.28,0.28,0,1,1,.017.555h-0.486Z"/>
</svg>
