<svg id="Frame_3" data-name="Frame 3" xmlns="http://www.w3.org/2000/svg" width="300" height="250" viewBox="0 0 300 250">
  <defs>
    <style>
      .cls-1 {
        fill: #4b286d;
        fill-rule: evenodd;
      }
    </style>
  </defs>
  <path id="智能家居安防_" data-name="智能家居安防 " class="cls-1" d="M94.456,64.918V55.65H85.188v9.268h9.268ZM91.824,78.834V67.046L76.2,66.99a7.2,7.2,0,0,0,2.324-1.9,9.888,9.888,0,0,1,2.1.308,22.99,22.99,0,0,1,3.332,1.26l1.12-1.708a10.648,10.648,0,0,0-2.2-1.008,19.942,19.942,0,0,0-3.346-.728l0.224-.5H84.4V60.662h-4.34A10.645,10.645,0,0,0,80.2,58.2H83.48V56.154H77.012a5.714,5.714,0,0,0,.476-1.54l-2.044-.784a11.275,11.275,0,0,1-1.036,3.332,7.522,7.522,0,0,1-2.072,2.492l1.96,0.868a10.757,10.757,0,0,0,1.232-1.134,6.1,6.1,0,0,0,.9-1.19H78.1a9.382,9.382,0,0,1-.14,2.464H72.476v2.044h4.956a4.46,4.46,0,0,1-1.008,1.512,6.723,6.723,0,0,1-2.016,1.358,11.566,11.566,0,0,1-2.772.882l1.008,2.1a12.859,12.859,0,0,0,2-.644,7.866,7.866,0,0,0,1.3-.644v11.7h2.128V77.182H89.7v1.652h2.128Zm0.5-15.96H87.316v-5.18h5.012v5.18ZM89.7,71.106H78.076V69.09H89.7v2.016Zm0,4.032H78.076V73.15H89.7v1.988ZM120.115,60.3Q119.5,64.051,118.8,64.05h-3.7a2.132,2.132,0,0,1-.994-0.224,0.653,0.653,0,0,1-.434-0.56V61.222a30.281,30.281,0,0,0,4.83-1.918,17.215,17.215,0,0,0,3.094-2.03l-1.288-1.6a17.8,17.8,0,0,1-3.3,2.086,19.414,19.414,0,0,1-3.332,1.358V54.306h-2.128v9.688a2.212,2.212,0,0,0,.826,1.456,2.659,2.659,0,0,0,1.806.644h4.984a1.758,1.758,0,0,0,1.232-.574,3.421,3.421,0,0,0,.84-1.246,30.459,30.459,0,0,0,.924-3.192Zm-8.988,1.6a13.494,13.494,0,0,0-3.752-5.32L105.5,57.61a17.83,17.83,0,0,1,1.736,1.848l-5.964.5A19.042,19.042,0,0,0,105.3,54.39l-1.932-.98a40.993,40.993,0,0,1-2.926,4.48,17.59,17.59,0,0,1-1.554,1.68A9.964,9.964,0,0,1,97.8,60.578l1.428,1.876q0.5-.056,2.926-0.378t3.92-.476q1.5-.153,2.534-0.21l0.5,1.344Zm9.324,10.584a13.638,13.638,0,0,1-.644,2.8,1.736,1.736,0,0,1-.392.616,0.861,0.861,0,0,1-.476.28h-4.312q-0.952,0-.952-0.7v-2.6a23.317,23.317,0,0,0,4.256-1.3,17.132,17.132,0,0,0,3.948-2.254l-1.428-1.484a18.431,18.431,0,0,1-6.776,2.94V66.878h-2.128v8.96A2.118,2.118,0,0,0,112,77.1a2.5,2.5,0,0,0,1.05.868,2.837,2.837,0,0,0,1.078.252h5.04a2.349,2.349,0,0,0,1.064-.252,1.91,1.91,0,0,0,.784-0.7,7.651,7.651,0,0,0,.8-1.638,18.831,18.831,0,0,0,.63-2.394ZM109.5,63.518H99.4V78.582h2.128V73.01h5.852v2.632a0.841,0.841,0,0,1-.14.448,0.481,0.481,0,0,1-.336.252,7.089,7.089,0,0,1-1.792,0q-1.092-.111-1.148-0.112l0.784,2.156a19.334,19.334,0,0,0,3.024-.084,1.883,1.883,0,0,0,1.19-.742,2.437,2.437,0,0,0,.546-1.61V63.518Zm-2.128,3.724h-5.852v-1.68h5.852v1.68Zm0,3.724h-5.852v-1.68h5.852v1.68Zm41.213-8.82V57.022h-9.464a9.745,9.745,0,0,0-1.68-2.156,9.95,9.95,0,0,0-1.876-1.484L133.8,54.7a21.018,21.018,0,0,1,2.226,1.764,3.812,3.812,0,0,1,.434.56H126.356v5.236h2.128V59.066H146.46v3.08h2.128Zm1.344,12.908a7.786,7.786,0,0,1-2.422-1.512,13.18,13.18,0,0,1-2.142-2.492,11.068,11.068,0,0,1-1.428-2.912,20.381,20.381,0,0,0,3.108-2.8l-1.624-1.428a12.139,12.139,0,0,1-5.18,4.032,7.357,7.357,0,0,0-1.134-1.778,6.6,6.6,0,0,0-1.5-1.358c0.056-.037.276-0.163,0.658-0.378s0.742-.434,1.078-0.658a9.038,9.038,0,0,0,.952-0.728h5.152V61H129.66v2.044l7.028,0.028q-3.471,2.1-10.192,3.164l1.456,1.848a24.42,24.42,0,0,0,7.588-2.212,8.439,8.439,0,0,1,1.4.952,18.356,18.356,0,0,1-2.6,1.54,19.712,19.712,0,0,1-3.71,1.358,40.18,40.18,0,0,1-4.662.938l1.484,1.82a21.111,21.111,0,0,0,5.67-1.372,25.974,25.974,0,0,0,4.97-2.688,11.579,11.579,0,0,1,.756,1.624,18.511,18.511,0,0,1-5.88,3.4,38.641,38.641,0,0,1-7.56,1.834l1.54,1.932a45.041,45.041,0,0,0,4.662-1.134,28.925,28.925,0,0,0,4.256-1.638,15.458,15.458,0,0,0,3.43-2.212,23.3,23.3,0,0,1-.112,3.752,1.217,1.217,0,0,1-.308.532,1.536,1.536,0,0,1-.5.392,9.376,9.376,0,0,1-2.044-.182,23.457,23.457,0,0,1-2.66-.714l0.868,2.492q3.612,0.672,4.9.2a2.416,2.416,0,0,0,1.246-.966,5.416,5.416,0,0,0,.658-2.422,16.028,16.028,0,0,0-.014-2.758,20.724,20.724,0,0,0-.406-2.758l1.344-.56a16.882,16.882,0,0,0,1.148,2.506,13.734,13.734,0,0,0,2.142,2.87,8.725,8.725,0,0,0,2.982,2.1Zm26.36-8.12V64.89h-8.876V62.006h-2.128V64.89h-8.26V61.782h17.864V55.146H154.9V67.018a35.3,35.3,0,0,1-.168,4.186,14.242,14.242,0,0,1-.5,2.3,12.538,12.538,0,0,1-.938,2.2,11.933,11.933,0,0,1-1.47,2.128l1.848,1.26a13.391,13.391,0,0,0,2.366-4.018,17.171,17.171,0,0,0,.924-4.928q0.153-2.814.182-3.206h8.148v3H158.6v8.932h2.128V77.21h11.452v1.652H174.3V69.93h-6.888v-3h8.876Zm-3.528-7.2H157.028V57.19h15.736v2.548Zm-0.588,15.428H160.724V71.974h11.452v3.192Zm29.517-12.8V57.246l-9.38-.084,0.812-.588a9.891,9.891,0,0,0-4.676-2.968l-1.708,1.428A13.684,13.684,0,0,1,189.5,56.21a6.038,6.038,0,0,1,1.358,1.036H180.525v5.292h2.128V59.29h16.912v3.08h2.128Zm0.532,4.228V64.554H189.737l1.848-3.472-1.932-.952-2.324,4.424h-7.392V66.6h6.272a38.336,38.336,0,0,1-3.36,5.348q3.5,0.729,7.056,1.848-4.06,2.688-10.836,3.22L180.441,79a25.662,25.662,0,0,0,4.83-.91,21.406,21.406,0,0,0,4.186-1.666,24.407,24.407,0,0,0,3.052-1.9q3.584,1.512,4.844,2.128a17.625,17.625,0,0,1,2.184,1.246q0.924,0.63,1.26.91l1.372-1.848a25.942,25.942,0,0,0-3.08-1.848,51.037,51.037,0,0,0-4.872-2.1,10.98,10.98,0,0,0,1.708-2.31,27.631,27.631,0,0,0,1.792-4.1h4.508Zm-6.776,0a9.98,9.98,0,0,1-1.33,3.038,12.15,12.15,0,0,1-2.114,2.59q-2.548-.84-5.6-1.624l2.352-4h6.692Zm34.048-6.1V58.45h-7.616l1.372-1.2a12.063,12.063,0,0,0-4.648-3.724l-1.568,1.512a14.005,14.005,0,0,1,2.66,1.708,11.768,11.768,0,0,1,1.652,1.708h-7.28v2.044h3.276q0.056,1.428-.126,4.13t-0.378,4.13a12.935,12.935,0,0,1-1.764,4.83,13.349,13.349,0,0,1-3.668,3.906l1.848,1.54,2.268-2.3q3.163-3.387,3.7-9.6h5.656a52.037,52.037,0,0,1-1.064,7.756,1.416,1.416,0,0,1-.924,1.26,8.945,8.945,0,0,1-1.876-.322q-0.953-.266-2.464-0.826l0.616,2.464q0.084,0.028.9,0.266t1.6,0.42a6.185,6.185,0,0,0,1.372.182,3.638,3.638,0,0,0,.98-0.112,2.837,2.837,0,0,0,1.876-2.324,38.313,38.313,0,0,0,.812-4.76q0.364-3.024.56-6.048h-7.868l0.168-4.592h9.94ZM214.013,67.9a5.306,5.306,0,0,0-.658-2.086,15.338,15.338,0,0,0-1.75-2.464l2.3-6.356V55.23h-7.812V79h2.128V57.274h3.472l-2.576,6.608a8.073,8.073,0,0,1,2.716,3.78,1.948,1.948,0,0,1-.448,2.24,3.352,3.352,0,0,1-2.968-.336l0.5,2.352a4.749,4.749,0,0,0,1.3.238,5.182,5.182,0,0,0,1.3-.07,3.14,3.14,0,0,0,1.5-.8,3.252,3.252,0,0,0,.938-1.442A8.4,8.4,0,0,0,214.013,67.9Z"/>
</svg>
