<svg id="SC" xmlns="http://www.w3.org/2000/svg" width="300" height="250" viewBox="0 0 300 250">
  <defs>
    <style>
      .cls-1 {
        fill: #fff;
        fill-rule: evenodd;
      }
    </style>
  </defs>
  <path class="cls-1" d="M59.608,190.319a8.83,8.83,0,0,1-2.766,2.19v4.371a0.841,0.841,0,0,1-.186.51,0.663,0.663,0,0,1-.538.255l-1.479.02-0.361-.785h1.6a0.187,0.187,0,0,0,.115-0.1,0.36,0.36,0,0,0,.056-0.2v-4.459a9.108,9.108,0,0,0,2.424-1.738H53V189.67h6.607v0.649Zm10.449-.747c-0.026.308-.084,0.7-0.171,1.179a5.088,5.088,0,0,1-.281,1.061,0.754,0.754,0,0,1-.216.28,0.587,0.587,0,0,1-.358.142,2.605,2.605,0,0,1-.271,0,4.723,4.723,0,0,1-.624-0.1L67.9,191.32c0.12,0.034.256,0.076,0.406,0.128s0.257,0.085.318,0.1a0.931,0.931,0,0,0,.165,0,0.166,0.166,0,0,0,.111-0.039,0.76,0.76,0,0,0,.095-0.231,5.328,5.328,0,0,0,.211-1H68.076a3.3,3.3,0,0,1-.307,1.012,2.75,2.75,0,0,1-.584.786,2.887,2.887,0,0,1-.88.55L66,192.2l-0.03,4.772a0.867,0.867,0,0,1-.12.423,0.762,0.762,0,0,1-.312.314,0.809,0.809,0,0,1-.372.1H64.687l-0.251-.707h0.6a0.755,0.755,0,0,0,.11-0.009c0.04-.007.061-0.069,0.061-0.187v-1.248H64.536v1.238H63.771v-1.238H63.1a4.819,4.819,0,0,1-.372,1.356,2.785,2.785,0,0,1-.684.962l-0.573-.51a4.81,4.81,0,0,0,.518-0.746,3.553,3.553,0,0,0,.216-0.565,4.518,4.518,0,0,0,.141-0.732v-3.054l-0.241.284-0.614-.49a5.193,5.193,0,0,0,1.042-1.36,6.666,6.666,0,0,0,.588-1.675l0.673,0.265a4.782,4.782,0,0,1-.131.609h1.781a10.525,10.525,0,0,1-.523,1.561h1.056v0.453a3.665,3.665,0,0,0,.734-0.453,1.717,1.717,0,0,0,.428-0.52,2.251,2.251,0,0,0,.216-0.757H66.246v-0.707h3.811Zm-6.668,1.13a3.912,3.912,0,0,1-.412.854H64.1a4,4,0,0,0,.4-0.854H63.389Zm0.382,1.561H63.108v0.963h0.663v-0.963Zm0,1.67H63.108v1.011h0.663v-1.011Zm1.438-1.67H64.536v0.963H65.21v-0.963Zm0,1.67H64.536v1.011H65.21v-1.011Zm3.591,1.856v2.151H68.036v-2.151H66.195v-0.707h1.841v-1.041H67.251a1.63,1.63,0,0,1-.227.486,2.009,2.009,0,0,1-.366.467l-0.553-.56a1.932,1.932,0,0,0,.513-0.815,2.876,2.876,0,0,0,.151-1.042l0.754,0.06a4.432,4.432,0,0,1-.07.7h0.584v-0.982H68.8v0.982h1.166v0.707H68.8v1.041h1.69v0.707H68.8Zm11.384,2.092a18.816,18.816,0,0,1-3.148-.4,9.575,9.575,0,0,1-1.921-.654l-0.312.206a7.15,7.15,0,0,1-2.886.933l-0.453-.658A13.772,13.772,0,0,0,72.878,197a8.913,8.913,0,0,0,1.514-.555,6.826,6.826,0,0,1-1.459-1.257l0.583-.383a11.64,11.64,0,0,0,1.469,1.119,2.694,2.694,0,0,0,.347-0.589,3.142,3.142,0,0,0,.206-0.648H72.8v-3.643h2.886v-0.7H71.757v-0.717h8.578v0.717H76.453v0.7H79.24v3.643H76.3a3.664,3.664,0,0,1-.232.87,2.954,2.954,0,0,1-.422.741,4.936,4.936,0,0,0,1.227.408,17.514,17.514,0,0,0,1.816.284q1.031,0.114,1.966.133Zm-4.5-6.119H73.567V192.5h2.122v-0.737Zm-2.122,1.454v0.757h2.072l0.04-.757H73.567Zm4.948,0H76.434l-0.051.757h2.132v-0.757Zm0-1.454H76.453V192.5h2.062v-0.737ZM90,193.806a6.746,6.746,0,0,1-.6.9,5.776,5.776,0,0,1-1.016,1,7.682,7.682,0,0,1-1.448.893,12.517,12.517,0,0,1-1.775.683,27.684,27.684,0,0,1-2.927.648l-0.5-.677a20.354,20.354,0,0,0,4.505-1.16,3.577,3.577,0,0,0-1.106-.982l0.724-.4a3.1,3.1,0,0,1,1.036,1.071,8.2,8.2,0,0,0,.98-0.6,4.3,4.3,0,0,0,.735-0.653,4.149,4.149,0,0,0,.467-0.634H86.5a7.9,7.9,0,0,1-1.142.8,18.89,18.89,0,0,1-2.037.973l-0.583-.629a13.005,13.005,0,0,0,2.529-1.183,7.019,7.019,0,0,0,1.8-1.587,12.372,12.372,0,0,1-1.88.909,20.607,20.607,0,0,1-2.957.879l-0.483-.659q0.794-.175,1.735-0.431a11.86,11.86,0,0,0,1.4-.452,3.506,3.506,0,0,0-1.127-.825l0.7-.442a3.224,3.224,0,0,1,.588.427,3.933,3.933,0,0,1,.537.546,9.077,9.077,0,0,0,1.066-.629,9.3,9.3,0,0,0,.935-0.767H84.82a10.767,10.767,0,0,1-2.2,1.091l-0.663-.609a7.766,7.766,0,0,0,3.882-2.377l0.7,0.364a7.4,7.4,0,0,1-.734.785h2.836v0.659a7.09,7.09,0,0,1-.679.751,7.269,7.269,0,0,1-.739.643l0.593,0.314a4.674,4.674,0,0,1-.534.707H90v0.659Z"/>
</svg>
