<svg id="SC" xmlns="http://www.w3.org/2000/svg" width="300" height="250" viewBox="0 0 300 250">
  <defs>
    <style>
      .cls-1 {
        fill: #4c286c;
        fill-rule: evenodd;
      }
    </style>
  </defs>
  <g id="txt1">
    <path class="cls-1" d="M74.721,98.737q-0.324.393-1.133,1.554a23.513,23.513,0,0,0-1.709,2.984,35.149,35.149,0,0,1-4.351-2.787V111H62.565V109.78H54.149v1.179H49.078v-9.971q-1.079.786-1.834,1.287a17.684,17.684,0,0,1-1.654.965l-0.467.25a25.878,25.878,0,0,0-3.129-4.5A22.851,22.851,0,0,0,48.827,95.2h-6.4V90.909h9.6l0.431-.715H46.273v-4.11H53.9l0.18-.715H44.546V81.081H54.868a15.167,15.167,0,0,0,.18-2.109l4.963,0.393-0.144,1.716H72.1V85.37H59.148l-0.18.715H70.3v4.11h-12.8l-0.36.715H74.218V95.2H68.283q1.475,1.038,3.2,2.02A20.429,20.429,0,0,0,74.721,98.737ZM61.773,95.2H54.94l-0.863.929H62.6Zm0.792,4.968H54.149v0.858h8.416v-0.858Zm0,4.753H54.149v0.858h8.416v-0.858Zm37.475,5.325v-2.287H88.388v2.359H83.532V80.509H105v29.735H100.04Zm0-24.981H88.388v6.5H100.04v-6.5Zm0,11.079H88.388v6.826H100.04V96.342Z"/>
  </g>
</svg>
