<svg id="SC" xmlns="http://www.w3.org/2000/svg" width="300" height="250" viewBox="0 0 300 250">
  <defs>
    <style>
      .cls-1 {
        fill: #4c286c;
        fill-rule: evenodd;
      }
    </style>
  </defs>
  <g id="txt1">
    <path class="cls-1" d="M75.524,142.179q-0.215,3.714-.359,4.405a7.676,7.676,0,0,1-.287,1.074,4.776,4.776,0,0,1-.287.638,4.991,4.991,0,0,1-1.365,1.638,2.979,2.979,0,0,1-1.8.546H67.336a2.8,2.8,0,0,1-1.849-.71,3.824,3.824,0,0,1-1.185-1.693,5.568,5.568,0,0,1-.341-1.82V130.529H62.633a34.11,34.11,0,0,1-2.227,12.488,18.384,18.384,0,0,1-6.283,7.973,10.068,10.068,0,0,0-2.729-3.277v3.094H46.4l0.036-14.526q-0.431.619-.521,0.746a6.23,6.23,0,0,1-.916.71,18.936,18.936,0,0,0-1.346-2.494,21.879,21.879,0,0,0-1.669-2.384,26.439,26.439,0,0,0,4.524-6.645A40.7,40.7,0,0,0,49.742,118l4.668,1.53a61.634,61.634,0,0,1-3.017,8.956V146.4a21.894,21.894,0,0,0,2.441-2.349,12.793,12.793,0,0,0,1.688-2.385,16.909,16.909,0,0,0,1.2-3,40.011,40.011,0,0,0,1.023-6.827v-1.31H52.9v-4.915h4.919v-5.425a0.566,0.566,0,0,0-.323-0.528,0.565,0.565,0,0,1-.342-0.4,1.4,1.4,0,0,1,.053-0.273l0.216-.182h5.314v6.809L68.2,125.65a17.817,17.817,0,0,0-3.2-4.478l3.77-2.076a22.757,22.757,0,0,1,3.95,5.17q-0.217.109-1.149,0.565a10.394,10.394,0,0,0-1.293.71l4.021,0.073v4.915H68.737v14.126a0.811,0.811,0,0,0,.611.892,1.411,1.411,0,0,0,1.077-.091,0.837,0.837,0,0,0,.5-0.51,20.921,20.921,0,0,0,.432-4.041A24.143,24.143,0,0,0,75.524,142.179Zm10.772-.728a23.137,23.137,0,0,1-1.652,5.534,13.091,13.091,0,0,1-2.083,3.2,10.6,10.6,0,0,0-1.813-1.42,18.875,18.875,0,0,0-2.137-1.2,12.239,12.239,0,0,0,1.9-2.622,18.809,18.809,0,0,0,1.616-4.369Zm10.629-17.076v0.8h9.551v9.649l1.077-.146a20.053,20.053,0,0,1,2.8,5.607,18.079,18.079,0,0,0-4.309,1.019,7.2,7.2,0,0,0-.718-1.529l-8.187.146a17.818,17.818,0,0,1,1.418,1.565A15.947,15.947,0,0,1,99.8,143.2q-0.108.037-1.58,0.856a20.551,20.551,0,0,0-2.154,1.329q-0.144-.219-0.718-1.147t-1.2-1.748a11.1,11.1,0,0,0-1.455-1.547l2.154-.874-14.362.364-0.79-4.223H92.113l-0.036-.8H82.6V125.176h9.48v-0.8H78.755V120.48H92.077v-0.764l-0.251-.4a0.3,0.3,0,0,1-.054-0.31,0.309,0.309,0,0,1,.162-0.236h4.991v1.711H110.39v3.895H96.925ZM111,146.4a7,7,0,0,0-1.257.655,15.838,15.838,0,0,0-2.477,2.33,38.877,38.877,0,0,0-3.232-3.969,6.135,6.135,0,0,1-1.634,3.769,4.9,4.9,0,0,1-3.465,1.183H90.928a5.021,5.021,0,0,1-1.633-.291,2.645,2.645,0,0,1-1.347-1.02,2.756,2.756,0,0,1-.5-1.6v-5.5a0.725,0.725,0,0,0-.089-0.291,1.132,1.132,0,0,0-.2-0.291q-0.431-.253-0.215-0.492a0.74,0.74,0,0,1,.574-0.236h4.525V144.8a1.357,1.357,0,0,0,.233.909,1.007,1.007,0,0,0,.772.256h5.315q1.4,0,1.651-2.476A11.1,11.1,0,0,0,104,145.383a17.265,17.265,0,0,0-2.621-2.33l3.59-2.184a22.912,22.912,0,0,1,2.784,2.148A28.035,28.035,0,0,1,111,146.4ZM92.077,128.09H87.229V129h4.848v-0.91Zm0,3.531H87.229V132.5h4.848v-0.874Zm9.8-3.531H96.925V129h4.955v-0.91Zm0,3.531H96.925V132.5h4.955v-0.874Zm1.579,3.787H96.925v0.946h7.109Z"/>
  </g>
</svg>
