<svg id="SC" xmlns="http://www.w3.org/2000/svg" width="300" height="250" viewBox="0 0 300 250">
  <defs>
    <style>
      .cls-1 {
        fill: #4c286c;
        fill-rule: evenodd;
      }
    </style>
  </defs>
  <g id="txt1">
    <path class="cls-1" d="M45.608,173.567l-0.63-1.936,1.834-.293v-2.653H45.321v-1.711h1.491v-1.782H45.035v-1.753h5.1v1.753H48.717v1.782h1.146v1.711H48.717v2.231l1.562-.295v1.8Zm12.509-1.612a7.878,7.878,0,0,1-.473,2.1,1.065,1.065,0,0,1-.9.582,10.891,10.891,0,0,1-2.407.042,1.12,1.12,0,0,1-.494-0.183,0.942,0.942,0,0,1-.351-0.561,4.553,4.553,0,0,1-.129-1.108,5.844,5.844,0,0,1-1.361,1.1,14.549,14.549,0,0,1-2.135.975,5.447,5.447,0,0,0-.48-0.982,4.251,4.251,0,0,0-.638-0.815,9.564,9.564,0,0,0,1.82-.588,5.143,5.143,0,0,0,1.354-.849,2.626,2.626,0,0,0,.753-1.116,5.1,5.1,0,0,0,.215-1.612v-3.775h1.805v4.068h0.315v3.143a0.568,0.568,0,0,0,.065.266,0.554,0.554,0,0,0,.48.127,1.222,1.222,0,0,0,.373,0,0.361,0.361,0,0,0,.236-0.112,0.881,0.881,0,0,0,.122-0.253,6.131,6.131,0,0,0,.143-1.178A3.548,3.548,0,0,0,58.117,171.955Zm-2.808-1.193v-6.047H52.243v6.047h-1.82v-7.926h6.72v7.926H55.309ZM72,171.323a11.22,11.22,0,0,1-.207,1.473,2.6,2.6,0,0,1-.373.884,1.5,1.5,0,0,1-.724.547,3.12,3.12,0,0,1-.817.168q-0.544.057-1.8,0.057H62.66a1.663,1.663,0,0,1-.666-0.162,1.541,1.541,0,0,1-.638-0.554,1.447,1.447,0,0,1-.272-0.841v-6.5a0.261,0.261,0,0,0-.179-0.176,0.228,0.228,0,0,1-.165-0.217,0.331,0.331,0,0,1,.029-0.126,0.3,0.3,0,0,1,.272-0.071h1.992v1.333H68.1V164.87H60.353v-1.88h9.671v6.762H68.1v-0.758H63.032v3.269c0,0.272.191,0.407,0.573,0.407h4.657a6.983,6.983,0,0,0,.881-0.042,1,1,0,0,0,.5-0.2,1.509,1.509,0,0,0,.323-0.351,13.171,13.171,0,0,0,.258-1.544A5.36,5.36,0,0,0,72,171.323Z"/>
  </g>
</svg>
