<svg id="SC" xmlns="http://www.w3.org/2000/svg" width="300" height="250" viewBox="0 0 300 250">
  <defs>
    <style>
      .cls-1 {
        fill: #4c286c;
        fill-rule: evenodd;
      }
    </style>
  </defs>
  <g id="txt1">
    <path class="cls-1" d="M48.6,173.567l-0.63-1.935,1.834-.294v-2.653h-1.49v-1.711H49.8v-1.782H48.026v-1.753h5.1v1.753H51.708v1.782h1.147v1.711H51.708v2.231l1.562-.295v1.8Zm12.509-1.612a7.878,7.878,0,0,1-.473,2.1,1.065,1.065,0,0,1-.9.582,10.891,10.891,0,0,1-2.407.042,1.119,1.119,0,0,1-.494-0.183,0.941,0.941,0,0,1-.351-0.561,4.55,4.55,0,0,1-.129-1.108,5.843,5.843,0,0,1-1.361,1.1,14.559,14.559,0,0,1-2.135.975,5.441,5.441,0,0,0-.48-0.982,4.278,4.278,0,0,0-.638-0.815,9.564,9.564,0,0,0,1.82-.588,5.114,5.114,0,0,0,1.354-.849,2.629,2.629,0,0,0,.753-1.115,5.107,5.107,0,0,0,.215-1.613v-3.775h1.806v4.069H58v3.142a0.575,0.575,0,0,0,.065.267,0.555,0.555,0,0,0,.48.126,1.222,1.222,0,0,0,.373,0,0.361,0.361,0,0,0,.236-0.112,0.883,0.883,0,0,0,.122-0.253,6.134,6.134,0,0,0,.143-1.178A3.548,3.548,0,0,0,61.107,171.955ZM58.3,170.762v-6.047H55.233v6.047h-1.82v-7.926h6.721v7.926H58.3Zm16.692,0.561a11.269,11.269,0,0,1-.207,1.474,2.6,2.6,0,0,1-.373.883,1.5,1.5,0,0,1-.724.547,3.081,3.081,0,0,1-.817.168q-0.544.057-1.8,0.057H65.65a1.663,1.663,0,0,1-.666-0.162,1.538,1.538,0,0,1-.638-0.553,1.453,1.453,0,0,1-.272-0.842v-6.5a0.263,0.263,0,0,0-.179-0.176,0.228,0.228,0,0,1-.165-0.217,0.331,0.331,0,0,1,.029-0.126,0.3,0.3,0,0,1,.272-0.071h1.992v1.333h5.072V164.87H63.343v-1.88h9.671v6.762h-1.92v-0.758H66.022v3.27q0,0.406.573,0.406h4.657a6.986,6.986,0,0,0,.881-0.042,1,1,0,0,0,.5-0.2,1.511,1.511,0,0,0,.323-0.351,13.15,13.15,0,0,0,.258-1.544A5.36,5.36,0,0,0,74.992,171.323Z"/>
  </g>
</svg>
