<svg id="SC" xmlns="http://www.w3.org/2000/svg" width="300" height="250" viewBox="0 0 300 250">
  <defs>
    <style>
      .cls-1 {
        fill: #4c286c;
        fill-rule: evenodd;
      }
    </style>
  </defs>
  <g id="txt1">
    <path class="cls-1" d="M84.963,174.236v0.758H83.046v-6.867l-0.22.248v1.094l-1.273.437v3.484a1.439,1.439,0,0,1-.556,1.2,5.521,5.521,0,0,1-1.917.35,3,3,0,0,0-.747-1.983c0.069,0,.2,0,0.4.015s0.356,0.012.468,0.007a1.805,1.805,0,0,0,.3-0.036,0.25,0.25,0,0,0,.154-0.1,0.234,0.234,0,0,0,.066-0.138v-2.172l-1.317.408L78,168.769l1.727-.379v-2.041H78.085v-1.808h1.639V162.6a0.236,0.236,0,0,0-.125-0.124,0.151,0.151,0,0,1-.066-0.269,0.314,0.314,0,0,1,.249-0.074h1.771v2.406h1.39v0.51A15.6,15.6,0,0,0,84.231,162l1.961,0.394a11.519,11.519,0,0,1-.5,1.1q-0.359.707-.461,0.926h1.288a12.137,12.137,0,0,0,.776-2.377l1.99,0.51q-0.058.132-.249,0.628c-0.127.33-.229,0.588-0.307,0.771s-0.152.341-.22,0.468h2.385v1.895H88.328v0.845h2.326v1.793H88.328V169.8h2.326v1.808H88.328v0.773h2.649v1.851H84.963Zm-3.409-7.887v0.467l0.5-.467h-0.5Zm0.556,1.4a2.27,2.27,0,0,0-.556-0.466v0.641Zm4.316-1.414H84.963v0.846h1.463v-0.846Zm0,2.624H84.963V169.8h1.463v-0.846Zm0,2.654H84.963v0.773h1.463v-0.773Zm16.564,3.368V174.3H95.366v0.655H93.522v-5.6a0.168,0.168,0,0,0-.139-0.139,0.175,0.175,0,0,1-.139-0.168c0-.115.1-0.174,0.307-0.174h1.8v3.674h2.78v-4.462H95.761v0.468H93.874v-5.278a0.2,0.2,0,0,0-.146-0.125,0.2,0.2,0,0,1-.146-0.167,0.129,0.129,0,0,1,.08-0.116,0.367,0.367,0,0,1,.183-0.045h1.917v3.456h2.371v-3.645a0.177,0.177,0,0,0-.051-0.116,0.222,0.222,0,0,0-.11-0.074,0.142,0.142,0,0,1-.146-0.13,0.165,0.165,0,0,1,.2-0.161h2.121v4.126h2.473V163.3a0.2,0.2,0,0,0-.146-0.138,0.191,0.191,0,0,1-.146-0.153c0-.106.087-0.16,0.263-0.16H104.6v5.714h-1.976v-0.481H100.15v4.477h2.839v-3.251a0.194,0.194,0,0,0-.139-0.1,0.182,0.182,0,0,1-.139-0.161c0-.106.088-0.16,0.263-0.16h2v6.095h-1.99Z"/>
  </g>
</svg>
