<svg id="SC" xmlns="http://www.w3.org/2000/svg" width="300" height="250" viewBox="0 0 300 250">
  <defs>
    <style>
      .cls-1 {
        fill: #4c286c;
        fill-rule: evenodd;
      }
    </style>
  </defs>
  <path id="txt2" class="cls-1" d="M38.8,87.221L38.3,85.629l1.474-.242v-2.18h-1.2V81.8h1.2V80.334H38.342V78.892h4.1v1.442H41.3V81.8h0.921v1.407H41.3v1.834l1.256-.242v1.477Zm10.054-1.327a6.589,6.589,0,0,1-.38,1.725,0.856,0.856,0,0,1-.726.479,8.585,8.585,0,0,1-1.936.035,0.89,0.89,0,0,1-.4-0.15,0.775,0.775,0,0,1-.282-0.462,3.807,3.807,0,0,1-.1-0.911,4.712,4.712,0,0,1-1.095.906,11.61,11.61,0,0,1-1.716.8,4.554,4.554,0,0,0-.385-0.807,3.493,3.493,0,0,0-.513-0.669,7.586,7.586,0,0,0,1.462-.485,4.118,4.118,0,0,0,1.089-.7,2.153,2.153,0,0,0,.6-0.918,4.265,4.265,0,0,0,.173-1.326v-3.1H46.1v3.346h0.253v2.584a0.491,0.491,0,0,0,.052.219,0.442,0.442,0,0,0,.385.1,0.993,0.993,0,0,0,.3,0,0.287,0.287,0,0,0,.19-0.093,0.744,0.744,0,0,0,.1-0.208,5.222,5.222,0,0,0,.115-0.969A2.8,2.8,0,0,0,48.856,85.895ZM46.6,84.914V79.942H44.134v4.972H42.672V78.4h5.4v6.518H46.6Zm13.418,0.461a9.391,9.391,0,0,1-.167,1.212,2.124,2.124,0,0,1-.3.726,1.208,1.208,0,0,1-.581.45,2.467,2.467,0,0,1-.657.139q-0.437.046-1.45,0.046H52.507a1.317,1.317,0,0,1-.535-0.133,1.25,1.25,0,0,1-.512-0.456,1.207,1.207,0,0,1-.219-0.693V81.326a0.212,0.212,0,0,0-.144-0.144A0.188,0.188,0,0,1,50.964,81a0.284,0.284,0,0,1,.023-0.1,0.245,0.245,0,0,1,.219-0.057h1.6v1.1h4.077V80.069H50.653V78.523h7.774v5.561H56.884V83.46H52.807v2.688q0,0.334.462,0.335h3.743a5.479,5.479,0,0,0,.708-0.035,0.8,0.8,0,0,0,.4-0.162A1.216,1.216,0,0,0,58.381,86a11,11,0,0,0,.207-1.269A4.263,4.263,0,0,0,60.017,85.375Zm6.922,2.307v0.6H65.43V82.849l-0.173.2V83.91l-1,.346v2.757a1.139,1.139,0,0,1-.438.946,4.315,4.315,0,0,1-1.508.277,2.391,2.391,0,0,0-.588-1.57c0.054,0,.159,0,0.317.012s0.28,0.01.369,0.006a1.352,1.352,0,0,0,.236-0.029,0.2,0.2,0,0,0,.121-0.075,0.189,0.189,0,0,0,.052-0.11V84.752l-1.037.323-0.323-1.719,1.36-.3V81.441h-1.29v-1.43h1.29V78.477a0.185,0.185,0,0,0-.1-0.1,0.12,0.12,0,0,1-.052-0.213,0.246,0.246,0,0,1,.2-0.058h1.394v1.9H65.35v0.4A12.416,12.416,0,0,0,66.363,78l1.543,0.312a9.323,9.323,0,0,1-.4.871q-0.283.56-.363,0.733H68.16a9.683,9.683,0,0,0,.61-1.88l1.567,0.4q-0.047.1-.2,0.5t-0.242.611c-0.061.146-.119,0.269-0.173,0.369H71.6v1.5H69.588v0.669h1.831v1.419H69.588v0.669h1.831v1.431H69.588v0.611h2.085v1.465H66.939Zm-2.684-6.241V81.81l0.391-.369H64.255Zm0.437,1.107a1.807,1.807,0,0,0-.437-0.369v0.507Zm3.4-1.119H66.939V82.1H68.09V81.43Zm0,2.076H66.939v0.669H68.09V83.506Zm0,2.1H66.939v0.611H68.09V85.606Zm13.038,2.665V87.729h-6v0.519h-1.45v-4.43a0.133,0.133,0,0,0-.11-0.11,0.139,0.139,0,0,1-.109-0.132c0-.093.08-0.139,0.242-0.139h1.417v2.907H77.3v-3.53H75.438v0.369H73.952V79.007a0.157,0.157,0,0,0-.115-0.1,0.156,0.156,0,0,1-.114-0.133,0.1,0.1,0,0,1,.063-0.092,0.3,0.3,0,0,1,.145-0.035h1.508v2.734H77.3V78.5a0.144,0.144,0,0,0-.04-0.093,0.173,0.173,0,0,0-.087-0.057,0.113,0.113,0,0,1-.114-0.1,0.13,0.13,0,0,1,.161-0.127h1.669v3.265H80.84V79.03a0.154,0.154,0,0,0-.115-0.11A0.153,0.153,0,0,1,80.61,78.8c0-.085.068-0.127,0.207-0.127h1.578v4.522H80.84V82.814H78.893v3.542h2.235V83.783a0.157,0.157,0,0,0-.109-0.08,0.144,0.144,0,0,1-.11-0.127c0-.085.069-0.127,0.207-0.127h1.578v4.822H81.128ZM46.013,111.379v3.837a1.075,1.075,0,0,1-1.137,1.283H42.664l-0.449-1.316q1.6,0.145,2.02.129a0.514,0.514,0,0,0,.56-0.562v-3.371H38.643v-1.171H44.8v-2.44H39.973V106.6H44.8v-2.231q-1.3.16-4.983,0.257l-0.722-1.188a46.306,46.306,0,0,0,6.106-.289,24.171,24.171,0,0,0,5.336-1.107l0.673,0.915a22.226,22.226,0,0,1-5.192,1.268V106.6H50.6v1.172H46.013v2.44h5.9v1.171h-5.9Zm13.364-.208a6.4,6.4,0,0,0-.4-1.108,6.53,6.53,0,0,0-.673-1.139l-0.048,7.511H56.99v-6.709a10.376,10.376,0,0,1-.769,1.34,9.919,9.919,0,0,1-1.186,1.469l-0.945-.819a9.8,9.8,0,0,0,1.09-1.348,10.475,10.475,0,0,0,1.034-1.934,11.872,11.872,0,0,0,.665-2.095H54.57v-1.155h2.42v-3.05h1.267v3.05h2.211v1.155H58.256v1.589l0.5-.3a6.99,6.99,0,0,1,1.779,2.825Zm9.47,1.8a18.507,18.507,0,0,1-.56,2.119,1.1,1.1,0,0,1-.417.554,1.163,1.163,0,0,1-.689.217h-1.09a1.629,1.629,0,0,1-.608-0.121,0.836,0.836,0,0,1-.441-0.361,1,1,0,0,1-.136-0.5V104.012h-2.5V111.3a6.244,6.244,0,0,1-.681,2.769,8.642,8.642,0,0,1-1.883,2.512l-1.09-.9a9.3,9.3,0,0,0,1.795-2.167,4.662,4.662,0,0,0,.642-2.375v-8.283h4.935v11.637c0,0.139.1,0.209,0.288,0.209h0.513a0.367,0.367,0,0,0,.305-0.233,2.43,2.43,0,0,0,.216-0.61q0.088-.376.176-0.963c0.059-.39.094-0.618,0.1-0.682Zm8.862-2.07q-0.129-.208-0.457-0.65a9.649,9.649,0,0,0-.785-0.915c-0.3-.316-0.543-0.548-0.713-0.7l0.9-.9a13.242,13.242,0,0,1,2.2,2.054Zm10.719-1.557a4.233,4.233,0,0,0-1.081-1.42,4.766,4.766,0,0,0-1.6-.908l0.93-.882a4.248,4.248,0,0,1,1.538.939,6.193,6.193,0,0,1,1.2,1.517Zm1.443,1q-0.16.834-.449,1.854a9.658,9.658,0,0,1-.761,1.91,8.214,8.214,0,0,1-.873,1.372q-0.4.482-.688,0.771l-1.058-.787a7.249,7.249,0,0,0,1.811-2.448,11.2,11.2,0,0,0,.914-3.137Zm-0.8-4.687a3.914,3.914,0,0,0-2.5-1.974l0.9-.867a4.875,4.875,0,0,1,2.549,1.959Zm3.573,3.9c0,0.085,0,.4.009,0.954s-0.006,1.06-.032,1.525a6.625,6.625,0,0,1-.208,1.333,4.914,4.914,0,0,1-.481,1.18,4.526,4.526,0,0,1-.881,1.067,5.347,5.347,0,0,1-1.5.923l-0.881-1.044a5.492,5.492,0,0,0,1.17-.6,3.452,3.452,0,0,0,.954-0.97,3.558,3.558,0,0,0,.529-1.325,9.059,9.059,0,0,0,.12-1.749q-0.016-1.02,0-1.292h1.2Zm2.083-4.527a12.9,12.9,0,0,1-1.057,1.806,5.24,5.24,0,0,1-.962,1l4.407-.433a3.982,3.982,0,0,0-1.378-.723l1.185-.8a6.892,6.892,0,0,1,1.546,1.212,6.13,6.13,0,0,1,1.162,1.629l-1.074.722a4.646,4.646,0,0,0-.577-1.011q-1.891.16-3.949,0.417t-3.2.482l-0.8-1.076a6.8,6.8,0,0,0,1.931-1.267,5.7,5.7,0,0,0,1.418-1.959h-3.3v-1.171h4.1a3.95,3.95,0,0,0-1.747-1.22l1.026-.739a3.367,3.367,0,0,1,1.122.683,4.945,4.945,0,0,1,.913,1.1l-0.256.145,4.486,0.032v1.171h-5ZM93.909,116.21V109.5h1.218v6.709H93.909Zm6.489-3.258a8.4,8.4,0,0,1-.336,1.942,1.54,1.54,0,0,1-.409.642,1.06,1.06,0,0,1-.648.322,2.914,2.914,0,0,1-1.739-.225,1.18,1.18,0,0,1-.553-1.091V109.5h1.218v4.848a0.325,0.325,0,0,0,.057.241,0.528,0.528,0,0,0,.24.16,0.8,0.8,0,0,0,.417.024,0.342,0.342,0,0,0,.3-0.168,2.5,2.5,0,0,0,.2-0.827,11.662,11.662,0,0,0,.1-1.244Zm1.523,2.938v-1.172h6.521v-0.465h-5.127v-1.044h5.127v-0.417h-4.55v-4.077h10.351v4.077H109.66v0.417h5.192v1.044H109.66v0.465h6.57v1.172H101.921Zm0.608-7.544V107.3h13.044v1.044H102.529Zm1.827-1.413v-4.189h9.358v4.189h-9.358Zm4.086,4.221h-3.348l0.015,0.595h3.333v-0.595Zm-3.333-1.4v0.5h3.333l0.016-.5h-3.349Zm7.387-5.906h-6.922v0.513H112.5v-0.513Zm0,1.444h-6.922v0.594H112.5V105.3Zm0.529,4.462H109.66l0.017,0.5h3.348v-0.5Zm0,1.4H109.66v0.595h3.365v-0.595Zm18.251,5.314a14.582,14.582,0,0,1-4.951-2.521,11.909,11.909,0,0,1-4.727,2.521l-0.786-1.076a12.3,12.3,0,0,0,4.584-2.279,12.275,12.275,0,0,1-1.715-2.175,14.546,14.546,0,0,1-1.233-2.576,15.844,15.844,0,0,1-.914,5.024,12.463,12.463,0,0,1-2.035,3.13c-0.171-.086-0.424-0.231-0.761-0.434s-0.515-.311-0.537-0.321a7.913,7.913,0,0,0,2.468-4.012q0.111-.5.232-1.333t0.217-2.632q0.111-2.039.063-3.467h-2.147V103.1h10.207v1.06q-0.785,1.172-2.083,2.889h3.173a8.445,8.445,0,0,1-1.01,3.322,13.522,13.522,0,0,1-2.034,2.7,13.558,13.558,0,0,0,4.742,2.247Zm-5.833-8.251v-1.059q1.38-1.734,2.116-2.841h-5.015v0.739q0.192,0.674.512,1.6a26.416,26.416,0,0,0,1.122,2.6,9.728,9.728,0,0,0,.713,1.252,14.863,14.863,0,0,0,1.482,1.733,10.886,10.886,0,0,0,1.482-1.9,8.437,8.437,0,0,0,1-2.127h-3.414Zm22.786,4.767q0,2.762-1.137,2.874l-0.465.048h-5.256q-1.314,0-1.314-1.589v-1.846h-4.742v-7.833h4.742v-2.456h1.219v2.456h4.855v7.833h-4.855v1.942a0.37,0.37,0,0,0,.448.385h4.823a1.116,1.116,0,0,0,.481-1.107l0.064-1.252Zm-8.172-7.158h-3.589v2.086h3.589v-2.086Zm0,3.258h-3.589v2.231h3.589v-2.231Zm4.856-3.258h-3.637v2.086h3.637v-2.086Zm0,3.258h-3.637v2.231h3.637v-2.231Zm12.9,0.626v5.361a1.232,1.232,0,0,1-.193.594,1.249,1.249,0,0,1-.56.514,1.852,1.852,0,0,1-.785.16q-0.578.031-1.763,0l-0.913-1.156h2.355a0.565,0.565,0,0,0,.473-0.216,0.853,0.853,0,0,0,.168-0.538V109.71h-6.137v-1.172H156.6v-1.6a19.289,19.289,0,0,0,1.635-1.211,12.554,12.554,0,0,0,1.682-1.629h-7.483V102.92h9.23v0.9a16.147,16.147,0,0,1-1.8,2.038,14.837,14.837,0,0,1-2.043,1.669v1.011h5.833v1.172h-5.833Zm13.845-5.81v1.653h2.083v10.93h-1.266v-1.171h-4.84v1.171h-1.217v-10.93H168.6V103.9h-2.756v-1.172h8.188V103.9h-2.371Zm0.817,6.9H171.53a1.164,1.164,0,0,1-.537-0.241,1.236,1.236,0,0,1-.409-0.5,1.306,1.306,0,0,1-.128-0.529v-2.761h-0.625a13.069,13.069,0,0,1-.313,2.455,5.409,5.409,0,0,1-.545,1.357,9.5,9.5,0,0,1-.665.987l-0.673-.385v0.674h4.84V110.8Zm-4.84-4.029v3.659a5.763,5.763,0,0,0,.658-1.332,8.468,8.468,0,0,0,.3-2.327h-0.962Zm4.888,6.259h-4.888v1.108h4.888v-1.108Zm-2.067-9.132h-0.642v1.7h0.642v-1.7Zm2.019,2.873h-0.866v2.713a0.505,0.505,0,0,0,.08.112,0.453,0.453,0,0,0,.153.088,0.739,0.739,0,0,0,.224.048,1.71,1.71,0,0,0,.248,0c0.086,0,.139-0.008.161-0.008v-2.953Zm7.5,6.276a8.884,8.884,0,0,1-.512,2.183,2,2,0,0,1-.514.73,1.273,1.273,0,0,1-.608.329H176a1.19,1.19,0,0,1-.577-0.169,1.546,1.546,0,0,1-.72-1.212v-7.222h2.964V103.9h-3.3v-1.172h4.52v6.677h-1.218V108.86h-1.7V114.8q0,0.386.609,0.385h1.33q0.529,0,.849-2.536Zm6.25-10.77a19.584,19.584,0,0,1-.994,3.643v10.561h-1.218v-8.266l-1.474,2.167-1.042-.738a16.581,16.581,0,0,0,3.574-7.608Zm5.351,8.507v5.6h-1.266v-5.6h-4.471v-1.221h4.471v-3.193h-2.162a15.071,15.071,0,0,1-1.395,2.584l-1.122-.562a10.107,10.107,0,0,0,1.37-2.432,11.774,11.774,0,0,0,.682-2.8l1.105,0.354a7.6,7.6,0,0,1-.24,1.637h1.762v-3.178h1.266v3.178h3.334v1.22h-3.334v3.193H196v1.221h-4.423ZM52.039,130.31a8.117,8.117,0,0,1-1.186-.448,8.844,8.844,0,0,1-1.442-.819v5.794h-1.33v-0.979H42.712v1.028H41.447V128.8a10.344,10.344,0,0,1-1.258.8,9.285,9.285,0,0,1-1.355.626L38,129.251q0.706-.3,1.538-0.762a13.52,13.52,0,0,0,1.45-.907,6.221,6.221,0,0,0,.921-0.786h-3.06v-1.172h4.086a5.58,5.58,0,0,0,.608-0.9H41v-1.171h3.077a6.534,6.534,0,0,0,.336-0.754H39.893v-1.172h4.775a9.713,9.713,0,0,0,.208-1.252l1.17,0.256a8.375,8.375,0,0,1-.144,1h4.935V122.8H45.644l-0.24.754H49.8v1.171H44.908l-0.481.9h7.484V126.8H48.689a7.675,7.675,0,0,0,4.006,2.423Zm-4.054-2.423a5.9,5.9,0,0,1-.866-1.091l-3.509.016a12.115,12.115,0,0,1-.978,1.075h5.353Zm0.1,1.172H42.712v1.14h5.368v-1.14Zm0,2.311H42.712v1.316h5.368V131.37Zm16.5,2.889V132.7h-6.3v1.62H57.022v-12.5h8.83v12.439H64.585Zm0-11.267h-6.3v3.595h6.3v-3.595Zm0,4.767h-6.3v3.771h6.3v-3.771Zm10.928,1.669a2.081,2.081,0,0,1-.5.963,1.909,1.909,0,0,1-.866.61,3.045,3.045,0,0,1-1.554.048l-0.288-1.332c0.513,0.107.825,0.168,0.938,0.184a1.182,1.182,0,0,0,.312.009,0.87,0.87,0,0,0,.256-0.065,0.824,0.824,0,0,0,.177-0.1,1.054,1.054,0,0,0,.328-0.5,1.652,1.652,0,0,0,.009-0.875,4.7,4.7,0,0,0-1.635-2.441q1.09-2.533,1.41-3.578H72.117v12.5l-1.219.033v-13.74h4.5v1.188l-1.346,3.387a6.078,6.078,0,0,1,1.034,1.251,3.237,3.237,0,0,1,.457,1.244A3.864,3.864,0,0,1,75.513,129.428Zm7.964,5.377a6.361,6.361,0,0,1-2.372-1.669,7.807,7.807,0,0,1-1.6-2.456,10,10,0,0,1-.577-2.584H77.26v4.863q0.352-.175,1.394-0.594c0.695-.277,1.047-0.418,1.058-0.418v1.221l-3.43,1.509q-0.032-.016-0.408-0.314c-0.251-.2-0.452-0.36-0.6-0.489a1.758,1.758,0,0,0,.545-0.417,1.035,1.035,0,0,0,.225-0.706V121.179h6.794V128.1H80.129a11.8,11.8,0,0,0,.232,1.284,5.6,5.6,0,0,0,.393,1.027l2.323-2.055,0.913,0.835c-0.171.16-.435,0.4-0.793,0.714s-1,.817-1.931,1.5a4.955,4.955,0,0,0,1.225,1.389,6.765,6.765,0,0,0,1.723,1ZM81.618,122.35H77.26V124h4.358V122.35Zm-4.358,2.825v1.765l4.31-.032,0.032-1.733H77.26Zm22.5,8.843H96.136a11.411,11.411,0,0,1-3.085-.176,6.586,6.586,0,0,1-2.716-1.076l-1.122-.915a8.489,8.489,0,0,1-2.451,3.035,6.6,6.6,0,0,1-.537-0.531Q85.9,134,85.769,133.874a7.235,7.235,0,0,0,.985-0.746,5.546,5.546,0,0,0,.978-1.156,4.65,4.65,0,0,0,.617-1.388,14.325,14.325,0,0,0,.3-2.841H89.9a17.7,17.7,0,0,1-.273,2.841,7.881,7.881,0,0,0,.954.89,6.185,6.185,0,0,0,1.1.731,3.525,3.525,0,0,0,.833.32v-6.05H88.428L88.46,125.3h9.374v1.171h-4.1l-0.049,2.375h5v1.171H93.733v2.713l2.051,0.065h4.6ZM98.315,125.5l0.032-2.006H88.028v1.91H86.81v-3.082H93a7.517,7.517,0,0,0-1.955-1.428l1.09-.626a8.676,8.676,0,0,1,1.2.794,11.31,11.31,0,0,1,1.105.955l-0.384.257,5.512,0.048V125.5h-1.25Zm8.413-4.687q-0.225.867-.457,1.621t-0.728,1.975v10.368h-1.219V126.86q-0.033.048-.608,0.835a9.275,9.275,0,0,1-.946,1.139l-1.042-.77a14.771,14.771,0,0,0,2.356-3.531,17.289,17.289,0,0,0,1.507-4.2Zm9.47,11.155a6.222,6.222,0,0,1-.5,1.814,0.857,0.857,0,0,1-.73.545h-3.3a0.942,0.942,0,0,1-1.089-1.043v-5.216a10.138,10.138,0,0,1-2.244,5.216,7.532,7.532,0,0,1-1.923,1.557l-0.816-.963a7.393,7.393,0,0,0,2.331-2.215,10.282,10.282,0,0,0,1.4-3.547,11.917,11.917,0,0,0,.2-1.212q0.088-.731.1-1.276h-3.461v-1.171h3.525v-3.981h1.218v3.981h5.095v1.171h-5.127l-0.048.626h1.009v6.6a0.333,0.333,0,0,0,.072.216,0.244,0.244,0,0,0,.2.088H114.4a0.469,0.469,0,0,0,.249-0.055,0.791,0.791,0,0,0,.2-0.345,9.837,9.837,0,0,0,.16-1.7Zm-2.4-7.607a5.789,5.789,0,0,0-.793-1.036,11.984,11.984,0,0,0-1.514-1.292l0.913-.786a8.852,8.852,0,0,1,1.243,1.051,13.167,13.167,0,0,1,1.145,1.308Zm8.092,6.964a5.328,5.328,0,0,1-1.37,1.382,6.891,6.891,0,0,1-1.818.93l-0.946-.979a6.373,6.373,0,0,0,3.269-2.007Q121.71,131.162,121.886,131.321Zm3.815-8.634v0.562h4.262v4.831h-0.337a6.564,6.564,0,0,1,2.179,1.974l-1.073.706a7.134,7.134,0,0,0-.738-0.931q-2.226.1-5.111,0.1c0.053,0.033.2,0.116,0.424,0.249s0.444,0.271.641,0.41a3.42,3.42,0,0,1,.561.5,5.081,5.081,0,0,1,.417.5c0.1,0.144.168,0.243,0.2,0.3l-1.042.706a5.392,5.392,0,0,0-2.339-2.039l0.833-.561q-3.141.033-5.785,0.112l-0.657-1.235q1.089,0.015,6.345-.033V128.08h-4.23v-4.831h4.23v-0.562h-6.249v-1.156h6.249v-1.3H125.7v1.3h6.265v1.156H125.7Zm-1.219,1.718H121.47v0.609h3.012v-0.609Zm0,1.765H121.47v0.754h3.012V126.17Zm4.391,5.762c-0.021.086-.056,0.255-0.1,0.505s-0.094.45-.136,0.594a2.981,2.981,0,0,1-.168.434,1.468,1.468,0,0,1-.281.393,1.286,1.286,0,0,1-.4.273,4.659,4.659,0,0,1-1.634.112h-2.58a1.421,1.421,0,0,1-.737-0.321,1.836,1.836,0,0,1-.513-0.642,3.816,3.816,0,0,1-.112-0.931v-1.733h1.266v2.006a0.531,0.531,0,0,0,.136.273,0.6,0.6,0,0,0,.265.193h3.156a0.947,0.947,0,0,0,.217-0.113,0.549,0.549,0,0,0,.192-0.264,3.572,3.572,0,0,0,.144-0.626,4.488,4.488,0,0,1,.136-0.634A10.08,10.08,0,0,1,128.873,131.932Zm-0.177-7.527h-3v0.609h3v-0.609Zm0,1.765h-3v0.754h3V126.17Zm-0.176,2.551a4.387,4.387,0,0,1-.785-0.369l0.4-.24-2.435-.032v0.69Zm2.917,5.249a6.936,6.936,0,0,0-2.917-2.5l0.914-.691a6.8,6.8,0,0,1,1.834,1.092,6.337,6.337,0,0,1,1.178,1.364Zm7.114-13.129a27.293,27.293,0,0,1-1.426,4.109v9.936h-1.218v-7.721a17.961,17.961,0,0,1-1.313,1.525l-1.122-.706a16.018,16.018,0,0,0,3.941-7.576Zm9.166,6.517a8.428,8.428,0,0,1-2.075-1.445,15.143,15.143,0,0,1-1.763-1.886,18.46,18.46,0,0,1-1.1-1.548,12.247,12.247,0,0,1-1.723,2.407,12.7,12.7,0,0,1-1.723,1.621,9.774,9.774,0,0,1-1.282.818l-0.865-1a9.037,9.037,0,0,0,3.205-2.447,13.881,13.881,0,0,0,2.212-3.667l1.057,0.593-0.193.466a13.851,13.851,0,0,0,2.244,2.969,9.968,9.968,0,0,0,2.964,2.1Zm-6.265,1.957a7.68,7.68,0,0,1-.193,1.814,4.732,4.732,0,0,1-.7,1.541A9.215,9.215,0,0,1,138.1,135l-0.914-1.011a5.679,5.679,0,0,0,1.659-1.227,5.189,5.189,0,0,0,1.081-1.541,3.352,3.352,0,0,0,.305-1.244v-3.981h1.218v3.322Zm2.756,5.522v-8.844h1.217v8.844h-1.217Z"/>
</svg>
