<svg id="PUNJ" xmlns="http://www.w3.org/2000/svg" width="320" height="50" viewBox="0 0 320 50">
  <defs>
    <style>
      .cls-1 {
        fill: #4c286c;
        fill-rule: evenodd;
      }
    </style>
  </defs>
  <g id="txt1">
    <path class="cls-1" d="M32.63,32.9H30.754v9.537H28.367V37.509h-1.44a14.035,14.035,0,0,1-1.478,3.648l-2.425-1.093c1.989-3.167,2.084-4.315,1.25-5.186-1.136.111-1.629,1.185-3.012,4.148l-2.425-1.093c1.194-2.7,1.611-3.944.568-5.037H17V30.805h3.467A2.807,2.807,0,0,1,22.1,33.9a3.2,3.2,0,0,1,3.315-1.259,4.187,4.187,0,0,1,1.648,2.778h1.307V30.805H32.63V32.9Zm10.624,0H41.227v0.7c0,1.945-.341,2.3-0.815,2.778a3.672,3.672,0,0,1,.815,2.333c0,2.166-1.913,3.815-4.755,3.815a6.463,6.463,0,0,1-3.807-1.111v-2.2a6.774,6.774,0,0,0,3.561,1.2c1.553,0,2.576-.741,2.576-1.685,0-1.167-1.345-1.222-4.187-1.222V35.416c2.879,0,4.205.148,4.168-1.648V32.9H31.016V30.805H43.254V32.9Zm-2.294-2.074h-2.14c0-1.241-.549-2.129-2.69-2.222l-0.549-2.3C38.156,25.972,40.959,27.491,40.959,30.824Zm18.487,4.685a3.215,3.215,0,0,1,1.042,2.667c0,2.8-2.311,4.7-5.418,4.7-2.368,0-3.921-1.167-3.921-2.889,0-1.426,1.023-2.519,3.069-2.519a3.829,3.829,0,0,1,3.618,2.055,2.239,2.239,0,0,0,.227-1.018c0-1.963-.833-1.833-2.766-1.815H53.214v-2.37H55.3c2.235-.074,2.6.056,2.652-1.426H49.558V30.805H61.8V32.9h-1.42C60.318,34.565,60.09,35.139,59.446,35.509Zm-4.224,5.278a4.627,4.627,0,0,0,1.042-.111,2.211,2.211,0,0,0-2.027-1.112c-0.53,0-.682.185-0.682,0.445C53.555,40.342,53.934,40.787,55.222,40.787ZM67.135,32.9h-2.33v9.537H62.418V32.9H60.145V30.805h2.292V29.361A1.193,1.193,0,0,0,61.282,28.1a1.177,1.177,0,0,0-1.137,1.259v0.556H57.72V29.361a3.557,3.557,0,0,1,7.1,0v1.444h2.311V32.9Zm13.713,0H77.174v0.148a6.725,6.725,0,0,1-.284,1.945,4.337,4.337,0,0,1,2.463,3.815c0,2.481-2.217,3.722-4.168,3.722V40.509a1.733,1.733,0,0,0,1.781-1.778,2.073,2.073,0,0,0-.985-1.778,7,7,0,0,1-2.709,2.481,7.4,7.4,0,0,1-2.69-2.481,2.01,2.01,0,0,0-.985,1.778,1.7,1.7,0,0,0,1.743,1.778v2.018c-1.951,0-4.167-1.24-4.167-3.722a4.354,4.354,0,0,1,2.482-3.815,6.68,6.68,0,0,1-.284-1.926V32.9H66V30.805H80.849V32.9Zm-6.1,0H71.775v0.333a4.817,4.817,0,0,0,1.5,3.611,4.431,4.431,0,0,0,1.477-3.593V32.9Zm17.842,0H90.45v9.537H88.063V38.1H84.6a24.663,24.663,0,0,1-.606,4.334H81.584a24.8,24.8,0,0,0,.7-4.352,4.469,4.469,0,0,0-1.1-2.833l3.277-1.278c0.057,0.7.132,1.278,0.17,2.037h3.429V32.9H79.482V30.805H92.591V32.9ZM87.438,41.62a1.235,1.235,0,0,1-1.25,1.222,1.2,1.2,0,0,1-1.25-1.222,1.22,1.22,0,0,1,1.25-1.2A1.257,1.257,0,0,1,87.438,41.62Zm15.208-4.574c0,0.314.189,0.593,0.89,0.593H108.9v2.074h-5.153c0.095,0.7.568,1.408,2.368,1.389a8.551,8.551,0,0,0,2.841-.481v1.722a6.967,6.967,0,0,1-3.2.667c-3.467,0-4.167-2.3-4.167-3.593V39.25a2.51,2.51,0,0,1-1.459-2.222c0-1.445,1.212-2.63,3.959-2.63h2.387V32.9H98.629V30.805h12.238V32.9H108.9v3.593h-5.115C103.517,36.491,102.646,36.361,102.646,37.046ZM116.207,32.9h-2.33v9.537H111.49V32.9h-2.273V30.805h2.292V29.361a1.192,1.192,0,0,0-1.155-1.259,1.177,1.177,0,0,0-1.137,1.259v0.556h-2.425V29.361a3.557,3.557,0,0,1,7.1,0v1.444h2.311V32.9ZM121,41.509h-2.387V31.6H121v9.907Z"/>
  </g>
</svg>
