<svg id="PUNJ" xmlns="http://www.w3.org/2000/svg" width="320" height="50" viewBox="0 0 320 50">
  <defs>
    <style>
      .cls-1 {
        fill: #4c286c;
        fill-rule: evenodd;
      }
    </style>
  </defs>
  <g id="txt1">
    <path class="cls-1" d="M29.123,13.836H27.3v6.2c0,2.646-1.276,3.96-4.09,3.96-2.364,0-5.084-1.7-5.084-4.288,0-1.874,1.238-3.3,4.109-3.3h2.608V13.836H17V11.653h12.12v2.183Zm-4.278,6.181v-1.41H22.237c-1.126,0-1.464.367-1.464,1.024,0,1.333,1.5,2.183,2.57,2.183C24.489,21.813,24.845,21.331,24.845,20.017ZM23.285,7.77A2.672,2.672,0,0,1,25.95,5.008a2.7,2.7,0,0,1,2.7,2.762,2.7,2.7,0,0,1-2.7,2.762A2.672,2.672,0,0,1,23.285,7.77ZM27,7.77a1.094,1.094,0,0,0-1.051-1.1,1.093,1.093,0,0,0,0,2.183A1.09,1.09,0,0,0,27,7.77Zm16.943,6.066H41.729v9.852H39.346V13.836H37.151v5.911c0,2.492-1.313,3.941-3.527,3.941a5.112,5.112,0,0,1-4.672-4.655c0-1.661,1.314-3.284,4.071-3.284h1.688V13.836H28.37V11.653H43.943v2.183Zm-9.231,5.853V17.931H33.023c-0.169,0-1.445-.019-1.445,1.062,0,0.928,1.2,2.589,2.083,2.492C34.712,21.388,34.712,20.287,34.712,19.688Zm28.476-5.853H61.33v9.948H58.966V22.953a8.055,8.055,0,0,1-2.008.251c-2.589,0-4.484-1.371-5.028-3.515a4.575,4.575,0,0,1,1.576-2.53A4.271,4.271,0,0,1,52.118,14.7a3.443,3.443,0,0,1-.056-0.869H50.2V11.653H63.188v2.183Zm-4.221,6.973V18.278H56.7a2.1,2.1,0,0,0-2.252,1.41c0.244,0.811,1.426,1.352,2.833,1.352A5.766,5.766,0,0,0,58.966,20.809Zm0-6.973h-4.5a2.927,2.927,0,0,0,.075.7,2.062,2.062,0,0,0,2.308,1.545h2.12V13.836Zm14.913,0H72.06v6.2c0,2.646-1.276,3.96-4.091,3.96-2.364,0-5.084-1.7-5.084-4.288,0-1.874,1.238-3.3,4.109-3.3H69.6V13.836H61.759V11.653H73.88v2.183ZM69.6,20.017v-1.41H66.994c-1.126,0-1.464.367-1.464,1.024,0,1.333,1.5,2.183,2.57,2.183C69.245,21.813,69.6,21.331,69.6,20.017Zm15.87-6.181H83.614v9.948H81.25V19.476H77.986c-0.207.656-.563,1.564-1.144,3.033l-2.8-1.275c1.088-1.7,2.064-2.55,2.064-4.192a6.757,6.757,0,0,0-.863-3.206h-1.9V11.653h12.12v2.183Zm-7.674,0a11.42,11.42,0,0,1,.544,3.342v0.116H81.25V13.836H77.8Zm5.551-2.164H81.23c0-1.294-.544-2.221-2.664-2.318l-0.544-2.4A4.547,4.547,0,0,1,83.35,11.672ZM89,21.543L87.74,25.986H85.582L86.6,21.543H89Z"/>
  </g>
</svg>
