<svg id="PUNJ" xmlns="http://www.w3.org/2000/svg" width="320" height="50" viewBox="0 0 320 50">
  <defs>
    <style>
      .cls-1 {
        fill: #4c286c;
        fill-rule: evenodd;
      }
    </style>
  </defs>
  <g id="txt1">
    <path class="cls-1" d="M283.17,29.722h-0.793v4.184H281.37V32.094h-1.393c-0.088.276-.239,0.658-0.488,1.276l-1.192-.536a3.256,3.256,0,0,0,.881-1.763,2.813,2.813,0,0,0-.369-1.348H278V28.8h5.169v0.918Zm-3.273,0a4.74,4.74,0,0,1,.232,1.406v0.049h1.241V29.722H279.9Zm6.494-1.551v0.244h-1.025V28.171a0.51,0.51,0,0,0-.481-0.553,0.516,0.516,0,0,0-.487.553V28.8h0.968v0.918h-0.96v4.184H283.4V29.722h-0.984V28.8h0.976V28.171A1.5,1.5,0,0,1,286.391,28.171Zm3.617,1.551h-0.792v4.184h-1.008V33.419a2.618,2.618,0,0,1-.761.122c-1.04,0-2.064-.642-2.04-1.511a3.349,3.349,0,0,0,.528-1.657,1.668,1.668,0,0,0-.08-0.65h-1.016V28.8h1.6a2.715,2.715,0,0,1,.448,1.56,3.785,3.785,0,0,1-.432,1.665,1.434,1.434,0,0,0,1.288.511,2.274,2.274,0,0,0,.465-0.049V28.8h1.8v0.918Zm-0.7,6.166c-0.184-.163-0.352-0.308-0.5-0.423a4.562,4.562,0,0,1-.512.252l-0.7.26-0.352-1.243,0.76-.26a1.006,1.006,0,0,1,.216-0.024V33.264h1.017V34.8c0.168,0.114.36,0.252,0.591,0.43Zm-1.776-8.717a1.131,1.131,0,0,1,1.136-1.161,1.162,1.162,0,0,1,0,2.323A1.132,1.132,0,0,1,287.53,27.171Zm1.584,0a0.463,0.463,0,0,0-.448-0.463,0.459,0.459,0,0,0,0,.918A0.461,0.461,0,0,0,289.114,27.171Zm7.026,2.551H295.2v4.143h-1.017V29.722h-0.936v2.486a1.451,1.451,0,0,1-1.5,1.657,2.164,2.164,0,0,1-1.992-1.958,1.5,1.5,0,0,1,1.736-1.381h0.72v-0.8h-2.7V28.8h6.641v0.918ZM292.2,32.184V31.445h-0.72a0.532,0.532,0,0,0-.616.446,1.217,1.217,0,0,0,.888,1.048A0.614,0.614,0,0,0,292.2,32.184Zm12.065-2.462h-0.793v4.184h-1.008V32.094h-1.392c-0.088.276-.24,0.658-0.488,1.276l-1.192-.536a3.254,3.254,0,0,0,.88-1.763,2.812,2.812,0,0,0-.368-1.348H299.1V28.8h5.17v0.918Zm-3.274,0a4.711,4.711,0,0,1,.233,1.406v0.049h1.24V29.722h-1.473Zm2.372-.91h-0.9c0-.544-0.232-0.934-1.137-0.975l-0.232-1.007A1.931,1.931,0,0,1,303.366,28.812ZM310,29.722h-1.552v0.065a3.052,3.052,0,0,1-.12.853,1.908,1.908,0,0,1,1.041,1.673,1.668,1.668,0,0,1-1.762,1.633V33.061a0.746,0.746,0,0,0,.753-0.78,0.919,0.919,0,0,0-.416-0.78A3.007,3.007,0,0,1,306.8,32.59a3.181,3.181,0,0,1-1.136-1.089,0.892,0.892,0,0,0-.416.78,0.733,0.733,0,0,0,.736.78v0.886a1.667,1.667,0,0,1-1.76-1.633,1.913,1.913,0,0,1,1.049-1.673,3,3,0,0,1-.121-0.845V29.722h-1.425V28.8H310v0.918Zm-2.576,0h-1.256v0.146a2.154,2.154,0,0,0,.631,1.584,1.979,1.979,0,0,0,.625-1.576V29.722Z"/>
  </g>
</svg>
