<svg id="PUNJ" xmlns="http://www.w3.org/2000/svg" width="320" height="50" viewBox="0 0 320 50">
  <defs>
    <style>
      .cls-1 {
        fill: #4c286c;
        fill-rule: evenodd;
      }
    </style>
  </defs>
  <g id="txt1">
    <path class="cls-1" d="M284.2,38.452H283.68v2.457a1.474,1.474,0,0,1-1.732,1.619,2.059,2.059,0,0,1-2.208-1.762c0-.758.531-1.343,1.765-1.343h0.257v0.9h-0.257c-0.485,0-.629.15-0.629,0.419a1.076,1.076,0,0,0,1.12.892c0.467,0,.629-0.2.629-0.735V38.452H279V37.56H284.2v0.892ZM282.933,42.8v0.727a2.355,2.355,0,0,1-1.3.34,2.4,2.4,0,0,1-1.305-.34V42.8a2.439,2.439,0,0,0,1.273.261A2.7,2.7,0,0,0,282.933,42.8Zm6.148-4.353h-3.408c0.048,0.411.427,0.679,1.322,0.679,0.144,0,.814,0,0.926-0.024v0.822a6.586,6.586,0,0,1-.806.063l-0.137,1.3-0.87-.411a1.226,1.226,0,0,0-.379-0.063,0.767,0.767,0,0,0-.548.213,1.534,1.534,0,0,0,1.443.735,2.264,2.264,0,0,0,1.651-.655v0.9a2.377,2.377,0,0,1-1.836.656,2.293,2.293,0,0,1-2.386-1.635,1.569,1.569,0,0,1,1.612-1.019,2.053,2.053,0,0,1,.516.063l0.008-.087a1.705,1.705,0,0,1-1.555-1.533h-1.129V37.56h5.576v0.892Zm8.177,0h-0.8V42.52h-1.015V40.759h-1.4c-0.089.268-.241,0.64-0.491,1.24l-1.2-.522a3.117,3.117,0,0,0,.886-1.714,2.668,2.668,0,0,0-.37-1.311h-0.814V37.56h5.206v0.892Zm-3.3,0a4.44,4.44,0,0,1,.235,1.367v0.047h1.249V38.452h-1.484Zm1.064,3.744a0.526,0.526,0,0,1-.531.521,0.513,0.513,0,0,1-.533-0.521,0.521,0.521,0,0,1,.533-0.514A0.536,0.536,0,0,1,295.025,42.2Zm0.793,0.608v0.727a2.355,2.355,0,0,1-1.3.34,2.4,2.4,0,0,1-1.305-.34V42.8a2.439,2.439,0,0,0,1.273.261A2.7,2.7,0,0,0,295.818,42.8Zm6.076-4.353h-0.781v2.536a1.479,1.479,0,0,1-1.757,1.619,2.062,2.062,0,0,1-2.184-1.754c0-.766.532-1.351,1.765-1.351h1.12V38.452h-3.368V37.56h5.2v0.892Zm-1.837,2.528V40.4h-1.12c-0.484,0-.628.15-0.628,0.419a1.075,1.075,0,0,0,1.1.892C299.9,41.715,300.057,41.517,300.057,40.98Zm0.485,1.825v0.727a2.351,2.351,0,0,1-1.3.34,2.4,2.4,0,0,1-1.305-.34V42.8a2.432,2.432,0,0,0,1.272.261A2.7,2.7,0,0,0,300.542,42.8Zm0,1.138v0.726a2.351,2.351,0,0,1-1.3.34,2.4,2.4,0,0,1-1.305-.34V43.942a2.433,2.433,0,0,0,1.272.261A2.7,2.7,0,0,0,300.542,43.942Zm9.44-5.49h-0.525v2.457a1.474,1.474,0,0,1-1.732,1.619,2.06,2.06,0,0,1-2.208-1.762c0-.758.532-1.343,1.765-1.343h0.258v0.9h-0.258c-0.484,0-.629.15-0.629,0.419a1.076,1.076,0,0,0,1.12.892c0.468,0,.629-0.2.629-0.735V38.452h-3.627V37.56h5.207v0.892Zm-0.571-.885H308.4c0-.292-0.306-0.308-1.023-0.34l-0.242-.987a2.921,2.921,0,0,1,1.515.411,2.282,2.282,0,0,0-1.258-.64l-0.249-1.027A2.3,2.3,0,0,1,309.411,37.568Z"/>
  </g>
</svg>
