<svg id="PUNJ" xmlns="http://www.w3.org/2000/svg" width="320" height="50" viewBox="0 0 320 50">
  <defs>
    <style>
      .cls-1 {
        fill: #4c286c;
        fill-rule: evenodd;
      }
    </style>
  </defs>
  <path id="txt2" class="cls-1" d="M18.393,14.451H16.907V22.1H15.014V21.464a6.686,6.686,0,0,1-1.606.194,3.849,3.849,0,0,1-4.024-2.7,3.5,3.5,0,0,1,1.261-1.946A3.253,3.253,0,0,1,9.533,15.12a2.566,2.566,0,0,1-.045-0.668H8V12.773H18.393v1.678Zm-3.379,5.364V17.869H13.2a1.686,1.686,0,0,0-1.8,1.084c0.195,0.624,1.141,1.04,2.267,1.04A4.788,4.788,0,0,0,15.014,19.815Zm0-5.364h-3.6a2.168,2.168,0,0,0,.06.535,1.65,1.65,0,0,0,1.848,1.189h1.7V14.451Zm12,0H25.451v4.488a2.977,2.977,0,0,1-3.228,3.15,3.01,3.01,0,0,1-3.259-3.061V18.017a3.706,3.706,0,0,0-.855-2.035l2.6-1.025c0.045,0.565.1,1.025,0.135,1.635h2.718v-2.14H16.621V12.773H27.013v1.678Zm-3.454,4.428V18.27H20.691v0.282c0.03,1.322.556,1.843,1.547,1.843A1.22,1.22,0,0,0,23.559,18.879Zm11.775-4.428H33.727v0.565c0,1.56-.27,1.842-0.645,2.229a2.967,2.967,0,0,1,.645,1.872c0,1.738-1.516,3.061-3.769,3.061a5.083,5.083,0,0,1-3.018-.891V19.518a5.332,5.332,0,0,0,2.823.965c1.232,0,2.042-.594,2.042-1.352,0-.935-1.066-0.98-3.318-0.98V16.472c2.282,0,3.334.119,3.3-1.322v-0.7H25.632V12.773h9.7v1.678ZM49.48,14.11H47.9l-0.029,1.367a5.925,5.925,0,0,1-.841,3.224,8.278,8.278,0,0,1,.33,2.377c0,0.3,0,.654-0.015.951H46.116c0.015-.222.029-0.668,0.029-0.98a8.473,8.473,0,0,0-.09-1.278,4.178,4.178,0,0,1-2.568.832c-1.893,0-2.989-1.04-2.989-2.556a2.506,2.506,0,0,1,2.748-2.57A3.66,3.66,0,0,1,46.4,17.259a5.858,5.858,0,0,0,.241-1.708V14.11H39.087V12.981H49.48V14.11Zm-3.754,4.369a2.547,2.547,0,0,0-2.373-1.857,1.42,1.42,0,0,0-1.606,1.411c0,0.862.645,1.411,1.8,1.411A2.749,2.749,0,0,0,45.725,18.478ZM57.98,14.11H56.058v4.873c0,1.857-.931,3.045-2.838,3.045-1.832,0-3.754-1.485-3.754-3.327,0-1.263.842-2.259,2.869-2.259H54.8V14.11H48.279V12.981h9.7V14.11ZM54.8,18.968V17.6H52.333c-1.126,0-1.532.4-1.532,1.07A2.56,2.56,0,0,0,53.295,20.9C54.346,20.9,54.8,20.157,54.8,18.968ZM53.7,11.54c-0.721-.134-2.267-0.238-2.267-2.645h1.186c0,1.381.541,1.411,1.112,1.486A2.322,2.322,0,0,1,55.968,13H54.8A1.28,1.28,0,0,0,53.7,11.54ZM71.78,14.11H69.858v4.873c0,1.857-.931,3.045-2.838,3.045-1.832,0-3.754-1.485-3.754-3.327,0-1.263.842-2.259,2.869-2.259H68.6V14.11H62.079V12.981h9.7V14.11ZM68.6,18.968V17.6H66.134c-1.126,0-1.532.4-1.532,1.07A2.56,2.56,0,0,0,67.1,20.9C68.146,20.9,68.6,20.157,68.6,18.968Zm-1.485-9a1.99,1.99,0,1,1,2,1.961A1.985,1.985,0,0,1,67.112,9.965Zm3,0a1.006,1.006,0,0,0-2.012,0A1.006,1.006,0,0,0,70.114,9.965Zm13.11,4.145H81.347v7.918H80.1V14.11H77.653V19c0,1.932-.887,3.031-2.388,3.031a3.8,3.8,0,0,1-3.454-3.461c0-1.04.8-2.125,2.883-2.125h1.7V14.11H70.761V12.981H83.224V14.11Zm-6.833,4.843V17.586h-1.7c-0.736,0-1.547.208-1.547,0.951,0,0.892,1.051,2.378,2.118,2.348C76.391,20.855,76.391,19.369,76.391,18.953ZM87.069,14.11H84.906v7.874H83.659V14.11H81.527V12.981h2.132V11.614a1.272,1.272,0,1,0-2.478,0v0.445H79.951V11.614a2.487,2.487,0,1,1,4.955,0v1.367h2.163V14.11Zm4.415,0v1.738a3.1,3.1,0,0,1,2.824,3.165,2.821,2.821,0,0,1-2.733,2.823V20.691a1.752,1.752,0,0,0,1.5-1.783,2.238,2.238,0,0,0-4.445,0,1.752,1.752,0,0,0,1.5,1.783v1.144A2.81,2.81,0,0,1,87.4,19.013a3.112,3.112,0,0,1,2.838-3.165V14.11H85.928V12.981h9.7V14.11H91.484Zm15.154,2.585a2.186,2.186,0,0,1,1.276,2.1c0,1.946-1.652,3.388-3.9,3.388-1.743,0-2.824-.846-2.824-2.035a1.8,1.8,0,0,1,2.073-1.738,3.283,3.283,0,0,1,2.958,1.827,2.057,2.057,0,0,0,.45-1.337c0-1.2-.9-1.6-2.508-1.59h-1.651V16.086h1.651c1.848-.089,2.389-0.387,2.434-1.976H99.609V12.981h9.7V14.11h-1.473C107.779,15.744,107.193,16.5,106.638,16.694Zm-2.569,4.339a3.61,3.61,0,0,0,1.322-.223,2.476,2.476,0,0,0-2.118-1.278,0.688,0.688,0,0,0-.84.624C102.433,20.6,102.9,21.033,104.069,21.033Zm9.476-6.923h-2.162v7.874h-1.247V14.11H108V12.981h2.132V11.614a1.272,1.272,0,1,0-2.478,0v0.445h-1.23V11.614a2.487,2.487,0,1,1,4.955,0v1.367h2.162V14.11Zm10.632,0h-3.049c0.016,0.163.031,0.341,0.031,0.535a5.088,5.088,0,0,1-.271,1.634,3.117,3.117,0,0,1,2.013,2.883,2.808,2.808,0,0,1-2.974,2.764V20.81a1.677,1.677,0,0,0,1.728-1.649,2.091,2.091,0,0,0-1.232-1.857,5.127,5.127,0,0,1-2.013,2.021,5.126,5.126,0,0,1-2.026-2.005,2.092,2.092,0,0,0-1.217,1.842,1.673,1.673,0,0,0,1.712,1.649v1.114a2.8,2.8,0,0,1-2.958-2.764,3.125,3.125,0,0,1,2-2.883,5.493,5.493,0,0,1-.256-1.648c0-.194.016-0.372,0.03-0.52H112.4V12.981h11.774V14.11Zm-4.279,0h-2.974c-0.015.178-.03,0.371-0.03,0.579a3.785,3.785,0,0,0,1.516,3.283,3.945,3.945,0,0,0,1.517-3.3C119.927,14.481,119.912,14.288,119.9,14.11Zm13.336,0h-2.027v7.874H129.96V18.315h-3.348a14.163,14.163,0,0,1-.526,3.669h-1.262a15.169,15.169,0,0,0,.586-3.669,3.018,3.018,0,0,0-.946-1.992l1.8-.624a9.225,9.225,0,0,1,.331,1.486h3.364V14.11h-7.118V12.981h10.392V14.11ZM129,20.766a0.782,0.782,0,0,1-.781.773,0.765,0.765,0,1,1,0-1.53A0.778,0.778,0,0,1,129,20.766Zm11.1-2.332a2.139,2.139,0,0,0,2.3,2.391,3.411,3.411,0,0,0,2.477-.965V21a3.382,3.382,0,0,1-2.552.965,3.226,3.226,0,0,1-3.379-3.358V18A3.01,3.01,0,0,0,138,16.011l1.8-.624a9.446,9.446,0,0,1,.331,1.486h3.363V14.11h-7V12.981h10.391V14.11h-2.147V18H140.1v0.431ZM144.662,13h-1.155a2.2,2.2,0,0,0-2.524-2.3L140.7,9.5A3.465,3.465,0,0,1,144.662,13Zm11.413,1.114v1.738a3.1,3.1,0,0,1,2.824,3.165,2.821,2.821,0,0,1-2.733,2.823V20.691a1.753,1.753,0,0,0,1.5-1.783,2.238,2.238,0,0,0-4.445,0,1.752,1.752,0,0,0,1.5,1.783v1.144a2.81,2.81,0,0,1-2.733-2.823,3.112,3.112,0,0,1,2.838-3.165V14.11h-4.31V12.981h9.7V14.11h-4.146Zm8.56,0h-2.147V18.4h-1.232V14.11h-2.162V12.981h5.541V14.11Zm10.633,0H172.22c0.015,0.163.03,0.341,0.03,0.535a5.088,5.088,0,0,1-.271,1.634,3.117,3.117,0,0,1,2.013,2.883,2.808,2.808,0,0,1-2.974,2.764V20.81a1.677,1.677,0,0,0,1.728-1.649,2.089,2.089,0,0,0-1.232-1.857,5.131,5.131,0,0,1-2.012,2.021,5.122,5.122,0,0,1-2.027-2.005,2.092,2.092,0,0,0-1.217,1.842,1.673,1.673,0,0,0,1.712,1.649v1.114a2.8,2.8,0,0,1-2.958-2.764,3.125,3.125,0,0,1,2-2.883,5.493,5.493,0,0,1-.256-1.648c0-.194.016-0.372,0.03-0.52H163.5V12.981h11.773V14.11Zm-4.279,0h-2.974c-0.015.178-.03,0.371-0.03,0.579a3.784,3.784,0,0,0,1.517,3.283,3.947,3.947,0,0,0,1.516-3.3C171.018,14.481,171,14.288,170.989,14.11ZM182.116,18.7a2.111,2.111,0,0,0,.51,1.4,2.9,2.9,0,0,1,2.869-1.9c1.472,0,2.253.846,2.253,1.857,0,1.2-1.112,2.08-2.884,2.08-2.252,0-3.994-1.426-3.994-3.477,0-1.4.826-2.927,3.364-2.927h1.847V14.11h-6.668V12.981h9.7V14.11h-1.788v2.778h-3.454A1.679,1.679,0,0,0,182.116,18.7Zm1.261,1.946a3.544,3.544,0,0,0,1.547.327c0.916,0,1.577-.282,1.577-0.8a1,1,0,0,0-1.2-.848A2.061,2.061,0,0,0,183.377,20.647Zm1.608-9.107c-0.721-.134-2.268-0.238-2.268-2.645H183.9c0,1.381.541,1.411,1.112,1.486A2.322,2.322,0,0,1,187.253,13h-1.171A1.281,1.281,0,0,0,184.985,11.54Zm8.725,2.57v1.738a3.1,3.1,0,0,1,2.824,3.165,2.821,2.821,0,0,1-2.733,2.823V20.691a1.753,1.753,0,0,0,1.5-1.783,2.238,2.238,0,0,0-4.445,0,1.752,1.752,0,0,0,1.5,1.783v1.144a2.81,2.81,0,0,1-2.733-2.823,3.112,3.112,0,0,1,2.838-3.165V14.11h-4.31V12.981h9.7V14.11H193.71Zm13.2,0h-2.027v7.874h-1.246V18.315h-3.349a14.163,14.163,0,0,1-.526,3.669H198.5a15.162,15.162,0,0,0,.585-3.669,3.018,3.018,0,0,0-.946-1.992l1.8-.624a9.332,9.332,0,0,1,.33,1.486h3.365V14.11h-7.119V12.981H206.91V14.11Zm-4.235,6.656a0.781,0.781,0,0,1-.781.773,0.765,0.765,0,1,1,0-1.53A0.778,0.778,0,0,1,202.675,20.766ZM209,20.38L208.007,23.8H206.9l0.857-3.417H209ZM15.03,34.524a2.185,2.185,0,0,1,1.276,2.1c0,1.946-1.651,3.388-3.9,3.388-1.742,0-2.824-.847-2.824-2.035a1.8,1.8,0,0,1,2.073-1.738,3.284,3.284,0,0,1,2.959,1.827,2.064,2.064,0,0,0,.45-1.338c0-1.2-.9-1.6-2.508-1.589H10.9V33.915h1.651c1.848-.089,2.389-0.386,2.434-1.975H8V30.81h9.7v1.13H16.23C16.171,33.574,15.585,34.332,15.03,34.524Zm-2.568,4.339a3.629,3.629,0,0,0,1.322-.223,2.475,2.475,0,0,0-2.118-1.278,0.689,0.689,0,0,0-.841.624C10.825,38.432,11.29,38.863,12.461,38.863Zm3.679-8.039H14.985a2.2,2.2,0,0,0-2.523-2.3l-0.285-1.189A3.465,3.465,0,0,1,16.14,30.824Zm2.9,6.315a3.29,3.29,0,0,0,3.078,1.709,4.353,4.353,0,0,0,3.169-1.308v1.2a4.5,4.5,0,0,1-3.363,1.248,4.21,4.21,0,0,1-4.205-2.853,4.008,4.008,0,0,1,4.1-2.853h1.908V31.94H16.4V30.81H26.788v1.13H24.971v3.506H21.817A2.84,2.84,0,0,0,19.039,37.139Zm11.984-5.2H28.876v4.294H27.644V31.94H25.481V30.81h5.542v1.13Zm15.844,0H45.049v7.874H43.8v-4.1H42.376a11.977,11.977,0,0,1-1.171,3.031l-1.276-.564c1.561-2.794,1.651-3.745.841-4.621-0.9.089-1.667,0.981-2.883,3.477l-1.247-.565c1.051-2.288,1.171-3.654.376-4.531H34.838V30.81h2.748a2.76,2.76,0,0,1,1.066,2.838,2.852,2.852,0,0,1,2.7-1.263,3.059,3.059,0,0,1,1.111,2.2H43.8V30.81h3.064v1.13Zm5.616,3.135a2.223,2.223,0,0,1,.841,1.812c0,1.665-1.412,2.838-3.453,2.838a4.894,4.894,0,0,1-3-.906V37.66a5.508,5.508,0,0,0,2.883.907c1.276,0,2.327-.594,2.327-1.709,0-1.174-1.1-1.144-3.663-1.144V34.584c2.793,0,3.679-.044,3.649-1.665V31.94h-6.5V30.81h9.7v1.13H53.309v0.846C53.309,34.346,52.859,34.821,52.483,35.075Zm0.736-4.25H52.064a2.2,2.2,0,0,0-2.524-2.3l-0.285-1.189A3.465,3.465,0,0,1,53.219,30.824Zm12.765,4.25a2.224,2.224,0,0,1,.841,1.812c0,1.665-1.412,2.838-3.453,2.838a4.895,4.895,0,0,1-3-.906V37.66a5.507,5.507,0,0,0,2.883.907c1.276,0,2.327-.594,2.327-1.709,0-1.174-1.1-1.144-3.663-1.144V34.584c2.793,0,3.679-.044,3.649-1.665V31.94h-6.5V30.81h9.7v1.13H66.81v0.846C66.81,34.346,66.36,34.821,65.984,35.075ZM77.8,31.94H76.226L76.2,33.307a5.918,5.918,0,0,1-.842,3.224,8.235,8.235,0,0,1,.331,2.377c0,0.3,0,.654-0.015.951H74.44c0.015-.222.029-0.668,0.029-0.98a8.44,8.44,0,0,0-.09-1.278,4.178,4.178,0,0,1-2.568.832c-1.893,0-2.989-1.04-2.989-2.556a2.506,2.506,0,0,1,2.748-2.57,3.66,3.66,0,0,1,3.153,1.783,5.858,5.858,0,0,0,.241-1.708V31.94H67.411V30.81H77.8v1.13Zm-3.754,4.368a2.548,2.548,0,0,0-2.373-1.857,1.421,1.421,0,0,0-1.606,1.412c0,0.861.645,1.411,1.8,1.411A2.75,2.75,0,0,0,74.049,36.307Zm8.125-4.368v1.738A3.1,3.1,0,0,1,85,36.842a2.821,2.821,0,0,1-2.733,2.824V38.521a1.752,1.752,0,0,0,1.5-1.783,2.238,2.238,0,0,0-4.445,0,1.752,1.752,0,0,0,1.5,1.783v1.144a2.81,2.81,0,0,1-2.733-2.824,3.111,3.111,0,0,1,2.838-3.164V31.94H76.617V30.81h9.7v1.13H82.173Zm8.56,0H88.586v4.294H87.354V31.94H85.192V30.81h5.542v1.13Zm10.633,0H98.317c0.016,0.163.03,0.342,0.03,0.535a5.09,5.09,0,0,1-.271,1.634,3.115,3.115,0,0,1,2.013,2.883,2.809,2.809,0,0,1-2.974,2.764V38.64a1.677,1.677,0,0,0,1.728-1.649,2.088,2.088,0,0,0-1.232-1.857A5.131,5.131,0,0,1,95.6,37.155a5.135,5.135,0,0,1-2.027-2.006,2.1,2.1,0,0,0-1.216,1.843,1.673,1.673,0,0,0,1.712,1.649v1.114a2.8,2.8,0,0,1-2.959-2.764,3.124,3.124,0,0,1,2-2.883,5.485,5.485,0,0,1-.256-1.649c0-.193.016-0.371,0.03-0.52H89.592V30.81h11.774v1.13Zm-4.279,0H94.113c-0.016.178-.03,0.372-0.03,0.58A3.786,3.786,0,0,0,95.6,35.8a3.948,3.948,0,0,0,1.516-3.3C97.116,32.311,97.1,32.118,97.087,31.94Zm-1.112-2.571c-0.721-.134-2.267-0.237-2.267-2.645h1.186c0,1.382.541,1.411,1.112,1.486a2.322,2.322,0,0,1,2.238,2.615H97.072A1.28,1.28,0,0,0,95.975,29.369Zm14.447,2.571H108.4v7.874h-1.247v-3.67H103.8a14.126,14.126,0,0,1-.527,3.67h-1.261a15.169,15.169,0,0,0,.586-3.67,3.015,3.015,0,0,0-.947-1.991l1.8-.624a9.225,9.225,0,0,1,.331,1.486h3.364V31.94h-7.119V30.81h10.393v1.13Zm4.025,0h-2.163v7.874h-1.247V31.94h-2.132V30.81h2.132V29.443a1.272,1.272,0,1,0-2.477,0v0.446h-1.231V29.443a2.487,2.487,0,1,1,4.955,0V30.81h2.163v1.13Zm9.009-3.418-0.991,3.418h-1.111l0.856-3.418h1.246Zm8.726,6.553a2.225,2.225,0,0,1,.84,1.812c0,1.665-1.411,2.838-3.453,2.838a4.894,4.894,0,0,1-3-.906V37.66a5.5,5.5,0,0,0,2.883.907c1.276,0,2.327-.594,2.327-1.709,0-1.174-1.1-1.144-3.664-1.144V34.584c2.794,0,3.679-.044,3.649-1.665V31.94h-6.5V30.81h9.7v1.13h-1.952v0.846C133.008,34.346,132.557,34.821,132.182,35.075Zm0.736-4.25h-1.156a2.2,2.2,0,0,0-2.523-2.3l-0.286-1.189A3.466,3.466,0,0,1,132.918,30.824Zm5.512,8.351h-1.246V31.107h1.246v8.069Z"/>
</svg>
