<svg id="TC" xmlns="http://www.w3.org/2000/svg" width="728" height="90" viewBox="0 0 728 90">
  <defs>
    <style>
      .cls-1 {
        fill: #080;
        fill-rule: evenodd;
      }
    </style>
  </defs>
  <path class="cls-1" d="M656.876,67.921a0.169,0.169,0,0,0,.111-0.1,0.386,0.386,0,0,0,.051-0.2V63.167a9.116,9.116,0,0,0,2.433-1.719L654,61.439V60.7h6.608v0.659a8.692,8.692,0,0,1-2.745,2.189l-0.011,4.371a0.825,0.825,0,0,1-.191.511,0.677,0.677,0,0,1-.543.255l-1.479.02-0.361-.785h1.6Zm10.259-.011a1.217,1.217,0,0,1-.171.668,0.579,0.579,0,0,1-.523.265h-0.794l-0.423-.727h0.885a0.238,0.238,0,0,0,.191-0.083,0.288,0.288,0,0,0,.071-0.192V66.674h-2.1a4.485,4.485,0,0,1-1.067,2.317l-0.572-.511a4.692,4.692,0,0,0,.523-0.742,3.393,3.393,0,0,0,.22-0.57,4.417,4.417,0,0,0,.141-0.742V63.373l-0.261.285-0.634-.423a5.863,5.863,0,0,0,1.669-3.094l0.654,0.256a4.419,4.419,0,0,1-.12.609H666.6a11.389,11.389,0,0,1-.522,1.581h1.056V63.03a2.5,2.5,0,0,0,.915-0.678,1.857,1.857,0,0,0,.463-1.041h-1.1V60.594h3.812a8.087,8.087,0,0,1-.453,2.209,0.657,0.657,0,0,1-.241.309,0.692,0.692,0,0,1-.382.133,2.227,2.227,0,0,1-.448-0.034c-0.191-.03-0.323-0.047-0.4-0.053l-0.231-.815a3.635,3.635,0,0,0,.713.225,0.3,0.3,0,0,0,.373-0.275c0.046-.158.117-0.484,0.211-0.982h-1.126A3.56,3.56,0,0,1,668.7,62.7a2.952,2.952,0,0,1-1.222.958l-0.323-.432Zm-2.585-6.187a6.577,6.577,0,0,1-.432.865l1.156-.01a4.827,4.827,0,0,0,.227-0.437,3.386,3.386,0,0,0,.165-0.418H664.55Zm0.392,2.554V63.285h-0.673v0.992h0.673Zm-0.673.668,0.009,1.031h0.664V64.945h-0.673Zm2.091-1.66h-0.694v0.992h0.7Zm0.011,1.66h-0.7l0.011,1.021,0.694,0.01V64.945ZM669.96,66.8v2.16h-0.753L669.2,66.8h-1.941V66.094l1.952-.011V65.063H668.5a3.475,3.475,0,0,1-.513.884l-0.774-.265a2.7,2.7,0,0,0,.558-0.81,4.235,4.235,0,0,0,.307-1.37l0.694,0.206a3.231,3.231,0,0,1-.071.639l0.493,0.01,0.011-1.021,0.753-.01v1.021h1.177l-0.01.717H669.96v1.021h1.7V66.8h-1.7Zm11.224,2.121a18.736,18.736,0,0,1-3.148-.4,9.573,9.573,0,0,1-1.921-.654l-0.312.206a7.166,7.166,0,0,1-2.886.933l-0.452-.658a13.738,13.738,0,0,0,1.413-.309,8.862,8.862,0,0,0,1.514-.554,6.833,6.833,0,0,1-1.459-1.257l0.583-.384a11.732,11.732,0,0,0,1.469,1.12,2.711,2.711,0,0,0,.347-0.589,3.131,3.131,0,0,0,.206-0.648H673.8l0.01-3.634H676.7V61.37l-3.943.01v-0.7h8.579v0.7l-3.892-.01V62.1h2.8v3.634H677.3a3.66,3.66,0,0,1-.231.869,2.941,2.941,0,0,1-.422.742,4.934,4.934,0,0,0,1.226.407,17.521,17.521,0,0,0,1.816.284q1.031,0.113,1.966.133Zm-6.628-5.372H676.7V62.8l-2.143-.009V63.55Zm0,1.464,2.083,0.01,0.04-.776h-2.123v0.766Zm2.877-.766-0.05.776h2.132V64.248h-2.082Zm2.071-1.453h-2.041l-0.01.756H679.5V62.794Zm4.234,3.28a13,13,0,0,0,2.529-1.183,7,7,0,0,0,1.795-1.586,12.394,12.394,0,0,1-1.88.909,20.574,20.574,0,0,1-2.957.879l-0.483-.659q0.8-.176,1.735-0.431a11.72,11.72,0,0,0,1.4-.452,3.515,3.515,0,0,0-1.127-.825l0.7-.442a3.224,3.224,0,0,1,.588.427,4,4,0,0,1,.538.546,9.074,9.074,0,0,0,1.066-.629,9.476,9.476,0,0,0,.935-0.766h-2.766a10.8,10.8,0,0,1-2.2,1.091l-0.664-.609a7.775,7.775,0,0,0,3.882-2.377l0.7,0.364a7.27,7.27,0,0,1-.734.785h2.836v0.658a6.917,6.917,0,0,1-.679.751,7.27,7.27,0,0,1-.738.643l0.593,0.314a4.538,4.538,0,0,1-.534.7L691,64.188l-0.011.659a6.751,6.751,0,0,1-.6.9,5.888,5.888,0,0,1-1.01,1,7.519,7.519,0,0,1-1.444.893,12.61,12.61,0,0,1-1.775.683,27.947,27.947,0,0,1-2.927.648l-0.5-.678a20.344,20.344,0,0,0,4.5-1.159,3.563,3.563,0,0,0-1.106-.982l0.724-.4a3.081,3.081,0,0,1,1.036,1.071,8.131,8.131,0,0,0,.98-0.6,4.243,4.243,0,0,0,.735-0.653,4.11,4.11,0,0,0,.467-0.634H687.5a7.994,7.994,0,0,1-1.141.8,18.959,18.959,0,0,1-2.037.972Z"/>
</svg>
