<svg id="TC" xmlns="http://www.w3.org/2000/svg" width="728" height="90" viewBox="0 0 728 90">
  <defs>
    <style>
      .cls-1 {
        fill: #4c286c;
        fill-rule: evenodd;
      }
    </style>
  </defs>
  <g id="txt1">
    <path class="cls-1" d="M65.14,60.97H60.069V51q-0.181.107-1.348,0.911t-2.14,1.341l-0.467.25A25.882,25.882,0,0,0,52.985,49a23.206,23.206,0,0,0,6.833-3.753h-6.4l-0.036-4.4h9.71l0.4-.608H57.3v-4.11h7.625l0.144-.536h-9.53V31.163H65.858a7.924,7.924,0,0,0,.108-1.108q0.036-.75.072-1.072L71,29.376l-0.144,1.787H83.084l-0.036,4.432H70.138l-0.144.536H81.322v4.11H68.52l-0.4.608H85.207v4.4H79.272A25.712,25.712,0,0,0,81.9,47a21.8,21.8,0,0,0,3.812,1.752q-0.323.393-1.132,1.554a23.465,23.465,0,0,0-1.709,2.984q-0.863-.464-2.553-1.59l-1.8-1.2V61.006H73.555V59.791H65.14V60.97ZM65.93,45.244l-0.863.893h8.523l-0.828-.893H65.93Zm7.624,4.932H65.14v0.858h8.415V50.176Zm0,4.754H65.14v0.858h8.415V54.93Zm24.826,5.4H93.526V30.52H115V60.291l-4.963-.036V57.932l-11.651.036v2.359Zm11.651-25.053H98.381v6.5h11.651v-6.5Zm0,11.079H98.381v6.826h11.651V46.352Z"/>
  </g>
</svg>
