<svg id="TC" xmlns="http://www.w3.org/2000/svg" width="728" height="90" viewBox="0 0 728 90">
  <defs>
    <style>
      .cls-1 {
        fill: #4c286c;
        fill-rule: evenodd;
      }
    </style>
  </defs>
  <g id="txt1">
    <path class="cls-1" d="M124.069,47.13a15.823,15.823,0,0,0-.816-2.886A6.836,6.836,0,0,0,122,41.967a44.4,44.4,0,0,0,5.806-12.979l3.7,0.824V29.526h22.5l0.036,3.3H143.413l-0.073.717h7.4v7.493h3.629v4.911h-3.012a3.368,3.368,0,0,1,.381.466q0.2,0.288,1.289,1.9a16.6,16.6,0,0,0-3.484,1.864,9.56,9.56,0,0,0-1.379-2.223,4.5,4.5,0,0,1-.8,1.542,1.585,1.585,0,0,1-1.2.752h-4.1l-0.29.466h8.238l1.307,1.219a15.913,15.913,0,0,1-3.52,3.872,19.611,19.611,0,0,0,3.465.538,33.235,33.235,0,0,0,3.757.072q-1.162,1.434-1.58,2.043a5.818,5.818,0,0,0-.67,1.309,8.8,8.8,0,0,0-.364,1.237,31.814,31.814,0,0,1-8.964-2.331,43.438,43.438,0,0,1-4.373,1.47,25.99,25.99,0,0,1-4.663.861,6.872,6.872,0,0,0-.944-2.223,7.666,7.666,0,0,0-1.451-1.721,25.065,25.065,0,0,0,6.785-.932l-1.45-1.326a31.226,31.226,0,0,1-5.989,2.295,6.4,6.4,0,0,0-.382-0.771,5.054,5.054,0,0,0-.706-0.914c-0.316-.335-0.509-0.538-0.582-0.61V60.9h-4.5V45.481Zm12.485,0a6,6,0,0,1-.218.771,7.448,7.448,0,0,1-.381.878c-0.158.311-.344,0.658-0.563,1.04s-0.363.645-.435,0.789a4.529,4.529,0,0,0-1.47-.843,11.218,11.218,0,0,0-2.522-.628,9.223,9.223,0,0,0,1.016-1.506,8.511,8.511,0,0,0,.69-1.577h-2.5V41h2.686V33.542h5.661l0.073-.717h-7.077l-1.815,4.7V53.189a16.667,16.667,0,0,0,4.772-1.488,11.734,11.734,0,0,0,2.814-2.061,1.4,1.4,0,0,1-.49-0.628,1.928,1.928,0,0,1-.236-0.807V47.13Zm-2.25-2.725,2.25,0.789V44.907a0.328,0.328,0,0,0-.254-0.251,0.325,0.325,0,0,1-.254-0.251,1.222,1.222,0,0,1,.036-0.233,0.639,0.639,0,0,1,.617-0.161h3.375l0.508-.251-6.278-.072v0.717Zm11.9-8.784h-8.819v0.645h8.819V35.621Zm0,2.366h-8.819v0.645h8.819V37.988Zm0,2.366h-8.819V41h8.819V40.354Zm-2.324,6.525a0.989,0.989,0,0,0,.491-0.162,2.243,2.243,0,0,0,.526-1.237q1.38,0.789,1.615.9a4.3,4.3,0,0,0,.454.179l-1.089-1.362,3.048-1.434-4.173-.072c0.048,0.048.2,0.233,0.454,0.556a5.09,5.09,0,0,1,.489.7q-0.29.144-1.161,0.538t-1.361.681q-0.49.287-.852,0.538a7.712,7.712,0,0,0-1.888-2.258v2.043q0,0.4.581,0.395h2.866Zm-2.177,6.776,1.307,0.753,1.125-.681Zm8.384-9.967H149.22a1.764,1.764,0,0,1,.2.126,2.254,2.254,0,0,1,.345.34c0.146,0.168.254,0.287,0.327,0.359V43.688Zm12.484,16.456a17,17,0,0,0-3.846-2.438,15.019,15.019,0,0,0,3.738-6.7q2.613,0.682,4.064,1.148A17.018,17.018,0,0,1,162.575,60.145Zm-2.032-9.608-0.653-4.159L172.3,46.556V45.588h-9.618V35.478H172.3V34.761H158.8v-3.8h13.465V30.136l-0.254-.395a0.291,0.291,0,0,1-.055-0.3,0.3,0.3,0,0,1,.164-0.233h5.045v1.721h13.609V34.8H177.166v0.717h9.653V45.7a27.925,27.925,0,0,1,2.541,4.267,11.125,11.125,0,0,0-4.174,1.075l-0.436-1.147-7.294.143a17.457,17.457,0,0,1,2.467,3.155A9.324,9.324,0,0,0,176,55.233a23.815,23.815,0,0,0-2.868-4.123l1.6-.861Zm11.723-12.154h-4.9v0.9h4.9v-0.9Zm0,3.478h-4.9V42.72h4.9V41.86Zm6.46,14.341a1.918,1.918,0,0,0,.707-0.484,5.473,5.473,0,0,0,.889-1.846,14.537,14.537,0,0,0,1.888.86,12.731,12.731,0,0,0,2.1.645c-0.025.12-.091,0.442-0.2,0.968a10.384,10.384,0,0,1-.381,1.4,3.86,3.86,0,0,1-.562,1.058,3.282,3.282,0,0,1-.708.7,4.226,4.226,0,0,1-.69.395,7.331,7.331,0,0,1-2.794.466l-7.477-.036a5.182,5.182,0,0,1-1.651-.287,2.732,2.732,0,0,1-1.869-2.581V52.042a0.712,0.712,0,0,0-.09-0.287,1.128,1.128,0,0,0-.2-0.287,0.266,0.266,0,0,1-.037-0.3,0.309,0.309,0,0,1,.327-0.2h4.646v4.589a0.626,0.626,0,0,0,.761.645h5.336Zm4.137-9.537-0.471-.538a6.755,6.755,0,0,1,1.305-.43l-6.5-.072v1Zm-0.689-8.282h-4.936v0.9h4.936v-0.9Zm0,3.478h-4.936V42.72h4.936V41.86Zm3.484,9.286a25.143,25.143,0,0,1,5.335,5.772,10.94,10.94,0,0,0-4.029,2.116,26.331,26.331,0,0,0-2.177-3.281,27.065,27.065,0,0,0-2.686-3.03l3.266-1.613Z"/>
  </g>
</svg>
