<svg id="TC" xmlns="http://www.w3.org/2000/svg" width="728" height="90" viewBox="0 0 728 90">
  <defs>
    <style>
      .cls-1 {
        fill: #4c286c;
        fill-rule: evenodd;
      }
    </style>
  </defs>
  <g id="txt1">
    <path class="cls-1" d="M521.661,38.6a0.239,0.239,0,0,0-.126-0.125,0.217,0.217,0,0,1-.125-0.167,0.224,0.224,0,0,1,.059-0.1,0.315,0.315,0,0,1,.25-0.074h1.78v2.406h1.4v0.511q0.207-.336.493-0.911a18.707,18.707,0,0,0,.8-2.136l1.97,0.394a11.266,11.266,0,0,1-.507,1.1c-0.241.471-.394,0.78-0.464,0.926h1.3a12.1,12.1,0,0,0,.779-2.377l2,0.511q-0.03.059-.3,0.773A9.066,9.066,0,0,1,530.5,40.4l2.383,0.03v1.895h-2.574v0.845l2.339,0.015V44.96h-2.339v0.846h2.339v1.808h-2.339v0.773h2.662v1.851h-6.044V51H525V44.13a0.493,0.493,0,0,0-.074.109,0.368,0.368,0,0,1-.147.138v0.9l-1.279.539v3.572a1.436,1.436,0,0,1-.56,1.2,5.571,5.571,0,0,1-1.926.349,3,3,0,0,0-.75-1.982c0.069,0,.2,0,0.4.015s0.359,0.012.471,0.007a1.752,1.752,0,0,0,.3-0.036,0.251,0.251,0,0,0,.154-0.1,0.235,0.235,0,0,0,.067-0.138V46.535q-0.3.1-1.324,0.409l-0.413-2.173,1.737-.349v-2.07l-1.647-.015V40.543h1.647V38.6ZM524,42.352h-0.5v0.466Zm0.06,1.4a2.312,2.312,0,0,0-.559-0.466v0.641Zm4.338-.568V42.337h-1.471v0.845H528.4Zm0,2.624V44.96h-1.471v0.846H528.4Zm0,2.58V47.614h-1.471v0.773H528.4Zm13.647-10.235v4.126h2.485V39.3a0.2,0.2,0,0,0-.147-0.138,0.193,0.193,0,0,1-.147-0.153c0-.106.088-0.16,0.264-0.16h2.016v5.714h-1.986V44.086h-2.485v4.476l2.852-.015V45.311a0.193,0.193,0,0,0-.139-0.1,0.184,0.184,0,0,1-.14-0.161c0-.106.088-0.16,0.266-0.16l2.014-.015v6.109h-2.014L544.9,50.3h-7.661v0.656h-1.853v-5.6a0.167,0.167,0,0,0-.139-0.139,0.174,0.174,0,0,1-.14-0.168c0-.116.1-0.175,0.308-0.175h1.824l-0.015,3.674h2.794V44.086l-2.383.015v0.453h-1.911l0.015-5.278a0.2,0.2,0,0,0-.147-0.125,0.2,0.2,0,0,1-.147-0.167,0.129,0.129,0,0,1,.081-0.117,0.373,0.373,0,0,1,.183-0.044h1.926v3.455h2.383V38.633a0.177,0.177,0,0,0-.051-0.116,0.221,0.221,0,0,0-.111-0.074,0.144,0.144,0,0,1-.147-0.131,0.166,0.166,0,0,1,.206-0.161h2.133Z"/>
  </g>
</svg>
