<svg id="TC" xmlns="http://www.w3.org/2000/svg" width="728" height="90" viewBox="0 0 728 90">
  <defs>
    <style>
      .cls-1 {
        fill: #4c286c;
        fill-rule: evenodd;
      }
    </style>
  </defs>
  <g id="txt1">
    <path class="cls-1" d="M491.361,48.769q-0.043-.351-0.181-1.05c-0.092-.467-0.153-0.788-0.181-0.966l1.68-.224V44.163h-1.347V42.525h1.347l0.015-1.75H491.2V39.108h4.722v1.666h-1.318v1.75h1.231v1.638h-1.231v2.1l1.362-.21v1.625Zm10.677,0.252q0.318,0,.4-1.3a5.974,5.974,0,0,0,1.579.84,4.457,4.457,0,0,1-.167,1.162,1.972,1.972,0,0,1-.449.9,0.833,0.833,0,0,1-.586.28h-2.13a1.228,1.228,0,0,1-.818-0.273,0.822,0.822,0,0,1-.326-0.651V46.655h-0.521a10.54,10.54,0,0,1-.226,1.393,3.147,3.147,0,0,1-.376.875,4.772,4.772,0,0,1-.731.868,8.445,8.445,0,0,1-1.4.777,6.244,6.244,0,0,1-1.5.413,8.182,8.182,0,0,0-1.115-1.778,5.824,5.824,0,0,0,1.463-.252,4.764,4.764,0,0,0,1.2-.525,1.463,1.463,0,0,0,.593-0.623,3.333,3.333,0,0,0,.247-1.148h-1.043V38.912h6.547v7.743h-1.318l0.015,2.17a0.2,0.2,0,0,0,.246.2h0.406Zm-4.013-7.967h2.8V40.564h-2.8v0.489Zm0,1.933h2.8V42.5h-2.8v0.49Zm0,2h2.8V44.5h-2.8v0.49Zm8.662-2.422a0.249,0.249,0,0,0-.209-0.189,0.25,0.25,0,0,1-.21-0.2c0-.13.13-0.2,0.39-0.2h1.87v1.331l5.663,0.014,0.015-2.451-7.9-.027v-1.68H516v6.5h-1.8v-0.6l-5.678-.014v3.486a0.337,0.337,0,0,0,.166.3,0.761,0.761,0,0,0,.413.1l5.113-.014a7.588,7.588,0,0,0,.877-0.035,1.235,1.235,0,0,0,.478-0.161,1.135,1.135,0,0,0,.369-0.378,13.788,13.788,0,0,0,.261-1.652,5.457,5.457,0,0,0,1.8.785c0,0.037-.021.209-0.064,0.518s-0.093.584-.146,0.826a3.1,3.1,0,0,1-.217.658,2.228,2.228,0,0,1-.348.532,1.344,1.344,0,0,1-.543.364,3.162,3.162,0,0,1-.825.168q-0.55.057-1.826,0.057H508.3a1.915,1.915,0,0,1-1.093-.337,1.02,1.02,0,0,1-.5-0.882Z"/>
  </g>
</svg>
