<svg id="TC" xmlns="http://www.w3.org/2000/svg" width="728" height="90" viewBox="0 0 728 90">
  <defs>
    <style>
      .cls-1 {
        fill: #4c286c;
        fill-rule: evenodd;
      }
    </style>
  </defs>
  <g id="txt1">
    <path class="cls-1" d="M491.361,48.77q-0.045-.351-0.182-1.05T491,46.754l1.68-.224V44.164h-1.348V42.526h1.348l0.014-1.75H491.2V39.11h4.722v1.666h-1.319v1.75h1.232v1.638h-1.232v2.1l1.363-.21v1.625Zm10.676,0.252c0.213,0,.347-0.434.406-1.3a5.965,5.965,0,0,0,1.578.84,4.455,4.455,0,0,1-.166,1.162,1.992,1.992,0,0,1-.449.9,0.834,0.834,0,0,1-.587.28H500.69a1.233,1.233,0,0,1-.819-0.273,0.825,0.825,0,0,1-.326-0.651V46.656h-0.521a10.406,10.406,0,0,1-.225,1.393,3.149,3.149,0,0,1-.377.875,4.728,4.728,0,0,1-.731.868,8.413,8.413,0,0,1-1.4.777,6.236,6.236,0,0,1-1.5.413,8.26,8.26,0,0,0-1.115-1.778,5.816,5.816,0,0,0,1.462-.252,4.729,4.729,0,0,0,1.2-.525,1.463,1.463,0,0,0,.593-0.623,3.333,3.333,0,0,0,.247-1.148h-1.043V38.914h6.548v7.743h-1.318l0.014,2.17a0.2,0.2,0,0,0,.246.2h0.406Zm-4.013-7.967h2.8V40.566h-2.8v0.489Zm0,1.933h2.8V42.5h-2.8v0.49Zm0,2h2.8V44.5h-2.8v0.49Zm8.663-2.422a0.249,0.249,0,0,0-.21-0.189,0.252,0.252,0,0,1-.21-0.2c0-.13.13-0.2,0.391-0.2h1.869V43.31l5.664,0.014,0.014-2.451-7.9-.027v-1.68H516v6.5h-1.8v-0.6l-5.678-.014v3.486a0.338,0.338,0,0,0,.167.3,0.759,0.759,0,0,0,.413.1l5.113-.014a7.568,7.568,0,0,0,.876-0.035,1.224,1.224,0,0,0,.478-0.161,1.128,1.128,0,0,0,.37-0.378,14.027,14.027,0,0,0,.26-1.652,5.459,5.459,0,0,0,1.8.785c0,0.037-.021.209-0.064,0.518s-0.093.584-.145,0.826a3.1,3.1,0,0,1-.218.658,2.255,2.255,0,0,1-.347.532,1.348,1.348,0,0,1-.544.364,3.139,3.139,0,0,1-.825.168q-0.55.057-1.825,0.057H508.3a1.92,1.92,0,0,1-1.094-.337,1.019,1.019,0,0,1-.5-0.882Z"/>
  </g>
</svg>
