<svg id="TC" xmlns="http://www.w3.org/2000/svg" width="728" height="90" viewBox="0 0 728 90">
  <defs>
    <style>
      .cls-1 {
        fill: #4c286c;
        fill-rule: evenodd;
      }
    </style>
  </defs>
  <path id="txt2" class="cls-1" d="M59.43,28.023q-1.639.2-6.194,0.323l-0.9-1.5a57.324,57.324,0,0,0,7.613-.364A29.868,29.868,0,0,0,66.6,25.092l0.84,1.152a26.465,26.465,0,0,1-6.454,1.6v2.992h5.694v1.476H60.989V35.4l7.332-.021v1.476H60.968v4.832A1.349,1.349,0,0,1,59.55,43.3H56.793l-0.56-1.657q2,0.182,2.518.162a0.788,0.788,0,0,0,.509-0.182,0.7,0.7,0,0,0,.17-0.526V36.856H51.8L51.777,35.4H59.43l0.02-3.093H53.456l-0.02-1.476H59.43V28.023Zm22.1-2.729,1.519,0.02q0,4.408.5,10.29h2.038a11.886,11.886,0,0,0-1.418-1.072l0.759-.667-0.959.183-0.559-1.213a15.538,15.538,0,0,0,2.157-2.709l-1.678.4-0.7-1.152q0.639-.869,1.359-2.052a15.576,15.576,0,0,0,1.079-2.052L86.9,26.122a16.591,16.591,0,0,1-1.759,2.689l1.279-.162q0.139-.2.859-1.435L88.461,27.9a19.694,19.694,0,0,1-3.037,4.467l1.359-.2-0.36-.808,1.119-.526a11.167,11.167,0,0,1,1.239,3.275l-1.3.486a5.177,5.177,0,0,0-.3-1.112l-1.758.243q0.24,0.161.779,0.566A12.2,12.2,0,0,1,87.363,35.3l-0.24.3H88.6v1.414H83.786a11.17,11.17,0,0,0,.739,2.143A20.014,20.014,0,0,0,86.943,37.2l1,0.97a26.486,26.486,0,0,1-2.618,2.163,5.569,5.569,0,0,0,1.238.99,0.608,0.608,0,0,0,.48.071,0.418,0.418,0,0,0,.26-0.333L87.722,38.9,89.18,39.5a14.492,14.492,0,0,1-.759,2.567,1.524,1.524,0,0,1-1.079.95,2.189,2.189,0,0,1-1.5-.364,8.867,8.867,0,0,1-1.819-1.5,16.931,16.931,0,0,1-2.187.99,17.434,17.434,0,0,1-2.547.727l-0.74-1.374a13.015,13.015,0,0,0,4.656-1.516,10.072,10.072,0,0,1-.919-2.972H79.61l-0.12.768a10.738,10.738,0,0,1,2.737,1.739L81.409,40.7a8.315,8.315,0,0,0-2.258-1.5,8.162,8.162,0,0,1-2.7,3.74l-1.1-1.153a7.071,7.071,0,0,0,1.219-1.131,6.021,6.021,0,0,0,1.019-1.668,7.365,7.365,0,0,0,.519-1.971H75.854V35.6h2.318V34.451H79.65V35.6h2.418l-0.1-1.153-1.239.384L80.37,33.743l-2.937.445-0.6-1.092a18.3,18.3,0,0,0,2.178-2.931l-1.659.385-0.5-1.032V30.59H75.215v1.658l0.38-.364a11.968,11.968,0,0,1,1.878,2.789l-1.079.85a15.59,15.59,0,0,0-1.178-2.062V43.3h-1.5V35.259a22.965,22.965,0,0,1-1.639,3.275L70.7,37.786a19.1,19.1,0,0,0,2.957-7.2h-2.2V29.175l2.258,0.02v-3.9h1.5v3.9h1.678a17.978,17.978,0,0,0,2.118-3.8l1.3,0.748a18.082,18.082,0,0,1-1.618,2.749l1.119-.2q0.42-.787.679-1.414l1.119,0.606Zm0.1,2.83a20.353,20.353,0,0,1-2.957,4.508l1.338-.182-0.4-.728,1.219-.546a14.8,14.8,0,0,1,.579,1.375q0.3,0.808.46,1.395Q81.628,30.591,81.628,28.124Zm18.881,8.126q-0.16-.262-0.57-0.819a12.046,12.046,0,0,0-.978-1.152q-0.569-.6-0.89-0.879l1.119-1.132a16.543,16.543,0,0,1,2.737,2.588Zm24.3-10.835a14.525,14.525,0,0,1-.3,3.5h3.816v1.476h-0.959a21.672,21.672,0,0,1-1.738,7.884,9.94,9.94,0,0,0,1.349,2.133,10.374,10.374,0,0,0,1.927,1.829l-1.039,1.111a11.064,11.064,0,0,1-3.037-3.578A14.76,14.76,0,0,1,123.6,41.6a13.254,13.254,0,0,1-1.668,1.708l-1-1.03a9.329,9.329,0,0,0,1.529-1.485,15.9,15.9,0,0,0,1.628-2.517,25.463,25.463,0,0,1-1.26-4.65q-0.1.142-.349,0.536a5.551,5.551,0,0,1-.37.536l-0.8-.546v1.941h-4.715l0.859,0.384-0.3.546,5.375,0.021v1.414l-2.418-.02a5.491,5.491,0,0,1-1.518,2q0.639,0.284,2.237,1.153l-0.839,1.233-0.539-.314q-0.4-.233-1.159-0.626t-0.959-.5a13.4,13.4,0,0,1-5.774,1.941l-0.619-1.395a13.347,13.347,0,0,0,4.635-1.112,11.39,11.39,0,0,0-2.937-.505q0.779-.767,1.169-1.172a4.606,4.606,0,0,0,.569-0.688h-3.057l0.02-1.414,4.036-.021,0.6-.93h-3.457V32.794h3.6V32.106l-3.616.021V29.883h-1.419l-0.019-1.375H112.5V26.487h3.616V25.152l1.5-.02,0.02,1.354h3.616l0.02,2.021h1.2v1.375h-1.2l-0.02,2.243-3.636-.021,0.02,0.688h3.676v0.424a9.448,9.448,0,0,0,1.619-3.547,21.539,21.539,0,0,0,.519-4.579Zm-10.85,2.344-0.019.748h2.177V27.781Zm-0.019,2.123,0.019,0.93,2.158,0.02v-0.95h-2.177Zm2.177,4.952,0.021-.808-2.158.021v0.788h2.137Zm1.1,5.013a4.936,4.936,0,0,0,1.258-1.395l-2.3-.02-0.78.93Zm2.616-9.965h-2.2l-0.02.97,2.217-.021v-0.95Zm0.04,4.164h-2.257l0.02,0.788h2.237V34.047Zm-2.237-6.287v0.748h2.2V27.76h-2.2Zm6.593,2.608c-0.027.081-.089,0.267-0.19,0.556s-0.17.509-.21,0.657q0.081,0.385.24,1.395t0.311,1.668q0.148,0.657.279,1.092c0.086,0.289.162,0.529,0.23,0.718a26.185,26.185,0,0,0,.719-2.658,19.193,19.193,0,0,0,.36-3.427h-1.739Zm10.609,11.28a1.53,1.53,0,0,1-.25.889,1.71,1.71,0,0,1-.829.586,2.474,2.474,0,0,1-.659.152c-0.227.02-.484,0.03-0.769,0.03h-0.61l-0.639-1.455q0.879,0.061,1.718.06a0.47,0.47,0,0,0,.379-0.162,0.591,0.591,0,0,0,.141-0.4v-4.77l-1.838.788-0.919-1.172,2.736-1.212V30.671h-2.057l-0.021-1.455h2.1l-0.021-3.942h1.5l0.02,3.921h1.638v1.476h-1.618V34.31l1.658-.748v1.557l-1.678.748Zm11.528-9.339v1.213h-4.236a1.4,1.4,0,0,1-.788-0.263,1.321,1.321,0,0,1-.53-0.648,2.645,2.645,0,0,1-.12-0.747l-2.018.262-0.02-1.354,1.958-.162,0.02-.869h-2.3l-0.019,6.267a11.8,11.8,0,0,1-2.3,7.338l-1.3-.93a8.206,8.206,0,0,0,1.559-2.89,18,18,0,0,0,.539-5.094V28.265h3.8l0.02-3.032h1.5v1.092l4.576,0.021v1.212l-4.576.021v0.687h5.994a8.049,8.049,0,0,1-.169,1q-0.13.576-.689,2.255L145.9,31.2c0.013-.054.043-0.165,0.09-0.334s0.117-.387.209-0.657,0.147-.43.16-0.485h-4.215v0.727l3.336-.324V31.4l-3.336.343a0.451,0.451,0,0,0,.519.546Zm1.359,9.683a4.594,4.594,0,0,1-2.4-3.315l-0.339.2a7.877,7.877,0,0,1,.24,2.76,1.7,1.7,0,0,1-.82,1.283,2.469,2.469,0,0,1-.779.253,5.44,5.44,0,0,1-1.139.031c-0.466-.028-0.719-0.04-0.759-0.04l-0.5-1.415q0.32,0.021,1.169.173a2.409,2.409,0,0,0,1.288-.031,0.7,0.7,0,0,0,.25-0.364,3.868,3.868,0,0,0-.03-1.395,16.6,16.6,0,0,1-2.338,1.294,15.911,15.911,0,0,1-2.717.869l-0.879-1.111a18.747,18.747,0,0,0,2.937-.8,10.164,10.164,0,0,0,2.638-1.526l-0.24-.505a13.111,13.111,0,0,1-2.258,1.132,17.092,17.092,0,0,1-2.1.627l-0.879-1.132a18.9,18.9,0,0,0,2.6-.708,8.318,8.318,0,0,0,1.958-.991c-0.013-.013-0.06-0.07-0.14-0.172a1.019,1.019,0,0,0-.179-0.191,17.077,17.077,0,0,1-3.138.808l-0.8-1.213a12.677,12.677,0,0,0,4.316-1.152l-3.856-.04V34.007H147.7l-0.02,1.314-2.657.02c-0.04.04-.134,0.118-0.28,0.233s-0.559.367-1.238,0.758a6.557,6.557,0,0,1,.938,1.213,4.711,4.711,0,0,0,1.14-.708,9.161,9.161,0,0,0,1.1-1.051L147.7,36.8c-0.107.134-.229,0.279-0.369,0.434a10.187,10.187,0,0,1-.829.758,4.185,4.185,0,0,0,2.2,2.992Zm6.534-.081a15.279,15.279,0,0,0,5.715-2.87,15.415,15.415,0,0,1-2.139-2.739,18.468,18.468,0,0,1-1.538-3.245,20.064,20.064,0,0,1-1.139,6.327,15.674,15.674,0,0,1-2.537,3.942q-0.321-.163-0.949-0.546t-0.67-.4a9.965,9.965,0,0,0,3.077-5.054q0.14-.626.29-1.678t0.269-3.315q0.141-2.567.08-4.367h-2.677V26.426h12.728V27.76q-0.859,1.315-2.6,3.618h3.956a10.736,10.736,0,0,1-1.259,4.2,17.071,17.071,0,0,1-2.537,3.4,16.852,16.852,0,0,0,5.914,2.83L167.3,43.264a18.1,18.1,0,0,1-6.174-3.173,14.8,14.8,0,0,1-5.894,3.173Zm2.158-13.018q0.24,0.85.639,2.021a32.986,32.986,0,0,0,1.4,3.275,12.11,12.11,0,0,0,.889,1.576,18.443,18.443,0,0,0,1.848,2.183,13.794,13.794,0,0,0,1.858-2.4,10.573,10.573,0,0,0,1.239-2.658h-4.256V31.54q1.719-2.184,2.637-3.578h-6.253v0.93Zm16.344,0.87v1.9l-1.5.02-0.019-3.4h7.232V27.557h-6.214V26.1h13.967L186.2,27.557H179.99v0.728h7.153l0.019,3.235-1.518.02V29.762l-5.654.02v4.043h-1.519l0.02-4.063h-5.734Zm7.233,10.855a0.442,0.442,0,0,0,.16.344,0.776,0.776,0,0,0,.519.141h5.055a0.563,0.563,0,0,0,.449-0.232,1.4,1.4,0,0,0,.27-0.516q0.12-.526.3-1.8l1.439,0.485a7.522,7.522,0,0,1-.839,2.841,1.483,1.483,0,0,1-1.239.7h-6.1a1.55,1.55,0,0,1-.959-0.273,1.25,1.25,0,0,1-.469-0.677,2.946,2.946,0,0,1-.11-0.769l0.02-.869-5.934.02V34.188l13.387,0.02v5.8l-5.954-.02v0.627Zm-2.118-8.935h-4.656V30.348h4.656v1.334Zm0.019,0.586-0.019,1.315h-4.635l-0.021-1.315h4.675Zm-3.836,3.416v0.708h4.436l-0.02-.727Zm4.416,2.851,0.02-.829h-4.436v0.829h4.416Zm5.954-2.143,0.02-.748-4.455.041v0.708h4.435Zm0.02,1.335-4.455-.021v0.829h4.435Zm-3.876-7.378h4.736v1.334l-4.716.021Zm4.715,1.92,0.021,1.315h-4.716V32.268h4.695Zm12.787,9.38a0.7,0.7,0,0,0,.59-0.272,1.085,1.085,0,0,0,.209-0.678V34.775h-7.652v-1.5h7.652l0.02-2.021a23,23,0,0,0,2.018-1.516,16.089,16.089,0,0,0,2.1-2.062h-9.331v-1.5l11.509,0.02v1.132a20.3,20.3,0,0,1-2.247,2.567,18.575,18.575,0,0,1-2.549,2.1v1.273h7.273v1.5h-7.273l-0.019,6.732a1.4,1.4,0,0,1-.29.839,1.729,1.729,0,0,1-.629.556,2.3,2.3,0,0,1-.98.2q-0.718.04-2.2,0l-1.138-1.456h2.937Zm13.367,1.637V29.519h2.717V27.437h-3.816V25.961h10.589v1.476h-2.957v2.082h2.6V43.285h-1.578V41.809h-6.015v1.476h-1.538Zm6.373-7.156a1.608,1.608,0,0,1-.909-0.515,1.489,1.489,0,0,1-.449-1.082V31.056h-0.76a16.665,16.665,0,0,1-.389,3.092,6.9,6.9,0,0,1-.679,1.709A12.034,12.034,0,0,1,213.8,37.1l-0.839-.484v0.849h6.034V36.129h-1.18Zm-4.854-5.073v4.608a7.238,7.238,0,0,0,.818-1.678,10.692,10.692,0,0,0,.38-2.93h-1.2Zm0.019,7.883v1.395h6.074V38.939h-6.074Zm3.477-9.36V27.437h-0.779v2.142h0.779Zm2.538,1.477h-1.079V34.41a0.96,0.96,0,0,0,.1.162,0.483,0.483,0,0,0,.191.141,0.769,0.769,0,0,0,.279.071,2.51,2.51,0,0,0,.32,0c0.113-.007.176-0.01,0.19-0.01V31.056Zm9.13,7.338q-0.079.788-.539,2.87a1.69,1.69,0,0,1-.44.8,1.441,1.441,0,0,1-.839.475h-2.917a1.479,1.479,0,0,1-.719-0.212,1.691,1.691,0,0,1-.639-0.667,1.735,1.735,0,0,1-.261-0.859V32.207h3.7v-4.77h-4.116V25.961h5.614v8.813h-1.5V33.683h-2.118v6.974q0,0.484.76,0.484h1.657a0.589,0.589,0,0,0,.36-0.515,10.885,10.885,0,0,0,.31-1.547q0.15-1.03.17-1.192Zm1.8-3.72a20.974,20.974,0,0,0,4.456-9.581l1.438,0.3a24.945,24.945,0,0,1-1.239,4.589V43.264l-1.539.021V32.875q-0.539.869-1.817,2.729Zm5.394,1.436,0.021-1.537h5.554l0.02-4-2.7-.02a19.086,19.086,0,0,1-1.739,3.254l-1.4-.708a12.788,12.788,0,0,0,1.709-3.063,14.935,14.935,0,0,0,.849-3.527l1.379,0.444a9.722,9.722,0,0,1-.3,2.083l2.178-.021,0.02-4,1.6,0.02v3.983l4.136,0.021V30.57l-4.136-.02v4.022l5.5-.02v1.536l-5.5.021-0.019,7.054h-1.6l0.02-7.054h-5.595ZM53.356,49.172l5.954-.021a8.659,8.659,0,0,0,.26-1.557l1.458,0.324a10.449,10.449,0,0,1-.18,1.254H67v1.475H60.529l-0.3.97h5.455L65.7,53.072H59.609l-0.6,1.153h9.311l0.02,1.455H64.325a9.563,9.563,0,0,0,5,3.053L68.5,60.107a9.945,9.945,0,0,1-1.478-.566,10.879,10.879,0,0,1-1.8-1.032l-0.019,7.3-1.619-.021V64.574H56.892v1.294l-1.618-.02,0.02-7.642a12.764,12.764,0,0,1-1.569,1.011,11.745,11.745,0,0,1-1.688.789L51,58.773q0.878-.385,1.918-0.96a16.98,16.98,0,0,0,1.808-1.142,7.685,7.685,0,0,0,1.149-.991H52.057V54.2h5.095a7,7,0,0,0,.76-1.132H54.734l-0.019-1.455h3.856a8.528,8.528,0,0,0,.419-0.97l-5.635-.021V49.172Zm10.09,7.883a7.451,7.451,0,0,1-1.079-1.375l-4.376.021a15.415,15.415,0,0,1-1.219,1.354h6.674Zm0.12,2.93V58.51l-6.674.021v1.455h6.674Zm-6.674,1.436V63.1h6.674l0.02-1.677H56.892ZM85.724,49.414V65.079l-1.6-.02-0.02-1.921H76.294V65.16l-1.579-.02,0.02-15.726H85.724Zm-9.41,6,7.813-.02V50.91H76.294Zm7.832,1.476H76.294l0.019,4.751h7.813Zm11.807-2.567A7.67,7.67,0,0,1,97.242,55.9a4.064,4.064,0,0,1,.57,1.566A4.9,4.9,0,0,1,97.771,59a2.645,2.645,0,0,1-.62,1.213,2.37,2.37,0,0,1-1.079.768,3.749,3.749,0,0,1-1.938.06l-0.36-1.677q0.958,0.2,1.169.232a1.494,1.494,0,0,0,.39.01,1.087,1.087,0,0,0,.319-0.081,1.059,1.059,0,0,0,.22-0.12,1.328,1.328,0,0,0,.41-0.638,2.092,2.092,0,0,0,.011-1.1,5.925,5.925,0,0,0-2.038-3.073q1.358-3.193,1.758-4.507l-2.5-.021V65.828l-1.479.04-0.019-17.3h5.614v1.5ZM107.7,65.767a7.918,7.918,0,0,1-2.957-2.1,9.834,9.834,0,0,1-2-3.093,11.627,11.627,0,0,1-.72-3.233l-2.078.02-0.02,6.085q0.439-.224,1.669-0.708t1.408-.567v1.537l-4.276,1.9q-0.039-.021-0.509-0.394t-0.749-.617a2.181,2.181,0,0,0,.679-0.526,1.313,1.313,0,0,0,.28-0.889V48.626h8.451L106.9,57.3l-3.377.02a15.48,15.48,0,0,0,.29,1.618,7.133,7.133,0,0,0,.49,1.293l2.9-2.587,1.139,1.051q-0.321.3-.989,0.9t-2.408,1.89a6.2,6.2,0,0,0,1.529,1.749,8.352,8.352,0,0,0,2.148,1.263Zm-7.753-13.6h5.435V50.082H99.949v2.082Zm5.414,1.455-5.414.021v2.224l5.375-.041Zm18.123,11.158a14.115,14.115,0,0,1-3.846-.222,8.166,8.166,0,0,1-3.387-1.354l-1.4-1.153a10.67,10.67,0,0,1-3.058,3.821,8.742,8.742,0,0,1-.669-0.667c-0.273-.3-0.462-0.5-0.569-0.606a8.938,8.938,0,0,0,1.229-.94,6.957,6.957,0,0,0,1.218-1.456,5.845,5.845,0,0,0,.77-1.748,18.064,18.064,0,0,0,.379-3.578h1.559a22.513,22.513,0,0,1-.34,3.578,9.808,9.808,0,0,0,1.189,1.121,7.842,7.842,0,0,0,1.359.92,4.263,4.263,0,0,0,1.028.4l0.04-7.621h-5.115l0.04-1.456,11.689-.04v1.5l-5.115.02-0.06,2.992,6.234-.02v1.475l-6.174.02v3.4l2.558,0.081h5.733L128,64.776h-4.516Zm-5-17.323a10.9,10.9,0,0,1,1.5,1,14.13,14.13,0,0,1,1.379,1.2l-0.479.324,6.873,0.04-0.021,4.022H126.2l0.039-2.485-12.867-.04v2.4h-1.539l0.021-3.9h7.712a9.333,9.333,0,0,0-2.437-1.779ZM133.036,65.99V56.145a11.332,11.332,0,0,1-1.459,1.921l-1.359-.889a15.416,15.416,0,0,0,2.618-4.134,26.084,26.084,0,0,0,1.759-5.408l1.378,0.526q-0.221.95-.659,2.405t-0.78,2.405V65.99h-1.5Zm6.953-5.822a3.027,3.027,0,0,1-.22.485l6.014,0.021v1.092a14.592,14.592,0,0,1-1.148,1.152,6.349,6.349,0,0,1-1.129.849,10.888,10.888,0,0,0,2.3.546,14.9,14.9,0,0,0,2.877.162l-0.739,1.354a15.482,15.482,0,0,1-5.954-1.254,16.924,16.924,0,0,1-6.294,1.335l-0.639-1.354a15.214,15.214,0,0,0,5.455-.808,6.366,6.366,0,0,1-1.739-1.7,7.8,7.8,0,0,1-1.229,1,6.953,6.953,0,0,1-1.129.556l-0.978-1.011a5.8,5.8,0,0,0,3.456-3.052l0.42,0.222-0.16-.424a3.493,3.493,0,0,1-.06-0.839c0-.437-0.007-0.724-0.02-0.859l1.159-.021v0.97a0.363,0.363,0,0,0,.09.334,0.432,0.432,0,0,0,.349.152h2.558a0.383,0.383,0,0,0,.349-0.172,1.012,1.012,0,0,0,.141-0.425c0.019-.169.036-0.354,0.049-0.556l0.6,0.2,1.279-.627a2.607,2.607,0,0,1,.66.465V57.176h-4.236a4.554,4.554,0,0,1,1.359.93l-1.039.808-0.58-.434q-0.42-.314-0.8-0.556a3.778,3.778,0,0,0-.88-0.4l0.381-.343-3.617.02v1.193h-1.439V55.882h1.5V50.626h3.816l0.3-.566h-5.2V48.767h12.388v1.294l-5.735-.02-0.179.585h3.836v5.256h1.578l-0.02,2.324h-1.119a8.036,8.036,0,0,1,1.119,1.435l-1.039.728a6.241,6.241,0,0,0-1.918-1.9,2.417,2.417,0,0,1-.489,1.213,1.236,1.236,0,0,1-1.01.486h-3.3Zm-1.159-1.8a6.73,6.73,0,0,1-2.378,2.122l-1.018-1.111a7,7,0,0,0,1.129-.606,6.35,6.35,0,0,0,1.268-1.173Zm-0.38-5.883,6.254,0.021V51.92l-6.254-.02v0.585Zm0,1.112v0.586H144.7V53.6H138.45Zm6.254,2.284V55.317H138.45v0.566H144.7Zm-4.315,6.045a2.2,2.2,0,0,0,.419.394c0.173,0.128.387,0.276,0.639,0.444l0.5,0.334c0.146-.053.3-0.114,0.459-0.182a3.8,3.8,0,0,0,.49-0.253q0.251-.151.58-0.384t0.449-.313Zm10.05,1.131a7.94,7.94,0,0,0,4.075-2.527q0.859,0.649,1.079.85a6.674,6.674,0,0,1-1.708,1.738,8.542,8.542,0,0,1-2.267,1.173Zm8.372-5.76-5.275.02V51.193l5.275,0.02V50.526l-7.793-.02,0.02-1.456h7.773V47.413h1.538V49.03l7.812,0.02v1.456h-7.812v0.707l5.335,0.021L165.663,57.3h-0.419a8.244,8.244,0,0,1,2.718,2.486l-1.34.889A8.7,8.7,0,0,0,165.7,59.5q-2.776.121-6.373,0.121,0.1,0.061.53,0.313t0.8,0.516a4.327,4.327,0,0,1,.7.626,6.548,6.548,0,0,1,.519.637q0.19,0.273.25,0.373l-1.3.89a6.723,6.723,0,0,0-2.917-2.567l1.039-.708q-3.915.04-7.212,0.141l-0.82-1.557q1.359,0.021,7.893-.041V57.3Zm0-3.861V52.648h-3.717v0.789h3.717Zm0,1.435h-3.717v0.951h3.717V54.872Zm-1.239,5.619v2.527a0.679,0.679,0,0,0,.17.345,0.729,0.729,0,0,0,.329.242h3.936a1.106,1.106,0,0,0,.27-0.141,0.683,0.683,0,0,0,.24-0.334,4.372,4.372,0,0,0,.18-0.789,5.758,5.758,0,0,1,.169-0.8,13.021,13.021,0,0,1,1.439.607q-0.041.162-.129,0.637c-0.061.317-.117,0.566-0.171,0.748a3.64,3.64,0,0,1-.21.546,1.82,1.82,0,0,1-.349.495,1.575,1.575,0,0,1-.5.344,5.767,5.767,0,0,1-2.038.141h-3.216a1.762,1.762,0,0,1-.919-0.4,2.309,2.309,0,0,1-.64-0.808,4.9,4.9,0,0,1-.159-1.172V60.491h1.6Zm6.293-2.385a5.634,5.634,0,0,1-.978-0.465l0.5-.3-3.037-.041-0.02.869Zm-3.516-4.67h3.756V52.648h-3.756v0.789Zm0.02,2.386h3.716v-0.93h-3.716v0.93Zm7.132,8.894a8.664,8.664,0,0,0-3.636-3.154l1.139-.87a8.453,8.453,0,0,1,2.288,1.375,7.968,7.968,0,0,1,1.469,1.718Zm8.113-16.475c-0.053.27-.127,0.583-0.22,0.94s-0.206.734-.34,1.132-0.289.822-.469,1.273-0.276.7-.29,0.758l0.021,13.585H172.8V55.357a7.6,7.6,0,0,1-.62.909q-0.459.607-1,1.192l-1.239-1.091a15.564,15.564,0,0,0,2.7-3.8,18.866,18.866,0,0,0,1.658-4.75Zm5.535,15.848a13.673,13.673,0,0,1-5.235,1.86l-0.759-1.455a12.1,12.1,0,0,0,5.155-1.415Zm6.173-13.22,0.021,3.821-11.489.02-0.02-3.84h3.336V50.121h-3.6V48.747h12.707v1.374l-4.3-.02V50.89ZM176.633,62.957V55.337h9.89l-0.02,7.621h-9.87Zm0.739-9.521h1.779l0.019-1.213-1.817-.021Zm0.759,3.962H185V56.631h-6.852ZM185,59.46V58.712l-6.873-.02V59.46H185Zm0,2.2V60.795h-6.852v0.869H185Zm-4.355-10.794h1.838V50.1l-1.838.02v0.748Zm0,1.354v1.213h1.858V52.2ZM187.5,65.929a13.679,13.679,0,0,0-5.314-1.557l0.778-1.253a15.459,15.459,0,0,1,5.376,1.476Zm-3.516-13.706v1.213h1.838V52.2Z"/>
</svg>
