<svg id="HING" xmlns="http://www.w3.org/2000/svg" width="728" height="90" viewBox="0 0 728 90">
  <defs>
    <style>
      .cls-1 {
        fill: #4c286c;
        fill-rule: evenodd;
      }
    </style>
  </defs>
  <g id="txt1">
    <path class="cls-1" d="M198.29,52.593a3.8,3.8,0,0,1-.375-1.479c-0.7,1.183-2.1,1.9-4.156,1.9-2.73,0-4.758-1.232-4.758-3.919,0-2.218,1.378-3.6,4.933-3.944l2.354-.221c1.051-.1,1.551-0.3,1.551-0.962s-0.5-.937-1.452-0.937c-1,0-1.477.3-1.552,1.257h-5.208c0.126-3.106,2.053-4.708,6.836-4.708,4.656,0,6.585,1.479,6.585,4.067v6.926a4.446,4.446,0,0,0,.475,2.021H198.29Zm-0.451-4.856V46.9a1.466,1.466,0,0,1-1.126.518l-1.2.148a1.111,1.111,0,0,0-1.227,1.109c0,0.764.526,1.134,1.527,1.134A1.821,1.821,0,0,0,197.839,47.738Zm20.636-7.862V52.593h-5.108V50.745h-0.075a4.244,4.244,0,0,1-4.007,2.144c-2.654,0-4.407-1.454-4.407-5.127V39.875h5.209v7.049a1.426,1.426,0,0,0,1.477,1.676,1.58,1.58,0,0,0,1.7-1.7V39.875h5.209Zm11.446-.123v4.609h-1.2c-2.028,0-3.1.986-3.1,3.352v4.88h-5.208V39.875h5.108v2.514a3.256,3.256,0,0,1,3.48-2.711A5.245,5.245,0,0,1,229.921,39.752Zm21.387-4.708V52.593h-5.057V50.7a4.258,4.258,0,0,1-3.982,2.193c-3.43,0-5.533-2.637-5.533-6.654s2.1-6.655,5.533-6.655a4.29,4.29,0,0,1,3.831,1.947V35.044h5.208Zm-4.982,11.215c0-1.775-.751-2.711-2.179-2.711s-2.2.937-2.2,2.711,0.776,2.686,2.2,2.686S246.326,48.033,246.326,46.259Zm20.735,1.257h-9.414c0.075,1.159.851,1.947,2.479,1.947a2.185,2.185,0,0,0,1.853-.69h4.857c-0.777,2.662-3.38,4.116-6.811,4.116-4.507,0-7.261-2.489-7.261-6.605,0-4.018,2.754-6.7,7.237-6.7,4.231,0,7.161,2.391,7.161,6.507A12.04,12.04,0,0,1,267.061,47.516Zm-9.339-2.662h4.432a1.94,1.94,0,0,0-2.229-1.873A1.966,1.966,0,0,0,257.722,44.854Zm19.533,7.739a3.8,3.8,0,0,1-.376-1.479c-0.7,1.183-2.1,1.9-4.156,1.9-2.729,0-4.757-1.232-4.757-3.919,0-2.218,1.377-3.6,4.933-3.944l2.353-.221c1.052-.1,1.552-0.3,1.552-0.962s-0.5-.937-1.452-0.937c-1,0-1.477.3-1.552,1.257h-5.208c0.125-3.106,2.053-4.708,6.836-4.708,4.656,0,6.585,1.479,6.585,4.067v6.926a4.446,4.446,0,0,0,.475,2.021h-5.233ZM276.8,47.738V46.9a1.468,1.468,0,0,1-1.126.518l-1.2.148a1.111,1.111,0,0,0-1.227,1.109c0,0.764.526,1.134,1.527,1.134A1.821,1.821,0,0,0,276.8,47.738Zm7.165,0.961V35.044h5.209V47.664c0,1.06.4,1.134,1.1,1.134h0.7v3.8a17.165,17.165,0,0,1-2.028.123C285.4,52.717,283.969,51.533,283.969,48.7Zm7.664-.2h4.957c0.1,0.887.626,1.257,1.828,1.257,1.027,0,1.578-.246,1.578-0.739,0-.419-0.276-0.641-1.1-0.764l-2.529-.345c-2.954-.394-4.582-1.725-4.582-4.067,0-2.834,2.3-4.264,6.41-4.264,4.807,0,6.284,2.021,6.435,4.338h-4.682c-0.075-.863-0.551-1.208-1.753-1.208-1.027,0-1.478.221-1.478,0.69,0,0.394.276,0.641,1.1,0.764l2.529,0.345c3.38,0.468,4.682,1.874,4.682,4.018,0,2.908-2.5,4.486-6.785,4.486S291.858,51.435,291.633,48.5Zm34.933-2.267c0,4.017-2.1,6.654-5.533,6.654a4.259,4.259,0,0,1-3.982-2.193v1.9h-5.057V35.044H317.2v6.483a4.29,4.29,0,0,1,3.831-1.947C324.463,39.58,326.566,42.217,326.566,46.235Zm-5.208-.025c0-1.774-.776-2.686-2.2-2.686s-2.178.912-2.178,2.686,0.751,2.711,2.178,2.711S321.358,47.984,321.358,46.209Zm20.261-1.5v7.887H336.41V45.544a1.425,1.425,0,0,0-1.477-1.676,1.58,1.58,0,0,0-1.7,1.7v7.024h-5.209V35.044h5.209v6.63a4.278,4.278,0,0,1,3.98-2.095C339.866,39.58,341.619,41.034,341.619,44.706Zm1.931-4.831h5.208V52.593H343.55V39.875Zm0.051-3.4a2.541,2.541,0,1,1,2.553,2.514A2.54,2.54,0,0,1,343.6,36.474Zm7.086,13.384a3.126,3.126,0,0,1,3.181-3.032,3.045,3.045,0,1,1,0,6.088A3.114,3.114,0,0,1,350.687,49.857Z"/>
  </g>
</svg>
