<svg id="HING" xmlns="http://www.w3.org/2000/svg" width="728" height="90" viewBox="0 0 728 90">
  <defs>
    <style>
      .cls-1 {
        fill: #4c286c;
        fill-rule: evenodd;
      }
    </style>
  </defs>
  <g id="txt1">
    <path class="cls-1" d="M50.046,52.633H44.28a4.367,4.367,0,0,1-.349-1.784L43.856,49.09c-0.075-1.685-.6-2.205-2.271-2.205H39.638v5.748H34V34.992h8.759c5.341,0,6.839,2.428,6.839,5.179a4.1,4.1,0,0,1-2.671,4.212c1.647,0.619,2.346,1.833,2.5,3.865l0.2,2.6A3.648,3.648,0,0,0,50.046,52.633ZM43.831,41.063c0-1.214-.674-1.759-1.947-1.759H39.638v3.518h2.246C43.157,42.822,43.831,42.277,43.831,41.063ZM60.107,52.633a3.84,3.84,0,0,1-.374-1.486c-0.7,1.189-2.1,1.907-4.142,1.907-2.721,0-4.742-1.239-4.742-3.939,0-2.23,1.373-3.617,4.916-3.964l2.346-.223c1.048-.1,1.547-0.3,1.547-0.967s-0.5-.942-1.447-0.942c-1,0-1.473.3-1.548,1.264h-5.19c0.125-3.122,2.046-4.732,6.813-4.732,4.642,0,6.563,1.486,6.563,4.088V50.6a4.5,4.5,0,0,0,.474,2.031H60.107Zm-0.45-4.881V46.91a1.458,1.458,0,0,1-1.122.52l-1.2.149a1.112,1.112,0,0,0-1.223,1.115c0,0.768.525,1.14,1.522,1.14A1.823,1.823,0,0,0,59.657,47.752ZM80.351,44.7v7.928H75.16V45.547a1.428,1.428,0,0,0-1.472-1.684,1.581,1.581,0,0,0-1.7,1.71v7.061H66.8V39.849h5.092v1.858h0.074a4.221,4.221,0,0,1,3.993-2.155C78.6,39.551,80.351,41.013,80.351,44.7Zm16.226-4.856V52.063c0,3.84-2.645,5.946-7.263,5.946-4.318,0-6.938-1.66-7.288-5.129h5.241c0.125,1.041.749,1.511,2,1.511,1.4,0,2.021-.594,2.021-1.908v-2.3a4.539,4.539,0,0,1-4.043,1.982c-3.345,0-5.441-2.5-5.441-6.318,0-3.791,2.1-6.293,5.441-6.293a4.538,4.538,0,0,1,4.142,2.131V39.849h5.192ZM91.36,45.819c0-1.734-.748-2.676-2.171-2.676s-2.2.941-2.2,2.676c0,1.784.773,2.726,2.2,2.726S91.36,47.6,91.36,45.819Zm27.409,0.422c0,4.038-2.1,6.689-5.515,6.689a4.237,4.237,0,0,1-3.969-2.2v1.908h-5.042V34.992h5.192v6.517a4.265,4.265,0,0,1,3.819-1.957C116.672,39.551,118.769,42.2,118.769,46.241Zm-5.192-.025c0-1.784-.773-2.7-2.2-2.7s-2.17.917-2.17,2.7,0.748,2.726,2.17,2.726S113.577,48,113.577,46.216Zm15.378,6.417a3.849,3.849,0,0,1-.375-1.486c-0.7,1.189-2.1,1.907-4.142,1.907-2.721,0-4.742-1.239-4.742-3.939,0-2.23,1.373-3.617,4.917-3.964l2.346-.223c1.048-.1,1.547-0.3,1.547-0.967s-0.5-.942-1.448-0.942c-1,0-1.472.3-1.547,1.264H120.32c0.125-3.122,2.046-4.732,6.813-4.732,4.642,0,6.564,1.486,6.564,4.088V50.6a4.5,4.5,0,0,0,.474,2.031h-5.216Zm-0.449-4.881V46.91a1.462,1.462,0,0,1-1.123.52l-1.2.149a1.111,1.111,0,0,0-1.222,1.115c0,0.768.524,1.14,1.522,1.14A1.824,1.824,0,0,0,128.506,47.752Zm16.624-8.027v4.633h-1.2c-2.023,0-3.095.991-3.095,3.37v4.906h-5.192V39.849h5.092v2.527a3.25,3.25,0,0,1,3.469-2.725A5.185,5.185,0,0,1,145.13,39.725Zm0.777,8.8h4.941c0.1,0.892.624,1.263,1.822,1.263,1.024,0,1.572-.247,1.572-0.743,0-.421-0.275-0.644-1.1-0.768l-2.52-.347c-2.945-.4-4.568-1.734-4.568-4.088,0-2.849,2.3-4.286,6.389-4.286,4.792,0,6.264,2.032,6.415,4.361h-4.667c-0.075-.867-0.549-1.214-1.748-1.214-1.023,0-1.472.223-1.472,0.694,0,0.4.275,0.644,1.1,0.768l2.521,0.347c3.369,0.471,4.666,1.883,4.666,4.039,0,2.923-2.5,4.509-6.763,4.509S146.131,51.469,145.907,48.52Zm28.329-.991h-9.383c0.075,1.165.848,1.957,2.471,1.957a2.17,2.17,0,0,0,1.847-.694h4.841c-0.774,2.676-3.369,4.137-6.789,4.137-4.492,0-7.237-2.5-7.237-6.64,0-4.039,2.745-6.739,7.213-6.739,4.217,0,7.138,2.4,7.138,6.541A12.164,12.164,0,0,1,174.236,47.529Zm-9.308-2.676h4.417a1.939,1.939,0,0,0-2.221-1.883A1.965,1.965,0,0,0,164.928,44.853ZM182,51.147c0,3.568-1.522,6.144-5.59,6.392l-0.45.025V54.937l0.525-.025a1.97,1.97,0,0,0,2.1-2.032h-0.075a2.893,2.893,0,0,1-3.095-2.948,2.96,2.96,0,0,1,3.045-3.048C180.853,46.885,182,48.718,182,51.147Z"/>
  </g>
</svg>
