<svg id="HING" xmlns="http://www.w3.org/2000/svg" width="728" height="90" viewBox="0 0 728 90">
  <defs>
    <style>
      .cls-1 {
        fill: #4c286c;
        fill-rule: evenodd;
      }
    </style>
  </defs>
  <g id="txt1">
    <path class="cls-1" d="M501.992,52.5a4.545,4.545,0,1,1,4.545,4.5A4.264,4.264,0,0,1,501.992,52.5Zm6.268,0c0-1.532-.71-2.172-1.723-2.172s-1.724.639-1.724,2.172,0.711,2.184,1.724,2.184S508.26,54.04,508.26,52.5ZM519.91,48.2V56.79h-2.832l-1.808-3.052c-0.3-.507-0.567-0.966-0.808-1.436,0.036,1.014.048,1.991,0.048,3.088v1.4h-2.652V48.2h2.834l1.771,3.052c0.265,0.459.555,1.037,0.832,1.617-0.037-1.074-.037-2.1-0.037-3.27V48.2h2.652Zm11.857,0V56.79h-2.833l-1.808-3.052c-0.3-.507-0.567-0.966-0.808-1.436,0.036,1.014.048,1.991,0.048,3.088v1.4h-2.652V48.2h2.834l1.771,3.052c0.265,0.459.555,1.037,0.832,1.617-0.037-1.074-.037-2.1-0.037-3.27V48.2h2.653Zm0.777,4.295a4.545,4.545,0,1,1,4.545,4.5A4.263,4.263,0,0,1,532.544,52.5Zm6.268,0c0-1.532-.712-2.172-1.723-2.172s-1.725.639-1.725,2.172,0.712,2.184,1.725,2.184S538.812,54.04,538.812,52.5Zm15.17-4.295-2.266,8.589H548.8l-0.567-2.618c-0.168-.748-0.313-1.5-0.446-2.232-0.144.736-.289,1.484-0.458,2.232l-0.566,2.618h-2.917L541.577,48.2h2.785l0.482,2.545c0.193,1.014.374,2.039,0.554,3.029,0.169-.989.374-2.015,0.568-3.029l0.5-2.545h2.616l0.506,2.545c0.194,1.014.4,2.039,0.567,3.029,0.181-.989.362-2.015,0.554-3.029L551.2,48.2h2.785Z"/>
  </g>
</svg>
