<svg id="HING" xmlns="http://www.w3.org/2000/svg" width="728" height="90" viewBox="0 0 728 90">
  <defs>
    <style>
      .cls-1 {
        fill: #4c286c;
        fill-rule: evenodd;
      }
    </style>
  </defs>
  <g id="txt1">
    <path class="cls-1" d="M472,40.967h2.668a1.045,1.045,0,0,0,1.305.989c0.778,0,1.113-.193,1.113-0.591,0-.373-0.288-0.567-1.209-0.7l-1.029-.145c-1.544-.217-2.645-1.062-2.645-2.7,0-1.352.706-2.811,3.627-2.811,2.225,0,3.59.845,3.746,2.835h-2.5a0.92,0.92,0,0,0-1.149-.82c-0.742,0-1.029.217-1.029,0.555s0.287,0.507.8,0.579l1.029,0.145c2.13,0.3,3.087,1.122,3.087,2.654,0,1.846-1.328,3.04-3.889,3.04C473.313,44,472.081,42.765,472,40.967Zm15.993-2.7c0,1.859-1.232,3.065-3.338,3.065H483.2V43.79H480.5V35.2h4.154C486.758,35.2,487.99,36.407,487.99,38.265Zm-2.776,0a0.792,0.792,0,0,0-.922-0.82H483.2v1.64h1.088A0.791,0.791,0,0,0,485.214,38.265Zm11.218,5.526h-2.764a2.143,2.143,0,0,1-.168-0.868l-0.036-.856a0.905,0.905,0,0,0-1.089-1.074h-0.933v2.8h-2.7V35.2h4.2c2.561,0,3.279,1.182,3.279,2.522a2,2,0,0,1-1.28,2.05,1.879,1.879,0,0,1,1.2,1.882l0.1,1.267A1.809,1.809,0,0,0,496.432,43.79Zm-2.98-5.634a0.789,0.789,0,0,0-.933-0.857h-1.077v1.713h1.077A0.79,0.79,0,0,0,493.452,38.157Zm3.666-2.956h2.706V43.79h-2.706V35.2Zm11.72,0V43.79h-2.813l-1.795-3.052c-0.3-.507-0.563-0.966-0.8-1.436,0.036,1.014.048,1.991,0.048,3.088v1.4h-2.633V35.2h2.812l1.759,3.052c0.265,0.459.551,1.037,0.827,1.617-0.036-1.074-.036-2.1-0.036-3.27V35.2h2.633Zm9.412,3.582V43.79H516.5l-0.191-.916A3.117,3.117,0,0,1,513.7,44c-2.634,0-4.093-1.967-4.093-4.525a4.173,4.173,0,0,1,4.44-4.464c2.31,0,3.913,1.255,4.189,3.161h-2.765a1.337,1.337,0,0,0-1.376-.845c-0.91,0-1.688.531-1.688,2.2,0,1.473.61,2.184,1.7,2.184a1.429,1.429,0,0,0,1.52-1.026h-1.508V38.783h4.129Zm3.322,2.184h2.668a1.045,1.045,0,0,0,1.3.989c0.777,0,1.113-.193,1.113-0.591,0-.373-0.288-0.567-1.209-0.7l-1.029-.145c-1.544-.217-2.646-1.062-2.646-2.7,0-1.352.707-2.811,3.627-2.811,2.226,0,3.59.845,3.746,2.835h-2.5a0.92,0.92,0,0,0-1.149-.82c-0.743,0-1.029.217-1.029,0.555s0.286,0.507.8,0.579L526.3,38.3c2.13,0.3,3.087,1.122,3.087,2.654,0,1.846-1.328,3.04-3.889,3.04C522.888,44,521.655,42.765,521.572,40.967Zm13.839,1.7h-3.063l-0.336,1.122h-2.7l2.885-8.589h3.3l3.051,8.589h-2.8Zm-0.6-1.991L534.226,38.7c-0.119-.422-0.251-0.857-0.359-1.279L533.508,38.7l-0.586,1.978h1.891Zm10.477,0.772V43.79h-6.367V35.2h2.705v6.249h3.662Zm3.426-3.909v0.845h3.962v2.256h-3.962v0.808H553V43.79h-6.99V35.2H553v2.34h-4.285Z"/>
  </g>
</svg>
