<svg id="HING" xmlns="http://www.w3.org/2000/svg" width="728" height="90" viewBox="0 0 728 90">
  <defs>
    <style>
      .cls-1 {
        fill: #4c286c;
        fill-rule: evenodd;
      }
    </style>
  </defs>
  <path id="txt2" class="cls-1" d="M32,36.988h4.02c0.09,1.2.829,1.49,1.964,1.49,1.172,0,1.677-.291,1.677-0.89,0-.564-0.432-0.855-1.82-1.055l-1.55-.218c-2.325-.327-3.983-1.6-3.983-4.071,0-2.036,1.063-4.235,5.46-4.235,3.353,0,5.407,1.273,5.641,4.271H39.643c-0.09-.782-0.505-1.236-1.73-1.236-1.117,0-1.55.327-1.55,0.836s0.433,0.764,1.207.872l1.55,0.219c3.208,0.454,4.65,1.69,4.65,4,0,2.781-2,4.58-5.857,4.58C33.983,41.55,32.127,39.7,32,36.988Zm19.3,4.253a2.854,2.854,0,0,1-.271-1.091,3.213,3.213,0,0,1-2.991,1.4c-1.965,0-3.424-.909-3.424-2.889,0-1.636.991-2.654,3.55-2.908l1.694-.164c0.757-.073,1.117-0.219,1.117-0.709s-0.361-.691-1.045-0.691a0.9,0.9,0,0,0-1.117.927h-3.75c0.091-2.29,1.478-3.471,4.921-3.471,3.352,0,4.74,1.09,4.74,3v5.107a3.349,3.349,0,0,0,.342,1.49H51.3Zm-0.325-3.58V37.044a1.049,1.049,0,0,1-.811.381l-0.865.108a0.809,0.809,0,0,0-.883.818c0,0.564.378,0.836,1.1,0.836A1.327,1.327,0,0,0,50.976,37.662Zm15.352-5.8L62.85,41.242H58.47l-3.479-9.378h4l0.775,2.69c0.361,1.272.649,2.308,0.974,3.617,0.325-1.309.613-2.345,0.973-3.617l0.758-2.69h3.856ZM76.616,37.5H69.84a1.526,1.526,0,0,0,1.784,1.435,1.551,1.551,0,0,0,1.333-.509h3.5c-0.558,1.963-2.433,3.035-4.9,3.035-3.243,0-5.227-1.835-5.227-4.871,0-2.963,1.983-4.943,5.209-4.943,3.046,0,5.155,1.762,5.155,4.8A8.928,8.928,0,0,1,76.616,37.5Zm-6.723-1.964h3.19a1.407,1.407,0,0,0-1.6-1.381A1.427,1.427,0,0,0,69.894,35.534Zm14.883,0.673L83.118,37.77v3.472H81.676V28.3h1.442v7.761l4.308-4.2h1.91L85.8,35.244l3.785,6H87.912ZM98.526,40.06v1.182a5.429,5.429,0,0,1-.794.054,1.337,1.337,0,0,1-1.568-1.344,3.4,3.4,0,0,1-3.027,1.508c-2.019,0-3.28-.982-3.28-2.744,0-1.473.884-2.636,3.443-2.908l1.333-.146c0.938-.108,1.46-0.454,1.46-1.29,0-.981-0.505-1.472-2.091-1.472s-2.253.454-2.343,1.854H90.217c0.109-1.818,1.064-3.108,3.785-3.108,2.577,0,3.5,1.145,3.5,2.726v5.234a0.428,0.428,0,0,0,.5.454h0.523Zm-2.433-2.526V36.425a2.389,2.389,0,0,1-1.226.4l-1.352.164c-1.694.2-2.163,0.782-2.163,1.691,0,0.927.577,1.545,1.857,1.545A2.68,2.68,0,0,0,96.092,37.533Zm8.63-5.8v1.4h-0.361c-1.856,0-3.046.944-3.046,2.762v5.344H99.874V31.863h1.37v1.654a3.243,3.243,0,0,1,2.991-1.8A4.75,4.75,0,0,1,104.722,31.736Zm9.01,5.325h-7.065c0.144,2.109,1.244,3.072,2.866,3.072A2.392,2.392,0,0,0,112,38.388h1.5a3.886,3.886,0,0,1-4,3.072c-2.54,0-4.325-1.872-4.325-4.907,0-2.944,1.712-4.907,4.289-4.907,2.776,0,4.272,2.217,4.272,4.907v0.509ZM106.7,35.753h5.48a2.74,2.74,0,0,0-2.723-2.781C108,32.972,106.937,33.9,106.7,35.753Zm8.576-6.2a0.974,0.974,0,1,1,.974.982A0.985,0.985,0,0,1,115.279,29.555Zm0.253,2.309h1.441v9.378h-1.441V31.863ZM126.8,34.9v6.343h-1.442v-6.2a1.873,1.873,0,0,0-2.127-2.091,2.66,2.66,0,0,0-2.559,2.981v5.307h-1.442V31.863h1.37v1.4a3.418,3.418,0,0,1,2.919-1.618A2.977,2.977,0,0,1,126.8,34.9Zm10.612-3.162v1.4h-0.361c-1.856,0-3.046.944-3.046,2.762v5.344h-1.442V31.863h1.371v1.654a3.243,3.243,0,0,1,2.991-1.8A4.76,4.76,0,0,1,137.407,31.736Zm8.937,8.324v1.182a5.42,5.42,0,0,1-.793.054,1.337,1.337,0,0,1-1.568-1.344,3.4,3.4,0,0,1-3.028,1.508c-2.018,0-3.28-.982-3.28-2.744,0-1.473.883-2.636,3.442-2.908l1.334-.146c0.937-.108,1.46-0.454,1.46-1.29,0-.981-0.5-1.472-2.091-1.472s-2.253.454-2.343,1.854h-1.442c0.109-1.818,1.064-3.108,3.785-3.108,2.577,0,3.5,1.145,3.5,2.726v5.234a0.428,0.428,0,0,0,.5.454h0.523Zm-2.433-2.526V36.425a2.388,2.388,0,0,1-1.226.4l-1.352.164c-1.694.2-2.163,0.782-2.163,1.691,0,0.927.577,1.545,1.857,1.545A2.68,2.68,0,0,0,143.911,37.533ZM155.263,34.9v6.343h-1.442v-6.2a1.873,1.873,0,0,0-2.127-2.091,2.661,2.661,0,0,0-2.559,2.981v5.307h-1.442V31.863h1.37v1.4a3.421,3.421,0,0,1,2.92-1.618A2.977,2.977,0,0,1,155.263,34.9Zm10.685-3.035v9.015c0,2.436-1.388,4.144-4.326,4.144-2.379,0-3.766-1.2-3.965-3.017H159.1c0.18,1.182,1.064,1.781,2.523,1.781a2.584,2.584,0,0,0,2.884-2.908V39.969a3.746,3.746,0,0,1-3.118,1.49c-2.613,0-4.326-1.908-4.326-4.907s1.713-4.907,4.326-4.907a3.743,3.743,0,0,1,3.19,1.581V31.863h1.37Zm-1.388,4.689c0-2.272-1.19-3.6-2.992-3.6s-2.992,1.4-2.992,3.6,1.19,3.6,2.992,3.6S164.56,38.825,164.56,36.553Zm11.748,0.509h-7.065c0.144,2.109,1.243,3.072,2.865,3.072a2.391,2.391,0,0,0,2.469-1.745h1.5a3.886,3.886,0,0,1-4,3.072c-2.541,0-4.326-1.872-4.326-4.907,0-2.944,1.713-4.907,4.29-4.907,2.776,0,4.272,2.217,4.272,4.907v0.509Zm-7.03-1.308h5.48a2.738,2.738,0,0,0-2.722-2.781C170.576,32.972,169.513,33.9,169.278,35.753Zm16.94,1.308h-7.065c0.144,2.109,1.244,3.072,2.865,3.072a2.391,2.391,0,0,0,2.469-1.745h1.5a3.886,3.886,0,0,1-4,3.072c-2.541,0-4.325-1.872-4.325-4.907,0-2.944,1.712-4.907,4.289-4.907,2.776,0,4.272,2.217,4.272,4.907v0.509Zm-7.03-1.308h5.48a2.738,2.738,0,0,0-2.722-2.781C180.487,32.972,179.423,33.9,179.188,35.753Zm16.4-.855v6.343h-1.441v-6.2a1.873,1.873,0,0,0-2.128-2.091,2.661,2.661,0,0,0-2.559,2.981v5.307h-1.442V31.863h1.37v1.4a3.421,3.421,0,0,1,2.92-1.618A2.977,2.977,0,0,1,195.586,34.9Zm14.2-6.6V41.242h-1.369V39.788a3.648,3.648,0,0,1-3.191,1.672c-2.613,0-4.326-1.908-4.326-4.907s1.713-4.907,4.326-4.907a3.643,3.643,0,0,1,3.118,1.562V28.3h1.442ZM208.4,36.553c0-2.272-1.19-3.6-2.991-3.6s-2.993,1.4-2.993,3.672,1.19,3.525,2.993,3.525S208.4,38.825,208.4,36.553Zm11.748,0.509H213.08c0.144,2.109,1.244,3.072,2.865,3.072a2.393,2.393,0,0,0,2.47-1.745h1.5a3.885,3.885,0,0,1-4,3.072c-2.54,0-4.325-1.872-4.325-4.907,0-2.944,1.712-4.907,4.289-4.907,2.776,0,4.272,2.217,4.272,4.907v0.509Zm-7.029-1.308H218.6a2.738,2.738,0,0,0-2.722-2.781C214.414,32.972,213.35,33.9,213.116,35.753Zm16.868,4.307v1.182a5.434,5.434,0,0,1-.794.054,1.337,1.337,0,0,1-1.568-1.344A3.4,3.4,0,0,1,224.6,41.46c-2.019,0-3.281-.982-3.281-2.744,0-1.473.884-2.636,3.443-2.908l1.333-.146c0.938-.108,1.461-0.454,1.461-1.29,0-.981-0.506-1.472-2.091-1.472s-2.254.454-2.343,1.854h-1.442c0.108-1.818,1.063-3.108,3.785-3.108,2.576,0,3.5,1.145,3.5,2.726v5.234a0.428,0.428,0,0,0,.505.454h0.523Zm-2.433-2.526V36.425a2.394,2.394,0,0,1-1.226.4l-1.352.164c-1.694.2-2.163,0.782-2.163,1.691,0,0.927.576,1.545,1.857,1.545A2.68,2.68,0,0,0,227.551,37.533Zm3.691,1.818V28.3h1.442V39.224a0.724,0.724,0,0,0,.883.8h0.685v1.218a9.043,9.043,0,0,1-.919.054C232.036,41.3,231.242,40.787,231.242,39.351Zm3.693-1.09h1.46c0.162,1.418.847,1.945,2.487,1.945,1.568,0,2.235-.527,2.235-1.454,0-.836-0.5-1.218-2.127-1.527l-0.864-.164c-2.02-.381-2.9-1.308-2.9-2.762,0-1.6,1.262-2.654,3.388-2.654,2.488,0,3.749,1.108,3.785,3.108h-1.441c-0.073-1.454-.919-1.854-2.344-1.854-1.243,0-1.946.509-1.946,1.381,0,0.891.685,1.218,1.875,1.454l0.829,0.164c2.288,0.454,3.208,1.236,3.208,2.763,0,1.78-1.406,2.8-3.695,2.8C236.521,41.46,235.08,40.46,234.935,38.261Zm15.785-2.053-1.659,1.562v3.472h-1.442V28.3h1.442v7.761l4.308-4.2h1.91l-3.533,3.38,3.785,6h-1.675Zm13.551,0.854h-7.065c0.144,2.109,1.243,3.072,2.865,3.072a2.391,2.391,0,0,0,2.469-1.745h1.5a3.886,3.886,0,0,1-4,3.072c-2.541,0-4.326-1.872-4.326-4.907,0-2.944,1.713-4.907,4.29-4.907,2.776,0,4.272,2.217,4.272,4.907v0.509Zm-7.029-1.308h5.478A2.737,2.737,0,0,0,260,32.972C258.539,32.972,257.476,33.9,257.242,35.753Zm11.674,2.508h1.46c0.162,1.418.847,1.945,2.487,1.945,1.568,0,2.235-.527,2.235-1.454,0-.836-0.5-1.218-2.127-1.527l-0.865-.164c-2.019-.381-2.9-1.308-2.9-2.762,0-1.6,1.262-2.654,3.388-2.654,2.488,0,3.749,1.108,3.785,3.108h-1.442c-0.072-1.454-.918-1.854-2.343-1.854-1.243,0-1.946.509-1.946,1.381,0,0.891.685,1.218,1.875,1.454L273.35,35.9c2.288,0.454,3.208,1.236,3.208,2.763,0,1.78-1.407,2.8-3.695,2.8C270.5,41.46,269.06,40.46,268.916,38.261Zm17.571,1.8v1.182a5.434,5.434,0,0,1-.794.054,1.338,1.338,0,0,1-1.568-1.344A3.4,3.4,0,0,1,281.1,41.46c-2.019,0-3.281-.982-3.281-2.744,0-1.473.884-2.636,3.443-2.908l1.333-.146c0.938-.108,1.461-0.454,1.461-1.29,0-.981-0.506-1.472-2.091-1.472s-2.253.454-2.343,1.854h-1.442c0.108-1.818,1.063-3.108,3.785-3.108,2.577,0,3.5,1.145,3.5,2.726v5.234a0.428,0.428,0,0,0,.5.454h0.523Zm-2.433-2.526V36.425a2.388,2.388,0,0,1-1.226.4l-1.352.164c-1.694.2-2.163,0.782-2.163,1.691,0,0.927.577,1.545,1.857,1.545A2.68,2.68,0,0,0,284.054,37.533Zm12,2.526v1.182a5.434,5.434,0,0,1-.794.054,1.338,1.338,0,0,1-1.568-1.344,3.4,3.4,0,0,1-3.027,1.508c-2.019,0-3.281-.982-3.281-2.744,0-1.473.884-2.636,3.443-2.908l1.333-.146c0.938-.108,1.46-0.454,1.46-1.29,0-.981-0.5-1.472-2.09-1.472s-2.253.454-2.343,1.854h-1.442c0.107-1.818,1.064-3.108,3.785-3.108,2.577,0,3.5,1.145,3.5,2.726v5.234a0.428,0.428,0,0,0,.5.454h0.523Zm-2.434-2.526V36.425a2.38,2.38,0,0,1-1.225.4l-1.352.164c-1.694.2-2.163,0.782-2.163,1.691,0,0.927.577,1.545,1.856,1.545A2.68,2.68,0,0,0,293.62,37.533Zm5.585-4.4v6.088c0,0.491.234,0.8,1.064,0.8h0.847v1.218c-0.4.037-.739,0.054-1.028,0.054-1.442,0-2.324-.509-2.324-1.945V33.136h-1.532V31.863h1.532V29.21h1.441v2.654h1.911v1.273h-1.911Zm11.1,1.762v6.343h-1.441v-6.2a1.873,1.873,0,0,0-2.128-2.091,2.661,2.661,0,0,0-2.559,2.981v5.307h-1.442V28.3h1.442v4.853a3.42,3.42,0,0,1,2.848-1.508A2.977,2.977,0,0,1,310.305,34.9Zm5.313,1.654c0-3,1.893-4.907,4.507-4.907s4.5,1.908,4.5,4.907-1.892,4.907-4.5,4.907S315.618,39.551,315.618,36.553Zm7.5,0c0-2.272-1.19-3.6-2.991-3.6s-2.993,1.327-2.993,3.6,1.19,3.6,2.993,3.6S323.116,38.825,323.116,36.553ZM334,34.9v6.343h-1.442v-6.2a1.873,1.873,0,0,0-2.127-2.091,2.66,2.66,0,0,0-2.559,2.981v5.307h-1.442V31.863H327.8v1.4a3.421,3.421,0,0,1,2.92-1.618A2.977,2.977,0,0,1,334,34.9ZM41.752,56.74c0,3-1.713,4.907-4.326,4.907a3.643,3.643,0,0,1-3.118-1.562v4.907H32.866V52.051h1.37V53.5a3.646,3.646,0,0,1,3.19-1.672C40.039,51.833,41.752,53.741,41.752,56.74Zm-1.514-.073c0-2.271-1.19-3.526-2.991-3.526s-2.992,1.327-2.992,3.6,1.19,3.6,2.992,3.6S40.237,58.939,40.237,56.667ZM51.12,55.086v6.343H49.678v-6.2a1.873,1.873,0,0,0-2.127-2.091,2.661,2.661,0,0,0-2.559,2.981v5.307H43.55V48.489h1.442v4.852a3.419,3.419,0,0,1,2.847-1.508A2.977,2.977,0,0,1,51.12,55.086Zm1.8,1.654c0-3,1.893-4.907,4.506-4.907s4.505,1.908,4.505,4.907-1.893,4.907-4.505,4.907S52.92,59.738,52.92,56.74Zm7.5,0c0-2.272-1.19-3.6-2.991-3.6s-2.992,1.327-2.992,3.6,1.19,3.6,2.992,3.6S60.418,59.012,60.418,56.74ZM71.3,55.086v6.343H69.859v-6.2a1.873,1.873,0,0,0-2.127-2.091,2.661,2.661,0,0,0-2.559,2.981v5.307H63.73V52.051H65.1v1.4a3.417,3.417,0,0,1,2.919-1.618A2.977,2.977,0,0,1,71.3,55.086Zm10.36,2.163H74.6c0.144,2.108,1.243,3.072,2.865,3.072a2.39,2.39,0,0,0,2.469-1.745h1.5a3.884,3.884,0,0,1-4,3.072c-2.541,0-4.326-1.872-4.326-4.907,0-2.944,1.713-4.907,4.289-4.907,2.776,0,4.272,2.217,4.272,4.907v0.509ZM74.632,55.94H80.11a2.738,2.738,0,0,0-2.721-2.781C75.929,53.16,74.865,54.086,74.632,55.94ZM82.7,58.448h1.46c0.162,1.417.847,1.945,2.488,1.945,1.568,0,2.235-.527,2.235-1.454,0-.836-0.5-1.217-2.126-1.527l-0.866-.164c-2.018-.382-2.9-1.308-2.9-2.762,0-1.6,1.262-2.654,3.388-2.654,2.488,0,3.749,1.109,3.785,3.108H88.723c-0.072-1.454-.919-1.854-2.343-1.854-1.243,0-1.946.509-1.946,1.381,0,0.891.685,1.218,1.875,1.454l0.829,0.164c2.288,0.454,3.208,1.236,3.208,2.763,0,1.781-1.407,2.8-3.7,2.8C84.29,61.647,82.848,60.647,82.7,58.448Zm11.01,2.708a2.461,2.461,0,0,1-2.019,2.763l-0.181.037V62.992l0.127-.036a1.345,1.345,0,0,0,.991-1.418H92.524a0.943,0.943,0,0,1-1.01-.945,0.971,0.971,0,0,1,1.01-.982C93.263,59.611,93.713,60.156,93.713,61.156Zm13.839-12.667v12.94h-1.369V59.975a3.648,3.648,0,0,1-3.191,1.672c-2.613,0-4.326-1.908-4.326-4.907s1.713-4.907,4.326-4.907A3.644,3.644,0,0,1,106.11,53.4V48.489h1.442Zm-1.388,8.251c0-2.272-1.19-3.6-2.991-3.6s-2.993,1.4-2.993,3.672,1.19,3.526,2.993,3.526S106.164,59.012,106.164,56.74Zm11.766,3.508v1.181a5.4,5.4,0,0,1-.793.054,1.337,1.337,0,0,1-1.568-1.345,3.4,3.4,0,0,1-3.028,1.508c-2.018,0-3.28-.981-3.28-2.744,0-1.472.883-2.635,3.443-2.908l1.333-.145c0.937-.11,1.459-0.455,1.459-1.29,0-.982-0.5-1.473-2.09-1.473s-2.253.454-2.343,1.854h-1.442c0.108-1.818,1.064-3.108,3.785-3.108,2.577,0,3.5,1.145,3.5,2.727v5.234a0.428,0.428,0,0,0,.5.454h0.522ZM115.5,57.722V56.613a2.386,2.386,0,0,1-1.224.4l-1.352.164c-1.694.2-2.164,0.781-2.164,1.69,0,0.928.577,1.546,1.857,1.546A2.68,2.68,0,0,0,115.5,57.722Zm5.586-4.4v6.088c0,0.491.234,0.8,1.064,0.8h0.846v1.217q-0.6.055-1.027,0.054c-1.442,0-2.325-.509-2.325-1.945V53.323h-1.532V52.051h1.532V49.4h1.442v2.653h1.91v1.273h-1.91Zm11.569,6.925v1.181a5.42,5.42,0,0,1-.794.054,1.338,1.338,0,0,1-1.568-1.345,3.4,3.4,0,0,1-3.027,1.508c-2.019,0-3.281-.981-3.281-2.744,0-1.472.884-2.635,3.443-2.908l1.334-.145c0.937-.11,1.46-0.455,1.46-1.29,0-.982-0.5-1.473-2.091-1.473s-2.253.454-2.343,1.854h-1.442c0.109-1.818,1.064-3.108,3.785-3.108,2.577,0,3.5,1.145,3.5,2.727v5.234a0.427,0.427,0,0,0,.5.454h0.523Zm-2.433-2.526V56.613a2.4,2.4,0,0,1-1.226.4l-1.352.164c-1.694.2-2.163,0.781-2.163,1.69,0,0.928.577,1.546,1.857,1.546A2.681,2.681,0,0,0,130.218,57.722Zm15.424,2.526v1.181a5.406,5.406,0,0,1-.793.054,1.337,1.337,0,0,1-1.568-1.345,3.4,3.4,0,0,1-3.028,1.508c-2.018,0-3.28-.981-3.28-2.744,0-1.472.883-2.635,3.443-2.908l1.333-.145c0.937-.11,1.46-0.455,1.46-1.29,0-.982-0.5-1.473-2.091-1.473s-2.253.454-2.343,1.854h-1.442c0.109-1.818,1.064-3.108,3.785-3.108,2.577,0,3.5,1.145,3.5,2.727v5.234a0.427,0.427,0,0,0,.5.454h0.523Zm-2.433-2.526V56.613a2.4,2.4,0,0,1-1.225.4l-1.352.164c-1.694.2-2.164,0.781-2.164,1.69,0,0.928.577,1.546,1.858,1.546A2.68,2.68,0,0,0,143.209,57.722Zm11.351-2.636v6.343h-1.441v-6.2a1.873,1.873,0,0,0-2.127-2.091,2.661,2.661,0,0,0-2.56,2.981v5.307H146.99V52.051h1.371v1.4a3.418,3.418,0,0,1,2.919-1.618A2.977,2.977,0,0,1,154.56,55.086Zm10.685-6.6v12.94h-1.37V59.975a3.646,3.646,0,0,1-3.19,1.672c-2.613,0-4.326-1.908-4.326-4.907s1.713-4.907,4.326-4.907A3.644,3.644,0,0,1,163.8,53.4V48.489h1.442Zm-1.388,8.251c0-2.272-1.19-3.6-2.991-3.6s-2.993,1.4-2.993,3.672,1.19,3.526,2.993,3.526S163.857,59.012,163.857,56.74Zm9.314-3.417v6.088c0,0.491.233,0.8,1.063,0.8h0.847v1.217c-0.4.037-.739,0.054-1.028,0.054-1.441,0-2.324-.509-2.324-1.945V53.323H170.2V52.051h1.532V49.4h1.442v2.653h1.91v1.273h-1.91Zm11.461,3.925h-7.064c0.143,2.108,1.243,3.072,2.865,3.072a2.391,2.391,0,0,0,2.469-1.745h1.5a3.885,3.885,0,0,1-4,3.072c-2.541,0-4.326-1.872-4.326-4.907,0-2.944,1.713-4.907,4.289-4.907,2.777,0,4.272,2.217,4.272,4.907v0.509ZM177.6,55.94h5.48a2.74,2.74,0,0,0-2.723-2.781C178.9,53.16,177.837,54.086,177.6,55.94Zm8.377,0.8c0-3.017,1.73-4.907,4.308-4.907a3.778,3.778,0,0,1,4,3.4h-1.495a2.429,2.429,0,0,0-2.506-2.091c-1.586,0-2.794,1.145-2.794,3.6s1.244,3.6,2.794,3.6a2.448,2.448,0,0,0,2.523-2.126h1.478a3.845,3.845,0,0,1-4,3.434C187.747,61.647,185.98,59.757,185.98,56.74Zm17.5-1.654v6.343h-1.442v-6.2a1.873,1.873,0,0,0-2.127-2.091,2.661,2.661,0,0,0-2.559,2.981v5.307h-1.442V48.489h1.442v4.852a3.418,3.418,0,0,1,2.847-1.508A2.977,2.977,0,0,1,203.478,55.086Zm1.98,5.4a1.055,1.055,0,0,1,2.109,0A1.055,1.055,0,1,1,205.458,60.484Z"/>
</svg>
