<svg id="TC" xmlns="http://www.w3.org/2000/svg" width="300" height="250" viewBox="0 0 300 250">
  <defs>
    <style>
      .cls-1 {
        fill: #080;
        fill-rule: evenodd;
      }
    </style>
  </defs>
  <path class="cls-1" d="M55.877,196.868a0.174,0.174,0,0,0,.11-0.1,0.382,0.382,0,0,0,.051-0.2v-4.459a9.128,9.128,0,0,0,2.433-1.719L53,190.385v-0.736h6.607v0.658a8.665,8.665,0,0,1-2.745,2.189l-0.011,4.372a0.824,0.824,0,0,1-.191.51,0.678,0.678,0,0,1-.543.255l-1.479.02-0.361-.785h1.6Zm10.258-.011a1.213,1.213,0,0,1-.171.668,0.579,0.579,0,0,1-.523.265H64.647l-0.422-.727H65.11a0.24,0.24,0,0,0,.192-0.083,0.287,0.287,0,0,0,.07-0.192V195.62h-2.1a4.483,4.483,0,0,1-1.066,2.317l-0.573-.51a4.7,4.7,0,0,0,.523-0.742,3.355,3.355,0,0,0,.221-0.57,4.484,4.484,0,0,0,.141-0.741V192.32l-0.261.285-0.634-.423a5.866,5.866,0,0,0,1.669-3.094l0.654,0.256a4.272,4.272,0,0,1-.12.609H65.6a11.351,11.351,0,0,1-.523,1.581h1.056v0.442a2.5,2.5,0,0,0,.915-0.677,1.854,1.854,0,0,0,.463-1.041h-1.1v-0.717h3.811a8.083,8.083,0,0,1-.453,2.209,0.652,0.652,0,0,1-.241.309,0.693,0.693,0,0,1-.382.133,2.233,2.233,0,0,1-.448-0.034c-0.192-.03-0.323-0.047-0.4-0.054l-0.232-.815a3.562,3.562,0,0,0,.713.225,0.3,0.3,0,0,0,.372-0.274c0.047-.158.117-0.484,0.211-0.982H68.248a3.542,3.542,0,0,1-.548,1.389,2.937,2.937,0,0,1-1.222.958l-0.322-.432Zm-2.585-6.187a6.548,6.548,0,0,1-.432.864l1.156-.009c0.073-.125.15-0.27,0.227-0.437a3.429,3.429,0,0,0,.165-0.418H63.551Zm0.392,2.554v-0.993H63.269v0.993h0.673Zm-0.673.668,0.01,1.03h0.663v-1.03H63.269Zm2.091-1.661H64.667v0.993h0.7Zm0.011,1.661h-0.7l0.011,1.021,0.694,0.009v-1.03Zm3.59,1.856v2.16H68.208l-0.011-2.16H66.256v-0.707l1.952-.011v-1.021H67.5a3.469,3.469,0,0,1-.513.884l-0.774-.265a2.714,2.714,0,0,0,.558-0.811,4.232,4.232,0,0,0,.307-1.369l0.694,0.206a3.192,3.192,0,0,1-.07.638L68.2,193.3l0.011-1.021,0.753-.01v1.021h1.177l-0.01.717H68.961v1.021h1.7v0.718h-1.7Zm11.224,2.121a18.818,18.818,0,0,1-3.148-.4,9.573,9.573,0,0,1-1.921-.654l-0.312.206a7.149,7.149,0,0,1-2.886.933l-0.453-.658a13.765,13.765,0,0,0,1.413-.309,8.909,8.909,0,0,0,1.514-.555,6.828,6.828,0,0,1-1.459-1.257l0.583-.383a11.73,11.73,0,0,0,1.469,1.119,2.69,2.69,0,0,0,.347-0.589,3.137,3.137,0,0,0,.206-0.648H72.8l0.01-3.634H75.7v-0.726l-3.942.009v-0.7h8.579v0.7l-3.892-.009v0.726h2.8v3.634H76.3a3.664,3.664,0,0,1-.231.87,2.953,2.953,0,0,1-.422.741,4.934,4.934,0,0,0,1.226.408,17.518,17.518,0,0,0,1.816.284c0.687,0.076,1.343.119,1.966,0.133ZM73.557,192.5H75.7V191.75l-2.142-.009V192.5Zm0,1.465,2.083,0.009,0.04-.776H73.557v0.767Zm2.877-.767-0.051.776h2.132v-0.776H76.434Zm2.071-1.453H76.464l-0.01.755H78.5v-0.755Zm4.234,3.28a13,13,0,0,0,2.529-1.184,7.011,7.011,0,0,0,1.8-1.586,12.37,12.37,0,0,1-1.88.909,20.6,20.6,0,0,1-2.957.879l-0.483-.659q0.794-.175,1.735-0.431a11.637,11.637,0,0,0,1.4-.453,3.522,3.522,0,0,0-1.127-.824l0.7-.442a3.221,3.221,0,0,1,.588.427,3.933,3.933,0,0,1,.537.546,9.075,9.075,0,0,0,1.066-.629,9.427,9.427,0,0,0,.935-0.767H84.82a10.822,10.822,0,0,1-2.2,1.091l-0.664-.609a7.766,7.766,0,0,0,3.882-2.377l0.7,0.364a7.4,7.4,0,0,1-.734.785h2.836v0.659a7.079,7.079,0,0,1-.679.751,7.269,7.269,0,0,1-.739.643l0.593,0.314a4.458,4.458,0,0,1-.534.7L90,193.135l-0.011.659a6.822,6.822,0,0,1-.6.9,5.868,5.868,0,0,1-1.01,1,7.575,7.575,0,0,1-1.443.893,12.521,12.521,0,0,1-1.775.683,27.684,27.684,0,0,1-2.927.648l-0.5-.677a20.354,20.354,0,0,0,4.505-1.16,3.578,3.578,0,0,0-1.106-.982l0.724-.4a3.1,3.1,0,0,1,1.036,1.071,8.189,8.189,0,0,0,.98-0.6,4.3,4.3,0,0,0,.735-0.653,4.157,4.157,0,0,0,.467-0.634H86.5a7.974,7.974,0,0,1-1.141.8,18.9,18.9,0,0,1-2.037.973Z"/>
</svg>
