<svg id="TC" xmlns="http://www.w3.org/2000/svg" width="300" height="250" viewBox="0 0 300 250">
  <defs>
    <style>
      .cls-1 {
        fill: #4c286c;
        fill-rule: evenodd;
      }
    </style>
  </defs>
  <g id="txt1">
    <path class="cls-1" d="M44.072,137.124a15.859,15.859,0,0,0-.817-2.886A6.845,6.845,0,0,0,42,131.961a44.391,44.391,0,0,0,5.806-12.978l3.7,0.824v-0.286h22.5l0.036,3.3H63.416l-0.073.717h7.4v7.493h3.629v4.912H71.364a3.36,3.36,0,0,1,.38.466q0.2,0.288,1.289,1.9a16.615,16.615,0,0,0-3.484,1.865,9.548,9.548,0,0,0-1.379-2.223,4.481,4.481,0,0,1-.8,1.542,1.584,1.584,0,0,1-1.2.752h-4.1l-0.29.467h8.239l1.307,1.218a15.929,15.929,0,0,1-3.52,3.873,19.716,19.716,0,0,0,3.465.538,33.063,33.063,0,0,0,3.757.071q-1.162,1.434-1.579,2.044a5.764,5.764,0,0,0-.671,1.308A8.8,8.8,0,0,0,72.416,151a31.856,31.856,0,0,1-8.964-2.331,43.348,43.348,0,0,1-4.373,1.47,26.188,26.188,0,0,1-4.663.861,6.861,6.861,0,0,0-.944-2.224,7.653,7.653,0,0,0-1.451-1.721,25.087,25.087,0,0,0,6.786-.931L57.356,144.8a31.231,31.231,0,0,1-5.989,2.294,6.48,6.48,0,0,0-.381-0.771,5.1,5.1,0,0,0-.707-0.914c-0.316-.334-0.509-0.538-0.581-0.609v6.094H45.2V135.475Zm12.484,0a5.983,5.983,0,0,1-.218.771,7.3,7.3,0,0,1-.381.878c-0.158.311-.344,0.658-0.563,1.04s-0.363.645-.435,0.789a4.518,4.518,0,0,0-1.47-.843,11.287,11.287,0,0,0-2.522-.627,9.286,9.286,0,0,0,1.017-1.5,8.526,8.526,0,0,0,.689-1.578h-2.5v-5.055h2.686v-7.458h5.661l0.073-.717H51.512l-1.814,4.7v15.667a16.7,16.7,0,0,0,4.772-1.487,11.75,11.75,0,0,0,2.813-2.062,1.4,1.4,0,0,1-.49-0.627,1.934,1.934,0,0,1-.236-0.807v-1.076Zm-2.25-2.724,2.25,0.788V134.9a0.328,0.328,0,0,0-.254-0.251,0.324,0.324,0,0,1-.254-0.25,1.2,1.2,0,0,1,.036-0.234,0.64,0.64,0,0,1,.617-0.161h3.375l0.508-.251-6.278-.072V134.4Zm11.9-8.785H57.392v0.646h8.819v-0.646Zm0,2.367H57.392v0.646h8.819v-0.646Zm0,2.367H57.392v0.645h8.819v-0.645Zm-2.323,6.524a0.979,0.979,0,0,0,.49-0.161,2.236,2.236,0,0,0,.526-1.237q1.379,0.789,1.615.9a4.517,4.517,0,0,0,.454.18l-1.088-1.363,3.048-1.434-4.173-.072c0.048,0.048.2,0.233,0.454,0.556a5.039,5.039,0,0,1,.489.7q-0.29.144-1.161,0.538t-1.362.681q-0.49.288-.852,0.538a7.707,7.707,0,0,0-1.888-2.259v2.044q0,0.394.581,0.394h2.866Zm-2.177,6.776,1.307,0.754,1.125-.682Zm8.384-9.967H69.223a1.876,1.876,0,0,1,.2.126,2.23,2.23,0,0,1,.345.341q0.218,0.25.326,0.358v-0.825Zm12.484,16.457a17.018,17.018,0,0,0-3.847-2.438,15.007,15.007,0,0,0,3.738-6.7q2.613,0.681,4.064,1.146A17.027,17.027,0,0,1,82.578,150.139Zm-2.032-9.609-0.653-4.159,12.412,0.18v-0.968H82.687V125.472H92.3v-0.717H78.8v-3.8H92.269V120.13l-0.254-.395a0.289,0.289,0,0,1-.055-0.3,0.306,0.306,0,0,1,.164-0.233h5.045v1.721h13.61v3.872H97.168v0.717h9.654v10.183a27.845,27.845,0,0,1,2.541,4.266,11.127,11.127,0,0,0-4.175,1.075l-0.435-1.147-7.294.143a17.474,17.474,0,0,1,2.468,3.155,9.326,9.326,0,0,0-3.919,2.044,23.847,23.847,0,0,0-2.867-4.123l1.6-.861Zm11.723-12.153h-4.9v0.9h4.9v-0.9Zm0,3.477h-4.9v0.86h4.9v-0.86Zm6.46,14.341a1.91,1.91,0,0,0,.707-0.484,5.473,5.473,0,0,0,.889-1.847,14.474,14.474,0,0,0,1.888.861,12.657,12.657,0,0,0,2.105.645c-0.025.12-.091,0.443-0.2,0.969a10.315,10.315,0,0,1-.382,1.4,3.863,3.863,0,0,1-.561,1.058,3.32,3.32,0,0,1-.708.7,4.3,4.3,0,0,1-.69.394,7.339,7.339,0,0,1-2.794.466l-7.477-.036a5.173,5.173,0,0,1-1.651-.287,2.731,2.731,0,0,1-1.869-2.582v-5.413a0.7,0.7,0,0,0-.09-0.287,1.12,1.12,0,0,0-.2-0.287,0.267,0.267,0,0,1-.036-0.3,0.309,0.309,0,0,1,.326-0.2h4.646v4.588a0.627,0.627,0,0,0,.762.646h5.336Zm4.137-9.537-0.472-.537a6.764,6.764,0,0,1,1.306-.43l-6.5-.072v1Zm-0.689-8.281H97.241v0.9h4.936v-0.9Zm0,3.477H97.241v0.86h4.936v-0.86Zm3.484,9.286A25.139,25.139,0,0,1,111,146.912a10.931,10.931,0,0,0-4.029,2.115,26.356,26.356,0,0,0-2.178-3.28,26.9,26.9,0,0,0-2.685-3.029l3.266-1.614Z"/>
  </g>
</svg>
