<svg id="TC" xmlns="http://www.w3.org/2000/svg" width="300" height="250" viewBox="0 0 300 250">
  <defs>
    <style>
      .cls-1 {
        fill: #4c286c;
        fill-rule: evenodd;
      }
    </style>
  </defs>
  <g id="txt1">
    <path class="cls-1" d="M54.149,110.959H49.078v-9.971q-0.181.106-1.349,0.911t-2.14,1.341l-0.467.25a25.878,25.878,0,0,0-3.129-4.5,23.206,23.206,0,0,0,6.833-3.753h-6.4l-0.036-4.4H52.1l0.4-.608H46.309V86.12h7.625l0.144-.536H44.546V81.153H54.868a7.943,7.943,0,0,0,.108-1.108q0.036-.75.072-1.072l4.963,0.393-0.144,1.787H72.1l-0.036,4.432H59.148L59,86.12H70.333v4.11H57.53l-0.4.608H74.218v4.4H68.283a25.719,25.719,0,0,0,2.626,1.751,21.8,21.8,0,0,0,3.812,1.752q-0.324.393-1.133,1.554a23.513,23.513,0,0,0-1.709,2.984q-0.863-.464-2.553-1.59l-1.8-1.2V111H62.565V109.78H54.149v1.179ZM54.94,95.234l-0.863.894H62.6l-0.828-.894H54.94Zm7.625,4.932H54.149v0.858h8.416v-0.858Zm0,4.753H54.149v0.858h8.416v-0.858Zm25.823,5.4H83.532V80.509H105V110.28l-4.964-.036v-2.323l-11.652.036v2.359ZM100.04,85.263H88.388v6.5H100.04v-6.5Zm0,11.079H88.388v6.826H100.04V96.342Z"/>
  </g>
</svg>
