<svg id="TC" xmlns="http://www.w3.org/2000/svg" width="300" height="250" viewBox="0 0 300 250">
  <defs>
    <style>
      .cls-1 {
        fill: #4c286c;
        fill-rule: evenodd;
      }
    </style>
  </defs>
  <g id="txt1">
    <path class="cls-1" d="M79.727,162.6a0.236,0.236,0,0,0-.125-0.124,0.151,0.151,0,0,1-.066-0.269,0.316,0.316,0,0,1,.25-0.074h1.78v2.406h1.4v0.51q0.206-.336.492-0.911a18.677,18.677,0,0,0,.8-2.136l1.971,0.394a11.492,11.492,0,0,1-.507,1.1q-0.361.707-.464,0.926h1.294a12.091,12.091,0,0,0,.78-2.377l2,0.51q-0.03.058-.3,0.773a9.23,9.23,0,0,1-.463,1.064l2.382,0.03v1.9H88.375v0.845l2.338,0.015v1.778H88.375V169.8h2.338v1.808H88.375v0.773h2.662v1.851H84.992v0.758H83.066v-6.867a0.518,0.518,0,0,0-.074.109,0.367,0.367,0,0,1-.147.139v0.9l-1.279.539v3.572a1.436,1.436,0,0,1-.559,1.2,5.574,5.574,0,0,1-1.926.35,3,3,0,0,0-.75-1.983q0.1,0,.4.015c0.2,0.01.358,0.012,0.47,0.007a1.822,1.822,0,0,0,.3-0.036,0.252,0.252,0,0,0,.154-0.1,0.233,0.233,0,0,0,.066-0.138V170.53q-0.295.1-1.324,0.408l-0.412-2.172,1.736-.35v-2.07l-1.647-.015v-1.793h1.647V162.6Zm2.338,3.747h-0.5v0.467Zm0.059,1.4a2.281,2.281,0,0,0-.559-0.466v0.641Zm4.338-.568v-0.846h-1.47v0.846h1.47Zm0,2.624v-0.846h-1.47V169.8h1.47Zm0,2.581v-0.773h-1.47v0.773h1.47Zm13.647-10.235v4.126H102.6V163.3a0.2,0.2,0,0,0-.147-0.138,0.193,0.193,0,0,1-.147-0.153c0-.106.088-0.16,0.265-0.16h2.015v5.714H102.6V168.08H100.11v4.477l2.853-.015v-3.236a0.194,0.194,0,0,0-.14-0.1,0.184,0.184,0,0,1-.139-0.162c0-.106.088-0.16,0.265-0.16l2.014-.014v6.109h-2.014l0.014-.685H95.3v0.655H93.448v-5.6a0.169,0.169,0,0,0-.14-0.139,0.175,0.175,0,0,1-.14-0.168c0-.115.1-0.174,0.309-0.174H95.3l-0.015,3.674h2.794V168.08L95.7,168.1v0.453H93.786L93.8,163.27a0.2,0.2,0,0,0-.147-0.125,0.2,0.2,0,0,1-.147-0.167,0.129,0.129,0,0,1,.081-0.116,0.371,0.371,0,0,1,.184-0.045H95.7v3.456h2.383v-3.645a0.177,0.177,0,0,0-.052-0.116,0.224,0.224,0,0,0-.11-0.074,0.142,0.142,0,0,1-.147-0.13,0.165,0.165,0,0,1,.206-0.161h2.132Z"/>
  </g>
</svg>
