<svg id="TC" xmlns="http://www.w3.org/2000/svg" width="300" height="250" viewBox="0 0 300 250">
  <defs>
    <style>
      .cls-1 {
        fill: #4c286c;
        fill-rule: evenodd;
      }
    </style>
  </defs>
  <g id="txt1">
    <path class="cls-1" d="M45.361,172.622q-0.043-.351-0.181-1.05T45,170.606l1.68-.224v-2.366H45.332v-1.638H46.68l0.014-1.75H45.2v-1.666h4.723v1.666H48.606v1.75h1.232v1.638H48.606v2.1l1.362-.211v1.625Zm10.676,0.252q0.319,0,.406-1.3a5.951,5.951,0,0,0,1.579.84,4.442,4.442,0,0,1-.167,1.161,1.975,1.975,0,0,1-.449.9,0.833,0.833,0,0,1-.587.28H54.69a1.23,1.23,0,0,1-.819-0.273,0.823,0.823,0,0,1-.326-0.651v-3.318H53.025A10.386,10.386,0,0,1,52.8,171.9a3.158,3.158,0,0,1-.377.875,4.755,4.755,0,0,1-.731.868,8.342,8.342,0,0,1-1.4.777,6.216,6.216,0,0,1-1.5.413,8.194,8.194,0,0,0-1.115-1.778,5.831,5.831,0,0,0,1.463-.252,4.732,4.732,0,0,0,1.2-.525,1.459,1.459,0,0,0,.594-0.623,3.351,3.351,0,0,0,.246-1.148H50.142v-7.743H56.69v7.743H55.371l0.015,2.17a0.2,0.2,0,0,0,.246.2h0.405Zm-4.012-7.967h2.8v-0.49h-2.8v0.49Zm0,1.933h2.8v-0.49h-2.8v0.49Zm0,2h2.8v-0.491h-2.8v0.491Zm8.663-2.423a0.249,0.249,0,0,0-.21-0.188,0.252,0.252,0,0,1-.21-0.2c0-.13.13-0.2,0.391-0.2h1.869v1.33l5.664,0.015,0.014-2.451-7.895-.027v-1.681H70v6.5h-1.8v-0.6l-5.679-.015v3.486a0.336,0.336,0,0,0,.167.3,0.759,0.759,0,0,0,.413.1l5.114-.014a7.475,7.475,0,0,0,.876-0.035,1.238,1.238,0,0,0,.478-0.161,1.145,1.145,0,0,0,.37-0.379,14.05,14.05,0,0,0,.261-1.652,5.447,5.447,0,0,0,1.8.785c0,0.037-.021.209-0.065,0.518s-0.092.583-.145,0.826a3.12,3.12,0,0,1-.218.658,2.244,2.244,0,0,1-.347.532,1.353,1.353,0,0,1-.543.364,3.186,3.186,0,0,1-.826.168q-0.55.056-1.825,0.056H62.3a1.919,1.919,0,0,1-1.094-.336,1.021,1.021,0,0,1-.5-0.882Z"/>
  </g>
</svg>
