<svg id="TC" xmlns="http://www.w3.org/2000/svg" width="300" height="250" viewBox="0 0 300 250">
  <defs>
    <style>
      .cls-1 {
        fill: #4c286c;
        fill-rule: evenodd;
      }
    </style>
  </defs>
  <path id="txt2" class="cls-1" d="M38.837,86.437q-0.034-.288-0.144-0.865t-0.144-.8l1.336-.185v-1.95H38.814v-1.35h1.071L39.9,79.848H38.71V78.475h3.755v1.373H41.417v1.442H42.4v1.35H41.417v1.731L42.5,84.2v1.339Zm8.488,0.208q0.254,0,.323-1.073a4.689,4.689,0,0,0,1.255.692,3.807,3.807,0,0,1-.132.958,1.65,1.65,0,0,1-.357.738,0.654,0.654,0,0,1-.466.231H46.254a0.955,0.955,0,0,1-.65-0.225,0.687,0.687,0,0,1-.259-0.537V84.695H44.93a8.784,8.784,0,0,1-.179,1.148,2.677,2.677,0,0,1-.3.721,3.858,3.858,0,0,1-.582.715,6.543,6.543,0,0,1-1.111.64,4.794,4.794,0,0,1-1.192.34,6.75,6.75,0,0,0-.887-1.465,4.491,4.491,0,0,0,1.164-.208,3.7,3.7,0,0,0,.956-0.433,1.186,1.186,0,0,0,.472-0.514,2.856,2.856,0,0,0,.2-0.946H42.637V78.314h5.206v6.381H46.795l0.012,1.789a0.159,0.159,0,0,0,.2.161h0.323Zm-3.19-6.566h2.223v-0.4H44.134v0.4Zm0,1.593h2.223v-0.4H44.134v0.4Zm0,1.65h2.223v-0.4H44.134v0.4Zm6.887-2a0.2,0.2,0,0,0-.167-0.156A0.2,0.2,0,0,1,50.688,81q0-.161.311-0.161h1.486v1.1l4.5,0.012L57,79.929l-6.277-.023V78.521h7.7v5.354H57v-0.5l-4.514-.011v2.873a0.278,0.278,0,0,0,.132.248,0.586,0.586,0,0,0,.329.087l4.066-.011a5.858,5.858,0,0,0,.7-0.029,0.957,0.957,0,0,0,.38-0.133,0.926,0.926,0,0,0,.293-0.312,12.078,12.078,0,0,0,.207-1.362,4.262,4.262,0,0,0,1.428.646c0,0.031-.017.173-0.052,0.427s-0.072.481-.115,0.681a2.682,2.682,0,0,1-.172.542,1.863,1.863,0,0,1-.277.439,1.07,1.07,0,0,1-.431.3,2.467,2.467,0,0,1-.657.139q-0.437.046-1.45,0.046H52.3a1.491,1.491,0,0,1-.869-0.277,0.848,0.848,0,0,1-.4-0.727Zm11.794-2.85a0.186,0.186,0,0,0-.1-0.1,0.12,0.12,0,0,1-.052-0.213,0.246,0.246,0,0,1,.2-0.058h1.394v1.9H65.35v0.4c0.107-.177.236-0.417,0.385-0.721A14.957,14.957,0,0,0,66.363,78l1.543,0.312a9.321,9.321,0,0,1-.4.871q-0.283.56-.363,0.733H68.16a9.684,9.684,0,0,0,.61-1.881l1.567,0.4q-0.024.046-.237,0.612a7.253,7.253,0,0,1-.363.842L71.6,79.918v1.5H69.588v0.669L71.418,82.1v1.408H69.588v0.669h1.831v1.431H69.588v0.612h2.085v1.465H66.939v0.6H65.43V82.849a0.413,0.413,0,0,0-.058.086,0.282,0.282,0,0,1-.115.11V83.76l-1,.427v2.827a1.139,1.139,0,0,1-.438.946,4.315,4.315,0,0,1-1.508.277,2.393,2.393,0,0,0-.588-1.57c0.054,0,.159,0,0.317.012s0.28,0.01.369,0.006a1.334,1.334,0,0,0,.236-0.029,0.2,0.2,0,0,0,.121-0.075,0.188,0.188,0,0,0,.052-0.11V84.753q-0.23.081-1.037,0.323l-0.323-1.719,1.359-.277V81.441l-1.29-.011V80.01h1.29V78.475Zm1.831,2.965H64.255V81.81Zm0.046,1.108a1.806,1.806,0,0,0-.437-0.369v0.508Zm3.4-.45V81.429H66.939V82.1H68.09Zm0,2.077V83.506H66.939v0.669H68.09Zm0,2.043V85.607H66.939v0.612H68.09Zm10.688-8.1v3.266h1.946V79.029a0.154,0.154,0,0,0-.114-0.11,0.153,0.153,0,0,1-.115-0.121c0-.085.069-0.127,0.207-0.127h1.578v4.523H80.724V82.814H78.778v3.543l2.235-.012V83.783A0.154,0.154,0,0,0,80.9,83.7a0.144,0.144,0,0,1-.11-0.127c0-.085.07-0.127,0.207-0.127l1.578-.011v4.835H81l0.012-.542h-6v0.519H73.561V83.818a0.133,0.133,0,0,0-.109-0.11,0.139,0.139,0,0,1-.109-0.132c0-.093.081-0.139,0.241-0.139h1.429L75,86.345h2.188V82.814l-1.865.012v0.358h-1.5l0.011-4.177a0.157,0.157,0,0,0-.114-0.1,0.156,0.156,0,0,1-.115-0.133,0.1,0.1,0,0,1,.064-0.092,0.289,0.289,0,0,1,.144-0.035h1.509v2.735h1.865V78.5a0.144,0.144,0,0,0-.04-0.093,0.176,0.176,0,0,0-.086-0.057,0.113,0.113,0,0,1-.115-0.1,0.13,0.13,0,0,1,.161-0.127h1.669ZM44.763,104.371q-1.313.16-4.967,0.257l-0.721-1.189a46.115,46.115,0,0,0,6.1-.289,24.157,24.157,0,0,0,5.336-1.107l0.673,0.915a21.385,21.385,0,0,1-5.176,1.268V106.6h4.567v1.172H46.013v2.457l5.881-.016v1.172H46v3.837a1.075,1.075,0,0,1-1.137,1.284H42.649L42.2,115.192q1.6,0.144,2.019.128a0.622,0.622,0,0,0,.409-0.145,0.549,0.549,0,0,0,.136-0.417v-3.371h-6.12l-0.017-1.156h6.137l0.017-2.457H39.973L39.956,106.6h4.807v-2.231ZM62.486,102.2l1.218,0.016q0,3.5.4,8.172h1.634a9.666,9.666,0,0,0-1.137-.851l0.608-.529-0.769.144-0.449-.964a12.286,12.286,0,0,0,1.731-2.151l-1.347.322-0.56-.916q0.512-.69,1.089-1.629a12.242,12.242,0,0,0,.865-1.63l1.025,0.674A13.155,13.155,0,0,1,65.386,105l1.026-.129q0.111-.16.689-1.139l0.945,0.545a15.62,15.62,0,0,1-2.435,3.549l1.09-.161-0.288-.642,0.9-.418a8.8,8.8,0,0,1,.993,2.6l-1.042.385a4.109,4.109,0,0,0-.24-0.883l-1.41.193q0.192,0.129.625,0.45a9.454,9.454,0,0,1,.929.8l-0.193.241h1.186v1.124H64.3a8.807,8.807,0,0,0,.594,1.7,16.124,16.124,0,0,0,1.939-1.558l0.8,0.771a21.217,21.217,0,0,1-2.1,1.718,4.437,4.437,0,0,0,.994.787,0.494,0.494,0,0,0,.384.056,0.335,0.335,0,0,0,.208-0.265l0.336-1.718,1.17,0.482a11.407,11.407,0,0,1-.609,2.039,1.215,1.215,0,0,1-.865.754,1.77,1.77,0,0,1-1.2-.288,7.074,7.074,0,0,1-1.458-1.189,13.569,13.569,0,0,1-1.755.787,14.119,14.119,0,0,1-2.043.578L60.1,115.079a10.5,10.5,0,0,0,3.733-1.2,7.96,7.96,0,0,1-.736-2.36H60.948l-0.1.61a8.643,8.643,0,0,1,2.195,1.381l-0.656.931a6.653,6.653,0,0,0-1.811-1.188,6.479,6.479,0,0,1-2.163,2.97l-0.881-.915a5.7,5.7,0,0,0,.978-0.9,4.772,4.772,0,0,0,.817-1.325,5.762,5.762,0,0,0,.417-1.565h-1.81v-1.124h1.858v-0.915H60.98v0.915h1.938l-0.08-.915-0.993.305-0.289-.867-2.356.353-0.48-.867a14.492,14.492,0,0,0,1.747-2.328l-1.33.306-0.4-.819v0.851H57.423v1.316l0.3-.289a9.51,9.51,0,0,1,1.506,2.216l-0.866.674a12.389,12.389,0,0,0-.945-1.638v7.819h-1.2v-6.389a18.32,18.32,0,0,1-1.315,2.6l-1.105-.594a15.105,15.105,0,0,0,2.372-5.715H54.41v-1.124l1.811,0.016v-3.1h1.2v3.1h1.346a14.252,14.252,0,0,0,1.7-3.018l1.042,0.593a14.361,14.361,0,0,1-1.3,2.184l0.9-.16q0.336-.627.545-1.124l0.9,0.481Zm0.08,2.248a16.148,16.148,0,0,1-2.372,3.58l1.074-.144-0.321-.578,0.978-.434q0.223,0.45.465,1.092t0.368,1.108Q62.566,106.41,62.566,104.451Zm15.143,6.454q-0.129-.208-0.457-0.65a9.637,9.637,0,0,0-.785-0.915c-0.3-.316-0.543-0.549-0.713-0.7l0.9-.9a13.249,13.249,0,0,1,2.2,2.055ZM97.194,102.3a11.464,11.464,0,0,1-.24,2.777h3.06v1.172H99.245a17.068,17.068,0,0,1-1.395,6.261,7.828,7.828,0,0,0,1.082,1.694,8.327,8.327,0,0,0,1.546,1.454l-0.833.882A8.8,8.8,0,0,1,97.21,113.7a11.665,11.665,0,0,1-.986,1.452,10.529,10.529,0,0,1-1.338,1.357l-0.8-.819a7.328,7.328,0,0,0,1.225-1.18,12.513,12.513,0,0,0,1.307-2,20.091,20.091,0,0,1-1.009-3.692q-0.081.112-.281,0.425a4.553,4.553,0,0,1-.3.426l-0.642-.434v1.542H90.608l0.689,0.3-0.241.433,4.311,0.016v1.124l-1.939-.016a4.355,4.355,0,0,1-1.218,1.589q0.513,0.225,1.795.916l-0.673.979-0.432-.249q-0.321-.184-0.93-0.5l-0.769-.393a10.823,10.823,0,0,1-4.631,1.541l-0.5-1.108a10.793,10.793,0,0,0,3.718-.882,9.16,9.16,0,0,0-2.355-.4q0.625-.609.937-0.931a3.684,3.684,0,0,0,.457-0.546H86.377l0.017-1.124,3.236-.016,0.481-.738H87.339V108.16h2.884v-0.546l-2.9.016v-1.782H86.186l-0.017-1.092h1.154V103.15h2.9v-1.059l1.2-.016,0.017,1.075h2.9l0.017,1.606h0.961v1.092H94.358l-0.017,1.782-2.916-.016,0.017,0.546h2.948V108.5a7.455,7.455,0,0,0,1.3-2.818,16.828,16.828,0,0,0,.417-3.636Zm-8.7,1.862-0.016.594h1.746v-0.578Zm-0.016,1.686,0.016,0.738,1.73,0.016v-0.754H88.477Zm1.746,3.933,0.017-.642-1.731.016v0.626h1.715Zm0.882,3.982a3.946,3.946,0,0,0,1.009-1.108l-1.843-.016-0.625.738Zm2.1-7.915H91.442l-0.017.77L93.2,106.6v-0.754Zm0.032,3.307H91.425l0.017,0.626h1.795v-0.626Zm-1.795-4.993v0.594H93.2v-0.594H91.442Zm5.287,2.071c-0.022.064-.071,0.211-0.152,0.442s-0.137.4-.168,0.521q0.063,0.306.192,1.108t0.249,1.325c0.08,0.347.154,0.636,0.225,0.867s0.13,0.42.184,0.57a20.912,20.912,0,0,0,.577-2.112,15.116,15.116,0,0,0,.288-2.721H96.729Zm8.509,8.959a1.207,1.207,0,0,1-.2.706,1.368,1.368,0,0,1-.665.466,1.994,1.994,0,0,1-.528.12q-0.273.024-.617,0.024h-0.489l-0.513-1.156c0.471,0.032.929,0.048,1.378,0.048a0.38,0.38,0,0,0,.3-0.128,0.466,0.466,0,0,0,.113-0.321v-3.789l-1.474.626-0.737-.931,2.2-.963v-3.42h-1.651l-0.015-1.156h1.682L104,102.187h1.2l0.017,3.115h1.313v1.172h-1.3v2.89l1.33-.594v1.236l-1.346.594Zm9.246-7.418v0.964h-3.4a1.135,1.135,0,0,1-.633-0.209,1.052,1.052,0,0,1-.424-0.514,2.011,2.011,0,0,1-.1-0.594l-1.619.209-0.015-1.076,1.569-.128,0.017-.691h-1.843l-0.016,4.977a9.3,9.3,0,0,1-1.843,5.828l-1.041-.738a6.538,6.538,0,0,0,1.25-2.3,14.164,14.164,0,0,0,.432-4.046v-4.9h3.044l0.017-2.408h1.2v0.867l3.67,0.016V104l-3.67.017v0.545h4.808a6.217,6.217,0,0,1-.137.8q-0.1.457-.552,1.79l-1.09-.257c0.011-.042.034-0.131,0.072-0.264s0.093-.308.169-0.522,0.117-.343.128-0.386H111.1V106.3l2.676-.257v1.012l-2.676.273a0.359,0.359,0,0,0,.416.433Zm1.089,7.69a3.651,3.651,0,0,1-1.923-2.633l-0.272.161a6.179,6.179,0,0,1,.192,2.192,1.344,1.344,0,0,1-.657,1.019,2.022,2.022,0,0,1-.625.2,4.466,4.466,0,0,1-.913.024c-0.374-.022-0.577-0.032-0.609-0.032l-0.4-1.124c0.171,0.011.483,0.056,0.938,0.137a1.952,1.952,0,0,0,1.033-.025,0.549,0.549,0,0,0,.2-0.289,3.032,3.032,0,0,0-.023-1.107,13.411,13.411,0,0,1-1.875,1.027,12.814,12.814,0,0,1-2.18.69l-0.7-.882a15.255,15.255,0,0,0,2.355-.635,8.116,8.116,0,0,0,2.115-1.212l-0.192-.4a10.557,10.557,0,0,1-1.811.9,13.822,13.822,0,0,1-1.683.5l-0.7-.9a14.937,14.937,0,0,0,2.083-.562,6.743,6.743,0,0,0,1.571-.786c-0.011-.011-0.048-0.056-0.112-0.137a0.834,0.834,0,0,0-.144-0.152,13.855,13.855,0,0,1-2.516.642l-0.641-.963a10.234,10.234,0,0,0,3.461-.916l-3.093-.031v-1.044h7.116l-0.017,1.044-2.131.016c-0.032.032-.107,0.093-0.224,0.184s-0.449.292-.994,0.6a5.263,5.263,0,0,1,.753.963,3.714,3.714,0,0,0,.914-0.562,7.263,7.263,0,0,0,.881-0.834l0.818,0.8q-0.129.16-.3,0.344a7.6,7.6,0,0,1-.665.6,3.326,3.326,0,0,0,1.764,2.376Zm5.24-.064a12.283,12.283,0,0,0,4.583-2.279,12.364,12.364,0,0,1-1.715-2.176,14.523,14.523,0,0,1-1.233-2.577,15.84,15.84,0,0,1-.914,5.025,12.451,12.451,0,0,1-2.035,3.131c-0.171-.086-0.424-0.23-0.761-0.433s-0.515-.311-0.537-0.321a7.917,7.917,0,0,0,2.468-4.014q0.111-.5.233-1.333t0.216-2.633q0.111-2.039.063-3.468h-2.147V103.1h10.207v1.06q-0.689,1.044-2.083,2.874h3.173a8.473,8.473,0,0,1-1.01,3.339,13.522,13.522,0,0,1-2.034,2.7,13.542,13.542,0,0,0,4.742,2.248l-0.753,1.156a14.582,14.582,0,0,1-4.951-2.521,11.909,11.909,0,0,1-4.727,2.521Zm1.731-10.339q0.192,0.675.512,1.6a26.313,26.313,0,0,0,1.122,2.6,9.672,9.672,0,0,0,.713,1.253,14.785,14.785,0,0,0,1.483,1.734,10.978,10.978,0,0,0,1.489-1.9,8.322,8.322,0,0,0,.994-2.111h-3.414v-1.076q1.38-1.734,2.116-2.842h-5.015v0.739Zm13.107,0.691v1.509l-1.2.016-0.016-2.7h5.8V104H135.25v-1.155h11.2L146.435,104h-4.983v0.579h5.736l0.016,2.568-1.217.016v-1.412l-4.535.015v3.211h-1.218l0.016-3.226h-4.6Zm5.8,8.621a0.348,0.348,0,0,0,.128.273,0.625,0.625,0,0,0,.417.112h4.053a0.455,0.455,0,0,0,.361-0.184,1.15,1.15,0,0,0,.217-0.41q0.095-.417.24-1.429l1.153,0.386a5.9,5.9,0,0,1-.673,2.255,1.188,1.188,0,0,1-.993.554h-4.888a1.243,1.243,0,0,1-.768-0.217,0.984,0.984,0,0,1-.377-0.538,2.329,2.329,0,0,1-.088-0.61l0.016-.69-4.759.016v-4.624l10.736,0.017v4.607l-4.775-.016v0.5Zm-1.7-7.1H136.02v-1.06h3.733v1.06Zm0.017,0.465-0.017,1.044h-3.718l-0.015-1.044h3.75Zm-3.077,2.714v0.562h3.557l-0.016-.579Zm3.541,2.263,0.016-.658h-3.557v0.658h3.541Zm4.775-1.7,0.017-.595-3.574.033v0.562h3.557Zm0.017,1.059-3.574-.016v0.658h3.557Zm-3.11-5.86h3.8v1.06l-3.782.015Zm3.782,1.525,0.016,1.044h-3.782v-1.044H145.7Zm10.256,7.45a0.566,0.566,0,0,0,.473-0.217,0.854,0.854,0,0,0,.169-0.538v-4.7h-6.138v-1.188H156.6l0.015-1.606a18.464,18.464,0,0,0,1.619-1.2,12.881,12.881,0,0,0,1.682-1.637h-7.483V102.91l9.23,0.016v0.9a16.154,16.154,0,0,1-1.8,2.039,14.922,14.922,0,0,1-2.043,1.67v1.011h5.833v1.188h-5.833l-0.015,5.346a1.107,1.107,0,0,1-.233.667,1.4,1.4,0,0,1-.5.441,1.865,1.865,0,0,1-.785.161q-0.578.032-1.763,0l-0.913-1.156h2.355Zm10.72,1.3V105.559h2.179v-1.654h-3.06v-1.172h8.493v1.172h-2.372v1.654H174v10.933h-1.267V115.32h-4.823v1.172h-1.234Zm5.112-5.683a1.285,1.285,0,0,1-.729-0.41,1.171,1.171,0,0,1-.36-0.859v-2.761h-0.61a13.094,13.094,0,0,1-.313,2.456,5.372,5.372,0,0,1-.544,1.357,9.5,9.5,0,0,1-.665.987l-0.673-.385v0.674h4.839v-1.059h-0.945Zm-3.894-4.03v3.66a5.721,5.721,0,0,0,.657-1.332,8.432,8.432,0,0,0,.3-2.328h-0.961Zm0.016,6.261v1.108h4.871V113.04h-4.871Zm2.789-7.433v-1.7h-0.625v1.7H170.7Zm2.034,1.172h-0.865v2.665a0.772,0.772,0,0,0,.08.128,0.39,0.39,0,0,0,.152.113,0.632,0.632,0,0,0,.225.056,1.82,1.82,0,0,0,.256,0l0.152-.008v-2.954Zm7.323,5.828q-0.065.626-.433,2.28a1.323,1.323,0,0,1-.352.634,1.167,1.167,0,0,1-.673.377h-2.339a1.187,1.187,0,0,1-.577-0.169,1.356,1.356,0,0,1-.513-0.529,1.375,1.375,0,0,1-.208-0.683v-6.823h2.964v-3.789h-3.3v-1.172h4.5v7h-1.2v-0.867h-1.7v5.539q0,0.386.61,0.385h1.329a0.467,0.467,0,0,0,.288-0.409,8.358,8.358,0,0,0,.249-1.228c0.08-.546.126-0.861,0.137-0.948Zm1.442-2.954a16.578,16.578,0,0,0,3.574-7.61l1.154,0.241a19.62,19.62,0,0,1-.994,3.644v10.548l-1.234.016v-8.268q-0.434.69-1.458,2.167Zm4.327,1.14,0.015-1.221h4.455l0.016-3.179-2.162-.015a15.034,15.034,0,0,1-1.395,2.584l-1.122-.562a10.107,10.107,0,0,0,1.37-2.432,11.786,11.786,0,0,0,.682-2.8l1.105,0.353a7.656,7.656,0,0,1-.24,1.653l1.746-.016,0.016-3.179L191.591,102v3.162l3.318,0.016v1.22l-3.318-.015v3.194l4.407-.015v1.22l-4.407.016-0.015,5.6h-1.283l0.016-5.6h-4.486ZM39.893,121.638l4.775-.016a6.964,6.964,0,0,0,.208-1.236l1.17,0.256a8.374,8.374,0,0,1-.144,1h4.935v1.172H45.645l-0.24.771H49.78l0.016,1.155H44.908l-0.481.916h7.467l0.017,1.155H48.689a7.676,7.676,0,0,0,4.006,2.424l-0.656,1.092a8.27,8.27,0,0,1-1.186-.449,8.774,8.774,0,0,1-1.442-.819l-0.017,5.8-1.3-.017v-0.963H42.729V134.9l-1.3-.017,0.017-6.068a10.36,10.36,0,0,1-1.258.8,9.18,9.18,0,0,1-1.355.626L38,129.263q0.706-.3,1.538-0.762a13.672,13.672,0,0,0,1.45-.907,6.217,6.217,0,0,0,.921-0.787h-3.06v-1.172h4.086a5.58,5.58,0,0,0,.608-0.9H41l-0.016-1.155h3.093a6.683,6.683,0,0,0,.336-0.771l-4.518-.016v-1.156Zm8.092,6.261a5.891,5.891,0,0,1-.866-1.092l-3.509.017a12.28,12.28,0,0,1-.978,1.075h5.353Zm0.1,2.328v-1.172l-5.352.016v1.156h5.352Zm-5.352,1.139V132.7h5.352l0.016-1.333H42.729Zm23.123-9.536v12.443l-1.282-.017-0.017-1.525H58.288v1.606l-1.266-.016,0.016-12.491h8.814ZM58.3,126.6l6.265-.015v-3.564H58.288Zm6.281,1.172h-6.3l0.017,3.773h6.265Zm9.47-2.038a6.076,6.076,0,0,1,1.034,1.251,3.243,3.243,0,0,1,.457,1.245,3.87,3.87,0,0,1-.032,1.212,2.077,2.077,0,0,1-.5.963,1.9,1.9,0,0,1-.866.611,3.046,3.046,0,0,1-1.554.048l-0.288-1.333c0.513,0.107.825,0.169,0.938,0.184a1.183,1.183,0,0,0,.312.009,0.871,0.871,0,0,0,.256-0.065,0.821,0.821,0,0,0,.177-0.1,1.049,1.049,0,0,0,.328-0.5,1.652,1.652,0,0,0,.009-0.875,4.7,4.7,0,0,0-1.635-2.441q1.09-2.535,1.41-3.579l-2-.017v12.523l-1.185.032L70.9,121.156h4.5v1.188Zm9.422,9.087a6.364,6.364,0,0,1-2.372-1.67,7.8,7.8,0,0,1-1.6-2.457,9.157,9.157,0,0,1-.577-2.568l-1.667.016-0.016,4.832q0.352-.176,1.338-0.562t1.13-.45v1.221l-3.43,1.509c-0.022-.01-0.157-0.115-0.408-0.313s-0.452-.361-0.6-0.489a1.777,1.777,0,0,0,.545-0.418,1.035,1.035,0,0,0,.225-0.706V121.2H82.82l0.017,6.888-2.708.015a11.734,11.734,0,0,0,.232,1.285,5.614,5.614,0,0,0,.393,1.028l2.323-2.056L83.99,129.2q-0.257.242-.793,0.714t-1.931,1.5a4.942,4.942,0,0,0,1.225,1.39,6.767,6.767,0,0,0,1.723,1Zm-6.217-10.8h4.358v-1.653H77.26v1.653ZM81.6,125.17l-4.342.016v1.766l4.31-.032Zm14.533,8.862a11.454,11.454,0,0,1-3.085-.177,6.571,6.571,0,0,1-2.716-1.076l-1.122-.915a8.491,8.491,0,0,1-2.451,3.035,6.731,6.731,0,0,1-.537-0.53c-0.219-.235-0.372-0.4-0.457-0.481a7.245,7.245,0,0,0,.985-0.747,5.578,5.578,0,0,0,.978-1.156,4.646,4.646,0,0,0,.617-1.389,14.335,14.335,0,0,0,.3-2.842H89.9a17.7,17.7,0,0,1-.273,2.842,7.887,7.887,0,0,0,.953.891,6.392,6.392,0,0,0,1.09.731,3.427,3.427,0,0,0,.825.32l0.032-6.051h-4.1l0.032-1.156,9.374-.033v1.189l-4.1.015-0.049,2.376,5-.016v1.172l-4.951.016v2.7l2.051,0.065h4.6l-0.625,1.22H96.136ZM92.13,120.273a8.772,8.772,0,0,1,1.2.8,11.3,11.3,0,0,1,1.105.955l-0.384.257,5.512,0.032-0.016,3.2H98.315l0.032-1.974L88.028,123.5v1.911H86.794l0.017-3.1H93a7.473,7.473,0,0,0-1.955-1.412ZM103.8,135v-7.819a9.07,9.07,0,0,1-1.17,1.526L101.537,128a12.267,12.267,0,0,0,2.1-3.284,20.525,20.525,0,0,0,1.411-4.294l1.1,0.417q-0.175.756-.529,1.911T105,124.656V135h-1.2Zm5.576-4.624a2.589,2.589,0,0,1-.176.386l4.823,0.016v0.867a11.728,11.728,0,0,1-.921.915,5.026,5.026,0,0,1-.906.674,8.786,8.786,0,0,0,1.843.433,12.1,12.1,0,0,0,2.307.129l-0.593,1.076a12.524,12.524,0,0,1-4.774-1,13.665,13.665,0,0,1-5.048,1.059l-0.513-1.075a12.284,12.284,0,0,0,4.374-.642,5.087,5.087,0,0,1-1.393-1.349,6.236,6.236,0,0,1-.986.795,5.724,5.724,0,0,1-.905.442l-0.785-.8a4.653,4.653,0,0,0,2.771-2.424l0.337,0.176-0.128-.337a2.7,2.7,0,0,1-.048-0.666c0-.348-0.006-0.575-0.016-0.683l0.929-.016v0.771a0.288,0.288,0,0,0,.073.265,0.35,0.35,0,0,0,.279.121h2.052a0.308,0.308,0,0,0,.28-0.138,0.759,0.759,0,0,0,.112-0.337c0.016-.133.03-0.28,0.041-0.441l0.48,0.161,1.026-.5a2.087,2.087,0,0,1,.529.37V128h-3.4a3.645,3.645,0,0,1,1.09.737l-0.834.643-0.464-.346q-0.336-.247-0.641-0.441a3.1,3.1,0,0,0-.7-0.321l0.3-.272-2.9.015v0.948h-1.154v-1.991h1.2v-4.174H110l0.24-.45h-4.166v-1.027h9.935v1.027l-4.6-.016-0.144.466h3.076v4.174h1.267l-0.017,1.846h-0.9a6.392,6.392,0,0,1,.9,1.139l-0.833.579a5,5,0,0,0-1.539-1.51,1.911,1.911,0,0,1-.392.964,1,1,0,0,1-.809.385h-2.644Zm-0.93-1.429a5.388,5.388,0,0,1-1.907,1.687l-0.816-.884a5.537,5.537,0,0,0,.9-0.482,4.991,4.991,0,0,0,1.018-.93Zm-0.3-4.671,5.016,0.016v-0.465l-5.016-.017v0.466Zm0,0.883v0.465h5.016v-0.465h-5.016Zm5.016,1.814v-0.45h-5.016v0.45h5.016Zm-3.462,4.8a1.745,1.745,0,0,0,.337.313c0.139,0.1.31,0.219,0.512,0.354s0.337,0.222.4,0.264c0.118-.042.241-0.091,0.369-0.144a3.04,3.04,0,0,0,.392-0.2q0.2-.12.465-0.305c0.177-.123.3-0.206,0.361-0.248Zm8.06,0.9a6.379,6.379,0,0,0,3.269-2.007q0.69,0.514.865,0.674a5.328,5.328,0,0,1-1.37,1.382,6.925,6.925,0,0,1-1.818.931Zm6.714-4.575-4.23.015v-4.864l4.23,0.017v-0.546l-6.249-.016,0.016-1.157h6.233v-1.3H125.7v1.285l6.265,0.015V122.7H125.7v0.562l4.278,0.015-0.016,4.817h-0.336a6.584,6.584,0,0,1,2.179,1.974l-1.074.707a7,7,0,0,0-.738-0.931q-2.226.094-5.111,0.1l0.425,0.249c0.229,0.134.443,0.27,0.64,0.409a3.467,3.467,0,0,1,.562.5,5.194,5.194,0,0,1,.416.506c0.1,0.144.168,0.243,0.2,0.3l-1.042.706a5.379,5.379,0,0,0-2.339-2.039l0.833-.562q-3.141.033-5.785,0.112l-0.657-1.236q1.089,0.017,6.329-.032v-0.754Zm0-3.067V124.4h-2.98v0.626h2.98Zm0,1.14h-2.98v0.755h2.98v-0.755Zm-0.993,4.464v2.006a0.539,0.539,0,0,0,.136.273,0.59,0.59,0,0,0,.265.193h3.156a0.947,0.947,0,0,0,.217-0.113,0.549,0.549,0,0,0,.192-0.264,3.589,3.589,0,0,0,.144-0.627,4.522,4.522,0,0,1,.136-0.634,10.252,10.252,0,0,1,1.154.482q-0.031.129-.1,0.5c-0.048.252-.094,0.45-0.136,0.594a2.981,2.981,0,0,1-.168.434,1.453,1.453,0,0,1-.281.393,1.253,1.253,0,0,1-.4.273,4.633,4.633,0,0,1-1.634.112h-2.58a1.419,1.419,0,0,1-.737-0.32,1.839,1.839,0,0,1-.513-0.643,3.9,3.9,0,0,1-.128-0.931v-1.733h1.282Zm5.047-1.9a4.388,4.388,0,0,1-.785-0.369l0.4-.24-2.435-.032-0.017.689Zm-2.819-3.708h3.012V124.4H125.7v0.626Zm0.015,1.895h2.98v-0.739h-2.98v0.739Zm5.721,7.064a6.94,6.94,0,0,0-2.917-2.5l0.914-.691a6.826,6.826,0,0,1,1.835,1.093,6.359,6.359,0,0,1,1.177,1.364Zm6.506-13.084q-0.065.321-.176,0.746c-0.076.284-.167,0.583-0.273,0.9s-0.233.653-.377,1.011-0.222.56-.233,0.6l0.017,10.788h-1.218v-8.4a6.02,6.02,0,0,1-.5.722c-0.247.322-.514,0.637-0.8,0.948l-0.994-.867a12.356,12.356,0,0,0,2.163-3.018,14.835,14.835,0,0,0,1.329-3.773Zm4.438,12.586a11,11,0,0,1-4.2,1.477l-0.609-1.156a9.751,9.751,0,0,0,4.134-1.124Zm4.952-10.5,0.015,3.033-9.214.017-0.015-3.05h2.676v-0.595H137.91V121.3H148.1v1.091l-3.444-.016V123Zm-8.574,9.6v-6.052h7.932l-0.016,6.052h-7.916Zm0.594-7.561h1.426l0.016-.963-1.459-.016Zm0.608,3.147h5.512v-0.611h-5.5Zm5.512,1.637v-0.593l-5.512-.017v0.61h5.512Zm0,1.75v-0.69h-5.5v0.69h5.5Zm-3.492-8.572h1.474v-0.611l-1.474.016v0.595Zm0,1.075v0.963h1.489v-0.979Zm5.5,10.885a11.08,11.08,0,0,0-4.262-1.237l0.625-.994a12.449,12.449,0,0,1,4.31,1.172Zm-2.819-10.885v0.963h1.474v-0.979Z"/>
</svg>
